<?xml version="1.0" encoding="UTF-8" standalone="no"?>
<!-- Created with Inkscape (http://www.inkscape.org/) -->

<svg
   version="1.1"
   id="svg2"
   width="559.35999"
   height="361.6051"
   viewBox="0 0 559.35998 361.6051"
   sodipodi:docname="pages_08.pdf"
   xmlns:inkscape="http://www.inkscape.org/namespaces/inkscape"
   xmlns:sodipodi="http://sodipodi.sourceforge.net/DTD/sodipodi-0.dtd"
   xmlns="http://www.w3.org/2000/svg"
   xmlns:svg="http://www.w3.org/2000/svg">
  <defs
     id="defs6" />
  <sodipodi:namedview
     id="namedview4"
     pagecolor="#ffffff"
     bordercolor="#666666"
     borderopacity="1.0"
     inkscape:showpageshadow="2"
     inkscape:pageopacity="0.0"
     inkscape:pagecheckerboard="0"
     inkscape:deskcolor="#d1d1d1" />
  <g
     id="g8"
     inkscape:groupmode="layer"
     inkscape:label="pages_08"
     transform="matrix(1.3333333,0,0,-1.3333333,0,396.83999)">
    <g
       id="g10"
       transform="scale(0.1)">
      <path
         d="M 0,2664.57 H 4195.2 V 2976.3 H 0 Z"
         style="fill:#7b7979;fill-opacity:1;fill-rule:nonzero;stroke:none"
         id="path12" />
      <g
         id="g14"
         transform="scale(10)">
        <text
           xml:space="preserve"
           transform="translate(25.5,15)"
           style="font-variant:normal;font-weight:normal;font-size:0.1px;font-family:Arial;-inkscape-font-specification:Arial;writing-mode:lr-tb;fill:#231f20;fill-opacity:1;fill-rule:nonzero;stroke:none"
           id="text18"><tspan
             x="0"
             y="0"
             id="tspan16"></tspan></text>
      </g>
      <path
         d="M 0,1105.51 H 2012.6 V 2125.98 H 0 Z"
         style="fill:#d3d2d2;fill-opacity:1;fill-rule:nonzero;stroke:none"
         id="path20" />
      <g
         id="g22"
         transform="scale(10)">
        <text
           xml:space="preserve"
           transform="translate(28.3,244.3)"
           style="font-variant:normal;font-weight:normal;font-size:0.1px;font-family:Arial;-inkscape-font-specification:Arial;writing-mode:lr-tb;fill:#231f20;fill-opacity:1;fill-rule:nonzero;stroke:none"
           id="text124"><tspan
             x="0 9 17.9 26.9 35.900002 44.799999 53.700001 63.700001 66.200005 68.600006 71.100006 73.600006 76.000008 78.500015 81.000015 83.400017 85.900024 88.300026 90.800026 93.300026 95.700027 98.200035 100.70004 103.10004 105.60004 108.10004 110.50005 113.00005 115.50005 117.90005 120.40005 122.90005 125.30006 127.80006 131.40005 140.30006 149.30006 158.20006"
             y="0"
             sodipodi:role="line"
             id="tspan24">✄✁✂☎✁✆✝✞✞✞✞✞✞✞✞✞✞✞✞✞✞✞✞✞✞✞✞✞✞✞✞✞✞✞✌✟✠✡</tspan><tspan
             x="0 9 17.9"
             y="-22.700001"
             sodipodi:role="line"
             id="tspan26">☛☞✍</tspan><tspan
             x="26.9"
             y="-22.799999"
             id="tspan28">✁</tspan><tspan
             x="35.799999 44.799999 53.700001"
             y="-22.700001"
             sodipodi:role="line"
             id="tspan30">✎✏✑</tspan><tspan
             x="63.700001 66.200005 68.600006 71.100006 73.600006 76.000008 78.500015 81.000015 83.400017 85.900024 88.300026 90.800026 93.300026 95.700027 98.200035 100.70004 103.10004 105.60004 108.10004 110.50005 113.00005 115.50005 117.90005 120.40005 122.90005 125.30006 127.80006 130.30006 132.70006 135.20007 137.70007 140.10007 142.60007 145.10008 147.50008 150.00008 152.50008 154.90009 157.40009"
             y="-22.799999"
             sodipodi:role="line"
             id="tspan32">✞✞✞✞✞✞✞✞✞✞✞✞✞✞✞✞✞✞✞✞✞✞✞✞✞✞✞✞✞✞✞✞✞✞✞✞✞✞✞</tspan><tspan
             x="161.3"
             y="-22.700001"
             id="tspan34">✒</tspan><tspan
             x="0 9 17.9 26.9 35.799999 44.799999 53.799999 56.300003 58.800003 61.200008 63.700008 66.200012 68.600014 71.100014 73.600021 76.000023 78.500023 81.000023 83.400024 85.900032 88.400032 90.800034 93.300034 95.700035 98.200043 100.70004 103.10004 105.60005 108.10005 110.50005 113.00005 115.50006 117.90006 120.40006 122.90006 125.30006 127.80007 130.30006 132.70007 135.20007 137.70007 140.10008 142.60008 145.10008 147.50009 150.00009 152.50009 154.9001 157.4001 161.30009"
             y="-45.5"
             sodipodi:role="line"
             id="tspan36">✓✔✕✖✗✘✞✞✞✞✞✞✞✞✞✞✞✞✞✞✞✞✞✞✞✞✞✞✞✞✞✞✞✞✞✞✞✞✞✞✞✞✞✞✞✞✞✞✞✙</tspan><tspan
             x="5.6999998 12.6 19.6 26.6 33.5 40.5 47.5 54.400002 61.400002 68.300003 76.599998 78.399994 80.299988 82.099983 83.999977 85.799973 87.699974 89.499969 91.399963 93.199959 95.099953 96.899948 98.799942 100.59994 102.39993 104.29993 106.09992 107.99992 109.79991 111.69991 113.4999 115.39989 117.19989 119.09988 120.89988 122.79988 124.59988 126.49987 128.29987 130.19986 131.99985 133.89984 135.69984 137.59984 139.39983 141.29984 143.09982 144.99982 146.79982 148.59981 150.4998 152.2998 154.1998 155.99979 157.89978 159.69978 162.60001"
             y="-58"
             sodipodi:role="line"
             id="tspan38">✚✛✜✢✣✤✥✦✧★✩✩✩✩✩✩✩✩✩✩✩✩✩✩✩✩✩✩✩✩✩✩✩✩✩✩✩✩✩✩✩✩✩✩✩✩✩✩✩✩✩✩✩✩✩✩✪</tspan><tspan
             x="5.6999998 12.6"
             y="-69.400002"
             sodipodi:role="line"
             id="tspan40">✫✬</tspan><tspan
             x="19.6"
             y="-69.5"
             id="tspan42">✢</tspan><tspan
             x="26.6 33.5"
             y="-69.400002"
             sodipodi:role="line"
             id="tspan44">✭✮</tspan><tspan
             x="40.5 47.400002 54.5 61.299999 69.199997 71 72.900002 74.699997 76.599991 78.399986 80.29998 82.099976 83.999969 85.799965 87.699966 89.499962 91.399956 93.199951 95.099945 96.89994 98.799934 100.59993 102.39993 104.29992 106.09991 107.99991 109.7999 111.6999 113.49989 115.39989 117.19988 119.09988 120.89987 122.79987 124.59987 126.49986 128.29985 130.19984 131.99985 133.89984 135.69983 137.59984 139.39983 141.29982 143.09982 144.99982 146.7998 148.59981 150.4998 152.29979 154.19978 156 157.89999 159.7 162.59999"
             y="-69.5"
             sodipodi:role="line"
             id="tspan46">✥✦✧★✩✩✩✩✩✩✩✩✩✩✩✩✩✩✩✩✩✩✩✩✩✩✩✩✩✩✩✩✩✩✩✩✩✩✩✩✩✩✩✩✩✩✩✩✩✩✩✩✩✩✪</tspan><tspan
             x="5.6999998 12.6 19.6 26.6"
             y="-80.800003"
             sodipodi:role="line"
             id="tspan48">✯✰✱✲</tspan><tspan
             x="33.599998 40.400002 47.5 54.400002 61.799999 63.600002 65.5 67.300003 69.200005 71.000008 72.900009 74.700005 76.599998 78.399994 80.299988 82.099983 83.999977 85.799973 87.699966 89.499962 91.399956 93.199951 95.099945 96.89994 98.799942 100.59994 102.39993 104.29993 106.09992 107.99992 109.79991 111.69991 113.4999 115.39989 117.19989 119.09988 120.89988 122.79987 124.59987 126.49986 128.29987 130.19986 131.99985 133.89984 135.69984 137.59984 139.39983 141.29982 143.09982 144.99982 146.7998 148.60001 150.5 152.29999 154.19998 155.99998"
             y="-80.900002"
             sodipodi:role="line"
             id="tspan50">✥✦✧★✩✩✩✩✩✩✩✩✩✩✩✩✩✩✩✩✩✩✩✩✩✩✩✩✩✩✩✩✩✩✩✩✩✩✩✩✩✩✩✩✩✩✩✩✩✩✩✩✩✩✩✩</tspan><tspan
             x="158 162.60001"
             y="-80.800003"
             sodipodi:role="line"
             id="tspan52">✳✴</tspan><tspan
             x="-0.1 9 17.9"
             y="-102.5"
             sodipodi:role="line"
             id="tspan54">✎✵✶</tspan><tspan
             x="26.799999"
             y="-102.6"
             id="tspan56">✕</tspan><tspan
             x="35.799999 44.799999 53.700001"
             y="-102.5"
             sodipodi:role="line"
             id="tspan58">✷✸✹</tspan><tspan
             x="62.599998 73.599998 76 78.500008 81.000008 83.400009 85.900009 88.300011 90.800018 93.300018 95.70002 98.20002 100.70003 103.10003 105.60003 108.10003 110.50003 113.00004 115.50004 117.90004 120.40004 122.90005 125.30005 127.80005 130.30005 132.70006 135.20006 137.70006 140.10007 142.60007 145.10007 147.50006 150.00008 152.50008"
             y="-102.6"
             sodipodi:role="line"
             id="tspan60">✕✞✞✞✞✞✞✞✞✞✞✞✞✞✞✞✞✞✞✞✞✞✞✞✞✞✞✞✞✞✞✞✞✞</tspan><tspan
             x="155.39999 161.3"
             y="-102.5"
             sodipodi:role="line"
             id="tspan62">✒✒</tspan><tspan
             x="5.6999998 12.6 19.6 26.6 33.5 40.5 48.900002 50.700001 52.600002 54.400005 56.200005 58.100006 59.900005 61.800007 63.60001 65.500008 67.300011 69.200012 71.000015 72.900017 74.700012 76.600006 78.400002 80.299995 82.099991 83.999985 85.79998 87.699974 89.499969 91.399963 93.199959 95.09996 96.899948 98.79995 100.59995 102.39994 104.29993 106.09993 107.99992 109.79992 111.69991 113.49991 115.3999 117.1999 119.09989 120.89989 122.79988 124.59988 126.49987 128.29987 130.19986 131.99986 133.89986 135.69984 137.60001 139.39999 141.29999 143.09999 144.99998 146.79997 148.59998 150.49997 152.29996 154.19995 155.99995"
             y="-115"
             sodipodi:role="line"
             id="tspan64">✺✻✼✢✽✾✩✩✩✩✩✩✩✩✩✩✩✩✩✩✩✩✩✩✩✩✩✩✩✩✩✩✩✩✩✩✩✩✩✩✩✩✩✩✩✩✩✩✩✩✩✩✩✩✩✩✩✩✩✩✩✩✩✩✩</tspan><tspan
             x="158 162.60001"
             y="-114.9"
             sodipodi:role="line"
             id="tspan66">✳✳</tspan><tspan
             x="5.6999998 12.6 19.6 26.6 33.5"
             y="-126.4"
             sodipodi:role="line"
             id="tspan68">✿❀❁❂❃</tspan><tspan
             x="40.5"
             y="-126.5"
             id="tspan70">✢</tspan><tspan
             x="47.5 54.400002"
             y="-126.4"
             sodipodi:role="line"
             id="tspan72">❄❅</tspan><tspan
             x="61.799999 63.600002 65.5 67.300003 69.200005 71.000008 72.900009 74.700005 76.599998 78.399994 80.299988 82.099983 83.999977 85.799973 87.699966 89.499962 91.399956 93.199951 95.099945 96.89994 98.799942 100.59994 102.39993 104.29993 106.09992 107.99992 109.79991 111.69991 113.4999 115.39989 117.19989 119.09988 120.89988 122.79987 124.59987 126.49986 128.29987 130.19986 131.99985 133.89984 135.69984 137.59984 139.39983 141.29982 143.09982 144.99982 146.7998 148.59981 150.4998 152.29979 154.1998 156"
             y="-126.5"
             sodipodi:role="line"
             id="tspan74">✩✩✩✩✩✩✩✩✩✩✩✩✩✩✩✩✩✩✩✩✩✩✩✩✩✩✩✩✩✩✩✩✩✩✩✩✩✩✩✩✩✩✩✩✩✩✩✩✩✩✩✩</tspan><tspan
             x="158 162.60001"
             y="-126.4"
             sodipodi:role="line"
             id="tspan76">✳❆</tspan><tspan
             x="0 9 17.9 26.9 31.299999 40.299999 49.200001 58.200001 67.099998 76 85.099998 94 100.7 103.1 105.60001 108.10001 110.50001 113.00001 115.50002 117.90002 120.40002 122.90002 125.30003 127.80003 130.30003 132.70003 135.20003 137.70003 140.10004 142.60004 145.10004 147.50005 150.00005 152.50005"
             y="-148.10001"
             sodipodi:role="line"
             id="tspan78">❇❈❉❊❋●❍■❍❉❊❏✞✞✞✞✞✞✞✞✞✞✞✞✞✞✞✞✞✞✞✞✞✞</tspan><tspan
             x="155.39999"
             y="-148"
             id="tspan80">✒</tspan><tspan
             x="161.3"
             y="-148.10001"
             id="tspan82">❑</tspan><tspan
             x="5.6999998 12.6 19.6 26.6 33.599998 40.5 48.900002 50.700001 52.600002 54.400005 56.200005 58.100006 59.900005 61.800007 63.60001 65.500008 67.300011 69.200012 71.000015 72.900017 74.700012 76.600006 78.400002 80.299995 82.099991 83.999985 85.79998 87.699974 89.499969 91.399963 93.199959 95.09996 96.899948 98.79995 100.59995 102.39994 104.29993 106.09993 107.99992 109.79992 111.69991 113.49991 115.3999 117.1999 119.09989 120.89989 122.79988 124.59988 126.49987 128.29987 130.19986 131.99986 133.89986 135.69984 137.60001 139.39999 141.29999 143.09999 144.99998 146.79997 148.59998 150.49997 152.29996 154.19995 155.99995"
             y="-160.60001"
             sodipodi:role="line"
             id="tspan84">✺✻▲▼✥◆✩✩✩✩✩✩✩✩✩✩✩✩✩✩✩✩✩✩✩✩✩✩✩✩✩✩✩✩✩✩✩✩✩✩✩✩✩✩✩✩✩✩✩✩✩✩✩✩✩✩✩✩✩✩✩✩✩✩✩</tspan><tspan
             x="158"
             y="-160.5"
             id="tspan86">✳</tspan><tspan
             x="162.60001"
             y="-160.60001"
             id="tspan88">❖</tspan><tspan
             x="5.6999998 12.6"
             y="-172.10001"
             sodipodi:role="line"
             id="tspan90">✺✻</tspan><tspan
             x="19.6 26.6 33.5"
             y="-172"
             sodipodi:role="line"
             id="tspan92">P◗❘</tspan><tspan
             x="40.5 47.400002"
             y="-172.10001"
             sodipodi:role="line"
             id="tspan94">✺✻</tspan><tspan
             x="54.400002 61.400002"
             y="-172"
             sodipodi:role="line"
             id="tspan96">❙❚</tspan><tspan
             x="69.199997 71 72.900002 74.699997 76.599991 78.399986 80.29998 82.099976 83.999969 85.799965 87.699966 89.499962 91.399956 93.199951 95.099945 96.89994 98.799934 100.59993 102.39993 104.29992 106.09991 107.99991 109.7999 111.6999 113.49989 115.39989 117.19988 119.09988 120.89987 122.79987 124.59987 126.49986 128.29985 130.19984 131.99985 133.89984 135.69983 137.59984 139.39983 141.29982 143.09982 144.99982 146.7998 148.59981 150.4998 152.29979 154.19978 155.99979"
             y="-172.10001"
             sodipodi:role="line"
             id="tspan98">✩✩✩✩✩✩✩✩✩✩✩✩✩✩✩✩✩✩✩✩✩✩✩✩✩✩✩✩✩✩✩✩✩✩✩✩✩✩✩✩✩✩✩✩✩✩✩✩</tspan><tspan
             x="158 162.60001"
             y="-172"
             sodipodi:role="line"
             id="tspan100">✳❯</tspan><tspan
             x="5.6999998 12.6 19.6"
             y="-183.5"
             sodipodi:role="line"
             id="tspan102">✺✻✥</tspan><tspan
             x="26.6 33.599998"
             y="-183.39999"
             sodipodi:role="line"
             id="tspan104">❱❱</tspan><tspan
             x="40.5"
             y="-183.5"
             id="tspan106">▼</tspan><tspan
             x="47.5 54.400002"
             y="-183.39999"
             sodipodi:role="line"
             id="tspan108">✿❲</tspan><tspan
             x="61.799999 63.600002 65.5 67.300003 69.200005 71.000008 72.900009 74.700005 76.599998 78.399994 80.299988 82.099983 83.999977 85.799973 87.699966 89.499962 91.399956 93.199951 95.099945 96.89994 98.799942 100.59994 102.39993 104.29993 106.09992 107.99992 109.79991 111.69991 113.4999 115.39989 117.19989 119.09988 120.89988 122.79987 124.59987 126.49986 128.29987 130.19986 131.99985 133.89984 135.69984 137.59984 139.39983 141.29982 143.09982 144.99982 146.7998 148.59981 150.4998 152.29979 154.1998 156"
             y="-183.5"
             sodipodi:role="line"
             id="tspan110">✩✩✩✩✩✩✩✩✩✩✩✩✩✩✩✩✩✩✩✩✩✩✩✩✩✩✩✩✩✩✩✩✩✩✩✩✩✩✩✩✩✩✩✩✩✩✩✩✩✩✩✩</tspan><tspan
             x="158 162.60001"
             y="-183.39999"
             sodipodi:role="line"
             id="tspan112">✳❳</tspan><tspan
             x="5.6999998"
             y="-194.8"
             id="tspan114">❨</tspan><tspan
             x="12.6"
             y="-194.89999"
             id="tspan116">✻</tspan><tspan
             x="16.1 23.1 30 37 44 51 57.900002 64.800003 71.800003 78.800003 85.699997 92.699997"
             y="-194.8"
             sodipodi:role="line"
             id="tspan118">❩❬❭❪❫❪❴❵❛❜❝❞</tspan><tspan
             x="96.900002 98.699997 100.59999 102.39999 104.29998 106.09998 107.99997 109.79996 111.69996 113.49995 115.39995 117.19994 119.09994 120.89993 122.79993 124.59993 126.49992 128.29991 130.19991 131.99991 133.8999 135.69989 137.5999 139.39989 141.29988 143.09988 144.99988 146.79987 148.59987 150.49986 152.29985 154.19984 155.99985"
             y="-194.89999"
             sodipodi:role="line"
             id="tspan120">✩✩✩✩✩✩✩✩✩✩✩✩✩✩✩✩✩✩✩✩✩✩✩✩✩✩✩✩✩✩✩✩✩</tspan><tspan
             x="158 162.60001"
             y="-194.8"
             sodipodi:role="line"
             id="tspan122">✳❡</tspan></text>
      </g>
      <g
         id="g126"
         transform="scale(10)">
        <text
           xml:space="preserve"
           transform="translate(25.5,272)"
           style="font-variant:normal;font-weight:normal;font-size:0.1px;font-family:Arial;-inkscape-font-specification:Arial;writing-mode:lr-tb;fill:#ffffff;fill-opacity:1;fill-rule:nonzero;stroke:none"
           id="text130"><tspan
             x="0 12.9"
             y="0"
             sodipodi:role="line"
             id="tspan128">❢❣</tspan></text>
      </g>
      <g
         id="g132"
         transform="scale(10)">
        <text
           xml:space="preserve"
           transform="translate(221.1,244.3)"
           style="font-variant:normal;font-weight:normal;font-size:0.1px;font-family:Arial;-inkscape-font-specification:Arial;writing-mode:lr-tb;fill:#231f20;fill-opacity:1;fill-rule:nonzero;stroke:none"
           id="text282"><tspan
             x="0 8.8999996 17.9 26.799999 35.799999 44.700001 53.700001 62.599998 71.599998 80.5"
             y="0"
             sodipodi:role="line"
             id="tspan134">❤✐❥❦❧♠♥♦♣q</tspan><tspan
             x="89.5"
             y="0.1"
             id="tspan136">✸</tspan><tspan
             x="100.7 103.19999 105.69998 108.09997 110.59996 113.09995 115.49994 117.99993 120.49992 122.89991 125.3999 127.89989 130.29988 132.79987 135.29987 137.69986 140.19984 142.69983 145.09982 147.59981 150.09981 152.49979 155.39978 161.29979"
             y="0"
             sodipodi:role="line"
             id="tspan138">rrrrrrrrrrrrrrrrrrrrrrst</tspan><tspan
             x="5.5999999 12.6 19.6 26.5 33.5 40.400002 47.400002"
             y="-12.5"
             sodipodi:role="line"
             id="tspan140">✻✉✈✇①②③</tspan><tspan
             x="54.400002"
             y="-12.4"
             id="tspan142">❁</tspan><tspan
             x="61.299999 68.300003 76.599998 78.499992 80.299988 82.199982 83.999977 85.899979 87.699974 89.599968 91.399963 93.299957 95.099953 96.999947 98.799942 100.69994 102.49993 104.39993 106.19992 107.99992 109.89991 111.69991 113.5999 115.39989 117.29989 119.09988 120.99989 122.79988 124.69987 126.49987 128.39986 130.19986 132.09985 133.89984 135.79985 137.59984 139.49983 141.29984 143.19983 144.99982 146.89981 148.69981 150.59981 152.3998 154.1998 156.09979"
             y="-12.5"
             sodipodi:role="line"
             id="tspan144">④⑤⑥⑥⑥⑥⑥⑥⑥⑥⑥⑥⑥⑥⑥⑥⑥⑥⑥⑥⑥⑥⑥⑥⑥⑥⑥⑥⑥⑥⑥⑥⑥⑥⑥⑥⑥⑥⑥⑥⑥⑥⑥⑥⑥⑥</tspan><tspan
             x="157.89999"
             y="-12.4"
             id="tspan146">✳</tspan><tspan
             x="162.60001"
             y="-12.5"
             id="tspan148">⑦</tspan><tspan
             x="5.5999999 12.6 19.6 26.5 34.099998 35.999996 37.799992 39.699986 41.499981 43.399975 45.19997 47.099964 48.89996 50.799957 52.599953 54.499947 56.299942 58.199936 59.999931 61.799927 63.699921 65.499916 67.39991 69.199905 71.099899 72.899895 74.799889 76.599884 78.499886 80.299881 82.199875 83.99987 85.899864 87.69986 89.599854 91.399849 93.299843 95.099838 96.999832 98.799828 100.69982 102.49982 104.39981 106.19981 107.9998 109.8998 111.69979 113.59979 115.39979 117.29978 119.09978 120.99977 122.79977 124.7 126.49999 128.39999 130.19998 132.09998 133.89998 135.79997 137.59996 139.49995 141.29996 143.19995 144.99994 146.89995 148.69994 150.59993 152.39993 154.29993 156.09991"
             y="-23.9"
             sodipodi:role="line"
             id="tspan150">✇①⑧⑨⑥⑥⑥⑥⑥⑥⑥⑥⑥⑥⑥⑥⑥⑥⑥⑥⑥⑥⑥⑥⑥⑥⑥⑥⑥⑥⑥⑥⑥⑥⑥⑥⑥⑥⑥⑥⑥⑥⑥⑥⑥⑥⑥⑥⑥⑥⑥⑥⑥⑥⑥⑥⑥⑥⑥⑥⑥⑥⑥⑥⑥⑥⑥⑥⑥⑥⑥</tspan><tspan
             x="157.89999 162.5"
             y="-23.799999"
             sodipodi:role="line"
             id="tspan152">❆✴</tspan><tspan
             x="5.5999999 12.6"
             y="-35.400002"
             sodipodi:role="line"
             id="tspan154">✻✉</tspan><tspan
             x="19.6"
             y="-35.299999"
             id="tspan156">⑩</tspan><tspan
             x="26.5 33.5 40.5 47.5 54.400002 61.400002 69.199997 71.099998 72.899994 74.799988 76.599983 78.499977 80.299973 82.199966 83.999962 85.899956 87.699951 89.599945 91.39994 93.299934 95.09993 96.999924 98.799919 100.69991 102.49991 104.39991 106.19991 107.9999 109.89989 111.69989 113.59988 115.39988 117.29987 119.09987 120.99986 122.79986 124.69985 126.49985 128.39984 130.19984 132.09984 133.89983 135.79982 137.59982 139.49982 141.2998 143.1998 144.9998 146.8998 148.69978 150.59978 152.39978 154.19977 156.09978"
             y="-35.400002"
             sodipodi:role="line"
             id="tspan158">✇①▲▼✥◆⑥⑥⑥⑥⑥⑥⑥⑥⑥⑥⑥⑥⑥⑥⑥⑥⑥⑥⑥⑥⑥⑥⑥⑥⑥⑥⑥⑥⑥⑥⑥⑥⑥⑥⑥⑥⑥⑥⑥⑥⑥⑥⑥⑥⑥⑥⑥⑥</tspan><tspan
             x="157.89999 162.5"
             y="-35.299999"
             sodipodi:role="line"
             id="tspan160">❆✴</tspan><tspan
             x="5.5999999 12.6 19.6"
             y="-46.799999"
             sodipodi:role="line"
             id="tspan162">✇①✈</tspan><tspan
             x="26.5 33.5 40.400002"
             y="-46.700001"
             sodipodi:role="line"
             id="tspan164">❶❷❸</tspan><tspan
             x="48.900002 50.799995 52.599991 54.499985 56.29998 58.199974 59.999969 61.799965 63.699963 65.499954 67.399948 69.199944 71.099937 72.899933 74.799934 76.59993 78.499924 80.299919 82.199913 83.999908 85.899902 87.699898 89.599892 91.399887 93.299881 95.099876 96.99987 98.799866 100.69986 102.49986 104.39986 106.19984 107.99984 109.89984 111.69984 113.59983 115.39983 117.29982 119.09982 120.99981 122.7998 124.6998 126.49979 128.3998 130.19978 132.09978 133.89978 135.79977 137.59976 139.49976 141.29976 143.2 145 146.89999 148.69998 150.59998 152.39998 154.19997 156.09996"
             y="-46.799999"
             sodipodi:role="line"
             id="tspan166">⑥⑥⑥⑥⑥⑥⑥⑥⑥⑥⑥⑥⑥⑥⑥⑥⑥⑥⑥⑥⑥⑥⑥⑥⑥⑥⑥⑥⑥⑥⑥⑥⑥⑥⑥⑥⑥⑥⑥⑥⑥⑥⑥⑥⑥⑥⑥⑥⑥⑥⑥⑥⑥⑥⑥⑥⑥⑥⑥</tspan><tspan
             x="157.89999 162.5"
             y="-46.700001"
             sodipodi:role="line"
             id="tspan168">❆❯</tspan><tspan
             x="0"
             y="-68.400002"
             id="tspan170">❹</tspan><tspan
             x="8.8999996"
             y="-68.5"
             id="tspan172">❍</tspan><tspan
             x="17.9 26.799999 35.799999 44.700001 53.700001 62.599998 71.599998 80.5 89.5"
             y="-68.400002"
             sodipodi:role="line"
             id="tspan174">❺❻❼❽❾❿➀➁➂</tspan><tspan
             x="100.7 103.19999 105.69998 108.09997 110.59996 113.09995 115.49994 117.99993 120.49992 122.89991 125.3999 127.89989 130.29988 132.79987 135.29987 137.69986 140.19984 142.69983 145.09982 147.59981 150.09981 152.49979"
             y="-68.5"
             sodipodi:role="line"
             id="tspan176">rrrrrrrrrrrrrrrrrrrrrr</tspan><tspan
             x="155.39999 161.3"
             y="-68.400002"
             sodipodi:role="line"
             id="tspan178">➃➄</tspan><tspan
             x="5.6999998 12.6 19.6 26.5 33.5 40.5 47.400002"
             y="-80.900002"
             sodipodi:role="line"
             id="tspan180">✫➅❪➆➇➇➈</tspan><tspan
             x="54.400002"
             y="-81"
             id="tspan182">▼</tspan><tspan
             x="61.299999 68.400002"
             y="-80.900002"
             sodipodi:role="line"
             id="tspan184">➉❁</tspan><tspan
             x="76.599998 78.499992 80.299988 82.199982 83.999977 85.899979 87.699974 89.599968 91.399963 93.299957 95.099953 96.999947 98.799942 100.69994 102.49993 104.39993 106.19992 107.99992 109.89991 111.69991 113.5999 115.39989 117.29989 119.09988 120.99989 122.79988 124.69987 126.49987 128.39986 130.19986 132.09985 133.89984 135.79985 137.59984 139.49983 141.29984 143.19983 144.99982 146.89981 148.69981 150.59981 152.3998 154.1998 156.09979"
             y="-81"
             sodipodi:role="line"
             id="tspan186">⑥⑥⑥⑥⑥⑥⑥⑥⑥⑥⑥⑥⑥⑥⑥⑥⑥⑥⑥⑥⑥⑥⑥⑥⑥⑥⑥⑥⑥⑥⑥⑥⑥⑥⑥⑥⑥⑥⑥⑥⑥⑥⑥⑥</tspan><tspan
             x="157.89999 162.60001"
             y="-80.900002"
             sodipodi:role="line"
             id="tspan188">❆➊</tspan><tspan
             x="5.6999998 12.6 19.5"
             y="-92.300003"
             sodipodi:role="line"
             id="tspan190">➅❪➆</tspan><tspan
             x="26.6"
             y="-92.400002"
             id="tspan192">✈</tspan><tspan
             x="33.400002 40.400002 47.400002 54.400002"
             y="-92.300003"
             sodipodi:role="line"
             id="tspan194">❙➋➌➍</tspan><tspan
             x="61.799999 63.699997 65.499992 67.399986 69.199982 71.099976 72.899971 74.799965 76.59996 78.499954 80.29995 82.199944 83.999939 85.899933 87.699928 89.59993 91.399925 93.299919 95.099915 96.999908 98.799904 100.6999 102.49989 104.39989 106.19988 107.99988 109.89987 111.69987 113.59986 115.39986 117.29985 119.09985 120.99984 122.79984 124.69984 126.49983 128.39983 130.19981 132.09981 133.89981 135.7998 137.59979 139.4998 141.29979 143.19978 144.99979 146.89978 148.69977 150.59976 152.39977 154.19975 156.10001"
             y="-92.400002"
             sodipodi:role="line"
             id="tspan196">⑥⑥⑥⑥⑥⑥⑥⑥⑥⑥⑥⑥⑥⑥⑥⑥⑥⑥⑥⑥⑥⑥⑥⑥⑥⑥⑥⑥⑥⑥⑥⑥⑥⑥⑥⑥⑥⑥⑥⑥⑥⑥⑥⑥⑥⑥⑥⑥⑥⑥⑥⑥</tspan><tspan
             x="157.89999 162.5"
             y="-92.300003"
             sodipodi:role="line"
             id="tspan198">❆❳</tspan><tspan
             x="5.5999999 12.6 19.6 26.5"
             y="-103.7"
             sodipodi:role="line"
             id="tspan200">➎➏❜❝</tspan><tspan
             x="34.099998 35.999996 37.799992 39.699986 41.499981 43.399975 45.19997 47.099964 48.89996 50.799957 52.599953 54.499947 56.299942 58.199936 59.999931 61.799927 63.699921 65.499916 67.39991 69.199905 71.099899 72.899895 74.799889 76.599884 78.499886 80.299881 82.199875 83.99987 85.899864 87.69986 89.599854 91.399849 93.299843 95.099838 96.999832 98.799828 100.69982 102.49982 104.39981 106.19981 107.9998 109.8998 111.69979 113.59979 115.39979 117.29978 119.09978 120.99977 122.79977 124.69976 126.49976 128.39999 130.2 132.09999 133.89998 135.79999 137.59998 139.49997 141.29997 143.19997 144.99995 146.89995 148.69995 150.59995 152.39993 154.29993 156.09993"
             y="-103.8"
             sodipodi:role="line"
             id="tspan202">⑥⑥⑥⑥⑥⑥⑥⑥⑥⑥⑥⑥⑥⑥⑥⑥⑥⑥⑥⑥⑥⑥⑥⑥⑥⑥⑥⑥⑥⑥⑥⑥⑥⑥⑥⑥⑥⑥⑥⑥⑥⑥⑥⑥⑥⑥⑥⑥⑥⑥⑥⑥⑥⑥⑥⑥⑥⑥⑥⑥⑥⑥⑥⑥⑥⑥⑥</tspan><tspan
             x="157.89999 162.5"
             y="-103.7"
             sodipodi:role="line"
             id="tspan204">❆❡</tspan><tspan
             x="0"
             y="-125.5"
             id="tspan206">❧</tspan><tspan
             x="8.8999996 17.9 26.799999 35.799999"
             y="-125.4"
             sodipodi:role="line"
             id="tspan208">➐❾➑➒</tspan><tspan
             x="46.5 48.999989 51.399979 53.899971 56.299961 58.79995 61.299942 63.699932 66.199921 68.699913 71.099899 73.599892 76.099884 78.49987 80.999863 83.499855 85.899841 88.399834 90.899826 93.299812 95.799805 98.299789 100.69978 103.19978 105.69976 108.09975 110.59975 113.09973 115.49973 117.99971 120.4997 122.8997 125.39968 127.89967 130.29967 132.79965 135.29965 137.69963 140.19963 142.69962 145.09961 147.59959 150.09958 152.49957"
             y="-125.5"
             sodipodi:role="line"
             id="tspan210">rrrrrrrrrrrrrrrrrrrrrrrrrrrrrrrrrrrrrrrrrrrr</tspan><tspan
             x="155.39999"
             y="-125.4"
             id="tspan212">➃</tspan><tspan
             x="161.3"
             y="-125.5"
             id="tspan214">t</tspan><tspan
             x="5.6999998 12.5 19.6 26.5 33.5 40.400002"
             y="-137.89999"
             sodipodi:role="line"
             id="tspan216">✿❀⑩➓➔→</tspan><tspan
             x="47.5 54.5 56.299995 58.199989 59.999985 61.79998 63.699974 65.499969 67.399963 69.199959 71.099953 72.899948 74.79995 76.599937 78.499939 80.299934 82.199928 83.999924 85.899918 87.699913 89.599907 91.399902 93.299896 95.099892 96.999886 98.799881 100.69987 102.49987 104.39986 106.19986 107.99986 109.89986 111.69984 113.59985 115.39984 117.29984 119.09983 120.99982 122.79982 124.69981 126.49981 128.39981 130.1998 132.09979 133.8998 135.79979 137.59978 139.49977 141.29977 143.19977 144.99976 146.89975 148.7 150.59999 152.39999 154.19998 156.09998"
             y="-138"
             sodipodi:role="line"
             id="tspan218">▼⑥⑥⑥⑥⑥⑥⑥⑥⑥⑥⑥⑥⑥⑥⑥⑥⑥⑥⑥⑥⑥⑥⑥⑥⑥⑥⑥⑥⑥⑥⑥⑥⑥⑥⑥⑥⑥⑥⑥⑥⑥⑥⑥⑥⑥⑥⑥⑥⑥⑥⑥⑥⑥⑥⑥⑥</tspan><tspan
             x="157.89999"
             y="-137.89999"
             id="tspan220">❆</tspan><tspan
             x="162.60001"
             y="-138"
             id="tspan222">⑦</tspan><tspan
             x="5.5999999 12.6 19.6 26.5 33.5 40.400002 45.700001 52.599998 59.599998 66.599998 73.5 80.5"
             y="-149.3"
             sodipodi:role="line"
             id="tspan224">➣❪↔↕➙➛➜➝❪➞➟↔</tspan><tspan
             x="87.5"
             y="-149.39999"
             id="tspan226">✈</tspan><tspan
             x="94.5 101.3"
             y="-149.3"
             sodipodi:role="line"
             id="tspan228">❄❅</tspan><tspan
             x="109.9 111.7 113.59999 115.39999 117.29998 119.09998 120.99997 122.79996 124.69996 126.49995 128.39995 130.19995 132.09995 133.89993 135.79993 137.59993 139.49992 141.29991 143.19991 144.99991 146.8999 148.69989 150.49989 152.39989 154.19987 156.09988"
             y="-149.39999"
             sodipodi:role="line"
             id="tspan230">⑥⑥⑥⑥⑥⑥⑥⑥⑥⑥⑥⑥⑥⑥⑥⑥⑥⑥⑥⑥⑥⑥⑥⑥⑥⑥</tspan><tspan
             x="157.89999"
             y="-149.3"
             id="tspan232">❆</tspan><tspan
             x="162.60001"
             y="-149.39999"
             id="tspan234">⑦</tspan><tspan
             x="5.5999999 10.200005 14.80001 18.20001 22.800014 28.400021 35.20002 42.20002 49.100021 54.500019 61.300018 68.300018 73.600021 80.500023"
             y="-160.7"
             sodipodi:role="line"
             id="tspan236">➠❆➡❆❯✿❲➢➛✿❀➛❂❃</tspan><tspan
             x="87.5"
             y="-160.8"
             id="tspan238">✈</tspan><tspan
             x="94.5 101.4"
             y="-160.7"
             sodipodi:role="line"
             id="tspan240">❄❅</tspan><tspan
             x="109.9 111.7 113.59999 115.39999 117.29998 119.09998 120.99997 122.79996 124.69996 126.49995 128.39995 130.19995 132.09995 133.89993 135.79993 137.59993 139.49992 141.29991 143.19991 144.99991 146.8999 148.69989 150.5999 152.39989 154.19987 156.09988 157.89987"
             y="-160.8"
             sodipodi:role="line"
             id="tspan242">⑥⑥⑥⑥⑥⑥⑥⑥⑥⑥⑥⑥⑥⑥⑥⑥⑥⑥⑥⑥⑥⑥⑥⑥⑥⑥❖</tspan><tspan
             x="162.5"
             y="-160.7"
             id="tspan244">➠</tspan><tspan
             x="0"
             y="-182.39999"
             id="tspan246">➤</tspan><tspan
             x="8.8999996"
             y="-182.5"
             id="tspan248">❍</tspan><tspan
             x="17.9 26.9 35.799999 44.700001 53.700001"
             y="-182.39999"
             sodipodi:role="line"
             id="tspan250">➥❺➦➧➨</tspan><tspan
             x="63.700001 66.199989 68.699982 71.099968 73.59996 76.099953 78.499939 80.999931 83.499924 85.89991 88.399902 90.899895 93.299881 95.799873 98.299866 100.69985 103.19984 105.69983 108.09982 110.59982 113.0998 115.49979 117.99979 120.49977 122.89977 125.39975 127.89974 130.29973 132.79973 135.29971 137.69971 140.19969 142.69969 145.09967 147.59967 150.09966 152.49965 155.29964"
             y="-182.5"
             sodipodi:role="line"
             id="tspan252">rrrrrrrrrrrrrrrrrrrrrrrrrrrrrrrrrrrrr❑</tspan><tspan
             x="161.3"
             y="-182.39999"
             id="tspan254">➩</tspan><tspan
             x="5.5999999 12.6 19.6 26.5 33.5 40.400002 47.5 54.299999 61.400002 68.400002 75.300003 82.199997"
             y="-194.89999"
             sodipodi:role="line"
             id="tspan256">❭❪➫➆➞➟↔↕➙⑩➭➯</tspan><tspan
             x="89.300003 96.199997 104.3 106.2 107.99999 109.89999 111.69998 113.59998 115.39997 117.29996 119.09996 120.99995 122.79995 124.69994 126.49994 128.39993 130.19994 132.09993 133.89992 135.79991 137.59991 139.49991 141.2999 143.19989 144.99989 146.89989 148.69987 150.49988 152.39987 154.19987 156.09987 157.89986"
             y="-195"
             sodipodi:role="line"
             id="tspan258">▲▼⑥⑥⑥⑥⑥⑥⑥⑥⑥⑥⑥⑥⑥⑥⑥⑥⑥⑥⑥⑥⑥⑥⑥⑥⑥⑥⑥⑥⑥❖</tspan><tspan
             x="162.5"
             y="-194.89999"
             id="tspan260">❯</tspan><tspan
             x="5.6999998 12.5 19.6 26.6 33.400002 40.5 44 50.900002 56.600006 60.500004 65.000015"
             y="-206.3"
             sodipodi:role="line"
             id="tspan262">➜➝❪➞➟↔❩➲➳➵❞</tspan><tspan
             x="68.5"
             y="-206.39999"
             id="tspan264">✈</tspan><tspan
             x="75.5 82.400002"
             y="-206.3"
             sodipodi:role="line"
             id="tspan266">❄❅</tspan><tspan
             x="89.599998 91.399994 93.299988 95.099983 96.999977 98.799973 100.69997 102.49997 104.39996 106.19996 107.99995 109.89995 111.69994 113.59994 115.39993 117.29993 119.09992 120.99992 122.79991 124.69991 126.4999 128.3999 130.19989 132.09988 133.89989 135.79988 137.59987 139.49986 141.29987 143.19986 144.99985 146.89984 148.69984 150.59984 152.39983 154.19983 156.09982 157.89983"
             y="-206.39999"
             sodipodi:role="line"
             id="tspan268">⑥⑥⑥⑥⑥⑥⑥⑥⑥⑥⑥⑥⑥⑥⑥⑥⑥⑥⑥⑥⑥⑥⑥⑥⑥⑥⑥⑥⑥⑥⑥⑥⑥⑥⑥⑥⑥❖</tspan><tspan
             x="162.5"
             y="-206.3"
             id="tspan270">❯</tspan><tspan
             x="5.5999999 12.6 19.6 26.6 33.400002 40.5 47.5 54.299999 61.400002 68.400002 75.199997 82.300003 89.199997 96.199997"
             y="-217.7"
             sodipodi:role="line"
             id="tspan272">➣❪↔➞➟↔❁❭❪➫➆➞➟↔</tspan><tspan
             x="103.2 110.1"
             y="-217.8"
             sodipodi:role="line"
             id="tspan274">✈➸</tspan><tspan
             x="117.1 124 131"
             y="-217.7"
             sodipodi:role="line"
             id="tspan276">❚➌➍</tspan><tspan
             x="139.5 141.29999 143.2 144.99998 146.89998 148.69998 150.49997 152.39996 154.19997 156.09996 157.89995"
             y="-217.8"
             sodipodi:role="line"
             id="tspan278">⑥⑥⑥⑥⑥⑥⑥⑥⑥⑥❖</tspan><tspan
             x="162.60001"
             y="-217.7"
             id="tspan280">➊</tspan></text>
      </g>
    </g>
  </g>
</svg>
