<?xml version="1.0" encoding="UTF-8" standalone="no"?>
<!-- Created with Inkscape (http://www.inkscape.org/) -->

<svg
   version="1.1"
   id="svg2"
   width="162.19572"
   height="27.539509"
   viewBox="0 0 162.19572 27.539509"
   sodipodi:docname="pages_64.pdf"
   xmlns:inkscape="http://www.inkscape.org/namespaces/inkscape"
   xmlns:sodipodi="http://sodipodi.sourceforge.net/DTD/sodipodi-0.dtd"
   xmlns="http://www.w3.org/2000/svg"
   xmlns:svg="http://www.w3.org/2000/svg">
  <defs
     id="defs6">
    <clipPath
       clipPathUnits="userSpaceOnUse"
       id="clipPath18">
      <path
         d="m 2565.35,380.891 h 965.25 v 95.0703 h -965.25 z"
         id="path16" />
    </clipPath>
    <clipPath
       clipPathUnits="userSpaceOnUse"
       id="clipPath34">
      <path
         d="m 2565.35,380.891 h 965.25 v 95.0703 h -965.25 z"
         id="path32" />
    </clipPath>
    <clipPath
       clipPathUnits="userSpaceOnUse"
       id="clipPath48">
      <path
         d="m 2565.35,380.891 h 965.25 v 95.0703 h -965.25 z"
         id="path46" />
    </clipPath>
    <clipPath
       clipPathUnits="userSpaceOnUse"
       id="clipPath64">
      <path
         d="m 2565.35,380.891 h 965.25 v 95.0703 h -965.25 z"
         id="path62" />
    </clipPath>
    <clipPath
       clipPathUnits="userSpaceOnUse"
       id="clipPath92">
      <path
         d="m 2565.35,380.891 h 965.25 v 95.0703 h -965.25 z"
         id="path90" />
    </clipPath>
  </defs>
  <sodipodi:namedview
     id="namedview4"
     pagecolor="#ffffff"
     bordercolor="#666666"
     borderopacity="1.0"
     inkscape:showpageshadow="2"
     inkscape:pageopacity="0.0"
     inkscape:pagecheckerboard="0"
     inkscape:deskcolor="#d1d1d1" />
  <g
     id="g8"
     inkscape:groupmode="layer"
     inkscape:label="pages_64"
     transform="matrix(1.3333333,0,0,-1.3333333,-342.04683,63.461058)">
    <g
       id="g10"
       transform="scale(0.1)">
      <g
         id="g12">
        <g
           id="g14"
           clip-path="url(#clipPath18)">
          <path
             d="m 3477.92,409.012 c 1.29,2.097 3.98,4.34 3.56,7.027 -5.46,4.539 -10.79,8.68 -15.11,13.941 4.56,7.86 12.52,15.282 10.61,25.719 l -0.69,1 c -4.5,1.301 -8.32,-0.078 -12.82,0.66 -1.11,4.789 0.07,10.301 -0.75,15.243 -1.54,1.699 -3.93,0.867 -5.77,1.168 -1.13,-0.27 -2.68,0.171 -3.1,-1.11 L 3453.46,458 c -4.67,-0.82 -9.04,-0.5 -13.84,-0.738 l -1.01,-0.703 c -0.57,-2.539 -0.74,-5.911 0.67,-8.047 8.44,-0.332 17.77,-0.282 25.81,-0.332 0.56,-0.141 1.82,-0.301 1.39,-1.282 -7.14,-12.66 -17.82,-24.828 -30.01,-33.218 -0.86,-2.102 0.83,-4.09 1.37,-6.071 1.12,-1.129 0.82,-3.25 3.08,-2.828 4.26,3.059 8.23,6.688 12.49,10.481 l 0.28,-0.301 0.45,-34.691 c 1.4,-1.989 4.09,-1.168 6.06,-1.45 0.99,0.27 2.53,0.121 2.84,1.379 v 39.641 l 0.29,0.281 c 4.35,-3.832 7.4,-8.242 12.32,-11.23 0.57,-0.289 1.69,-0.45 2.27,0.121"
             style="fill:#231f20;fill-opacity:1;fill-rule:nonzero;stroke:none"
             id="path20" />
          <path
             d="m 3209.19,427.91 0.28,0.57 20.32,-0.152 c 0.71,-0.008 1.68,0.133 2.4,0.832 0.29,2.25 1.02,5.621 -0.37,7.621 l -23.55,0.297 -1.55,0.453 -0.05,12.559 c 7.06,0.93 13.69,0.172 20.46,0.551 l 0.84,0.558 c 0.59,2.11 1.04,5.481 -0.23,7.321 l -20.16,0.441 -0.84,0.578 -0.31,14.402 -0.57,0.84 c -2.39,0.149 -6.48,1.59 -7.91,-1.07 l -0.23,-13.832 -0.71,-0.707 -8.05,-0.063 -0.84,0.563 c 0.44,3.656 3.17,7.308 1.78,10.848 -2.4,0.441 -5.09,1.582 -7.34,0.89 -1.87,-5.609 -2.9,-11.531 -5.49,-16.879 -0.87,-3.242 -5.53,-5.742 -4,-9.14 1.96,-1.282 3.49,-3.692 6.02,-3.993 2.84,2.231 3.73,6.321 6,8.981 3.94,0.262 7.9,0.23 12.27,-0.09 0.39,-3.949 0.36,-8.75 -0.1,-12.828 -7.63,-1.082 -15.93,0.25 -23.27,-0.262 -1.7,-1.39 -0.32,-4.371 -1.17,-6.199 h -0.57 c -3.64,4.988 -7.11,9.801 -9.2,15.18 2.69,0.121 4.52,0.379 7.34,0.359 2.55,1.531 0.74,4.93 1.04,7.32 -1.96,2.43 -5.93,0.469 -8.45,1.762 -0.37,6.367 0.38,13.109 -0.57,19.188 -1.39,1.011 -3.38,0.171 -5.08,0.75 -0.98,-0.289 -2.52,0.019 -2.95,-1.258 l -0.58,-18.61 c -4.66,-0.961 -8.74,-0.07 -13.53,-0.461 l -0.86,-0.699 c -0.29,-2.402 -1.03,-6.062 0.66,-7.761 l 11.7,-0.098 0.98,-0.703 c -2.04,-8.16 -6.46,-15.617 -11.17,-22.641 -1.43,-2.797 -5.26,-4.75 -4.71,-8.269 1.39,-2.27 1.35,-5.809 3.91,-6.95 5.67,6.02 9.54,14.032 13.11,21.621 0.44,-0.839 0.28,-2.25 0.13,-3.242 l -0.9,-44.558 c 0.14,-0.731 0.28,-1.559 1.28,-1.719 2.08,0.277 6.32,-1.449 7.61,1.348 l 0.53,32.589 -0.45,17.641 0.44,0.699 c 2.64,-4.097 4.58,-8.777 7.81,-12.476 l 1.26,-0.153 c 1.57,1.692 2.84,3.789 3.58,6.051 0.14,1.121 -1.26,1.84 -0.13,2.828 l 19.46,-0.429 c -5.74,-12.661 -15.54,-23.321 -26.75,-31.68 -0.44,-2.258 1.95,-2.969 2.51,-4.828 1.25,-1.141 1.82,-2.949 3.79,-2.699 5.54,4.199 10.09,9.226 14.64,14.57 3.27,4.34 5.85,8.84 8.69,13.328 l 0.15,-0.148 -0.41,-35.114 0.7,-1.418 c 2.25,-0.3 6.48,-1.461 8.2,0.918 l 0.24,35.703 0.3,0.289 c 5.14,-10.351 12.41,-19.582 20.95,-27.402 1,-0.437 1.98,0.141 2.55,0.832 1.43,2.531 3.13,4.352 3.57,7.309 -10.21,8.691 -18.76,18.34 -24.45,29.941"
             style="fill:#231f20;fill-opacity:1;fill-rule:nonzero;stroke:none"
             id="path22" />
          <path
             d="m 3324.72,407.859 c -1.59,-4.07 -2.47,-8.429 -4.33,-12.218 -0.72,-1 -1.43,-2.68 -2.85,-2.52 -1.4,0.277 -2.1,1.57 -2.94,2.551 -7.79,15.297 -8.92,33.219 -10.33,51.148 l 0.42,0.418 c 6.21,0.524 14.96,0.012 20.59,0.133 1.14,0.418 3.39,-0.312 4.25,1.09 0.15,2.68 0.61,5.93 -0.23,8.328 -7.89,0.902 -17.33,0.551 -24.26,0.602 l -0.97,0.281 c -0.81,5.226 -0.51,9.598 -0.74,15.109 -0.13,0.43 -0.84,0.989 -1.41,0.989 -2.26,-0.258 -6.19,0.902 -8.06,-0.918 l -0.38,-15.09 -0.43,-0.282 -50.35,-0.191 c -0.85,-0.277 -1.97,0.012 -2.54,-0.84 0.24,-2.808 -1.77,-7.879 1.62,-9.019 l 51.48,0.031 0.84,-0.57 c 1.7,-19.039 3.25,-38.11 10.75,-54.961 3.07,-5.078 6.69,-12.032 14.02,-11.668 8.19,1.648 10.23,10.66 12.96,17.269 2.28,4.918 -2.89,7.778 -5.14,11.02 -0.85,0.019 -1.69,0.168 -1.97,-0.692"
             style="fill:#231f20;fill-opacity:1;fill-rule:nonzero;stroke:none"
             id="path24" />
        </g>
      </g>
      <path
         d="m 3319.44,459.27 c 1.55,1.402 5.52,2.21 5.12,5.039 -2.8,3.121 -4.9,7.371 -8.68,9.371 -2.26,-1.821 -6.07,-1.5 -6.38,-4.879 2.8,-3.281 4.73,-7.231 7.68,-10.223 0.98,-0.289 1.55,0.551 2.26,0.692"
         style="fill:#231f20;fill-opacity:1;fill-rule:nonzero;stroke:none"
         id="path26" />
      <g
         id="g28">
        <g
           id="g30"
           clip-path="url(#clipPath34)">
          <path
             d="m 3009.67,441.512 -53.74,0.41 c -1.4,0.418 -0.83,2.258 -0.67,3.226 0.28,0.563 0.56,0.981 1.28,1.274 l 49.08,-0.082 c 1.68,-0.149 3.96,0.101 4.79,-1.442 -0.29,-1.117 0.54,-2.839 -0.74,-3.386 m -54.63,-6.801 0.85,0.719 42.74,-0.032 c 3.53,-0.457 8.18,0.493 11.57,-0.648 -0.02,-1.281 0.53,-3.391 -0.6,-4.238 l -54.17,0.258 c -0.7,1.14 -0.83,2.691 -0.39,3.941 m 55.05,-14.91 -1,-0.711 -18.63,-0.289 -34.27,0.539 c -0.99,0.012 -1.12,1.129 -1.54,1.851 0.15,1.118 -0.4,2.957 1.29,2.95 l 6.92,0.23 45.84,-0.351 c 2.83,0.269 1.11,-2.95 1.39,-4.219 m -16.19,-13.153 -20.16,0.153 0.03,4.789 c 0.42,0.84 1.69,0.129 2.4,0.539 5.93,-0.18 12.55,0.332 18.49,-0.559 -0.31,-1.691 0.38,-3.949 -0.76,-4.922 m 31.3,54.063 c 1.26,0 2.4,0 3.25,0.699 0.3,2.25 1.17,5.641 -0.65,7.328 l -28.36,0.203 c -1.68,1.731 1.58,3.379 0.75,5.508 -2.39,1.129 -5.63,1.602 -8.04,0.922 -3,-5.922 -7.27,-11.25 -12.11,-15.582 -1.28,-2.961 2.8,-4.391 4.47,-6.238 3.95,-0.18 5.69,5.75 8.94,7.258 2.68,-0.161 5.65,0.39 7.9,-0.618 0.98,-2.25 1.38,-5.089 1.64,-7.621 -10.87,0.071 -20.31,0.141 -31.45,0.231 l -0.7,0.711 -1.51,6.918 c 2.55,0.691 5.36,0.25 8.04,0.371 1.27,-0.313 2.26,0.269 3.26,0.82 0.29,2.109 0.74,4.93 -0.37,6.918 -5.79,0.742 -13.82,0.25 -20.6,0.711 -1.26,1.699 2.42,3.52 0.47,5.488 -2.54,0.582 -5.63,2.024 -8.18,0.633 -3.57,-7.172 -8.69,-12.769 -15.23,-17.242 L 2936.3,457 c 1.39,-2.27 1.79,-6.488 5.03,-6.52 4.25,2.801 8.23,6.571 11.64,10.348 l 6.77,-0.039 c 1.26,-2.41 1.66,-5.098 2.2,-7.629 l -0.43,-0.422 c -4.51,0.172 -9.72,0.774 -13.95,-0.328 -1.29,-0.41 -1.15,-1.699 -1.58,-2.531 l -0.39,-34.27 c 0.27,-1.269 0.96,-2.558 2.5,-2.988 l 14.96,-0.371 0.84,-0.871 c -0.01,-1.68 0.26,-3.391 -0.88,-4.649 l -25.68,-0.218 -1.13,-0.422 c -0.86,-2.121 -1.01,-5.36 0.09,-7.199 7.75,-1.051 16.21,-0.262 24.12,-0.743 v -0.57 c -2.87,-4.629 -8.24,-6.277 -13.17,-7.238 -2.27,-0.82 -5.37,0.051 -6.93,-1.918 0.12,-2.684 1.93,-5.223 3.61,-7.352 11.15,0.621 22.47,6.168 27.35,16.989 7.2,0.511 15.37,0.019 22.72,0.121 l 0.69,-0.571 0.04,-13.98 c -0.01,-0.969 0.12,-2.09 1.39,-2.391 2.4,0.274 5.77,-0.898 7.64,0.934 l 0.25,15.367 0.42,0.57 22.72,0.102 0.99,0.57 c 0.71,2.239 1.02,5.91 -0.79,7.489 l -22.3,0.16 -0.84,0.711 c -0.13,1.41 -0.53,3.531 0.31,4.789 4.39,0.531 9.32,-0.489 13.28,0.761 0.57,0.688 1.55,1.098 1.57,2.231 l 0.26,35.269 c -0.69,3.231 -4.79,2.008 -7.18,3 l -1.79,6.079 0.02,1.558"
             style="fill:#231f20;fill-opacity:1;fill-rule:nonzero;stroke:none"
             id="path36" />
          <path
             d="m 3063.62,448.18 c 0,1.261 -0.4,3.39 1.01,3.519 2.1,-2.269 3.78,-4.699 5.59,-6.961 0.12,-2.668 -2.28,-4.636 -3.85,-6.597 -0.86,-0.563 -2.13,-0.563 -2.56,-1.68 0.28,-0.981 -0.43,-1.551 -0.16,-2.391 -1.96,0.719 -2.37,3.27 -3.63,4.539 -1.69,2.539 -2.78,5.102 -3.76,7.922 2.27,0.399 6.35,-1.453 7.36,1.649 m -4.12,-21.981 c 2.68,-0.73 2.99,2.801 4.4,4.199 6.36,0.383 12.71,1.032 18.91,1.262 1.28,-0.289 0.69,-2.109 1.97,-2.82 1.83,-0.16 3.11,0.82 4.8,1.082 1.84,0.976 0.58,3.387 0.46,4.93 -0.97,3.398 -1.49,7.078 -3.59,10.046 -1.27,0.161 -2.55,-0.117 -3.53,-0.539 -2.84,-0.968 -0.75,-3.949 -0.61,-5.918 -2.26,-0.543 -4.94,-0.793 -7.34,-0.363 4.14,6.313 9.97,12.344 13.25,19.231 -1.25,1.839 -3.5,2.562 -5.62,3.132 -2.96,-2.371 -3.84,-6.601 -6.97,-8.972 -1.26,0.57 -2.25,1.57 -2.37,2.98 2.14,4.352 5,8.571 7,13.063 0.29,0.84 1.01,2.109 0.03,2.968 -1.97,0.579 -3.79,2.442 -6.2,1.739 -2.42,-3.641 -3.3,-7.867 -6,-11.391 l -1,-0.406 c -3.93,2.707 -4.26,-3.781 -7.23,-5.024 -1.26,0.153 -2.96,-0.386 -3.95,0.59 l -0.42,18.051 c -1.53,2.27 -5.92,1.609 -8.17,0.633 l -0.29,-18.613 c -2.26,-0.981 -5.23,-0.379 -7.78,-0.508 -0.83,0 -1.11,-0.539 -1.97,-0.692 -0.71,-2.121 -0.3,-4.507 -0.48,-6.918 l 0.85,-0.839 8.47,-0.364 0.42,-0.547 c -2.05,-9.293 -6.2,-17.73 -11.47,-25.453 -3,-2.949 0.51,-6.218 0.76,-9.328 0.57,-0.84 0.97,-2.539 2.4,-1.98 3.84,5.75 6.43,11.941 9.02,18.269 0.26,-3.097 -0.06,-6.488 -0.5,-9.59 l -0.67,-32.718 c -0.02,-1.692 -0.59,-3.95 1.09,-5.09 2.41,0.398 5.64,-0.891 7.34,1.07 l 0.81,32.731 -0.13,18.339 0.28,0.27 c 1.68,-1.992 2.22,-4.813 4.03,-6.512"
             style="fill:#231f20;fill-opacity:1;fill-rule:nonzero;stroke:none"
             id="path38" />
        </g>
      </g>
      <path
         d="m 3402.42,445.262 -28.35,0.347 -13.24,0.512 c 7.5,5.168 15.88,10.598 22.4,17.617 l 1.13,-0.148 c 6.72,-6.68 13.88,-13.219 22.16,-17.942 z m -14.03,27.316 c -3.11,0.301 -6.06,0.613 -9.45,0.371 -9.11,-10.25 -20.59,-18.058 -33.03,-23.187 -2.98,-1.532 -6.52,-1.492 -9.07,-3.883 0.11,-2.969 1.77,-5.949 3.74,-8.219 3.97,0.539 7.36,2.629 11.04,3.879 0.27,0.27 0.58,0.691 0.99,0.551 5.68,5.461 1.8,-4.379 5.03,-5.121 l 51.36,-0.36 c 2.54,0.961 0.73,4.219 1.59,6.192 l 0.41,0.551 c 2.84,-1.153 5.65,-2.161 8.31,-3.442 2.54,-0.59 4.62,-2.851 7.47,-1.75 1.15,2.668 3.41,5.051 2.88,8.309 -15.34,5.179 -30.78,13.91 -41.27,26.109"
         style="fill:#231f20;fill-opacity:1;fill-rule:nonzero;stroke:none"
         id="path40" />
      <g
         id="g42">
        <g
           id="g44"
           clip-path="url(#clipPath48)">
          <path
             d="m 3528.71,391.699 c -7.48,-0.078 -12.27,0.242 -20.17,0.43 l -0.49,8.762 0.14,37.238 0.4,0.293 c 6.51,0.637 11.3,0.047 17.8,0.418 l 0.98,0.41 c 0.16,2.68 1.32,6.781 -0.93,8.469 l -17.49,0.14 -0.7,0.563 -0.26,22.43 c -1.26,1.429 -3.66,0.859 -5.07,1.32 -1.27,-0.422 -3.09,0.019 -3.81,-0.961 -0.76,-7.352 -0.24,-14.813 -0.61,-22.582 l -0.54,-0.551 -16.38,-0.156 -1.27,-0.852 c -0.44,-2.39 -1.03,-5.761 0.5,-7.761 5.35,-0.731 12,-0.239 16.92,-0.68 l 0.85,-0.719 -0.06,-45.14 -0.71,-0.692 -14.94,-0.019 c -3.4,-0.571 -7.32,1.441 -9.05,-1.637 0.27,-2.543 -1.04,-6.344 1.65,-7.5 l 53.59,-0.391 1.06,0.84 c 0.23,2.219 1.54,7.051 -1.41,8.328"
             style="fill:#231f20;fill-opacity:1;fill-rule:nonzero;stroke:none"
             id="path50" />
          <path
             d="m 3100.73,431.539 c 2.41,0.262 7.22,2.07 8.04,-1.48 0.54,-1.411 1.25,-2.821 1.52,-4.231 l -8.6,-0.219 c -1.41,1.563 -0.97,4.09 -0.96,5.93 m 22.48,-30.629 c -1.98,-2.531 -2.15,-6.058 -4.98,-7.711 -3.12,-0.418 -4.92,2.422 -6.6,4.403 l 0.01,1.128 c 3.26,3.5 6.25,6.739 8.83,10.52 0.42,0.84 0.15,1.68 -0.28,2.391 -1.82,1.148 -3.64,3.839 -6.17,3.578 -2.28,-3.078 -4.56,-6.309 -7.54,-8.41 -2.23,2.98 -3.06,6.793 -3.46,10.179 7.78,0.653 15.8,0.024 23.99,0.383 1.13,0.129 1.84,0.848 1.99,1.969 -0.13,2.121 0.45,4.648 -1.09,5.941 l -7.88,0.047 c -2.11,1.711 -2.94,4.543 -3.64,7.223 1.29,0.988 3.26,0.539 4.81,0.961 2.4,0.258 1.1,-2.84 3.23,-3.282 1.84,0.7 4.65,0.809 5.38,3.071 -1.1,4.39 -2.19,9.32 -4.85,12.879 -1.4,0.289 -2.82,-0.68 -4.23,-0.821 -2.84,-1.25 0.4,-3.82 -0.34,-5.781 l -7.61,-0.519 -0.28,0.57 c 5.11,5.191 9.26,10.941 13.81,16.68 l 0.15,1.55 c -1.81,1.289 -3.92,3.852 -6.18,2.59 -2.13,-2.519 -3.44,-6.039 -6.27,-7.429 -1.11,0.859 -2.24,2 -2.51,3.402 l 4.27,6.758 c 0.87,2.371 3.29,4.191 3.31,7.019 -1.53,1.699 -4.08,2.582 -6.19,2.582 -2.15,-3.101 -3.58,-6.742 -5.99,-9.691 -1.28,-0.418 -1.84,0.859 -2.96,0.859 -2,-1.527 -3.97,-3.347 -3.86,-5.898 l 8.53,-11.34 0.12,-1.133 c -1.56,-2.379 -3.55,-4.066 -5.54,-6.449 -1.14,-0.539 -2.54,-0.258 -3.38,0.449 l -0.8,7.633 -0.36,26.23 c -1.11,2.707 -4.78,1.039 -7.33,1.618 -2.82,-0.547 -1,-3.52 -1.44,-5.629 l 0.92,-27.379 1.45,-13.551 c 0,-0.852 0.54,-2.551 -0.59,-2.961 l -28.07,0.199 -1.4,-0.41 c -0.6,-2.117 -0.33,-4.648 -0.21,-6.758 1.83,-1.711 4.8,-0.461 6.91,-1.179 l 0.85,-0.582 c -0.34,-7.469 -2.08,-14.508 -6.09,-20.258 -1.44,-2.68 -4.25,-4.34 -4.84,-7.301 1.26,-2.27 3.35,-4.68 5.31,-6.539 h 0.71 c 6.11,5.891 9.55,13.48 11.58,21.5 1.56,-0.422 2.96,-1.152 4.23,-2.281 2.66,-1.16 4.19,-4.84 7.3,-4.149 0.99,1.969 2.7,4.071 3.29,6.457 -3.37,4.121 -8.56,6.121 -12.63,9.551 -0.42,1.133 -0.26,2.539 0.44,3.391 l 14.4,0.011 0.56,-0.41 c 0.94,-5.793 3.73,-10.761 5.23,-16.269 -3.83,-3.223 -8.08,-5.442 -12.46,-7.102 -2.41,-1.672 -6.5,-1.09 -7.5,-3.75 1.68,-2.422 2.49,-6.359 5.73,-7.09 4.09,1.09 7.92,3.61 11.89,5.551 2.41,1.25 4.68,3.359 7.37,4.188 4.05,-4.981 8.94,-11.231 16.27,-10.278 4.82,1.778 6.55,7 8.98,11.078 0.43,1.121 0.72,2.231 -0.12,3.231 -2.1,1.57 -3.48,4.832 -6.18,4.57"
             style="fill:#231f20;fill-opacity:1;fill-rule:nonzero;stroke:none"
             id="path52" />
          <path
             d="m 2914.63,445.18 -0.69,0.699 -0.08,27.23 c -0.99,1.84 -2.98,0.602 -4.52,1.172 -1.57,-0.562 -4.23,0.719 -4.67,-1.511 l -0.33,-26.801 -0.57,-0.707 -17.22,-0.434 c -0.28,-0.297 -0.57,-0.566 -0.85,-0.699 -0.3,-2.539 -1.31,-6.34 0.79,-8.188 l 17.08,-0.132 0.69,-0.707 -0.39,-52.34 0.41,-1.692 c 1.69,-1.281 4.23,-0.461 6.35,-0.75 1.27,0.121 2.69,0.68 2.7,2.25 l 0.53,52.321 0.28,0.57 16.78,0.437 0.99,0.821 c -0.12,2.691 1.32,6.633 -1.06,8.332"
             style="fill:#231f20;fill-opacity:1;fill-rule:nonzero;stroke:none"
             id="path54" />
        </g>
      </g>
      <path
         d="m 2808.88,455.551 c -0.81,5.5 -0.48,11.269 -0.73,16.937 l -0.69,0.852 -0.57,0.422 c -2.81,-0.403 -6.34,0.75 -8.61,-0.782 l -0.27,-16.789 c -0.14,-0.851 -0.99,-0.562 -1.55,-0.832 l -45.56,0.2 -3.96,-0.399 c -2.41,-1.808 -0.47,-5.5 -1.19,-8.449 l 1.12,-1.152 42.44,-0.45 c -9.15,-18.98 -26.62,-34.789 -45.18,-44.937 l -0.01,-1.844 6.02,-6.668 1.41,-0.012 c 19.41,11.704 35.9,28.93 46.63,48.614 l 0.28,-0.153 -0.41,-55.847 c 0.14,-0.852 0.69,-1.153 1.26,-1.563 2.82,0.25 6.49,-0.898 8.61,0.922 l 0.73,60.801 0.44,0.687 21.3,0.121 c 0.84,0 1.41,0.84 1.28,1.551 0.02,2.688 0.61,5.91 -0.49,8.168 -6.77,0.77 -14.82,0.11 -22.3,0.602"
         style="fill:#231f20;fill-opacity:1;fill-rule:nonzero;stroke:none"
         id="path56" />
      <g
         id="g58">
        <g
           id="g60"
           clip-path="url(#clipPath64)">
          <path
             d="m 2642.38,452.41 -29.89,0.36 -1.27,0.421 v 19.618 l -0.84,1 c -2.96,0.011 -6.76,0.902 -9.32,-0.661 -0.47,-6.187 -0.1,-11.976 -0.41,-18.468 0,-0.84 -0.02,-1.828 -0.99,-1.969 l -29.36,0.09 c -0.69,-0.281 -1.13,-0.711 -1.42,-1.403 -0.16,-2.679 -0.46,-5.789 0.79,-8.046 l 29.06,-0.5 0.97,-0.442 c -1.23,-15.219 -7.68,-29.289 -19.74,-38.781 -4.68,-3.777 -9.93,-6.129 -14.6,-9.199 -0.15,-1.828 1.67,-2.981 2.51,-4.379 1.68,-1.289 2.22,-4.403 4.76,-4.153 20.25,10.024 34.07,29.383 36.78,51.512 0.72,1.692 -0.11,4.25 1.45,5.36 l 22.85,0.109 1.68,-1.289 c 0.62,-11.988 -0.59,-23.692 -2.09,-34.969 -0.87,-2.812 -0.89,-5.91 -3.43,-8.019 -5.11,-1.942 -12.01,-1.032 -17.51,-0.422 l -1.14,-0.711 c -0.17,-3.508 1.22,-6.91 2.62,-9.879 5.79,-0.899 12.97,-0.949 18.62,0.558 13.16,5.114 10.74,21.372 12.8,33.493 0.22,9.16 1.26,18.589 0.48,27.64 -0.25,1.688 -2.1,2.539 -3.36,3.129"
             style="fill:#231f20;fill-opacity:1;fill-rule:nonzero;stroke:none"
             id="path66" />
        </g>
      </g>
      <path
         d="m 2879.91,463.352 c 1.42,0.418 1.14,2.117 1.44,3.378 0.01,1.84 0.45,4.5 -1.65,4.95 -11.86,0.211 -23.29,0.16 -35.28,0.109 l -1.28,-0.699 c 0.13,-2.379 -1.16,-5.899 0.94,-7.481"
         style="fill:#231f20;fill-opacity:1;fill-rule:nonzero;stroke:none"
         id="path68" />
      <path
         d="m 2692.15,448.512 c 1.86,2.386 3.44,4.769 5,7.437 0.29,0.84 0.3,2.121 -0.83,2.551 -7.72,4.148 -15.45,8.148 -23.47,11.602 -0.71,0.289 -1.69,0.289 -2.4,0.007 -1.57,-2.379 -4.54,-5.179 -4.43,-8.429 6.33,-3.141 12.65,-6.149 18.84,-9.59 2.52,-1.012 4.48,-3.418 7.29,-3.578"
         style="fill:#231f20;fill-opacity:1;fill-rule:nonzero;stroke:none"
         id="path70" />
      <path
         d="m 2840.07,456.871 c -1.28,-1.973 -0.74,-4.793 -0.62,-6.91 0.28,-1.25 1.27,-1.133 2.39,-1.422 l 41.36,0.102 c 0.42,0.3 0.57,0.847 0.99,1.289 -0.12,2.379 0.46,5.34 -1.22,6.898 -14.1,0.531 -28.79,0.371 -42.9,0.043"
         style="fill:#231f20;fill-opacity:1;fill-rule:nonzero;stroke:none"
         id="path72" />
      <path
         d="m 2732.81,452.422 c -0.7,0.598 -1.97,0.449 -2.54,-0.531 -1.04,-5.352 -3.32,-10 -5.19,-15.039 -9.5,-25.473 -36.53,-37.141 -62.64,-38.063 -1.41,-0.277 -3.24,-0.117 -3.96,-1.367 0.68,-3.391 0.79,-7.211 2.61,-10.192 12.14,0.77 24.01,3.219 35.05,7.36 22.2,7.738 38.02,30.332 43.68,52 -1.81,2.558 -4.62,3.719 -7.01,5.832"
         style="fill:#231f20;fill-opacity:1;fill-rule:nonzero;stroke:none"
         id="path74" />
      <path
         d="m 2681.96,423.898 c 2.69,1.954 4.27,5.461 5.99,8.422 -1.82,2.68 -5.2,3.551 -7.86,5.27 -5.92,2.73 -11.68,6.019 -17.87,7.898 -2.13,-1.957 -3.42,-4.508 -5.12,-6.738 -0.29,-0.699 -0.44,-1.691 0.13,-2.27 5.61,-2.57 11.24,-5 16.72,-8.16 2.67,-1.57 5.2,-3.281 8.01,-4.422"
         style="fill:#231f20;fill-opacity:1;fill-rule:nonzero;stroke:none"
         id="path76" />
      <path
         d="m 2880.17,441.621 -0.7,0.43 c -11.42,-0.063 -23.28,0.32 -35.14,0.129 -1.98,-1.551 -1.44,-4.649 -1.32,-6.77 l 1.12,-1.148 34.15,-0.223 1.7,0.391 c 0.99,1.961 0.88,5.082 0.19,7.191"
         style="fill:#231f20;fill-opacity:1;fill-rule:nonzero;stroke:none"
         id="path78" />
      <path
         d="m 3290.1,402.77 c -5.07,-0.668 -9.75,-2.598 -14.81,-3.29 -1.28,0.309 -2.56,-1.242 -3.68,0.04 -0.65,8.179 -0.16,16.511 0.18,24.261 4.94,1.078 11.7,-0.359 16.65,1 0.44,2.258 0.32,5.219 0.2,7.629 -1.12,2.121 -3.79,0.738 -5.63,1.449 l -0.16,-0.281 -37.79,-0.008 -1,-0.55 c -0.72,-2.68 -1.17,-6.071 0.37,-8.469 5.35,-0.75 11.01,0.187 16.22,-0.403 l 0.7,-0.57 -0.05,-25.668 -0.58,-0.84 c -3.24,-0.832 -6.64,-1.09 -10.02,-1.761 -3.53,-0.688 -7.48,-0.368 -10.6,-1.77 -0.29,-2.828 -0.46,-6.469 0.93,-9.027 16.66,1.289 32.91,5.269 49.01,8.679 0.71,0.27 1.42,0.668 1.55,1.68 -0.8,2.551 1.05,6.469 -1.49,7.899"
         style="fill:#231f20;fill-opacity:1;fill-rule:nonzero;stroke:none"
         id="path80" />
      <path
         d="m 3380.22,417.48 44.42,-0.332 c 0.57,0.141 1.43,0.411 1.71,1.25 -0.41,2.692 0.74,5.364 -1.07,7.622 l -83.52,0.91 -1.12,-0.27 c -1,-2.379 -1.16,-6.058 0.22,-8.32 9.72,-0.789 17.64,-0.121 27.5,-0.91 -1.58,-4.5 -4.29,-8.711 -6.43,-12.93 -3.58,-4.211 -4.33,-12.809 -11.81,-10.781 -2.52,-0.539 -5.76,0.621 -7.61,-0.93 -0.17,-3.23 -0.35,-7.488 2.61,-9.051 22.02,0.973 44.03,1.942 66.06,4.602 2.37,-1.442 3.91,-4.121 5.88,-6.11 0.42,-0.71 1.26,-1.3 2.38,-1.011 1.99,2.09 6.24,2.781 6.26,6.019 -7.4,8.942 -15.4,17.321 -23.94,24.864 -3.08,2.418 -5.38,-2.071 -8.06,-3.043 l -0.3,-1.418 c 3.36,-3.539 7.15,-7.243 10.5,-10.782 -12,-2.168 -24.56,-2.5 -36.83,-2.57 4.43,7.32 8,15.191 12.29,22.77"
         style="fill:#231f20;fill-opacity:1;fill-rule:nonzero;stroke:none"
         id="path82" />
      <path
         d="m 2878.95,427.949 -25.83,0.18 -9.02,-0.199 -0.86,-0.84 c -0.15,-2.27 -0.88,-5.211 0.51,-6.918 l 34.72,-0.25 c 0.98,0.117 1.96,0.668 2.13,1.797 -0.27,2.121 0.87,5.371 -1.65,6.23"
         style="fill:#231f20;fill-opacity:1;fill-rule:nonzero;stroke:none"
         id="path84" />
      <g
         id="g86">
        <g
           id="g88"
           clip-path="url(#clipPath92)">
          <path
             d="m 2871.78,394.859 -1.41,-0.839 -17.91,0.14 c -0.7,0.281 -0.85,0.57 -1.27,1.121 -0.26,3.399 -0.22,6.078 0.35,9.168 0.71,0.563 1.55,0.992 2.55,0.981 l 16.51,-0.258 c 0.7,-0.16 1.4,-0.863 1.39,-1.731 z m 8.06,19.121 c -12,0.09 -22.59,-0.121 -34.44,-0.171 -1.55,0.152 -2.96,0.019 -3.4,-1.668 l -0.5,-29.75 c 1.67,-2.121 5.34,-1.02 7.9,-1.071 2.11,0.559 0.17,3.539 2.41,3.821 l 27.53,0.07 c 0.7,0.129 1.14,0.687 1.42,1.391 l 0.44,22.578 c -0.25,1.679 0.6,4.07 -1.36,4.8"
             style="fill:#231f20;fill-opacity:1;fill-rule:nonzero;stroke:none"
             id="path94" />
        </g>
      </g>
      <g
         id="g96"
         transform="scale(10)">
        <text
           xml:space="preserve"
           transform="translate(257.1,27)"
           style="font-variant:normal;font-weight:normal;font-size:0.1px;font-family:Arial;-inkscape-font-specification:Arial;writing-mode:lr-tb;fill:#231f20;fill-opacity:1;fill-rule:nonzero;stroke:none"
           id="text102"><tspan
             x="0"
             y="0"
             id="tspan98">✂</tspan><tspan
             x="8.3000002 13.6 19 24.299999 27.099991 32.39999 37.799992 43.099991 52.599991 60.499989 68.399986 76.299988 84.199989 91.999992 99.899986 107.79999 115.79999 120.99999 123.79998 129.09998 131.89996"
             y="0.2"
             sodipodi:role="line"
             id="tspan100">✁✄☎✁✆✝✞✟✠✡☛☞✌✍✄✎✄✏</tspan></text>
      </g>
    </g>
  </g>
</svg>
