<?xml version="1.0" encoding="UTF-8" standalone="no"?>
<!-- Created with Inkscape (http://www.inkscape.org/) -->

<svg
   version="1.1"
   id="svg2"
   width="559.35999"
   height="376.93719"
   viewBox="0 0 559.35998 376.93719"
   sodipodi:docname="pages_63.pdf"
   xmlns:inkscape="http://www.inkscape.org/namespaces/inkscape"
   xmlns:sodipodi="http://sodipodi.sourceforge.net/DTD/sodipodi-0.dtd"
   xmlns="http://www.w3.org/2000/svg"
   xmlns:svg="http://www.w3.org/2000/svg">
  <defs
     id="defs6">
    <clipPath
       clipPathUnits="userSpaceOnUse"
       id="clipPath28">
      <path
         d="m 2182.68,2423.62 h 99.2109 v 99.2109 H 2182.68 Z"
         id="path26" />
    </clipPath>
  </defs>
  <sodipodi:namedview
     id="namedview4"
     pagecolor="#ffffff"
     bordercolor="#666666"
     borderopacity="1.0"
     inkscape:showpageshadow="2"
     inkscape:pageopacity="0.0"
     inkscape:pagecheckerboard="0"
     inkscape:deskcolor="#d1d1d1" />
  <g
     id="g8"
     inkscape:groupmode="layer"
     inkscape:label="pages_63"
     transform="matrix(1.3333333,0,0,-1.3333333,0,396.83999)">
    <g
       id="g10"
       transform="scale(0.1)">
      <path
         d="M 0,2664.57 H 4195.2 V 2976.3 H 0 Z"
         style="fill:#d3d2d2;fill-opacity:1;fill-rule:nonzero;stroke:none"
         id="path12" />
      <g
         id="g14"
         transform="scale(10)">
        <text
           xml:space="preserve"
           transform="translate(338,268.8)"
           style="font-variant:normal;font-weight:normal;font-size:0.1px;font-family:Arial;-inkscape-font-specification:Arial;writing-mode:lr-tb;fill:#231f20;fill-opacity:1;fill-rule:nonzero;stroke:none"
           id="text20"><tspan
             x="0 7 14 21 28 35 42 49"
             y="0"
             sodipodi:role="line"
             id="tspan16">☞✁✂✄☎✆✝</tspan><tspan
             x="47.400002 51.999989"
             y="-253.8"
             sodipodi:role="line"
             id="tspan18">✞✟</tspan></text>
      </g>
      <g
         id="g22">
        <g
           id="g24"
           clip-path="url(#clipPath28)">
          <path
             d="m 2182.68,2483.64 v 20.43 c 0,10.35 8.43,18.76 18.79,18.76 h 61.63 c 10.36,0 18.79,-8.41 18.79,-18.76 v -18.15 h -6.78 v 18.15 c 0,6.62 -5.39,12 -12.01,12 h -61.63 c -6.63,0 -12.02,-5.38 -12.02,-12 v -42.29 c 0,-6.61 5.39,-11.99 12.02,-11.99 h 46.84 c 1.06,0 2.05,-0.5 2.7,-1.33 l 8.77,-11.47 v 9.42 c 0,1.86 1.5,3.37 3.37,3.38 6.6,0.04 11.96,5.41 11.96,11.99 v 24.14 h 6.78 v -24.14 c 0,-9.15 -6.63,-16.81 -15.34,-18.44 v -16.33 c 0,-1.45 -0.92,-2.74 -2.29,-3.2 -0.37,-0.13 -0.73,-0.18 -1.09,-0.18 -1.03,0 -2.03,0.47 -2.69,1.32 l -13.84,18.07 h -45.17 c -10.36,0 -18.79,8.42 -18.79,18.76"
             style="fill:#656263;fill-opacity:1;fill-rule:nonzero;stroke:none"
             id="path30" />
        </g>
      </g>
      <path
         d="m 2259.28,2496.07 h -52.91 c -1.88,0 -3.39,1.51 -3.39,3.38 0,1.87 1.51,3.39 3.39,3.39 h 52.91 c 1.87,0 3.38,-1.52 3.38,-3.39 0,-1.87 -1.51,-3.38 -3.38,-3.38"
         style="fill:#656263;fill-opacity:1;fill-rule:nonzero;stroke:none"
         id="path32" />
      <path
         d="m 2259.28,2479.46 h -52.91 c -1.88,0 -3.39,1.52 -3.39,3.38 0,1.87 1.51,3.39 3.39,3.39 h 52.91 c 1.87,0 3.38,-1.52 3.38,-3.39 0,-1.86 -1.51,-3.38 -3.38,-3.38"
         style="fill:#656263;fill-opacity:1;fill-rule:nonzero;stroke:none"
         id="path34" />
      <path
         d="m 2259.28,2462.84 h -52.91 c -1.88,0 -3.39,1.52 -3.39,3.39 0,1.87 1.51,3.38 3.39,3.38 h 52.91 c 1.87,0 3.38,-1.51 3.38,-3.38 0,-1.87 -1.51,-3.39 -3.38,-3.39"
         style="fill:#656263;fill-opacity:1;fill-rule:nonzero;stroke:none"
         id="path36" />
      <g
         id="g38"
         transform="scale(10)">
        <text
           xml:space="preserve"
           transform="translate(229.5,244.9)"
           style="font-variant:normal;font-weight:normal;font-size:0.1px;font-family:Arial;-inkscape-font-specification:Arial;writing-mode:lr-tb;fill:#231f20;fill-opacity:1;fill-rule:nonzero;stroke:none"
           id="text60"><tspan
             x="0 8"
             y="0"
             sodipodi:role="line"
             id="tspan40">✠✡</tspan><tspan
             x="-11.3"
             y="-10.4"
             id="tspan42">☛</tspan><tspan
             x="-4.1999998 2.8 9.6999998 16.700001 23.700001 27.5 34.400002 41.5 48.400002 55.299999 62.299999 69.300003 76.199997 83.199997 90.199997 97.099998 100.6 107.6 112.10001 116.80001 121.30002 126.80002 134.60002 140.10002 147.00003 154.00003 161.00003"
             y="-10.8"
             sodipodi:role="line"
             id="tspan44">✌✍✎✏✑✒✓✍✔✕✖✗✘✍✙✚✛✜✢✜✢✣✤✥✦✧★</tspan><tspan
             x="-4.1999998 2.8 9.6999998"
             y="-20.799999"
             sodipodi:role="line"
             id="tspan46">✩✪✫</tspan><tspan
             x="-11.3"
             y="-30.4"
             id="tspan48">☛</tspan><tspan
             x="-4.1999998 2.9000001 10.1 17.1 24.299999 31.299999 38.5 45.599998 52.599998 59.799999 66.900002 74 81.099998 88.199997 95.400002 102.5 109.6 116.7 123.7 129 136.10001 143.2 150.39999 157.5"
             y="-30.799999"
             sodipodi:role="line"
             id="tspan50">✬✭✪✮✔✕✖✗✘✯✰✱✲✳✴✵✶✏✑✷✸✹✺✍</tspan><tspan
             x="-4.1999998 2.9000001 10 17.1 24.299999 31.4 38.400002 43.599998 50.700001 57.900002 65.099998 72.099998 79.300003 86.300003 93.5 100.5 107.7 114.8 121.9 129 136.10001 143.2 150.39999 157.5"
             y="-40.799999"
             sodipodi:role="line"
             id="tspan52">✻✼✽✾✿❀✑✻✼✯✙❁✪✮✔✕✖✗✘✽❂❃❀❄</tspan><tspan
             x="-4.1999998 2.8 9.6999998 16.799999 23.6"
             y="-50.799999"
             sodipodi:role="line"
             id="tspan54">❅❆❇✴✫</tspan><tspan
             x="-11.3"
             y="-60.400002"
             id="tspan56">☛</tspan><tspan
             x="-4.1999998 2.7 9.8000002 16.700001 23.6 30.6 37.599998 44.5 48.099998 55 60.700001 65.200012 70.400009 73.800011 80.800011 87.800011 94.700012 101.80001 108.70001 115.70001 122.60001 129.60001 136.50002"
             y="-60.799999"
             sodipodi:role="line"
             id="tspan58">✻✼✏❈✭❉❊✻✛❋●❍★✽■❏❑❀❄✴▲✪✫</tspan></text>
      </g>
      <path
         d="m 255.121,2521.42 h 340.16 v -104.023 h -340.16 z m 340.16,0 h 510.238 V 2417.397 H 595.281 Z m 510.229,0 h 907.09 v -104.023 h -907.09 z"
         style="fill:#d3d2d2;fill-opacity:1;fill-rule:nonzero;stroke:none"
         id="path62" />
      <path
         d="m 255.121,2521.42 h 340.16"
         style="fill:none;stroke:#231f20;stroke-width:2.83;stroke-linecap:butt;stroke-linejoin:miter;stroke-miterlimit:10;stroke-dasharray:none;stroke-opacity:1"
         id="path64" />
      <path
         d="m 255.121,2417.4 h 340.16"
         style="fill:none;stroke:#231f20;stroke-width:2.83;stroke-linecap:butt;stroke-linejoin:miter;stroke-miterlimit:10;stroke-dasharray:none;stroke-opacity:1"
         id="path66" />
      <path
         d="M 595.281,2418.82 V 2520"
         style="fill:none;stroke:#231f20;stroke-width:2.83;stroke-linecap:butt;stroke-linejoin:miter;stroke-miterlimit:10;stroke-dasharray:none;stroke-opacity:1"
         id="path68" />
      <path
         d="m 1105.52,2417.4 h 907.09"
         style="fill:none;stroke:#231f20;stroke-width:2.83;stroke-linecap:butt;stroke-linejoin:miter;stroke-miterlimit:10;stroke-dasharray:none;stroke-opacity:1"
         id="path70" />
      <path
         d="M 595.281,2521.42 H 2012.6"
         style="fill:none;stroke:#231f20;stroke-width:2.83;stroke-linecap:butt;stroke-linejoin:miter;stroke-miterlimit:10;stroke-dasharray:none;stroke-opacity:1"
         id="path72" />
      <path
         d="M 1105.52,2418.82 V 2520"
         style="fill:none;stroke:#231f20;stroke-width:2.83;stroke-linecap:butt;stroke-linejoin:miter;stroke-miterlimit:10;stroke-dasharray:none;stroke-opacity:1"
         id="path74" />
      <path
         d="M 595.281,2417.4 H 1105.52"
         style="fill:none;stroke:#231f20;stroke-width:2.83;stroke-linecap:butt;stroke-linejoin:miter;stroke-miterlimit:10;stroke-dasharray:none;stroke-opacity:1"
         id="path76" />
      <path
         d="m 1105.52,2314.8 v 101.18"
         style="fill:none;stroke:#231f20;stroke-width:2.83;stroke-linecap:butt;stroke-linejoin:miter;stroke-miterlimit:10;stroke-dasharray:none;stroke-opacity:1"
         id="path78" />
      <path
         d="M 595.281,2313.38 H 2012.6"
         style="fill:none;stroke:#231f20;stroke-width:2.83;stroke-linecap:butt;stroke-linejoin:miter;stroke-miterlimit:10;stroke-dasharray:none;stroke-opacity:1"
         id="path80" />
      <path
         d="m 1105.52,2210.78 v 101.18"
         style="fill:none;stroke:#231f20;stroke-width:2.83;stroke-linecap:butt;stroke-linejoin:miter;stroke-miterlimit:10;stroke-dasharray:none;stroke-opacity:1"
         id="path82" />
      <path
         d="M 595.281,2209.36 H 2012.6"
         style="fill:none;stroke:#231f20;stroke-width:2.83;stroke-linecap:butt;stroke-linejoin:miter;stroke-miterlimit:10;stroke-dasharray:none;stroke-opacity:1"
         id="path84" />
      <path
         d="m 1105.52,2106.76 v 101.18"
         style="fill:none;stroke:#231f20;stroke-width:2.83;stroke-linecap:butt;stroke-linejoin:miter;stroke-miterlimit:10;stroke-dasharray:none;stroke-opacity:1"
         id="path86" />
      <path
         d="M 595.281,2105.34 H 2012.6"
         style="fill:none;stroke:#231f20;stroke-width:2.83;stroke-linecap:butt;stroke-linejoin:miter;stroke-miterlimit:10;stroke-dasharray:none;stroke-opacity:1"
         id="path88" />
      <path
         d="m 1105.52,2002.74 v 101.18"
         style="fill:none;stroke:#231f20;stroke-width:2.83;stroke-linecap:butt;stroke-linejoin:miter;stroke-miterlimit:10;stroke-dasharray:none;stroke-opacity:1"
         id="path90" />
      <path
         d="M 595.281,2001.32 H 2012.6"
         style="fill:none;stroke:#231f20;stroke-width:2.83;stroke-linecap:butt;stroke-linejoin:miter;stroke-miterlimit:10;stroke-dasharray:none;stroke-opacity:1"
         id="path92" />
      <path
         d="M 1105.52,1898.72 V 1999.9"
         style="fill:none;stroke:#231f20;stroke-width:2.83;stroke-linecap:butt;stroke-linejoin:miter;stroke-miterlimit:10;stroke-dasharray:none;stroke-opacity:1"
         id="path94" />
      <path
         d="M 595.281,1897.3 H 2012.6"
         style="fill:none;stroke:#231f20;stroke-width:2.83;stroke-linecap:butt;stroke-linejoin:miter;stroke-miterlimit:10;stroke-dasharray:none;stroke-opacity:1"
         id="path96" />
      <path
         d="m 1105.52,1794.7 v 101.18"
         style="fill:none;stroke:#231f20;stroke-width:2.83;stroke-linecap:butt;stroke-linejoin:miter;stroke-miterlimit:10;stroke-dasharray:none;stroke-opacity:1"
         id="path98" />
      <path
         d="M 595.281,1793.28 H 2012.6"
         style="fill:none;stroke:#231f20;stroke-width:2.83;stroke-linecap:butt;stroke-linejoin:miter;stroke-miterlimit:10;stroke-dasharray:none;stroke-opacity:1"
         id="path100" />
      <path
         d="m 1105.52,1690.68 v 101.18"
         style="fill:none;stroke:#231f20;stroke-width:2.83;stroke-linecap:butt;stroke-linejoin:miter;stroke-miterlimit:10;stroke-dasharray:none;stroke-opacity:1"
         id="path102" />
      <path
         d="M 595.281,1689.26 H 2012.6"
         style="fill:none;stroke:#231f20;stroke-width:2.83;stroke-linecap:butt;stroke-linejoin:miter;stroke-miterlimit:10;stroke-dasharray:none;stroke-opacity:1"
         id="path104" />
      <path
         d="m 1105.52,1586.66 v 101.18"
         style="fill:none;stroke:#231f20;stroke-width:2.83;stroke-linecap:butt;stroke-linejoin:miter;stroke-miterlimit:10;stroke-dasharray:none;stroke-opacity:1"
         id="path106" />
      <path
         d="M 595.281,1585.24 H 2012.6"
         style="fill:none;stroke:#231f20;stroke-width:2.83;stroke-linecap:butt;stroke-linejoin:miter;stroke-miterlimit:10;stroke-dasharray:none;stroke-opacity:1"
         id="path108" />
      <path
         d="m 1105.52,1482.64 v 101.18"
         style="fill:none;stroke:#231f20;stroke-width:2.83;stroke-linecap:butt;stroke-linejoin:miter;stroke-miterlimit:10;stroke-dasharray:none;stroke-opacity:1"
         id="path110" />
      <path
         d="M 595.281,1481.22 H 1105.52"
         style="fill:none;stroke:#231f20;stroke-width:2.83;stroke-linecap:butt;stroke-linejoin:miter;stroke-miterlimit:10;stroke-dasharray:none;stroke-opacity:1"
         id="path112" />
      <path
         d="m 595.281,2314.76 v 101.18"
         style="fill:none;stroke:#231f20;stroke-width:2.83;stroke-linecap:butt;stroke-linejoin:miter;stroke-miterlimit:10;stroke-dasharray:none;stroke-opacity:1"
         id="path114" />
      <path
         d="m 255.121,2313.34 h 340.16"
         style="fill:none;stroke:#231f20;stroke-width:2.83;stroke-linecap:butt;stroke-linejoin:miter;stroke-miterlimit:10;stroke-dasharray:none;stroke-opacity:1"
         id="path116" />
      <path
         d="m 595.281,2210.74 v 101.18"
         style="fill:none;stroke:#231f20;stroke-width:2.83;stroke-linecap:butt;stroke-linejoin:miter;stroke-miterlimit:10;stroke-dasharray:none;stroke-opacity:1"
         id="path118" />
      <path
         d="m 255.121,2209.32 h 340.16"
         style="fill:none;stroke:#231f20;stroke-width:2.83;stroke-linecap:butt;stroke-linejoin:miter;stroke-miterlimit:10;stroke-dasharray:none;stroke-opacity:1"
         id="path120" />
      <path
         d="M 595.281,2106.72 V 2207.9"
         style="fill:none;stroke:#231f20;stroke-width:2.83;stroke-linecap:butt;stroke-linejoin:miter;stroke-miterlimit:10;stroke-dasharray:none;stroke-opacity:1"
         id="path122" />
      <path
         d="m 255.121,2105.3 h 340.16"
         style="fill:none;stroke:#231f20;stroke-width:2.83;stroke-linecap:butt;stroke-linejoin:miter;stroke-miterlimit:10;stroke-dasharray:none;stroke-opacity:1"
         id="path124" />
      <path
         d="m 595.281,2002.7 v 101.18"
         style="fill:none;stroke:#231f20;stroke-width:2.83;stroke-linecap:butt;stroke-linejoin:miter;stroke-miterlimit:10;stroke-dasharray:none;stroke-opacity:1"
         id="path126" />
      <path
         d="m 255.121,2001.28 h 340.16"
         style="fill:none;stroke:#231f20;stroke-width:2.83;stroke-linecap:butt;stroke-linejoin:miter;stroke-miterlimit:10;stroke-dasharray:none;stroke-opacity:1"
         id="path128" />
      <path
         d="m 595.281,1898.68 v 101.18"
         style="fill:none;stroke:#231f20;stroke-width:2.83;stroke-linecap:butt;stroke-linejoin:miter;stroke-miterlimit:10;stroke-dasharray:none;stroke-opacity:1"
         id="path130" />
      <path
         d="m 255.121,1897.26 h 340.16"
         style="fill:none;stroke:#231f20;stroke-width:2.83;stroke-linecap:butt;stroke-linejoin:miter;stroke-miterlimit:10;stroke-dasharray:none;stroke-opacity:1"
         id="path132" />
      <path
         d="m 595.281,1794.66 v 101.18"
         style="fill:none;stroke:#231f20;stroke-width:2.83;stroke-linecap:butt;stroke-linejoin:miter;stroke-miterlimit:10;stroke-dasharray:none;stroke-opacity:1"
         id="path134" />
      <path
         d="m 255.121,1793.24 h 340.16"
         style="fill:none;stroke:#231f20;stroke-width:2.83;stroke-linecap:butt;stroke-linejoin:miter;stroke-miterlimit:10;stroke-dasharray:none;stroke-opacity:1"
         id="path136" />
      <path
         d="m 595.281,1690.64 v 101.18"
         style="fill:none;stroke:#231f20;stroke-width:2.83;stroke-linecap:butt;stroke-linejoin:miter;stroke-miterlimit:10;stroke-dasharray:none;stroke-opacity:1"
         id="path138" />
      <path
         d="m 255.121,1689.22 h 340.16"
         style="fill:none;stroke:#231f20;stroke-width:2.83;stroke-linecap:butt;stroke-linejoin:miter;stroke-miterlimit:10;stroke-dasharray:none;stroke-opacity:1"
         id="path140" />
      <path
         d="M 595.281,1586.62 V 1687.8"
         style="fill:none;stroke:#231f20;stroke-width:2.83;stroke-linecap:butt;stroke-linejoin:miter;stroke-miterlimit:10;stroke-dasharray:none;stroke-opacity:1"
         id="path142" />
      <path
         d="m 255.121,1585.2 h 340.16"
         style="fill:none;stroke:#231f20;stroke-width:2.83;stroke-linecap:butt;stroke-linejoin:miter;stroke-miterlimit:10;stroke-dasharray:none;stroke-opacity:1"
         id="path144" />
      <path
         d="m 255.121,1481.18 h 340.16"
         style="fill:none;stroke:#231f20;stroke-width:2.83;stroke-linecap:butt;stroke-linejoin:miter;stroke-miterlimit:10;stroke-dasharray:none;stroke-opacity:1"
         id="path146" />
      <path
         d="m 595.281,1482.6 v 101.18"
         style="fill:none;stroke:#231f20;stroke-width:2.83;stroke-linecap:butt;stroke-linejoin:miter;stroke-miterlimit:10;stroke-dasharray:none;stroke-opacity:1"
         id="path148" />
      <path
         d="m 1105.52,1481.18 h 907.09"
         style="fill:none;stroke:#231f20;stroke-width:2.83;stroke-linecap:butt;stroke-linejoin:miter;stroke-miterlimit:10;stroke-dasharray:none;stroke-opacity:1"
         id="path150" />
      <g
         id="g152"
         transform="scale(10)">
        <text
           xml:space="preserve"
           transform="translate(32,244.2)"
           style="font-variant:normal;font-weight:normal;font-size:0.1px;font-family:Arial;-inkscape-font-specification:Arial;writing-mode:lr-tb;fill:#231f20;fill-opacity:1;fill-rule:nonzero;stroke:none"
           id="text208"><tspan
             x="0 7 13.9 32.099998 39 46 53 60 66.900002 113.4 120.4 127.3"
             y="0"
             sodipodi:role="line"
             id="tspan154">▼◆❖P◗❘❙◆❚❯❱❲</tspan><tspan
             x="2.5999999 9.3999987 13.7 46.799999 54.599998 80.599998 87.599998 94.599998"
             y="-10.4"
             sodipodi:role="line"
             id="tspan156">❳❨❩❬❭❪❫❴</tspan><tspan
             x="101.6"
             y="-10.3"
             id="tspan158">✖</tspan><tspan
             x="108.5 115.5 122.4"
             y="-10.4"
             sodipodi:role="line"
             id="tspan160">❴❵❛</tspan><tspan
             x="4.4000001"
             y="-20.700001"
             id="tspan162">❍</tspan><tspan
             x="9.6000004 14.599999 46.799999 54.599998 80.699997 87.599998 94.599998"
             y="-20.799999"
             sodipodi:role="line"
             id="tspan164">❜❝❬❭❴❞❡</tspan><tspan
             x="2.7 8.500001"
             y="-31.200001"
             sodipodi:role="line"
             id="tspan166">❢❣</tspan><tspan
             x="13.1"
             y="-31.1"
             id="tspan168">❍</tspan><tspan
             x="46.799999 54.599998 80.599998 87.599998"
             y="-31.200001"
             sodipodi:role="line"
             id="tspan170">❬❤✐❥</tspan><tspan
             x="94.599998"
             y="-31.1"
             id="tspan172">✗</tspan><tspan
             x="101.5"
             y="-31.200001"
             id="tspan174">❦</tspan><tspan
             x="108.5"
             y="-31.1"
             id="tspan176">✗</tspan><tspan
             x="115.5"
             y="-31.200001"
             id="tspan178">❧</tspan><tspan
             x="4.1999998"
             y="-41.599998"
             id="tspan180">♠</tspan><tspan
             x="8.1999998"
             y="-41.5"
             id="tspan182">❍</tspan><tspan
             x="13.3 46.799999 54.599998 80.599998 87.599998 94.599998 101.5 108.5 115.5"
             y="-41.599998"
             sodipodi:role="line"
             id="tspan184">♥❬♦♣q❵❛r❡</tspan><tspan
             x="3.0999999 7.5999999 12.699999 46.799999 54.599998 80.599998 87.599998 94.599998 101.5 108.5 115.5 122.4"
             y="-52"
             sodipodi:role="line"
             id="tspan186">❣❜s❬♦t✉✈✇①❧②</tspan><tspan
             x="3.7 8.3000002"
             y="-62.400002"
             sodipodi:role="line"
             id="tspan188">❣❣</tspan><tspan
             x="12.8"
             y="-62.299999"
             id="tspan190">●</tspan><tspan
             x="43.599998 51.400002 56 57.799995 80.599998 87.599998 94.599998 101.5 108.5 115.5 122.39999"
             y="-62.400002"
             sodipodi:role="line"
             id="tspan192">❬③④❤⑤q⑥⑦⑧q⑨</tspan><tspan
             x="4.1999998 8.4000015 10.400002 46.800003 54.5 80.700005 87.599998 94.599998 101.5 108.5 115.5 122.4 129.39999"
             y="-72.800003"
             sodipodi:role="line"
             id="tspan194">⑩❝❶❬③✉❷❸⑦❹❺❻❼</tspan><tspan
             x="3.3 7.5000014 11.800002 46.800003"
             y="-83.199997"
             sodipodi:role="line"
             id="tspan196">❽❨❢❬</tspan><tspan
             x="54.599998"
             y="-83.099998"
             id="tspan198">✜</tspan><tspan
             x="80.699997 87.599998 94.599998 101.5 108.5"
             y="-83.199997"
             sodipodi:role="line"
             id="tspan200">✈❾❿➀q</tspan><tspan
             x="115.4"
             y="-83.099998"
             id="tspan202">✘</tspan><tspan
             x="122.5 129.39999 136.39999 143.3 150.3"
             y="-83.199997"
             sodipodi:role="line"
             id="tspan204">❸➁❼✐❹</tspan><tspan
             x="4.6999998 9.000001 14.200001 46.800003 54.600002 80.599998 87.599998 94.5 101.6"
             y="-93.599998"
             sodipodi:role="line"
             id="tspan206">⑩➂❝❬➃➄➅❻r</tspan></text>
      </g>
    </g>
  </g>
</svg>
