<?xml version="1.0" encoding="UTF-8" standalone="no"?>
<!-- Created with Inkscape (http://www.inkscape.org/) -->

<svg
   version="1.1"
   id="svg2"
   width="499.79453"
   height="337.61591"
   viewBox="0 0 499.79452 337.6159"
   sodipodi:docname="pages_01.pdf"
   xmlns:inkscape="http://www.inkscape.org/namespaces/inkscape"
   xmlns:sodipodi="http://sodipodi.sourceforge.net/DTD/sodipodi-0.dtd"
   xmlns="http://www.w3.org/2000/svg"
   xmlns:svg="http://www.w3.org/2000/svg">
  <defs
     id="defs6" />
  <sodipodi:namedview
     id="namedview4"
     pagecolor="#ffffff"
     bordercolor="#666666"
     borderopacity="1.0"
     inkscape:showpageshadow="2"
     inkscape:pageopacity="0.0"
     inkscape:pagecheckerboard="0"
     inkscape:deskcolor="#d1d1d1" />
  <g
     id="g8"
     inkscape:groupmode="layer"
     inkscape:label="pages_01"
     transform="matrix(1.3333333,0,0,-1.3333333,-29.338801,371.63203)">
    <g
       id="g10"
       transform="scale(0.1)">
      <path
         d="M 1135.36,255.121 V 2721.26"
         style="fill:none;stroke:#231f20;stroke-width:3;stroke-linecap:butt;stroke-linejoin:miter;stroke-miterlimit:10;stroke-dasharray:none;stroke-opacity:1"
         id="path12" />
      <path
         d="M 1305.44,255.121 V 2721.26"
         style="fill:none;stroke:#231f20;stroke-width:3;stroke-linecap:butt;stroke-linejoin:miter;stroke-miterlimit:10;stroke-dasharray:none;stroke-opacity:1"
         id="path14" />
      <g
         id="g16"
         transform="scale(10)">
        <text
           xml:space="preserve"
           transform="translate(126.2,121.7)"
           style="font-variant:normal;font-weight:normal;font-size:0.1px;font-family:Arial;-inkscape-font-specification:Arial;writing-mode:lr-tb;fill:#231f20;fill-opacity:1;fill-rule:nonzero;stroke:none"
           id="text22"><tspan
             x="0"
             y="0 6.4000001 12.8 19.200001 28.9 35.299999 41.700001 48"
             sodipodi:role="line"
             id="tspan18">✺✺✺✺✁✂✄</tspan><tspan
             x="58.799999 65.800003 72.800003 79.699997 86.699997 93.599998 100.6 107.6 114.5 121.5 128.39999 135.39999 142.39999 149.39999 156.3 163.2 170.3 177.2 184.2 191.10001 198.10001 205.10001 212 219 226"
             y="-55.299999 -55.299999 -55.299999 -55.299999 -55.299999 -55.299999 -55.299999 -55.299999 -55.299999 -55.299999 -55.299999 -55.299999 -55.299999 -55.299999 -55.299999 -55.299999 -55.299999 -55.299999 -55.299999 -55.299999 -55.299999 -55.299999 -55.299999 -55.299999 -55.299999"
             sodipodi:role="line"
             id="tspan20">☎✆✝✞✟✠✡☛☞✌✞✍✎✏✑✑✒✓✔✑✕✖✗✘✙</tspan></text>
      </g>
      <path
         d="m 1502.36,812.051 c -25.75,0 -46.69,-20.949 -46.69,-46.692 V 623.621 c 0,-25.742 20.94,-46.691 46.69,-46.691 h 2409.45 c 25.75,0 46.69,20.949 46.69,46.691 v 141.738 c 0,25.743 -20.94,46.692 -46.69,46.692 z"
         style="fill:none;stroke:#7b7879;stroke-width:20;stroke-linecap:butt;stroke-linejoin:miter;stroke-miterlimit:4;stroke-dasharray:none;stroke-opacity:1"
         id="path24" />
      <path
         d="m 310.699,2661.57 c 0,0.14 0.129,0.25 0.281,0.25 l 29.559,0.04 c 0.16,0 0.281,-0.14 0.301,-0.29 0.051,-0.6 -0.031,-4.56 -0.25,-7.34 -0.731,-9.37 -2.711,-14.07 -6.34,-18.43 -4.59,-5.5 -10.012,-8.41 -18.16,-9.39 -9.75,-1.16 -24.66,-1.51 -31.781,-1.51 -5.231,0 -23.039,0.61 -29.957,1.53 -8.832,1.16 -14.922,4.55 -19.211,9.32 -4.52,5.03 -6.762,11.07 -7.493,18.51 -0.437,4.48 -0.878,13.07 -0.878,17.5 0,4.84 0.468,15.15 0.82,19.72 0.629,8.18 2.961,14.07 7.41,18.93 5.641,6.19 11.672,8.37 19.398,9.35 5.133,0.64 17.903,1.49 29.911,1.49 12.019,0 25.671,-0.85 30.8,-1.49 7.743,-0.98 12.582,-3.27 17.332,-8.3 4.508,-4.8 6.438,-10.55 7.25,-17.8 0.34,-2.89 0.34,-6.08 0.231,-7.82 -0.024,-0.15 -0.141,-0.28 -0.293,-0.28 l -29.707,0.14 c -0.172,0 -0.293,0.12 -0.293,0.29 0,0 -0.098,2.85 -0.469,4.38 -0.609,2.49 -2.09,4.83 -6.531,5.33 -4.399,0.48 -14.219,0.76 -18.277,0.76 -4.442,0 -13.512,-0.2 -18.543,-0.58 -5.008,-0.37 -7.43,-2.47 -7.957,-5.56 -0.614,-3.56 -1.024,-10.71 -1.024,-16.19 0,-5.66 0.344,-11.69 0.75,-16.44 0.391,-4.47 2.91,-7.02 8.102,-7.37 4.922,-0.33 14.191,-0.63 18.648,-0.63 4.043,0 13.262,0.13 18.383,0.65 3.66,0.38 6.309,1.99 7.508,5.91 0.422,1.38 0.461,5.12 0.48,5.32"
         style="fill:#231f20;fill-opacity:1;fill-rule:nonzero;stroke:none"
         id="path26" />
      <path
         d="m 417.691,2662.87 h -31.562 c -0.168,0 -0.277,0.13 -0.277,0.28 0,0.05 0.039,0.14 0.058,0.22 l 13.641,35.51 c 0.027,0.12 0.14,0.21 0.258,0.21 h 4.402 c 0.117,0 0.219,-0.09 0.258,-0.21 l 13.429,-35.51 c 0.024,-0.08 0.051,-0.17 0.051,-0.22 0,-0.15 -0.097,-0.28 -0.258,-0.28 m 44.43,-35.89 -38.723,92.33 c -0.019,0.09 -0.097,0.16 -0.199,0.16 h -42.508 c -0.101,0 -0.191,-0.07 -0.211,-0.16 l -38.941,-92.32 c -0.019,-0.02 -0.019,-0.05 -0.019,-0.08 0,-0.12 0.101,-0.21 0.21,-0.21 l 30.848,-0.02 c 0.16,0 0.313,0.11 0.352,0.26 l 6.09,16.27 c 0.07,0.17 0.128,0.24 0.289,0.24 l 44.992,-0.01 c 0.16,0 0.23,-0.07 0.289,-0.24 l 5.98,-16.29 c 0.071,-0.14 0.18,-0.25 0.321,-0.24 l 31.039,0.01 c 0.121,0 0.211,0.1 0.211,0.21 0,0.03 0,0.06 -0.02,0.09"
         style="fill:#231f20;fill-opacity:1;fill-rule:nonzero;stroke:none"
         id="path28" />
      <path
         d="m 609.48,2718.76 c 0,0.12 -0.089,0.21 -0.21,0.21 h -29.11 c -0.101,0 -0.199,-0.09 -0.199,-0.21 v -91.39 c 0,-0.11 0.098,-0.21 0.199,-0.21 h 29.11 c 0.121,0 0.21,0.1 0.21,0.21"
         style="fill:#231f20;fill-opacity:1;fill-rule:nonzero;stroke:none"
         id="path30" />
      <path
         d="m 492.379,2654.88 c -0.141,-4.9 2.34,-7.48 6.57,-7.86 2.801,-0.26 11.621,-0.6 17.391,-0.6 6.219,0 10.14,0.15 15.09,0.41 4.308,0.22 7.672,2.39 7.601,7.91 -0.051,4.08 -2.09,7.2 -7.211,7.6 -6.39,0.51 -32.011,1.43 -45.73,2.45 -13.52,1.02 -19.32,10.12 -20.629,13.64 -1.191,3.14 -2.152,6.52 -2.152,13.47 0,5.8 0.863,10.65 2.562,14.3 1.731,3.74 5.289,8.21 11.02,10.97 6.589,3.18 21.531,3.61 36.949,3.61 15.43,0 29.922,-0.48 36.531,-3.61 5.699,-2.69 9.219,-7.27 11.027,-10.97 1.832,-3.75 3.032,-9.7 3.032,-14.9 0,-0.12 -0.102,-0.22 -0.211,-0.22 H 535.41 c -0.121,0 -0.219,0.1 -0.219,0.22 -0.011,0.42 -0.019,1.63 -0.031,2.02 -0.051,3.07 -1.879,5.16 -4.789,5.79 -1.883,0.41 -10.781,0.73 -15.371,0.73 -4.41,0 -13.828,-0.25 -17.648,-0.66 -4.114,-0.44 -6.122,-2.96 -6.122,-7.36 0,-3.94 2.051,-6.61 5.801,-6.84 3.578,-0.22 38.321,-1.83 44.481,-2.27 11.578,-0.82 17.566,-3.34 22.457,-10.64 3.293,-4.9 3.84,-10.39 3.922,-17.31 0.121,-11.39 -2.961,-16.68 -6.11,-20.14 -3.152,-3.47 -7.172,-6.62 -15.043,-7.82 -7.879,-1.19 -19.828,-1.5 -32.898,-1.5 -12.5,0 -25.391,0.73 -31.719,2 -10.762,2.16 -19.051,10.81 -19.051,27.58 0,0.12 0.11,0.21 0.219,0.21 h 28.883 c 0.117,0 0.207,-0.09 0.207,-0.21"
         style="fill:#231f20;fill-opacity:1;fill-rule:nonzero;stroke:none"
         id="path32" />
      <path
         d="m 706.262,2657.67 c -0.391,-4.46 -3.16,-6.82 -7.371,-7.15 -4.922,-0.39 -14.621,-0.62 -19.09,-0.62 h 0.008 -0.028 0.02 c -4.481,0 -12.973,0.28 -17.903,0.61 -5.179,0.34 -7.687,3.32 -8.058,7.05 -0.488,4.75 -0.879,11.11 -0.879,16.78 0,5.47 0.508,13.78 1.269,16.02 1.02,3.08 3.489,5.1 7.68,5.41 5.02,0.37 14.168,0.63 18.629,0.64 -0.008,0 13.352,-0.14 18.359,-0.63 3.75,-0.38 6.481,-2.77 7.114,-5.42 0.769,-3.25 1,-11.43 1,-16.9 0,-5.67 -0.34,-11.03 -0.75,-15.79 m 28.929,40.24 c -2.07,9.89 -11.703,19.37 -22.171,21.08 -7.801,1.27 -20.161,1.98 -32.79,1.98 -12.64,0 -24.929,-0.71 -32.742,-1.98 -10.468,-1.71 -20.09,-11.19 -22.16,-21.08 -1.328,-6.31 -1.808,-19.79 -1.808,-24.51 0,-7.7 0.378,-18.14 1.781,-25 2.07,-10.19 11.808,-19.83 22.879,-21.35 11.07,-1.52 20,-1.88 32.05,-1.88 12.051,0 21.032,0.36 32.098,1.88 11.07,1.52 20.813,11.16 22.891,21.35 1.402,6.86 1.781,17.3 1.781,25 0,4.72 -0.5,18.2 -1.809,24.51"
         style="fill:#231f20;fill-opacity:1;fill-rule:nonzero;stroke:none"
         id="path34" />
      <path
         d="m 764.57,2628.47 c -8.242,0 -14.941,6.68 -14.941,14.94 0,8.25 6.699,14.94 14.941,14.94 8.258,0 14.942,-6.69 14.942,-14.94 0,-8.26 -6.684,-14.94 -14.942,-14.94 m 0,33.1 c -10.019,0 -18.16,-8.13 -18.16,-18.16 0,-10.03 8.141,-18.16 18.16,-18.16 10.039,0 18.16,8.13 18.16,18.16 0,10.03 -8.121,18.16 -18.16,18.16"
         style="fill:#231f20;fill-opacity:1;fill-rule:nonzero;stroke:none"
         id="path36" />
      <path
         d="m 761.891,2643.39 c -0.371,0.06 -0.571,0.28 -0.571,0.77 v 6.14 c 0,0.23 0.2,0.46 0.43,0.5 0.301,0.05 2.949,0.09 4.031,-0.02 1.379,-0.14 3.098,-1.25 3.098,-3.56 0,-2.23 -1.809,-3.44 -3.688,-3.79 -1.171,-0.21 -2.281,-0.2 -3.3,-0.04 m 4.8,-2.77 c -0.211,0.29 -0.031,0.54 0.18,0.6 0.309,0.07 4.899,1.05 4.899,5.7 0,4.06 -2.481,6.58 -6.418,6.64 -0.942,0.01 -6.723,0 -6.723,0 -0.199,0 -0.348,-0.16 -0.348,-0.36 V 2634 c 0,-0.19 0.149,-0.35 0.348,-0.35 h 2.422 c 0.199,0 0.347,0.16 0.347,0.35 v 7.59 c 0,0.31 0.372,0.33 0.512,0.15 0.141,-0.16 5.551,-7.01 5.918,-7.5 0.453,-0.61 0.902,-0.62 1.363,-0.62 0.45,0 2.09,0.04 2.09,0.04 0.199,0 0.36,0.16 0.36,0.36 0,0.11 -0.102,0.24 -0.18,0.35"
         style="fill:#231f20;fill-opacity:1;fill-rule:nonzero;stroke:none"
         id="path38" />
      <g
         id="g40"
         transform="scale(10)">
        <text
           xml:space="preserve"
           transform="translate(22.2,76.3)"
           style="font-variant:normal;font-weight:normal;font-size:0.1px;font-family:Arial;-inkscape-font-specification:Arial;writing-mode:lr-tb;fill:#231f20;fill-opacity:1;fill-rule:nonzero;stroke:none"
           id="text114"><tspan
             x="0 7.0999999 14.5 21.700001 29 35.900002 41.599998 49.099998 56.400002 63.599998 71 78.5"
             y="0"
             sodipodi:role="line"
             id="tspan42">✚✛✜✢✣✤✥✦✧★✩✪</tspan><tspan
             x="0.40000001 7.4000001"
             y="-10"
             sodipodi:role="line"
             id="tspan44">✫✬</tspan><tspan
             x="14.5 21.4"
             y="-10.1"
             sodipodi:role="line"
             id="tspan46">✪✜</tspan><tspan
             x="28 34.700001 41.299999 47.200001 53.599998"
             y="-10"
             sodipodi:role="line"
             id="tspan48">✭✮✯✰✱</tspan><tspan
             x="60.5"
             y="-10.1"
             id="tspan50">✤</tspan><tspan
             x="65 71.699997 78.5"
             y="-10"
             sodipodi:role="line"
             id="tspan52">✲✳✴</tspan><tspan
             x="-0.2 6.0999999 12.7 18.6 24.6 31.4"
             y="-20"
             sodipodi:role="line"
             id="tspan54">✵✶✷✸✹✻</tspan><tspan
             x="38.5"
             y="-20.1"
             id="tspan56">✪</tspan><tspan
             x="45.200001 51.799999 58.700001"
             y="-20"
             sodipodi:role="line"
             id="tspan58">✯✼✽</tspan><tspan
             x="0.1 7.5 14.9"
             y="-30"
             sodipodi:role="line"
             id="tspan60">✹✾✿</tspan><tspan
             x="22.299999"
             y="-30.1"
             id="tspan62">✛</tspan><tspan
             x="29.700001 36.799999"
             y="-30"
             sodipodi:role="line"
             id="tspan64">❀✳</tspan><tspan
             x="43.900002"
             y="-30.1"
             id="tspan66">✥</tspan><tspan
             x="51.400002"
             y="-30"
             id="tspan68">❁</tspan><tspan
             x="58.700001"
             y="-30.1"
             id="tspan70">✛</tspan><tspan
             x="63.700001 71.099998 78.5"
             y="-30"
             sodipodi:role="line"
             id="tspan72">❂❃❄</tspan><tspan
             x="0.40000001"
             y="-40"
             id="tspan74">✫</tspan><tspan
             x="7.4000001"
             y="-40.099998"
             id="tspan76">✛</tspan><tspan
             x="14.1 21.1 28.1 35.099998"
             y="-40"
             sodipodi:role="line"
             id="tspan78">✹❅❆❇</tspan><tspan
             x="38.700001"
             y="-40.099998"
             id="tspan80">✧</tspan><tspan
             x="45.200001 51.299999"
             y="-40"
             sodipodi:role="line"
             id="tspan82">❈❉</tspan><tspan
             x="57.599998"
             y="-40.099998"
             id="tspan84">★</tspan><tspan
             x="64.5 71.5"
             y="-40"
             sodipodi:role="line"
             id="tspan86">❊❋</tspan><tspan
             x="78.400002"
             y="-40.099998"
             id="tspan88">✛</tspan><tspan
             x="0.40000001"
             y="-50"
             id="tspan90">✫</tspan><tspan
             x="7.5"
             y="-50.099998"
             id="tspan92">✤</tspan><tspan
             x="12.7 18.799999 24.799999"
             y="-50"
             sodipodi:role="line"
             id="tspan94">●✰❉</tspan><tspan
             x="31.1"
             y="-50.099998"
             id="tspan96">★</tspan><tspan
             x="37.900002"
             y="-50"
             id="tspan98">✾</tspan><tspan
             x="45"
             y="-50.099998"
             id="tspan100">✪</tspan><tspan
             x="51.400002 57.5 64.199997"
             y="-50"
             sodipodi:role="line"
             id="tspan102">❉✭❍</tspan><tspan
             x="71"
             y="-50.099998"
             id="tspan104">✪</tspan><tspan
             x="78"
             y="-50"
             id="tspan106">✽</tspan><tspan
             x="0.40000001 9.3999996 18.4 27.4"
             y="94.300003"
             sodipodi:role="line"
             id="tspan108">■❏❑▲</tspan><tspan
             x="6.6999998 22.200001 37.200001 52 64.699997"
             y="151"
             sodipodi:role="line"
             id="tspan110">▼◆❖P◗</tspan><tspan
             x="0.40000001 9.6999998 19 28.299999 37.599998 43.899998 53.199997 62.499996 71.799995"
             y="75.300003"
             sodipodi:role="line"
             id="tspan112">❘❘❙❘❚❘❯❱❲</tspan></text>
      </g>
      <path
         d="m 304.352,1405.21 c 22.699,-12.61 47.359,-0.56 47.359,-21.84 0,-7.58 -6.16,-13.46 -13.742,-13.46 -3.071,0 -9.809,1.13 -15.399,9.24 -11.211,16.26 -11.769,17.1 -21.57,22.14 l -1.969,-1.4 c 2.239,-26.05 12.039,-28.59 12.039,-39.78 0,-7.3 -5.039,-14.57 -14.57,-14.57 -9.781,0 -13.16,9.52 -13.16,15.41 0,15.41 10.648,12.6 10.648,38.94 l -1.968,1.4 c -23.801,-15.4 -20.168,-32.22 -36.418,-32.22 -4.762,0 -13.161,4.48 -13.161,13.45 0,3.37 0,10.38 10.918,14.58 12.051,4.75 20.172,-3.08 36.141,9.23 l 0.289,1.96 c -26.059,13.17 -47.641,0.29 -47.641,22.15 0,10.36 8.692,13.43 12.332,13.43 21.301,0 14,-20.44 38.098,-31.37 l 1.981,0.84 c 0.269,24.1 -12.059,25.48 -12.059,40.64 0,7.82 6.441,13.71 14.289,13.71 11.762,0 13.731,-10.92 13.731,-15.12 0,-14.29 -12.329,-15.13 -10.641,-39.23 l 2.23,-0.84 c 23.262,16.81 19.903,32.22 35.313,32.22 9.519,0 14.289,-9.25 14.289,-14.28 0,-2.53 -2.52,-10.93 -11.5,-14.01 -10.633,-3.93 -19.051,2.8 -35.859,-8.97"
         style="fill:#231f20;fill-opacity:1;fill-rule:nonzero;stroke:none"
         id="path116" />
      <g
         id="g118"
         transform="scale(10)">
        <text
           xml:space="preserve"
           transform="translate(37.1,134.6)"
           style="font-variant:normal;font-weight:normal;font-size:0.1px;font-family:Arial;-inkscape-font-specification:Arial;writing-mode:lr-tb;fill:#231f20;fill-opacity:1;fill-rule:nonzero;stroke:none"
           id="text124"><tspan
             x="0 9.3000002"
             y="0"
             sodipodi:role="line"
             id="tspan120">❳❨</tspan><tspan
             x="-14.5 -9.6999998 -6.0999999 -3.1000006 -1.2e-06 3.0999982 6.0999975 8.1999979"
             y="144.10001"
             sodipodi:role="line"
             id="tspan122">❩❬❭❪❫❫❴❬</tspan></text>
      </g>
      <g
         id="g126"
         transform="scale(10)">
        <text
           xml:space="preserve"
           transform="translate(65.1,278.7)"
           style="font-variant:normal;font-weight:normal;font-size:0.1px;font-family:Arial;-inkscape-font-specification:Arial;writing-mode:lr-tb;fill:#231f20;fill-opacity:1;fill-rule:nonzero;stroke:none"
           id="text130"><tspan
             x="0 5.9000001 9.0000029 12.000005 15.000008 19.500008 23.600008 27.300007 30.900005 32.500004 38.200005 42.299999 46.499996 51.499992 55.099998 59.199993 62.499996 66 71.399994 75.599991 79.799988 81.29998 84.29998 87.599983 90.899986 94.999985"
             y="0"
             sodipodi:role="line"
             id="tspan128">➞❵❛❜❝❞❡❢❣❤❞❤✐❥❦❧♠♥❞❤♦♣q❧r♦</tspan></text>
      </g>
    </g>
  </g>
</svg>
