<?xml version="1.0" encoding="UTF-8" standalone="no"?>
<!-- Created with Inkscape (http://www.inkscape.org/) -->

<svg
   width="35.833202mm"
   height="19.00589mm"
   viewBox="0 0 35.833202 19.00589"
   version="1.1"
   id="svg732"
   inkscape:version="1.2.2 (b0a8486541, 2022-12-01)"
   sodipodi:docname="00:00.svg"
   xmlns:inkscape="http://www.inkscape.org/namespaces/inkscape"
   xmlns:sodipodi="http://sodipodi.sourceforge.net/DTD/sodipodi-0.dtd"
   xmlns="http://www.w3.org/2000/svg"
   xmlns:svg="http://www.w3.org/2000/svg">
  <sodipodi:namedview
     id="namedview734"
     pagecolor="#ffffff"
     bordercolor="#666666"
     borderopacity="1.0"
     inkscape:showpageshadow="2"
     inkscape:pageopacity="0.0"
     inkscape:pagecheckerboard="0"
     inkscape:deskcolor="#d1d1d1"
     inkscape:document-units="mm"
     showgrid="false"
     inkscape:zoom="2"
     inkscape:cx="1111.5"
     inkscape:cy="485"
     inkscape:window-width="1366"
     inkscape:window-height="685"
     inkscape:window-x="0"
     inkscape:window-y="27"
     inkscape:window-maximized="1"
     inkscape:current-layer="layer1" />
  <defs
     id="defs729">
    <clipPath
       clipPathUnits="userSpaceOnUse"
       id="clipPath794">
      <path
         d="m 777.27,1628.11 h 713.699 v 357.172 H 777.27 Z"
         id="path792" />
    </clipPath>
    <clipPath
       clipPathUnits="userSpaceOnUse"
       id="clipPath649">
      <path
         d="m 777.27,1628.11 h 713.699 v 357.172 H 777.27 Z"
         id="path647" />
    </clipPath>
    <clipPath
       clipPathUnits="userSpaceOnUse"
       id="clipPath653">
      <path
         d="m 777.27,1628.11 h 713.699 v 357.172 H 777.27 Z"
         id="path651" />
    </clipPath>
  </defs>
  <g
     inkscape:label="Layer 1"
     inkscape:groupmode="layer"
     id="layer1"
     transform="translate(188.9886,-20.197056)">
    <text
       xml:space="preserve"
       transform="scale(1,-1)"
       style="font-variant:normal;font-weight:normal;font-size:0.0352777px;font-family:Arial;-inkscape-font-specification:Arial;writing-mode:lr-tb;fill:#231f20;fill-opacity:1;fill-rule:nonzero;stroke:none;stroke-width:0.352777"
       id="text774"
       x="-188.99052"
       y="-20.197056"><tspan
         x="-188.99052"
         y="-20.197056"
         id="tspan772"
         style="stroke-width:0.352777">✺</tspan></text>
    <text
       xml:space="preserve"
       transform="scale(1,-1)"
       style="font-variant:normal;font-weight:normal;font-size:0.0352777px;font-family:Arial;-inkscape-font-specification:Arial;writing-mode:lr-tb;fill:#231f20;fill-opacity:1;fill-rule:nonzero;stroke:none;stroke-width:0.352777"
       id="text778"
       x="-185.81554"
       y="-20.23251"><tspan
         x="-185.81554"
         y="-20.23251"
         id="tspan776"
         style="stroke-width:0.352777">✱</tspan></text>
    <path
       d="m -178.66484,24.475805 -0.43282,-0.19438 c 0,0 -0.3587,-0.173566 -0.66008,0.06103 -0.24793,0.192617 -0.69356,0.507999 -1.4213,1.660874 -0.71508,1.157461 -0.77255,1.648174 -0.82134,1.931101 -0.0595,0.343252 0.3102,0.498826 0.3102,0.498826 l 0.43215,0.19438"
       style="fill:#9c9a9b;fill-opacity:1;fill-rule:nonzero;stroke:none;stroke-width:0.0352777"
       id="path780" />
    <path
       d="m -164.21965,24.475805 0.43286,-0.19438 c 0,0 0.35878,-0.173566 0.66005,0.06103 0.24765,0.192617 0.69356,0.507999 1.42098,1.660874 0.71543,1.157461 0.77294,1.648174 0.82127,1.931101 0.0596,0.343252 -0.31009,0.498826 -0.31009,0.498826 l -0.4318,0.19438"
       style="fill:#9c9a9b;fill-opacity:1;fill-rule:nonzero;stroke:none;stroke-width:0.0352777"
       id="path782" />
    <path
       d="m -178.66484,36.331226 -0.43282,0.194732 c 0,0 -0.3587,0.173567 -0.66008,-0.06103 -0.24793,-0.192616 -0.69356,-0.508352 -1.4213,-1.660874 -0.71508,-1.157813 -0.77255,-1.648173 -0.82134,-1.931453 -0.0595,-0.342899 0.3102,-0.498474 0.3102,-0.498474 l 0.43215,-0.19438"
       style="fill:#9c9a9b;fill-opacity:1;fill-rule:nonzero;stroke:none;stroke-width:0.0352777"
       id="path784" />
    <path
       d="m -164.21965,36.331226 0.43286,0.194732 c 0,0 0.35878,0.173567 0.66005,-0.06103 0.24765,-0.192616 0.69356,-0.508352 1.42098,-1.660874 0.71543,-1.157813 0.77294,-1.648173 0.82127,-1.931453 0.0596,-0.342899 -0.31009,-0.498474 -0.31009,-0.498474 l -0.4318,-0.19438"
       style="fill:#9c9a9b;fill-opacity:1;fill-rule:nonzero;stroke:none;stroke-width:0.0352777"
       id="path786" />
    <path
       d="m 1427.37,1806.69 c 0,-137.51 -131.15,-248.99 -292.95,-248.99 -161.779,0 -292.932,111.48 -292.932,248.99 0,137.51 131.153,249 292.932,249 161.8,0 292.95,-111.49 292.95,-249"
       style="fill:#ffffff;fill-opacity:1;fill-rule:nonzero;stroke:none"
       id="path796"
       clip-path="url(#clipPath794)"
       transform="matrix(0.03527769,0,0,-0.03527769,-211.46247,94.139365)" />
    <path
       d="m 1427.37,1806.69 c 0,-137.51 -131.15,-248.99 -292.95,-248.99 -161.779,0 -292.932,111.48 -292.932,248.99 0,137.51 131.153,249 292.932,249 161.8,0 292.95,-111.49 292.95,-249 z"
       style="fill:none;stroke:#9c9a9b;stroke-width:6;stroke-linecap:butt;stroke-linejoin:miter;stroke-miterlimit:10;stroke-dasharray:none;stroke-opacity:1"
       id="path798"
       clip-path="url(#clipPath794)"
       transform="matrix(0.03527769,0,0,-0.03527769,-211.46247,94.139365)" />
    <path
       d="m 1403.9,1806.69 c 0,-126.5 -120.64,-229.05 -269.47,-229.05 -148.821,0 -269.461,102.55 -269.461,229.05 0,126.5 120.64,229.05 269.461,229.05 148.83,0 269.47,-102.55 269.47,-229.05 z"
       style="fill:none;stroke:#9c9a9b;stroke-width:4;stroke-linecap:butt;stroke-linejoin:miter;stroke-miterlimit:10;stroke-dasharray:none;stroke-opacity:1"
       id="path800"
       clip-path="url(#clipPath794)"
       transform="matrix(0.03527769,0,0,-0.03527769,-211.46247,94.139365)" />
    <path
       d="m -184.06052,25.41525 c 0,0.656518 0.54045,1.197325 1.19736,1.197325 0.65609,0 1.1963,-0.540807 1.1963,-1.197325 0,-0.656518 -0.54021,-1.196267 -1.1963,-1.196267 -0.65691,0 -1.19736,0.539749 -1.19736,1.196267 m 1.19736,-1.084789 c 0.59753,0 1.08478,0.487185 1.08478,1.084789 0,0.596193 -0.48905,1.084789 -1.08478,1.084789 -0.59655,0 -1.08589,-0.488596 -1.08589,-1.084789 0,-0.597604 0.48687,-1.084789 1.08589,-1.084789 m 0.28567,1.397349 0.14221,0.414513 h 0.2092 l -0.51428,-1.420632 h -0.21911 l -0.53344,1.420632 h 0.19858 l 0.14894,-0.414513 z m -0.51015,-0.170391 0.22836,-0.624062 h 0.005 l 0.20919,0.624062"
       style="fill:#231f20;fill-opacity:1;fill-rule:nonzero;stroke:none;stroke-width:0.0352777"
       id="path802" />
    <path
       d="m -161.25808,25.415955 c 0,0.656518 0.54045,1.19662 1.19697,1.19662 0.65687,0 1.19662,-0.540102 1.19662,-1.19662 0,-0.656517 -0.53975,-1.197324 -1.19662,-1.197324 -0.65652,0 -1.19697,0.540807 -1.19697,1.197324 m 1.19697,-1.092197 c 0.59866,0 1.08514,0.493535 1.08514,1.092197 0,0.596193 -0.48895,1.084789 -1.08514,1.084789 -0.59584,0 -1.08479,-0.488596 -1.08479,-1.084789 0,-0.598662 0.48648,-1.092197 1.08479,-1.092197 m -0.24448,1.184978 h 0.37959 c 0.15593,0 0.33091,0.03951 0.33091,0.239535 0,0.15875 -0.10019,0.258939 -0.30092,0.258939 h -0.40958 z m -0.19085,0.663926 h 0.61242 c 0.31433,0 0.4819,-0.191205 0.4819,-0.419099 0,-0.244827 -0.16546,-0.309385 -0.25859,-0.347485 0.15875,-0.07197 0.19121,-0.202494 0.19121,-0.295275 0,-0.195791 -0.13724,-0.358774 -0.40252,-0.358774 h -0.62442 z m 0.19085,-1.25765 h 0.34925 c 0.21449,0 0.29563,0.07691 0.29563,0.209902 0,0.172156 -0.11395,0.228247 -0.29774,0.228247 h -0.34714"
       style="fill:#231f20;fill-opacity:1;fill-rule:nonzero;stroke:none;stroke-width:0.0352777"
       id="path804" />
    <path
       d="m -184.06052,35.391428 c 0,0.657223 0.54045,1.197325 1.19736,1.197325 0.65609,0 1.1963,-0.540102 1.1963,-1.197325 0,-0.656518 -0.54021,-1.196619 -1.1963,-1.196619 -0.65691,0 -1.19736,0.540101 -1.19736,1.196619 m 1.8048,-0.251177 c -0.0283,-0.237419 -0.21911,-0.463196 -0.58455,-0.463196 -0.41409,0 -0.66393,0.302682 -0.66393,0.738362 0,0.546451 0.3168,0.756353 0.64104,0.756353 0.10611,0 0.54214,-0.02293 0.62152,-0.558798 h -0.18687 c -0.0653,0.330552 -0.28127,0.388407 -0.40502,0.388407 -0.35387,0 -0.47212,-0.25541 -0.47212,-0.590901 0,-0.374649 0.20891,-0.563032 0.46538,-0.563032 0.13723,0 0.34505,0.04374 0.39755,0.292805 z m -0.60744,-0.833612 c 0.59753,0 1.08478,0.486832 1.08478,1.084789 0,0.596193 -0.48905,1.085494 -1.08478,1.085494 -0.59655,0 -1.08589,-0.489301 -1.08589,-1.085494 0,-0.597957 0.48687,-1.084789 1.08589,-1.084789"
       style="fill:#231f20;fill-opacity:1;fill-rule:nonzero;stroke:none;stroke-width:0.0352777"
       id="path806" />
    <path
       d="m -161.26055,35.391428 c 0,0.657223 0.53975,1.197325 1.19662,1.197325 0.65687,0 1.19662,-0.540102 1.19662,-1.197325 0,-0.656518 -0.53975,-1.196619 -1.19662,-1.196619 -0.65687,0 -1.19662,0.540101 -1.19662,1.196619 m 1.19662,-1.091492 c 0.59866,0 1.08514,0.493535 1.08514,1.091492 0,0.596193 -0.4893,1.085494 -1.08514,1.085494 -0.59584,0 -1.08515,-0.489301 -1.08515,-1.085494 0,-0.597957 0.48684,-1.091492 1.08515,-1.091492 m -0.48401,1.843965 h 0.56797 c 0.46566,0 0.60571,-0.412043 0.60571,-0.730954 0,-0.410279 -0.22859,-0.689679 -0.59901,-0.689679 h -0.57467 z m 0.19085,-1.25765 h 0.35842 c 0.2607,0 0.42615,0.18168 0.42615,0.538338 0,0.358774 -0.16298,0.55386 -0.41239,0.55386 h -0.37218"
       style="fill:#231f20;fill-opacity:1;fill-rule:nonzero;stroke:none;stroke-width:0.0352777"
       id="path808" />
    <path
       d="m -165.64381,30.34566 c 0,-3.197217 -2.59079,-5.790127 -5.78377,-5.790127 -3.19793,0 -5.795,2.59291 -5.795,5.790127 0,3.198981 2.59707,5.791185 5.795,5.791185 3.19298,0 5.78377,-2.592204 5.78377,-5.791185 z"
       style="fill:none;stroke:#9c9a9b;stroke-width:0.141111;stroke-linecap:round;stroke-linejoin:round;stroke-miterlimit:10;stroke-dasharray:none;stroke-opacity:1"
       id="path810" />
    <path
       d="m -167.22072,29.076721 h 0.50519 v -0.822686 h -0.50519 z"
       style="fill:#231f20;fill-opacity:1;fill-rule:nonzero;stroke:none;stroke-width:0.0352777"
       id="path812" />
    <path
       d="m -167.77987,29.076721 h 0.50546 v -0.822686 h -0.50546 z"
       style="fill:#231f20;fill-opacity:1;fill-rule:nonzero;stroke:none;stroke-width:0.0352777"
       id="path814" />
    <path
       d="m -168.33867,29.076721 h 0.50519 v -0.822686 h -0.50519 z"
       style="fill:#231f20;fill-opacity:1;fill-rule:nonzero;stroke:none;stroke-width:0.0352777"
       id="path816" />
    <path
       d="m -169.45697,29.076721 h 0.50519 v -0.822686 h -0.50519 z"
       style="fill:#231f20;fill-opacity:1;fill-rule:nonzero;stroke:none;stroke-width:0.0352777"
       id="path818" />
    <path
       d="m -170.01683,29.076721 h 0.50519 v -0.822686 h -0.50519 z"
       style="fill:#231f20;fill-opacity:1;fill-rule:nonzero;stroke:none;stroke-width:0.0352777"
       id="path820" />
    <path
       d="m -170.57563,29.076721 h 0.50519 v -0.822686 h -0.50519 z"
       style="fill:#231f20;fill-opacity:1;fill-rule:nonzero;stroke:none;stroke-width:0.0352777"
       id="path822" />
    <path
       d="m -171.69464,29.076721 h 0.50616 v -0.822686 h -0.50616 z"
       style="fill:#231f20;fill-opacity:1;fill-rule:nonzero;stroke:none;stroke-width:0.0352777"
       id="path824" />
    <path
       d="m -172.81329,29.076721 h 0.50546 v -0.822686 h -0.50546 z"
       style="fill:#231f20;fill-opacity:1;fill-rule:nonzero;stroke:none;stroke-width:0.0352777"
       id="path826" />
    <path
       d="m -173.37209,29.076721 h 0.50519 v -0.822686 h -0.50519 z"
       style="fill:#231f20;fill-opacity:1;fill-rule:nonzero;stroke:none;stroke-width:0.0352777"
       id="path828" />
    <path
       d="m -173.93089,29.076721 h 0.50519 v -0.822686 h -0.50519 z"
       style="fill:#231f20;fill-opacity:1;fill-rule:nonzero;stroke:none;stroke-width:0.0352777"
       id="path830" />
    <path
       d="m -175.0499,29.076721 h 0.50547 v -0.822686 h -0.50547 z"
       style="fill:#231f20;fill-opacity:1;fill-rule:nonzero;stroke:none;stroke-width:0.0352777"
       id="path832" />
    <path
       d="m -175.61293,29.076721 h 0.50684 v -0.822686 h -0.50684 z"
       style="fill:#231f20;fill-opacity:1;fill-rule:nonzero;stroke:none;stroke-width:0.0352777"
       id="path834" />
    <path
       d="m -176.17173,29.076721 h 0.50519 v -0.822686 h -0.50519 z"
       style="fill:#231f20;fill-opacity:1;fill-rule:nonzero;stroke:none;stroke-width:0.0352777"
       id="path836" />
    <path
       d="m -167.22072,29.954077 h 0.50519 v -0.822686 h -0.50519 z"
       style="fill:#231f20;fill-opacity:1;fill-rule:nonzero;stroke:none;stroke-width:0.0352777"
       id="path838" />
    <path
       d="m -168.33867,29.954077 h 0.50519 v -0.822686 h -0.50519 z"
       style="fill:#231f20;fill-opacity:1;fill-rule:nonzero;stroke:none;stroke-width:0.0352777"
       id="path840" />
    <path
       d="m -169.45697,29.954077 h 0.50519 v -0.822686 h -0.50519 z"
       style="fill:#231f20;fill-opacity:1;fill-rule:nonzero;stroke:none;stroke-width:0.0352777"
       id="path842" />
    <path
       d="m -170.57563,29.954077 h 0.50519 v -0.822686 h -0.50519 z"
       style="fill:#231f20;fill-opacity:1;fill-rule:nonzero;stroke:none;stroke-width:0.0352777"
       id="path844" />
    <path
       d="m -171.69464,29.954077 h 0.50616 v -0.822686 h -0.50616 z"
       style="fill:#231f20;fill-opacity:1;fill-rule:nonzero;stroke:none;stroke-width:0.0352777"
       id="path846" />
    <path
       d="m -172.81329,29.954077 h 0.50546 v -0.822686 h -0.50546 z"
       style="fill:#231f20;fill-opacity:1;fill-rule:nonzero;stroke:none;stroke-width:0.0352777"
       id="path848" />
    <path
       d="m -173.93089,29.954077 h 0.50519 v -0.822686 h -0.50519 z"
       style="fill:#231f20;fill-opacity:1;fill-rule:nonzero;stroke:none;stroke-width:0.0352777"
       id="path850" />
    <path
       d="m -175.0499,29.954077 h 0.50547 v -0.822686 h -0.50547 z"
       style="fill:#231f20;fill-opacity:1;fill-rule:nonzero;stroke:none;stroke-width:0.0352777"
       id="path852" />
    <path
       d="m -176.17173,29.954077 h 0.50519 v -0.822686 h -0.50519 z"
       style="fill:#231f20;fill-opacity:1;fill-rule:nonzero;stroke:none;stroke-width:0.0352777"
       id="path854" />
    <path
       d="m -167.22072,30.829317 h 0.50519 v -0.821998 h -0.50519 z"
       style="fill:#231f20;fill-opacity:1;fill-rule:nonzero;stroke:none;stroke-width:0.0352777"
       id="path856" />
    <path
       d="m -168.33867,30.829317 h 0.50519 v -0.821998 h -0.50519 z"
       style="fill:#231f20;fill-opacity:1;fill-rule:nonzero;stroke:none;stroke-width:0.0352777"
       id="path858" />
    <path
       d="m -169.45697,30.829317 h 0.50519 v -0.821998 h -0.50519 z"
       style="fill:#231f20;fill-opacity:1;fill-rule:nonzero;stroke:none;stroke-width:0.0352777"
       id="path860" />
    <path
       d="m -170.57563,30.829317 h 0.50519 v -0.821998 h -0.50519 z"
       style="fill:#231f20;fill-opacity:1;fill-rule:nonzero;stroke:none;stroke-width:0.0352777"
       id="path862" />
    <path
       d="m -172.81329,30.829317 h 0.50546 v -0.821998 h -0.50546 z"
       style="fill:#231f20;fill-opacity:1;fill-rule:nonzero;stroke:none;stroke-width:0.0352777"
       id="path864" />
    <path
       d="m -173.93089,30.829317 h 0.50519 v -0.821998 h -0.50519 z"
       style="fill:#231f20;fill-opacity:1;fill-rule:nonzero;stroke:none;stroke-width:0.0352777"
       id="path866" />
    <path
       d="m -175.0499,30.829317 h 0.50547 v -0.821998 h -0.50547 z"
       style="fill:#231f20;fill-opacity:1;fill-rule:nonzero;stroke:none;stroke-width:0.0352777"
       id="path868" />
    <path
       d="m -176.17173,30.829317 h 0.50519 v -0.821998 h -0.50519 z"
       style="fill:#231f20;fill-opacity:1;fill-rule:nonzero;stroke:none;stroke-width:0.0352777"
       id="path870" />
    <path
       d="m -167.22072,31.706673 h 0.50519 v -0.822686 h -0.50519 z"
       style="fill:#231f20;fill-opacity:1;fill-rule:nonzero;stroke:none;stroke-width:0.0352777"
       id="path872" />
    <path
       d="m -168.33867,31.706673 h 0.50519 v -0.822686 h -0.50519 z"
       style="fill:#231f20;fill-opacity:1;fill-rule:nonzero;stroke:none;stroke-width:0.0352777"
       id="path874" />
    <path
       d="m -169.45697,31.706673 h 0.50519 v -0.822686 h -0.50519 z"
       style="fill:#231f20;fill-opacity:1;fill-rule:nonzero;stroke:none;stroke-width:0.0352777"
       id="path876" />
    <path
       d="m -170.57563,31.706673 h 0.50519 v -0.822686 h -0.50519 z"
       style="fill:#231f20;fill-opacity:1;fill-rule:nonzero;stroke:none;stroke-width:0.0352777"
       id="path878" />
    <path
       d="m -172.81329,31.706673 h 0.50546 v -0.822686 h -0.50546 z"
       style="fill:#231f20;fill-opacity:1;fill-rule:nonzero;stroke:none;stroke-width:0.0352777"
       id="path880" />
    <path
       d="m -173.93089,31.706673 h 0.50519 v -0.822686 h -0.50519 z"
       style="fill:#231f20;fill-opacity:1;fill-rule:nonzero;stroke:none;stroke-width:0.0352777"
       id="path882" />
    <path
       d="m -175.0499,31.706673 h 0.50547 v -0.822686 h -0.50547 z"
       style="fill:#231f20;fill-opacity:1;fill-rule:nonzero;stroke:none;stroke-width:0.0352777"
       id="path884" />
    <path
       d="m -176.17173,31.706673 h 0.50519 v -0.822686 h -0.50519 z"
       style="fill:#231f20;fill-opacity:1;fill-rule:nonzero;stroke:none;stroke-width:0.0352777"
       id="path886" />
    <path
       d="m -167.22072,32.583324 h 0.50519 v -0.821999 h -0.50519 z"
       style="fill:#231f20;fill-opacity:1;fill-rule:nonzero;stroke:none;stroke-width:0.0352777"
       id="path888" />
    <path
       d="m -167.77987,32.583324 h 0.50546 v -0.821999 h -0.50546 z"
       style="fill:#231f20;fill-opacity:1;fill-rule:nonzero;stroke:none;stroke-width:0.0352777"
       id="path890" />
    <path
       d="m -168.33867,32.583324 h 0.50519 v -0.821999 h -0.50519 z"
       style="fill:#231f20;fill-opacity:1;fill-rule:nonzero;stroke:none;stroke-width:0.0352777"
       id="path892" />
    <path
       d="m -169.45697,32.583324 h 0.50519 v -0.821999 h -0.50519 z"
       style="fill:#231f20;fill-opacity:1;fill-rule:nonzero;stroke:none;stroke-width:0.0352777"
       id="path894" />
    <path
       d="m -170.01683,32.583324 h 0.50519 v -0.821999 h -0.50519 z"
       style="fill:#231f20;fill-opacity:1;fill-rule:nonzero;stroke:none;stroke-width:0.0352777"
       id="path896" />
    <path
       d="m -170.57563,32.583324 h 0.50519 v -0.821999 h -0.50519 z"
       style="fill:#231f20;fill-opacity:1;fill-rule:nonzero;stroke:none;stroke-width:0.0352777"
       id="path898" />
    <path
       d="m -172.81329,32.583324 h 0.50546 v -0.821999 h -0.50546 z"
       style="fill:#231f20;fill-opacity:1;fill-rule:nonzero;stroke:none;stroke-width:0.0352777"
       id="path900" />
    <path
       d="m -173.37209,32.583324 h 0.50519 v -0.821999 h -0.50519 z"
       style="fill:#231f20;fill-opacity:1;fill-rule:nonzero;stroke:none;stroke-width:0.0352777"
       id="path902" />
    <path
       d="m -173.93089,32.583324 h 0.50519 v -0.821999 h -0.50519 z"
       style="fill:#231f20;fill-opacity:1;fill-rule:nonzero;stroke:none;stroke-width:0.0352777"
       id="path904" />
    <path
       d="m -175.0499,32.583324 h 0.50547 v -0.821999 h -0.50547 z"
       style="fill:#231f20;fill-opacity:1;fill-rule:nonzero;stroke:none;stroke-width:0.0352777"
       id="path906" />
    <path
       d="m -175.61293,32.583324 h 0.50684 v -0.821999 h -0.50684 z"
       style="fill:#231f20;fill-opacity:1;fill-rule:nonzero;stroke:none;stroke-width:0.0352777"
       id="path908" />
    <path
       d="m -176.17173,32.583324 h 0.50519 v -0.821999 h -0.50519 z"
       style="fill:#231f20;fill-opacity:1;fill-rule:nonzero;stroke:none;stroke-width:0.0352777"
       id="path910" />
    <text
       xml:space="preserve"
       transform="scale(1,-1)"
       style="font-variant:normal;font-weight:normal;font-size:0.0352777px;font-family:Arial;-inkscape-font-specification:Arial;writing-mode:lr-tb;fill:#231f20;fill-opacity:1;fill-rule:nonzero;stroke:none;stroke-width:0.352777"
       id="text916"
       x="-161.82664"
       y="-39.176678"><tspan
         x="-161.82664 -159.53358"
         y="-39.176678"
         sodipodi:role="line"
         id="tspan914"
         style="stroke-width:0.352777">✥✦</tspan></text>
    <text
       xml:space="preserve"
       transform="scale(1,-1)"
       style="font-variant:normal;font-weight:normal;font-size:0.0352777px;font-family:Arial;-inkscape-font-specification:Arial;writing-mode:lr-tb;fill:#231f20;fill-opacity:1;fill-rule:nonzero;stroke:none;stroke-width:0.352777"
       id="text920"
       x="-157.38164"
       y="-39.176678"><tspan
         x="-157.38164 -155.26498"
         y="-39.176678"
         sodipodi:role="line"
         id="tspan918"
         style="stroke-width:0.352777">✿✼</tspan></text>
    <text
       xml:space="preserve"
       transform="scale(1,-1)"
       style="font-variant:normal;font-weight:normal;font-size:0.0352777px;font-family:Arial;-inkscape-font-specification:Arial;writing-mode:lr-tb;fill:#231f20;fill-opacity:1;fill-rule:nonzero;stroke:none;stroke-width:0.352777"
       id="text924"
       x="-153.18349"
       y="-39.176678"><tspan
         x="-153.18349"
         y="-39.176678"
         id="tspan922"
         style="stroke-width:0.352777">✧</tspan></text>
  </g>
</svg>
