<?xml version="1.0" encoding="UTF-8" standalone="no"?>
<!-- Created with Inkscape (http://www.inkscape.org/) -->

<svg
   width="25.195681mm"
   height="20.879807mm"
   viewBox="0 0 25.195681 20.879807"
   version="1.1"
   id="svg858"
   inkscape:version="1.2.2 (b0a8486541, 2022-12-01)"
   sodipodi:docname="0:00_blinking_page46.svg"
   xmlns:inkscape="http://www.inkscape.org/namespaces/inkscape"
   xmlns:sodipodi="http://sodipodi.sourceforge.net/DTD/sodipodi-0.dtd"
   xmlns="http://www.w3.org/2000/svg"
   xmlns:svg="http://www.w3.org/2000/svg">
  <sodipodi:namedview
     id="namedview860"
     pagecolor="#ffffff"
     bordercolor="#666666"
     borderopacity="1.0"
     inkscape:showpageshadow="2"
     inkscape:pageopacity="0.0"
     inkscape:pagecheckerboard="0"
     inkscape:deskcolor="#d1d1d1"
     inkscape:document-units="mm"
     showgrid="false"
     inkscape:zoom="0.44542649"
     inkscape:cx="1100.0693"
     inkscape:cy="493.90866"
     inkscape:window-width="1366"
     inkscape:window-height="685"
     inkscape:window-x="0"
     inkscape:window-y="27"
     inkscape:window-maximized="1"
     inkscape:current-layer="layer1" />
  <defs
     id="defs855" />
  <g
     inkscape:label="Layer 1"
     inkscape:groupmode="layer"
     id="layer1"
     transform="translate(186.04584,-18.072095)">
    <path
       d="m -180.65012,21.538128 -0.43285,-0.228599 c 0,0 -0.35878,-0.204258 -0.66005,0.07161 -0.248,0.226483 -0.69356,0.597957 -1.42134,1.954032 -0.71508,1.362071 -0.77258,1.939214 -0.82126,2.271883 -0.0596,0.403929 0.31009,0.587021 0.31009,0.587021 l 0.43215,0.228599"
       style="fill:#9c9a9b;fill-opacity:1;fill-rule:nonzero;stroke:none;stroke-width:0.0352777"
       id="path960" />
    <path
       d="m -166.20496,21.538128 0.43286,-0.228599 c 0,0 0.35877,-0.204258 0.66004,0.07161 0.24765,0.226483 0.69356,0.597957 1.42099,1.954032 0.71543,1.362071 0.77293,1.939214 0.82126,2.271883 0.0596,0.403929 -0.31009,0.587021 -0.31009,0.587021 l -0.4318,0.228599"
       style="fill:#9c9a9b;fill-opacity:1;fill-rule:nonzero;stroke:none;stroke-width:0.0352777"
       id="path962" />
    <path
       d="m -180.65012,35.485868 -0.43285,0.228953 c 0,0 -0.35878,0.204257 -0.66005,-0.07161 -0.248,-0.226836 -0.69356,-0.597957 -1.42134,-1.954031 -0.71508,-1.362425 -0.77258,-1.939568 -0.82126,-2.272236 -0.0596,-0.403577 0.31009,-0.586668 0.31009,-0.586668 l 0.43215,-0.2286"
       style="fill:#9c9a9b;fill-opacity:1;fill-rule:nonzero;stroke:none;stroke-width:0.0352777"
       id="path964" />
    <path
       d="m -166.20496,35.485868 0.43286,0.228953 c 0,0 0.35877,0.204257 0.66004,-0.07161 0.24765,-0.226836 0.69356,-0.597957 1.42099,-1.954031 0.71543,-1.362425 0.77293,-1.939568 0.82126,-2.272236 0.0596,-0.403577 -0.31009,-0.586668 -0.31009,-0.586668 l -0.4318,-0.2286"
       style="fill:#9c9a9b;fill-opacity:1;fill-rule:nonzero;stroke:none;stroke-width:0.0352777"
       id="path966" />
    <path
       d="m -163.09347,28.512175 c 0,5.707224 -4.62667,10.333893 -10.3346,10.333893 -5.70722,0 -10.33389,-4.626669 -10.33389,-10.333893 0,-5.707225 4.62667,-10.334247 10.33389,-10.334247 5.70793,0 10.3346,4.627022 10.3346,10.334247"
       style="fill:#ffffff;fill-opacity:1;fill-rule:nonzero;stroke:none;stroke-width:0.0352777"
       id="path968" />
    <path
       d="m -163.09347,28.512175 c 0,5.707224 -4.62667,10.333893 -10.3346,10.333893 -5.70722,0 -10.33389,-4.626669 -10.33389,-10.333893 0,-5.707225 4.62667,-10.334247 10.33389,-10.334247 5.70793,0 10.3346,4.627022 10.3346,10.334247 z"
       style="fill:none;stroke:#9c9a9b;stroke-width:0.211666;stroke-linecap:butt;stroke-linejoin:miter;stroke-miterlimit:10;stroke-dasharray:none;stroke-opacity:1"
       id="path970" />
    <path
       d="m -186.04584,22.562945 c 0,0.656518 0.54045,1.197325 1.19732,1.197325 0.65617,0 1.19627,-0.540807 1.19627,-1.197325 0,-0.656518 -0.5401,-1.196619 -1.19627,-1.196619 -0.65687,0 -1.19732,0.540101 -1.19732,1.196619 m 1.19732,-1.084789 c 0.59761,0 1.08479,0.486832 1.08479,1.084789 0,0.59584 -0.48895,1.084789 -1.08479,1.084789 -0.59654,0 -1.08584,-0.488949 -1.08584,-1.084789 0,-0.597957 0.48683,-1.084789 1.08584,-1.084789 m 0.28575,1.397349 0.14217,0.41416 h 0.2092 l -0.51435,-1.420632 h -0.21907 l -0.5334,1.420632 h 0.19861 l 0.14887,-0.41416 z m -0.51011,-0.170391 0.22825,-0.624415 h 0.005 l 0.2092,0.624415"
       style="fill:#231f20;fill-opacity:1;fill-rule:nonzero;stroke:none;stroke-width:0.0352777"
       id="path972" />
    <path
       d="m -163.24375,22.563651 c 0,0.656517 0.54045,1.196619 1.19697,1.196619 0.65687,0 1.19662,-0.540102 1.19662,-1.196619 0,-0.656518 -0.53975,-1.197325 -1.19662,-1.197325 -0.65652,0 -1.19697,0.540807 -1.19697,1.197325 m 1.19697,-1.092198 c 0.59866,0 1.08514,0.493535 1.08514,1.092198 0,0.596193 -0.48895,1.084789 -1.08514,1.084789 -0.59584,0 -1.08479,-0.488596 -1.08479,-1.084789 0,-0.598663 0.48648,-1.092198 1.08479,-1.092198 m -0.24447,1.184978 h 0.37958 c 0.15593,0 0.33091,0.03951 0.33091,0.239535 0,0.159103 -0.10019,0.258939 -0.30092,0.258939 h -0.40957 z m -0.19086,0.663926 h 0.61242 c 0.31433,0 0.4819,-0.190852 0.4819,-0.419099 0,-0.244827 -0.16546,-0.309385 -0.25859,-0.347485 0.15875,-0.07197 0.19121,-0.202494 0.19121,-0.295274 0,-0.195792 -0.13723,-0.358775 -0.40252,-0.358775 h -0.62442 z m 0.19086,-1.25765 h 0.34924 c 0.21449,0 0.29563,0.07691 0.29563,0.209903 0,0.172155 -0.11395,0.228246 -0.29774,0.228246 h -0.34713"
       style="fill:#231f20;fill-opacity:1;fill-rule:nonzero;stroke:none;stroke-width:0.0352777"
       id="path974" />
    <path
       d="m -186.04584,34.460699 c 0,0.657223 0.54045,1.197325 1.19732,1.197325 0.65617,0 1.19627,-0.540102 1.19627,-1.197325 0,-0.656518 -0.5401,-1.196267 -1.19627,-1.196267 -0.65687,0 -1.19732,0.539749 -1.19732,1.196267 m 1.80481,-0.251177 c -0.0282,-0.237419 -0.21908,-0.463196 -0.58455,-0.463196 -0.41416,0 -0.66393,0.302682 -0.66393,0.738362 0,0.546451 0.31679,0.756353 0.64099,0.756353 0.10619,0 0.54222,-0.02293 0.6216,-0.558798 h -0.18697 c -0.0653,0.330904 -0.28117,0.38876 -0.40499,0.38876 -0.35384,0 -0.47202,-0.255763 -0.47202,-0.591254 0,-0.374649 0.20885,-0.563032 0.46532,-0.563032 0.13723,0 0.34501,0.04374 0.39757,0.292805 z m -0.60749,-0.833612 c 0.59761,0 1.08479,0.487185 1.08479,1.084789 0,0.596193 -0.48895,1.085847 -1.08479,1.085847 -0.59654,0 -1.08584,-0.489654 -1.08584,-1.085847 0,-0.597604 0.48683,-1.084789 1.08584,-1.084789"
       style="fill:#231f20;fill-opacity:1;fill-rule:nonzero;stroke:none;stroke-width:0.0352777"
       id="path976" />
    <path
       d="m -163.24587,34.460699 c 0,0.657223 0.53975,1.197325 1.19662,1.197325 0.65687,0 1.19662,-0.540102 1.19662,-1.197325 0,-0.656518 -0.53975,-1.196267 -1.19662,-1.196267 -0.65687,0 -1.19662,0.539749 -1.19662,1.196267 m 1.19662,-1.091492 c 0.59866,0 1.08514,0.493888 1.08514,1.091492 0,0.596193 -0.4893,1.085847 -1.08514,1.085847 -0.59584,0 -1.08514,-0.489654 -1.08514,-1.085847 0,-0.597604 0.48683,-1.091492 1.08514,-1.091492 m -0.48401,1.843965 h 0.56797 c 0.46567,0 0.60572,-0.411691 0.60572,-0.730954 0,-0.410279 -0.2286,-0.689679 -0.59902,-0.689679 h -0.57467 z m 0.19085,-1.25765 h 0.35842 c 0.26071,0 0.42616,0.18168 0.42616,0.538338 0,0.358774 -0.16298,0.553859 -0.4124,0.553859 h -0.37218"
       style="fill:#231f20;fill-opacity:1;fill-rule:nonzero;stroke:none;stroke-width:0.0352777"
       id="path978" />
    <path
       d="m -173.4263,37.867818 c -5.16854,0 -9.35847,-4.18852 -9.35847,-9.355291 0,-5.166417 4.18993,-9.354937 9.35847,-9.354937 5.16359,0 9.35176,4.18852 9.35176,9.354937 0,5.166771 -4.18817,9.355291 -9.35176,9.355291 z"
       style="fill:none;stroke:#9c9a9b;stroke-width:0.141111;stroke-linecap:butt;stroke-linejoin:miter;stroke-miterlimit:10;stroke-dasharray:none;stroke-opacity:1"
       id="path980" />
    <path
       d="m -170.62984,33.135669 c 0,-1.522585 -1.23366,-2.756952 -2.75413,-2.756952 -1.52294,0 -2.75942,1.234367 -2.75942,2.756952 0,1.522938 1.23648,2.757304 2.75942,2.757304 1.52047,0 2.75413,-1.234366 2.75413,-2.757304 z"
       style="fill:none;stroke:#9c9a9b;stroke-width:0.141111;stroke-linecap:round;stroke-linejoin:round;stroke-miterlimit:10;stroke-dasharray:none;stroke-opacity:1"
       id="path982" />
    <path
       d="m -166.93803,28.08214 v 0.86007 l 2.51071,0.08361 v -1.02623 z"
       style="fill:none;stroke:#9c9a9b;stroke-width:0.141111;stroke-linecap:round;stroke-linejoin:round;stroke-miterlimit:10;stroke-dasharray:none;stroke-opacity:1"
       id="path984" />
    <path
       d="m -179.91987,28.08214 -2.51177,-0.08255 v 1.025875 l 2.51177,-0.08326 z"
       style="fill:none;stroke:#9c9a9b;stroke-width:0.141111;stroke-linecap:round;stroke-linejoin:round;stroke-miterlimit:10;stroke-dasharray:none;stroke-opacity:1"
       id="path986" />
    <path
       d="m -174.32589,21.237915 0.56656,1.315152 h 0.6664 l 0.55986,-1.315152 v -1.761768 h -1.79282 z"
       style="fill:none;stroke:#9c9a9b;stroke-width:0.141111;stroke-linecap:round;stroke-linejoin:round;stroke-miterlimit:10;stroke-dasharray:none;stroke-opacity:1"
       id="path988" />
    <path
       d="m -173.95582,37.547849 1.05268,3.53e-4 v -1.400171 h -1.05268 z"
       style="fill:none;stroke:#9c9a9b;stroke-width:0.141111;stroke-linecap:round;stroke-linejoin:round;stroke-miterlimit:10;stroke-dasharray:none;stroke-opacity:1"
       id="path990" />
    <path
       d="m -177.00417,23.040252 0.62336,-0.359832 -1.19592,-2.208384 -0.74259,0.428624 z"
       style="fill:none;stroke:#9c9a9b;stroke-width:0.141111;stroke-linecap:round;stroke-linejoin:round;stroke-miterlimit:10;stroke-dasharray:none;stroke-opacity:1"
       id="path992" />
    <path
       d="m -179.26088,25.560843 0.36018,-0.623357 -2.13994,-1.314446 -0.42898,0.742242 z"
       style="fill:none;stroke:#9c9a9b;stroke-width:0.141111;stroke-linecap:round;stroke-linejoin:round;stroke-miterlimit:10;stroke-dasharray:none;stroke-opacity:1"
       id="path994" />
    <path
       d="m -178.89964,32.087921 -0.35983,-0.623356 -2.20803,1.195913 0.42827,0.742596 z"
       style="fill:none;stroke:#9c9a9b;stroke-width:0.141111;stroke-linecap:round;stroke-linejoin:round;stroke-miterlimit:10;stroke-dasharray:none;stroke-opacity:1"
       id="path996" />
    <path
       d="m -176.37905,34.344282 -0.62335,-0.360185 -1.31445,2.139945 0.74189,0.428977 z"
       style="fill:none;stroke:#9c9a9b;stroke-width:0.141111;stroke-linecap:round;stroke-linejoin:round;stroke-miterlimit:10;stroke-dasharray:none;stroke-opacity:1"
       id="path998" />
    <path
       d="m -169.85197,33.983039 -0.62336,0.359832 1.19556,2.208031 0.74331,-0.428271 z"
       style="fill:none;stroke:#9c9a9b;stroke-width:0.141111;stroke-linecap:round;stroke-linejoin:round;stroke-miterlimit:10;stroke-dasharray:none;stroke-opacity:1"
       id="path1000" />
    <path
       d="m -167.59526,31.462801 -0.36018,0.623356 2.13994,1.314447 0.42933,-0.742242 z"
       style="fill:none;stroke:#9c9a9b;stroke-width:0.141111;stroke-linecap:round;stroke-linejoin:round;stroke-miterlimit:10;stroke-dasharray:none;stroke-opacity:1"
       id="path1002" />
    <path
       d="m -167.9565,24.93537 0.35983,0.623709 2.20839,-1.195913 -0.42863,-0.742949 z"
       style="fill:none;stroke:#9c9a9b;stroke-width:0.141111;stroke-linecap:round;stroke-linejoin:round;stroke-miterlimit:10;stroke-dasharray:none;stroke-opacity:1"
       id="path1004" />
    <path
       d="m -170.47709,22.679009 0.62336,0.360185 1.31444,-2.139945 -0.74224,-0.428977 z"
       style="fill:none;stroke:#9c9a9b;stroke-width:0.141111;stroke-linecap:round;stroke-linejoin:round;stroke-miterlimit:10;stroke-dasharray:none;stroke-opacity:1"
       id="path1006" />
    <path
       d="m -171.38055,32.531362 h 0.24019 v -0.391501 h -0.24019 z"
       style="fill:#7b7979;fill-opacity:1;fill-rule:nonzero;stroke:none;stroke-width:0.0352777"
       id="path1008" />
    <path
       d="m -171.6469,32.531362 h 0.24061 v -0.391501 h -0.24061 z"
       style="fill:#7b7979;fill-opacity:1;fill-rule:nonzero;stroke:none;stroke-width:0.0352777"
       id="path1010" />
    <path
       d="m -171.91289,32.531362 h 0.2406 v -0.391501 h -0.2406 z"
       style="fill:#7b7979;fill-opacity:1;fill-rule:nonzero;stroke:none;stroke-width:0.0352777"
       id="path1012" />
    <path
       d="m -172.44523,32.531362 h 0.2406 v -0.391501 h -0.2406 z"
       style="fill:#7b7979;fill-opacity:1;fill-rule:nonzero;stroke:none;stroke-width:0.0352777"
       id="path1014" />
    <path
       d="m -172.71193,32.531362 h 0.2406 v -0.391501 h -0.2406 z"
       style="fill:#7b7979;fill-opacity:1;fill-rule:nonzero;stroke:none;stroke-width:0.0352777"
       id="path1016" />
    <path
       d="m -172.97828,32.531362 h 0.24019 v -0.391501 h -0.24019 z"
       style="fill:#7b7979;fill-opacity:1;fill-rule:nonzero;stroke:none;stroke-width:0.0352777"
       id="path1018" />
    <path
       d="m -174.04402,32.531362 h 0.24102 v -0.391501 h -0.24102 z"
       style="fill:#7b7979;fill-opacity:1;fill-rule:nonzero;stroke:none;stroke-width:0.0352777"
       id="path1020" />
    <path
       d="m -174.30966,32.531362 h 0.24033 v -0.391501 h -0.24033 z"
       style="fill:#7b7979;fill-opacity:1;fill-rule:nonzero;stroke:none;stroke-width:0.0352777"
       id="path1022" />
    <path
       d="m -174.576,32.531362 h 0.24019 v -0.391501 h -0.24019 z"
       style="fill:#7b7979;fill-opacity:1;fill-rule:nonzero;stroke:none;stroke-width:0.0352777"
       id="path1024" />
    <path
       d="m -171.38055,32.948697 h 0.24019 v -0.391639 h -0.24019 z"
       style="fill:#7b7979;fill-opacity:1;fill-rule:nonzero;stroke:none;stroke-width:0.0352777"
       id="path1026" />
    <path
       d="m -171.91289,32.948697 h 0.2406 v -0.391639 h -0.2406 z"
       style="fill:#7b7979;fill-opacity:1;fill-rule:nonzero;stroke:none;stroke-width:0.0352777"
       id="path1028" />
    <path
       d="m -172.44523,32.948697 h 0.2406 v -0.391639 h -0.2406 z"
       style="fill:#7b7979;fill-opacity:1;fill-rule:nonzero;stroke:none;stroke-width:0.0352777"
       id="path1030" />
    <path
       d="m -172.97828,32.948697 h 0.24019 v -0.391639 h -0.24019 z"
       style="fill:#7b7979;fill-opacity:1;fill-rule:nonzero;stroke:none;stroke-width:0.0352777"
       id="path1032" />
    <path
       d="m -173.51097,32.948697 h 0.2406 v -0.391639 h -0.2406 z"
       style="fill:#7b7979;fill-opacity:1;fill-rule:nonzero;stroke:none;stroke-width:0.0352777"
       id="path1034" />
    <path
       d="m -174.04402,32.948697 h 0.24102 v -0.391639 h -0.24102 z"
       style="fill:#7b7979;fill-opacity:1;fill-rule:nonzero;stroke:none;stroke-width:0.0352777"
       id="path1036" />
    <path
       d="m -174.576,32.948697 h 0.24019 v -0.391639 h -0.24019 z"
       style="fill:#7b7979;fill-opacity:1;fill-rule:nonzero;stroke:none;stroke-width:0.0352777"
       id="path1038" />
    <path
       d="m -171.38055,33.366032 h 0.24019 v -0.391501 h -0.24019 z"
       style="fill:#7b7979;fill-opacity:1;fill-rule:nonzero;stroke:none;stroke-width:0.0352777"
       id="path1040" />
    <path
       d="m -171.91289,33.366032 h 0.2406 v -0.391501 h -0.2406 z"
       style="fill:#7b7979;fill-opacity:1;fill-rule:nonzero;stroke:none;stroke-width:0.0352777"
       id="path1042" />
    <path
       d="m -172.44523,33.366032 h 0.2406 v -0.391501 h -0.2406 z"
       style="fill:#7b7979;fill-opacity:1;fill-rule:nonzero;stroke:none;stroke-width:0.0352777"
       id="path1044" />
    <path
       d="m -172.97828,33.366032 h 0.24019 v -0.391501 h -0.24019 z"
       style="fill:#7b7979;fill-opacity:1;fill-rule:nonzero;stroke:none;stroke-width:0.0352777"
       id="path1046" />
    <path
       d="m -174.04402,33.366032 h 0.24102 v -0.391501 h -0.24102 z"
       style="fill:#7b7979;fill-opacity:1;fill-rule:nonzero;stroke:none;stroke-width:0.0352777"
       id="path1048" />
    <path
       d="m -174.576,33.366032 h 0.24019 v -0.391501 h -0.24019 z"
       style="fill:#7b7979;fill-opacity:1;fill-rule:nonzero;stroke:none;stroke-width:0.0352777"
       id="path1050" />
    <path
       d="m -171.38055,33.783367 h 0.24019 v -0.391914 h -0.24019 z"
       style="fill:#7b7979;fill-opacity:1;fill-rule:nonzero;stroke:none;stroke-width:0.0352777"
       id="path1052" />
    <path
       d="m -171.91289,33.783367 h 0.2406 v -0.391914 h -0.2406 z"
       style="fill:#7b7979;fill-opacity:1;fill-rule:nonzero;stroke:none;stroke-width:0.0352777"
       id="path1054" />
    <path
       d="m -172.44523,33.783367 h 0.2406 v -0.391914 h -0.2406 z"
       style="fill:#7b7979;fill-opacity:1;fill-rule:nonzero;stroke:none;stroke-width:0.0352777"
       id="path1056" />
    <path
       d="m -172.97828,33.783367 h 0.24019 v -0.391914 h -0.24019 z"
       style="fill:#7b7979;fill-opacity:1;fill-rule:nonzero;stroke:none;stroke-width:0.0352777"
       id="path1058" />
    <path
       d="m -173.51097,33.783367 h 0.2406 v -0.391914 h -0.2406 z"
       style="fill:#7b7979;fill-opacity:1;fill-rule:nonzero;stroke:none;stroke-width:0.0352777"
       id="path1060" />
    <path
       d="m -174.04402,33.783367 h 0.24102 v -0.391914 h -0.24102 z"
       style="fill:#7b7979;fill-opacity:1;fill-rule:nonzero;stroke:none;stroke-width:0.0352777"
       id="path1062" />
    <path
       d="m -174.576,33.783367 h 0.24019 v -0.391914 h -0.24019 z"
       style="fill:#7b7979;fill-opacity:1;fill-rule:nonzero;stroke:none;stroke-width:0.0352777"
       id="path1064" />
    <path
       d="m -171.38055,34.201055 h 0.24019 v -0.391639 h -0.24019 z"
       style="fill:#7b7979;fill-opacity:1;fill-rule:nonzero;stroke:none;stroke-width:0.0352777"
       id="path1066" />
    <path
       d="m -171.6469,34.201055 h 0.24061 v -0.391639 h -0.24061 z"
       style="fill:#7b7979;fill-opacity:1;fill-rule:nonzero;stroke:none;stroke-width:0.0352777"
       id="path1068" />
    <path
       d="m -171.91289,34.201055 h 0.2406 v -0.391639 h -0.2406 z"
       style="fill:#7b7979;fill-opacity:1;fill-rule:nonzero;stroke:none;stroke-width:0.0352777"
       id="path1070" />
    <path
       d="m -172.44523,34.201055 h 0.2406 v -0.391639 h -0.2406 z"
       style="fill:#7b7979;fill-opacity:1;fill-rule:nonzero;stroke:none;stroke-width:0.0352777"
       id="path1072" />
    <path
       d="m -172.71193,34.201055 h 0.2406 v -0.391639 h -0.2406 z"
       style="fill:#7b7979;fill-opacity:1;fill-rule:nonzero;stroke:none;stroke-width:0.0352777"
       id="path1074" />
    <path
       d="m -172.97828,34.201055 h 0.24019 v -0.391639 h -0.24019 z"
       style="fill:#7b7979;fill-opacity:1;fill-rule:nonzero;stroke:none;stroke-width:0.0352777"
       id="path1076" />
    <path
       d="m -174.04402,34.201055 h 0.24102 v -0.391639 h -0.24102 z"
       style="fill:#7b7979;fill-opacity:1;fill-rule:nonzero;stroke:none;stroke-width:0.0352777"
       id="path1078" />
    <path
       d="m -174.30966,34.201055 h 0.24033 v -0.391639 h -0.24033 z"
       style="fill:#7b7979;fill-opacity:1;fill-rule:nonzero;stroke:none;stroke-width:0.0352777"
       id="path1080" />
    <path
       d="m -174.576,34.201055 h 0.24019 v -0.391639 h -0.24019 z"
       style="fill:#7b7979;fill-opacity:1;fill-rule:nonzero;stroke:none;stroke-width:0.0352777"
       id="path1082" />
    <path
       d="m -172.80683,27.751588 c 0.42263,0.342546 0.48683,0.960258 0.14464,1.382885 -0.0557,0.06985 -0.11959,0.129469 -0.19085,0.182033 l -0.0416,1.383591 -0.53481,0.368299 -0.53481,-0.368299 -0.0413,-1.383591 c -0.072,-0.05221 -0.13512,-0.112183 -0.19086,-0.18168 -0.3429,-0.42298 -0.27869,-1.040692 0.14429,-1.383591 l -0.0811,-2.65006 0.70379,-1.541988 0.70344,1.541988 z"
       style="fill:none;stroke:#ffffff;stroke-width:0.352777;stroke-linecap:round;stroke-linejoin:round;stroke-miterlimit:10;stroke-dasharray:none;stroke-opacity:1"
       id="path1084" />
    <path
       d="m -172.80683,27.751588 c 0.42263,0.342546 0.48683,0.960258 0.14464,1.382885 -0.0557,0.06985 -0.11959,0.129469 -0.19085,0.182033 l -0.0416,1.383591 -0.53481,0.368299 -0.53481,-0.368299 -0.0413,-1.383591 c -0.072,-0.05221 -0.13512,-0.112183 -0.19086,-0.18168 -0.3429,-0.42298 -0.27869,-1.040692 0.14429,-1.383591 l -0.0811,-2.65006 0.70379,-1.541988 0.70344,1.541988"
       style="fill:#4f4c4c;fill-opacity:1;fill-rule:nonzero;stroke:none;stroke-width:0.0352777"
       id="path1086" />
    <path
       d="m -172.80683,27.751588 c 0.42263,0.342546 0.48683,0.960258 0.14464,1.382885 -0.0557,0.06985 -0.11959,0.129469 -0.19085,0.182033 l -0.0416,1.383591 -0.53481,0.368299 -0.53481,-0.368299 -0.0413,-1.383591 c -0.072,-0.05221 -0.13512,-0.112183 -0.19086,-0.18168 -0.3429,-0.42298 -0.27869,-1.040692 0.14429,-1.383591 l -0.0811,-2.65006 0.70379,-1.541988 0.70344,1.541988 z"
       style="fill:none;stroke:#4f4c4c;stroke-width:0.105833;stroke-linecap:round;stroke-linejoin:round;stroke-miterlimit:10;stroke-dasharray:none;stroke-opacity:1"
       id="path1088" />
    <path
       d="m -173.94348,22.838111 0.0162,5.058115 c -0.34113,0.275166 -0.3937,0.774345 -0.11747,1.116186 0.0367,0.04833 0.0815,0.09278 0.13123,0.130175 l 0.0554,1.822798 0.42721,0.303741 0.46566,-0.304094 0.0596,-1.854195 c 0.32985,-0.288219 0.36301,-0.789867 0.0752,-1.119714 -0.0187,-0.02152 -0.0392,-0.04233 -0.0617,-0.06244 l 0.0222,-5.089513 -0.55527,-1.508826 z"
       style="fill:none;stroke:#ffffff;stroke-width:0.352777;stroke-linecap:round;stroke-linejoin:round;stroke-miterlimit:10;stroke-dasharray:none;stroke-opacity:1"
       id="path1090" />
    <path
       d="m -173.94348,22.838111 0.0162,5.058115 c -0.34113,0.275166 -0.3937,0.774345 -0.11747,1.116186 0.0367,0.04833 0.0815,0.09278 0.13123,0.130175 l 0.0554,1.822798 0.42721,0.303741 0.46566,-0.304094 0.0596,-1.854195 c 0.32985,-0.288219 0.36301,-0.789867 0.0752,-1.119714 -0.0187,-0.02152 -0.0392,-0.04233 -0.0617,-0.06244 l 0.0222,-5.089513 -0.55527,-1.508826"
       style="fill:#4f4c4c;fill-opacity:1;fill-rule:nonzero;stroke:none;stroke-width:0.0352777"
       id="path1092" />
    <path
       d="m -173.94348,22.838111 0.0162,5.058115 c -0.34113,0.275166 -0.3937,0.774345 -0.11747,1.116186 0.0367,0.04833 0.0815,0.09278 0.13123,0.130175 l 0.0554,1.822798 0.42721,0.303741 0.46566,-0.304094 0.0596,-1.854195 c 0.32985,-0.288219 0.36301,-0.789867 0.0752,-1.119714 -0.0187,-0.02152 -0.0392,-0.04233 -0.0617,-0.06244 l 0.0222,-5.089513 -0.55527,-1.508826 z"
       style="fill:none;stroke:#4f4c4c;stroke-width:0.105833;stroke-linecap:round;stroke-linejoin:round;stroke-miterlimit:10;stroke-dasharray:none;stroke-opacity:1"
       id="path1094" />
    <path
       d="m -173.16207,28.516408 c 3.5e-4,-0.14605 -0.11783,-0.264935 -0.26423,-0.264935 -0.14641,0 -0.26459,0.117827 -0.26494,0.264582 -3.5e-4,0.146403 0.11818,0.264936 0.26458,0.264936 0.1464,0 0.26494,-0.118886 0.26459,-0.264583"
       style="fill:#ffffff;fill-opacity:1;fill-rule:nonzero;stroke:none;stroke-width:0.0352777"
       id="path1096" />
    <path
       d="m -169.53024,33.171299 c 0,1.334908 -1.44532,2.417227 -3.22755,2.417227 -1.78258,0 -3.22791,-1.082319 -3.22791,-2.417227 0,-1.334908 1.44533,-2.417227 3.22791,-2.417227 1.78223,0 3.22755,1.082319 3.22755,2.417227 z"
       style="fill:none;stroke:#ffffff;stroke-width:1.5875;stroke-linecap:butt;stroke-linejoin:miter;stroke-miterlimit:4;stroke-dasharray:0.423332, 0.772581;stroke-dashoffset:0;stroke-opacity:1"
       id="path1098" />
    <path
       d="m -169.53024,33.171299 c 0,1.334908 -1.44532,2.417227 -3.22755,2.417227 -1.78258,0 -3.22791,-1.082319 -3.22791,-2.417227 0,-1.334908 1.44533,-2.417227 3.22791,-2.417227 1.78223,0 3.22755,1.082319 3.22755,2.417227 z"
       style="fill:none;stroke:#231f20;stroke-width:1.41111;stroke-linecap:butt;stroke-linejoin:miter;stroke-miterlimit:4;stroke-dasharray:0.176388, 1.02305;stroke-dashoffset:0;stroke-opacity:1"
       id="path1100" />
  </g>
</svg>
