<?xml version="1.0" encoding="UTF-8" standalone="no"?>
<!-- Created with Inkscape (http://www.inkscape.org/) -->

<svg
   width="29.754423mm"
   height="19.220743mm"
   viewBox="0 0 29.754423 19.220743"
   version="1.1"
   id="svg2399"
   inkscape:version="1.2.2 (b0a8486541, 2022-12-01)"
   sodipodi:docname="12:00.svg"
   xmlns:inkscape="http://www.inkscape.org/namespaces/inkscape"
   xmlns:sodipodi="http://sodipodi.sourceforge.net/DTD/sodipodi-0.dtd"
   xmlns="http://www.w3.org/2000/svg"
   xmlns:svg="http://www.w3.org/2000/svg">
  <sodipodi:namedview
     id="namedview2401"
     pagecolor="#ffffff"
     bordercolor="#666666"
     borderopacity="1.0"
     inkscape:showpageshadow="2"
     inkscape:pageopacity="0.0"
     inkscape:pagecheckerboard="0"
     inkscape:deskcolor="#d1d1d1"
     inkscape:document-units="mm"
     showgrid="false"
     inkscape:zoom="0.44542649"
     inkscape:cx="1111.2945"
     inkscape:cy="491.66362"
     inkscape:window-width="1366"
     inkscape:window-height="685"
     inkscape:window-x="0"
     inkscape:window-y="27"
     inkscape:window-maximized="1"
     inkscape:current-layer="layer1" />
  <defs
     id="defs2396">
    <clipPath
       clipPathUnits="userSpaceOnUse"
       id="clipPath1454">
      <path
         d="m 2704.83,467.141 h 713.695 V 824.309 H 2704.83 Z"
         id="path1452" />
    </clipPath>
    <clipPath
       clipPathUnits="userSpaceOnUse"
       id="clipPath2311">
      <path
         d="m 2704.83,467.141 h 713.695 V 824.309 H 2704.83 Z"
         id="path2309" />
    </clipPath>
    <clipPath
       clipPathUnits="userSpaceOnUse"
       id="clipPath2315">
      <path
         d="m 2704.83,467.141 h 713.695 V 824.309 H 2704.83 Z"
         id="path2313" />
    </clipPath>
  </defs>
  <g
     inkscape:label="Layer 1"
     inkscape:groupmode="layer"
     id="layer1"
     transform="translate(188.9192,-18.307629)">
    <text
       xml:space="preserve"
       transform="scale(1,-1)"
       style="font-variant:normal;font-weight:normal;font-size:0.0352777px;font-family:Arial;-inkscape-font-specification:Arial;writing-mode:lr-tb;fill:#231f20;fill-opacity:1;fill-rule:nonzero;stroke:none;stroke-width:0.352777"
       id="text1410"
       x="-188.92242"
       y="-18.310902"><tspan
         x="-188.92242 -186.52354"
         y="-18.310902"
         sodipodi:role="line"
         id="tspan1408"
         style="stroke-width:0.352777">✡✝</tspan></text>
    <text
       xml:space="preserve"
       transform="scale(1,-1)"
       style="font-variant:normal;font-weight:normal;font-size:0.0352777px;font-family:Arial;-inkscape-font-specification:Arial;writing-mode:lr-tb;fill:#231f20;fill-opacity:1;fill-rule:nonzero;stroke:none;stroke-width:0.352777"
       id="text1414"
       x="-184.05409"
       y="-18.310902"><tspan
         x="-184.05409"
         y="-18.310902"
         id="tspan1412"
         style="stroke-width:0.352777">❤</tspan></text>
    <text
       xml:space="preserve"
       transform="scale(1,-1)"
       style="font-variant:normal;font-weight:normal;font-size:0.0352777px;font-family:Arial;-inkscape-font-specification:Arial;writing-mode:lr-tb;fill:#231f20;fill-opacity:1;fill-rule:nonzero;stroke:none;stroke-width:0.352777"
       id="text1418"
       x="-181.30243"
       y="-18.346355"><tspan
         x="-181.30243"
         y="-18.346355"
         id="tspan1416"
         style="stroke-width:0.352777">✘</tspan></text>
    <text
       xml:space="preserve"
       transform="scale(1,-1)"
       style="font-variant:normal;font-weight:normal;font-size:0.0352777px;font-family:Arial;-inkscape-font-specification:Arial;writing-mode:lr-tb;fill:#231f20;fill-opacity:1;fill-rule:nonzero;stroke:none;stroke-width:0.352777"
       id="text1422"
       x="-179.04448"
       y="-18.310902"><tspan
         x="-179.04448"
         y="-18.310902"
         id="tspan1420"
         style="stroke-width:0.352777">❡</tspan></text>
    <text
       xml:space="preserve"
       transform="scale(1,-1)"
       style="font-variant:normal;font-weight:normal;font-size:0.0352777px;font-family:Arial;-inkscape-font-specification:Arial;writing-mode:lr-tb;fill:#231f20;fill-opacity:1;fill-rule:nonzero;stroke:none;stroke-width:0.352777"
       id="text1426"
       x="-176.68095"
       y="-18.310902"><tspan
         x="-176.68095"
         y="-18.310902"
         id="tspan1424"
         style="stroke-width:0.352777">✤</tspan></text>
    <text
       xml:space="preserve"
       transform="scale(1,-1)"
       style="font-variant:normal;font-weight:normal;font-size:0.0352777px;font-family:Arial;-inkscape-font-specification:Arial;writing-mode:lr-tb;fill:#231f20;fill-opacity:1;fill-rule:nonzero;stroke:none;stroke-width:0.352777"
       id="text1430"
       x="-174.2468"
       y="-18.310902"><tspan
         x="-174.2468"
         y="-18.310902"
         id="tspan1428"
         style="stroke-width:0.352777">✟</tspan></text>
    <text
       xml:space="preserve"
       transform="scale(1,-1)"
       style="font-variant:normal;font-weight:normal;font-size:0.0352777px;font-family:Arial;-inkscape-font-specification:Arial;writing-mode:lr-tb;fill:#231f20;fill-opacity:1;fill-rule:nonzero;stroke:none;stroke-width:0.352777"
       id="text1434"
       x="-171.77744"
       y="-18.310902"><tspan
         x="-171.77744"
         y="-18.310902"
         id="tspan1432"
         style="stroke-width:0.352777">✢</tspan></text>
    <text
       xml:space="preserve"
       transform="scale(1,-1)"
       style="font-variant:normal;font-weight:normal;font-size:0.0352777px;font-family:Arial;-inkscape-font-specification:Arial;writing-mode:lr-tb;fill:#231f20;fill-opacity:1;fill-rule:nonzero;stroke:none;stroke-width:0.352777"
       id="text1438"
       x="-169.30782"
       y="-18.310902"><tspan
         x="-169.30782 -166.87364 -164.40421"
         y="-18.310902"
         sodipodi:role="line"
         id="tspan1436"
         style="stroke-width:0.352777">✰✱✲</tspan></text>
    <path
       d="m -178.96509,21.318068 -0.43285,-0.194309 c 0,0 -0.35878,-0.173602 -0.66005,0.06107 -0.248,0.192651 -0.69356,0.507928 -1.42134,1.660803 -0.71508,1.157567 -0.77258,1.648279 -0.82126,1.931171 -0.0596,0.343287 0.31009,0.498862 0.31009,0.498862 l 0.43215,0.194309"
       style="fill:#9c9a9b;fill-opacity:1;fill-rule:nonzero;stroke:none;stroke-width:0.0352777"
       id="path1440" />
    <path
       d="m -164.51993,21.318068 0.43286,-0.194309 c 0,0 0.35877,-0.173602 0.66004,0.06107 0.24765,0.192651 0.69356,0.507928 1.42099,1.660803 0.71543,1.157567 0.77293,1.648279 0.82126,1.931171 0.0596,0.343287 -0.31009,0.498862 -0.31009,0.498862 l -0.4318,0.194309"
       style="fill:#9c9a9b;fill-opacity:1;fill-rule:nonzero;stroke:none;stroke-width:0.0352777"
       id="path1442" />
    <path
       d="m -178.96509,33.173877 -0.43285,0.194698 c 0,0 -0.35878,0.173636 -0.66005,-0.06089 -0.248,-0.192651 -0.69356,-0.508387 -1.42134,-1.660944 -0.71508,-1.157849 -0.77258,-1.648138 -0.82126,-1.931453 -0.0596,-0.342864 0.31009,-0.498439 0.31009,-0.498439 l 0.43215,-0.194451"
       style="fill:#9c9a9b;fill-opacity:1;fill-rule:nonzero;stroke:none;stroke-width:0.0352777"
       id="path1444" />
    <path
       d="m -164.51993,33.173877 0.43286,0.194698 c 0,0 0.35877,0.173636 0.66004,-0.06089 0.24765,-0.192651 0.69356,-0.508387 1.42099,-1.660944 0.71543,-1.157849 0.77293,-1.648138 0.82126,-1.931453 0.0596,-0.342864 -0.31009,-0.498439 -0.31009,-0.498439 l -0.4318,-0.194451"
       style="fill:#9c9a9b;fill-opacity:1;fill-rule:nonzero;stroke:none;stroke-width:0.0352777"
       id="path1446" />
    <path
       d="m 3354.93,645.719 c 0,-137.508 -131.15,-248.989 -292.95,-248.989 -161.78,0 -292.93,111.481 -292.93,248.989 0,137.511 131.15,249 292.93,249 161.8,0 292.95,-111.489 292.95,-249"
       style="fill:#ffffff;fill-opacity:1;fill-rule:nonzero;stroke:none"
       id="path1456"
       clip-path="url(#clipPath1454)"
       transform="matrix(0.03527769,0,0,-0.03527769,-279.76262,50.025712)" />
    <path
       d="m 3354.93,645.719 c 0,-137.508 -131.15,-248.989 -292.95,-248.989 -161.78,0 -292.93,111.481 -292.93,248.989 0,137.511 131.15,249 292.93,249 161.8,0 292.95,-111.489 292.95,-249 z"
       style="fill:none;stroke:#9c9a9b;stroke-width:6;stroke-linecap:butt;stroke-linejoin:miter;stroke-miterlimit:10;stroke-dasharray:none;stroke-opacity:1"
       id="path1458"
       clip-path="url(#clipPath1454)"
       transform="matrix(0.03527769,0,0,-0.03527769,-279.76262,50.025712)" />
    <path
       d="m 3331.46,645.719 c 0,-126.5 -120.64,-229.047 -269.47,-229.047 -148.82,0 -269.46,102.547 -269.46,229.047 0,126.5 120.64,229.051 269.46,229.051 148.83,0 269.47,-102.551 269.47,-229.051 z"
       style="fill:none;stroke:#9c9a9b;stroke-width:4;stroke-linecap:butt;stroke-linejoin:miter;stroke-miterlimit:10;stroke-dasharray:none;stroke-opacity:1"
       id="path1460"
       clip-path="url(#clipPath1454)"
       transform="matrix(0.03527769,0,0,-0.03527769,-279.76262,50.025712)" />
    <path
       d="m -184.36081,22.257619 c 0,0.656483 0.54045,1.197254 1.19732,1.197254 0.65617,0 1.19627,-0.540771 1.19627,-1.197254 0,-0.656482 -0.5401,-1.196266 -1.19627,-1.196266 -0.65687,0 -1.19732,0.539784 -1.19732,1.196266 m 1.19732,-1.084789 c 0.59761,0 1.08479,0.48715 1.08479,1.084789 0,0.596158 -0.48895,1.084789 -1.08479,1.084789 -0.59654,0 -1.08584,-0.488631 -1.08584,-1.084789 0,-0.597639 0.48683,-1.084789 1.08584,-1.084789 m 0.28575,1.397314 0.14217,0.414513 h 0.2092 l -0.51435,-1.420597 h -0.21907 l -0.5334,1.420597 h 0.19861 l 0.14887,-0.414513 z m -0.51011,-0.170462 0.22825,-0.623956 h 0.005 l 0.2092,0.623956"
       style="fill:#231f20;fill-opacity:1;fill-rule:nonzero;stroke:none;stroke-width:0.0352777"
       id="path1462" />
    <path
       d="m -161.55837,22.258572 c 0,0.656659 0.54045,1.196689 1.19697,1.196689 0.65687,0 1.19662,-0.54003 1.19662,-1.196689 0,-0.656483 -0.53975,-1.197219 -1.19662,-1.197219 -0.65652,0 -1.19697,0.540736 -1.19697,1.197219 m 1.19697,-1.092092 c 0.59866,0 1.08514,0.4935 1.08514,1.092092 0,0.596298 -0.48894,1.084789 -1.08514,1.084789 -0.59584,0 -1.08479,-0.488491 -1.08479,-1.084789 0,-0.598592 0.48648,-1.092092 1.08479,-1.092092 m -0.24447,1.184978 h 0.37959 c 0.15592,0 0.3309,0.0394 0.3309,0.2395 0,0.15875 -0.10019,0.258938 -0.30092,0.258938 h -0.40957 z m -0.19085,0.663961 h 0.61242 c 0.31432,0 0.48189,-0.191275 0.48189,-0.419205 0,-0.244756 -0.16545,-0.309385 -0.25859,-0.347414 0.15875,-0.07207 0.19121,-0.202565 0.19121,-0.29531 0,-0.195826 -0.13723,-0.358844 -0.40252,-0.358844 h -0.62441 z m 0.19085,-1.257755 h 0.34925 c 0.21449,0 0.29562,0.07691 0.29562,0.209867 0,0.172261 -0.11394,0.228352 -0.29774,0.228352 h -0.34713"
       style="fill:#231f20;fill-opacity:1;fill-rule:nonzero;stroke:none;stroke-width:0.0352777"
       id="path1464" />
    <path
       d="m -184.36081,32.233762 c 0,0.657188 0.54045,1.197395 1.19732,1.197395 0.65617,0 1.19627,-0.540207 1.19627,-1.197395 0,-0.656483 -0.5401,-1.19669 -1.19627,-1.19669 -0.65687,0 -1.19732,0.540207 -1.19732,1.19669 m 1.80481,-0.251213 c -0.0282,-0.237418 -0.21908,-0.46316 -0.58455,-0.46316 -0.41416,0 -0.66393,0.302612 -0.66393,0.738362 0,0.546381 0.31679,0.756389 0.64099,0.756389 0.10619,0 0.54222,-0.023 0.6216,-0.558799 h -0.18697 c -0.0653,0.330481 -0.28117,0.388337 -0.40499,0.388337 -0.35384,0 -0.47202,-0.25534 -0.47202,-0.590901 0,-0.374685 0.20885,-0.563068 0.46532,-0.563068 0.13723,0 0.34501,0.04381 0.39757,0.29284 z m -0.60749,-0.833576 c 0.59761,0 1.08479,0.486867 1.08479,1.084789 0,0.596158 -0.48895,1.085494 -1.08479,1.085494 -0.59654,0 -1.08584,-0.489336 -1.08584,-1.085494 0,-0.597922 0.48683,-1.084789 1.08584,-1.084789"
       style="fill:#231f20;fill-opacity:1;fill-rule:nonzero;stroke:none;stroke-width:0.0352777"
       id="path1466" />
    <path
       d="m -161.56084,32.233762 c 0,0.657188 0.53975,1.197395 1.19662,1.197395 0.65687,0 1.19662,-0.540207 1.19662,-1.197395 0,-0.656483 -0.53975,-1.19669 -1.19662,-1.19669 -0.65687,0 -1.19662,0.540207 -1.19662,1.19669 m 1.19662,-1.091527 c 0.59866,0 1.08514,0.493605 1.08514,1.091527 0,0.596158 -0.4893,1.085494 -1.08514,1.085494 -0.59584,0 -1.08514,-0.489336 -1.08514,-1.085494 0,-0.597922 0.48683,-1.091527 1.08514,-1.091527 m -0.48401,1.843929 h 0.56797 c 0.46567,0 0.60572,-0.412008 0.60572,-0.730883 0,-0.410244 -0.2286,-0.689714 -0.59902,-0.689714 h -0.57467 z m 0.19085,-1.257579 h 0.35842 c 0.26071,0 0.42616,0.18161 0.42616,0.538408 0,0.358704 -0.16298,0.553825 -0.4124,0.553825 h -0.37218"
       style="fill:#231f20;fill-opacity:1;fill-rule:nonzero;stroke:none;stroke-width:0.0352777"
       id="path1468" />
    <path
       d="m -165.94409,27.188382 c 0,-3.197182 -2.5908,-5.790092 -5.78378,-5.790092 -3.19792,0 -5.79507,2.59291 -5.79507,5.790092 0,3.198946 2.59715,5.791185 5.79507,5.791185 3.19298,0 5.78378,-2.592239 5.78378,-5.791185 z"
       style="fill:none;stroke:#9c9a9b;stroke-width:0.141111;stroke-linecap:round;stroke-linejoin:round;stroke-miterlimit:10;stroke-dasharray:none;stroke-opacity:1"
       id="path1470" />
    <path
       d="m -167.521,25.919055 h 0.50518 v -0.822686 h -0.50518 z"
       style="fill:#231f20;fill-opacity:1;fill-rule:nonzero;stroke:none;stroke-width:0.0352777"
       id="path1472" />
    <path
       d="m -168.08016,25.919055 h 0.5056 v -0.822686 h -0.5056 z"
       style="fill:#231f20;fill-opacity:1;fill-rule:nonzero;stroke:none;stroke-width:0.0352777"
       id="path1474" />
    <path
       d="m -168.63895,25.919055 h 0.50518 v -0.822686 h -0.50518 z"
       style="fill:#231f20;fill-opacity:1;fill-rule:nonzero;stroke:none;stroke-width:0.0352777"
       id="path1476" />
    <path
       d="m -169.75726,25.919055 h 0.50519 v -0.822686 h -0.50519 z"
       style="fill:#231f20;fill-opacity:1;fill-rule:nonzero;stroke:none;stroke-width:0.0352777"
       id="path1478" />
    <path
       d="m -170.31711,25.919055 h 0.50518 v -0.822686 h -0.50518 z"
       style="fill:#231f20;fill-opacity:1;fill-rule:nonzero;stroke:none;stroke-width:0.0352777"
       id="path1480" />
    <path
       d="m -170.87591,25.919055 h 0.50518 v -0.822686 h -0.50518 z"
       style="fill:#231f20;fill-opacity:1;fill-rule:nonzero;stroke:none;stroke-width:0.0352777"
       id="path1482" />
    <path
       d="m -173.11358,25.919055 h 0.5056 v -0.822686 h -0.5056 z"
       style="fill:#7b7979;fill-opacity:1;fill-rule:nonzero;stroke:none;stroke-width:0.0352777"
       id="path1484" />
    <path
       d="m -173.67238,25.919055 h 0.50519 v -0.822686 h -0.50519 z"
       style="fill:#7b7979;fill-opacity:1;fill-rule:nonzero;stroke:none;stroke-width:0.0352777"
       id="path1486" />
    <path
       d="m -174.23117,25.919055 h 0.50518 v -0.822686 h -0.50518 z"
       style="fill:#7b7979;fill-opacity:1;fill-rule:nonzero;stroke:none;stroke-width:0.0352777"
       id="path1488" />
    <path
       d="m -175.35018,25.919055 h 0.50546 v -0.822686 h -0.50546 z"
       style="fill:#7b7979;fill-opacity:1;fill-rule:nonzero;stroke:none;stroke-width:0.0352777"
       id="path1490" />
    <path
       d="m -167.521,26.796447 h 0.50518 V 25.97376 h -0.50518 z"
       style="fill:#231f20;fill-opacity:1;fill-rule:nonzero;stroke:none;stroke-width:0.0352777"
       id="path1492" />
    <path
       d="m -168.63895,26.796447 h 0.50518 V 25.97376 h -0.50518 z"
       style="fill:#231f20;fill-opacity:1;fill-rule:nonzero;stroke:none;stroke-width:0.0352777"
       id="path1494" />
    <path
       d="m -169.75726,26.796447 h 0.50519 V 25.97376 h -0.50519 z"
       style="fill:#231f20;fill-opacity:1;fill-rule:nonzero;stroke:none;stroke-width:0.0352777"
       id="path1496" />
    <path
       d="m -170.87591,26.796447 h 0.50518 V 25.97376 h -0.50518 z"
       style="fill:#231f20;fill-opacity:1;fill-rule:nonzero;stroke:none;stroke-width:0.0352777"
       id="path1498" />
    <path
       d="m -171.99492,26.796447 h 0.50629 V 25.97376 h -0.50629 z"
       style="fill:#231f20;fill-opacity:1;fill-rule:nonzero;stroke:none;stroke-width:0.0352777"
       id="path1500" />
    <path
       d="m -173.11358,26.796447 h 0.5056 V 25.97376 h -0.5056 z"
       style="fill:#7b7979;fill-opacity:1;fill-rule:nonzero;stroke:none;stroke-width:0.0352777"
       id="path1502" />
    <path
       d="m -175.35018,26.796447 h 0.50546 V 25.97376 h -0.50546 z"
       style="fill:#7b7979;fill-opacity:1;fill-rule:nonzero;stroke:none;stroke-width:0.0352777"
       id="path1504" />
    <path
       d="m -175.91321,26.796447 h 0.50697 V 25.97376 h -0.50697 z"
       style="fill:#7b7979;fill-opacity:1;fill-rule:nonzero;stroke:none;stroke-width:0.0352777"
       id="path1506" />
    <path
       d="m -167.521,27.672074 h 0.50518 v -0.821998 h -0.50518 z"
       style="fill:#231f20;fill-opacity:1;fill-rule:nonzero;stroke:none;stroke-width:0.0352777"
       id="path1508" />
    <path
       d="m -168.63895,27.672074 h 0.50518 v -0.821998 h -0.50518 z"
       style="fill:#231f20;fill-opacity:1;fill-rule:nonzero;stroke:none;stroke-width:0.0352777"
       id="path1510" />
    <path
       d="m -169.75726,27.672074 h 0.50519 v -0.821998 h -0.50519 z"
       style="fill:#231f20;fill-opacity:1;fill-rule:nonzero;stroke:none;stroke-width:0.0352777"
       id="path1512" />
    <path
       d="m -170.87591,27.672074 h 0.50518 v -0.821998 h -0.50518 z"
       style="fill:#231f20;fill-opacity:1;fill-rule:nonzero;stroke:none;stroke-width:0.0352777"
       id="path1514" />
    <path
       d="m -173.11358,27.672074 h 0.5056 v -0.821998 h -0.5056 z"
       style="fill:#7b7979;fill-opacity:1;fill-rule:nonzero;stroke:none;stroke-width:0.0352777"
       id="path1516" />
    <path
       d="m -173.67238,27.672074 h 0.50519 v -0.821998 h -0.50519 z"
       style="fill:#7b7979;fill-opacity:1;fill-rule:nonzero;stroke:none;stroke-width:0.0352777"
       id="path1518" />
    <path
       d="m -174.23117,27.672074 h 0.50518 v -0.821998 h -0.50518 z"
       style="fill:#7b7979;fill-opacity:1;fill-rule:nonzero;stroke:none;stroke-width:0.0352777"
       id="path1520" />
    <path
       d="m -175.35018,27.672074 h 0.50546 v -0.821998 h -0.50546 z"
       style="fill:#7b7979;fill-opacity:1;fill-rule:nonzero;stroke:none;stroke-width:0.0352777"
       id="path1522" />
    <path
       d="m -167.521,28.549325 h 0.50518 v -0.822687 h -0.50518 z"
       style="fill:#231f20;fill-opacity:1;fill-rule:nonzero;stroke:none;stroke-width:0.0352777"
       id="path1524" />
    <path
       d="m -168.63895,28.549325 h 0.50518 v -0.822687 h -0.50518 z"
       style="fill:#231f20;fill-opacity:1;fill-rule:nonzero;stroke:none;stroke-width:0.0352777"
       id="path1526" />
    <path
       d="m -169.75726,28.549325 h 0.50519 v -0.822687 h -0.50519 z"
       style="fill:#231f20;fill-opacity:1;fill-rule:nonzero;stroke:none;stroke-width:0.0352777"
       id="path1528" />
    <path
       d="m -170.87591,28.549325 h 0.50518 v -0.822687 h -0.50518 z"
       style="fill:#231f20;fill-opacity:1;fill-rule:nonzero;stroke:none;stroke-width:0.0352777"
       id="path1530" />
    <path
       d="m -171.99492,28.549325 h 0.50629 v -0.822687 h -0.50629 z"
       style="fill:#231f20;fill-opacity:1;fill-rule:nonzero;stroke:none;stroke-width:0.0352777"
       id="path1532" />
    <path
       d="m -174.23117,28.549325 h 0.50518 v -0.822687 h -0.50518 z"
       style="fill:#7b7979;fill-opacity:1;fill-rule:nonzero;stroke:none;stroke-width:0.0352777"
       id="path1534" />
    <path
       d="m -175.35018,28.549325 h 0.50546 v -0.822687 h -0.50546 z"
       style="fill:#7b7979;fill-opacity:1;fill-rule:nonzero;stroke:none;stroke-width:0.0352777"
       id="path1536" />
    <path
       d="m -167.521,29.425622 h 0.50518 v -0.82186 h -0.50518 z"
       style="fill:#231f20;fill-opacity:1;fill-rule:nonzero;stroke:none;stroke-width:0.0352777"
       id="path1538" />
    <path
       d="m -168.08016,29.425622 h 0.5056 v -0.82186 h -0.5056 z"
       style="fill:#231f20;fill-opacity:1;fill-rule:nonzero;stroke:none;stroke-width:0.0352777"
       id="path1540" />
    <path
       d="m -168.63895,29.425622 h 0.50518 v -0.82186 h -0.50518 z"
       style="fill:#231f20;fill-opacity:1;fill-rule:nonzero;stroke:none;stroke-width:0.0352777"
       id="path1542" />
    <path
       d="m -169.75726,29.425622 h 0.50519 v -0.82186 h -0.50519 z"
       style="fill:#231f20;fill-opacity:1;fill-rule:nonzero;stroke:none;stroke-width:0.0352777"
       id="path1544" />
    <path
       d="m -170.31711,29.425622 h 0.50518 v -0.82186 h -0.50518 z"
       style="fill:#231f20;fill-opacity:1;fill-rule:nonzero;stroke:none;stroke-width:0.0352777"
       id="path1546" />
    <path
       d="m -170.87591,29.425622 h 0.50518 v -0.82186 h -0.50518 z"
       style="fill:#231f20;fill-opacity:1;fill-rule:nonzero;stroke:none;stroke-width:0.0352777"
       id="path1548" />
    <path
       d="m -173.11358,29.425622 h 0.5056 v -0.82186 h -0.5056 z"
       style="fill:#7b7979;fill-opacity:1;fill-rule:nonzero;stroke:none;stroke-width:0.0352777"
       id="path1550" />
    <path
       d="m -173.67238,29.425622 h 0.50519 v -0.82186 h -0.50519 z"
       style="fill:#7b7979;fill-opacity:1;fill-rule:nonzero;stroke:none;stroke-width:0.0352777"
       id="path1552" />
    <path
       d="m -174.23117,29.425622 h 0.50518 v -0.82186 h -0.50518 z"
       style="fill:#7b7979;fill-opacity:1;fill-rule:nonzero;stroke:none;stroke-width:0.0352777"
       id="path1554" />
    <path
       d="m -175.35018,29.425622 h 0.50546 v -0.82186 h -0.50546 z"
       style="fill:#7b7979;fill-opacity:1;fill-rule:nonzero;stroke:none;stroke-width:0.0352777"
       id="path1556" />
    <path
       d="m -171.37615,29.762948 c -0.65087,0.628648 -1.53458,1.015186 -2.50754,1.015186 -1.99954,0 -3.6202,-1.630747 -3.6202,-3.641575 0,-2.010828 1.62066,-3.641751 3.6202,-3.641751 1.05657,0 2.00695,0.45547 2.66841,1.181414"
       style="fill:none;stroke:#ffffff;stroke-width:1.5875;stroke-linecap:butt;stroke-linejoin:miter;stroke-miterlimit:4;stroke-dasharray:0.423332, 0.772581;stroke-dashoffset:0;stroke-opacity:1"
       id="path1558" />
    <path
       d="m -171.46576,29.846873 c -0.64064,0.578907 -1.48836,0.931261 -2.41793,0.931261 -1.99919,0 -3.61984,-1.630747 -3.61984,-3.641575 0,-2.010828 1.62065,-3.641751 3.61984,-3.641751 1.03293,0 1.96462,0.435326 2.62396,1.132766"
       style="fill:none;stroke:#231f20;stroke-width:1.41111;stroke-linecap:butt;stroke-linejoin:miter;stroke-miterlimit:4;stroke-dasharray:0.176388, 1.02305;stroke-dashoffset:0;stroke-opacity:1"
       id="path1560" />
    <text
       xml:space="preserve"
       transform="scale(1,-1)"
       style="font-variant:normal;font-weight:normal;font-size:0.0352777px;font-family:Arial;-inkscape-font-specification:Arial;writing-mode:lr-tb;fill:#231f20;fill-opacity:1;fill-rule:nonzero;stroke:none;stroke-width:0.352777"
       id="text1566"
       x="-175.16409"
       y="-37.50219"><tspan
         x="-175.16409"
         y="-37.50219"
         id="tspan1564"
         style="stroke-width:0.352777">✤</tspan></text>
    <path
       d="m -174.06925,30.124826 v 4.775576"
       style="fill:none;stroke:#ffffff;stroke-width:0.423332;stroke-linecap:round;stroke-linejoin:round;stroke-miterlimit:4;stroke-dasharray:none;stroke-opacity:1"
       id="path1568" />
    <path
       d="m -174.06925,30.124826 v 4.775576"
       style="fill:none;stroke:#231f20;stroke-width:0.0881942;stroke-linecap:round;stroke-linejoin:round;stroke-miterlimit:4;stroke-dasharray:none;stroke-opacity:1"
       id="path1570" />
  </g>
</svg>
