<?xml version="1.0" encoding="UTF-8" standalone="no"?>
<!-- Created with Inkscape (http://www.inkscape.org/) -->

<svg
   width="28.813402mm"
   height="16.618017mm"
   viewBox="0 0 28.813402 16.618017"
   version="1.1"
   id="svg487"
   inkscape:version="1.2.2 (b0a8486541, 2022-12-01)"
   sodipodi:docname="14:59.svg"
   xmlns:inkscape="http://www.inkscape.org/namespaces/inkscape"
   xmlns:sodipodi="http://sodipodi.sourceforge.net/DTD/sodipodi-0.dtd"
   xmlns="http://www.w3.org/2000/svg"
   xmlns:svg="http://www.w3.org/2000/svg">
  <sodipodi:namedview
     id="namedview489"
     pagecolor="#ffffff"
     bordercolor="#666666"
     borderopacity="1.0"
     inkscape:showpageshadow="2"
     inkscape:pageopacity="0.0"
     inkscape:pagecheckerboard="0"
     inkscape:deskcolor="#d1d1d1"
     inkscape:document-units="mm"
     showgrid="false"
     inkscape:zoom="0.44542649"
     inkscape:cx="1118.0296"
     inkscape:cy="536.56441"
     inkscape:window-width="1366"
     inkscape:window-height="685"
     inkscape:window-x="0"
     inkscape:window-y="27"
     inkscape:window-maximized="1"
     inkscape:current-layer="layer1" />
  <defs
     id="defs484">
    <clipPath
       clipPathUnits="userSpaceOnUse"
       id="clipPath276">
      <path
         d="m 777.52,1375.24 h 713.699 v 357.172 H 777.52 Z"
         id="path274" />
    </clipPath>
    <clipPath
       clipPathUnits="userSpaceOnUse"
       id="clipPath414">
      <path
         d="m 777.52,1375.24 h 713.699 v 357.172 H 777.52 Z"
         id="path412" />
    </clipPath>
    <clipPath
       clipPathUnits="userSpaceOnUse"
       id="clipPath418">
      <path
         d="m 777.52,1375.24 h 713.699 v 357.172 H 777.52 Z"
         id="path416" />
    </clipPath>
  </defs>
  <g
     inkscape:label="Layer 1"
     inkscape:groupmode="layer"
     id="layer1"
     transform="translate(190.8247,-6.5409905)">
    <text
       xml:space="preserve"
       transform="scale(1,-1)"
       style="font-variant:normal;font-weight:normal;font-size:0.0352777px;font-family:Arial;-inkscape-font-specification:Arial;writing-mode:lr-tb;fill:#231f20;fill-opacity:1;fill-rule:nonzero;stroke:none;stroke-width:0.352777"
       id="text248"
       x="-164.15463"
       y="-21.618984"><tspan
         x="-164.15463 -162.03798"
         y="-21.618984"
         sodipodi:role="line"
         id="tspan246"
         style="stroke-width:0.352777">✿✼</tspan></text>
    <path
       d="m -185.42902,6.9132407 -0.43282,-0.1943801 c 0,0 -0.3587,-0.1735662 -0.66008,0.06103 -0.24793,0.1926162 -0.69356,0.5079988 -1.4213,1.6608737 -0.71508,1.157461 -0.77255,1.6481737 -0.82134,1.9311007 -0.0595,0.343252 0.3102,0.498827 0.3102,0.498827 l 0.43215,0.19438"
       style="fill:#9c9a9b;fill-opacity:1;fill-rule:nonzero;stroke:none;stroke-width:0.0352777"
       id="path262" />
    <path
       d="m -170.98383,6.9132407 0.43286,-0.1943801 c 0,0 0.35877,-0.1735662 0.66005,0.06103 0.24765,0.1926162 0.69356,0.5079988 1.42098,1.6608737 0.71543,1.157461 0.77294,1.6481737 0.82127,1.9311007 0.0596,0.343252 -0.31009,0.498827 -0.31009,0.498827 l -0.4318,0.19438"
       style="fill:#9c9a9b;fill-opacity:1;fill-rule:nonzero;stroke:none;stroke-width:0.0352777"
       id="path264" />
    <path
       d="m -185.42902,18.769014 -0.43282,0.194733 c 0,0 -0.3587,0.173566 -0.66008,-0.06103 -0.24793,-0.192616 -0.69356,-0.508351 -1.4213,-1.660873 -0.71508,-1.157814 -0.77255,-1.648174 -0.82134,-1.931454 -0.0595,-0.342899 0.3102,-0.498474 0.3102,-0.498474 l 0.43215,-0.19438"
       style="fill:#9c9a9b;fill-opacity:1;fill-rule:nonzero;stroke:none;stroke-width:0.0352777"
       id="path266" />
    <path
       d="m -170.98383,18.769014 0.43286,0.194733 c 0,0 0.35877,0.173566 0.66005,-0.06103 0.24765,-0.192616 0.69356,-0.508351 1.42098,-1.660873 0.71543,-1.157814 0.77294,-1.648174 0.82127,-1.931454 0.0596,-0.342899 -0.31009,-0.498474 -0.31009,-0.498474 l -0.4318,-0.19438"
       style="fill:#9c9a9b;fill-opacity:1;fill-rule:nonzero;stroke:none;stroke-width:0.0352777"
       id="path268" />
    <path
       d="m 1427.63,1553.82 c 0,-137.51 -131.15,-248.99 -292.95,-248.99 -161.782,0 -292.93,111.48 -292.93,248.99 0,137.51 131.148,249 292.93,249 161.8,0 292.95,-111.49 292.95,-249"
       style="fill:#ffffff;fill-opacity:1;fill-rule:nonzero;stroke:none"
       id="path278"
       clip-path="url(#clipPath276)"
       transform="matrix(0.03527769,0,0,-0.03527769,-218.23547,67.656484)" />
    <path
       d="m 1427.63,1553.82 c 0,-137.51 -131.15,-248.99 -292.95,-248.99 -161.782,0 -292.93,111.48 -292.93,248.99 0,137.51 131.148,249 292.93,249 161.8,0 292.95,-111.49 292.95,-249 z"
       style="fill:none;stroke:#9c9a9b;stroke-width:6;stroke-linecap:butt;stroke-linejoin:miter;stroke-miterlimit:10;stroke-dasharray:none;stroke-opacity:1"
       id="path280"
       clip-path="url(#clipPath276)"
       transform="matrix(0.03527769,0,0,-0.03527769,-218.23547,67.656484)" />
    <path
       d="m 1404.15,1553.82 c 0,-126.5 -120.64,-229.05 -269.47,-229.05 -148.821,0 -269.461,102.55 -269.461,229.05 0,126.5 120.64,229.05 269.461,229.05 148.83,0 269.47,-102.55 269.47,-229.05 z"
       style="fill:none;stroke:#9c9a9b;stroke-width:4;stroke-linecap:butt;stroke-linejoin:miter;stroke-miterlimit:10;stroke-dasharray:none;stroke-opacity:1"
       id="path282"
       clip-path="url(#clipPath276)"
       transform="matrix(0.03527769,0,0,-0.03527769,-218.23547,67.656484)" />
    <path
       d="m -190.8247,7.8526856 c 0,0.6565178 0.54045,1.1973248 1.19736,1.1973248 0.65609,0 1.1963,-0.540807 1.1963,-1.1973248 0,-0.6565178 -0.54021,-1.1962665 -1.1963,-1.1962665 -0.65691,0 -1.19736,0.5397487 -1.19736,1.1962665 m 1.19736,-1.084789 c 0.59753,0 1.08478,0.4871849 1.08478,1.084789 0,0.5961929 -0.48905,1.0847889 -1.08478,1.0847889 -0.59655,0 -1.08589,-0.488596 -1.08589,-1.0847889 0,-0.5976041 0.48687,-1.084789 1.08589,-1.084789 m 0.28567,1.3973493 0.14221,0.4145129 h 0.2092 l -0.51428,-1.4206326 h -0.21911 l -0.53344,1.4206326 h 0.19858 l 0.14894,-0.4145129 z m -0.51015,-0.1703912 0.22836,-0.6240624 h 0.005 l 0.2092,0.6240624"
       style="fill:#231f20;fill-opacity:1;fill-rule:nonzero;stroke:none;stroke-width:0.0352777"
       id="path284" />
    <path
       d="m -168.02226,7.8537439 c 0,0.6565178 0.54045,1.1966193 1.19697,1.1966193 0.65687,0 1.19662,-0.5401015 1.19662,-1.1966193 0,-0.6565178 -0.53975,-1.1973248 -1.19662,-1.1973248 -0.65652,0 -1.19697,0.540807 -1.19697,1.1973248 m 1.19697,-1.0921973 c 0.59866,0 1.08514,0.4935349 1.08514,1.0921973 0,0.596193 -0.48895,1.084789 -1.08514,1.084789 -0.59584,0 -1.08479,-0.488596 -1.08479,-1.084789 0,-0.5986624 0.48648,-1.0921973 1.08479,-1.0921973 m -0.24448,1.1849776 h 0.37959 c 0.15593,0 0.33091,0.039511 0.33091,0.2395356 0,0.1587496 -0.10019,0.2589382 -0.30092,0.2589382 h -0.40958 z m -0.19085,0.6639262 h 0.61242 c 0.31433,0 0.48189,-0.1912051 0.48189,-0.419099 0,-0.2448272 -0.16545,-0.3093853 -0.25858,-0.3474852 0.15875,-0.071967 0.1912,-0.202494 0.1912,-0.2952743 0,-0.1957912 -0.13723,-0.3587741 -0.40251,-0.3587741 h -0.62442 z m 0.19085,-1.2576497 h 0.34925 c 0.21449,0 0.29563,0.076905 0.29563,0.2099023 0,0.1721551 -0.11395,0.2282466 -0.29774,0.2282466 h -0.34714"
       style="fill:#231f20;fill-opacity:1;fill-rule:nonzero;stroke:none;stroke-width:0.0352777"
       id="path286" />
    <path
       d="m -190.8247,17.828864 c 0,0.657223 0.54045,1.197324 1.19736,1.197324 0.65609,0 1.1963,-0.540101 1.1963,-1.197324 0,-0.656518 -0.54021,-1.19662 -1.1963,-1.19662 -0.65691,0 -1.19736,0.540102 -1.19736,1.19662 m 1.8048,-0.251178 c -0.0283,-0.237418 -0.21911,-0.463196 -0.58455,-0.463196 -0.41409,0 -0.66393,0.302683 -0.66393,0.738362 0,0.546452 0.3168,0.756354 0.64104,0.756354 0.10611,0 0.54214,-0.02293 0.62152,-0.558799 h -0.18687 c -0.0653,0.330552 -0.28127,0.388408 -0.40502,0.388408 -0.35387,0 -0.47212,-0.255411 -0.47212,-0.590902 0,-0.374649 0.20891,-0.563031 0.46538,-0.563031 0.13723,0 0.34505,0.04374 0.39754,0.292804 z m -0.60744,-0.833611 c 0.59753,0 1.08478,0.486832 1.08478,1.084789 0,0.596192 -0.48905,1.085494 -1.08478,1.085494 -0.59655,0 -1.08589,-0.489302 -1.08589,-1.085494 0,-0.597957 0.48687,-1.084789 1.08589,-1.084789"
       style="fill:#231f20;fill-opacity:1;fill-rule:nonzero;stroke:none;stroke-width:0.0352777"
       id="path288" />
    <path
       d="m -168.02473,17.828864 c 0,0.657223 0.53974,1.197324 1.19662,1.197324 0.65687,0 1.19661,-0.540101 1.19661,-1.197324 0,-0.656518 -0.53974,-1.19662 -1.19661,-1.19662 -0.65688,0 -1.19662,0.540102 -1.19662,1.19662 m 1.19662,-1.091492 c 0.59866,0 1.08514,0.493535 1.08514,1.091492 0,0.596192 -0.4893,1.085494 -1.08514,1.085494 -0.59584,0 -1.08515,-0.489302 -1.08515,-1.085494 0,-0.597957 0.48684,-1.091492 1.08515,-1.091492 m -0.48401,1.843965 h 0.56797 c 0.46566,0 0.60571,-0.412044 0.60571,-0.730954 0,-0.41028 -0.2286,-0.689679 -0.59901,-0.689679 h -0.57467 z m 0.19085,-1.25765 h 0.35842 c 0.2607,0 0.42615,0.18168 0.42615,0.538338 0,0.358774 -0.16298,0.553859 -0.41239,0.553859 h -0.37218"
       style="fill:#231f20;fill-opacity:1;fill-rule:nonzero;stroke:none;stroke-width:0.0352777"
       id="path290" />
    <path
       d="m -172.40799,12.783448 c 0,-3.1972167 -2.59079,-5.7901269 -5.78377,-5.7901269 -3.19793,0 -5.795,2.5929102 -5.795,5.7901269 0,3.198981 2.59707,5.791186 5.795,5.791186 3.19298,0 5.78377,-2.592205 5.78377,-5.791186 z"
       style="fill:none;stroke:#9c9a9b;stroke-width:0.141111;stroke-linecap:round;stroke-linejoin:round;stroke-miterlimit:10;stroke-dasharray:none;stroke-opacity:1"
       id="path292" />
    <path
       d="m -173.9849,11.514157 h 0.50519 v -0.822686 h -0.50519 z"
       style="fill:#231f20;fill-opacity:1;fill-rule:nonzero;stroke:none;stroke-width:0.0352777"
       id="path294" />
    <path
       d="m -174.54405,11.514157 h 0.50546 v -0.822686 h -0.50546 z"
       style="fill:#231f20;fill-opacity:1;fill-rule:nonzero;stroke:none;stroke-width:0.0352777"
       id="path296" />
    <path
       d="m -175.10285,11.514157 h 0.50519 v -0.822686 h -0.50519 z"
       style="fill:#231f20;fill-opacity:1;fill-rule:nonzero;stroke:none;stroke-width:0.0352777"
       id="path298" />
    <path
       d="m -176.22115,11.514157 h 0.50518 v -0.822686 h -0.50518 z"
       style="fill:#231f20;fill-opacity:1;fill-rule:nonzero;stroke:none;stroke-width:0.0352777"
       id="path300" />
    <path
       d="m -176.78101,11.514157 h 0.50519 v -0.822686 h -0.50519 z"
       style="fill:#231f20;fill-opacity:1;fill-rule:nonzero;stroke:none;stroke-width:0.0352777"
       id="path302" />
    <path
       d="m -177.33981,11.514157 h 0.50519 v -0.822686 h -0.50519 z"
       style="fill:#231f20;fill-opacity:1;fill-rule:nonzero;stroke:none;stroke-width:0.0352777"
       id="path304" />
    <path
       d="m -178.45882,11.514157 h 0.50616 v -0.822686 h -0.50616 z"
       style="fill:#231f20;fill-opacity:1;fill-rule:nonzero;stroke:none;stroke-width:0.0352777"
       id="path306" />
    <path
       d="m -179.57747,11.514157 h 0.50546 v -0.822686 h -0.50546 z"
       style="fill:#231f20;fill-opacity:1;fill-rule:nonzero;stroke:none;stroke-width:0.0352777"
       id="path308" />
    <path
       d="m -180.69507,11.514157 h 0.50519 v -0.822686 h -0.50519 z"
       style="fill:#231f20;fill-opacity:1;fill-rule:nonzero;stroke:none;stroke-width:0.0352777"
       id="path310" />
    <path
       d="m -181.81408,11.514157 h 0.50546 v -0.822686 h -0.50546 z"
       style="fill:#231f20;fill-opacity:1;fill-rule:nonzero;stroke:none;stroke-width:0.0352777"
       id="path312" />
    <path
       d="m -173.9849,12.391513 h 0.50519 v -0.822686 h -0.50519 z"
       style="fill:#231f20;fill-opacity:1;fill-rule:nonzero;stroke:none;stroke-width:0.0352777"
       id="path314" />
    <path
       d="m -175.10285,12.391513 h 0.50519 v -0.822686 h -0.50519 z"
       style="fill:#231f20;fill-opacity:1;fill-rule:nonzero;stroke:none;stroke-width:0.0352777"
       id="path316" />
    <path
       d="m -177.33981,12.391513 h 0.50519 v -0.822686 h -0.50519 z"
       style="fill:#231f20;fill-opacity:1;fill-rule:nonzero;stroke:none;stroke-width:0.0352777"
       id="path318" />
    <path
       d="m -178.45882,12.391513 h 0.50616 v -0.822686 h -0.50616 z"
       style="fill:#231f20;fill-opacity:1;fill-rule:nonzero;stroke:none;stroke-width:0.0352777"
       id="path320" />
    <path
       d="m -179.57747,12.391513 h 0.50546 v -0.822686 h -0.50546 z"
       style="fill:#231f20;fill-opacity:1;fill-rule:nonzero;stroke:none;stroke-width:0.0352777"
       id="path322" />
    <path
       d="m -180.69507,12.391513 h 0.50519 v -0.822686 h -0.50519 z"
       style="fill:#231f20;fill-opacity:1;fill-rule:nonzero;stroke:none;stroke-width:0.0352777"
       id="path324" />
    <path
       d="m -181.81408,12.391513 h 0.50546 v -0.822686 h -0.50546 z"
       style="fill:#231f20;fill-opacity:1;fill-rule:nonzero;stroke:none;stroke-width:0.0352777"
       id="path326" />
    <path
       d="m -182.37711,12.391513 h 0.50684 v -0.822686 h -0.50684 z"
       style="fill:#231f20;fill-opacity:1;fill-rule:nonzero;stroke:none;stroke-width:0.0352777"
       id="path328" />
    <path
       d="m -173.9849,13.267105 h 0.50519 v -0.821998 h -0.50519 z"
       style="fill:#231f20;fill-opacity:1;fill-rule:nonzero;stroke:none;stroke-width:0.0352777"
       id="path330" />
    <path
       d="m -174.54405,13.267105 h 0.50546 v -0.821998 h -0.50546 z"
       style="fill:#231f20;fill-opacity:1;fill-rule:nonzero;stroke:none;stroke-width:0.0352777"
       id="path332" />
    <path
       d="m -175.10285,13.267105 h 0.50519 v -0.821998 h -0.50519 z"
       style="fill:#231f20;fill-opacity:1;fill-rule:nonzero;stroke:none;stroke-width:0.0352777"
       id="path334" />
    <path
       d="m -176.22115,13.267105 h 0.50518 v -0.821998 h -0.50518 z"
       style="fill:#231f20;fill-opacity:1;fill-rule:nonzero;stroke:none;stroke-width:0.0352777"
       id="path336" />
    <path
       d="m -176.78101,13.267105 h 0.50519 v -0.821998 h -0.50519 z"
       style="fill:#231f20;fill-opacity:1;fill-rule:nonzero;stroke:none;stroke-width:0.0352777"
       id="path338" />
    <path
       d="m -177.33981,13.267105 h 0.50519 v -0.821998 h -0.50519 z"
       style="fill:#231f20;fill-opacity:1;fill-rule:nonzero;stroke:none;stroke-width:0.0352777"
       id="path340" />
    <path
       d="m -179.57747,13.267105 h 0.50546 v -0.821998 h -0.50546 z"
       style="fill:#231f20;fill-opacity:1;fill-rule:nonzero;stroke:none;stroke-width:0.0352777"
       id="path342" />
    <path
       d="m -180.13627,13.267105 h 0.50519 v -0.821998 h -0.50519 z"
       style="fill:#231f20;fill-opacity:1;fill-rule:nonzero;stroke:none;stroke-width:0.0352777"
       id="path344" />
    <path
       d="m -180.69507,13.267105 h 0.50519 v -0.821998 h -0.50519 z"
       style="fill:#231f20;fill-opacity:1;fill-rule:nonzero;stroke:none;stroke-width:0.0352777"
       id="path346" />
    <path
       d="m -181.81408,13.267105 h 0.50546 v -0.821998 h -0.50546 z"
       style="fill:#231f20;fill-opacity:1;fill-rule:nonzero;stroke:none;stroke-width:0.0352777"
       id="path348" />
    <path
       d="m -173.9849,14.144462 h 0.50519 v -0.822687 h -0.50519 z"
       style="fill:#231f20;fill-opacity:1;fill-rule:nonzero;stroke:none;stroke-width:0.0352777"
       id="path350" />
    <path
       d="m -176.22115,14.144462 h 0.50518 v -0.822687 h -0.50518 z"
       style="fill:#231f20;fill-opacity:1;fill-rule:nonzero;stroke:none;stroke-width:0.0352777"
       id="path352" />
    <path
       d="m -179.57747,14.144462 h 0.50546 v -0.822687 h -0.50546 z"
       style="fill:#231f20;fill-opacity:1;fill-rule:nonzero;stroke:none;stroke-width:0.0352777"
       id="path354" />
    <path
       d="m -181.81408,14.144462 h 0.50546 v -0.822687 h -0.50546 z"
       style="fill:#231f20;fill-opacity:1;fill-rule:nonzero;stroke:none;stroke-width:0.0352777"
       id="path356" />
    <path
       d="m -173.9849,15.020759 h 0.50519 v -0.821998 h -0.50519 z"
       style="fill:#231f20;fill-opacity:1;fill-rule:nonzero;stroke:none;stroke-width:0.0352777"
       id="path358" />
    <path
       d="m -174.54405,15.020759 h 0.50546 v -0.821998 h -0.50546 z"
       style="fill:#231f20;fill-opacity:1;fill-rule:nonzero;stroke:none;stroke-width:0.0352777"
       id="path360" />
    <path
       d="m -175.10285,15.020759 h 0.50519 v -0.821998 h -0.50519 z"
       style="fill:#231f20;fill-opacity:1;fill-rule:nonzero;stroke:none;stroke-width:0.0352777"
       id="path362" />
    <path
       d="m -176.22115,15.020759 h 0.50518 v -0.821998 h -0.50518 z"
       style="fill:#231f20;fill-opacity:1;fill-rule:nonzero;stroke:none;stroke-width:0.0352777"
       id="path364" />
    <path
       d="m -176.78101,15.020759 h 0.50519 v -0.821998 h -0.50519 z"
       style="fill:#231f20;fill-opacity:1;fill-rule:nonzero;stroke:none;stroke-width:0.0352777"
       id="path366" />
    <path
       d="m -177.33981,15.020759 h 0.50519 v -0.821998 h -0.50519 z"
       style="fill:#231f20;fill-opacity:1;fill-rule:nonzero;stroke:none;stroke-width:0.0352777"
       id="path368" />
    <path
       d="m -179.57747,15.020759 h 0.50546 v -0.821998 h -0.50546 z"
       style="fill:#231f20;fill-opacity:1;fill-rule:nonzero;stroke:none;stroke-width:0.0352777"
       id="path370" />
    <path
       d="m -181.81408,15.020759 h 0.50546 v -0.821998 h -0.50546 z"
       style="fill:#231f20;fill-opacity:1;fill-rule:nonzero;stroke:none;stroke-width:0.0352777"
       id="path372" />
    <text
       xml:space="preserve"
       transform="scale(1,-1)"
       style="font-variant:normal;font-weight:normal;font-size:0.0352777px;font-family:Arial;-inkscape-font-specification:Arial;writing-mode:lr-tb;fill:#231f20;fill-opacity:1;fill-rule:nonzero;stroke:none;stroke-width:0.352777"
       id="text378"
       x="-181.58195"
       y="-23.135839"><tspan
         x="-181.58195"
         y="-23.135839"
         id="tspan376"
         style="stroke-width:0.352777">✕</tspan></text>
    <text
       xml:space="preserve"
       transform="scale(1,-1)"
       style="font-variant:normal;font-weight:normal;font-size:0.0352777px;font-family:Arial;-inkscape-font-specification:Arial;writing-mode:lr-tb;fill:#231f20;fill-opacity:1;fill-rule:nonzero;stroke:none;stroke-width:0.352777"
       id="text382"
       x="-176.50195"
       y="-23.100651"><tspan
         x="-176.50195"
         y="-23.100651"
         id="tspan380"
         style="stroke-width:0.352777">✬</tspan></text>
    <path
       d="m -180.53314,15.736897 v 4.77554"
       style="fill:none;stroke:#ffffff;stroke-width:0.423332;stroke-linecap:round;stroke-linejoin:round;stroke-miterlimit:4;stroke-dasharray:none;stroke-opacity:1"
       id="path384" />
    <path
       d="m -180.53314,15.736897 v 4.77554"
       style="fill:none;stroke:#231f20;stroke-width:0.0881942;stroke-linecap:round;stroke-linejoin:round;stroke-miterlimit:4;stroke-dasharray:none;stroke-opacity:1"
       id="path386" />
    <path
       d="m -175.43587,15.736897 v 4.77554"
       style="fill:none;stroke:#ffffff;stroke-width:0.423332;stroke-linecap:round;stroke-linejoin:round;stroke-miterlimit:4;stroke-dasharray:none;stroke-opacity:1"
       id="path388" />
    <path
       d="m -175.43587,15.736897 v 4.77554"
       style="fill:none;stroke:#231f20;stroke-width:0.0881942;stroke-linecap:round;stroke-linejoin:round;stroke-miterlimit:4;stroke-dasharray:none;stroke-opacity:1"
       id="path390" />
  </g>
</svg>
