<?xml version="1.0" encoding="UTF-8" standalone="no"?>
<!-- Created with Inkscape (http://www.inkscape.org/) -->

<svg
   width="25.19603mm"
   height="15.115152mm"
   viewBox="0 0 25.19603 15.115152"
   version="1.1"
   id="svg1235"
   inkscape:version="1.2.2 (b0a8486541, 2022-12-01)"
   sodipodi:docname="3:25.svg"
   xmlns:inkscape="http://www.inkscape.org/namespaces/inkscape"
   xmlns:sodipodi="http://sodipodi.sourceforge.net/DTD/sodipodi-0.dtd"
   xmlns="http://www.w3.org/2000/svg"
   xmlns:svg="http://www.w3.org/2000/svg">
  <sodipodi:namedview
     id="namedview1237"
     pagecolor="#ffffff"
     bordercolor="#666666"
     borderopacity="1.0"
     inkscape:showpageshadow="2"
     inkscape:pageopacity="0.0"
     inkscape:pagecheckerboard="0"
     inkscape:deskcolor="#d1d1d1"
     inkscape:document-units="mm"
     showgrid="false"
     inkscape:zoom="0.44542649"
     inkscape:cx="1113.5395"
     inkscape:cy="489.41858"
     inkscape:window-width="1366"
     inkscape:window-height="685"
     inkscape:window-x="0"
     inkscape:window-y="27"
     inkscape:window-maximized="1"
     inkscape:current-layer="layer1" />
  <defs
     id="defs1232">
    <clipPath
       clipPathUnits="userSpaceOnUse"
       id="clipPath956">
      <path
         d="m 777.27,688.551 h 713.699 v 357.168 H 777.27 Z"
         id="path954" />
    </clipPath>
    <clipPath
       clipPathUnits="userSpaceOnUse"
       id="clipPath1159">
      <path
         d="m 777.27,688.551 h 713.699 v 357.168 H 777.27 Z"
         id="path1157" />
    </clipPath>
    <clipPath
       clipPathUnits="userSpaceOnUse"
       id="clipPath1163">
      <path
         d="m 777.27,688.551 h 713.699 v 357.168 H 777.27 Z"
         id="path1161" />
    </clipPath>
  </defs>
  <g
     inkscape:label="Layer 1"
     inkscape:groupmode="layer"
     id="layer1"
     transform="translate(189.61001,-19.172423)">
    <path
       d="m -184.21433,19.544568 -0.43282,-0.19438 c 0,0 -0.3587,-0.173567 -0.66008,0.06103 -0.24793,0.192616 -0.69356,0.507999 -1.4213,1.660838 -0.71508,1.157532 -0.77255,1.64828 -0.82134,1.931172 -0.0595,0.343287 0.3102,0.498861 0.3102,0.498861 l 0.43215,0.19431"
       style="fill:#9c9a9b;fill-opacity:1;fill-rule:nonzero;stroke:none;stroke-width:0.0352777"
       id="path942" />
    <path
       d="m -169.76914,19.544568 0.43286,-0.19438 c 0,0 0.35878,-0.173567 0.66005,0.06103 0.24765,0.192616 0.69356,0.507999 1.42098,1.660838 0.71543,1.157532 0.77294,1.64828 0.82127,1.931172 0.0596,0.343287 -0.31009,0.498861 -0.31009,0.498861 l -0.4318,0.19431"
       style="fill:#9c9a9b;fill-opacity:1;fill-rule:nonzero;stroke:none;stroke-width:0.0352777"
       id="path944" />
    <path
       d="m -184.21433,31.400023 -0.43282,0.194698 c 0,0 -0.3587,0.173496 -0.66008,-0.06103 -0.24793,-0.192652 -0.69356,-0.508352 -1.4213,-1.660804 -0.71508,-1.157849 -0.77255,-1.648279 -0.82134,-1.931453 -0.0595,-0.343005 0.3102,-0.49858 0.3102,-0.49858 l 0.43215,-0.194309"
       style="fill:#9c9a9b;fill-opacity:1;fill-rule:nonzero;stroke:none;stroke-width:0.0352777"
       id="path946" />
    <path
       d="m -169.76914,31.400023 0.43286,0.194698 c 0,0 0.35878,0.173496 0.66005,-0.06103 0.24765,-0.192652 0.69356,-0.508352 1.42098,-1.660804 0.71543,-1.157849 0.77294,-1.648279 0.82127,-1.931453 0.0596,-0.343005 -0.31009,-0.49858 -0.31009,-0.49858 l -0.4318,-0.194309"
       style="fill:#9c9a9b;fill-opacity:1;fill-rule:nonzero;stroke:none;stroke-width:0.0352777"
       id="path948" />
    <path
       d="m 1427.37,867.129 c 0,-137.508 -131.15,-248.988 -292.95,-248.988 -161.779,0 -292.932,111.48 -292.932,248.988 0,137.511 131.153,249.001 292.932,249.001 161.8,0 292.95,-111.49 292.95,-249.001"
       style="fill:#ffffff;fill-opacity:1;fill-rule:nonzero;stroke:none"
       id="path958"
       clip-path="url(#clipPath956)"
       transform="matrix(0.03527769,0,0,-0.03527769,-217.01196,56.062974)" />
    <path
       d="m 1427.37,867.129 c 0,-137.508 -131.15,-248.988 -292.95,-248.988 -161.779,0 -292.932,111.48 -292.932,248.988 0,137.511 131.153,249.001 292.932,249.001 161.8,0 292.95,-111.49 292.95,-249.001 z"
       style="fill:none;stroke:#9c9a9b;stroke-width:6;stroke-linecap:butt;stroke-linejoin:miter;stroke-miterlimit:10;stroke-dasharray:none;stroke-opacity:1"
       id="path960"
       clip-path="url(#clipPath956)"
       transform="matrix(0.03527769,0,0,-0.03527769,-217.01196,56.062974)" />
    <path
       d="m 1403.9,867.129 c 0,-126.5 -120.64,-229.051 -269.47,-229.051 -148.821,0 -269.461,102.551 -269.461,229.051 0,126.5 120.64,229.051 269.461,229.051 148.83,0 269.47,-102.551 269.47,-229.051 z"
       style="fill:none;stroke:#9c9a9b;stroke-width:4;stroke-linecap:butt;stroke-linejoin:miter;stroke-miterlimit:10;stroke-dasharray:none;stroke-opacity:1"
       id="path962"
       clip-path="url(#clipPath956)"
       transform="matrix(0.03527769,0,0,-0.03527769,-217.01196,56.062974)" />
    <path
       d="m -189.61001,20.484013 c 0,0.656517 0.54045,1.197254 1.19736,1.197254 0.65609,0 1.1963,-0.540737 1.1963,-1.197254 0,-0.656518 -0.54021,-1.196267 -1.1963,-1.196267 -0.65691,0 -1.19736,0.539749 -1.19736,1.196267 m 1.19736,-1.084789 c 0.59753,0 1.08478,0.487184 1.08478,1.084789 0,0.596157 -0.48905,1.084824 -1.08478,1.084824 -0.59655,0 -1.08589,-0.488667 -1.08589,-1.084824 0,-0.597605 0.48687,-1.084789 1.08589,-1.084789 m 0.28567,1.397349 0.14221,0.414513 h 0.2092 l -0.51428,-1.420633 h -0.21911 l -0.53344,1.420633 h 0.19858 l 0.14894,-0.414513 z m -0.51015,-0.170391 0.22836,-0.624063 h 0.005 l 0.20919,0.624063"
       style="fill:#231f20;fill-opacity:1;fill-rule:nonzero;stroke:none;stroke-width:0.0352777"
       id="path964" />
    <path
       d="m -166.80757,20.484718 c 0,0.656518 0.54045,1.196549 1.19697,1.196549 0.65687,0 1.19662,-0.540031 1.19662,-1.196549 0,-0.656518 -0.53975,-1.197325 -1.19662,-1.197325 -0.65652,0 -1.19697,0.540807 -1.19697,1.197325 m 1.19697,-1.092197 c 0.59866,0 1.08514,0.493535 1.08514,1.092197 0,0.596158 -0.48895,1.084789 -1.08514,1.084789 -0.59584,0 -1.08479,-0.488631 -1.08479,-1.084789 0,-0.598662 0.48648,-1.092197 1.08479,-1.092197 m -0.24448,1.184977 h 0.37959 c 0.15593,0 0.33091,0.03951 0.33091,0.239465 0,0.15875 -0.10019,0.258939 -0.30092,0.258939 h -0.40958 z m -0.19085,0.663927 h 0.61242 c 0.31433,0 0.4819,-0.191135 0.4819,-0.419064 0,-0.244863 -0.16546,-0.309421 -0.25859,-0.347521 0.15875,-0.07197 0.19121,-0.202494 0.19121,-0.295274 0,-0.195791 -0.13724,-0.358774 -0.40252,-0.358774 h -0.62442 z m 0.19085,-1.25765 h 0.34925 c 0.21449,0 0.29563,0.07691 0.29563,0.209902 0,0.172155 -0.11395,0.228247 -0.29774,0.228247 h -0.34714"
       style="fill:#231f20;fill-opacity:1;fill-rule:nonzero;stroke:none;stroke-width:0.0352777"
       id="path966" />
    <path
       d="m -189.61001,30.46019 c 0,0.657189 0.54045,1.197361 1.19736,1.197361 0.65609,0 1.1963,-0.540172 1.1963,-1.197361 0,-0.656482 -0.54021,-1.196689 -1.1963,-1.196689 -0.65691,0 -1.19736,0.540207 -1.19736,1.196689 m 1.8048,-0.251212 c -0.0283,-0.237454 -0.21911,-0.463161 -0.58455,-0.463161 -0.41409,0 -0.66393,0.302612 -0.66393,0.738362 0,0.546522 0.3168,0.756389 0.64104,0.756389 0.10611,0 0.54214,-0.023 0.62152,-0.558798 h -0.18687 c -0.0653,0.330446 -0.28127,0.388336 -0.40502,0.388336 -0.35387,0 -0.47212,-0.255339 -0.47212,-0.590901 0,-0.374543 0.20891,-0.563067 0.46538,-0.563067 0.13723,0 0.34505,0.04381 0.39755,0.29284 z m -0.60744,-0.833576 c 0.59753,0 1.08478,0.486867 1.08478,1.084788 0,0.596123 -0.48905,1.085495 -1.08478,1.085495 -0.59655,0 -1.08589,-0.489372 -1.08589,-1.085495 0,-0.597921 0.48687,-1.084788 1.08589,-1.084788"
       style="fill:#231f20;fill-opacity:1;fill-rule:nonzero;stroke:none;stroke-width:0.0352777"
       id="path968" />
    <path
       d="m -166.81004,30.46019 c 0,0.657189 0.53975,1.197361 1.19662,1.197361 0.65687,0 1.19662,-0.540172 1.19662,-1.197361 0,-0.656482 -0.53975,-1.196689 -1.19662,-1.196689 -0.65687,0 -1.19662,0.540207 -1.19662,1.196689 m 1.19662,-1.091527 c 0.59866,0 1.08514,0.493606 1.08514,1.091527 0,0.596123 -0.4893,1.085495 -1.08514,1.085495 -0.59584,0 -1.08515,-0.489372 -1.08515,-1.085495 0,-0.597921 0.48684,-1.091527 1.08515,-1.091527 m -0.48401,1.84393 h 0.56797 c 0.46566,0 0.60571,-0.412043 0.60571,-0.730918 0,-0.410245 -0.22859,-0.689679 -0.59901,-0.689679 h -0.57467 z m 0.19085,-1.257579 h 0.35842 c 0.2607,0 0.42615,0.18161 0.42615,0.538373 0,0.358703 -0.16298,0.55386 -0.41239,0.55386 h -0.37218"
       style="fill:#231f20;fill-opacity:1;fill-rule:nonzero;stroke:none;stroke-width:0.0352777"
       id="path970" />
    <path
       d="m -171.1933,25.414775 c 0,-3.197146 -2.59079,-5.790127 -5.78377,-5.790127 -3.19793,0 -5.795,2.592981 -5.795,5.790127 0,3.198981 2.59707,5.791221 5.795,5.791221 3.19298,0 5.78377,-2.59224 5.78377,-5.791221 z"
       style="fill:none;stroke:#9c9a9b;stroke-width:0.141111;stroke-linecap:round;stroke-linejoin:round;stroke-miterlimit:10;stroke-dasharray:none;stroke-opacity:1"
       id="path972" />
    <path
       d="m -172.77021,24.145484 h 0.50519 v -0.822686 h -0.50519 z"
       style="fill:#231f20;fill-opacity:1;fill-rule:nonzero;stroke:none;stroke-width:0.0352777"
       id="path974" />
    <path
       d="m -173.32936,24.145484 h 0.50546 v -0.822686 h -0.50546 z"
       style="fill:#231f20;fill-opacity:1;fill-rule:nonzero;stroke:none;stroke-width:0.0352777"
       id="path976" />
    <path
       d="m -173.88816,24.145484 h 0.50519 v -0.822686 h -0.50519 z"
       style="fill:#231f20;fill-opacity:1;fill-rule:nonzero;stroke:none;stroke-width:0.0352777"
       id="path978" />
    <path
       d="m -175.00646,24.145484 h 0.50519 v -0.822686 h -0.50519 z"
       style="fill:#231f20;fill-opacity:1;fill-rule:nonzero;stroke:none;stroke-width:0.0352777"
       id="path980" />
    <path
       d="m -175.56632,24.145484 h 0.50519 v -0.822686 h -0.50519 z"
       style="fill:#231f20;fill-opacity:1;fill-rule:nonzero;stroke:none;stroke-width:0.0352777"
       id="path982" />
    <path
       d="m -176.12512,24.145484 h 0.50519 v -0.822686 h -0.50519 z"
       style="fill:#231f20;fill-opacity:1;fill-rule:nonzero;stroke:none;stroke-width:0.0352777"
       id="path984" />
    <path
       d="m -177.24413,24.145484 h 0.50616 v -0.822686 h -0.50616 z"
       style="fill:#231f20;fill-opacity:1;fill-rule:nonzero;stroke:none;stroke-width:0.0352777"
       id="path986" />
    <path
       d="m -178.36278,24.145484 h 0.50546 v -0.822686 h -0.50546 z"
       style="fill:#231f20;fill-opacity:1;fill-rule:nonzero;stroke:none;stroke-width:0.0352777"
       id="path988" />
    <path
       d="m -178.92158,24.145484 h 0.50519 v -0.822686 h -0.50519 z"
       style="fill:#231f20;fill-opacity:1;fill-rule:nonzero;stroke:none;stroke-width:0.0352777"
       id="path990" />
    <path
       d="m -179.48038,24.145484 h 0.50519 v -0.822686 h -0.50519 z"
       style="fill:#231f20;fill-opacity:1;fill-rule:nonzero;stroke:none;stroke-width:0.0352777"
       id="path992" />
    <path
       d="m -180.59939,24.145484 h 0.50547 v -0.822686 h -0.50547 z"
       style="fill:#231f20;fill-opacity:1;fill-rule:nonzero;stroke:none;stroke-width:0.0352777"
       id="path994" />
    <path
       d="m -181.16242,24.145484 h 0.50684 v -0.822686 h -0.50684 z"
       style="fill:#231f20;fill-opacity:1;fill-rule:nonzero;stroke:none;stroke-width:0.0352777"
       id="path996" />
    <path
       d="m -181.72122,24.145484 h 0.50519 v -0.822686 h -0.50519 z"
       style="fill:#231f20;fill-opacity:1;fill-rule:nonzero;stroke:none;stroke-width:0.0352777"
       id="path998" />
    <path
       d="m -173.88816,25.022875 h 0.50519 v -0.822686 h -0.50519 z"
       style="fill:#231f20;fill-opacity:1;fill-rule:nonzero;stroke:none;stroke-width:0.0352777"
       id="path1000" />
    <path
       d="m -175.00646,25.022875 h 0.50519 v -0.822686 h -0.50519 z"
       style="fill:#231f20;fill-opacity:1;fill-rule:nonzero;stroke:none;stroke-width:0.0352777"
       id="path1002" />
    <path
       d="m -177.24413,25.022875 h 0.50616 v -0.822686 h -0.50616 z"
       style="fill:#231f20;fill-opacity:1;fill-rule:nonzero;stroke:none;stroke-width:0.0352777"
       id="path1004" />
    <path
       d="m -178.36278,25.022875 h 0.50546 v -0.822686 h -0.50546 z"
       style="fill:#231f20;fill-opacity:1;fill-rule:nonzero;stroke:none;stroke-width:0.0352777"
       id="path1006" />
    <path
       d="m -180.59939,25.022875 h 0.50547 v -0.822686 h -0.50547 z"
       style="fill:#231f20;fill-opacity:1;fill-rule:nonzero;stroke:none;stroke-width:0.0352777"
       id="path1008" />
    <path
       d="m -181.72122,25.022875 h 0.50519 v -0.822686 h -0.50519 z"
       style="fill:#231f20;fill-opacity:1;fill-rule:nonzero;stroke:none;stroke-width:0.0352777"
       id="path1010" />
    <path
       d="m -172.77021,25.898468 h 0.50519 v -0.821999 h -0.50519 z"
       style="fill:#231f20;fill-opacity:1;fill-rule:nonzero;stroke:none;stroke-width:0.0352777"
       id="path1012" />
    <path
       d="m -173.32936,25.898468 h 0.50546 v -0.821999 h -0.50546 z"
       style="fill:#231f20;fill-opacity:1;fill-rule:nonzero;stroke:none;stroke-width:0.0352777"
       id="path1014" />
    <path
       d="m -173.88816,25.898468 h 0.50519 v -0.821999 h -0.50519 z"
       style="fill:#231f20;fill-opacity:1;fill-rule:nonzero;stroke:none;stroke-width:0.0352777"
       id="path1016" />
    <path
       d="m -175.00646,25.898468 h 0.50519 v -0.821999 h -0.50519 z"
       style="fill:#231f20;fill-opacity:1;fill-rule:nonzero;stroke:none;stroke-width:0.0352777"
       id="path1018" />
    <path
       d="m -175.56632,25.898468 h 0.50519 v -0.821999 h -0.50519 z"
       style="fill:#231f20;fill-opacity:1;fill-rule:nonzero;stroke:none;stroke-width:0.0352777"
       id="path1020" />
    <path
       d="m -176.12512,25.898468 h 0.50519 v -0.821999 h -0.50519 z"
       style="fill:#231f20;fill-opacity:1;fill-rule:nonzero;stroke:none;stroke-width:0.0352777"
       id="path1022" />
    <path
       d="m -178.36278,25.898468 h 0.50546 v -0.821999 h -0.50546 z"
       style="fill:#231f20;fill-opacity:1;fill-rule:nonzero;stroke:none;stroke-width:0.0352777"
       id="path1024" />
    <path
       d="m -178.92158,25.898468 h 0.50519 v -0.821999 h -0.50519 z"
       style="fill:#231f20;fill-opacity:1;fill-rule:nonzero;stroke:none;stroke-width:0.0352777"
       id="path1026" />
    <path
       d="m -179.48038,25.898468 h 0.50519 v -0.821999 h -0.50519 z"
       style="fill:#231f20;fill-opacity:1;fill-rule:nonzero;stroke:none;stroke-width:0.0352777"
       id="path1028" />
    <path
       d="m -180.59939,25.898468 h 0.50547 v -0.821999 h -0.50547 z"
       style="fill:#231f20;fill-opacity:1;fill-rule:nonzero;stroke:none;stroke-width:0.0352777"
       id="path1030" />
    <path
       d="m -181.72122,25.898468 h 0.50519 v -0.821999 h -0.50519 z"
       style="fill:#231f20;fill-opacity:1;fill-rule:nonzero;stroke:none;stroke-width:0.0352777"
       id="path1032" />
    <path
       d="m -172.77021,26.775753 h 0.50519 v -0.822686 h -0.50519 z"
       style="fill:#231f20;fill-opacity:1;fill-rule:nonzero;stroke:none;stroke-width:0.0352777"
       id="path1034" />
    <path
       d="m -176.12512,26.775753 h 0.50519 v -0.822686 h -0.50519 z"
       style="fill:#231f20;fill-opacity:1;fill-rule:nonzero;stroke:none;stroke-width:0.0352777"
       id="path1036" />
    <path
       d="m -178.36278,26.775753 h 0.50546 v -0.822686 h -0.50546 z"
       style="fill:#231f20;fill-opacity:1;fill-rule:nonzero;stroke:none;stroke-width:0.0352777"
       id="path1038" />
    <path
       d="m -180.59939,26.775753 h 0.50547 v -0.822686 h -0.50547 z"
       style="fill:#231f20;fill-opacity:1;fill-rule:nonzero;stroke:none;stroke-width:0.0352777"
       id="path1040" />
    <path
       d="m -181.72122,26.775753 h 0.50519 v -0.822686 h -0.50519 z"
       style="fill:#231f20;fill-opacity:1;fill-rule:nonzero;stroke:none;stroke-width:0.0352777"
       id="path1042" />
    <path
       d="m -172.77021,27.652016 h 0.50519 v -0.821861 h -0.50519 z"
       style="fill:#231f20;fill-opacity:1;fill-rule:nonzero;stroke:none;stroke-width:0.0352777"
       id="path1044" />
    <path
       d="m -173.32936,27.652016 h 0.50546 v -0.821861 h -0.50546 z"
       style="fill:#231f20;fill-opacity:1;fill-rule:nonzero;stroke:none;stroke-width:0.0352777"
       id="path1046" />
    <path
       d="m -173.88816,27.652016 h 0.50519 v -0.821861 h -0.50519 z"
       style="fill:#231f20;fill-opacity:1;fill-rule:nonzero;stroke:none;stroke-width:0.0352777"
       id="path1048" />
    <path
       d="m -175.00646,27.652016 h 0.50519 v -0.821861 h -0.50519 z"
       style="fill:#231f20;fill-opacity:1;fill-rule:nonzero;stroke:none;stroke-width:0.0352777"
       id="path1050" />
    <path
       d="m -175.56632,27.652016 h 0.50519 v -0.821861 h -0.50519 z"
       style="fill:#231f20;fill-opacity:1;fill-rule:nonzero;stroke:none;stroke-width:0.0352777"
       id="path1052" />
    <path
       d="m -176.12512,27.652016 h 0.50519 v -0.821861 h -0.50519 z"
       style="fill:#231f20;fill-opacity:1;fill-rule:nonzero;stroke:none;stroke-width:0.0352777"
       id="path1054" />
    <path
       d="m -178.36278,27.652016 h 0.50546 v -0.821861 h -0.50546 z"
       style="fill:#231f20;fill-opacity:1;fill-rule:nonzero;stroke:none;stroke-width:0.0352777"
       id="path1056" />
    <path
       d="m -178.92158,27.652016 h 0.50519 v -0.821861 h -0.50519 z"
       style="fill:#231f20;fill-opacity:1;fill-rule:nonzero;stroke:none;stroke-width:0.0352777"
       id="path1058" />
    <path
       d="m -179.48038,27.652016 h 0.50519 v -0.821861 h -0.50519 z"
       style="fill:#231f20;fill-opacity:1;fill-rule:nonzero;stroke:none;stroke-width:0.0352777"
       id="path1060" />
    <path
       d="m -180.59939,27.652016 h 0.50547 v -0.821861 h -0.50547 z"
       style="fill:#231f20;fill-opacity:1;fill-rule:nonzero;stroke:none;stroke-width:0.0352777"
       id="path1062" />
    <path
       d="m -181.16242,27.652016 h 0.50684 v -0.821861 h -0.50684 z"
       style="fill:#231f20;fill-opacity:1;fill-rule:nonzero;stroke:none;stroke-width:0.0352777"
       id="path1064" />
    <path
       d="m -181.72122,27.652016 h 0.50519 v -0.821861 h -0.50519 z"
       style="fill:#231f20;fill-opacity:1;fill-rule:nonzero;stroke:none;stroke-width:0.0352777"
       id="path1066" />
    <text
       xml:space="preserve"
       transform="scale(1,-1)"
       style="font-variant:normal;font-weight:normal;font-size:0.0352777px;font-family:Arial;-inkscape-font-specification:Arial;writing-mode:lr-tb;fill:#231f20;fill-opacity:1;fill-rule:nonzero;stroke:none;stroke-width:0.352777"
       id="text1072"
       x="-167.37613"
       y="-34.261307"><tspan
         x="-167.37613 -165.08308"
         y="-34.261307"
         sodipodi:role="line"
         id="tspan1070"
         style="stroke-width:0.352777">✥✦</tspan></text>
    <path
       d="m -179.31845,28.367906 v 4.77547"
       style="fill:none;stroke:#ffffff;stroke-width:0.423332;stroke-linecap:round;stroke-linejoin:round;stroke-miterlimit:4;stroke-dasharray:none;stroke-opacity:1"
       id="path1104" />
    <path
       d="m -179.31845,28.367906 v 4.77547"
       style="fill:none;stroke:#231f20;stroke-width:0.0881942;stroke-linecap:round;stroke-linejoin:round;stroke-miterlimit:4;stroke-dasharray:none;stroke-opacity:1"
       id="path1106" />
    <path
       d="m -174.22118,28.367906 v 4.77547"
       style="fill:none;stroke:#ffffff;stroke-width:0.423332;stroke-linecap:round;stroke-linejoin:round;stroke-miterlimit:4;stroke-dasharray:none;stroke-opacity:1"
       id="path1108" />
    <path
       d="m -174.22118,28.367906 v 4.77547"
       style="fill:none;stroke:#231f20;stroke-width:0.0881942;stroke-linecap:round;stroke-linejoin:round;stroke-miterlimit:4;stroke-dasharray:none;stroke-opacity:1"
       id="path1110" />
  </g>
</svg>
