<?xml version="1.0" encoding="UTF-8" standalone="no"?>
<!-- Created with Inkscape (http://www.inkscape.org/) -->

<svg
   width="57.964573mm"
   height="16.600031mm"
   viewBox="0 0 57.964573 16.600031"
   version="1.1"
   id="svg1764"
   inkscape:version="1.2.2 (b0a8486541, 2022-12-01)"
   sodipodi:docname="3:25_92.svg"
   xmlns:inkscape="http://www.inkscape.org/namespaces/inkscape"
   xmlns:sodipodi="http://sodipodi.sourceforge.net/DTD/sodipodi-0.dtd"
   xmlns="http://www.w3.org/2000/svg"
   xmlns:svg="http://www.w3.org/2000/svg">
  <sodipodi:namedview
     id="namedview1766"
     pagecolor="#ffffff"
     bordercolor="#666666"
     borderopacity="1.0"
     inkscape:showpageshadow="2"
     inkscape:pageopacity="0.0"
     inkscape:pagecheckerboard="0"
     inkscape:deskcolor="#d1d1d1"
     inkscape:document-units="mm"
     showgrid="false"
     inkscape:zoom="0.44542649"
     inkscape:cx="1122.5197"
     inkscape:cy="478.19339"
     inkscape:window-width="1366"
     inkscape:window-height="685"
     inkscape:window-x="0"
     inkscape:window-y="27"
     inkscape:window-maximized="1"
     inkscape:current-layer="layer1" />
  <defs
     id="defs1761">
    <clipPath
       clipPathUnits="userSpaceOnUse"
       id="clipPath184">
      <path
         d="m 2211.54,1739.73 h 714.32 v 357.168 h -714.32 z"
         id="path182" />
    </clipPath>
    <clipPath
       clipPathUnits="userSpaceOnUse"
       id="clipPath1627">
      <path
         d="m 2211.54,1739.73 h 714.32 v 357.168 h -714.32 z"
         id="path1625" />
    </clipPath>
    <clipPath
       clipPathUnits="userSpaceOnUse"
       id="clipPath1631">
      <path
         d="m 2211.54,1739.73 h 714.32 v 357.168 h -714.32 z"
         id="path1629" />
    </clipPath>
    <clipPath
       clipPathUnits="userSpaceOnUse"
       id="clipPath310">
      <path
         d="m 3197.5,1739.73 h 714.309 v 357.168 H 3197.5 Z"
         id="path308" />
    </clipPath>
    <clipPath
       clipPathUnits="userSpaceOnUse"
       id="clipPath1637">
      <path
         d="m 3197.5,1739.73 h 714.309 v 357.168 H 3197.5 Z"
         id="path1635" />
    </clipPath>
    <clipPath
       clipPathUnits="userSpaceOnUse"
       id="clipPath1641">
      <path
         d="m 3197.5,1739.73 h 714.309 v 357.168 H 3197.5 Z"
         id="path1639" />
    </clipPath>
  </defs>
  <g
     inkscape:label="Layer 1"
     inkscape:groupmode="layer"
     id="layer1"
     transform="translate(191.73828,-21.993984)">
    <path
       d="m -186.34256,22.366093 -0.43286,-0.19438 c 0,0 -0.35877,-0.173566 -0.66004,0.06103 -0.248,0.192616 -0.69356,0.507999 -1.42134,1.660873 -0.71508,1.157461 -0.77258,1.648174 -0.82126,1.931101 -0.0596,0.343252 0.31009,0.498827 0.31009,0.498827 l 0.43215,0.19438"
       style="fill:#9c9a9b;fill-opacity:1;fill-rule:nonzero;stroke:none;stroke-width:0.0352777"
       id="path170" />
    <path
       d="m -171.89705,22.366093 0.43286,-0.19438 c 0,0 0.35877,-0.173566 0.66004,0.06103 0.24765,0.192616 0.69356,0.507999 1.42099,1.660873 0.71543,1.157461 0.77293,1.648174 0.82126,1.931101 0.0596,0.343252 -0.31009,0.498827 -0.31009,0.498827 l -0.4318,0.19438"
       style="fill:#9c9a9b;fill-opacity:1;fill-rule:nonzero;stroke:none;stroke-width:0.0352777"
       id="path172" />
    <path
       d="m -186.34256,34.221514 -0.43286,0.194733 c 0,0 -0.35877,0.173566 -0.66004,-0.06103 -0.248,-0.192616 -0.69356,-0.508351 -1.42134,-1.660873 -0.71508,-1.157814 -0.77258,-1.648174 -0.82126,-1.931454 -0.0596,-0.342899 0.31009,-0.498474 0.31009,-0.498474 l 0.43215,-0.19438"
       style="fill:#9c9a9b;fill-opacity:1;fill-rule:nonzero;stroke:none;stroke-width:0.0352777"
       id="path174" />
    <path
       d="m -171.89705,34.221514 0.43286,0.194733 c 0,0 0.35877,0.173566 0.66004,-0.06103 0.24765,-0.192616 0.69356,-0.508351 1.42099,-1.660873 0.71543,-1.157814 0.77293,-1.648174 0.82126,-1.931454 0.0596,-0.342899 -0.31009,-0.498474 -0.31009,-0.498474 l -0.4318,-0.19438"
       style="fill:#9c9a9b;fill-opacity:1;fill-rule:nonzero;stroke:none;stroke-width:0.0352777"
       id="path176" />
    <path
       d="m 2861.65,1918.31 c 0,-137.51 -131.15,-248.99 -292.95,-248.99 -161.78,0 -292.93,111.48 -292.93,248.99 0,137.51 131.15,249 292.93,249 161.8,0 292.95,-111.49 292.95,-249"
       style="fill:#ffffff;fill-opacity:1;fill-rule:nonzero;stroke:none"
       id="path186"
       clip-path="url(#clipPath184)"
       transform="matrix(0.03527769,0,0,-0.03527769,-269.73796,95.967702)" />
    <path
       d="m 2861.65,1918.31 c 0,-137.51 -131.15,-248.99 -292.95,-248.99 -161.78,0 -292.93,111.48 -292.93,248.99 0,137.51 131.15,249 292.93,249 161.8,0 292.95,-111.49 292.95,-249 z"
       style="fill:none;stroke:#9c9a9b;stroke-width:6;stroke-linecap:butt;stroke-linejoin:miter;stroke-miterlimit:10;stroke-dasharray:none;stroke-opacity:1"
       id="path188"
       clip-path="url(#clipPath184)"
       transform="matrix(0.03527769,0,0,-0.03527769,-269.73796,95.967702)" />
    <path
       d="m 2838.17,1918.31 c 0,-126.5 -120.64,-229.05 -269.47,-229.05 -148.82,0 -269.46,102.55 -269.46,229.05 0,126.5 120.64,229.05 269.46,229.05 148.83,0 269.47,-102.55 269.47,-229.05 z"
       style="fill:none;stroke:#9c9a9b;stroke-width:4;stroke-linecap:butt;stroke-linejoin:miter;stroke-miterlimit:10;stroke-dasharray:none;stroke-opacity:1"
       id="path190"
       clip-path="url(#clipPath184)"
       transform="matrix(0.03527769,0,0,-0.03527769,-269.73796,95.967702)" />
    <path
       d="m -191.73828,23.305538 c 0,0.656518 0.54045,1.197325 1.19732,1.197325 0.65617,0 1.19627,-0.540807 1.19627,-1.197325 0,-0.656517 -0.5401,-1.196266 -1.19627,-1.196266 -0.65687,0 -1.19732,0.539749 -1.19732,1.196266 m 1.19732,-1.084789 c 0.59761,0 1.08479,0.487185 1.08479,1.084789 0,0.596193 -0.48895,1.084789 -1.08479,1.084789 -0.59654,0 -1.08584,-0.488596 -1.08584,-1.084789 0,-0.597604 0.48683,-1.084789 1.08584,-1.084789 m 0.28575,1.39735 0.14217,0.414513 h 0.2092 l -0.51435,-1.420633 h -0.21908 l -0.53339,1.420633 h 0.19861 l 0.14887,-0.414513 z m -0.51011,-0.170392 0.22824,-0.624062 h 0.005 l 0.2092,0.624062"
       style="fill:#231f20;fill-opacity:1;fill-rule:nonzero;stroke:none;stroke-width:0.0352777"
       id="path192" />
    <path
       d="m -168.93584,23.306244 c 0,0.656518 0.54045,1.196619 1.19697,1.196619 0.65687,0 1.19662,-0.540101 1.19662,-1.196619 0,-0.656518 -0.53975,-1.197325 -1.19662,-1.197325 -0.65652,0 -1.19697,0.540807 -1.19697,1.197325 m 1.19697,-1.092197 c 0.59866,0 1.08514,0.493535 1.08514,1.092197 0,0.596193 -0.48895,1.084789 -1.08514,1.084789 -0.59584,0 -1.08479,-0.488596 -1.08479,-1.084789 0,-0.598662 0.48648,-1.092197 1.08479,-1.092197 m -0.24447,1.184977 h 0.37958 c 0.15593,0 0.33091,0.03951 0.33091,0.239536 0,0.158749 -0.10019,0.258938 -0.30092,0.258938 h -0.40957 z m -0.19086,0.663926 h 0.61242 c 0.31433,0 0.4819,-0.191205 0.4819,-0.419099 0,-0.244827 -0.16545,-0.309385 -0.25859,-0.347485 0.15875,-0.07197 0.19121,-0.202494 0.19121,-0.295274 0,-0.195791 -0.13723,-0.358774 -0.40252,-0.358774 h -0.62442 z m 0.19086,-1.257649 h 0.34925 c 0.21448,0 0.29562,0.07691 0.29562,0.209902 0,0.172155 -0.11394,0.228247 -0.29774,0.228247 h -0.34713"
       style="fill:#231f20;fill-opacity:1;fill-rule:nonzero;stroke:none;stroke-width:0.0352777"
       id="path194" />
    <path
       d="m -191.73828,33.281716 c 0,0.657224 0.54045,1.197325 1.19732,1.197325 0.65617,0 1.19627,-0.540101 1.19627,-1.197325 0,-0.656518 -0.5401,-1.196619 -1.19627,-1.196619 -0.65687,0 -1.19732,0.540101 -1.19732,1.196619 m 1.8048,-0.251177 c -0.0282,-0.237419 -0.21907,-0.463196 -0.58455,-0.463196 -0.41416,0 -0.66392,0.302683 -0.66392,0.738362 0,0.546452 0.31679,0.756354 0.64099,0.756354 0.10619,0 0.54222,-0.02293 0.6216,-0.558799 h -0.18698 c -0.0653,0.330552 -0.28116,0.388408 -0.40498,0.388408 -0.35384,0 -0.47202,-0.255411 -0.47202,-0.590902 0,-0.374649 0.20884,-0.563032 0.46531,-0.563032 0.13723,0 0.34502,0.04374 0.39758,0.292805 z m -0.60748,-0.833612 c 0.59761,0 1.08479,0.486832 1.08479,1.084789 0,0.596193 -0.48895,1.085495 -1.08479,1.085495 -0.59654,0 -1.08584,-0.489302 -1.08584,-1.085495 0,-0.597957 0.48683,-1.084789 1.08584,-1.084789"
       style="fill:#231f20;fill-opacity:1;fill-rule:nonzero;stroke:none;stroke-width:0.0352777"
       id="path196" />
    <path
       d="m -168.93831,33.281716 c 0,0.657224 0.53975,1.197325 1.19662,1.197325 0.65687,0 1.19662,-0.540101 1.19662,-1.197325 0,-0.656518 -0.53975,-1.196619 -1.19662,-1.196619 -0.65687,0 -1.19662,0.540101 -1.19662,1.196619 m 1.19662,-1.091491 c 0.59866,0 1.08514,0.493534 1.08514,1.091491 0,0.596193 -0.4893,1.085495 -1.08514,1.085495 -0.59584,0 -1.08514,-0.489302 -1.08514,-1.085495 0,-0.597957 0.48683,-1.091491 1.08514,-1.091491 m -0.48401,1.843964 h 0.56797 c 0.46566,0 0.60572,-0.412043 0.60572,-0.730953 0,-0.41028 -0.2286,-0.689679 -0.59902,-0.689679 h -0.57467 z m 0.19085,-1.257649 h 0.35842 c 0.2607,0 0.42616,0.18168 0.42616,0.538337 0,0.358774 -0.16299,0.55386 -0.4124,0.55386 h -0.37218"
       style="fill:#231f20;fill-opacity:1;fill-rule:nonzero;stroke:none;stroke-width:0.0352777"
       id="path198" />
    <path
       d="m -173.32156,28.235948 c 0,-3.197217 -2.5908,-5.790127 -5.78378,-5.790127 -3.19792,0 -5.79507,2.59291 -5.79507,5.790127 0,3.198981 2.59715,5.791186 5.79507,5.791186 3.19298,0 5.78378,-2.592205 5.78378,-5.791186 z"
       style="fill:none;stroke:#9c9a9b;stroke-width:0.141111;stroke-linecap:round;stroke-linejoin:round;stroke-miterlimit:10;stroke-dasharray:none;stroke-opacity:1"
       id="path200" />
    <path
       d="m -174.89848,26.96701 h 0.50519 v -0.822687 h -0.50519 z"
       style="fill:#231f20;fill-opacity:1;fill-rule:nonzero;stroke:none;stroke-width:0.0352777"
       id="path202" />
    <path
       d="m -175.45763,26.96701 h 0.5056 v -0.822687 h -0.5056 z"
       style="fill:#231f20;fill-opacity:1;fill-rule:nonzero;stroke:none;stroke-width:0.0352777"
       id="path204" />
    <path
       d="m -176.01643,26.96701 h 0.50519 v -0.822687 h -0.50519 z"
       style="fill:#231f20;fill-opacity:1;fill-rule:nonzero;stroke:none;stroke-width:0.0352777"
       id="path206" />
    <path
       d="m -177.13473,26.96701 h 0.50519 v -0.822687 h -0.50519 z"
       style="fill:#231f20;fill-opacity:1;fill-rule:nonzero;stroke:none;stroke-width:0.0352777"
       id="path208" />
    <path
       d="m -177.69459,26.96701 h 0.50519 v -0.822687 h -0.50519 z"
       style="fill:#231f20;fill-opacity:1;fill-rule:nonzero;stroke:none;stroke-width:0.0352777"
       id="path210" />
    <path
       d="m -178.25338,26.96701 h 0.50518 v -0.822687 h -0.50518 z"
       style="fill:#231f20;fill-opacity:1;fill-rule:nonzero;stroke:none;stroke-width:0.0352777"
       id="path212" />
    <path
       d="m -179.37239,26.96701 h 0.50615 v -0.822687 h -0.50615 z"
       style="fill:#231f20;fill-opacity:1;fill-rule:nonzero;stroke:none;stroke-width:0.0352777"
       id="path214" />
    <path
       d="m -180.49105,26.96701 h 0.50546 v -0.822687 h -0.50546 z"
       style="fill:#231f20;fill-opacity:1;fill-rule:nonzero;stroke:none;stroke-width:0.0352777"
       id="path216" />
    <path
       d="m -181.04985,26.96701 h 0.50519 v -0.822687 h -0.50519 z"
       style="fill:#231f20;fill-opacity:1;fill-rule:nonzero;stroke:none;stroke-width:0.0352777"
       id="path218" />
    <path
       d="m -181.60865,26.96701 h 0.50519 v -0.822687 h -0.50519 z"
       style="fill:#231f20;fill-opacity:1;fill-rule:nonzero;stroke:none;stroke-width:0.0352777"
       id="path220" />
    <path
       d="m -182.72765,26.96701 h 0.50546 v -0.822687 h -0.50546 z"
       style="fill:#231f20;fill-opacity:1;fill-rule:nonzero;stroke:none;stroke-width:0.0352777"
       id="path222" />
    <path
       d="m -183.29069,26.96701 h 0.50698 v -0.822687 h -0.50698 z"
       style="fill:#231f20;fill-opacity:1;fill-rule:nonzero;stroke:none;stroke-width:0.0352777"
       id="path224" />
    <path
       d="m -183.84948,26.96701 h 0.50518 v -0.822687 h -0.50518 z"
       style="fill:#231f20;fill-opacity:1;fill-rule:nonzero;stroke:none;stroke-width:0.0352777"
       id="path226" />
    <path
       d="m -176.01643,27.844366 h 0.50519 V 27.02168 h -0.50519 z"
       style="fill:#231f20;fill-opacity:1;fill-rule:nonzero;stroke:none;stroke-width:0.0352777"
       id="path228" />
    <path
       d="m -177.13473,27.844366 h 0.50519 V 27.02168 h -0.50519 z"
       style="fill:#231f20;fill-opacity:1;fill-rule:nonzero;stroke:none;stroke-width:0.0352777"
       id="path230" />
    <path
       d="m -179.37239,27.844366 h 0.50615 V 27.02168 h -0.50615 z"
       style="fill:#231f20;fill-opacity:1;fill-rule:nonzero;stroke:none;stroke-width:0.0352777"
       id="path232" />
    <path
       d="m -180.49105,27.844366 h 0.50546 V 27.02168 h -0.50546 z"
       style="fill:#231f20;fill-opacity:1;fill-rule:nonzero;stroke:none;stroke-width:0.0352777"
       id="path234" />
    <path
       d="m -182.72765,27.844366 h 0.50546 V 27.02168 h -0.50546 z"
       style="fill:#231f20;fill-opacity:1;fill-rule:nonzero;stroke:none;stroke-width:0.0352777"
       id="path236" />
    <path
       d="m -183.84948,27.844366 h 0.50518 V 27.02168 h -0.50518 z"
       style="fill:#231f20;fill-opacity:1;fill-rule:nonzero;stroke:none;stroke-width:0.0352777"
       id="path238" />
    <path
       d="m -174.89848,28.719958 h 0.50519 V 27.89796 h -0.50519 z"
       style="fill:#231f20;fill-opacity:1;fill-rule:nonzero;stroke:none;stroke-width:0.0352777"
       id="path240" />
    <path
       d="m -175.45763,28.719958 h 0.5056 V 27.89796 h -0.5056 z"
       style="fill:#231f20;fill-opacity:1;fill-rule:nonzero;stroke:none;stroke-width:0.0352777"
       id="path242" />
    <path
       d="m -176.01643,28.719958 h 0.50519 V 27.89796 h -0.50519 z"
       style="fill:#231f20;fill-opacity:1;fill-rule:nonzero;stroke:none;stroke-width:0.0352777"
       id="path244" />
    <path
       d="m -177.13473,28.719958 h 0.50519 V 27.89796 h -0.50519 z"
       style="fill:#231f20;fill-opacity:1;fill-rule:nonzero;stroke:none;stroke-width:0.0352777"
       id="path246" />
    <path
       d="m -177.69459,28.719958 h 0.50519 V 27.89796 h -0.50519 z"
       style="fill:#231f20;fill-opacity:1;fill-rule:nonzero;stroke:none;stroke-width:0.0352777"
       id="path248" />
    <path
       d="m -178.25338,28.719958 h 0.50518 V 27.89796 h -0.50518 z"
       style="fill:#231f20;fill-opacity:1;fill-rule:nonzero;stroke:none;stroke-width:0.0352777"
       id="path250" />
    <path
       d="m -180.49105,28.719958 h 0.50546 V 27.89796 h -0.50546 z"
       style="fill:#231f20;fill-opacity:1;fill-rule:nonzero;stroke:none;stroke-width:0.0352777"
       id="path252" />
    <path
       d="m -181.04985,28.719958 h 0.50519 V 27.89796 h -0.50519 z"
       style="fill:#231f20;fill-opacity:1;fill-rule:nonzero;stroke:none;stroke-width:0.0352777"
       id="path254" />
    <path
       d="m -181.60865,28.719958 h 0.50519 V 27.89796 h -0.50519 z"
       style="fill:#231f20;fill-opacity:1;fill-rule:nonzero;stroke:none;stroke-width:0.0352777"
       id="path256" />
    <path
       d="m -182.72765,28.719958 h 0.50546 V 27.89796 h -0.50546 z"
       style="fill:#231f20;fill-opacity:1;fill-rule:nonzero;stroke:none;stroke-width:0.0352777"
       id="path258" />
    <path
       d="m -183.84948,28.719958 h 0.50518 V 27.89796 h -0.50518 z"
       style="fill:#231f20;fill-opacity:1;fill-rule:nonzero;stroke:none;stroke-width:0.0352777"
       id="path260" />
    <path
       d="m -174.89848,29.597314 h 0.50519 v -0.822686 h -0.50519 z"
       style="fill:#231f20;fill-opacity:1;fill-rule:nonzero;stroke:none;stroke-width:0.0352777"
       id="path262" />
    <path
       d="m -178.25338,29.597314 h 0.50518 v -0.822686 h -0.50518 z"
       style="fill:#231f20;fill-opacity:1;fill-rule:nonzero;stroke:none;stroke-width:0.0352777"
       id="path264" />
    <path
       d="m -180.49105,29.597314 h 0.50546 v -0.822686 h -0.50546 z"
       style="fill:#231f20;fill-opacity:1;fill-rule:nonzero;stroke:none;stroke-width:0.0352777"
       id="path266" />
    <path
       d="m -182.72765,29.597314 h 0.50546 v -0.822686 h -0.50546 z"
       style="fill:#231f20;fill-opacity:1;fill-rule:nonzero;stroke:none;stroke-width:0.0352777"
       id="path268" />
    <path
       d="m -183.84948,29.597314 h 0.50518 v -0.822686 h -0.50518 z"
       style="fill:#231f20;fill-opacity:1;fill-rule:nonzero;stroke:none;stroke-width:0.0352777"
       id="path270" />
    <path
       d="m -174.89848,30.473612 h 0.50519 v -0.821861 h -0.50519 z"
       style="fill:#231f20;fill-opacity:1;fill-rule:nonzero;stroke:none;stroke-width:0.0352777"
       id="path272" />
    <path
       d="m -175.45763,30.473612 h 0.5056 v -0.821861 h -0.5056 z"
       style="fill:#231f20;fill-opacity:1;fill-rule:nonzero;stroke:none;stroke-width:0.0352777"
       id="path274" />
    <path
       d="m -176.01643,30.473612 h 0.50519 v -0.821861 h -0.50519 z"
       style="fill:#231f20;fill-opacity:1;fill-rule:nonzero;stroke:none;stroke-width:0.0352777"
       id="path276" />
    <path
       d="m -177.13473,30.473612 h 0.50519 v -0.821861 h -0.50519 z"
       style="fill:#231f20;fill-opacity:1;fill-rule:nonzero;stroke:none;stroke-width:0.0352777"
       id="path278" />
    <path
       d="m -177.69459,30.473612 h 0.50519 v -0.821861 h -0.50519 z"
       style="fill:#231f20;fill-opacity:1;fill-rule:nonzero;stroke:none;stroke-width:0.0352777"
       id="path280" />
    <path
       d="m -178.25338,30.473612 h 0.50518 v -0.821861 h -0.50518 z"
       style="fill:#231f20;fill-opacity:1;fill-rule:nonzero;stroke:none;stroke-width:0.0352777"
       id="path282" />
    <path
       d="m -180.49105,30.473612 h 0.50546 v -0.821861 h -0.50546 z"
       style="fill:#231f20;fill-opacity:1;fill-rule:nonzero;stroke:none;stroke-width:0.0352777"
       id="path284" />
    <path
       d="m -181.04985,30.473612 h 0.50519 v -0.821861 h -0.50519 z"
       style="fill:#231f20;fill-opacity:1;fill-rule:nonzero;stroke:none;stroke-width:0.0352777"
       id="path286" />
    <path
       d="m -181.60865,30.473612 h 0.50519 v -0.821861 h -0.50519 z"
       style="fill:#231f20;fill-opacity:1;fill-rule:nonzero;stroke:none;stroke-width:0.0352777"
       id="path288" />
    <path
       d="m -182.72765,30.473612 h 0.50546 v -0.821861 h -0.50546 z"
       style="fill:#231f20;fill-opacity:1;fill-rule:nonzero;stroke:none;stroke-width:0.0352777"
       id="path290" />
    <path
       d="m -183.29069,30.473612 h 0.50698 v -0.821861 h -0.50698 z"
       style="fill:#231f20;fill-opacity:1;fill-rule:nonzero;stroke:none;stroke-width:0.0352777"
       id="path292" />
    <path
       d="m -183.84948,30.473612 h 0.50518 v -0.821861 h -0.50518 z"
       style="fill:#231f20;fill-opacity:1;fill-rule:nonzero;stroke:none;stroke-width:0.0352777"
       id="path294" />
    <path
       d="m -151.56052,22.366093 -0.43286,-0.19438 c 0,0 -0.35877,-0.173566 -0.66004,0.06103 -0.24801,0.192616 -0.69356,0.507999 -1.42134,1.660873 -0.71508,1.157461 -0.77258,1.648174 -0.82127,1.931101 -0.0596,0.343252 0.31009,0.498827 0.31009,0.498827 l 0.43216,0.19438"
       style="fill:#9c9a9b;fill-opacity:1;fill-rule:nonzero;stroke:none;stroke-width:0.0352777"
       id="path296" />
    <path
       d="m -137.11536,22.366093 0.43285,-0.19438 c 0,0 0.35878,-0.173566 0.66005,0.06103 0.24765,0.192616 0.69356,0.507999 1.42098,1.660873 0.71543,1.157461 0.77294,1.648174 0.82127,1.931101 0.0596,0.343252 -0.31009,0.498827 -0.31009,0.498827 l -0.4318,0.19438"
       style="fill:#9c9a9b;fill-opacity:1;fill-rule:nonzero;stroke:none;stroke-width:0.0352777"
       id="path298" />
    <path
       d="m -151.56052,34.221514 -0.43286,0.194733 c 0,0 -0.35877,0.173566 -0.66004,-0.06103 -0.24801,-0.192616 -0.69356,-0.508351 -1.42134,-1.660873 -0.71508,-1.157814 -0.77258,-1.648174 -0.82127,-1.931454 -0.0596,-0.342899 0.31009,-0.498474 0.31009,-0.498474 l 0.43216,-0.19438"
       style="fill:#9c9a9b;fill-opacity:1;fill-rule:nonzero;stroke:none;stroke-width:0.0352777"
       id="path300" />
    <path
       d="m -137.11536,34.221514 0.43285,0.194733 c 0,0 0.35878,0.173566 0.66005,-0.06103 0.24765,-0.192616 0.69356,-0.508351 1.42098,-1.660873 0.71543,-1.157814 0.77294,-1.648174 0.82127,-1.931454 0.0596,-0.342899 -0.31009,-0.498474 -0.31009,-0.498474 l -0.4318,-0.19438"
       style="fill:#9c9a9b;fill-opacity:1;fill-rule:nonzero;stroke:none;stroke-width:0.0352777"
       id="path302" />
    <path
       d="m 3847.59,1918.31 c 0,-137.51 -131.15,-248.99 -292.95,-248.99 -161.78,0 -292.93,111.48 -292.93,248.99 0,137.51 131.15,249 292.93,249 161.8,0 292.95,-111.49 292.95,-249"
       style="fill:#ffffff;fill-opacity:1;fill-rule:nonzero;stroke:none"
       id="path312"
       clip-path="url(#clipPath310)"
       transform="matrix(0.03527769,0,0,-0.03527769,-269.73796,95.967702)" />
    <path
       d="m 3847.59,1918.31 c 0,-137.51 -131.15,-248.99 -292.95,-248.99 -161.78,0 -292.93,111.48 -292.93,248.99 0,137.51 131.15,249 292.93,249 161.8,0 292.95,-111.49 292.95,-249 z"
       style="fill:none;stroke:#9c9a9b;stroke-width:6;stroke-linecap:butt;stroke-linejoin:miter;stroke-miterlimit:10;stroke-dasharray:none;stroke-opacity:1"
       id="path314"
       clip-path="url(#clipPath310)"
       transform="matrix(0.03527769,0,0,-0.03527769,-269.73796,95.967702)" />
    <path
       d="m 3824.12,1918.31 c 0,-126.5 -120.64,-229.05 -269.47,-229.05 -148.82,0 -269.46,102.55 -269.46,229.05 0,126.5 120.64,229.05 269.46,229.05 148.83,0 269.47,-102.55 269.47,-229.05 z"
       style="fill:none;stroke:#9c9a9b;stroke-width:4;stroke-linecap:butt;stroke-linejoin:miter;stroke-miterlimit:10;stroke-dasharray:none;stroke-opacity:1"
       id="path316"
       clip-path="url(#clipPath310)"
       transform="matrix(0.03527769,0,0,-0.03527769,-269.73796,95.967702)" />
    <path
       d="m -138.53953,28.235948 c 0,-3.197217 -2.59079,-5.790127 -5.78377,-5.790127 -3.19793,0 -5.79507,2.59291 -5.79507,5.790127 0,3.198981 2.59714,5.791186 5.79507,5.791186 3.19298,0 5.78377,-2.592205 5.78377,-5.791186 z"
       style="fill:none;stroke:#9c9a9b;stroke-width:0.141111;stroke-linecap:round;stroke-linejoin:round;stroke-miterlimit:10;stroke-dasharray:none;stroke-opacity:1"
       id="path318" />
    <path
       d="m -140.11644,26.96701 h 0.50519 v -0.822687 h -0.50519 z"
       style="fill:#231f20;fill-opacity:1;fill-rule:nonzero;stroke:none;stroke-width:0.0352777"
       id="path320" />
    <path
       d="m -140.67559,26.96701 h 0.5056 v -0.822687 h -0.5056 z"
       style="fill:#231f20;fill-opacity:1;fill-rule:nonzero;stroke:none;stroke-width:0.0352777"
       id="path322" />
    <path
       d="m -141.23439,26.96701 h 0.50519 v -0.822687 h -0.50519 z"
       style="fill:#231f20;fill-opacity:1;fill-rule:nonzero;stroke:none;stroke-width:0.0352777"
       id="path324" />
    <path
       d="m -142.35304,26.96701 h 0.50491 v -0.822687 h -0.50491 z"
       style="fill:#231f20;fill-opacity:1;fill-rule:nonzero;stroke:none;stroke-width:0.0352777"
       id="path326" />
    <path
       d="m -142.91255,26.96701 h 0.50519 v -0.822687 h -0.50519 z"
       style="fill:#231f20;fill-opacity:1;fill-rule:nonzero;stroke:none;stroke-width:0.0352777"
       id="path328" />
    <path
       d="m -143.47135,26.96701 h 0.50519 v -0.822687 h -0.50519 z"
       style="fill:#231f20;fill-opacity:1;fill-rule:nonzero;stroke:none;stroke-width:0.0352777"
       id="path330" />
    <path
       d="m -144.59035,26.96701 h 0.50629 v -0.822687 h -0.50629 z"
       style="fill:#231f20;fill-opacity:1;fill-rule:nonzero;stroke:none;stroke-width:0.0352777"
       id="path332" />
    <path
       d="m -145.70901,26.96701 h 0.5056 v -0.822687 h -0.5056 z"
       style="fill:#231f20;fill-opacity:1;fill-rule:nonzero;stroke:none;stroke-width:0.0352777"
       id="path334" />
    <path
       d="m -140.11644,27.844366 h 0.50519 V 27.02168 h -0.50519 z"
       style="fill:#231f20;fill-opacity:1;fill-rule:nonzero;stroke:none;stroke-width:0.0352777"
       id="path336" />
    <path
       d="m -142.35304,27.844366 h 0.50491 V 27.02168 h -0.50491 z"
       style="fill:#231f20;fill-opacity:1;fill-rule:nonzero;stroke:none;stroke-width:0.0352777"
       id="path338" />
    <path
       d="m -143.47135,27.844366 h 0.50519 V 27.02168 h -0.50519 z"
       style="fill:#231f20;fill-opacity:1;fill-rule:nonzero;stroke:none;stroke-width:0.0352777"
       id="path340" />
    <path
       d="m -144.59035,27.844366 h 0.50629 V 27.02168 h -0.50629 z"
       style="fill:#231f20;fill-opacity:1;fill-rule:nonzero;stroke:none;stroke-width:0.0352777"
       id="path342" />
    <path
       d="m -145.70901,27.844366 h 0.5056 V 27.02168 h -0.5056 z"
       style="fill:#231f20;fill-opacity:1;fill-rule:nonzero;stroke:none;stroke-width:0.0352777"
       id="path344" />
    <path
       d="m -140.11644,28.719958 h 0.50519 V 27.89796 h -0.50519 z"
       style="fill:#231f20;fill-opacity:1;fill-rule:nonzero;stroke:none;stroke-width:0.0352777"
       id="path346" />
    <path
       d="m -140.67559,28.719958 h 0.5056 V 27.89796 h -0.5056 z"
       style="fill:#231f20;fill-opacity:1;fill-rule:nonzero;stroke:none;stroke-width:0.0352777"
       id="path348" />
    <path
       d="m -141.23439,28.719958 h 0.50519 V 27.89796 h -0.50519 z"
       style="fill:#231f20;fill-opacity:1;fill-rule:nonzero;stroke:none;stroke-width:0.0352777"
       id="path350" />
    <path
       d="m -142.35304,28.719958 h 0.50491 V 27.89796 h -0.50491 z"
       style="fill:#231f20;fill-opacity:1;fill-rule:nonzero;stroke:none;stroke-width:0.0352777"
       id="path352" />
    <path
       d="m -142.91255,28.719958 h 0.50519 V 27.89796 h -0.50519 z"
       style="fill:#231f20;fill-opacity:1;fill-rule:nonzero;stroke:none;stroke-width:0.0352777"
       id="path354" />
    <path
       d="m -143.47135,28.719958 h 0.50519 V 27.89796 h -0.50519 z"
       style="fill:#231f20;fill-opacity:1;fill-rule:nonzero;stroke:none;stroke-width:0.0352777"
       id="path356" />
    <path
       d="m -141.23439,29.597314 h 0.50519 v -0.822686 h -0.50519 z"
       style="fill:#231f20;fill-opacity:1;fill-rule:nonzero;stroke:none;stroke-width:0.0352777"
       id="path358" />
    <path
       d="m -142.35304,29.597314 h 0.50491 v -0.822686 h -0.50491 z"
       style="fill:#231f20;fill-opacity:1;fill-rule:nonzero;stroke:none;stroke-width:0.0352777"
       id="path360" />
    <path
       d="m -140.11644,30.473612 h 0.50519 v -0.821861 h -0.50519 z"
       style="fill:#231f20;fill-opacity:1;fill-rule:nonzero;stroke:none;stroke-width:0.0352777"
       id="path362" />
    <path
       d="m -140.67559,30.473612 h 0.5056 v -0.821861 h -0.5056 z"
       style="fill:#231f20;fill-opacity:1;fill-rule:nonzero;stroke:none;stroke-width:0.0352777"
       id="path364" />
    <path
       d="m -141.23439,30.473612 h 0.50519 v -0.821861 h -0.50519 z"
       style="fill:#231f20;fill-opacity:1;fill-rule:nonzero;stroke:none;stroke-width:0.0352777"
       id="path366" />
    <path
       d="m -142.35304,30.473612 h 0.50491 v -0.821861 h -0.50491 z"
       style="fill:#231f20;fill-opacity:1;fill-rule:nonzero;stroke:none;stroke-width:0.0352777"
       id="path368" />
    <path
       d="m -142.91255,30.473612 h 0.50519 v -0.821861 h -0.50519 z"
       style="fill:#231f20;fill-opacity:1;fill-rule:nonzero;stroke:none;stroke-width:0.0352777"
       id="path370" />
    <path
       d="m -143.47135,30.473612 h 0.50519 v -0.821861 h -0.50519 z"
       style="fill:#231f20;fill-opacity:1;fill-rule:nonzero;stroke:none;stroke-width:0.0352777"
       id="path372" />
    <text
       xml:space="preserve"
       transform="scale(1,-1)"
       style="font-variant:normal;font-weight:normal;font-size:0.0352777px;font-family:Arial;-inkscape-font-specification:Arial;writing-mode:lr-tb;fill:#231f20;fill-opacity:1;fill-rule:nonzero;stroke:none;stroke-width:0.352777"
       id="text378"
       x="-182.84879"
       y="-38.570847"><tspan
         x="-182.84879"
         y="-38.570847"
         id="tspan376"
         style="stroke-width:0.352777">✕</tspan></text>
    <text
       xml:space="preserve"
       transform="scale(1,-1)"
       style="font-variant:normal;font-weight:normal;font-size:0.0352777px;font-family:Arial;-inkscape-font-specification:Arial;writing-mode:lr-tb;fill:#231f20;fill-opacity:1;fill-rule:nonzero;stroke:none;stroke-width:0.352777"
       id="text382"
       x="-177.41611"
       y="-38.535393"><tspan
         x="-177.41611"
         y="-38.535393"
         id="tspan380"
         style="stroke-width:0.352777">✬</tspan></text>
    <text
       xml:space="preserve"
       transform="scale(1,-1)"
       style="font-variant:normal;font-weight:normal;font-size:0.0352777px;font-family:Arial;-inkscape-font-specification:Arial;writing-mode:lr-tb;fill:#231f20;fill-opacity:1;fill-rule:nonzero;stroke:none;stroke-width:0.352777"
       id="text386"
       x="-146.08945"
       y="-38.535393"><tspan
         x="-146.08945 -144.67833 -143.65529 -142.24417 -140.86835"
         y="-38.535393"
         sodipodi:role="line"
         id="tspan384"
         style="stroke-width:0.352777">✆✝✆✞✞</tspan></text>
    <text
       xml:space="preserve"
       transform="scale(1,-1)"
       style="font-variant:normal;font-weight:normal;font-size:0.0352777px;font-family:Arial;-inkscape-font-specification:Arial;writing-mode:lr-tb;fill:#231f20;fill-opacity:1;fill-rule:nonzero;stroke:none;stroke-width:0.352777"
       id="text390"
       x="-139.17482"
       y="-38.535393"><tspan
         x="-139.17482"
         y="-38.535393"
         id="tspan388"
         style="stroke-width:0.352777">✬</tspan></text>
    <path
       d="m -181.80056,31.182341 v 4.775541"
       style="fill:none;stroke:#ffffff;stroke-width:0.423332;stroke-linecap:round;stroke-linejoin:round;stroke-miterlimit:4;stroke-dasharray:none;stroke-opacity:1"
       id="path392" />
    <path
       d="m -181.80056,31.182341 v 4.775541"
       style="fill:none;stroke:#231f20;stroke-width:0.0881942;stroke-linecap:round;stroke-linejoin:round;stroke-miterlimit:4;stroke-dasharray:none;stroke-opacity:1"
       id="path394" />
    <path
       d="m -176.34945,31.182341 v 4.775541"
       style="fill:none;stroke:#ffffff;stroke-width:0.423332;stroke-linecap:round;stroke-linejoin:round;stroke-miterlimit:4;stroke-dasharray:none;stroke-opacity:1"
       id="path396" />
    <path
       d="m -176.34945,31.182341 v 4.775541"
       style="fill:none;stroke:#231f20;stroke-width:0.0881942;stroke-linecap:round;stroke-linejoin:round;stroke-miterlimit:4;stroke-dasharray:none;stroke-opacity:1"
       id="path398" />
    <path
       d="m -141.55612,31.182341 v 4.775541"
       style="fill:none;stroke:#ffffff;stroke-width:0.423332;stroke-linecap:round;stroke-linejoin:round;stroke-miterlimit:4;stroke-dasharray:none;stroke-opacity:1"
       id="path400" />
    <path
       d="m -141.55612,31.182341 v 4.775541"
       style="fill:none;stroke:#231f20;stroke-width:0.0881942;stroke-linecap:round;stroke-linejoin:round;stroke-miterlimit:4;stroke-dasharray:none;stroke-opacity:1"
       id="path402" />
    <text
       xml:space="preserve"
       transform="scale(1,-1)"
       style="font-variant:normal;font-weight:normal;font-size:0.0352777px;font-family:Arial;-inkscape-font-specification:Arial;writing-mode:lr-tb;fill:#231f20;fill-opacity:1;fill-rule:nonzero;stroke:none;stroke-width:0.352777"
       id="text408"
       x="-165.77444"
       y="-25.65918"><tspan
         x="-165.77444"
         y="-25.65918"
         id="tspan406"
         style="stroke-width:0.352777">✟</tspan></text>
    <text
       xml:space="preserve"
       transform="scale(1,-1)"
       style="font-variant:normal;font-weight:normal;font-size:0.0352777px;font-family:Arial;-inkscape-font-specification:Arial;writing-mode:lr-tb;fill:#231f20;fill-opacity:1;fill-rule:nonzero;stroke:none;stroke-width:0.352777"
       id="text412"
       x="-164.08112"
       y="-25.65918"><tspan
         x="-164.08112"
         y="-25.65918"
         id="tspan410"
         style="stroke-width:0.352777">✬</tspan></text>
    <text
       xml:space="preserve"
       transform="scale(1,-1)"
       style="font-variant:normal;font-weight:normal;font-size:0.0352777px;font-family:Arial;-inkscape-font-specification:Arial;writing-mode:lr-tb;fill:#231f20;fill-opacity:1;fill-rule:nonzero;stroke:none;stroke-width:0.352777"
       id="text416"
       x="-161.96445"
       y="-25.65918"><tspan
         x="-161.96445 -159.84778"
         y="-25.65918"
         sodipodi:role="line"
         id="tspan414"
         style="stroke-width:0.352777">✠✡</tspan></text>
    <path
       d="m -157.74082,26.538739 c 0,0.218369 0,0.436737 0,0.655106 v 0.05292 h -7.98757 v -0.05292 c 0,-0.218369 0,-0.436737 0,-0.655106 -0.49283,0.584904 -0.98531,1.170161 -1.47814,1.755065 0.49283,0.585257 0.98531,1.170161 1.47814,1.755418 0,-0.218369 0,-0.436738 0,-0.655107 v -0.05292 h 7.98757 v 0.05292 c 0,0.218369 0,0.436738 0,0.655107 0.49248,-0.585257 0.98531,-1.170161 1.47778,-1.755418 -0.49247,-0.584904 -0.9853,-1.169808 -1.47778,-1.755065"
       style="fill:#bdbcbc;fill-opacity:1;fill-rule:nonzero;stroke:none;stroke-width:0.0352777"
       id="path418" />
    <path
       d="m -157.74082,26.538739 c 0,0.218369 0,0.436737 0,0.655106 v 0.05292 h -7.98757 v -0.05292 c 0,-0.218369 0,-0.436737 0,-0.655106 -0.49283,0.584904 -0.98531,1.170161 -1.47814,1.755065 0.49283,0.585257 0.98531,1.170161 1.47814,1.755418 0,-0.218369 0,-0.436738 0,-0.655107 v -0.05292 h 7.98757 v 0.05292 c 0,0.218369 0,0.436738 0,0.655107 0.49248,-0.585257 0.98531,-1.170161 1.47778,-1.755418 -0.49247,-0.584904 -0.9853,-1.169808 -1.47778,-1.755065 z"
       style="fill:none;stroke:#4f4c4c;stroke-width:0.105833;stroke-linecap:butt;stroke-linejoin:miter;stroke-miterlimit:4;stroke-dasharray:none;stroke-opacity:1"
       id="path420" />
  </g>
</svg>
