<?xml version="1.0" encoding="UTF-8" standalone="no"?>
<!-- Created with Inkscape (http://www.inkscape.org/) -->

<svg
   width="25.19603mm"
   height="20.02739mm"
   viewBox="0 0 25.19603 20.02739"
   version="1.1"
   id="svg580"
   inkscape:version="1.2.2 (b0a8486541, 2022-12-01)"
   sodipodi:docname="5:00.svg"
   xmlns:inkscape="http://www.inkscape.org/namespaces/inkscape"
   xmlns:sodipodi="http://sodipodi.sourceforge.net/DTD/sodipodi-0.dtd"
   xmlns="http://www.w3.org/2000/svg"
   xmlns:svg="http://www.w3.org/2000/svg">
  <sodipodi:namedview
     id="namedview582"
     pagecolor="#ffffff"
     bordercolor="#666666"
     borderopacity="1.0"
     inkscape:showpageshadow="2"
     inkscape:pageopacity="0.0"
     inkscape:pagecheckerboard="0"
     inkscape:deskcolor="#d1d1d1"
     inkscape:document-units="mm"
     showgrid="false"
     inkscape:zoom="0.44542649"
     inkscape:cx="1097.8243"
     inkscape:cy="505.13386"
     inkscape:window-width="1366"
     inkscape:window-height="685"
     inkscape:window-x="0"
     inkscape:window-y="27"
     inkscape:window-maximized="1"
     inkscape:current-layer="layer1" />
  <defs
     id="defs577">
    <clipPath
       clipPathUnits="userSpaceOnUse"
       id="clipPath328">
      <path
         d="m 777.27,1005.31 h 713.699 v 357.172 H 777.27 Z"
         id="path326" />
    </clipPath>
    <clipPath
       clipPathUnits="userSpaceOnUse"
       id="clipPath498">
      <path
         d="m 777.27,1005.31 h 713.699 v 357.172 H 777.27 Z"
         id="path496" />
    </clipPath>
    <clipPath
       clipPathUnits="userSpaceOnUse"
       id="clipPath502">
      <path
         d="m 777.27,1005.31 h 713.699 v 357.172 H 777.27 Z"
         id="path500" />
    </clipPath>
  </defs>
  <g
     inkscape:label="Layer 1"
     inkscape:groupmode="layer"
     id="layer1"
     transform="translate(185.45201,-14.934304)">
    <text
       xml:space="preserve"
       transform="scale(1,-1)"
       style="font-variant:normal;font-weight:normal;font-size:0.0352777px;font-family:Arial;-inkscape-font-specification:Arial;writing-mode:lr-tb;fill:#231f20;fill-opacity:1;fill-rule:nonzero;stroke:none;stroke-width:0.352777"
       id="text308"
       x="-185.05498"
       y="-14.936027"><tspan
         x="-185.05498"
         y="-14.936027"
         id="tspan306"
         style="stroke-width:0.352777">✔</tspan></text>
    <text
       xml:space="preserve"
       transform="scale(1,-1)"
       style="font-variant:normal;font-weight:normal;font-size:0.0352777px;font-family:Arial;-inkscape-font-specification:Arial;writing-mode:lr-tb;fill:#231f20;fill-opacity:1;fill-rule:nonzero;stroke:none;stroke-width:0.352777"
       id="text312"
       x="-183.64397"
       y="-14.936027"><tspan
         x="-183.64397 -180.85703 -177.99953 -175.21259 -172.39038 -169.56816 -166.78122"
         y="-14.936027"
         sodipodi:role="line"
         id="tspan310"
         style="stroke-width:0.352777">❉❊❋●■❏❑</tspan></text>
    <path
       d="m -180.05633,18.67806 -0.43282,-0.194381 c 0,0 -0.3587,-0.173566 -0.66008,0.06103 -0.24793,0.192616 -0.69356,0.507999 -1.4213,1.660874 -0.71508,1.157461 -0.77255,1.648173 -0.82134,1.9311 -0.0595,0.343252 0.3102,0.498827 0.3102,0.498827 l 0.43215,0.19438"
       style="fill:#9c9a9b;fill-opacity:1;fill-rule:nonzero;stroke:none;stroke-width:0.0352777"
       id="path314" />
    <path
       d="m -165.61114,18.67806 0.43286,-0.194381 c 0,0 0.35878,-0.173566 0.66005,0.06103 0.24765,0.192616 0.69356,0.507999 1.42098,1.660874 0.71543,1.157461 0.77294,1.648173 0.82127,1.9311 0.0596,0.343252 -0.31009,0.498827 -0.31009,0.498827 l -0.4318,0.19438"
       style="fill:#9c9a9b;fill-opacity:1;fill-rule:nonzero;stroke:none;stroke-width:0.0352777"
       id="path316" />
    <path
       d="m -180.05633,30.53348 -0.43282,0.194733 c 0,0 -0.3587,0.173566 -0.66008,-0.06103 -0.24793,-0.192617 -0.69356,-0.508352 -1.4213,-1.660874 -0.71508,-1.157814 -0.77255,-1.648174 -0.82134,-1.931454 -0.0595,-0.342899 0.3102,-0.498473 0.3102,-0.498473 l 0.43215,-0.19438"
       style="fill:#9c9a9b;fill-opacity:1;fill-rule:nonzero;stroke:none;stroke-width:0.0352777"
       id="path318" />
    <path
       d="m -165.61114,30.53348 0.43286,0.194733 c 0,0 0.35878,0.173566 0.66005,-0.06103 0.24765,-0.192617 0.69356,-0.508352 1.42098,-1.660874 0.71543,-1.157814 0.77294,-1.648174 0.82127,-1.931454 0.0596,-0.342899 -0.31009,-0.498473 -0.31009,-0.498473 l -0.4318,-0.19438"
       style="fill:#9c9a9b;fill-opacity:1;fill-rule:nonzero;stroke:none;stroke-width:0.0352777"
       id="path320" />
    <path
       d="m 1427.37,1183.89 c 0,-137.51 -131.15,-248.992 -292.95,-248.992 -161.779,0 -292.932,111.482 -292.932,248.992 0,137.51 131.153,249 292.932,249 161.8,0 292.95,-111.49 292.95,-249"
       style="fill:#ffffff;fill-opacity:1;fill-rule:nonzero;stroke:none"
       id="path330"
       clip-path="url(#clipPath328)"
       transform="matrix(0.03527769,0,0,-0.03527769,-212.85396,66.371027)" />
    <path
       d="m 1427.37,1183.89 c 0,-137.51 -131.15,-248.992 -292.95,-248.992 -161.779,0 -292.932,111.482 -292.932,248.992 0,137.51 131.153,249 292.932,249 161.8,0 292.95,-111.49 292.95,-249 z"
       style="fill:none;stroke:#9c9a9b;stroke-width:6;stroke-linecap:butt;stroke-linejoin:miter;stroke-miterlimit:10;stroke-dasharray:none;stroke-opacity:1"
       id="path332"
       clip-path="url(#clipPath328)"
       transform="matrix(0.03527769,0,0,-0.03527769,-212.85396,66.371027)" />
    <path
       d="m 1403.9,1183.89 c 0,-126.5 -120.64,-229.05 -269.47,-229.05 -148.821,0 -269.461,102.55 -269.461,229.05 0,126.5 120.64,229.05 269.461,229.05 148.83,0 269.47,-102.55 269.47,-229.05 z"
       style="fill:none;stroke:#9c9a9b;stroke-width:4;stroke-linecap:butt;stroke-linejoin:miter;stroke-miterlimit:10;stroke-dasharray:none;stroke-opacity:1"
       id="path334"
       clip-path="url(#clipPath328)"
       transform="matrix(0.03527769,0,0,-0.03527769,-212.85396,66.371027)" />
    <path
       d="m -185.45201,19.617504 c 0,0.656518 0.54045,1.197325 1.19736,1.197325 0.65609,0 1.1963,-0.540807 1.1963,-1.197325 0,-0.656517 -0.54021,-1.196266 -1.1963,-1.196266 -0.65691,0 -1.19736,0.539749 -1.19736,1.196266 m 1.19736,-1.084789 c 0.59753,0 1.08478,0.487185 1.08478,1.084789 0,0.596193 -0.48905,1.084789 -1.08478,1.084789 -0.59655,0 -1.08589,-0.488596 -1.08589,-1.084789 0,-0.597604 0.48687,-1.084789 1.08589,-1.084789 m 0.28567,1.39735 0.14221,0.414513 h 0.2092 l -0.51428,-1.420633 h -0.21911 l -0.53344,1.420633 h 0.19858 l 0.14894,-0.414513 z m -0.51015,-0.170391 0.22836,-0.624063 h 0.005 l 0.20919,0.624063"
       style="fill:#231f20;fill-opacity:1;fill-rule:nonzero;stroke:none;stroke-width:0.0352777"
       id="path336" />
    <path
       d="m -162.64957,19.61821 c 0,0.656518 0.54045,1.196619 1.19697,1.196619 0.65687,0 1.19662,-0.540101 1.19662,-1.196619 0,-0.656518 -0.53975,-1.197325 -1.19662,-1.197325 -0.65652,0 -1.19697,0.540807 -1.19697,1.197325 m 1.19697,-1.092197 c 0.59866,0 1.08514,0.493535 1.08514,1.092197 0,0.596193 -0.48895,1.084789 -1.08514,1.084789 -0.59584,0 -1.08479,-0.488596 -1.08479,-1.084789 0,-0.598662 0.48648,-1.092197 1.08479,-1.092197 m -0.24448,1.184977 h 0.37959 c 0.15593,0 0.33091,0.03951 0.33091,0.239536 0,0.158749 -0.10019,0.258938 -0.30092,0.258938 h -0.40958 z m -0.19085,0.663926 h 0.61242 c 0.31433,0 0.4819,-0.191205 0.4819,-0.419099 0,-0.244827 -0.16546,-0.309385 -0.25859,-0.347485 0.15875,-0.07197 0.19121,-0.202494 0.19121,-0.295274 0,-0.195791 -0.13724,-0.358774 -0.40252,-0.358774 h -0.62442 z m 0.19085,-1.257649 h 0.34925 c 0.21449,0 0.29563,0.07691 0.29563,0.209902 0,0.172155 -0.11395,0.228247 -0.29774,0.228247 h -0.34714"
       style="fill:#231f20;fill-opacity:1;fill-rule:nonzero;stroke:none;stroke-width:0.0352777"
       id="path338" />
    <path
       d="m -185.45201,29.593682 c 0,0.657224 0.54045,1.197325 1.19736,1.197325 0.65609,0 1.1963,-0.540101 1.1963,-1.197325 0,-0.656517 -0.54021,-1.196619 -1.1963,-1.196619 -0.65691,0 -1.19736,0.540102 -1.19736,1.196619 m 1.8048,-0.251177 c -0.0283,-0.237419 -0.21911,-0.463196 -0.58455,-0.463196 -0.41409,0 -0.66393,0.302683 -0.66393,0.738362 0,0.546452 0.3168,0.756354 0.64104,0.756354 0.10611,0 0.54214,-0.02293 0.62152,-0.558799 H -183.82 c -0.0653,0.330552 -0.28127,0.388408 -0.40502,0.388408 -0.35387,0 -0.47212,-0.255411 -0.47212,-0.590902 0,-0.374649 0.20891,-0.563032 0.46538,-0.563032 0.13723,0 0.34505,0.04374 0.39755,0.292805 z m -0.60744,-0.833612 c 0.59753,0 1.08478,0.486833 1.08478,1.084789 0,0.596193 -0.48905,1.085495 -1.08478,1.085495 -0.59655,0 -1.08589,-0.489302 -1.08589,-1.085495 0,-0.597956 0.48687,-1.084789 1.08589,-1.084789"
       style="fill:#231f20;fill-opacity:1;fill-rule:nonzero;stroke:none;stroke-width:0.0352777"
       id="path340" />
    <path
       d="m -162.65204,29.593682 c 0,0.657224 0.53975,1.197325 1.19662,1.197325 0.65687,0 1.19662,-0.540101 1.19662,-1.197325 0,-0.656517 -0.53975,-1.196619 -1.19662,-1.196619 -0.65687,0 -1.19662,0.540102 -1.19662,1.196619 m 1.19662,-1.091491 c 0.59866,0 1.08514,0.493535 1.08514,1.091491 0,0.596193 -0.4893,1.085495 -1.08514,1.085495 -0.59584,0 -1.08515,-0.489302 -1.08515,-1.085495 0,-0.597956 0.48684,-1.091491 1.08515,-1.091491 m -0.48401,1.843965 h 0.56797 c 0.46566,0 0.60571,-0.412044 0.60571,-0.730954 0,-0.41028 -0.22859,-0.689679 -0.59901,-0.689679 h -0.57467 z m 0.19085,-1.25765 h 0.35842 c 0.2607,0 0.42615,0.18168 0.42615,0.538337 0,0.358775 -0.16298,0.55386 -0.41239,0.55386 h -0.37218"
       style="fill:#231f20;fill-opacity:1;fill-rule:nonzero;stroke:none;stroke-width:0.0352777"
       id="path342" />
    <path
       d="m -167.0353,24.548267 c 0,-3.197217 -2.59079,-5.790127 -5.78377,-5.790127 -3.19793,0 -5.795,2.59291 -5.795,5.790127 0,3.198981 2.59707,5.791186 5.795,5.791186 3.19298,0 5.78377,-2.592205 5.78377,-5.791186 z"
       style="fill:none;stroke:#9c9a9b;stroke-width:0.141111;stroke-linecap:round;stroke-linejoin:round;stroke-miterlimit:10;stroke-dasharray:none;stroke-opacity:1"
       id="path344" />
    <path
       d="m -168.61221,23.278976 h 0.50519 v -0.822549 h -0.50519 z"
       style="fill:#231f20;fill-opacity:1;fill-rule:nonzero;stroke:none;stroke-width:0.0352777"
       id="path346" />
    <path
       d="m -169.17136,23.278976 h 0.50546 v -0.822549 h -0.50546 z"
       style="fill:#231f20;fill-opacity:1;fill-rule:nonzero;stroke:none;stroke-width:0.0352777"
       id="path348" />
    <path
       d="m -169.73016,23.278976 h 0.50519 v -0.822549 h -0.50519 z"
       style="fill:#231f20;fill-opacity:1;fill-rule:nonzero;stroke:none;stroke-width:0.0352777"
       id="path350" />
    <path
       d="m -170.84846,23.278976 h 0.50519 v -0.822549 h -0.50519 z"
       style="fill:#231f20;fill-opacity:1;fill-rule:nonzero;stroke:none;stroke-width:0.0352777"
       id="path352" />
    <path
       d="m -171.40832,23.278976 h 0.50519 v -0.822549 h -0.50519 z"
       style="fill:#231f20;fill-opacity:1;fill-rule:nonzero;stroke:none;stroke-width:0.0352777"
       id="path354" />
    <path
       d="m -171.96712,23.278976 h 0.50519 v -0.822549 h -0.50519 z"
       style="fill:#231f20;fill-opacity:1;fill-rule:nonzero;stroke:none;stroke-width:0.0352777"
       id="path356" />
    <path
       d="m -173.08613,23.278976 h 0.50616 v -0.822549 h -0.50616 z"
       style="fill:#231f20;fill-opacity:1;fill-rule:nonzero;stroke:none;stroke-width:0.0352777"
       id="path358" />
    <path
       d="m -174.20478,23.278976 h 0.50546 v -0.822549 h -0.50546 z"
       style="fill:#7b7979;fill-opacity:1;fill-rule:nonzero;stroke:none;stroke-width:0.0352777"
       id="path360" />
    <path
       d="m -174.76358,23.278976 h 0.50519 v -0.822549 h -0.50519 z"
       style="fill:#7b7979;fill-opacity:1;fill-rule:nonzero;stroke:none;stroke-width:0.0352777"
       id="path362" />
    <path
       d="m -175.32238,23.278976 h 0.50519 v -0.822549 h -0.50519 z"
       style="fill:#7b7979;fill-opacity:1;fill-rule:nonzero;stroke:none;stroke-width:0.0352777"
       id="path364" />
    <path
       d="m -176.44139,23.278976 h 0.50547 v -0.822549 h -0.50547 z"
       style="fill:#7b7979;fill-opacity:1;fill-rule:nonzero;stroke:none;stroke-width:0.0352777"
       id="path366" />
    <path
       d="m -177.00442,23.278976 h 0.50684 v -0.822549 h -0.50684 z"
       style="fill:#7b7979;fill-opacity:1;fill-rule:nonzero;stroke:none;stroke-width:0.0352777"
       id="path368" />
    <path
       d="m -177.56322,23.278976 h 0.50519 v -0.822549 h -0.50519 z"
       style="fill:#7b7979;fill-opacity:1;fill-rule:nonzero;stroke:none;stroke-width:0.0352777"
       id="path370" />
    <path
       d="m -168.61221,24.156332 h 0.50519 v -0.822686 h -0.50519 z"
       style="fill:#231f20;fill-opacity:1;fill-rule:nonzero;stroke:none;stroke-width:0.0352777"
       id="path372" />
    <path
       d="m -169.73016,24.156332 h 0.50519 v -0.822686 h -0.50519 z"
       style="fill:#231f20;fill-opacity:1;fill-rule:nonzero;stroke:none;stroke-width:0.0352777"
       id="path374" />
    <path
       d="m -170.84846,24.156332 h 0.50519 v -0.822686 h -0.50519 z"
       style="fill:#231f20;fill-opacity:1;fill-rule:nonzero;stroke:none;stroke-width:0.0352777"
       id="path376" />
    <path
       d="m -171.96712,24.156332 h 0.50519 v -0.822686 h -0.50519 z"
       style="fill:#231f20;fill-opacity:1;fill-rule:nonzero;stroke:none;stroke-width:0.0352777"
       id="path378" />
    <path
       d="m -173.08613,24.156332 h 0.50616 v -0.822686 h -0.50616 z"
       style="fill:#231f20;fill-opacity:1;fill-rule:nonzero;stroke:none;stroke-width:0.0352777"
       id="path380" />
    <path
       d="m -175.32238,24.156332 h 0.50519 v -0.822686 h -0.50519 z"
       style="fill:#7b7979;fill-opacity:1;fill-rule:nonzero;stroke:none;stroke-width:0.0352777"
       id="path382" />
    <path
       d="m -176.44139,24.156332 h 0.50547 v -0.822686 h -0.50547 z"
       style="fill:#7b7979;fill-opacity:1;fill-rule:nonzero;stroke:none;stroke-width:0.0352777"
       id="path384" />
    <path
       d="m -177.56322,24.156332 h 0.50519 v -0.822686 h -0.50519 z"
       style="fill:#7b7979;fill-opacity:1;fill-rule:nonzero;stroke:none;stroke-width:0.0352777"
       id="path386" />
    <path
       d="m -168.61221,25.031924 h 0.50519 v -0.821998 h -0.50519 z"
       style="fill:#231f20;fill-opacity:1;fill-rule:nonzero;stroke:none;stroke-width:0.0352777"
       id="path388" />
    <path
       d="m -169.73016,25.031924 h 0.50519 v -0.821998 h -0.50519 z"
       style="fill:#231f20;fill-opacity:1;fill-rule:nonzero;stroke:none;stroke-width:0.0352777"
       id="path390" />
    <path
       d="m -170.84846,25.031924 h 0.50519 v -0.821998 h -0.50519 z"
       style="fill:#231f20;fill-opacity:1;fill-rule:nonzero;stroke:none;stroke-width:0.0352777"
       id="path392" />
    <path
       d="m -171.96712,25.031924 h 0.50519 v -0.821998 h -0.50519 z"
       style="fill:#231f20;fill-opacity:1;fill-rule:nonzero;stroke:none;stroke-width:0.0352777"
       id="path394" />
    <path
       d="m -174.20478,25.031924 h 0.50546 v -0.821998 h -0.50546 z"
       style="fill:#7b7979;fill-opacity:1;fill-rule:nonzero;stroke:none;stroke-width:0.0352777"
       id="path396" />
    <path
       d="m -174.76358,25.031924 h 0.50519 v -0.821998 h -0.50519 z"
       style="fill:#7b7979;fill-opacity:1;fill-rule:nonzero;stroke:none;stroke-width:0.0352777"
       id="path398" />
    <path
       d="m -175.32238,25.031924 h 0.50519 v -0.821998 h -0.50519 z"
       style="fill:#7b7979;fill-opacity:1;fill-rule:nonzero;stroke:none;stroke-width:0.0352777"
       id="path400" />
    <path
       d="m -176.44139,25.031924 h 0.50547 v -0.821998 h -0.50547 z"
       style="fill:#7b7979;fill-opacity:1;fill-rule:nonzero;stroke:none;stroke-width:0.0352777"
       id="path402" />
    <path
       d="m -177.56322,25.031924 h 0.50519 v -0.821998 h -0.50519 z"
       style="fill:#7b7979;fill-opacity:1;fill-rule:nonzero;stroke:none;stroke-width:0.0352777"
       id="path404" />
    <path
       d="m -168.61221,25.90928 h 0.50519 v -0.822686 h -0.50519 z"
       style="fill:#231f20;fill-opacity:1;fill-rule:nonzero;stroke:none;stroke-width:0.0352777"
       id="path406" />
    <path
       d="m -169.73016,25.90928 h 0.50519 v -0.822686 h -0.50519 z"
       style="fill:#231f20;fill-opacity:1;fill-rule:nonzero;stroke:none;stroke-width:0.0352777"
       id="path408" />
    <path
       d="m -170.84846,25.90928 h 0.50519 v -0.822686 h -0.50519 z"
       style="fill:#231f20;fill-opacity:1;fill-rule:nonzero;stroke:none;stroke-width:0.0352777"
       id="path410" />
    <path
       d="m -171.96712,25.90928 h 0.50519 v -0.822686 h -0.50519 z"
       style="fill:#231f20;fill-opacity:1;fill-rule:nonzero;stroke:none;stroke-width:0.0352777"
       id="path412" />
    <path
       d="m -174.20478,25.90928 h 0.50546 v -0.822686 h -0.50546 z"
       style="fill:#7b7979;fill-opacity:1;fill-rule:nonzero;stroke:none;stroke-width:0.0352777"
       id="path414" />
    <path
       d="m -176.44139,25.90928 h 0.50547 v -0.822686 h -0.50547 z"
       style="fill:#7b7979;fill-opacity:1;fill-rule:nonzero;stroke:none;stroke-width:0.0352777"
       id="path416" />
    <path
       d="m -177.56322,25.90928 h 0.50519 v -0.822686 h -0.50519 z"
       style="fill:#7b7979;fill-opacity:1;fill-rule:nonzero;stroke:none;stroke-width:0.0352777"
       id="path418" />
    <path
       d="m -168.61221,26.785578 h 0.50519 V 25.96358 h -0.50519 z"
       style="fill:#231f20;fill-opacity:1;fill-rule:nonzero;stroke:none;stroke-width:0.0352777"
       id="path420" />
    <path
       d="m -169.17136,26.785578 h 0.50546 V 25.96358 h -0.50546 z"
       style="fill:#231f20;fill-opacity:1;fill-rule:nonzero;stroke:none;stroke-width:0.0352777"
       id="path422" />
    <path
       d="m -169.73016,26.785578 h 0.50519 V 25.96358 h -0.50519 z"
       style="fill:#231f20;fill-opacity:1;fill-rule:nonzero;stroke:none;stroke-width:0.0352777"
       id="path424" />
    <path
       d="m -170.84846,26.785578 h 0.50519 V 25.96358 h -0.50519 z"
       style="fill:#231f20;fill-opacity:1;fill-rule:nonzero;stroke:none;stroke-width:0.0352777"
       id="path426" />
    <path
       d="m -171.40832,26.785578 h 0.50519 V 25.96358 h -0.50519 z"
       style="fill:#231f20;fill-opacity:1;fill-rule:nonzero;stroke:none;stroke-width:0.0352777"
       id="path428" />
    <path
       d="m -171.96712,26.785578 h 0.50519 V 25.96358 h -0.50519 z"
       style="fill:#231f20;fill-opacity:1;fill-rule:nonzero;stroke:none;stroke-width:0.0352777"
       id="path430" />
    <path
       d="m -174.20478,26.785578 h 0.50546 V 25.96358 h -0.50546 z"
       style="fill:#7b7979;fill-opacity:1;fill-rule:nonzero;stroke:none;stroke-width:0.0352777"
       id="path432" />
    <path
       d="m -174.76358,26.785578 h 0.50519 V 25.96358 h -0.50519 z"
       style="fill:#7b7979;fill-opacity:1;fill-rule:nonzero;stroke:none;stroke-width:0.0352777"
       id="path434" />
    <path
       d="m -175.32238,26.785578 h 0.50519 V 25.96358 h -0.50519 z"
       style="fill:#7b7979;fill-opacity:1;fill-rule:nonzero;stroke:none;stroke-width:0.0352777"
       id="path436" />
    <path
       d="m -176.44139,26.785578 h 0.50547 V 25.96358 h -0.50547 z"
       style="fill:#7b7979;fill-opacity:1;fill-rule:nonzero;stroke:none;stroke-width:0.0352777"
       id="path438" />
    <path
       d="m -177.00442,26.785578 h 0.50684 V 25.96358 h -0.50684 z"
       style="fill:#7b7979;fill-opacity:1;fill-rule:nonzero;stroke:none;stroke-width:0.0352777"
       id="path440" />
    <path
       d="m -177.56322,26.785578 h 0.50519 V 25.96358 h -0.50519 z"
       style="fill:#7b7979;fill-opacity:1;fill-rule:nonzero;stroke:none;stroke-width:0.0352777"
       id="path442" />
    <path
       d="m -173.06708,27.12248 c -0.65052,0.628649 -1.53422,1.015292 -2.50718,1.015292 -1.99954,0 -3.62023,-1.630887 -3.62023,-3.641716 0,-2.010828 1.62069,-3.641716 3.62023,-3.641716 1.05621,0 2.00659,0.455435 2.6684,1.18145"
       style="fill:none;stroke:#ffffff;stroke-width:1.5875;stroke-linecap:butt;stroke-linejoin:miter;stroke-miterlimit:4;stroke-dasharray:0.423332, 0.772581;stroke-dashoffset:0;stroke-opacity:1"
       id="path444" />
    <path
       d="m -173.15668,27.206794 c -0.64064,0.578907 -1.48837,0.931331 -2.41793,0.931331 -1.99919,0 -3.61988,-1.630888 -3.61988,-3.641716 0,-2.010828 1.62069,-3.641716 3.61988,-3.641716 1.03293,0 1.96461,0.435327 2.62395,1.132767"
       style="fill:none;stroke:#231f20;stroke-width:1.41111;stroke-linecap:butt;stroke-linejoin:miter;stroke-miterlimit:4;stroke-dasharray:0.176388, 1.02305;stroke-dashoffset:0;stroke-opacity:1"
       id="path446" />
    <text
       xml:space="preserve"
       transform="scale(1,-1)"
       style="font-variant:normal;font-weight:normal;font-size:0.0352777px;font-family:Arial;-inkscape-font-specification:Arial;writing-mode:lr-tb;fill:#231f20;fill-opacity:1;fill-rule:nonzero;stroke:none;stroke-width:0.352777"
       id="text452"
       x="-176.51794"
       y="-34.938526"><tspan
         x="-176.51794"
         y="-34.938526"
         id="tspan450"
         style="stroke-width:0.352777">✕</tspan></text>
    <path
       d="M -175.45185,27.559924 V 32.3355"
       style="fill:none;stroke:#ffffff;stroke-width:0.423332;stroke-linecap:round;stroke-linejoin:round;stroke-miterlimit:4;stroke-dasharray:none;stroke-opacity:1"
       id="path454" />
    <path
       d="M -175.45185,27.559924 V 32.3355"
       style="fill:none;stroke:#231f20;stroke-width:0.0881942;stroke-linecap:round;stroke-linejoin:round;stroke-miterlimit:4;stroke-dasharray:none;stroke-opacity:1"
       id="path456" />
  </g>
</svg>
