<?xml version="1.0" encoding="UTF-8" standalone="no"?>
<!-- Created with Inkscape (http://www.inkscape.org/) -->

<svg
   width="25.19603mm"
   height="20.942993mm"
   viewBox="0 0 25.19603 20.942993"
   version="1.1"
   id="svg464"
   inkscape:version="1.2.2 (b0a8486541, 2022-12-01)"
   sodipodi:docname="6:30_page45.svg"
   xmlns:inkscape="http://www.inkscape.org/namespaces/inkscape"
   xmlns:sodipodi="http://sodipodi.sourceforge.net/DTD/sodipodi-0.dtd"
   xmlns="http://www.w3.org/2000/svg"
   xmlns:svg="http://www.w3.org/2000/svg">
  <sodipodi:namedview
     id="namedview466"
     pagecolor="#ffffff"
     bordercolor="#666666"
     borderopacity="1.0"
     inkscape:showpageshadow="2"
     inkscape:pageopacity="0.0"
     inkscape:pagecheckerboard="0"
     inkscape:deskcolor="#d1d1d1"
     inkscape:document-units="mm"
     showgrid="false"
     inkscape:zoom="0.44542649"
     inkscape:cx="1100.0693"
     inkscape:cy="505.13386"
     inkscape:window-width="1366"
     inkscape:window-height="685"
     inkscape:window-x="0"
     inkscape:window-y="27"
     inkscape:window-maximized="1"
     inkscape:current-layer="layer1" />
  <defs
     id="defs461" />
  <g
     inkscape:label="Layer 1"
     inkscape:groupmode="layer"
     id="layer1"
     transform="translate(186.04601,-15.066939)">
    <path
       d="m -180.65033,18.567611 -0.43282,-0.2286 c 0,0 -0.3587,-0.204258 -0.66008,0.07161 -0.24793,0.226483 -0.69356,0.597957 -1.4213,1.954031 -0.71508,1.362072 -0.77255,1.939215 -0.82134,2.271883 -0.0595,0.40393 0.3102,0.587021 0.3102,0.587021 l 0.43215,0.228599"
       style="fill:#231f20;fill-opacity:1;fill-rule:nonzero;stroke:none;stroke-width:0.0352777"
       id="path280" />
    <path
       d="m -166.20514,18.567611 0.43286,-0.2286 c 0,0 0.35878,-0.204258 0.66005,0.07161 0.24765,0.226483 0.69356,0.597957 1.42098,1.954031 0.71543,1.362072 0.77294,1.939215 0.82127,2.271883 0.0596,0.40393 -0.31009,0.587021 -0.31009,0.587021 l -0.4318,0.228599"
       style="fill:#231f20;fill-opacity:1;fill-rule:nonzero;stroke:none;stroke-width:0.0352777"
       id="path282" />
    <path
       d="m -180.65033,32.515351 -0.43282,0.228952 c 0,0 -0.3587,0.204258 -0.66008,-0.07161 -0.24793,-0.226835 -0.69356,-0.597957 -1.4213,-1.954031 -0.71508,-1.362424 -0.77255,-1.939567 -0.82134,-2.272236 -0.0595,-0.403577 0.3102,-0.586668 0.3102,-0.586668 l 0.43215,-0.228599"
       style="fill:#231f20;fill-opacity:1;fill-rule:nonzero;stroke:none;stroke-width:0.0352777"
       id="path284" />
    <path
       d="m -166.20514,32.515351 0.43286,0.228952 c 0,0 0.35878,0.204258 0.66005,-0.07161 0.24765,-0.226835 0.69356,-0.597957 1.42098,-1.954031 0.71543,-1.362424 0.77294,-1.939567 0.82127,-2.272236 0.0596,-0.403577 -0.31009,-0.586668 -0.31009,-0.586668 l -0.4318,-0.228599"
       style="fill:#231f20;fill-opacity:1;fill-rule:nonzero;stroke:none;stroke-width:0.0352777"
       id="path286" />
    <path
       d="m -163.09364,25.541657 c 0,5.707225 -4.62667,10.333894 -10.3346,10.333894 -5.70719,0 -10.33397,-4.626669 -10.33397,-10.333894 0,-5.707225 4.62678,-10.334246 10.33397,-10.334246 5.70793,0 10.3346,4.627021 10.3346,10.334246"
       style="fill:#ffffff;fill-opacity:1;fill-rule:nonzero;stroke:none;stroke-width:0.0352777"
       id="path288" />
    <path
       d="m -163.09364,25.541657 c 0,5.707225 -4.62667,10.333894 -10.3346,10.333894 -5.70719,0 -10.33397,-4.626669 -10.33397,-10.333894 0,-5.707225 4.62678,-10.334246 10.33397,-10.334246 5.70793,0 10.3346,4.627021 10.3346,10.334246 z"
       style="fill:none;stroke:#231f20;stroke-width:0.211666;stroke-linecap:butt;stroke-linejoin:miter;stroke-miterlimit:10;stroke-dasharray:none;stroke-opacity:1"
       id="path290" />
    <path
       d="m -186.04601,19.592427 c 0,0.656518 0.54045,1.197325 1.19736,1.197325 0.65609,0 1.1963,-0.540807 1.1963,-1.197325 0,-0.656517 -0.54021,-1.196619 -1.1963,-1.196619 -0.65691,0 -1.19736,0.540102 -1.19736,1.196619 m 1.19736,-1.084789 c 0.59753,0 1.08478,0.486833 1.08478,1.084789 0,0.595841 -0.48905,1.084789 -1.08478,1.084789 -0.59655,0 -1.08589,-0.488948 -1.08589,-1.084789 0,-0.597956 0.48687,-1.084789 1.08589,-1.084789 m 0.28567,1.39735 0.14221,0.41416 h 0.2092 l -0.51428,-1.420633 h -0.21911 l -0.53344,1.420633 h 0.19858 l 0.14894,-0.41416 z m -0.51015,-0.170391 0.22836,-0.624416 h 0.005 l 0.20919,0.624416"
       style="fill:#231f20;fill-opacity:1;fill-rule:nonzero;stroke:none;stroke-width:0.0352777"
       id="path292" />
    <path
       d="m -163.24357,19.593133 c 0,0.656518 0.54045,1.196619 1.19697,1.196619 0.65687,0 1.19662,-0.540101 1.19662,-1.196619 0,-0.656518 -0.53975,-1.197325 -1.19662,-1.197325 -0.65652,0 -1.19697,0.540807 -1.19697,1.197325 m 1.19697,-1.092197 c 0.59866,0 1.08514,0.493535 1.08514,1.092197 0,0.596193 -0.48895,1.084789 -1.08514,1.084789 -0.59584,0 -1.08479,-0.488596 -1.08479,-1.084789 0,-0.598662 0.48648,-1.092197 1.08479,-1.092197 m -0.24448,1.184977 h 0.37959 c 0.15593,0 0.33091,0.03951 0.33091,0.239536 0,0.159102 -0.10019,0.258938 -0.30092,0.258938 h -0.40958 z m -0.19085,0.663926 h 0.61242 c 0.31433,0 0.4819,-0.190852 0.4819,-0.419099 0,-0.244827 -0.16546,-0.309385 -0.25859,-0.347485 0.15875,-0.07197 0.19121,-0.202494 0.19121,-0.295274 0,-0.195791 -0.13724,-0.358774 -0.40252,-0.358774 h -0.62442 z m 0.19085,-1.257649 h 0.34925 c 0.21449,0 0.29563,0.07691 0.29563,0.209902 0,0.172155 -0.11395,0.228247 -0.29774,0.228247 h -0.34714"
       style="fill:#231f20;fill-opacity:1;fill-rule:nonzero;stroke:none;stroke-width:0.0352777"
       id="path294" />
    <path
       d="m -186.04601,31.489828 c 0,0.657224 0.54045,1.197325 1.19736,1.197325 0.65609,0 1.1963,-0.540101 1.1963,-1.197325 0,-0.656517 -0.54021,-1.196266 -1.1963,-1.196266 -0.65691,0 -1.19736,0.539749 -1.19736,1.196266 m 1.8048,-0.251177 c -0.0283,-0.237419 -0.21911,-0.463196 -0.58455,-0.463196 -0.41409,0 -0.66393,0.302683 -0.66393,0.738362 0,0.546452 0.3168,0.756354 0.64104,0.756354 0.10611,0 0.54214,-0.02293 0.62152,-0.558799 h -0.18687 c -0.0653,0.330905 -0.28127,0.38876 -0.40502,0.38876 -0.35387,0 -0.47212,-0.255763 -0.47212,-0.591254 0,-0.374649 0.20891,-0.563032 0.46538,-0.563032 0.13723,0 0.34505,0.04375 0.39755,0.292805 z m -0.60744,-0.833612 c 0.59753,0 1.08478,0.487185 1.08478,1.084789 0,0.596193 -0.48905,1.085848 -1.08478,1.085848 -0.59655,0 -1.08589,-0.489655 -1.08589,-1.085848 0,-0.597604 0.48687,-1.084789 1.08589,-1.084789"
       style="fill:#231f20;fill-opacity:1;fill-rule:nonzero;stroke:none;stroke-width:0.0352777"
       id="path296" />
    <path
       d="m -163.24604,31.489828 c 0,0.657224 0.53975,1.197325 1.19662,1.197325 0.65687,0 1.19662,-0.540101 1.19662,-1.197325 0,-0.656517 -0.53975,-1.196266 -1.19662,-1.196266 -0.65687,0 -1.19662,0.539749 -1.19662,1.196266 m 1.19662,-1.091491 c 0.59866,0 1.08514,0.493887 1.08514,1.091491 0,0.596193 -0.4893,1.085848 -1.08514,1.085848 -0.59584,0 -1.08515,-0.489655 -1.08515,-1.085848 0,-0.597604 0.48684,-1.091491 1.08515,-1.091491 m -0.48401,1.843964 h 0.56797 c 0.46566,0 0.60571,-0.41169 0.60571,-0.730953 0,-0.41028 -0.22859,-0.689679 -0.59901,-0.689679 h -0.57467 z m 0.19085,-1.257649 h 0.35842 c 0.2607,0 0.42615,0.18168 0.42615,0.538337 0,0.358775 -0.16298,0.55386 -0.41239,0.55386 h -0.37218"
       style="fill:#231f20;fill-opacity:1;fill-rule:nonzero;stroke:none;stroke-width:0.0352777"
       id="path298" />
    <path
       d="m -173.42648,34.896948 c -5.1685,0 -9.35843,-4.18852 -9.35843,-9.355291 0,-5.166418 4.18993,-9.354938 9.35843,-9.354938 5.1636,0 9.35176,4.18852 9.35176,9.354938 0,5.166771 -4.18816,9.355291 -9.35176,9.355291"
       style="fill:#a7a5a6;fill-opacity:1;fill-rule:nonzero;stroke:none;stroke-width:0.0352777"
       id="path300" />
    <path
       d="m -173.42648,34.896948 c -5.1685,0 -9.35843,-4.18852 -9.35843,-9.355291 0,-5.166418 4.18993,-9.354938 9.35843,-9.354938 5.1636,0 9.35176,4.18852 9.35176,9.354938 0,5.166771 -4.18816,9.355291 -9.35176,9.355291 z"
       style="fill:none;stroke:#231f20;stroke-width:0.141111;stroke-linecap:butt;stroke-linejoin:miter;stroke-miterlimit:10;stroke-dasharray:none;stroke-opacity:1"
       id="path302" />
    <path
       d="m -170.63002,30.165151 c 0,-1.522585 -1.23366,-2.756951 -2.75413,-2.756951 -1.52293,0 -2.75942,1.234366 -2.75942,2.756951 0,1.522938 1.23649,2.757304 2.75942,2.757304 1.52047,0 2.75413,-1.234366 2.75413,-2.757304 z"
       style="fill:none;stroke:#231f20;stroke-width:0.141111;stroke-linecap:round;stroke-linejoin:round;stroke-miterlimit:10;stroke-dasharray:none;stroke-opacity:1"
       id="path304" />
    <path
       d="m -166.93821,25.111622 v 0.86007 l 2.51072,0.08361 v -1.026228 z"
       style="fill:none;stroke:#231f20;stroke-width:0.141111;stroke-linecap:round;stroke-linejoin:round;stroke-miterlimit:10;stroke-dasharray:none;stroke-opacity:1"
       id="path306" />
    <path
       d="m -179.92011,25.111622 -2.51174,-0.08255 v 1.025875 l 2.51174,-0.08325 z"
       style="fill:none;stroke:#231f20;stroke-width:0.141111;stroke-linecap:round;stroke-linejoin:round;stroke-miterlimit:10;stroke-dasharray:none;stroke-opacity:1"
       id="path308" />
    <path
       d="m -174.32606,18.267397 0.56656,1.315153 h 0.6664 l 0.55985,-1.315153 V 16.50563 h -1.79281 z"
       style="fill:none;stroke:#231f20;stroke-width:0.141111;stroke-linecap:round;stroke-linejoin:round;stroke-miterlimit:10;stroke-dasharray:none;stroke-opacity:1"
       id="path310" />
    <path
       d="m -173.956,34.577332 1.05269,3.53e-4 v -1.400172 h -1.05269 z"
       style="fill:none;stroke:#231f20;stroke-width:0.141111;stroke-linecap:round;stroke-linejoin:round;stroke-miterlimit:10;stroke-dasharray:none;stroke-opacity:1"
       id="path312" />
    <path
       d="m -177.00434,20.069735 0.62335,-0.359833 -1.19591,-2.208383 -0.74259,0.428624 z"
       style="fill:none;stroke:#231f20;stroke-width:0.141111;stroke-linecap:round;stroke-linejoin:round;stroke-miterlimit:10;stroke-dasharray:none;stroke-opacity:1"
       id="path314" />
    <path
       d="m -179.26113,22.590326 0.36022,-0.623357 -2.13994,-1.314447 -0.42898,0.742243 z"
       style="fill:none;stroke:#231f20;stroke-width:0.141111;stroke-linecap:round;stroke-linejoin:round;stroke-miterlimit:10;stroke-dasharray:none;stroke-opacity:1"
       id="path316" />
    <path
       d="m -178.89981,29.117404 -0.3598,-0.623357 -2.20803,1.195914 0.42831,0.742595 z"
       style="fill:none;stroke:#231f20;stroke-width:0.141111;stroke-linecap:round;stroke-linejoin:round;stroke-miterlimit:10;stroke-dasharray:none;stroke-opacity:1"
       id="path318" />
    <path
       d="m -176.37922,31.373765 -0.62336,-0.360185 -1.31445,2.139944 0.74189,0.428977 z"
       style="fill:none;stroke:#231f20;stroke-width:0.141111;stroke-linecap:round;stroke-linejoin:round;stroke-miterlimit:10;stroke-dasharray:none;stroke-opacity:1"
       id="path320" />
    <path
       d="m -169.85214,31.012521 -0.62336,0.359833 1.19556,2.20803 0.7433,-0.428271 z"
       style="fill:none;stroke:#231f20;stroke-width:0.141111;stroke-linecap:round;stroke-linejoin:round;stroke-miterlimit:10;stroke-dasharray:none;stroke-opacity:1"
       id="path322" />
    <path
       d="m -167.59543,28.492283 -0.36018,0.623357 2.13994,1.314447 0.42933,-0.742243 z"
       style="fill:none;stroke:#231f20;stroke-width:0.141111;stroke-linecap:round;stroke-linejoin:round;stroke-miterlimit:10;stroke-dasharray:none;stroke-opacity:1"
       id="path324" />
    <path
       d="m -167.95667,21.964852 0.35983,0.62371 2.20838,-1.195914 -0.42862,-0.742948 z"
       style="fill:none;stroke:#231f20;stroke-width:0.141111;stroke-linecap:round;stroke-linejoin:round;stroke-miterlimit:10;stroke-dasharray:none;stroke-opacity:1"
       id="path326" />
    <path
       d="m -170.47726,19.708491 0.62335,0.360185 1.31445,-2.139944 -0.74224,-0.428977 z"
       style="fill:none;stroke:#231f20;stroke-width:0.141111;stroke-linecap:round;stroke-linejoin:round;stroke-miterlimit:10;stroke-dasharray:none;stroke-opacity:1"
       id="path328" />
    <path
       d="m -171.38073,29.560844 h 0.2402 v -0.391639 h -0.2402 z"
       style="fill:#231f20;fill-opacity:1;fill-rule:nonzero;stroke:none;stroke-width:0.0352777"
       id="path330" />
    <path
       d="m -171.64707,29.560844 h 0.2406 v -0.391639 h -0.2406 z"
       style="fill:#231f20;fill-opacity:1;fill-rule:nonzero;stroke:none;stroke-width:0.0352777"
       id="path332" />
    <path
       d="m -171.91307,29.560844 h 0.24061 v -0.391639 h -0.24061 z"
       style="fill:#231f20;fill-opacity:1;fill-rule:nonzero;stroke:none;stroke-width:0.0352777"
       id="path334" />
    <path
       d="m -172.44541,29.560844 h 0.24061 v -0.391639 h -0.24061 z"
       style="fill:#231f20;fill-opacity:1;fill-rule:nonzero;stroke:none;stroke-width:0.0352777"
       id="path336" />
    <path
       d="m -172.71211,29.560844 h 0.24061 v -0.391639 h -0.24061 z"
       style="fill:#231f20;fill-opacity:1;fill-rule:nonzero;stroke:none;stroke-width:0.0352777"
       id="path338" />
    <path
       d="m -172.97845,29.560844 h 0.24019 v -0.391639 h -0.24019 z"
       style="fill:#231f20;fill-opacity:1;fill-rule:nonzero;stroke:none;stroke-width:0.0352777"
       id="path340" />
    <path
       d="m -174.04419,29.560844 h 0.24088 v -0.391639 h -0.24088 z"
       style="fill:#231f20;fill-opacity:1;fill-rule:nonzero;stroke:none;stroke-width:0.0352777"
       id="path342" />
    <path
       d="m -174.30983,29.560844 h 0.24019 v -0.391639 h -0.24019 z"
       style="fill:#231f20;fill-opacity:1;fill-rule:nonzero;stroke:none;stroke-width:0.0352777"
       id="path344" />
    <path
       d="m -174.57618,29.560844 h 0.24033 v -0.391639 h -0.24033 z"
       style="fill:#231f20;fill-opacity:1;fill-rule:nonzero;stroke:none;stroke-width:0.0352777"
       id="path346" />
    <path
       d="m -171.38073,29.978179 h 0.2402 v -0.391501 h -0.2402 z"
       style="fill:#231f20;fill-opacity:1;fill-rule:nonzero;stroke:none;stroke-width:0.0352777"
       id="path348" />
    <path
       d="m -171.91307,29.978179 h 0.24061 v -0.391501 h -0.24061 z"
       style="fill:#231f20;fill-opacity:1;fill-rule:nonzero;stroke:none;stroke-width:0.0352777"
       id="path350" />
    <path
       d="m -172.44541,29.978179 h 0.24061 v -0.391501 h -0.24061 z"
       style="fill:#231f20;fill-opacity:1;fill-rule:nonzero;stroke:none;stroke-width:0.0352777"
       id="path352" />
    <path
       d="m -174.57618,29.978179 h 0.24033 v -0.391501 h -0.24033 z"
       style="fill:#231f20;fill-opacity:1;fill-rule:nonzero;stroke:none;stroke-width:0.0352777"
       id="path354" />
    <path
       d="m -171.38073,30.395514 h 0.2402 v -0.391638 h -0.2402 z"
       style="fill:#231f20;fill-opacity:1;fill-rule:nonzero;stroke:none;stroke-width:0.0352777"
       id="path356" />
    <path
       d="m -171.91307,30.395514 h 0.24061 v -0.391638 h -0.24061 z"
       style="fill:#231f20;fill-opacity:1;fill-rule:nonzero;stroke:none;stroke-width:0.0352777"
       id="path358" />
    <path
       d="m -172.44541,30.395514 h 0.24061 v -0.391638 h -0.24061 z"
       style="fill:#231f20;fill-opacity:1;fill-rule:nonzero;stroke:none;stroke-width:0.0352777"
       id="path360" />
    <path
       d="m -172.71211,30.395514 h 0.24061 v -0.391638 h -0.24061 z"
       style="fill:#231f20;fill-opacity:1;fill-rule:nonzero;stroke:none;stroke-width:0.0352777"
       id="path362" />
    <path
       d="m -172.97845,30.395514 h 0.24019 v -0.391638 h -0.24019 z"
       style="fill:#231f20;fill-opacity:1;fill-rule:nonzero;stroke:none;stroke-width:0.0352777"
       id="path364" />
    <path
       d="m -174.04419,30.395514 h 0.24088 v -0.391638 h -0.24088 z"
       style="fill:#231f20;fill-opacity:1;fill-rule:nonzero;stroke:none;stroke-width:0.0352777"
       id="path366" />
    <path
       d="m -174.30983,30.395514 h 0.24019 v -0.391638 h -0.24019 z"
       style="fill:#231f20;fill-opacity:1;fill-rule:nonzero;stroke:none;stroke-width:0.0352777"
       id="path368" />
    <path
       d="m -174.57618,30.395514 h 0.24033 v -0.391638 h -0.24033 z"
       style="fill:#231f20;fill-opacity:1;fill-rule:nonzero;stroke:none;stroke-width:0.0352777"
       id="path370" />
    <path
       d="m -171.38073,30.812849 h 0.2402 v -0.391913 h -0.2402 z"
       style="fill:#231f20;fill-opacity:1;fill-rule:nonzero;stroke:none;stroke-width:0.0352777"
       id="path372" />
    <path
       d="m -171.91307,30.812849 h 0.24061 v -0.391913 h -0.24061 z"
       style="fill:#231f20;fill-opacity:1;fill-rule:nonzero;stroke:none;stroke-width:0.0352777"
       id="path374" />
    <path
       d="m -172.44541,30.812849 h 0.24061 v -0.391913 h -0.24061 z"
       style="fill:#231f20;fill-opacity:1;fill-rule:nonzero;stroke:none;stroke-width:0.0352777"
       id="path376" />
    <path
       d="m -173.51115,30.812849 h 0.24061 v -0.391913 h -0.24061 z"
       style="fill:#231f20;fill-opacity:1;fill-rule:nonzero;stroke:none;stroke-width:0.0352777"
       id="path378" />
    <path
       d="m -174.04419,30.812849 h 0.24088 v -0.391913 h -0.24088 z"
       style="fill:#231f20;fill-opacity:1;fill-rule:nonzero;stroke:none;stroke-width:0.0352777"
       id="path380" />
    <path
       d="m -174.57618,30.812849 h 0.24033 v -0.391913 h -0.24033 z"
       style="fill:#231f20;fill-opacity:1;fill-rule:nonzero;stroke:none;stroke-width:0.0352777"
       id="path382" />
    <path
       d="m -171.38073,31.230537 h 0.2402 v -0.391501 h -0.2402 z"
       style="fill:#231f20;fill-opacity:1;fill-rule:nonzero;stroke:none;stroke-width:0.0352777"
       id="path384" />
    <path
       d="m -171.64707,31.230537 h 0.2406 v -0.391501 h -0.2406 z"
       style="fill:#231f20;fill-opacity:1;fill-rule:nonzero;stroke:none;stroke-width:0.0352777"
       id="path386" />
    <path
       d="m -171.91307,31.230537 h 0.24061 v -0.391501 h -0.24061 z"
       style="fill:#231f20;fill-opacity:1;fill-rule:nonzero;stroke:none;stroke-width:0.0352777"
       id="path388" />
    <path
       d="m -172.44541,31.230537 h 0.24061 v -0.391501 h -0.24061 z"
       style="fill:#231f20;fill-opacity:1;fill-rule:nonzero;stroke:none;stroke-width:0.0352777"
       id="path390" />
    <path
       d="m -172.71211,31.230537 h 0.24061 v -0.391501 h -0.24061 z"
       style="fill:#231f20;fill-opacity:1;fill-rule:nonzero;stroke:none;stroke-width:0.0352777"
       id="path392" />
    <path
       d="m -172.97845,31.230537 h 0.24019 v -0.391501 h -0.24019 z"
       style="fill:#231f20;fill-opacity:1;fill-rule:nonzero;stroke:none;stroke-width:0.0352777"
       id="path394" />
    <path
       d="m -173.51115,31.230537 h 0.24061 v -0.391501 h -0.24061 z"
       style="fill:#231f20;fill-opacity:1;fill-rule:nonzero;stroke:none;stroke-width:0.0352777"
       id="path396" />
    <path
       d="m -174.04419,31.230537 h 0.24088 v -0.391501 h -0.24088 z"
       style="fill:#231f20;fill-opacity:1;fill-rule:nonzero;stroke:none;stroke-width:0.0352777"
       id="path398" />
    <path
       d="m -174.30983,31.230537 h 0.24019 v -0.391501 h -0.24019 z"
       style="fill:#231f20;fill-opacity:1;fill-rule:nonzero;stroke:none;stroke-width:0.0352777"
       id="path400" />
    <path
       d="m -174.57618,31.230537 h 0.24033 v -0.391501 h -0.24033 z"
       style="fill:#231f20;fill-opacity:1;fill-rule:nonzero;stroke:none;stroke-width:0.0352777"
       id="path402" />
    <path
       d="m -173.70411,24.596921 c 0.5214,-0.156281 1.0675,0.138994 1.22413,0.660045 0.0261,0.08502 0.0395,0.17145 0.0427,0.259997 l 1.11971,0.814209 0.002,0.649109 -0.60536,0.234597 -1.16664,-0.74577 c -0.0832,0.02963 -0.16863,0.04833 -0.25717,0.05539 -0.54293,0.0448 -1.01671,-0.356304 -1.06186,-0.898875 l -2.23484,-1.42663 -0.87736,-1.450266 1.6704,0.287866 z"
       style="fill:none;stroke:#ffffff;stroke-width:0.352777;stroke-linecap:round;stroke-linejoin:round;stroke-miterlimit:10;stroke-dasharray:none;stroke-opacity:1"
       id="path404" />
    <path
       d="m -173.70411,24.596921 c 0.5214,-0.156281 1.0675,0.138994 1.22413,0.660045 0.0261,0.08502 0.0395,0.17145 0.0427,0.259997 l 1.11971,0.814209 0.002,0.649109 -0.60536,0.234597 -1.16664,-0.74577 c -0.0832,0.02963 -0.16863,0.04833 -0.25717,0.05539 -0.54293,0.0448 -1.01671,-0.356304 -1.06186,-0.898875 l -2.23484,-1.42663 -0.87736,-1.450266 1.6704,0.287866"
       style="fill:#4f4c4c;fill-opacity:1;fill-rule:nonzero;stroke:none;stroke-width:0.0352777"
       id="path406" />
    <path
       d="m -173.70411,24.596921 c 0.5214,-0.156281 1.0675,0.138994 1.22413,0.660045 0.0261,0.08502 0.0395,0.17145 0.0427,0.259997 l 1.11971,0.814209 0.002,0.649109 -0.60536,0.234597 -1.16664,-0.74577 c -0.0832,0.02963 -0.16863,0.04833 -0.25717,0.05539 -0.54293,0.0448 -1.01671,-0.356304 -1.06186,-0.898875 l -2.23484,-1.42663 -0.87736,-1.450266 1.6704,0.287866 z"
       style="fill:none;stroke:#4f4c4c;stroke-width:0.105833;stroke-linecap:round;stroke-linejoin:round;stroke-miterlimit:10;stroke-dasharray:none;stroke-opacity:1"
       id="path408" />
    <path
       d="m -169.30287,21.614545 -3.95392,3.154178 c -0.42757,-0.09631 -0.85161,0.172508 -0.94791,0.601484 -0.0152,0.05891 -0.0219,0.121709 -0.0205,0.183797 l -1.39382,1.175453 0.0272,0.523521 0.52775,0.176035 1.49013,-1.104544 c 0.43039,0.07937 0.8442,-0.206727 0.92428,-0.637115 0.005,-0.02787 0.008,-0.0568 0.0106,-0.08714 l 4.00225,-3.143948 0.8375,-1.372302 z"
       style="fill:none;stroke:#ffffff;stroke-width:0.352777;stroke-linecap:round;stroke-linejoin:round;stroke-miterlimit:10;stroke-dasharray:none;stroke-opacity:1"
       id="path410" />
    <path
       d="m -169.30287,21.614545 -3.95392,3.154178 c -0.42757,-0.09631 -0.85161,0.172508 -0.94791,0.601484 -0.0152,0.05891 -0.0219,0.121709 -0.0205,0.183797 l -1.39382,1.175453 0.0272,0.523521 0.52775,0.176035 1.49013,-1.104544 c 0.43039,0.07937 0.8442,-0.206727 0.92428,-0.637115 0.005,-0.02787 0.008,-0.0568 0.0106,-0.08714 l 4.00225,-3.143948 0.8375,-1.372302"
       style="fill:#4f4c4c;fill-opacity:1;fill-rule:nonzero;stroke:none;stroke-width:0.0352777"
       id="path412" />
    <path
       d="m -169.30287,21.614545 -3.95392,3.154178 c -0.42757,-0.09631 -0.85161,0.172508 -0.94791,0.601484 -0.0152,0.05891 -0.0219,0.121709 -0.0205,0.183797 l -1.39382,1.175453 0.0272,0.523521 0.52775,0.176035 1.49013,-1.104544 c 0.43039,0.07937 0.8442,-0.206727 0.92428,-0.637115 0.005,-0.02787 0.008,-0.0568 0.0106,-0.08714 l 4.00225,-3.143948 0.8375,-1.372302 z"
       style="fill:none;stroke:#4f4c4c;stroke-width:0.105833;stroke-linecap:round;stroke-linejoin:round;stroke-miterlimit:10;stroke-dasharray:none;stroke-opacity:1"
       id="path414" />
    <path
       d="m -173.26773,25.754029 c 0.11465,-0.09066 0.13441,-0.257175 0.0434,-0.371827 -0.091,-0.114653 -0.25647,-0.134055 -0.37182,-0.04339 -0.11501,0.09102 -0.13441,0.257527 -0.0434,0.37218 0.091,0.115005 0.25788,0.133702 0.37183,0.04304"
       style="fill:#ffffff;fill-opacity:1;fill-rule:nonzero;stroke:none;stroke-width:0.0352777"
       id="path416" />
    <path
       d="m -163.74522,25.54201 c 0,5.346687 -4.33422,9.681256 -9.68091,9.681256 -5.34704,0 -9.68122,-4.334569 -9.68122,-9.681256 0,-5.346687 4.33418,-9.681257 9.68122,-9.681257 5.34669,0 9.68091,4.33457 9.68091,9.681257 z"
       style="fill:none;stroke:#ffffff;stroke-width:1.5875;stroke-linecap:butt;stroke-linejoin:miter;stroke-miterlimit:4;stroke-dasharray:0.423332, 0.772581;stroke-dashoffset:0;stroke-opacity:1"
       id="path418" />
    <path
       d="m -163.74522,25.54201 c 0,5.346687 -4.33422,9.681256 -9.68091,9.681256 -5.34704,0 -9.68122,-4.334569 -9.68122,-9.681256 0,-5.346687 4.33418,-9.681257 9.68122,-9.681257 5.34669,0 9.68091,4.33457 9.68091,9.681257 z"
       style="fill:none;stroke:#231f20;stroke-width:1.41111;stroke-linecap:butt;stroke-linejoin:miter;stroke-miterlimit:4;stroke-dasharray:0.176388, 1.02305;stroke-dashoffset:0;stroke-opacity:1"
       id="path420" />
  </g>
</svg>
