<?xml version="1.0" encoding="UTF-8" standalone="no"?>
<!-- Created with Inkscape (http://www.inkscape.org/) -->

<svg
   width="55.182571mm"
   height="12.600062mm"
   viewBox="0 0 55.182571 12.600062"
   version="1.1"
   id="svg738"
   inkscape:version="1.2.2 (b0a8486541, 2022-12-01)"
   sodipodi:docname="6:30to_high.svg"
   xmlns:inkscape="http://www.inkscape.org/namespaces/inkscape"
   xmlns:sodipodi="http://sodipodi.sourceforge.net/DTD/sodipodi-0.dtd"
   xmlns="http://www.w3.org/2000/svg"
   xmlns:svg="http://www.w3.org/2000/svg">
  <sodipodi:namedview
     id="namedview740"
     pagecolor="#ffffff"
     bordercolor="#666666"
     borderopacity="1.0"
     inkscape:showpageshadow="2"
     inkscape:pageopacity="0.0"
     inkscape:pagecheckerboard="0"
     inkscape:deskcolor="#d1d1d1"
     inkscape:document-units="mm"
     showgrid="false"
     inkscape:zoom="0.44542649"
     inkscape:cx="1149.4602"
     inkscape:cy="473.70331"
     inkscape:window-width="1366"
     inkscape:window-height="685"
     inkscape:window-x="0"
     inkscape:window-y="27"
     inkscape:window-maximized="1"
     inkscape:current-layer="layer1" />
  <defs
     id="defs735">
    <clipPath
       clipPathUnits="userSpaceOnUse"
       id="clipPath418">
      <path
         d="m 380.109,822.961 h 714.32 v 357.168 h -714.32 z"
         id="path416" />
    </clipPath>
    <clipPath
       clipPathUnits="userSpaceOnUse"
       id="clipPath621">
      <path
         d="m 380.109,822.961 h 714.32 v 357.168 h -714.32 z"
         id="path619" />
    </clipPath>
    <clipPath
       clipPathUnits="userSpaceOnUse"
       id="clipPath625">
      <path
         d="m 380.109,822.961 h 714.32 v 357.168 h -714.32 z"
         id="path623" />
    </clipPath>
    <clipPath
       clipPathUnits="userSpaceOnUse"
       id="clipPath534">
      <path
         d="m 1287.19,822.961 h 714.32 v 357.168 h -714.32 z"
         id="path532" />
    </clipPath>
    <clipPath
       clipPathUnits="userSpaceOnUse"
       id="clipPath631">
      <path
         d="m 1287.19,822.961 h 714.32 v 357.168 h -714.32 z"
         id="path629" />
    </clipPath>
    <clipPath
       clipPathUnits="userSpaceOnUse"
       id="clipPath635">
      <path
         d="m 1287.19,822.961 h 714.32 v 357.168 h -714.32 z"
         id="path633" />
    </clipPath>
  </defs>
  <g
     inkscape:label="Layer 1"
     inkscape:groupmode="layer"
     id="layer1"
     transform="translate(199.25729,-23.399968)">
    <path
       d="m -193.8616,23.772112 -0.43283,-0.19438 c 0,0 -0.3587,-0.173566 -0.66008,0.06103 -0.24793,0.192616 -0.69359,0.507998 -1.4213,1.660873 -0.71508,1.157461 -0.77255,1.648174 -0.82134,1.931101 -0.0595,0.343252 0.3102,0.498827 0.3102,0.498827 l 0.43215,0.19438"
       style="fill:#9c9a9b;fill-opacity:1;fill-rule:nonzero;stroke:none;stroke-width:0.0352777"
       id="path404" />
    <path
       d="m -179.41634,23.772112 0.43282,-0.19438 c 0,0 0.3587,-0.173566 0.65994,0.06103 0.24779,0.192616 0.69356,0.507998 1.42105,1.660873 0.71544,1.157461 0.77294,1.648174 0.82127,1.931101 0.0596,0.343252 -0.31009,0.498827 -0.31009,0.498827 l -0.4318,0.19438"
       style="fill:#9c9a9b;fill-opacity:1;fill-rule:nonzero;stroke:none;stroke-width:0.0352777"
       id="path406" />
    <path
       d="m -193.8616,35.627533 -0.43283,0.194733 c 0,0 -0.3587,0.173636 -0.66008,-0.06103 -0.24793,-0.192651 -0.69359,-0.508387 -1.4213,-1.660838 -0.71508,-1.157814 -0.77255,-1.648244 -0.82134,-1.931454 -0.0595,-0.342969 0.3102,-0.498544 0.3102,-0.498544 l 0.43215,-0.194309"
       style="fill:#9c9a9b;fill-opacity:1;fill-rule:nonzero;stroke:none;stroke-width:0.0352777"
       id="path408" />
    <path
       d="m -179.41634,35.627533 0.43282,0.194733 c 0,0 0.3587,0.173636 0.65994,-0.06103 0.24779,-0.192651 0.69356,-0.508387 1.42105,-1.660838 0.71544,-1.157814 0.77294,-1.648244 0.82127,-1.931454 0.0596,-0.342969 -0.31009,-0.498544 -0.31009,-0.498544 l -0.4318,-0.194309"
       style="fill:#9c9a9b;fill-opacity:1;fill-rule:nonzero;stroke:none;stroke-width:0.0352777"
       id="path410" />
    <path
       d="m 1030.21,1001.54 c 0,-137.509 -131.151,-248.989 -292.948,-248.989 -161.782,0 -292.93,111.48 -292.93,248.989 0,137.51 131.148,249 292.93,249 161.797,0 292.948,-111.49 292.948,-249"
       style="fill:#ffffff;fill-opacity:1;fill-rule:nonzero;stroke:none"
       id="path420"
       clip-path="url(#clipPath418)"
       transform="matrix(0.03527769,0,0,-0.03527769,-212.64835,65.032193)" />
    <path
       d="m 1030.21,1001.54 c 0,-137.509 -131.151,-248.989 -292.948,-248.989 -161.782,0 -292.93,111.48 -292.93,248.989 0,137.51 131.148,249 292.93,249 161.797,0 292.948,-111.49 292.948,-249 z"
       style="fill:none;stroke:#9c9a9b;stroke-width:6;stroke-linecap:butt;stroke-linejoin:miter;stroke-miterlimit:10;stroke-dasharray:none;stroke-opacity:1"
       id="path422"
       clip-path="url(#clipPath418)"
       transform="matrix(0.03527769,0,0,-0.03527769,-212.64835,65.032193)" />
    <path
       d="m 1006.74,1001.54 c 0,-126.501 -120.638,-229.052 -269.47,-229.052 -148.821,0 -269.461,102.551 -269.461,229.052 0,126.5 120.64,229.05 269.461,229.05 148.832,0 269.47,-102.55 269.47,-229.05 z"
       style="fill:none;stroke:#9c9a9b;stroke-width:4;stroke-linecap:butt;stroke-linejoin:miter;stroke-miterlimit:10;stroke-dasharray:none;stroke-opacity:1"
       id="path424"
       clip-path="url(#clipPath418)"
       transform="matrix(0.03527769,0,0,-0.03527769,-212.64835,65.032193)" />
    <path
       d="m -199.25729,24.711557 c 0,0.656518 0.54045,1.197325 1.19736,1.197325 0.65609,0 1.19626,-0.540807 1.19626,-1.197325 0,-0.656518 -0.54017,-1.196266 -1.19626,-1.196266 -0.65691,0 -1.19736,0.539748 -1.19736,1.196266 m 1.19736,-1.084789 c 0.59753,0 1.08479,0.487185 1.08479,1.084789 0,0.596193 -0.48892,1.084789 -1.08479,1.084789 -0.59655,0 -1.08588,-0.488596 -1.08588,-1.084789 0,-0.597604 0.48686,-1.084789 1.08588,-1.084789 m 0.28568,1.39735 0.1422,0.414512 h 0.2092 l -0.51428,-1.420632 h -0.21911 l -0.53343,1.420632 h 0.19857 l 0.14895,-0.414512 z m -0.51001,-0.170392 0.22821,-0.624062 h 0.005 l 0.20919,0.624062"
       style="fill:#231f20;fill-opacity:1;fill-rule:nonzero;stroke:none;stroke-width:0.0352777"
       id="path426" />
    <path
       d="m -176.4552,24.712263 c 0,0.656518 0.54045,1.196619 1.19697,1.196619 0.65687,0 1.19662,-0.540101 1.19662,-1.196619 0,-0.656518 -0.53975,-1.197325 -1.19662,-1.197325 -0.65652,0 -1.19697,0.540807 -1.19697,1.197325 m 1.19697,-1.092198 c 0.59866,0 1.08514,0.493535 1.08514,1.092198 0,0.596193 -0.48895,1.084789 -1.08514,1.084789 -0.59584,0 -1.08479,-0.488596 -1.08479,-1.084789 0,-0.598663 0.48648,-1.092198 1.08479,-1.092198 m -0.24448,1.184978 h 0.37959 c 0.15593,0 0.33091,0.03951 0.33091,0.239536 0,0.158749 -0.10019,0.258938 -0.30092,0.258938 h -0.40958 z m -0.19085,0.663926 h 0.61242 c 0.31433,0 0.4819,-0.191205 0.4819,-0.419099 0,-0.244827 -0.16546,-0.309385 -0.25859,-0.347485 0.15875,-0.07197 0.1912,-0.202494 0.1912,-0.295274 0,-0.195791 -0.13723,-0.358774 -0.40251,-0.358774 h -0.62442 z m 0.19085,-1.257649 h 0.34925 c 0.21449,0 0.29563,0.07691 0.29563,0.209902 0,0.172155 -0.11395,0.228246 -0.29774,0.228246 h -0.34714"
       style="fill:#231f20;fill-opacity:1;fill-rule:nonzero;stroke:none;stroke-width:0.0352777"
       id="path428" />
    <path
       d="m -199.25729,34.687735 c 0,0.657188 0.54045,1.19736 1.19736,1.19736 0.65609,0 1.19626,-0.540172 1.19626,-1.19736 0,-0.656518 -0.54017,-1.196549 -1.19626,-1.196549 -0.65691,0 -1.19736,0.540031 -1.19736,1.196549 m 1.8048,-0.251212 c -0.0282,-0.237454 -0.2191,-0.463161 -0.58455,-0.463161 -0.41412,0 -0.66396,0.302753 -0.66396,0.738362 0,0.546522 0.31683,0.756389 0.64107,0.756389 0.10611,0 0.54211,-0.023 0.62149,-0.558799 h -0.18684 c -0.0653,0.330446 -0.28126,0.388337 -0.40502,0.388337 -0.35387,0 -0.47212,-0.25534 -0.47212,-0.590901 0,-0.374543 0.20891,-0.562926 0.46538,-0.562926 0.13723,0 0.34505,0.04367 0.39755,0.292699 z m -0.60744,-0.833577 c 0.59753,0 1.08479,0.486868 1.08479,1.084789 0,0.596123 -0.48892,1.085459 -1.08479,1.085459 -0.59655,0 -1.08588,-0.489336 -1.08588,-1.085459 0,-0.597921 0.48686,-1.084789 1.08588,-1.084789"
       style="fill:#231f20;fill-opacity:1;fill-rule:nonzero;stroke:none;stroke-width:0.0352777"
       id="path430" />
    <path
       d="m -176.45732,34.687735 c 0,0.657188 0.53975,1.19736 1.19662,1.19736 0.65687,0 1.19662,-0.540172 1.19662,-1.19736 0,-0.656518 -0.53975,-1.196549 -1.19662,-1.196549 -0.65687,0 -1.19662,0.540031 -1.19662,1.196549 m 1.19662,-1.091562 c 0.59866,0 1.08514,0.493641 1.08514,1.091562 0,0.596123 -0.4893,1.085459 -1.08514,1.085459 -0.59584,0 -1.08514,-0.489336 -1.08514,-1.085459 0,-0.597921 0.48683,-1.091562 1.08514,-1.091562 m -0.48401,1.844106 h 0.56797 c 0.46567,0 0.60572,-0.412185 0.60572,-0.73106 0,-0.410244 -0.2286,-0.689714 -0.59902,-0.689714 h -0.57467 z m 0.19085,-1.25772 h 0.35842 c 0.2607,0 0.42616,0.18175 0.42616,0.538372 0,0.358704 -0.16299,0.553825 -0.4124,0.553825 h -0.37218"
       style="fill:#231f20;fill-opacity:1;fill-rule:nonzero;stroke:none;stroke-width:0.0352777"
       id="path432" />
    <path
       d="m -180.84054,29.64232 c 0,-3.197217 -2.59086,-5.790127 -5.78378,-5.790127 -3.19799,0 -5.79503,2.59291 -5.79503,5.790127 0,3.198981 2.59704,5.791186 5.79503,5.791186 3.19292,0 5.78378,-2.592205 5.78378,-5.791186 z"
       style="fill:none;stroke:#9c9a9b;stroke-width:0.141111;stroke-linecap:round;stroke-linejoin:round;stroke-miterlimit:10;stroke-dasharray:none;stroke-opacity:1"
       id="path434" />
    <path
       d="m -182.41745,28.373029 h 0.50519 v -0.822687 h -0.50519 z"
       style="fill:#231f20;fill-opacity:1;fill-rule:nonzero;stroke:none;stroke-width:0.0352777"
       id="path436" />
    <path
       d="m -182.97664,28.373029 h 0.5056 v -0.822687 h -0.5056 z"
       style="fill:#231f20;fill-opacity:1;fill-rule:nonzero;stroke:none;stroke-width:0.0352777"
       id="path438" />
    <path
       d="m -183.53544,28.373029 h 0.50519 v -0.822687 h -0.50519 z"
       style="fill:#231f20;fill-opacity:1;fill-rule:nonzero;stroke:none;stroke-width:0.0352777"
       id="path440" />
    <path
       d="m -184.6537,28.373029 h 0.50518 v -0.822687 h -0.50518 z"
       style="fill:#231f20;fill-opacity:1;fill-rule:nonzero;stroke:none;stroke-width:0.0352777"
       id="path442" />
    <path
       d="m -185.2136,28.373029 h 0.50519 v -0.822687 h -0.50519 z"
       style="fill:#231f20;fill-opacity:1;fill-rule:nonzero;stroke:none;stroke-width:0.0352777"
       id="path444" />
    <path
       d="m -185.77239,28.373029 h 0.50518 v -0.822687 h -0.50518 z"
       style="fill:#231f20;fill-opacity:1;fill-rule:nonzero;stroke:none;stroke-width:0.0352777"
       id="path446" />
    <path
       d="m -188.01006,28.373029 h 0.50546 v -0.822687 h -0.50546 z"
       style="fill:#231f20;fill-opacity:1;fill-rule:nonzero;stroke:none;stroke-width:0.0352777"
       id="path448" />
    <path
       d="m -188.56886,28.373029 h 0.50519 v -0.822687 h -0.50519 z"
       style="fill:#231f20;fill-opacity:1;fill-rule:nonzero;stroke:none;stroke-width:0.0352777"
       id="path450" />
    <path
       d="m -189.12766,28.373029 h 0.50519 v -0.822687 h -0.50519 z"
       style="fill:#231f20;fill-opacity:1;fill-rule:nonzero;stroke:none;stroke-width:0.0352777"
       id="path452" />
    <path
       d="m -182.41745,29.250385 h 0.50519 v -0.822687 h -0.50519 z"
       style="fill:#231f20;fill-opacity:1;fill-rule:nonzero;stroke:none;stroke-width:0.0352777"
       id="path454" />
    <path
       d="m -183.53544,29.250385 h 0.50519 v -0.822687 h -0.50519 z"
       style="fill:#231f20;fill-opacity:1;fill-rule:nonzero;stroke:none;stroke-width:0.0352777"
       id="path456" />
    <path
       d="m -184.6537,29.250385 h 0.50518 v -0.822687 h -0.50518 z"
       style="fill:#231f20;fill-opacity:1;fill-rule:nonzero;stroke:none;stroke-width:0.0352777"
       id="path458" />
    <path
       d="m -189.12766,29.250385 h 0.50519 v -0.822687 h -0.50519 z"
       style="fill:#231f20;fill-opacity:1;fill-rule:nonzero;stroke:none;stroke-width:0.0352777"
       id="path460" />
    <path
       d="m -182.41745,30.126012 h 0.50519 v -0.821998 h -0.50519 z"
       style="fill:#231f20;fill-opacity:1;fill-rule:nonzero;stroke:none;stroke-width:0.0352777"
       id="path462" />
    <path
       d="m -183.53544,30.126012 h 0.50519 v -0.821998 h -0.50519 z"
       style="fill:#231f20;fill-opacity:1;fill-rule:nonzero;stroke:none;stroke-width:0.0352777"
       id="path464" />
    <path
       d="m -184.6537,30.126012 h 0.50518 v -0.821998 h -0.50518 z"
       style="fill:#231f20;fill-opacity:1;fill-rule:nonzero;stroke:none;stroke-width:0.0352777"
       id="path466" />
    <path
       d="m -185.2136,30.126012 h 0.50519 v -0.821998 h -0.50519 z"
       style="fill:#231f20;fill-opacity:1;fill-rule:nonzero;stroke:none;stroke-width:0.0352777"
       id="path468" />
    <path
       d="m -185.77239,30.126012 h 0.50518 v -0.821998 h -0.50518 z"
       style="fill:#231f20;fill-opacity:1;fill-rule:nonzero;stroke:none;stroke-width:0.0352777"
       id="path470" />
    <path
       d="m -188.01006,30.126012 h 0.50546 v -0.821998 h -0.50546 z"
       style="fill:#231f20;fill-opacity:1;fill-rule:nonzero;stroke:none;stroke-width:0.0352777"
       id="path472" />
    <path
       d="m -188.56886,30.126012 h 0.50519 v -0.821998 h -0.50519 z"
       style="fill:#231f20;fill-opacity:1;fill-rule:nonzero;stroke:none;stroke-width:0.0352777"
       id="path474" />
    <path
       d="m -189.12766,30.126012 h 0.50519 v -0.821998 h -0.50519 z"
       style="fill:#231f20;fill-opacity:1;fill-rule:nonzero;stroke:none;stroke-width:0.0352777"
       id="path476" />
    <path
       d="m -182.41745,31.003263 h 0.50519 v -0.822687 h -0.50519 z"
       style="fill:#231f20;fill-opacity:1;fill-rule:nonzero;stroke:none;stroke-width:0.0352777"
       id="path478" />
    <path
       d="m -183.53544,31.003263 h 0.50519 v -0.822687 h -0.50519 z"
       style="fill:#231f20;fill-opacity:1;fill-rule:nonzero;stroke:none;stroke-width:0.0352777"
       id="path480" />
    <path
       d="m -184.6537,31.003263 h 0.50518 v -0.822687 h -0.50518 z"
       style="fill:#231f20;fill-opacity:1;fill-rule:nonzero;stroke:none;stroke-width:0.0352777"
       id="path482" />
    <path
       d="m -186.89137,31.003263 h 0.50616 v -0.822687 h -0.50616 z"
       style="fill:#231f20;fill-opacity:1;fill-rule:nonzero;stroke:none;stroke-width:0.0352777"
       id="path484" />
    <path
       d="m -188.01006,31.003263 h 0.50546 v -0.822687 h -0.50546 z"
       style="fill:#231f20;fill-opacity:1;fill-rule:nonzero;stroke:none;stroke-width:0.0352777"
       id="path486" />
    <path
       d="m -189.12766,31.003263 h 0.50519 v -0.822687 h -0.50519 z"
       style="fill:#231f20;fill-opacity:1;fill-rule:nonzero;stroke:none;stroke-width:0.0352777"
       id="path488" />
    <path
       d="m -182.41745,31.87956 h 0.50519 V 31.0577 h -0.50519 z"
       style="fill:#231f20;fill-opacity:1;fill-rule:nonzero;stroke:none;stroke-width:0.0352777"
       id="path490" />
    <path
       d="m -182.97664,31.87956 h 0.5056 V 31.0577 h -0.5056 z"
       style="fill:#231f20;fill-opacity:1;fill-rule:nonzero;stroke:none;stroke-width:0.0352777"
       id="path492" />
    <path
       d="m -183.53544,31.87956 h 0.50519 V 31.0577 h -0.50519 z"
       style="fill:#231f20;fill-opacity:1;fill-rule:nonzero;stroke:none;stroke-width:0.0352777"
       id="path494" />
    <path
       d="m -184.6537,31.87956 h 0.50518 V 31.0577 h -0.50518 z"
       style="fill:#231f20;fill-opacity:1;fill-rule:nonzero;stroke:none;stroke-width:0.0352777"
       id="path496" />
    <path
       d="m -185.2136,31.87956 h 0.50519 V 31.0577 h -0.50519 z"
       style="fill:#231f20;fill-opacity:1;fill-rule:nonzero;stroke:none;stroke-width:0.0352777"
       id="path498" />
    <path
       d="m -185.77239,31.87956 h 0.50518 V 31.0577 h -0.50518 z"
       style="fill:#231f20;fill-opacity:1;fill-rule:nonzero;stroke:none;stroke-width:0.0352777"
       id="path500" />
    <path
       d="m -186.89137,31.87956 h 0.50616 V 31.0577 h -0.50616 z"
       style="fill:#231f20;fill-opacity:1;fill-rule:nonzero;stroke:none;stroke-width:0.0352777"
       id="path502" />
    <path
       d="m -188.01006,31.87956 h 0.50546 V 31.0577 h -0.50546 z"
       style="fill:#231f20;fill-opacity:1;fill-rule:nonzero;stroke:none;stroke-width:0.0352777"
       id="path504" />
    <path
       d="m -188.56886,31.87956 h 0.50519 V 31.0577 h -0.50519 z"
       style="fill:#231f20;fill-opacity:1;fill-rule:nonzero;stroke:none;stroke-width:0.0352777"
       id="path506" />
    <path
       d="m -189.12766,31.87956 h 0.50519 V 31.0577 h -0.50519 z"
       style="fill:#231f20;fill-opacity:1;fill-rule:nonzero;stroke:none;stroke-width:0.0352777"
       id="path508" />
    <path
       d="m -169.19541,27.944758 c 0,0.218368 0,0.436737 0,0.655106 v 0.05292 h -0.0529 c -1.44886,0 -2.89807,0 -4.34692,0 v 2.094471 c 1.44885,0 2.89806,0 4.34692,0 h 0.0529 v 0.05292 c 0,0.218263 0,0.436703 0,0.655107 0.49248,-0.585257 0.98531,-1.170232 1.47778,-1.755453 -0.49247,-0.584905 -0.98495,-1.169809 -1.47778,-1.755065"
       style="fill:#bdbcbc;fill-opacity:1;fill-rule:nonzero;stroke:none;stroke-width:0.0352777"
       id="path510" />
    <path
       d="m -169.19541,27.944758 c 0,0.218368 0,0.436737 0,0.655106 v 0.05292 h -0.0529 c -1.44886,0 -2.89807,0 -4.34692,0 v 2.094471 c 1.44885,0 2.89806,0 4.34692,0 h 0.0529 v 0.05292 c 0,0.218263 0,0.436703 0,0.655107 0.49248,-0.585257 0.98531,-1.170232 1.47778,-1.755453 -0.49247,-0.584905 -0.98495,-1.169809 -1.47778,-1.755065 z"
       style="fill:none;stroke:#4f4c4c;stroke-width:0.105833;stroke-linecap:butt;stroke-linejoin:miter;stroke-miterlimit:4;stroke-dasharray:none;stroke-opacity:1"
       id="path512" />
    <text
       xml:space="preserve"
       transform="scale(1,-1)"
       style="font-variant:normal;font-weight:normal;font-size:0.0352777px;font-family:Arial;-inkscape-font-specification:Arial;writing-mode:lr-tb;fill:#231f20;fill-opacity:1;fill-rule:nonzero;stroke:none;stroke-width:0.352777"
       id="text518"
       x="-171.97316"
       y="-27.002836"><tspan
         x="-171.97316"
         y="-27.002836"
         id="tspan516"
         style="stroke-width:0.352777">✱</tspan></text>
    <path
       d="m -161.86188,23.772112 -0.43286,-0.19438 c 0,0 -0.35877,-0.173566 -0.66004,0.06103 -0.24801,0.192616 -0.69356,0.507998 -1.42134,1.660873 -0.71508,1.157461 -0.77258,1.648174 -0.82127,1.931101 -0.0596,0.343252 0.31009,0.498827 0.31009,0.498827 l 0.43216,0.19438"
       style="fill:#9c9a9b;fill-opacity:1;fill-rule:nonzero;stroke:none;stroke-width:0.0352777"
       id="path520" />
    <path
       d="m -147.41637,23.772112 0.43285,-0.19438 c 0,0 0.35878,-0.173566 0.66005,0.06103 0.24765,0.192616 0.69356,0.507998 1.42098,1.660873 0.71544,1.157461 0.77294,1.648174 0.82127,1.931101 0.0596,0.343252 -0.31009,0.498827 -0.31009,0.498827 l -0.4318,0.19438"
       style="fill:#9c9a9b;fill-opacity:1;fill-rule:nonzero;stroke:none;stroke-width:0.0352777"
       id="path522" />
    <path
       d="m -161.86188,35.627533 -0.43286,0.194733 c 0,0 -0.35877,0.173636 -0.66004,-0.06103 -0.24801,-0.192651 -0.69356,-0.508387 -1.42134,-1.660838 -0.71508,-1.157814 -0.77258,-1.648244 -0.82127,-1.931454 -0.0596,-0.342969 0.31009,-0.498544 0.31009,-0.498544 l 0.43216,-0.194309"
       style="fill:#9c9a9b;fill-opacity:1;fill-rule:nonzero;stroke:none;stroke-width:0.0352777"
       id="path524" />
    <path
       d="m -147.41637,35.627533 0.43285,0.194733 c 0,0 0.35878,0.173636 0.66005,-0.06103 0.24765,-0.192651 0.69356,-0.508387 1.42098,-1.660838 0.71544,-1.157814 0.77294,-1.648244 0.82127,-1.931454 0.0596,-0.342969 -0.31009,-0.498544 -0.31009,-0.498544 l -0.4318,-0.194309"
       style="fill:#9c9a9b;fill-opacity:1;fill-rule:nonzero;stroke:none;stroke-width:0.0352777"
       id="path526" />
    <path
       d="m 1937.3,1001.54 c 0,-137.509 -131.15,-248.989 -292.95,-248.989 -161.78,0 -292.93,111.48 -292.93,248.989 0,137.51 131.15,249 292.93,249 161.8,0 292.95,-111.49 292.95,-249"
       style="fill:#ffffff;fill-opacity:1;fill-rule:nonzero;stroke:none"
       id="path536"
       clip-path="url(#clipPath534)"
       transform="matrix(0.03527769,0,0,-0.03527769,-212.64835,65.032193)" />
    <path
       d="m 1937.3,1001.54 c 0,-137.509 -131.15,-248.989 -292.95,-248.989 -161.78,0 -292.93,111.48 -292.93,248.989 0,137.51 131.15,249 292.93,249 161.8,0 292.95,-111.49 292.95,-249 z"
       style="fill:none;stroke:#9c9a9b;stroke-width:6;stroke-linecap:butt;stroke-linejoin:miter;stroke-miterlimit:10;stroke-dasharray:none;stroke-opacity:1"
       id="path538"
       clip-path="url(#clipPath534)"
       transform="matrix(0.03527769,0,0,-0.03527769,-212.64835,65.032193)" />
    <path
       d="m 1913.82,1001.54 c 0,-126.501 -120.64,-229.052 -269.47,-229.052 -148.82,0 -269.46,102.551 -269.46,229.052 0,126.5 120.64,229.05 269.46,229.05 148.83,0 269.47,-102.55 269.47,-229.05 z"
       style="fill:none;stroke:#9c9a9b;stroke-width:4;stroke-linecap:butt;stroke-linejoin:miter;stroke-miterlimit:10;stroke-dasharray:none;stroke-opacity:1"
       id="path540"
       clip-path="url(#clipPath534)"
       transform="matrix(0.03527769,0,0,-0.03527769,-212.64835,65.032193)" />
    <path
       d="m -148.84053,29.64232 c 0,-3.197217 -2.5908,-5.790127 -5.78378,-5.790127 -3.19792,0 -5.79507,2.59291 -5.79507,5.790127 0,3.198981 2.59715,5.791186 5.79507,5.791186 3.19298,0 5.78378,-2.592205 5.78378,-5.791186 z"
       style="fill:none;stroke:#9c9a9b;stroke-width:0.141111;stroke-linecap:round;stroke-linejoin:round;stroke-miterlimit:10;stroke-dasharray:none;stroke-opacity:1"
       id="path542" />
    <path
       d="m -150.97695,28.373029 h 0.50546 v -0.822687 h -0.50546 z"
       style="fill:#231f20;fill-opacity:1;fill-rule:nonzero;stroke:none;stroke-width:0.0352777"
       id="path544" />
    <path
       d="m -151.53575,28.373029 h 0.50505 v -0.822687 h -0.50505 z"
       style="fill:#231f20;fill-opacity:1;fill-rule:nonzero;stroke:none;stroke-width:0.0352777"
       id="path546" />
    <path
       d="m -152.09561,28.373029 h 0.50616 v -0.822687 h -0.50616 z"
       style="fill:#231f20;fill-opacity:1;fill-rule:nonzero;stroke:none;stroke-width:0.0352777"
       id="path548" />
    <path
       d="m -153.77271,28.373029 h 0.50505 v -0.822687 h -0.50505 z"
       style="fill:#231f20;fill-opacity:1;fill-rule:nonzero;stroke:none;stroke-width:0.0352777"
       id="path550" />
    <path
       d="m -156.01037,28.373029 h 0.5056 v -0.822687 h -0.5056 z"
       style="fill:#231f20;fill-opacity:1;fill-rule:nonzero;stroke:none;stroke-width:0.0352777"
       id="path552" />
    <path
       d="m -151.53575,29.250385 h 0.50505 v -0.822687 h -0.50505 z"
       style="fill:#231f20;fill-opacity:1;fill-rule:nonzero;stroke:none;stroke-width:0.0352777"
       id="path554" />
    <path
       d="m -153.77271,29.250385 h 0.50505 v -0.822687 h -0.50505 z"
       style="fill:#231f20;fill-opacity:1;fill-rule:nonzero;stroke:none;stroke-width:0.0352777"
       id="path556" />
    <path
       d="m -156.01037,29.250385 h 0.5056 v -0.822687 h -0.5056 z"
       style="fill:#231f20;fill-opacity:1;fill-rule:nonzero;stroke:none;stroke-width:0.0352777"
       id="path558" />
    <path
       d="m -157.68783,29.250385 h 0.50519 v -0.822687 h -0.50519 z"
       style="fill:#231f20;fill-opacity:1;fill-rule:nonzero;stroke:none;stroke-width:0.0352777"
       id="path560" />
    <path
       d="m -158.24698,29.250385 h 0.5056 v -0.822687 h -0.5056 z"
       style="fill:#231f20;fill-opacity:1;fill-rule:nonzero;stroke:none;stroke-width:0.0352777"
       id="path562" />
    <path
       d="m -158.81001,29.250385 h 0.50698 v -0.822687 h -0.50698 z"
       style="fill:#231f20;fill-opacity:1;fill-rule:nonzero;stroke:none;stroke-width:0.0352777"
       id="path564" />
    <path
       d="m -159.36881,29.250385 h 0.50519 v -0.822687 h -0.50519 z"
       style="fill:#231f20;fill-opacity:1;fill-rule:nonzero;stroke:none;stroke-width:0.0352777"
       id="path566" />
    <path
       d="m -151.53575,30.126012 h 0.50505 v -0.821998 h -0.50505 z"
       style="fill:#231f20;fill-opacity:1;fill-rule:nonzero;stroke:none;stroke-width:0.0352777"
       id="path568" />
    <path
       d="m -153.77271,30.126012 h 0.50505 v -0.821998 h -0.50505 z"
       style="fill:#231f20;fill-opacity:1;fill-rule:nonzero;stroke:none;stroke-width:0.0352777"
       id="path570" />
    <path
       d="m -154.33186,30.126012 h 0.50546 v -0.821998 h -0.50546 z"
       style="fill:#231f20;fill-opacity:1;fill-rule:nonzero;stroke:none;stroke-width:0.0352777"
       id="path572" />
    <path
       d="m -154.89172,30.126012 h 0.5063 v -0.821998 h -0.5063 z"
       style="fill:#231f20;fill-opacity:1;fill-rule:nonzero;stroke:none;stroke-width:0.0352777"
       id="path574" />
    <path
       d="m -155.45051,30.126012 h 0.50518 v -0.821998 h -0.50518 z"
       style="fill:#231f20;fill-opacity:1;fill-rule:nonzero;stroke:none;stroke-width:0.0352777"
       id="path576" />
    <path
       d="m -156.01037,30.126012 h 0.5056 v -0.821998 h -0.5056 z"
       style="fill:#231f20;fill-opacity:1;fill-rule:nonzero;stroke:none;stroke-width:0.0352777"
       id="path578" />
    <path
       d="m -157.12797,30.126012 h 0.50519 v -0.821998 h -0.50519 z"
       style="fill:#231f20;fill-opacity:1;fill-rule:nonzero;stroke:none;stroke-width:0.0352777"
       id="path580" />
    <path
       d="m -157.68783,30.126012 h 0.50519 v -0.821998 h -0.50519 z"
       style="fill:#231f20;fill-opacity:1;fill-rule:nonzero;stroke:none;stroke-width:0.0352777"
       id="path582" />
    <path
       d="m -158.24698,30.126012 h 0.5056 v -0.821998 h -0.5056 z"
       style="fill:#231f20;fill-opacity:1;fill-rule:nonzero;stroke:none;stroke-width:0.0352777"
       id="path584" />
    <path
       d="m -158.81001,30.126012 h 0.50698 v -0.821998 h -0.50698 z"
       style="fill:#231f20;fill-opacity:1;fill-rule:nonzero;stroke:none;stroke-width:0.0352777"
       id="path586" />
    <path
       d="m -159.36881,30.126012 h 0.50519 v -0.821998 h -0.50519 z"
       style="fill:#231f20;fill-opacity:1;fill-rule:nonzero;stroke:none;stroke-width:0.0352777"
       id="path588" />
    <path
       d="m -151.53575,31.003263 h 0.50505 v -0.822687 h -0.50505 z"
       style="fill:#231f20;fill-opacity:1;fill-rule:nonzero;stroke:none;stroke-width:0.0352777"
       id="path590" />
    <path
       d="m -153.77271,31.003263 h 0.50505 v -0.822687 h -0.50505 z"
       style="fill:#231f20;fill-opacity:1;fill-rule:nonzero;stroke:none;stroke-width:0.0352777"
       id="path592" />
    <path
       d="m -156.01037,31.003263 h 0.5056 v -0.822687 h -0.5056 z"
       style="fill:#231f20;fill-opacity:1;fill-rule:nonzero;stroke:none;stroke-width:0.0352777"
       id="path594" />
    <path
       d="m -157.68783,31.003263 h 0.50519 v -0.822687 h -0.50519 z"
       style="fill:#231f20;fill-opacity:1;fill-rule:nonzero;stroke:none;stroke-width:0.0352777"
       id="path596" />
    <path
       d="m -158.24698,31.003263 h 0.5056 v -0.822687 h -0.5056 z"
       style="fill:#231f20;fill-opacity:1;fill-rule:nonzero;stroke:none;stroke-width:0.0352777"
       id="path598" />
    <path
       d="m -158.81001,31.003263 h 0.50698 v -0.822687 h -0.50698 z"
       style="fill:#231f20;fill-opacity:1;fill-rule:nonzero;stroke:none;stroke-width:0.0352777"
       id="path600" />
    <path
       d="m -159.36881,31.003263 h 0.50519 v -0.822687 h -0.50519 z"
       style="fill:#231f20;fill-opacity:1;fill-rule:nonzero;stroke:none;stroke-width:0.0352777"
       id="path602" />
    <path
       d="m -150.97695,31.87956 h 0.50546 V 31.0577 h -0.50546 z"
       style="fill:#231f20;fill-opacity:1;fill-rule:nonzero;stroke:none;stroke-width:0.0352777"
       id="path604" />
    <path
       d="m -151.53575,31.87956 h 0.50505 V 31.0577 h -0.50505 z"
       style="fill:#231f20;fill-opacity:1;fill-rule:nonzero;stroke:none;stroke-width:0.0352777"
       id="path606" />
    <path
       d="m -152.09561,31.87956 h 0.50616 V 31.0577 h -0.50616 z"
       style="fill:#231f20;fill-opacity:1;fill-rule:nonzero;stroke:none;stroke-width:0.0352777"
       id="path608" />
    <path
       d="m -153.77271,31.87956 h 0.50505 V 31.0577 h -0.50505 z"
       style="fill:#231f20;fill-opacity:1;fill-rule:nonzero;stroke:none;stroke-width:0.0352777"
       id="path610" />
    <path
       d="m -156.01037,31.87956 h 0.5056 V 31.0577 h -0.5056 z"
       style="fill:#231f20;fill-opacity:1;fill-rule:nonzero;stroke:none;stroke-width:0.0352777"
       id="path612" />
  </g>
</svg>
