<?xml version="1.0" encoding="UTF-8" standalone="no"?>
<!-- Created with Inkscape (http://www.inkscape.org/) -->

<svg
   width="32.34956mm"
   height="27.825211mm"
   viewBox="0 0 32.34956 27.825211"
   version="1.1"
   id="svg385"
   inkscape:version="1.2.2 (b0a8486541, 2022-12-01)"
   sodipodi:docname="6:30.svg"
   xmlns:inkscape="http://www.inkscape.org/namespaces/inkscape"
   xmlns:sodipodi="http://sodipodi.sourceforge.net/DTD/sodipodi-0.dtd"
   xmlns="http://www.w3.org/2000/svg"
   xmlns:svg="http://www.w3.org/2000/svg">
  <sodipodi:namedview
     id="namedview387"
     pagecolor="#ffffff"
     bordercolor="#666666"
     borderopacity="1.0"
     inkscape:showpageshadow="2"
     inkscape:pageopacity="0.0"
     inkscape:pagecheckerboard="0"
     inkscape:deskcolor="#d1d1d1"
     inkscape:document-units="mm"
     showgrid="false"
     inkscape:zoom="0.44542649"
     inkscape:cx="1102.3143"
     inkscape:cy="509.62394"
     inkscape:window-width="1366"
     inkscape:window-height="685"
     inkscape:window-x="0"
     inkscape:window-y="27"
     inkscape:window-maximized="1"
     inkscape:current-layer="layer1" />
  <defs
     id="defs382" />
  <g
     inkscape:label="Layer 1"
     inkscape:groupmode="layer"
     id="layer1"
     transform="translate(186.65278,-13.411395)">
    <path
       d="m -181.25705,19.888518 -0.43286,-0.2286 c 0,0 -0.35877,-0.204258 -0.66005,0.07161 -0.248,0.226483 -0.69355,0.597957 -1.42133,1.954031 -0.71508,1.362072 -0.77259,1.939215 -0.82127,2.271883 -0.0596,0.40393 0.31009,0.587021 0.31009,0.587021 l 0.43215,0.2286"
       style="fill:#9c9a9b;fill-opacity:1;fill-rule:nonzero;stroke:none;stroke-width:0.0352777"
       id="path270" />
    <path
       d="m -166.81154,19.888518 0.43285,-0.2286 c 0,0 0.35878,-0.204258 0.66005,0.07161 0.24765,0.226483 0.69356,0.597957 1.42098,1.954031 0.71544,1.362072 0.77294,1.939215 0.82127,2.271883 0.0596,0.40393 -0.31009,0.587021 -0.31009,0.587021 l -0.4318,0.2286"
       style="fill:#9c9a9b;fill-opacity:1;fill-rule:nonzero;stroke:none;stroke-width:0.0352777"
       id="path272" />
    <path
       d="m -181.25705,33.836258 -0.43286,0.228952 c 0,0 -0.35877,0.204258 -0.66005,-0.07161 -0.248,-0.226835 -0.69355,-0.597957 -1.42133,-1.954031 -0.71508,-1.362424 -0.77259,-1.939567 -0.82127,-2.272236 -0.0596,-0.403577 0.31009,-0.586668 0.31009,-0.586668 l 0.43215,-0.228599"
       style="fill:#9c9a9b;fill-opacity:1;fill-rule:nonzero;stroke:none;stroke-width:0.0352777"
       id="path274" />
    <path
       d="m -166.81154,33.836258 0.43285,0.228952 c 0,0 0.35878,0.204258 0.66005,-0.07161 0.24765,-0.226835 0.69356,-0.597957 1.42098,-1.954031 0.71544,-1.362424 0.77294,-1.939567 0.82127,-2.272236 0.0596,-0.403577 -0.31009,-0.586668 -0.31009,-0.586668 l -0.4318,-0.228599"
       style="fill:#9c9a9b;fill-opacity:1;fill-rule:nonzero;stroke:none;stroke-width:0.0352777"
       id="path276" />
    <path
       d="m -163.70005,26.862564 c 0,5.707225 -4.62667,10.333894 -10.3346,10.333894 -5.70723,0 -10.33389,-4.626669 -10.33389,-10.333894 0,-5.707225 4.62666,-10.334246 10.33389,-10.334246 5.70793,0 10.3346,4.627021 10.3346,10.334246"
       style="fill:#ffffff;fill-opacity:1;fill-rule:nonzero;stroke:none;stroke-width:0.0352777"
       id="path278" />
    <path
       d="m -163.70005,26.862564 c 0,5.707225 -4.62667,10.333894 -10.3346,10.333894 -5.70723,0 -10.33389,-4.626669 -10.33389,-10.333894 0,-5.707225 4.62666,-10.334246 10.33389,-10.334246 5.70793,0 10.3346,4.627021 10.3346,10.334246 z"
       style="fill:none;stroke:#9c9a9b;stroke-width:0.211666;stroke-linecap:butt;stroke-linejoin:miter;stroke-miterlimit:10;stroke-dasharray:none;stroke-opacity:1"
       id="path280" />
    <path
       d="m -186.65278,20.913334 c 0,0.656518 0.54046,1.197325 1.19733,1.197325 0.65616,0 1.19627,-0.540807 1.19627,-1.197325 0,-0.656517 -0.54011,-1.196619 -1.19627,-1.196619 -0.65687,0 -1.19733,0.540102 -1.19733,1.196619 m 1.19733,-1.084789 c 0.5976,0 1.08479,0.486833 1.08479,1.084789 0,0.595841 -0.48895,1.084789 -1.08479,1.084789 -0.59655,0 -1.08585,-0.488948 -1.08585,-1.084789 0,-0.597956 0.48683,-1.084789 1.08585,-1.084789 m 0.28575,1.39735 0.14217,0.41416 h 0.20919 l -0.51434,-1.420633 h -0.21908 l -0.5334,1.420633 h 0.19862 l 0.14887,-0.41416 z m -0.51012,-0.170391 0.22825,-0.624416 h 0.005 l 0.2092,0.624416"
       style="fill:#231f20;fill-opacity:1;fill-rule:nonzero;stroke:none;stroke-width:0.0352777"
       id="path282" />
    <path
       d="m -163.85033,20.91404 c 0,0.656518 0.54045,1.196619 1.19697,1.196619 0.65687,0 1.19662,-0.540101 1.19662,-1.196619 0,-0.656518 -0.53975,-1.197325 -1.19662,-1.197325 -0.65652,0 -1.19697,0.540807 -1.19697,1.197325 m 1.19697,-1.092197 c 0.59866,0 1.08514,0.493535 1.08514,1.092197 0,0.596193 -0.48895,1.084789 -1.08514,1.084789 -0.59584,0 -1.08479,-0.488596 -1.08479,-1.084789 0,-0.598662 0.48648,-1.092197 1.08479,-1.092197 m -0.24448,1.184977 h 0.37959 c 0.15593,0 0.33091,0.03951 0.33091,0.239536 0,0.159102 -0.10019,0.258938 -0.30092,0.258938 h -0.40958 z m -0.19085,0.663926 h 0.61242 c 0.31433,0 0.48189,-0.190852 0.48189,-0.419099 0,-0.244827 -0.16545,-0.309385 -0.25858,-0.347485 0.15875,-0.07197 0.1912,-0.202494 0.1912,-0.295274 0,-0.195791 -0.13723,-0.358774 -0.40251,-0.358774 h -0.62442 z m 0.19085,-1.257649 h 0.34925 c 0.21449,0 0.29563,0.07691 0.29563,0.209902 0,0.172155 -0.11395,0.228247 -0.29774,0.228247 h -0.34714"
       style="fill:#231f20;fill-opacity:1;fill-rule:nonzero;stroke:none;stroke-width:0.0352777"
       id="path284" />
    <path
       d="m -186.65278,32.810735 c 0,0.657224 0.54046,1.197325 1.19733,1.197325 0.65616,0 1.19627,-0.540101 1.19627,-1.197325 0,-0.656517 -0.54011,-1.196266 -1.19627,-1.196266 -0.65687,0 -1.19733,0.539749 -1.19733,1.196266 m 1.80481,-0.251177 c -0.0282,-0.237419 -0.21907,-0.463196 -0.58455,-0.463196 -0.41416,0 -0.66393,0.302683 -0.66393,0.738362 0,0.546452 0.3168,0.756354 0.641,0.756354 0.10619,0 0.54222,-0.02293 0.62159,-0.558799 h -0.18697 c -0.0653,0.330905 -0.28116,0.38876 -0.40499,0.38876 -0.35383,0 -0.47201,-0.255763 -0.47201,-0.591254 0,-0.374649 0.20884,-0.563032 0.46531,-0.563032 0.13723,0 0.34502,0.04375 0.39758,0.292805 z m -0.60748,-0.833612 c 0.5976,0 1.08479,0.487185 1.08479,1.084789 0,0.596193 -0.48895,1.085848 -1.08479,1.085848 -0.59655,0 -1.08585,-0.489655 -1.08585,-1.085848 0,-0.597604 0.48683,-1.084789 1.08585,-1.084789"
       style="fill:#231f20;fill-opacity:1;fill-rule:nonzero;stroke:none;stroke-width:0.0352777"
       id="path286" />
    <path
       d="m -163.8528,32.810735 c 0,0.657224 0.53974,1.197325 1.19661,1.197325 0.65688,0 1.19662,-0.540101 1.19662,-1.197325 0,-0.656517 -0.53974,-1.196266 -1.19662,-1.196266 -0.65687,0 -1.19661,0.539749 -1.19661,1.196266 m 1.19661,-1.091491 c 0.59867,0 1.08515,0.493887 1.08515,1.091491 0,0.596193 -0.4893,1.085848 -1.08515,1.085848 -0.59584,0 -1.08514,-0.489655 -1.08514,-1.085848 0,-0.597604 0.48684,-1.091491 1.08514,-1.091491 m -0.484,1.843965 h 0.56797 c 0.46566,0 0.60571,-0.411691 0.60571,-0.730954 0,-0.41028 -0.2286,-0.689679 -0.59901,-0.689679 h -0.57467 z m 0.19085,-1.25765 h 0.35842 c 0.2607,0 0.42615,0.18168 0.42615,0.538337 0,0.358775 -0.16298,0.55386 -0.41239,0.55386 h -0.37218"
       style="fill:#231f20;fill-opacity:1;fill-rule:nonzero;stroke:none;stroke-width:0.0352777"
       id="path288" />
    <path
       d="m -174.03289,36.217855 c -5.16853,0 -9.35846,-4.18852 -9.35846,-9.355291 0,-5.166418 4.18993,-9.354938 9.35846,-9.354938 5.1636,0 9.35177,4.18852 9.35177,9.354938 0,5.166771 -4.18817,9.355291 -9.35177,9.355291 z"
       style="fill:none;stroke:#9c9a9b;stroke-width:0.141111;stroke-linecap:butt;stroke-linejoin:miter;stroke-miterlimit:10;stroke-dasharray:none;stroke-opacity:1"
       id="path290" />
    <path
       d="m -171.23642,31.486058 c 0,-1.522585 -1.23367,-2.756951 -2.75413,-2.756951 -1.52294,0 -2.75942,1.234366 -2.75942,2.756951 0,1.522938 1.23648,2.757304 2.75942,2.757304 1.52046,0 2.75413,-1.234366 2.75413,-2.757304 z"
       style="fill:none;stroke:#9c9a9b;stroke-width:0.141111;stroke-linecap:round;stroke-linejoin:round;stroke-miterlimit:10;stroke-dasharray:none;stroke-opacity:1"
       id="path292" />
    <path
       d="m -167.54461,26.432529 v 0.86007 l 2.51071,0.08361 v -1.026228 z"
       style="fill:none;stroke:#9c9a9b;stroke-width:0.141111;stroke-linecap:round;stroke-linejoin:round;stroke-miterlimit:10;stroke-dasharray:none;stroke-opacity:1"
       id="path294" />
    <path
       d="m -180.52645,26.432529 -2.51177,-0.08255 v 1.025875 l 2.51177,-0.08326 z"
       style="fill:none;stroke:#9c9a9b;stroke-width:0.141111;stroke-linecap:round;stroke-linejoin:round;stroke-miterlimit:10;stroke-dasharray:none;stroke-opacity:1"
       id="path296" />
    <path
       d="m -174.93247,19.588304 0.56656,1.315153 h 0.6664 l 0.55985,-1.315153 v -1.761767 h -1.79281 z"
       style="fill:none;stroke:#9c9a9b;stroke-width:0.141111;stroke-linecap:round;stroke-linejoin:round;stroke-miterlimit:10;stroke-dasharray:none;stroke-opacity:1"
       id="path298" />
    <path
       d="m -174.56241,35.898239 1.05269,3.53e-4 V 34.49842 h -1.05269 z"
       style="fill:none;stroke:#9c9a9b;stroke-width:0.141111;stroke-linecap:round;stroke-linejoin:round;stroke-miterlimit:10;stroke-dasharray:none;stroke-opacity:1"
       id="path300" />
    <path
       d="m -177.61075,21.390642 0.62336,-0.359833 -1.19592,-2.208383 -0.74259,0.428624 z"
       style="fill:none;stroke:#9c9a9b;stroke-width:0.141111;stroke-linecap:round;stroke-linejoin:round;stroke-miterlimit:10;stroke-dasharray:none;stroke-opacity:1"
       id="path302" />
    <path
       d="m -179.86746,23.911233 0.36018,-0.623357 -2.13994,-1.314447 -0.42898,0.742243 z"
       style="fill:none;stroke:#9c9a9b;stroke-width:0.141111;stroke-linecap:round;stroke-linejoin:round;stroke-miterlimit:10;stroke-dasharray:none;stroke-opacity:1"
       id="path304" />
    <path
       d="m -179.50622,30.438311 -0.35983,-0.623357 -2.20803,1.195914 0.42827,0.742595 z"
       style="fill:none;stroke:#9c9a9b;stroke-width:0.141111;stroke-linecap:round;stroke-linejoin:round;stroke-miterlimit:10;stroke-dasharray:none;stroke-opacity:1"
       id="path306" />
    <path
       d="m -176.98563,32.694672 -0.62336,-0.360185 -1.31444,2.139944 0.74189,0.428977 z"
       style="fill:none;stroke:#9c9a9b;stroke-width:0.141111;stroke-linecap:round;stroke-linejoin:round;stroke-miterlimit:10;stroke-dasharray:none;stroke-opacity:1"
       id="path308" />
    <path
       d="m -170.45855,32.333428 -0.62336,0.359833 1.19556,2.20803 0.7433,-0.428271 z"
       style="fill:none;stroke:#9c9a9b;stroke-width:0.141111;stroke-linecap:round;stroke-linejoin:round;stroke-miterlimit:10;stroke-dasharray:none;stroke-opacity:1"
       id="path310" />
    <path
       d="m -168.20184,29.81319 -0.36018,0.623357 2.13994,1.314447 0.42933,-0.742243 z"
       style="fill:none;stroke:#9c9a9b;stroke-width:0.141111;stroke-linecap:round;stroke-linejoin:round;stroke-miterlimit:10;stroke-dasharray:none;stroke-opacity:1"
       id="path312" />
    <path
       d="m -168.56308,23.285759 0.35983,0.62371 2.20838,-1.195914 -0.42862,-0.742948 z"
       style="fill:none;stroke:#9c9a9b;stroke-width:0.141111;stroke-linecap:round;stroke-linejoin:round;stroke-miterlimit:10;stroke-dasharray:none;stroke-opacity:1"
       id="path314" />
    <path
       d="m -171.08367,21.029398 0.62335,0.360185 1.31445,-2.139944 -0.74224,-0.428977 z"
       style="fill:none;stroke:#9c9a9b;stroke-width:0.141111;stroke-linecap:round;stroke-linejoin:round;stroke-miterlimit:10;stroke-dasharray:none;stroke-opacity:1"
       id="path316" />
    <path
       d="m -171.98749,30.881751 h 0.24033 v -0.391638 h -0.24033 z"
       style="fill:#231f20;fill-opacity:1;fill-rule:nonzero;stroke:none;stroke-width:0.0352777"
       id="path318" />
    <path
       d="m -172.25383,30.881751 h 0.2406 v -0.391638 h -0.2406 z"
       style="fill:#231f20;fill-opacity:1;fill-rule:nonzero;stroke:none;stroke-width:0.0352777"
       id="path320" />
    <path
       d="m -172.51983,30.881751 h 0.24061 v -0.391638 h -0.24061 z"
       style="fill:#231f20;fill-opacity:1;fill-rule:nonzero;stroke:none;stroke-width:0.0352777"
       id="path322" />
    <path
       d="m -173.05217,30.881751 h 0.24061 v -0.391638 h -0.24061 z"
       style="fill:#231f20;fill-opacity:1;fill-rule:nonzero;stroke:none;stroke-width:0.0352777"
       id="path324" />
    <path
       d="m -173.31887,30.881751 h 0.24061 v -0.391638 h -0.24061 z"
       style="fill:#231f20;fill-opacity:1;fill-rule:nonzero;stroke:none;stroke-width:0.0352777"
       id="path326" />
    <path
       d="m -173.58521,30.881751 h 0.24019 v -0.391638 h -0.24019 z"
       style="fill:#231f20;fill-opacity:1;fill-rule:nonzero;stroke:none;stroke-width:0.0352777"
       id="path328" />
    <path
       d="m -174.65095,30.881751 h 0.24101 v -0.391638 h -0.24101 z"
       style="fill:#231f20;fill-opacity:1;fill-rule:nonzero;stroke:none;stroke-width:0.0352777"
       id="path330" />
    <path
       d="m -174.91659,30.881751 h 0.24019 v -0.391638 h -0.24019 z"
       style="fill:#231f20;fill-opacity:1;fill-rule:nonzero;stroke:none;stroke-width:0.0352777"
       id="path332" />
    <path
       d="m -175.18294,30.881751 h 0.24019 v -0.391638 h -0.24019 z"
       style="fill:#231f20;fill-opacity:1;fill-rule:nonzero;stroke:none;stroke-width:0.0352777"
       id="path334" />
    <path
       d="m -171.98749,31.299086 h 0.24033 v -0.391501 h -0.24033 z"
       style="fill:#231f20;fill-opacity:1;fill-rule:nonzero;stroke:none;stroke-width:0.0352777"
       id="path336" />
    <path
       d="m -172.51983,31.299086 h 0.24061 v -0.391501 h -0.24061 z"
       style="fill:#231f20;fill-opacity:1;fill-rule:nonzero;stroke:none;stroke-width:0.0352777"
       id="path338" />
    <path
       d="m -173.05217,31.299086 h 0.24061 v -0.391501 h -0.24061 z"
       style="fill:#231f20;fill-opacity:1;fill-rule:nonzero;stroke:none;stroke-width:0.0352777"
       id="path340" />
    <path
       d="m -175.18294,31.299086 h 0.24019 v -0.391501 h -0.24019 z"
       style="fill:#231f20;fill-opacity:1;fill-rule:nonzero;stroke:none;stroke-width:0.0352777"
       id="path342" />
    <path
       d="m -171.98749,31.716421 h 0.24033 v -0.391638 h -0.24033 z"
       style="fill:#231f20;fill-opacity:1;fill-rule:nonzero;stroke:none;stroke-width:0.0352777"
       id="path344" />
    <path
       d="m -172.51983,31.716421 h 0.24061 v -0.391638 h -0.24061 z"
       style="fill:#231f20;fill-opacity:1;fill-rule:nonzero;stroke:none;stroke-width:0.0352777"
       id="path346" />
    <path
       d="m -173.05217,31.716421 h 0.24061 v -0.391638 h -0.24061 z"
       style="fill:#231f20;fill-opacity:1;fill-rule:nonzero;stroke:none;stroke-width:0.0352777"
       id="path348" />
    <path
       d="m -173.31887,31.716421 h 0.24061 v -0.391638 h -0.24061 z"
       style="fill:#231f20;fill-opacity:1;fill-rule:nonzero;stroke:none;stroke-width:0.0352777"
       id="path350" />
    <path
       d="m -173.58521,31.716421 h 0.24019 v -0.391638 h -0.24019 z"
       style="fill:#231f20;fill-opacity:1;fill-rule:nonzero;stroke:none;stroke-width:0.0352777"
       id="path352" />
    <path
       d="m -174.65095,31.716421 h 0.24101 v -0.391638 h -0.24101 z"
       style="fill:#231f20;fill-opacity:1;fill-rule:nonzero;stroke:none;stroke-width:0.0352777"
       id="path354" />
    <path
       d="m -174.91659,31.716421 h 0.24019 v -0.391638 h -0.24019 z"
       style="fill:#231f20;fill-opacity:1;fill-rule:nonzero;stroke:none;stroke-width:0.0352777"
       id="path356" />
    <path
       d="m -175.18294,31.716421 h 0.24019 v -0.391638 h -0.24019 z"
       style="fill:#231f20;fill-opacity:1;fill-rule:nonzero;stroke:none;stroke-width:0.0352777"
       id="path358" />
    <path
       d="m -171.98749,32.133757 h 0.24033 v -0.391914 h -0.24033 z"
       style="fill:#231f20;fill-opacity:1;fill-rule:nonzero;stroke:none;stroke-width:0.0352777"
       id="path360" />
    <path
       d="m -172.51983,32.133757 h 0.24061 v -0.391914 h -0.24061 z"
       style="fill:#231f20;fill-opacity:1;fill-rule:nonzero;stroke:none;stroke-width:0.0352777"
       id="path362" />
    <path
       d="m -173.05217,32.133757 h 0.24061 v -0.391914 h -0.24061 z"
       style="fill:#231f20;fill-opacity:1;fill-rule:nonzero;stroke:none;stroke-width:0.0352777"
       id="path364" />
    <path
       d="m -174.11791,32.133757 h 0.24061 v -0.391914 h -0.24061 z"
       style="fill:#231f20;fill-opacity:1;fill-rule:nonzero;stroke:none;stroke-width:0.0352777"
       id="path366" />
    <path
       d="m -174.65095,32.133757 h 0.24101 v -0.391914 h -0.24101 z"
       style="fill:#231f20;fill-opacity:1;fill-rule:nonzero;stroke:none;stroke-width:0.0352777"
       id="path368" />
    <path
       d="m -175.18294,32.133757 h 0.24019 v -0.391914 h -0.24019 z"
       style="fill:#231f20;fill-opacity:1;fill-rule:nonzero;stroke:none;stroke-width:0.0352777"
       id="path370" />
    <path
       d="m -171.98749,32.551444 h 0.24033 v -0.391501 h -0.24033 z"
       style="fill:#231f20;fill-opacity:1;fill-rule:nonzero;stroke:none;stroke-width:0.0352777"
       id="path372" />
    <path
       d="m -172.25383,32.551444 h 0.2406 v -0.391501 h -0.2406 z"
       style="fill:#231f20;fill-opacity:1;fill-rule:nonzero;stroke:none;stroke-width:0.0352777"
       id="path374" />
    <path
       d="m -172.51983,32.551444 h 0.24061 v -0.391501 h -0.24061 z"
       style="fill:#231f20;fill-opacity:1;fill-rule:nonzero;stroke:none;stroke-width:0.0352777"
       id="path376" />
    <path
       d="m -173.05217,32.551444 h 0.24061 v -0.391501 h -0.24061 z"
       style="fill:#231f20;fill-opacity:1;fill-rule:nonzero;stroke:none;stroke-width:0.0352777"
       id="path378" />
    <path
       d="m -173.31887,32.551444 h 0.24061 v -0.391501 h -0.24061 z"
       style="fill:#231f20;fill-opacity:1;fill-rule:nonzero;stroke:none;stroke-width:0.0352777"
       id="path380" />
    <path
       d="m -173.58521,32.551444 h 0.24019 v -0.391501 h -0.24019 z"
       style="fill:#231f20;fill-opacity:1;fill-rule:nonzero;stroke:none;stroke-width:0.0352777"
       id="path382" />
    <path
       d="m -174.11791,32.551444 h 0.24061 v -0.391501 h -0.24061 z"
       style="fill:#231f20;fill-opacity:1;fill-rule:nonzero;stroke:none;stroke-width:0.0352777"
       id="path384" />
    <path
       d="m -174.65095,32.551444 h 0.24101 v -0.391501 h -0.24101 z"
       style="fill:#231f20;fill-opacity:1;fill-rule:nonzero;stroke:none;stroke-width:0.0352777"
       id="path386" />
    <path
       d="m -174.91659,32.551444 h 0.24019 v -0.391501 h -0.24019 z"
       style="fill:#231f20;fill-opacity:1;fill-rule:nonzero;stroke:none;stroke-width:0.0352777"
       id="path388" />
    <path
       d="m -175.18294,32.551444 h 0.24019 v -0.391501 h -0.24019 z"
       style="fill:#231f20;fill-opacity:1;fill-rule:nonzero;stroke:none;stroke-width:0.0352777"
       id="path390" />
    <path
       d="m -174.31052,25.917828 c 0.5214,-0.156281 1.0675,0.138994 1.22413,0.660045 0.0261,0.08502 0.0395,0.17145 0.0427,0.259997 l 1.11971,0.814209 0.002,0.649109 -0.60536,0.234597 -1.16664,-0.74577 c -0.0832,0.02963 -0.16862,0.04833 -0.25717,0.05539 -0.54292,0.0448 -1.0167,-0.356305 -1.06186,-0.898876 l -2.23484,-1.42663 -0.87736,-1.450266 1.6704,0.287866 z"
       style="fill:none;stroke:#ffffff;stroke-width:0.352777;stroke-linecap:round;stroke-linejoin:round;stroke-miterlimit:10;stroke-dasharray:none;stroke-opacity:1"
       id="path392" />
    <path
       d="m -174.31052,25.917828 c 0.5214,-0.156281 1.0675,0.138994 1.22413,0.660045 0.0261,0.08502 0.0395,0.17145 0.0427,0.259997 l 1.11971,0.814209 0.002,0.649109 -0.60536,0.234597 -1.16664,-0.74577 c -0.0832,0.02963 -0.16862,0.04833 -0.25717,0.05539 -0.54292,0.0448 -1.0167,-0.356305 -1.06186,-0.898876 l -2.23484,-1.42663 -0.87736,-1.450266 1.6704,0.287866"
       style="fill:#4f4c4c;fill-opacity:1;fill-rule:nonzero;stroke:none;stroke-width:0.0352777"
       id="path394" />
    <path
       d="m -174.31052,25.917828 c 0.5214,-0.156281 1.0675,0.138994 1.22413,0.660045 0.0261,0.08502 0.0395,0.17145 0.0427,0.259997 l 1.11971,0.814209 0.002,0.649109 -0.60536,0.234597 -1.16664,-0.74577 c -0.0832,0.02963 -0.16862,0.04833 -0.25717,0.05539 -0.54292,0.0448 -1.0167,-0.356305 -1.06186,-0.898876 l -2.23484,-1.42663 -0.87736,-1.450266 1.6704,0.287866 z"
       style="fill:none;stroke:#4f4c4c;stroke-width:0.105833;stroke-linecap:round;stroke-linejoin:round;stroke-miterlimit:10;stroke-dasharray:none;stroke-opacity:1"
       id="path396" />
    <path
       d="m -169.90963,22.935452 -3.95392,3.154178 c -0.42757,-0.09631 -0.85161,0.172508 -0.94792,0.601485 -0.0152,0.05891 -0.0219,0.121708 -0.0205,0.183796 l -1.39382,1.175453 0.0272,0.523521 0.52775,0.176035 1.49013,-1.104544 c 0.43039,0.07938 0.84419,-0.206727 0.92427,-0.637115 0.005,-0.02787 0.008,-0.0568 0.0106,-0.08714 l 4.00225,-3.143948 0.83749,-1.372302 z"
       style="fill:none;stroke:#ffffff;stroke-width:0.352777;stroke-linecap:round;stroke-linejoin:round;stroke-miterlimit:10;stroke-dasharray:none;stroke-opacity:1"
       id="path398" />
    <path
       d="m -169.90963,22.935452 -3.95392,3.154178 c -0.42757,-0.09631 -0.85161,0.172508 -0.94792,0.601485 -0.0152,0.05891 -0.0219,0.121708 -0.0205,0.183796 l -1.39382,1.175453 0.0272,0.523521 0.52775,0.176035 1.49013,-1.104544 c 0.43039,0.07938 0.84419,-0.206727 0.92427,-0.637115 0.005,-0.02787 0.008,-0.0568 0.0106,-0.08714 l 4.00225,-3.143948 0.83749,-1.372302"
       style="fill:#4f4c4c;fill-opacity:1;fill-rule:nonzero;stroke:none;stroke-width:0.0352777"
       id="path400" />
    <path
       d="m -169.90963,22.935452 -3.95392,3.154178 c -0.42757,-0.09631 -0.85161,0.172508 -0.94792,0.601485 -0.0152,0.05891 -0.0219,0.121708 -0.0205,0.183796 l -1.39382,1.175453 0.0272,0.523521 0.52775,0.176035 1.49013,-1.104544 c 0.43039,0.07938 0.84419,-0.206727 0.92427,-0.637115 0.005,-0.02787 0.008,-0.0568 0.0106,-0.08714 l 4.00225,-3.143948 0.83749,-1.372302 z"
       style="fill:none;stroke:#4f4c4c;stroke-width:0.105833;stroke-linecap:round;stroke-linejoin:round;stroke-miterlimit:10;stroke-dasharray:none;stroke-opacity:1"
       id="path402" />
    <path
       d="m -173.87449,27.074936 c 0.11465,-0.09066 0.13441,-0.257175 0.0434,-0.371827 -0.091,-0.114653 -0.25647,-0.134055 -0.37183,-0.04339 -0.115,0.09102 -0.1344,0.257528 -0.0434,0.37218 0.091,0.115005 0.25788,0.133702 0.37183,0.04304"
       style="fill:#ffffff;fill-opacity:1;fill-rule:nonzero;stroke:none;stroke-width:0.0352777"
       id="path404" />
    <text
       xml:space="preserve"
       transform="scale(1,-1)"
       style="font-variant:normal;font-weight:normal;font-size:0.0352777px;font-family:Arial;-inkscape-font-specification:Arial;writing-mode:lr-tb;fill:#231f20;fill-opacity:1;fill-rule:nonzero;stroke:none;stroke-width:0.352777"
       id="text414"
       x="-167.0322"
       y="-18.703394"><tspan
         x="-167.0322 -164.91554 -162.79887 -160.68222 -158.56555 -156.4489 -154.33223"
         y="-18.703394"
         sodipodi:role="line"
         id="tspan408"
         style="stroke-width:0.352777">✈✇①②③④⑤</tspan><tspan
         x="-184.98854 -182.87189 -180.75522 -178.63857 -176.5219 -174.40524 -172.28857"
         y="-41.21056"
         sodipodi:role="line"
         id="tspan410"
         style="stroke-width:0.352777">⑥⑦⑧⑨⑩❶❷</tspan><tspan
         x="-179.27356 -177.15689 -171.54774 -169.3958"
         y="-13.411739"
         sodipodi:role="line"
         id="tspan412"
         style="stroke-width:0.352777">❸❹❺❹</tspan></text>
    <path
       d="M -177.15249,14.376731 V 24.475676"
       style="fill:none;stroke:#ffffff;stroke-width:0.423332;stroke-linecap:round;stroke-linejoin:round;stroke-miterlimit:4;stroke-dasharray:none;stroke-opacity:1"
       id="path416" />
    <path
       d="M -177.15249,14.376731 V 24.475676"
       style="fill:none;stroke:#231f20;stroke-width:0.0881942;stroke-linecap:butt;stroke-linejoin:miter;stroke-miterlimit:4;stroke-dasharray:none;stroke-opacity:1"
       id="path418" />
    <path
       d="m -169.40269,14.376731 v 8.780617"
       style="fill:none;stroke:#ffffff;stroke-width:0.423332;stroke-linecap:round;stroke-linejoin:round;stroke-miterlimit:4;stroke-dasharray:none;stroke-opacity:1"
       id="path420" />
    <path
       d="m -169.40269,14.376731 v 8.780617"
       style="fill:none;stroke:#231f20;stroke-width:0.0881942;stroke-linecap:butt;stroke-linejoin:miter;stroke-miterlimit:4;stroke-dasharray:none;stroke-opacity:1"
       id="path422" />
    <path
       d="m -175.5276,31.520983 h -1.90394 v 7.176541"
       style="fill:none;stroke:#ffffff;stroke-width:0.423332;stroke-linecap:round;stroke-linejoin:round;stroke-miterlimit:4;stroke-dasharray:none;stroke-opacity:1"
       id="path424" />
    <path
       d="m -175.5276,31.520983 h -1.90394 v 7.176541"
       style="fill:none;stroke:#231f20;stroke-width:0.0881942;stroke-linecap:butt;stroke-linejoin:miter;stroke-miterlimit:4;stroke-dasharray:none;stroke-opacity:1"
       id="path426" />
  </g>
</svg>
