<?xml version="1.0" encoding="UTF-8" standalone="no"?>
<!-- Created with Inkscape (http://www.inkscape.org/) -->

<svg
   width="25.19603mm"
   height="15.547653mm"
   viewBox="0 0 25.19603 15.547653"
   version="1.1"
   id="svg4349"
   inkscape:version="1.2.2 (b0a8486541, 2022-12-01)"
   sodipodi:docname="9:08_dst.svg"
   xmlns:inkscape="http://www.inkscape.org/namespaces/inkscape"
   xmlns:sodipodi="http://sodipodi.sourceforge.net/DTD/sodipodi-0.dtd"
   xmlns="http://www.w3.org/2000/svg"
   xmlns:svg="http://www.w3.org/2000/svg">
  <sodipodi:namedview
     id="namedview4351"
     pagecolor="#ffffff"
     bordercolor="#666666"
     borderopacity="1.0"
     inkscape:showpageshadow="2"
     inkscape:pageopacity="0.0"
     inkscape:pagecheckerboard="0"
     inkscape:deskcolor="#d1d1d1"
     inkscape:document-units="mm"
     showgrid="false"
     inkscape:zoom="0.44542649"
     inkscape:cx="1115.7846"
     inkscape:cy="464.72315"
     inkscape:window-width="1366"
     inkscape:window-height="685"
     inkscape:window-x="0"
     inkscape:window-y="27"
     inkscape:window-maximized="1"
     inkscape:current-layer="layer1" />
  <defs
     id="defs4346">
    <clipPath
       clipPathUnits="userSpaceOnUse"
       id="clipPath1102">
      <path
         d="m 2708.37,1085.59 h 713.699 v 357.172 H 2708.37 Z"
         id="path1100" />
    </clipPath>
    <clipPath
       clipPathUnits="userSpaceOnUse"
       id="clipPath4276">
      <path
         d="m 2708.37,1085.59 h 713.699 v 357.172 H 2708.37 Z"
         id="path4274" />
    </clipPath>
    <clipPath
       clipPathUnits="userSpaceOnUse"
       id="clipPath4280">
      <path
         d="m 2708.37,1085.59 h 713.699 v 357.172 H 2708.37 Z"
         id="path4278" />
    </clipPath>
  </defs>
  <g
     inkscape:label="Layer 1"
     inkscape:groupmode="layer"
     id="layer1"
     transform="translate(190.20402,-25.490172)">
    <path
       d="m -184.80829,25.862775 -0.43286,-0.19438 c 0,0 -0.35878,-0.173566 -0.66005,0.06103 -0.248,0.192616 -0.69356,0.507998 -1.42134,1.660873 -0.71507,1.157461 -0.77258,1.648174 -0.82126,1.931101 -0.0596,0.343252 0.31009,0.498827 0.31009,0.498827 l 0.43215,0.19438"
       style="fill:#9c9a9b;fill-opacity:1;fill-rule:nonzero;stroke:none;stroke-width:0.0352777"
       id="path1088" />
    <path
       d="m -170.36314,25.862775 0.43286,-0.19438 c 0,0 0.35877,-0.173566 0.66004,0.06103 0.24765,0.192616 0.69356,0.507998 1.42099,1.660873 0.71543,1.157461 0.77293,1.648174 0.82126,1.931101 0.0596,0.343252 -0.31009,0.498827 -0.31009,0.498827 l -0.4318,0.19438"
       style="fill:#9c9a9b;fill-opacity:1;fill-rule:nonzero;stroke:none;stroke-width:0.0352777"
       id="path1090" />
    <path
       d="m -184.80829,37.718196 -0.43286,0.194733 c 0,0 -0.35878,0.173566 -0.66005,-0.06103 -0.248,-0.192616 -0.69356,-0.508351 -1.42134,-1.660873 -0.71507,-1.157814 -0.77258,-1.648174 -0.82126,-1.931454 -0.0596,-0.342899 0.31009,-0.498474 0.31009,-0.498474 l 0.43215,-0.19438"
       style="fill:#9c9a9b;fill-opacity:1;fill-rule:nonzero;stroke:none;stroke-width:0.0352777"
       id="path1092" />
    <path
       d="m -170.36314,37.718196 0.43286,0.194733 c 0,0 0.35877,0.173566 0.66004,-0.06103 0.24765,-0.192616 0.69356,-0.508351 1.42099,-1.660873 0.71543,-1.157814 0.77293,-1.648174 0.82126,-1.931454 0.0596,-0.342899 -0.31009,-0.498474 -0.31009,-0.498474 l -0.4318,-0.19438"
       style="fill:#9c9a9b;fill-opacity:1;fill-rule:nonzero;stroke:none;stroke-width:0.0352777"
       id="path1094" />
    <path
       d="m 3358.48,1264.17 c 0,-137.51 -131.15,-248.99 -292.95,-248.99 -161.78,0 -292.93,111.48 -292.93,248.99 0,137.51 131.15,249 292.93,249 161.8,0 292.95,-111.49 292.95,-249"
       style="fill:#ffffff;fill-opacity:1;fill-rule:nonzero;stroke:none"
       id="path1104"
       clip-path="url(#clipPath1102)"
       transform="matrix(0.03527769,0,0,-0.03527769,-285.73071,76.387483)" />
    <path
       d="m 3358.48,1264.17 c 0,-137.51 -131.15,-248.99 -292.95,-248.99 -161.78,0 -292.93,111.48 -292.93,248.99 0,137.51 131.15,249 292.93,249 161.8,0 292.95,-111.49 292.95,-249 z"
       style="fill:none;stroke:#9c9a9b;stroke-width:6;stroke-linecap:butt;stroke-linejoin:miter;stroke-miterlimit:10;stroke-dasharray:none;stroke-opacity:1"
       id="path1106"
       clip-path="url(#clipPath1102)"
       transform="matrix(0.03527769,0,0,-0.03527769,-285.73071,76.387483)" />
    <path
       d="m 3335,1264.17 c 0,-126.5 -120.64,-229.05 -269.47,-229.05 -148.82,0 -269.46,102.55 -269.46,229.05 0,126.5 120.64,229.05 269.46,229.05 148.83,0 269.47,-102.55 269.47,-229.05 z"
       style="fill:none;stroke:#9c9a9b;stroke-width:4;stroke-linecap:butt;stroke-linejoin:miter;stroke-miterlimit:10;stroke-dasharray:none;stroke-opacity:1"
       id="path1108"
       clip-path="url(#clipPath1102)"
       transform="matrix(0.03527769,0,0,-0.03527769,-285.73071,76.387483)" />
    <path
       d="m -190.20402,26.80222 c 0,0.656518 0.54046,1.197325 1.19733,1.197325 0.65616,0 1.19626,-0.540807 1.19626,-1.197325 0,-0.656518 -0.5401,-1.196266 -1.19626,-1.196266 -0.65687,0 -1.19733,0.539748 -1.19733,1.196266 m 1.19733,-1.084789 c 0.5976,0 1.08479,0.487185 1.08479,1.084789 0,0.596193 -0.48895,1.084789 -1.08479,1.084789 -0.59655,0 -1.08585,-0.488596 -1.08585,-1.084789 0,-0.597604 0.48683,-1.084789 1.08585,-1.084789 m 0.28575,1.39735 0.14217,0.414512 h 0.20919 l -0.51435,-1.420632 h -0.21907 l -0.5334,1.420632 h 0.19861 l 0.14888,-0.414512 z m -0.51012,-0.170392 0.22825,-0.624062 h 0.005 l 0.20919,0.624062"
       style="fill:#231f20;fill-opacity:1;fill-rule:nonzero;stroke:none;stroke-width:0.0352777"
       id="path1110" />
    <path
       d="m -167.40158,26.802926 c 0,0.656518 0.54046,1.196619 1.19698,1.196619 0.65687,0 1.19661,-0.540101 1.19661,-1.196619 0,-0.656518 -0.53974,-1.197325 -1.19661,-1.197325 -0.65652,0 -1.19698,0.540807 -1.19698,1.197325 m 1.19698,-1.092197 c 0.59866,0 1.08514,0.493534 1.08514,1.092197 0,0.596193 -0.48895,1.084789 -1.08514,1.084789 -0.59584,0 -1.08479,-0.488596 -1.08479,-1.084789 0,-0.598663 0.48648,-1.092197 1.08479,-1.092197 m -0.24448,1.184977 h 0.37959 c 0.15593,0 0.3309,0.03951 0.3309,0.239536 0,0.158749 -0.10018,0.258938 -0.30092,0.258938 h -0.40957 z m -0.19085,0.663926 h 0.61242 c 0.31432,0 0.48189,-0.191205 0.48189,-0.419099 0,-0.244827 -0.16545,-0.309385 -0.25858,-0.347485 0.15875,-0.07197 0.1912,-0.202494 0.1912,-0.295274 0,-0.195791 -0.13723,-0.358774 -0.40252,-0.358774 h -0.62441 z m 0.19085,-1.257649 h 0.34925 c 0.21449,0 0.29563,0.07691 0.29563,0.209902 0,0.172155 -0.11395,0.228247 -0.29775,0.228247 h -0.34713"
       style="fill:#231f20;fill-opacity:1;fill-rule:nonzero;stroke:none;stroke-width:0.0352777"
       id="path1112" />
    <path
       d="m -190.20402,36.778398 c 0,0.657224 0.54046,1.197325 1.19733,1.197325 0.65616,0 1.19626,-0.540101 1.19626,-1.197325 0,-0.656518 -0.5401,-1.196619 -1.19626,-1.196619 -0.65687,0 -1.19733,0.540101 -1.19733,1.196619 m 1.80481,-0.251177 c -0.0282,-0.237419 -0.21907,-0.463196 -0.58455,-0.463196 -0.41416,0 -0.66393,0.302683 -0.66393,0.738362 0,0.546451 0.3168,0.756354 0.641,0.756354 0.10618,0 0.54222,-0.02293 0.62159,-0.558799 h -0.18697 c -0.0653,0.330552 -0.28116,0.388407 -0.40499,0.388407 -0.35383,0 -0.47201,-0.25541 -0.47201,-0.590901 0,-0.374649 0.20884,-0.563032 0.46531,-0.563032 0.13723,0 0.34501,0.04374 0.39758,0.292805 z m -0.60748,-0.833612 c 0.5976,0 1.08479,0.486832 1.08479,1.084789 0,0.596193 -0.48895,1.085495 -1.08479,1.085495 -0.59655,0 -1.08585,-0.489302 -1.08585,-1.085495 0,-0.597957 0.48683,-1.084789 1.08585,-1.084789"
       style="fill:#231f20;fill-opacity:1;fill-rule:nonzero;stroke:none;stroke-width:0.0352777"
       id="path1114" />
    <path
       d="m -167.40405,36.778398 c 0,0.657224 0.53975,1.197325 1.19662,1.197325 0.65687,0 1.19662,-0.540101 1.19662,-1.197325 0,-0.656518 -0.53975,-1.196619 -1.19662,-1.196619 -0.65687,0 -1.19662,0.540101 -1.19662,1.196619 m 1.19662,-1.091492 c 0.59867,0 1.08514,0.493535 1.08514,1.091492 0,0.596193 -0.4893,1.085495 -1.08514,1.085495 -0.59584,0 -1.08514,-0.489302 -1.08514,-1.085495 0,-0.597957 0.48683,-1.091492 1.08514,-1.091492 m -0.48401,1.843965 h 0.56797 c 0.46567,0 0.60572,-0.412043 0.60572,-0.730953 0,-0.41028 -0.2286,-0.689679 -0.59901,-0.689679 h -0.57468 z m 0.19086,-1.257649 h 0.35842 c 0.2607,0 0.42615,0.18168 0.42615,0.538337 0,0.358774 -0.16298,0.55386 -0.41239,0.55386 h -0.37218"
       style="fill:#231f20;fill-opacity:1;fill-rule:nonzero;stroke:none;stroke-width:0.0352777"
       id="path1116" />
    <path
       d="m -171.7873,31.73263 c 0,-3.197217 -2.59079,-5.790127 -5.78378,-5.790127 -3.19792,0 -5.79506,2.59291 -5.79506,5.790127 0,3.198981 2.59714,5.791186 5.79506,5.791186 3.19299,0 5.78378,-2.592205 5.78378,-5.791186 z"
       style="fill:none;stroke:#9c9a9b;stroke-width:0.141111;stroke-linecap:round;stroke-linejoin:round;stroke-miterlimit:10;stroke-dasharray:none;stroke-opacity:1"
       id="path1118" />
    <path
       d="m -179.25029,36.028042 h 0.30162 c 0.19685,0 0.38453,-0.115006 0.38453,-0.440619 0,-0.295979 -0.11042,-0.484715 -0.4445,-0.484715 h -0.24165 z m -0.33796,-1.196619 h 0.66463 c 0.39793,0 0.69779,0.239888 0.69779,0.726367 0,0.424744 -0.22895,0.741537 -0.69779,0.741537 h -0.66463"
       style="fill:#231f20;fill-opacity:1;fill-rule:nonzero;stroke:none;stroke-width:0.0352777"
       id="path1120" />
    <path
       d="m -177.75875,35.812142 c 0,0.195086 0.15945,0.271286 0.34078,0.271286 0.11818,0 0.2988,-0.03316 0.2988,-0.182739 0,-0.160513 -0.23283,-0.182738 -0.45579,-0.243063 -0.2293,-0.05362 -0.46002,-0.145697 -0.46002,-0.417688 0,-0.301624 0.29775,-0.443793 0.57573,-0.443793 0.32138,0 0.61666,0.132997 0.61666,0.472721 h -0.32738 c -0.0116,-0.174272 -0.1404,-0.221544 -0.30515,-0.221544 -0.10689,0 -0.23213,0.04304 -0.23213,0.166158 0,0.113594 0.0734,0.129822 0.45861,0.222602 0.11465,0.0247 0.45791,0.09596 0.45791,0.427566 0,0.269521 -0.22084,0.470957 -0.64065,0.470957 -0.34078,0 -0.66145,-0.160161 -0.65581,-0.522463"
       style="fill:#231f20;fill-opacity:1;fill-rule:nonzero;stroke:none;stroke-width:0.0352777"
       id="path1122" />
    <path
       d="m -176.24781,35.103061 h -0.46249 v -0.271286 h 1.26118 v 0.271286 h -0.46144 v 1.196266 h -0.33725"
       style="fill:#231f20;fill-opacity:1;fill-rule:nonzero;stroke:none;stroke-width:0.0352777"
       id="path1124" />
    <path
       d="m -173.36421,30.463339 h 0.50519 v -0.822686 h -0.50519 z"
       style="fill:#231f20;fill-opacity:1;fill-rule:nonzero;stroke:none;stroke-width:0.0352777"
       id="path1126" />
    <path
       d="m -173.92336,30.463339 h 0.50546 v -0.822686 h -0.50546 z"
       style="fill:#231f20;fill-opacity:1;fill-rule:nonzero;stroke:none;stroke-width:0.0352777"
       id="path1128" />
    <path
       d="m -174.48216,30.463339 h 0.50519 v -0.822686 h -0.50519 z"
       style="fill:#231f20;fill-opacity:1;fill-rule:nonzero;stroke:none;stroke-width:0.0352777"
       id="path1130" />
    <path
       d="m -175.60046,30.463339 h 0.50518 v -0.822686 h -0.50518 z"
       style="fill:#231f20;fill-opacity:1;fill-rule:nonzero;stroke:none;stroke-width:0.0352777"
       id="path1132" />
    <path
       d="m -176.16032,30.463339 h 0.50519 v -0.822686 h -0.50519 z"
       style="fill:#231f20;fill-opacity:1;fill-rule:nonzero;stroke:none;stroke-width:0.0352777"
       id="path1134" />
    <path
       d="m -176.71912,30.463339 h 0.50519 v -0.822686 h -0.50519 z"
       style="fill:#231f20;fill-opacity:1;fill-rule:nonzero;stroke:none;stroke-width:0.0352777"
       id="path1136" />
    <path
       d="m -178.95678,30.463339 h 0.50532 v -0.822686 h -0.50532 z"
       style="fill:#231f20;fill-opacity:1;fill-rule:nonzero;stroke:none;stroke-width:0.0352777"
       id="path1138" />
    <path
       d="m -179.51558,30.463339 h 0.50491 v -0.822686 h -0.50491 z"
       style="fill:#231f20;fill-opacity:1;fill-rule:nonzero;stroke:none;stroke-width:0.0352777"
       id="path1140" />
    <path
       d="m -180.07438,30.463339 h 0.50519 v -0.822686 h -0.50519 z"
       style="fill:#231f20;fill-opacity:1;fill-rule:nonzero;stroke:none;stroke-width:0.0352777"
       id="path1142" />
    <path
       d="m -173.36421,31.340695 h 0.50519 v -0.822549 h -0.50519 z"
       style="fill:#231f20;fill-opacity:1;fill-rule:nonzero;stroke:none;stroke-width:0.0352777"
       id="path1144" />
    <path
       d="m -174.48216,31.340695 h 0.50519 v -0.822549 h -0.50519 z"
       style="fill:#231f20;fill-opacity:1;fill-rule:nonzero;stroke:none;stroke-width:0.0352777"
       id="path1146" />
    <path
       d="m -175.60046,31.340695 h 0.50518 v -0.822549 h -0.50518 z"
       style="fill:#231f20;fill-opacity:1;fill-rule:nonzero;stroke:none;stroke-width:0.0352777"
       id="path1148" />
    <path
       d="m -176.71912,31.340695 h 0.50519 v -0.822549 h -0.50519 z"
       style="fill:#231f20;fill-opacity:1;fill-rule:nonzero;stroke:none;stroke-width:0.0352777"
       id="path1150" />
    <path
       d="m -177.83813,31.340695 h 0.50629 v -0.822549 h -0.50629 z"
       style="fill:#231f20;fill-opacity:1;fill-rule:nonzero;stroke:none;stroke-width:0.0352777"
       id="path1152" />
    <path
       d="m -178.95678,31.340695 h 0.50532 v -0.822549 h -0.50532 z"
       style="fill:#231f20;fill-opacity:1;fill-rule:nonzero;stroke:none;stroke-width:0.0352777"
       id="path1154" />
    <path
       d="m -180.07438,31.340695 h 0.50519 v -0.822549 h -0.50519 z"
       style="fill:#231f20;fill-opacity:1;fill-rule:nonzero;stroke:none;stroke-width:0.0352777"
       id="path1156" />
    <path
       d="m -173.36421,32.216287 h 0.50519 v -0.82186 h -0.50519 z"
       style="fill:#231f20;fill-opacity:1;fill-rule:nonzero;stroke:none;stroke-width:0.0352777"
       id="path1158" />
    <path
       d="m -173.92336,32.216287 h 0.50546 v -0.82186 h -0.50546 z"
       style="fill:#231f20;fill-opacity:1;fill-rule:nonzero;stroke:none;stroke-width:0.0352777"
       id="path1160" />
    <path
       d="m -174.48216,32.216287 h 0.50519 v -0.82186 h -0.50519 z"
       style="fill:#231f20;fill-opacity:1;fill-rule:nonzero;stroke:none;stroke-width:0.0352777"
       id="path1162" />
    <path
       d="m -175.60046,32.216287 h 0.50518 v -0.82186 h -0.50518 z"
       style="fill:#231f20;fill-opacity:1;fill-rule:nonzero;stroke:none;stroke-width:0.0352777"
       id="path1164" />
    <path
       d="m -176.71912,32.216287 h 0.50519 v -0.82186 h -0.50519 z"
       style="fill:#231f20;fill-opacity:1;fill-rule:nonzero;stroke:none;stroke-width:0.0352777"
       id="path1166" />
    <path
       d="m -178.95678,32.216287 h 0.50532 v -0.82186 h -0.50532 z"
       style="fill:#231f20;fill-opacity:1;fill-rule:nonzero;stroke:none;stroke-width:0.0352777"
       id="path1168" />
    <path
       d="m -179.51558,32.216287 h 0.50491 v -0.82186 h -0.50491 z"
       style="fill:#231f20;fill-opacity:1;fill-rule:nonzero;stroke:none;stroke-width:0.0352777"
       id="path1170" />
    <path
       d="m -180.07438,32.216287 h 0.50519 v -0.82186 h -0.50519 z"
       style="fill:#231f20;fill-opacity:1;fill-rule:nonzero;stroke:none;stroke-width:0.0352777"
       id="path1172" />
    <path
       d="m -173.36421,33.093644 h 0.50519 v -0.822687 h -0.50519 z"
       style="fill:#231f20;fill-opacity:1;fill-rule:nonzero;stroke:none;stroke-width:0.0352777"
       id="path1174" />
    <path
       d="m -174.48216,33.093644 h 0.50519 v -0.822687 h -0.50519 z"
       style="fill:#231f20;fill-opacity:1;fill-rule:nonzero;stroke:none;stroke-width:0.0352777"
       id="path1176" />
    <path
       d="m -175.60046,33.093644 h 0.50518 v -0.822687 h -0.50518 z"
       style="fill:#231f20;fill-opacity:1;fill-rule:nonzero;stroke:none;stroke-width:0.0352777"
       id="path1178" />
    <path
       d="m -176.71912,33.093644 h 0.50519 v -0.822687 h -0.50519 z"
       style="fill:#231f20;fill-opacity:1;fill-rule:nonzero;stroke:none;stroke-width:0.0352777"
       id="path1180" />
    <path
       d="m -177.83813,33.093644 h 0.50629 v -0.822687 h -0.50629 z"
       style="fill:#231f20;fill-opacity:1;fill-rule:nonzero;stroke:none;stroke-width:0.0352777"
       id="path1182" />
    <path
       d="m -178.95678,33.093644 h 0.50532 v -0.822687 h -0.50532 z"
       style="fill:#231f20;fill-opacity:1;fill-rule:nonzero;stroke:none;stroke-width:0.0352777"
       id="path1184" />
    <path
       d="m -173.36421,33.969941 h 0.50519 v -0.821998 h -0.50519 z"
       style="fill:#231f20;fill-opacity:1;fill-rule:nonzero;stroke:none;stroke-width:0.0352777"
       id="path1186" />
    <path
       d="m -173.92336,33.969941 h 0.50546 v -0.821998 h -0.50546 z"
       style="fill:#231f20;fill-opacity:1;fill-rule:nonzero;stroke:none;stroke-width:0.0352777"
       id="path1188" />
    <path
       d="m -174.48216,33.969941 h 0.50519 v -0.821998 h -0.50519 z"
       style="fill:#231f20;fill-opacity:1;fill-rule:nonzero;stroke:none;stroke-width:0.0352777"
       id="path1190" />
    <path
       d="m -175.60046,33.969941 h 0.50518 v -0.821998 h -0.50518 z"
       style="fill:#231f20;fill-opacity:1;fill-rule:nonzero;stroke:none;stroke-width:0.0352777"
       id="path1192" />
    <path
       d="m -176.16032,33.969941 h 0.50519 v -0.821998 h -0.50519 z"
       style="fill:#231f20;fill-opacity:1;fill-rule:nonzero;stroke:none;stroke-width:0.0352777"
       id="path1194" />
    <path
       d="m -176.71912,33.969941 h 0.50519 v -0.821998 h -0.50519 z"
       style="fill:#231f20;fill-opacity:1;fill-rule:nonzero;stroke:none;stroke-width:0.0352777"
       id="path1196" />
    <path
       d="m -178.95678,33.969941 h 0.50532 v -0.821998 h -0.50532 z"
       style="fill:#231f20;fill-opacity:1;fill-rule:nonzero;stroke:none;stroke-width:0.0352777"
       id="path1198" />
    <path
       d="m -179.51558,33.969941 h 0.50491 v -0.821998 h -0.50491 z"
       style="fill:#231f20;fill-opacity:1;fill-rule:nonzero;stroke:none;stroke-width:0.0352777"
       id="path1200" />
    <path
       d="m -180.07438,33.969941 h 0.50519 v -0.821998 h -0.50519 z"
       style="fill:#231f20;fill-opacity:1;fill-rule:nonzero;stroke:none;stroke-width:0.0352777"
       id="path1202" />
    <path
       d="m -173.10739,36.781573 c 0,1.555041 -2.014,2.816218 -4.49685,2.816218 -2.48249,0 -4.49473,-1.261177 -4.49473,-2.816218 0,-1.556099 2.01224,-2.81904 4.49473,-2.81904 2.48285,0 4.49685,1.262941 4.49685,2.81904 z"
       style="fill:none;stroke:#ffffff;stroke-width:0.45861;stroke-linecap:butt;stroke-linejoin:miter;stroke-miterlimit:4;stroke-dasharray:none;stroke-opacity:1"
       id="path1204" />
    <path
       d="m -173.10739,36.781573 c 0,1.555041 -2.014,2.816218 -4.49685,2.816218 -2.48249,0 -4.49473,-1.261177 -4.49473,-2.816218 0,-1.556099 2.01224,-2.81904 4.49473,-2.81904 2.48285,0 4.49685,1.262941 4.49685,2.81904"
       style="fill:#ffffff;fill-opacity:1;fill-rule:nonzero;stroke:none;stroke-width:0.0352777"
       id="path1206" />
    <path
       d="m -173.10739,36.781573 c 0,1.555041 -2.014,2.816218 -4.49685,2.816218 -2.48249,0 -4.49473,-1.261177 -4.49473,-2.816218 0,-1.556099 2.01224,-2.81904 4.49473,-2.81904 2.48285,0 4.49685,1.262941 4.49685,2.81904 z"
       style="fill:none;stroke:#231f20;stroke-width:0.282222;stroke-linecap:butt;stroke-linejoin:miter;stroke-miterlimit:4;stroke-dasharray:none;stroke-opacity:1"
       id="path1208" />
    <path
       d="m -180.20032,37.474074 h 0.45261 c 0.29492,0 0.57679,-0.172155 0.57679,-0.660751 0,-0.444146 -0.16616,-0.727073 -0.6671,-0.727073 h -0.3623 z m -0.50694,-1.794576 h 0.99694 c 0.59655,0 1.04669,0.359833 1.04669,1.089022 0,0.637468 -0.34325,1.112306 -1.04669,1.112306 h -0.99694"
       style="fill:#231f20;fill-opacity:1;fill-rule:nonzero;stroke:none;stroke-width:0.0352777"
       id="path1210" />
    <path
       d="m -177.96301,37.150578 c 0,0.292452 0.23953,0.406752 0.51082,0.406752 0.17745,0 0.44873,-0.04939 0.44873,-0.274108 0,-0.240594 -0.3496,-0.274108 -0.68439,-0.364419 -0.34325,-0.08078 -0.68967,-0.218368 -0.68967,-0.626531 0,-0.452613 0.44661,-0.666043 0.86324,-0.666043 0.4826,0 0.92569,0.199672 0.92569,0.709434 h -0.49142 c -0.0173,-0.26176 -0.21096,-0.332316 -0.45755,-0.332316 -0.16052,0 -0.34855,0.06456 -0.34855,0.249061 0,0.170391 0.11007,0.195085 0.68827,0.333727 0.17216,0.03739 0.68686,0.143933 0.68686,0.641348 0,0.404283 -0.33126,0.706965 -0.96097,0.706965 -0.51152,0 -0.99236,-0.240594 -0.98354,-0.78387"
       style="fill:#231f20;fill-opacity:1;fill-rule:nonzero;stroke:none;stroke-width:0.0352777"
       id="path1212" />
    <path
       d="m -175.69713,36.08625 h -0.6932 v -0.406752 h 1.89123 v 0.406752 h -0.69179 v 1.794576 h -0.50624"
       style="fill:#231f20;fill-opacity:1;fill-rule:nonzero;stroke:none;stroke-width:0.0352777"
       id="path1214" />
    <path
       d="m -181.41246,36.907162 h -2.25813 v 3.918998"
       style="fill:none;stroke:#ffffff;stroke-width:0.423332;stroke-linecap:round;stroke-linejoin:round;stroke-miterlimit:4;stroke-dasharray:none;stroke-opacity:1"
       id="path1226" />
    <path
       d="m -181.41246,36.907162 h -2.25813 v 3.918998"
       style="fill:none;stroke:#231f20;stroke-width:0.0881942;stroke-linecap:round;stroke-linejoin:round;stroke-miterlimit:4;stroke-dasharray:none;stroke-opacity:1"
       id="path1228" />
  </g>
</svg>
