<?xml version="1.0" encoding="UTF-8" standalone="no"?>
<!-- Created with Inkscape (http://www.inkscape.org/) -->

<svg
   width="32.93895mm"
   height="23.532522mm"
   viewBox="0 0 32.93895 23.532522"
   version="1.1"
   id="svg734"
   inkscape:version="1.2.2 (b0a8486541, 2022-12-01)"
   sodipodi:docname="ç:08_page37.svg"
   xmlns:inkscape="http://www.inkscape.org/namespaces/inkscape"
   xmlns:sodipodi="http://sodipodi.sourceforge.net/DTD/sodipodi-0.dtd"
   xmlns="http://www.w3.org/2000/svg"
   xmlns:svg="http://www.w3.org/2000/svg">
  <sodipodi:namedview
     id="namedview736"
     pagecolor="#ffffff"
     bordercolor="#666666"
     borderopacity="1.0"
     inkscape:showpageshadow="2"
     inkscape:pageopacity="0.0"
     inkscape:pagecheckerboard="0"
     inkscape:deskcolor="#d1d1d1"
     inkscape:document-units="mm"
     showgrid="false"
     inkscape:zoom="0.44542649"
     inkscape:cx="1142.725"
     inkscape:cy="498.39874"
     inkscape:window-width="1366"
     inkscape:window-height="685"
     inkscape:window-x="0"
     inkscape:window-y="27"
     inkscape:window-maximized="1"
     inkscape:current-layer="layer1" />
  <defs
     id="defs731">
    <clipPath
       clipPathUnits="userSpaceOnUse"
       id="clipPath522">
      <path
         d="m 647.699,402.801 h 714.32 v 357.168 h -714.32 z"
         id="path520" />
    </clipPath>
    <clipPath
       clipPathUnits="userSpaceOnUse"
       id="clipPath614">
      <path
         d="m 647.699,402.801 h 714.32 v 357.168 h -714.32 z"
         id="path612" />
    </clipPath>
    <clipPath
       clipPathUnits="userSpaceOnUse"
       id="clipPath618">
      <path
         d="m 647.699,402.801 h 714.32 v 357.168 h -714.32 z"
         id="path616" />
    </clipPath>
  </defs>
  <g
     inkscape:label="Layer 1"
     inkscape:groupmode="layer"
     id="layer1"
     transform="translate(197.04547,-16.745738)">
    <text
       xml:space="preserve"
       transform="scale(1,-1)"
       style="font-variant:normal;font-weight:normal;font-size:0.0352777px;font-family:Arial;-inkscape-font-specification:Arial;writing-mode:lr-tb;fill:#231f20;fill-opacity:1;fill-rule:nonzero;stroke:none;stroke-width:0.352777"
       id="text494"
       x="-197.04736"
       y="-16.754213"><tspan
         x="-197.04736 -194.22516"
         y="-16.754213"
         sodipodi:role="line"
         id="tspan492"
         style="stroke-width:0.352777">✿❀</tspan></text>
    <text
       xml:space="preserve"
       transform="scale(1,-1)"
       style="font-variant:normal;font-weight:normal;font-size:0.0352777px;font-family:Arial;-inkscape-font-specification:Arial;writing-mode:lr-tb;fill:#231f20;fill-opacity:1;fill-rule:nonzero;stroke:none;stroke-width:0.352777"
       id="text498"
       x="-191.40283"
       y="-16.754213"><tspan
         x="-191.40283"
         y="-16.754213"
         id="tspan496"
         style="stroke-width:0.352777">❏</tspan></text>
    <text
       xml:space="preserve"
       transform="scale(1,-1)"
       style="font-variant:normal;font-weight:normal;font-size:0.0352777px;font-family:Arial;-inkscape-font-specification:Arial;writing-mode:lr-tb;fill:#231f20;fill-opacity:1;fill-rule:nonzero;stroke:none;stroke-width:0.352777"
       id="text502"
       x="-188.65115"
       y="-16.754213"><tspan
         x="-188.65115 -185.79367"
         y="-16.754213"
         sodipodi:role="line"
         id="tspan500"
         style="stroke-width:0.352777">❩❬</tspan></text>
    <text
       xml:space="preserve"
       transform="scale(1,-1)"
       style="font-variant:normal;font-weight:normal;font-size:0.0352777px;font-family:Arial;-inkscape-font-specification:Arial;writing-mode:lr-tb;fill:#231f20;fill-opacity:1;fill-rule:nonzero;stroke:none;stroke-width:0.352777"
       id="text506"
       x="-183.04199"
       y="-16.754213"><tspan
         x="-183.04199 -180.18449 -177.36229 -174.57535"
         y="-16.754213"
         sodipodi:role="line"
         id="tspan504"
         style="stroke-width:0.352777">❊■❏❑</tspan></text>
    <path
       d="m -190.23427,26.370314 -0.43285,-0.19431 c 0,0 -0.35871,-0.173636 -0.66009,0.06107 -0.24789,0.192652 -0.69355,0.507928 -1.4213,1.660803 -0.71504,1.157532 -0.77251,1.64828 -0.8213,1.931172 -0.0595,0.343287 0.3102,0.498861 0.3102,0.498861 l 0.43215,0.19431"
       style="fill:#9c9a9b;fill-opacity:1;fill-rule:nonzero;stroke:none;stroke-width:0.0352777"
       id="path508" />
    <path
       d="m -175.78872,26.370314 0.43285,-0.19431 c 0,0 0.35878,-0.173636 0.66005,0.06107 0.24765,0.192652 0.69356,0.507928 1.42098,1.660803 0.71544,1.157532 0.77294,1.64828 0.82127,1.931172 0.0596,0.343287 -0.31009,0.498861 -0.31009,0.498861 l -0.4318,0.19431"
       style="fill:#9c9a9b;fill-opacity:1;fill-rule:nonzero;stroke:none;stroke-width:0.0352777"
       id="path510" />
    <path
       d="m -190.23427,38.22584 -0.43285,0.194698 c 0,0 -0.35871,0.173496 -0.66009,-0.06103 -0.24789,-0.192652 -0.69355,-0.508352 -1.4213,-1.660804 -0.71504,-1.157849 -0.77251,-1.648279 -0.8213,-1.931453 -0.0595,-0.343005 0.3102,-0.49858 0.3102,-0.49858 l 0.43215,-0.194309"
       style="fill:#9c9a9b;fill-opacity:1;fill-rule:nonzero;stroke:none;stroke-width:0.0352777"
       id="path512" />
    <path
       d="m -175.78872,38.22584 0.43285,0.194698 c 0,0 0.35878,0.173496 0.66005,-0.06103 0.24765,-0.192652 0.69356,-0.508352 1.42098,-1.660804 0.71544,-1.157849 0.77294,-1.648279 0.82127,-1.931453 0.0596,-0.343005 -0.31009,-0.49858 -0.31009,-0.49858 l -0.4318,-0.194309"
       style="fill:#9c9a9b;fill-opacity:1;fill-rule:nonzero;stroke:none;stroke-width:0.0352777"
       id="path514" />
    <path
       d="m 1297.81,581.379 c 0,-137.508 -131.15,-248.988 -292.95,-248.988 -161.778,0 -292.93,111.48 -292.93,248.988 0,137.512 131.152,249 292.93,249 161.8,0 292.95,-111.488 292.95,-249"
       style="fill:#ffffff;fill-opacity:1;fill-rule:nonzero;stroke:none"
       id="path524"
       clip-path="url(#clipPath522)"
       transform="matrix(0.03527769,0,0,-0.03527769,-218.46097,52.808191)" />
    <path
       d="m 1297.81,581.379 c 0,-137.508 -131.15,-248.988 -292.95,-248.988 -161.778,0 -292.93,111.48 -292.93,248.988 0,137.512 131.152,249 292.93,249 161.8,0 292.95,-111.488 292.95,-249 z"
       style="fill:none;stroke:#9c9a9b;stroke-width:6;stroke-linecap:butt;stroke-linejoin:miter;stroke-miterlimit:10;stroke-dasharray:none;stroke-opacity:1"
       id="path526"
       clip-path="url(#clipPath522)"
       transform="matrix(0.03527769,0,0,-0.03527769,-218.46097,52.808191)" />
    <path
       d="m 1274.33,581.379 c 0,-126.5 -120.64,-229.051 -269.47,-229.051 -148.821,0 -269.462,102.551 -269.462,229.051 0,126.5 120.641,229.051 269.462,229.051 148.83,0 269.47,-102.551 269.47,-229.051 z"
       style="fill:none;stroke:#9c9a9b;stroke-width:4;stroke-linecap:butt;stroke-linejoin:miter;stroke-miterlimit:10;stroke-dasharray:none;stroke-opacity:1"
       id="path528"
       clip-path="url(#clipPath522)"
       transform="matrix(0.03527769,0,0,-0.03527769,-218.46097,52.808191)" />
    <path
       d="m -195.62995,27.309865 c 0,0.656482 0.54045,1.197219 1.19736,1.197219 0.65609,0 1.19626,-0.540737 1.19626,-1.197219 0,-0.656483 -0.54017,-1.196267 -1.19626,-1.196267 -0.65691,0 -1.19736,0.539784 -1.19736,1.196267 m 1.19736,-1.084789 c 0.59753,0 1.08478,0.487149 1.08478,1.084789 0,0.596122 -0.48891,1.084789 -1.08478,1.084789 -0.59655,0 -1.08589,-0.488667 -1.08589,-1.084789 0,-0.59764 0.48687,-1.084789 1.08589,-1.084789 m 0.28567,1.397314 0.14221,0.414513 h 0.2092 l -0.51428,-1.420598 h -0.21911 l -0.53344,1.420598 h 0.19855 l 0.14897,-0.414513 z m -0.51001,-0.170462 0.22818,-0.623957 h 0.005 l 0.2092,0.623957"
       style="fill:#231f20;fill-opacity:1;fill-rule:nonzero;stroke:none;stroke-width:0.0352777"
       id="path530" />
    <path
       d="m -172.82751,27.310535 c 0,0.656518 0.54045,1.196549 1.19697,1.196549 0.65687,0 1.19662,-0.540031 1.19662,-1.196549 0,-0.656483 -0.53975,-1.19736 -1.19662,-1.19736 -0.65652,0 -1.19697,0.540877 -1.19697,1.19736 m 1.19697,-1.092197 c 0.59866,0 1.08514,0.493605 1.08514,1.092197 0,0.596158 -0.48895,1.084789 -1.08514,1.084789 -0.59584,0 -1.08479,-0.488631 -1.08479,-1.084789 0,-0.598592 0.48648,-1.092197 1.08479,-1.092197 m -0.24448,1.184942 h 0.37959 c 0.15593,0 0.33091,0.03955 0.33091,0.2395 0,0.15875 -0.10019,0.258939 -0.30092,0.258939 h -0.40958 z m -0.19085,0.663961 h 0.61242 c 0.31433,0 0.4819,-0.191134 0.4819,-0.419063 0,-0.244898 -0.16546,-0.309386 -0.25859,-0.347556 0.15875,-0.07193 0.1912,-0.202423 0.1912,-0.29531 0,-0.195685 -0.13723,-0.358703 -0.40251,-0.358703 h -0.62442 z m 0.19085,-1.257614 h 0.34925 c 0.21449,0 0.29563,0.07691 0.29563,0.209867 0,0.17212 -0.11395,0.228211 -0.29774,0.228211 h -0.34714"
       style="fill:#231f20;fill-opacity:1;fill-rule:nonzero;stroke:none;stroke-width:0.0352777"
       id="path532" />
    <path
       d="m -195.62995,37.286007 c 0,0.657188 0.54045,1.19736 1.19736,1.19736 0.65609,0 1.19626,-0.540172 1.19626,-1.19736 0,-0.656482 -0.54017,-1.196689 -1.19626,-1.196689 -0.65691,0 -1.19736,0.540207 -1.19736,1.196689 m 1.8048,-0.251212 c -0.0283,-0.237454 -0.21911,-0.463161 -0.58455,-0.463161 -0.41412,0 -0.66396,0.302612 -0.66396,0.738362 0,0.546522 0.31683,0.756389 0.64107,0.756389 0.10611,0 0.54211,-0.023 0.62148,-0.558798 h -0.18686 c -0.0653,0.330446 -0.28124,0.388336 -0.40499,0.388336 -0.35387,0 -0.47198,-0.25534 -0.47198,-0.590901 0,-0.374543 0.20877,-0.563067 0.46524,-0.563067 0.13723,0 0.34505,0.04382 0.39754,0.29284 z m -0.60744,-0.833577 c 0.59753,0 1.08478,0.486868 1.08478,1.084789 0,0.596123 -0.48891,1.085495 -1.08478,1.085495 -0.59655,0 -1.08589,-0.489372 -1.08589,-1.085495 0,-0.597921 0.48687,-1.084789 1.08589,-1.084789"
       style="fill:#231f20;fill-opacity:1;fill-rule:nonzero;stroke:none;stroke-width:0.0352777"
       id="path534" />
    <path
       d="m -172.82998,37.286007 c 0,0.657188 0.53975,1.19736 1.19662,1.19736 0.65687,0 1.19661,-0.540172 1.19661,-1.19736 0,-0.656482 -0.53974,-1.196689 -1.19661,-1.196689 -0.65687,0 -1.19662,0.540207 -1.19662,1.196689 m 1.19662,-1.091527 c 0.59866,0 1.08514,0.493606 1.08514,1.091527 0,0.596123 -0.4893,1.085495 -1.08514,1.085495 -0.59584,0 -1.08515,-0.489372 -1.08515,-1.085495 0,-0.597921 0.48684,-1.091527 1.08515,-1.091527 m -0.48401,1.84393 h 0.56797 c 0.46566,0 0.60571,-0.412043 0.60571,-0.730918 0,-0.410245 -0.22859,-0.689679 -0.59901,-0.689679 h -0.57467 z m 0.19085,-1.257579 h 0.35842 c 0.2607,0 0.42615,0.181609 0.42615,0.538373 0,0.358703 -0.16298,0.553859 -0.41239,0.553859 h -0.37218"
       style="fill:#231f20;fill-opacity:1;fill-rule:nonzero;stroke:none;stroke-width:0.0352777"
       id="path536" />
    <path
       d="m -177.21288,32.240592 c 0,-3.197146 -2.5908,-5.790057 -5.78378,-5.790057 -3.19789,0 -5.79507,2.592911 -5.79507,5.790057 0,3.198981 2.59718,5.791221 5.79507,5.791221 3.19298,0 5.78378,-2.59224 5.78378,-5.791221 z"
       style="fill:none;stroke:#9c9a9b;stroke-width:0.141111;stroke-linecap:round;stroke-linejoin:round;stroke-miterlimit:10;stroke-dasharray:none;stroke-opacity:1"
       id="path538" />
    <path
       d="m -184.67623,36.535651 h 0.30162 c 0.19682,0 0.38449,-0.115041 0.38449,-0.440689 0,-0.295839 -0.11038,-0.484645 -0.44442,-0.484645 h -0.24169 z m -0.33789,-1.196655 h 0.66459 c 0.39787,0 0.69773,0.239889 0.69773,0.726333 0,0.424849 -0.22892,0.741678 -0.69773,0.741678 h -0.66459"
       style="fill:#231f20;fill-opacity:1;fill-rule:nonzero;stroke:none;stroke-width:0.0352777"
       id="path540" />
    <path
       d="m -183.18437,36.32014 c 0,0.194979 0.15949,0.271214 0.34081,0.271214 0.11818,0 0.29881,-0.03309 0.29881,-0.182738 0,-0.160549 -0.23284,-0.182738 -0.45579,-0.243099 -0.22931,-0.05359 -0.45999,-0.145661 -0.45999,-0.417687 0,-0.301484 0.29771,-0.443723 0.5757,-0.443723 0.32138,0 0.61665,0.132997 0.61665,0.472686 h -0.32737 c -0.0117,-0.174202 -0.14041,-0.221474 -0.30516,-0.221474 -0.10689,0 -0.23212,0.043 -0.23212,0.166052 0,0.1137 0.0734,0.129822 0.45861,0.222708 0.11465,0.02466 0.4579,0.09592 0.4579,0.42746 0,0.269557 -0.22084,0.471028 -0.64064,0.471028 -0.34078,0 -0.66146,-0.160126 -0.65581,-0.522427"
       style="fill:#231f20;fill-opacity:1;fill-rule:nonzero;stroke:none;stroke-width:0.0352777"
       id="path542" />
    <path
       d="m -181.67375,35.61074 h -0.46249 v -0.271356 h 1.26118 v 0.271356 h -0.46143 v 1.196267 h -0.33726"
       style="fill:#231f20;fill-opacity:1;fill-rule:nonzero;stroke:none;stroke-width:0.0352777"
       id="path544" />
    <path
       d="m -178.79015,30.971301 h 0.50519 v -0.822686 h -0.50519 z"
       style="fill:#231f20;fill-opacity:1;fill-rule:nonzero;stroke:none;stroke-width:0.0352777"
       id="path546" />
    <path
       d="m -179.3493,30.971301 h 0.5056 v -0.822686 h -0.5056 z"
       style="fill:#231f20;fill-opacity:1;fill-rule:nonzero;stroke:none;stroke-width:0.0352777"
       id="path548" />
    <path
       d="m -179.9081,30.971301 h 0.50519 v -0.822686 h -0.50519 z"
       style="fill:#231f20;fill-opacity:1;fill-rule:nonzero;stroke:none;stroke-width:0.0352777"
       id="path550" />
    <path
       d="m -181.0264,30.971301 h 0.50519 v -0.822686 h -0.50519 z"
       style="fill:#231f20;fill-opacity:1;fill-rule:nonzero;stroke:none;stroke-width:0.0352777"
       id="path552" />
    <path
       d="m -181.58626,30.971301 h 0.50519 v -0.822686 h -0.50519 z"
       style="fill:#231f20;fill-opacity:1;fill-rule:nonzero;stroke:none;stroke-width:0.0352777"
       id="path554" />
    <path
       d="m -182.14506,30.971301 h 0.50519 v -0.822686 h -0.50519 z"
       style="fill:#231f20;fill-opacity:1;fill-rule:nonzero;stroke:none;stroke-width:0.0352777"
       id="path556" />
    <path
       d="m -184.38272,30.971301 h 0.50546 v -0.822686 h -0.50546 z"
       style="fill:#231f20;fill-opacity:1;fill-rule:nonzero;stroke:none;stroke-width:0.0352777"
       id="path558" />
    <path
       d="m -184.94152,30.971301 h 0.50519 v -0.822686 h -0.50519 z"
       style="fill:#231f20;fill-opacity:1;fill-rule:nonzero;stroke:none;stroke-width:0.0352777"
       id="path560" />
    <path
       d="m -185.50032,30.971301 h 0.50519 v -0.822686 h -0.50519 z"
       style="fill:#231f20;fill-opacity:1;fill-rule:nonzero;stroke:none;stroke-width:0.0352777"
       id="path562" />
    <path
       d="m -178.79015,31.848692 h 0.50519 v -0.822686 h -0.50519 z"
       style="fill:#231f20;fill-opacity:1;fill-rule:nonzero;stroke:none;stroke-width:0.0352777"
       id="path564" />
    <path
       d="m -179.9081,31.848692 h 0.50519 v -0.822686 h -0.50519 z"
       style="fill:#231f20;fill-opacity:1;fill-rule:nonzero;stroke:none;stroke-width:0.0352777"
       id="path566" />
    <path
       d="m -181.0264,31.848692 h 0.50519 v -0.822686 h -0.50519 z"
       style="fill:#231f20;fill-opacity:1;fill-rule:nonzero;stroke:none;stroke-width:0.0352777"
       id="path568" />
    <path
       d="m -182.14506,31.848692 h 0.50519 v -0.822686 h -0.50519 z"
       style="fill:#231f20;fill-opacity:1;fill-rule:nonzero;stroke:none;stroke-width:0.0352777"
       id="path570" />
    <path
       d="m -183.26403,31.848692 h 0.50615 v -0.822686 h -0.50615 z"
       style="fill:#231f20;fill-opacity:1;fill-rule:nonzero;stroke:none;stroke-width:0.0352777"
       id="path572" />
    <path
       d="m -184.38272,31.848692 h 0.50546 v -0.822686 h -0.50546 z"
       style="fill:#231f20;fill-opacity:1;fill-rule:nonzero;stroke:none;stroke-width:0.0352777"
       id="path574" />
    <path
       d="m -185.50032,31.848692 h 0.50519 v -0.822686 h -0.50519 z"
       style="fill:#231f20;fill-opacity:1;fill-rule:nonzero;stroke:none;stroke-width:0.0352777"
       id="path576" />
    <path
       d="m -178.79015,32.724285 h 0.50519 v -0.821999 h -0.50519 z"
       style="fill:#231f20;fill-opacity:1;fill-rule:nonzero;stroke:none;stroke-width:0.0352777"
       id="path578" />
    <path
       d="m -179.3493,32.724285 h 0.5056 v -0.821999 h -0.5056 z"
       style="fill:#231f20;fill-opacity:1;fill-rule:nonzero;stroke:none;stroke-width:0.0352777"
       id="path580" />
    <path
       d="m -179.9081,32.724285 h 0.50519 v -0.821999 h -0.50519 z"
       style="fill:#231f20;fill-opacity:1;fill-rule:nonzero;stroke:none;stroke-width:0.0352777"
       id="path582" />
    <path
       d="m -181.0264,32.724285 h 0.50519 v -0.821999 h -0.50519 z"
       style="fill:#231f20;fill-opacity:1;fill-rule:nonzero;stroke:none;stroke-width:0.0352777"
       id="path584" />
    <path
       d="m -182.14506,32.724285 h 0.50519 v -0.821999 h -0.50519 z"
       style="fill:#231f20;fill-opacity:1;fill-rule:nonzero;stroke:none;stroke-width:0.0352777"
       id="path586" />
    <path
       d="m -184.38272,32.724285 h 0.50546 v -0.821999 h -0.50546 z"
       style="fill:#231f20;fill-opacity:1;fill-rule:nonzero;stroke:none;stroke-width:0.0352777"
       id="path588" />
    <path
       d="m -184.94152,32.724285 h 0.50519 v -0.821999 h -0.50519 z"
       style="fill:#231f20;fill-opacity:1;fill-rule:nonzero;stroke:none;stroke-width:0.0352777"
       id="path590" />
    <path
       d="m -185.50032,32.724285 h 0.50519 v -0.821999 h -0.50519 z"
       style="fill:#231f20;fill-opacity:1;fill-rule:nonzero;stroke:none;stroke-width:0.0352777"
       id="path592" />
    <path
       d="m -178.79015,33.60157 h 0.50519 v -0.822686 h -0.50519 z"
       style="fill:#231f20;fill-opacity:1;fill-rule:nonzero;stroke:none;stroke-width:0.0352777"
       id="path594" />
    <path
       d="m -179.9081,33.60157 h 0.50519 v -0.822686 h -0.50519 z"
       style="fill:#231f20;fill-opacity:1;fill-rule:nonzero;stroke:none;stroke-width:0.0352777"
       id="path596" />
    <path
       d="m -181.0264,33.60157 h 0.50519 v -0.822686 h -0.50519 z"
       style="fill:#231f20;fill-opacity:1;fill-rule:nonzero;stroke:none;stroke-width:0.0352777"
       id="path598" />
    <path
       d="m -182.14506,33.60157 h 0.50519 v -0.822686 h -0.50519 z"
       style="fill:#231f20;fill-opacity:1;fill-rule:nonzero;stroke:none;stroke-width:0.0352777"
       id="path600" />
    <path
       d="m -183.26403,33.60157 h 0.50615 v -0.822686 h -0.50615 z"
       style="fill:#231f20;fill-opacity:1;fill-rule:nonzero;stroke:none;stroke-width:0.0352777"
       id="path602" />
    <path
       d="m -184.38272,33.60157 h 0.50546 v -0.822686 h -0.50546 z"
       style="fill:#231f20;fill-opacity:1;fill-rule:nonzero;stroke:none;stroke-width:0.0352777"
       id="path604" />
    <path
       d="m -178.79015,34.477833 h 0.50519 v -0.821861 h -0.50519 z"
       style="fill:#231f20;fill-opacity:1;fill-rule:nonzero;stroke:none;stroke-width:0.0352777"
       id="path606" />
    <path
       d="m -179.3493,34.477833 h 0.5056 v -0.821861 h -0.5056 z"
       style="fill:#231f20;fill-opacity:1;fill-rule:nonzero;stroke:none;stroke-width:0.0352777"
       id="path608" />
    <path
       d="m -179.9081,34.477833 h 0.50519 v -0.821861 h -0.50519 z"
       style="fill:#231f20;fill-opacity:1;fill-rule:nonzero;stroke:none;stroke-width:0.0352777"
       id="path610" />
    <path
       d="m -181.0264,34.477833 h 0.50519 v -0.821861 h -0.50519 z"
       style="fill:#231f20;fill-opacity:1;fill-rule:nonzero;stroke:none;stroke-width:0.0352777"
       id="path678" />
    <path
       d="m -181.58626,34.477833 h 0.50519 v -0.821861 h -0.50519 z"
       style="fill:#231f20;fill-opacity:1;fill-rule:nonzero;stroke:none;stroke-width:0.0352777"
       id="path614" />
    <path
       d="m -182.14506,34.477833 h 0.50519 v -0.821861 h -0.50519 z"
       style="fill:#231f20;fill-opacity:1;fill-rule:nonzero;stroke:none;stroke-width:0.0352777"
       id="path681" />
    <path
       d="m -184.38272,34.477833 h 0.50546 v -0.821861 h -0.50546 z"
       style="fill:#231f20;fill-opacity:1;fill-rule:nonzero;stroke:none;stroke-width:0.0352777"
       id="path618" />
    <path
       d="m -184.94152,34.477833 h 0.50519 v -0.821861 h -0.50519 z"
       style="fill:#231f20;fill-opacity:1;fill-rule:nonzero;stroke:none;stroke-width:0.0352777"
       id="path620" />
    <path
       d="m -185.50032,34.477833 h 0.50519 v -0.821861 h -0.50519 z"
       style="fill:#231f20;fill-opacity:1;fill-rule:nonzero;stroke:none;stroke-width:0.0352777"
       id="path622" />
    <path
       d="m -178.79332,19.9714 h 0.50518 v -0.822687 h -0.50518 z"
       style="fill:#231f20;fill-opacity:1;fill-rule:nonzero;stroke:none;stroke-width:0.0352777"
       id="path624" />
    <path
       d="m -179.35248,19.9714 h 0.5056 v -0.822687 h -0.5056 z"
       style="fill:#231f20;fill-opacity:1;fill-rule:nonzero;stroke:none;stroke-width:0.0352777"
       id="path626" />
    <path
       d="m -179.91127,19.9714 h 0.50518 v -0.822687 h -0.50518 z"
       style="fill:#231f20;fill-opacity:1;fill-rule:nonzero;stroke:none;stroke-width:0.0352777"
       id="path628" />
    <path
       d="m -180.47113,19.9714 h 0.50629 v -0.822687 h -0.50629 z"
       style="fill:#231f20;fill-opacity:1;fill-rule:nonzero;stroke:none;stroke-width:0.0352777"
       id="path630" />
    <path
       d="m -182.14859,19.9714 h 0.50519 v -0.822687 h -0.50519 z"
       style="fill:#231f20;fill-opacity:1;fill-rule:nonzero;stroke:none;stroke-width:0.0352777"
       id="path632" />
    <path
       d="m -184.38632,19.9714 h 0.5056 v -0.822687 h -0.5056 z"
       style="fill:#231f20;fill-opacity:1;fill-rule:nonzero;stroke:none;stroke-width:0.0352777"
       id="path634" />
    <path
       d="m -185.50349,19.9714 h 0.50518 v -0.822687 h -0.50518 z"
       style="fill:#231f20;fill-opacity:1;fill-rule:nonzero;stroke:none;stroke-width:0.0352777"
       id="path636" />
    <path
       d="m -187.74402,19.9714 h 0.50519 v -0.822687 h -0.50519 z"
       style="fill:#231f20;fill-opacity:1;fill-rule:nonzero;stroke:none;stroke-width:0.0352777"
       id="path638" />
    <path
       d="m -181.02993,20.848685 h 0.50519 v -0.822686 h -0.50519 z"
       style="fill:#231f20;fill-opacity:1;fill-rule:nonzero;stroke:none;stroke-width:0.0352777"
       id="path640" />
    <path
       d="m -182.70774,20.848685 h 0.50547 v -0.822686 h -0.50547 z"
       style="fill:#231f20;fill-opacity:1;fill-rule:nonzero;stroke:none;stroke-width:0.0352777"
       id="path642" />
    <path
       d="m -183.82639,20.848685 h 0.50518 v -0.822686 h -0.50518 z"
       style="fill:#231f20;fill-opacity:1;fill-rule:nonzero;stroke:none;stroke-width:0.0352777"
       id="path644" />
    <path
       d="m -185.50349,20.848685 h 0.50518 v -0.822686 h -0.50518 z"
       style="fill:#231f20;fill-opacity:1;fill-rule:nonzero;stroke:none;stroke-width:0.0352777"
       id="path646" />
    <path
       d="m -187.18522,20.848685 h 0.50698 v -0.822686 h -0.50698 z"
       style="fill:#231f20;fill-opacity:1;fill-rule:nonzero;stroke:none;stroke-width:0.0352777"
       id="path648" />
    <path
       d="m -187.74402,20.848685 h 0.50519 v -0.822686 h -0.50519 z"
       style="fill:#231f20;fill-opacity:1;fill-rule:nonzero;stroke:none;stroke-width:0.0352777"
       id="path650" />
    <path
       d="m -181.02993,21.724278 h 0.50519 v -0.821999 h -0.50519 z"
       style="fill:#231f20;fill-opacity:1;fill-rule:nonzero;stroke:none;stroke-width:0.0352777"
       id="path652" />
    <path
       d="m -183.26763,21.724278 h 0.50629 v -0.821999 h -0.50629 z"
       style="fill:#231f20;fill-opacity:1;fill-rule:nonzero;stroke:none;stroke-width:0.0352777"
       id="path654" />
    <path
       d="m -185.50349,21.724278 h 0.50518 v -0.821999 h -0.50518 z"
       style="fill:#231f20;fill-opacity:1;fill-rule:nonzero;stroke:none;stroke-width:0.0352777"
       id="path656" />
    <path
       d="m -186.62215,21.724278 h 0.50519 v -0.821999 h -0.50519 z"
       style="fill:#231f20;fill-opacity:1;fill-rule:nonzero;stroke:none;stroke-width:0.0352777"
       id="path658" />
    <path
       d="m -187.74402,21.724278 h 0.50519 v -0.821999 h -0.50519 z"
       style="fill:#231f20;fill-opacity:1;fill-rule:nonzero;stroke:none;stroke-width:0.0352777"
       id="path660" />
    <path
       d="m -181.02993,22.601669 h 0.50519 v -0.822686 h -0.50519 z"
       style="fill:#231f20;fill-opacity:1;fill-rule:nonzero;stroke:none;stroke-width:0.0352777"
       id="path662" />
    <path
       d="m -183.26763,22.601669 h 0.50629 v -0.822686 h -0.50629 z"
       style="fill:#231f20;fill-opacity:1;fill-rule:nonzero;stroke:none;stroke-width:0.0352777"
       id="path664" />
    <path
       d="m -185.50349,22.601669 h 0.50518 v -0.822686 h -0.50518 z"
       style="fill:#231f20;fill-opacity:1;fill-rule:nonzero;stroke:none;stroke-width:0.0352777"
       id="path666" />
    <path
       d="m -186.06339,22.601669 h 0.50519 v -0.822686 h -0.50519 z"
       style="fill:#231f20;fill-opacity:1;fill-rule:nonzero;stroke:none;stroke-width:0.0352777"
       id="path668" />
    <path
       d="m -187.74402,22.601669 h 0.50519 v -0.822686 h -0.50519 z"
       style="fill:#231f20;fill-opacity:1;fill-rule:nonzero;stroke:none;stroke-width:0.0352777"
       id="path670" />
    <path
       d="m -178.79332,23.477967 h 0.50518 v -0.821999 h -0.50518 z"
       style="fill:#231f20;fill-opacity:1;fill-rule:nonzero;stroke:none;stroke-width:0.0352777"
       id="path672" />
    <path
       d="m -179.35248,23.477967 h 0.5056 v -0.821999 h -0.5056 z"
       style="fill:#231f20;fill-opacity:1;fill-rule:nonzero;stroke:none;stroke-width:0.0352777"
       id="path674" />
    <path
       d="m -179.91127,23.477967 h 0.50518 v -0.821999 h -0.50518 z"
       style="fill:#231f20;fill-opacity:1;fill-rule:nonzero;stroke:none;stroke-width:0.0352777"
       id="path676" />
    <path
       d="m -180.47113,23.477967 h 0.50629 v -0.821999 h -0.50629 z"
       style="fill:#231f20;fill-opacity:1;fill-rule:nonzero;stroke:none;stroke-width:0.0352777"
       id="path713" />
    <path
       d="m -183.26763,23.477967 h 0.50629 v -0.821999 h -0.50629 z"
       style="fill:#231f20;fill-opacity:1;fill-rule:nonzero;stroke:none;stroke-width:0.0352777"
       id="path680" />
    <path
       d="m -185.50349,23.477967 h 0.50518 v -0.821999 h -0.50518 z"
       style="fill:#231f20;fill-opacity:1;fill-rule:nonzero;stroke:none;stroke-width:0.0352777"
       id="path682" />
    <path
       d="m -187.74402,23.477967 h 0.50519 v -0.821999 h -0.50519 z"
       style="fill:#231f20;fill-opacity:1;fill-rule:nonzero;stroke:none;stroke-width:0.0352777"
       id="path684" />
    <path
       d="m -182.27876,28.207647 -0.6223,0.672357 v -4.402268 h -0.28222 v 4.402268 l -0.62233,-0.672357 -0.2074,0.191558 0.97084,1.049087 0.97084,-1.049087 z"
       style="fill:none;stroke:#ffffff;stroke-width:0.423332;stroke-linecap:butt;stroke-linejoin:miter;stroke-miterlimit:4;stroke-dasharray:none;stroke-opacity:1"
       id="path686" />
    <path
       d="m -183.90922,28.303567 0.86705,0.937046 0.86713,-0.937046"
       style="fill:none;stroke:#231f20;stroke-width:0.282222;stroke-linecap:butt;stroke-linejoin:miter;stroke-miterlimit:4;stroke-dasharray:none;stroke-opacity:1"
       id="path688" />
    <path
       d="M -183.04217,29.040553 V 24.477736"
       style="fill:none;stroke:#231f20;stroke-width:0.282222;stroke-linecap:butt;stroke-linejoin:miter;stroke-miterlimit:4;stroke-dasharray:none;stroke-opacity:1"
       id="path690" />
    <path
       d="m -186.22983,32.292415 h -1.75795 v 7.77418"
       style="fill:none;stroke:#ffffff;stroke-width:0.423332;stroke-linecap:round;stroke-linejoin:round;stroke-miterlimit:4;stroke-dasharray:none;stroke-opacity:1"
       id="path698" />
    <path
       d="m -186.22983,32.292415 h -1.75795 v 7.77418"
       style="fill:none;stroke:#231f20;stroke-width:0.0881942;stroke-linecap:round;stroke-linejoin:round;stroke-miterlimit:4;stroke-dasharray:none;stroke-opacity:1"
       id="path700" />
    <text
       xml:space="preserve"
       transform="scale(1,-1)"
       style="font-variant:normal;font-weight:normal;font-size:0.0352777px;font-family:Arial;-inkscape-font-specification:Arial;writing-mode:lr-tb;fill:#231f20;fill-opacity:1;fill-rule:nonzero;stroke:none;stroke-width:0.352777"
       id="text706"
       x="-172.59995"
       y="-21.904858"><tspan
         x="-172.59995"
         y="-21.904858"
         id="tspan704"
         style="stroke-width:0.352777">❂</tspan></text>
    <text
       xml:space="preserve"
       transform="scale(1,-1)"
       style="font-variant:normal;font-weight:normal;font-size:0.0352777px;font-family:Arial;-inkscape-font-specification:Arial;writing-mode:lr-tb;fill:#231f20;fill-opacity:1;fill-rule:nonzero;stroke:none;stroke-width:0.352777"
       id="text710"
       x="-170.51846"
       y="-21.904858"><tspan
         x="-170.51846"
         y="-21.904858"
         id="tspan708"
         style="stroke-width:0.352777">✴</tspan></text>
    <text
       xml:space="preserve"
       transform="scale(1,-1)"
       style="font-variant:normal;font-weight:normal;font-size:0.0352777px;font-family:Arial;-inkscape-font-specification:Arial;writing-mode:lr-tb;fill:#231f20;fill-opacity:1;fill-rule:nonzero;stroke:none;stroke-width:0.352777"
       id="text714"
       x="-168.36661"
       y="-21.904858"><tspan
         x="-168.36661 -166.24995 -164.13329"
         y="-21.904858"
         sodipodi:role="line"
         id="tspan712"
         style="stroke-width:0.352777">❃✼✾</tspan></text>
    <path
       d="m -177.38081,21.165902 h 4.08834"
       style="fill:none;stroke:#ffffff;stroke-width:0.423332;stroke-linecap:round;stroke-linejoin:round;stroke-miterlimit:4;stroke-dasharray:none;stroke-opacity:1"
       id="path716" />
    <path
       d="m -177.38081,21.165902 h 4.08834"
       style="fill:none;stroke:#231f20;stroke-width:0.0881942;stroke-linecap:butt;stroke-linejoin:miter;stroke-miterlimit:4;stroke-dasharray:none;stroke-opacity:1"
       id="path718" />
  </g>
</svg>
