<?xml version="1.0" encoding="UTF-8" standalone="no"?>
<!-- Created with Inkscape (http://www.inkscape.org/) -->

<svg
   width="28.410101mm"
   height="15.004025mm"
   viewBox="0 0 28.410101 15.004025"
   version="1.1"
   id="svg1969"
   inkscape:version="1.2.2 (b0a8486541, 2022-12-01)"
   sodipodi:docname="alof.svg"
   xmlns:inkscape="http://www.inkscape.org/namespaces/inkscape"
   xmlns:sodipodi="http://sodipodi.sourceforge.net/DTD/sodipodi-0.dtd"
   xmlns="http://www.w3.org/2000/svg"
   xmlns:svg="http://www.w3.org/2000/svg">
  <sodipodi:namedview
     id="namedview1971"
     pagecolor="#ffffff"
     bordercolor="#666666"
     borderopacity="1.0"
     inkscape:showpageshadow="2"
     inkscape:pageopacity="0.0"
     inkscape:pagecheckerboard="0"
     inkscape:deskcolor="#d1d1d1"
     inkscape:document-units="mm"
     showgrid="false"
     inkscape:zoom="0.44542649"
     inkscape:cx="1135.9899"
     inkscape:cy="473.70331"
     inkscape:window-width="1366"
     inkscape:window-height="685"
     inkscape:window-x="0"
     inkscape:window-y="27"
     inkscape:window-maximized="1"
     inkscape:current-layer="layer1" />
  <defs
     id="defs1966">
    <clipPath
       clipPathUnits="userSpaceOnUse"
       id="clipPath1190">
      <path
         d="m 2704.83,1303.93 h 713.695 v 357.172 H 2704.83 Z"
         id="path1188" />
    </clipPath>
    <clipPath
       clipPathUnits="userSpaceOnUse"
       id="clipPath1903">
      <path
         d="m 2704.83,1303.93 h 713.695 v 357.172 H 2704.83 Z"
         id="path1901" />
    </clipPath>
    <clipPath
       clipPathUnits="userSpaceOnUse"
       id="clipPath1907">
      <path
         d="m 2704.83,1303.93 h 713.695 v 357.172 H 2704.83 Z"
         id="path1905" />
    </clipPath>
  </defs>
  <g
     inkscape:label="Layer 1"
     inkscape:groupmode="layer"
     id="layer1"
     transform="translate(195.37505,-23.385988)">
    <text
       xml:space="preserve"
       transform="scale(1,-1)"
       style="font-variant:normal;font-weight:normal;font-size:0.0352777px;font-family:Arial;-inkscape-font-specification:Arial;writing-mode:lr-tb;fill:#231f20;fill-opacity:1;fill-rule:nonzero;stroke:none;stroke-width:0.352777"
       id="text1166"
       x="-195.38196"
       y="-23.394463"><tspan
         x="-195.38196 -192.52446"
         y="-23.394463"
         sodipodi:role="line"
         id="tspan1164"
         style="stroke-width:0.352777">❩❬</tspan></text>
    <text
       xml:space="preserve"
       transform="scale(1,-1)"
       style="font-variant:normal;font-weight:normal;font-size:0.0352777px;font-family:Arial;-inkscape-font-specification:Arial;writing-mode:lr-tb;fill:#231f20;fill-opacity:1;fill-rule:nonzero;stroke:none;stroke-width:0.352777"
       id="text1170"
       x="-189.70215"
       y="-23.394463"><tspan
         x="-189.70215 -186.91521"
         y="-23.394463"
         sodipodi:role="line"
         id="tspan1168"
         style="stroke-width:0.352777">✕✗</tspan></text>
    <text
       xml:space="preserve"
       transform="scale(1,-1)"
       style="font-variant:normal;font-weight:normal;font-size:0.0352777px;font-family:Arial;-inkscape-font-specification:Arial;writing-mode:lr-tb;fill:#231f20;fill-opacity:1;fill-rule:nonzero;stroke:none;stroke-width:0.352777"
       id="text1174"
       x="-184.12843"
       y="-23.394463"><tspan
         x="-184.12843 -181.30623"
         y="-23.394463"
         sodipodi:role="line"
         id="tspan1172"
         style="stroke-width:0.352777">✍✎</tspan></text>
    <path
       d="m -186.76526,26.16206 -0.43285,-0.19438 c 0,0 -0.35878,-0.173567 -0.66005,0.06103 -0.248,0.192616 -0.69356,0.507999 -1.42134,1.660874 -0.71508,1.157461 -0.77258,1.648173 -0.82126,1.9311 -0.0596,0.343252 0.31009,0.498827 0.31009,0.498827 l 0.43215,0.19438"
       style="fill:#9c9a9b;fill-opacity:1;fill-rule:nonzero;stroke:none;stroke-width:0.0352777"
       id="path1176" />
    <path
       d="m -172.3201,26.16206 0.43286,-0.19438 c 0,0 0.35877,-0.173567 0.66004,0.06103 0.24765,0.192616 0.69356,0.507999 1.42099,1.660874 0.71543,1.157461 0.77293,1.648173 0.82126,1.9311 0.0596,0.343252 -0.31009,0.498827 -0.31009,0.498827 l -0.4318,0.19438"
       style="fill:#9c9a9b;fill-opacity:1;fill-rule:nonzero;stroke:none;stroke-width:0.0352777"
       id="path1178" />
    <path
       d="m -186.76526,38.01748 -0.43285,0.194733 c 0,0 -0.35878,0.173566 -0.66005,-0.06103 -0.248,-0.192616 -0.69356,-0.508352 -1.42134,-1.660874 -0.71508,-1.157814 -0.77258,-1.648174 -0.82126,-1.931453 -0.0596,-0.3429 0.31009,-0.498474 0.31009,-0.498474 l 0.43215,-0.19438"
       style="fill:#9c9a9b;fill-opacity:1;fill-rule:nonzero;stroke:none;stroke-width:0.0352777"
       id="path1180" />
    <path
       d="m -172.3201,38.01748 0.43286,0.194733 c 0,0 0.35877,0.173566 0.66004,-0.06103 0.24765,-0.192616 0.69356,-0.508352 1.42099,-1.660874 0.71543,-1.157814 0.77293,-1.648174 0.82126,-1.931453 0.0596,-0.3429 -0.31009,-0.498474 -0.31009,-0.498474 l -0.4318,-0.19438"
       style="fill:#9c9a9b;fill-opacity:1;fill-rule:nonzero;stroke:none;stroke-width:0.0352777"
       id="path1182" />
    <path
       d="m 3354.93,1482.51 c 0,-137.51 -131.15,-248.99 -292.95,-248.99 -161.78,0 -292.93,111.48 -292.93,248.99 0,137.51 131.15,249 292.93,249 161.8,0 292.95,-111.49 292.95,-249"
       style="fill:#ffffff;fill-opacity:1;fill-rule:nonzero;stroke:none"
       id="path1192"
       clip-path="url(#clipPath1190)"
       transform="matrix(0.03527769,0,0,-0.03527769,-287.56279,84.389651)" />
    <path
       d="m 3354.93,1482.51 c 0,-137.51 -131.15,-248.99 -292.95,-248.99 -161.78,0 -292.93,111.48 -292.93,248.99 0,137.51 131.15,249 292.93,249 161.8,0 292.95,-111.49 292.95,-249 z"
       style="fill:none;stroke:#9c9a9b;stroke-width:6;stroke-linecap:butt;stroke-linejoin:miter;stroke-miterlimit:10;stroke-dasharray:none;stroke-opacity:1"
       id="path1194"
       clip-path="url(#clipPath1190)"
       transform="matrix(0.03527769,0,0,-0.03527769,-287.56279,84.389651)" />
    <path
       d="m 3331.46,1482.51 c 0,-126.5 -120.64,-229.05 -269.47,-229.05 -148.82,0 -269.46,102.55 -269.46,229.05 0,126.5 120.64,229.05 269.46,229.05 148.83,0 269.47,-102.55 269.47,-229.05 z"
       style="fill:none;stroke:#9c9a9b;stroke-width:4;stroke-linecap:butt;stroke-linejoin:miter;stroke-miterlimit:10;stroke-dasharray:none;stroke-opacity:1"
       id="path1196"
       clip-path="url(#clipPath1190)"
       transform="matrix(0.03527769,0,0,-0.03527769,-287.56279,84.389651)" />
    <path
       d="m -192.16098,27.101505 c 0,0.656517 0.54045,1.197324 1.19732,1.197324 0.65617,0 1.19627,-0.540807 1.19627,-1.197324 0,-0.656518 -0.5401,-1.196267 -1.19627,-1.196267 -0.65687,0 -1.19732,0.539749 -1.19732,1.196267 m 1.19732,-1.084789 c 0.59761,0 1.08479,0.487185 1.08479,1.084789 0,0.596193 -0.48895,1.084789 -1.08479,1.084789 -0.59654,0 -1.08584,-0.488596 -1.08584,-1.084789 0,-0.597604 0.48683,-1.084789 1.08584,-1.084789 m 0.28575,1.397349 0.14217,0.414513 h 0.2092 l -0.51435,-1.420633 h -0.21907 l -0.5334,1.420633 h 0.19861 l 0.14887,-0.414513 z m -0.51011,-0.170391 0.22825,-0.624063 h 0.005 l 0.2092,0.624063"
       style="fill:#231f20;fill-opacity:1;fill-rule:nonzero;stroke:none;stroke-width:0.0352777"
       id="path1198" />
    <path
       d="m -169.35854,27.102563 c 0,0.656518 0.54045,1.196619 1.19697,1.196619 0.65687,0 1.19662,-0.540101 1.19662,-1.196619 0,-0.656518 -0.53975,-1.197325 -1.19662,-1.197325 -0.65652,0 -1.19697,0.540807 -1.19697,1.197325 m 1.19697,-1.092197 c 0.59866,0 1.08514,0.493535 1.08514,1.092197 0,0.596193 -0.48894,1.084789 -1.08514,1.084789 -0.59584,0 -1.08479,-0.488596 -1.08479,-1.084789 0,-0.598662 0.48648,-1.092197 1.08479,-1.092197 m -0.24447,1.184977 h 0.37959 c 0.15592,0 0.3309,0.03951 0.3309,0.239536 0,0.158749 -0.10019,0.258938 -0.30092,0.258938 h -0.40957 z m -0.19085,0.663926 h 0.61242 c 0.31432,0 0.48189,-0.191205 0.48189,-0.419099 0,-0.244827 -0.16545,-0.309385 -0.25859,-0.347485 0.15875,-0.07197 0.19121,-0.202494 0.19121,-0.295274 0,-0.195791 -0.13723,-0.358774 -0.40252,-0.358774 h -0.62441 z m 0.19085,-1.257649 h 0.34925 c 0.21449,0 0.29562,0.07691 0.29562,0.209902 0,0.172155 -0.11394,0.228247 -0.29774,0.228247 h -0.34713"
       style="fill:#231f20;fill-opacity:1;fill-rule:nonzero;stroke:none;stroke-width:0.0352777"
       id="path1200" />
    <path
       d="m -192.16098,37.077683 c 0,0.657223 0.54045,1.197324 1.19732,1.197324 0.65617,0 1.19627,-0.540101 1.19627,-1.197324 0,-0.656518 -0.5401,-1.19662 -1.19627,-1.19662 -0.65687,0 -1.19732,0.540102 -1.19732,1.19662 m 1.80481,-0.251178 c -0.0282,-0.237418 -0.21908,-0.463196 -0.58455,-0.463196 -0.41416,0 -0.66393,0.302683 -0.66393,0.738362 0,0.546452 0.31679,0.756354 0.64099,0.756354 0.10619,0 0.54222,-0.02293 0.6216,-0.558798 h -0.18697 c -0.0653,0.330551 -0.28117,0.388407 -0.40499,0.388407 -0.35384,0 -0.47202,-0.255411 -0.47202,-0.590901 0,-0.37465 0.20885,-0.563032 0.46532,-0.563032 0.13723,0 0.34501,0.04374 0.39757,0.292804 z m -0.60749,-0.833611 c 0.59761,0 1.08479,0.486832 1.08479,1.084789 0,0.596193 -0.48895,1.085494 -1.08479,1.085494 -0.59654,0 -1.08584,-0.489301 -1.08584,-1.085494 0,-0.597957 0.48683,-1.084789 1.08584,-1.084789"
       style="fill:#231f20;fill-opacity:1;fill-rule:nonzero;stroke:none;stroke-width:0.0352777"
       id="path1202" />
    <path
       d="m -169.36101,37.077683 c 0,0.657223 0.53975,1.197324 1.19662,1.197324 0.65687,0 1.19662,-0.540101 1.19662,-1.197324 0,-0.656518 -0.53975,-1.19662 -1.19662,-1.19662 -0.65687,0 -1.19662,0.540102 -1.19662,1.19662 m 1.19662,-1.091492 c 0.59866,0 1.08514,0.493535 1.08514,1.091492 0,0.596193 -0.4893,1.085494 -1.08514,1.085494 -0.59584,0 -1.08514,-0.489301 -1.08514,-1.085494 0,-0.597957 0.48683,-1.091492 1.08514,-1.091492 m -0.48401,1.843965 h 0.56797 c 0.46567,0 0.60572,-0.412044 0.60572,-0.730954 0,-0.41028 -0.2286,-0.689679 -0.59902,-0.689679 h -0.57467 z m 0.19085,-1.25765 h 0.35842 c 0.26071,0 0.42616,0.18168 0.42616,0.538338 0,0.358774 -0.16298,0.553859 -0.4124,0.553859 h -0.37218"
       style="fill:#231f20;fill-opacity:1;fill-rule:nonzero;stroke:none;stroke-width:0.0352777"
       id="path1204" />
    <path
       d="m -173.74426,32.032267 c 0,-3.197217 -2.5908,-5.790127 -5.78378,-5.790127 -3.19792,0 -5.79507,2.59291 -5.79507,5.790127 0,3.198981 2.59715,5.791186 5.79507,5.791186 3.19298,0 5.78378,-2.592205 5.78378,-5.791186 z"
       style="fill:none;stroke:#9c9a9b;stroke-width:0.141111;stroke-linecap:round;stroke-linejoin:round;stroke-miterlimit:10;stroke-dasharray:none;stroke-opacity:1"
       id="path1206" />
    <path
       d="m -175.32117,30.762976 h 0.50518 V 29.94029 h -0.50518 z"
       style="fill:#231f20;fill-opacity:1;fill-rule:nonzero;stroke:none;stroke-width:0.0352777"
       id="path1208" />
    <path
       d="m -175.88033,30.762976 h 0.5056 V 29.94029 h -0.5056 z"
       style="fill:#231f20;fill-opacity:1;fill-rule:nonzero;stroke:none;stroke-width:0.0352777"
       id="path1210" />
    <path
       d="m -176.43912,30.762976 h 0.50518 V 29.94029 h -0.50518 z"
       style="fill:#231f20;fill-opacity:1;fill-rule:nonzero;stroke:none;stroke-width:0.0352777"
       id="path1212" />
    <path
       d="m -176.99898,30.762976 h 0.50615 V 29.94029 h -0.50615 z"
       style="fill:#231f20;fill-opacity:1;fill-rule:nonzero;stroke:none;stroke-width:0.0352777"
       id="path1214" />
    <path
       d="m -178.67608,30.762976 h 0.50518 V 29.94029 h -0.50518 z"
       style="fill:#231f20;fill-opacity:1;fill-rule:nonzero;stroke:none;stroke-width:0.0352777"
       id="path1216" />
    <path
       d="m -179.23523,30.762976 h 0.50546 V 29.94029 h -0.50546 z"
       style="fill:#231f20;fill-opacity:1;fill-rule:nonzero;stroke:none;stroke-width:0.0352777"
       id="path1218" />
    <path
       d="m -182.03134,30.762976 h 0.50518 V 29.94029 h -0.50518 z"
       style="fill:#231f20;fill-opacity:1;fill-rule:nonzero;stroke:none;stroke-width:0.0352777"
       id="path1220" />
    <path
       d="m -183.71338,30.762976 h 0.50697 V 29.94029 h -0.50697 z"
       style="fill:#231f20;fill-opacity:1;fill-rule:nonzero;stroke:none;stroke-width:0.0352777"
       id="path1222" />
    <path
       d="m -176.99898,31.640332 h 0.50615 v -0.822548 h -0.50615 z"
       style="fill:#231f20;fill-opacity:1;fill-rule:nonzero;stroke:none;stroke-width:0.0352777"
       id="path1224" />
    <path
       d="m -178.11728,31.640332 h 0.50518 v -0.822548 h -0.50518 z"
       style="fill:#231f20;fill-opacity:1;fill-rule:nonzero;stroke:none;stroke-width:0.0352777"
       id="path1226" />
    <path
       d="m -179.79509,31.640332 h 0.50629 v -0.822548 h -0.50629 z"
       style="fill:#231f20;fill-opacity:1;fill-rule:nonzero;stroke:none;stroke-width:0.0352777"
       id="path1228" />
    <path
       d="m -182.03134,31.640332 h 0.50518 v -0.822548 h -0.50518 z"
       style="fill:#231f20;fill-opacity:1;fill-rule:nonzero;stroke:none;stroke-width:0.0352777"
       id="path1230" />
    <path
       d="m -183.15035,31.640332 h 0.50546 v -0.822548 h -0.50546 z"
       style="fill:#231f20;fill-opacity:1;fill-rule:nonzero;stroke:none;stroke-width:0.0352777"
       id="path1232" />
    <path
       d="m -184.27218,31.640332 h 0.50518 v -0.822548 h -0.50518 z"
       style="fill:#231f20;fill-opacity:1;fill-rule:nonzero;stroke:none;stroke-width:0.0352777"
       id="path1234" />
    <path
       d="m -175.88033,32.515925 h 0.5056 v -0.821861 h -0.5056 z"
       style="fill:#231f20;fill-opacity:1;fill-rule:nonzero;stroke:none;stroke-width:0.0352777"
       id="path1236" />
    <path
       d="m -176.43912,32.515925 h 0.50518 v -0.821861 h -0.50518 z"
       style="fill:#231f20;fill-opacity:1;fill-rule:nonzero;stroke:none;stroke-width:0.0352777"
       id="path1238" />
    <path
       d="m -176.99898,32.515925 h 0.50615 v -0.821861 h -0.50615 z"
       style="fill:#231f20;fill-opacity:1;fill-rule:nonzero;stroke:none;stroke-width:0.0352777"
       id="path1240" />
    <path
       d="m -178.11728,32.515925 h 0.50518 v -0.821861 h -0.50518 z"
       style="fill:#231f20;fill-opacity:1;fill-rule:nonzero;stroke:none;stroke-width:0.0352777"
       id="path1242" />
    <path
       d="m -179.79509,32.515925 h 0.50629 v -0.821861 h -0.50629 z"
       style="fill:#231f20;fill-opacity:1;fill-rule:nonzero;stroke:none;stroke-width:0.0352777"
       id="path1244" />
    <path
       d="m -182.03134,32.515925 h 0.50518 v -0.821861 h -0.50518 z"
       style="fill:#231f20;fill-opacity:1;fill-rule:nonzero;stroke:none;stroke-width:0.0352777"
       id="path1246" />
    <path
       d="m -183.15035,32.515925 h 0.50546 v -0.821861 h -0.50546 z"
       style="fill:#231f20;fill-opacity:1;fill-rule:nonzero;stroke:none;stroke-width:0.0352777"
       id="path1248" />
    <path
       d="m -183.71338,32.515925 h 0.50697 v -0.821861 h -0.50697 z"
       style="fill:#231f20;fill-opacity:1;fill-rule:nonzero;stroke:none;stroke-width:0.0352777"
       id="path1250" />
    <path
       d="m -184.27218,32.515925 h 0.50518 v -0.821861 h -0.50518 z"
       style="fill:#231f20;fill-opacity:1;fill-rule:nonzero;stroke:none;stroke-width:0.0352777"
       id="path1252" />
    <path
       d="m -176.99898,33.393281 h 0.50615 v -0.822687 h -0.50615 z"
       style="fill:#231f20;fill-opacity:1;fill-rule:nonzero;stroke:none;stroke-width:0.0352777"
       id="path1254" />
    <path
       d="m -178.11728,33.393281 h 0.50518 v -0.822687 h -0.50518 z"
       style="fill:#231f20;fill-opacity:1;fill-rule:nonzero;stroke:none;stroke-width:0.0352777"
       id="path1256" />
    <path
       d="m -179.79509,33.393281 h 0.50629 v -0.822687 h -0.50629 z"
       style="fill:#231f20;fill-opacity:1;fill-rule:nonzero;stroke:none;stroke-width:0.0352777"
       id="path1258" />
    <path
       d="m -182.03134,33.393281 h 0.50518 v -0.822687 h -0.50518 z"
       style="fill:#231f20;fill-opacity:1;fill-rule:nonzero;stroke:none;stroke-width:0.0352777"
       id="path1260" />
    <path
       d="m -183.15035,33.393281 h 0.50546 v -0.822687 h -0.50546 z"
       style="fill:#231f20;fill-opacity:1;fill-rule:nonzero;stroke:none;stroke-width:0.0352777"
       id="path1262" />
    <path
       d="m -184.27218,33.393281 h 0.50518 v -0.822687 h -0.50518 z"
       style="fill:#231f20;fill-opacity:1;fill-rule:nonzero;stroke:none;stroke-width:0.0352777"
       id="path1264" />
    <path
       d="m -176.99898,34.269578 h 0.50615 V 33.44758 h -0.50615 z"
       style="fill:#231f20;fill-opacity:1;fill-rule:nonzero;stroke:none;stroke-width:0.0352777"
       id="path1266" />
    <path
       d="m -178.67608,34.269578 h 0.50518 V 33.44758 h -0.50518 z"
       style="fill:#231f20;fill-opacity:1;fill-rule:nonzero;stroke:none;stroke-width:0.0352777"
       id="path1268" />
    <path
       d="m -179.23523,34.269578 h 0.50546 V 33.44758 h -0.50546 z"
       style="fill:#231f20;fill-opacity:1;fill-rule:nonzero;stroke:none;stroke-width:0.0352777"
       id="path1270" />
    <path
       d="m -180.91375,34.269578 h 0.5056 V 33.44758 h -0.5056 z"
       style="fill:#231f20;fill-opacity:1;fill-rule:nonzero;stroke:none;stroke-width:0.0352777"
       id="path1272" />
    <path
       d="m -181.47255,34.269578 h 0.50519 V 33.44758 h -0.50519 z"
       style="fill:#231f20;fill-opacity:1;fill-rule:nonzero;stroke:none;stroke-width:0.0352777"
       id="path1274" />
    <path
       d="m -182.03134,34.269578 h 0.50518 V 33.44758 h -0.50518 z"
       style="fill:#231f20;fill-opacity:1;fill-rule:nonzero;stroke:none;stroke-width:0.0352777"
       id="path1276" />
    <path
       d="m -183.15035,34.269578 h 0.50546 V 33.44758 h -0.50546 z"
       style="fill:#231f20;fill-opacity:1;fill-rule:nonzero;stroke:none;stroke-width:0.0352777"
       id="path1278" />
    <path
       d="m -184.27218,34.269578 h 0.50518 V 33.44758 h -0.50518 z"
       style="fill:#231f20;fill-opacity:1;fill-rule:nonzero;stroke:none;stroke-width:0.0352777"
       id="path1280" />
  </g>
</svg>
