<?xml version="1.0" encoding="UTF-8" standalone="no"?>
<!-- Created with Inkscape (http://www.inkscape.org/) -->

<svg
   width="29.772421mm"
   height="16.806486mm"
   viewBox="0 0 29.772421 16.806486"
   version="1.1"
   id="svg838"
   inkscape:version="1.2.2 (b0a8486541, 2022-12-01)"
   sodipodi:docname="alof_flash2.svg"
   xmlns:inkscape="http://www.inkscape.org/namespaces/inkscape"
   xmlns:sodipodi="http://sodipodi.sourceforge.net/DTD/sodipodi-0.dtd"
   xmlns="http://www.w3.org/2000/svg"
   xmlns:svg="http://www.w3.org/2000/svg">
  <sodipodi:namedview
     id="namedview840"
     pagecolor="#ffffff"
     bordercolor="#666666"
     borderopacity="1.0"
     inkscape:showpageshadow="2"
     inkscape:pageopacity="0.0"
     inkscape:pagecheckerboard="0"
     inkscape:deskcolor="#d1d1d1"
     inkscape:document-units="mm"
     showgrid="false"
     inkscape:zoom="0.44542649"
     inkscape:cx="1109.0494"
     inkscape:cy="482.68346"
     inkscape:window-width="1366"
     inkscape:window-height="685"
     inkscape:window-x="0"
     inkscape:window-y="27"
     inkscape:window-maximized="1"
     inkscape:current-layer="layer1" />
  <defs
     id="defs835">
    <clipPath
       clipPathUnits="userSpaceOnUse"
       id="clipPath194">
      <path
         d="m 777.27,1795.24 h 713.699 v 357.172 H 777.27 Z"
         id="path192" />
    </clipPath>
    <clipPath
       clipPathUnits="userSpaceOnUse"
       id="clipPath752">
      <path
         d="m 777.27,1795.24 h 713.699 v 357.172 H 777.27 Z"
         id="path750" />
    </clipPath>
    <clipPath
       clipPathUnits="userSpaceOnUse"
       id="clipPath756">
      <path
         d="m 777.27,1795.24 h 713.699 v 357.172 H 777.27 Z"
         id="path754" />
    </clipPath>
  </defs>
  <g
     inkscape:label="Layer 1"
     inkscape:groupmode="layer"
     id="layer1"
     transform="translate(188.33421,-20.702756)">
    <text
       xml:space="preserve"
       transform="scale(1,-1)"
       style="font-variant:normal;font-weight:normal;font-size:0.0352777px;font-family:Arial;-inkscape-font-specification:Arial;writing-mode:lr-tb;fill:#231f20;fill-opacity:1;fill-rule:nonzero;stroke:none;stroke-width:0.352777"
       id="text150"
       x="-188.33504"
       y="-20.711231"><tspan
         x="-188.33504 -185.8656"
         y="-20.711231"
         sodipodi:role="line"
         id="tspan148"
         style="stroke-width:0.352777">✯✵</tspan></text>
    <text
       xml:space="preserve"
       transform="scale(1,-1)"
       style="font-variant:normal;font-weight:normal;font-size:0.0352777px;font-family:Arial;-inkscape-font-specification:Arial;writing-mode:lr-tb;fill:#231f20;fill-opacity:1;fill-rule:nonzero;stroke:none;stroke-width:0.352777"
       id="text154"
       x="-183.43144"
       y="-20.711231"><tspan
         x="-183.43144"
         y="-20.711231"
         id="tspan152"
         style="stroke-width:0.352777">✡</tspan></text>
    <text
       xml:space="preserve"
       transform="scale(1,-1)"
       style="font-variant:normal;font-weight:normal;font-size:0.0352777px;font-family:Arial;-inkscape-font-specification:Arial;writing-mode:lr-tb;fill:#231f20;fill-opacity:1;fill-rule:nonzero;stroke:none;stroke-width:0.352777"
       id="text158"
       x="-180.99727"
       y="-20.711231"><tspan
         x="-180.99727"
         y="-20.711231"
         id="tspan156"
         style="stroke-width:0.352777">❤</tspan></text>
    <text
       xml:space="preserve"
       transform="scale(1,-1)"
       style="font-variant:normal;font-weight:normal;font-size:0.0352777px;font-family:Arial;-inkscape-font-specification:Arial;writing-mode:lr-tb;fill:#231f20;fill-opacity:1;fill-rule:nonzero;stroke:none;stroke-width:0.352777"
       id="text162"
       x="-178.49246"
       y="-20.711231"><tspan
         x="-178.49246"
         y="-20.711231"
         id="tspan160"
         style="stroke-width:0.352777">✔</tspan></text>
    <text
       xml:space="preserve"
       transform="scale(1,-1)"
       style="font-variant:normal;font-weight:normal;font-size:0.0352777px;font-family:Arial;-inkscape-font-specification:Arial;writing-mode:lr-tb;fill:#231f20;fill-opacity:1;fill-rule:nonzero;stroke:none;stroke-width:0.352777"
       id="text166"
       x="-176.05829"
       y="-20.711231"><tspan
         x="-176.05829"
         y="-20.711231"
         id="tspan164"
         style="stroke-width:0.352777">✟</tspan></text>
    <text
       xml:space="preserve"
       transform="scale(1,-1)"
       style="font-variant:normal;font-weight:normal;font-size:0.0352777px;font-family:Arial;-inkscape-font-specification:Arial;writing-mode:lr-tb;fill:#231f20;fill-opacity:1;fill-rule:nonzero;stroke:none;stroke-width:0.352777"
       id="text170"
       x="-173.62413"
       y="-20.711231"><tspan
         x="-173.62413"
         y="-20.711231"
         id="tspan168"
         style="stroke-width:0.352777">❙</tspan></text>
    <text
       xml:space="preserve"
       transform="scale(1,-1)"
       style="font-variant:normal;font-weight:normal;font-size:0.0352777px;font-family:Arial;-inkscape-font-specification:Arial;writing-mode:lr-tb;fill:#231f20;fill-opacity:1;fill-rule:nonzero;stroke:none;stroke-width:0.352777"
       id="text174"
       x="-171.11958"
       y="-20.711231"><tspan
         x="-171.11958 -168.68542"
         y="-20.711231"
         sodipodi:role="line"
         id="tspan172"
         style="stroke-width:0.352777">✜★</tspan></text>
    <text
       xml:space="preserve"
       transform="scale(1,-1)"
       style="font-variant:normal;font-weight:normal;font-size:0.0352777px;font-family:Arial;-inkscape-font-specification:Arial;writing-mode:lr-tb;fill:#231f20;fill-opacity:1;fill-rule:nonzero;stroke:none;stroke-width:0.352777"
       id="text178"
       x="-166.21579"
       y="-20.711231"><tspan
         x="-166.21579 -163.78163 -161.31219"
         y="-20.711231"
         sodipodi:role="line"
         id="tspan176"
         style="stroke-width:0.352777">✰✱✲</tspan></text>
    <path
       d="m -178.36214,23.715313 -0.43282,-0.19438 c 0,0 -0.3587,-0.173567 -0.66008,0.06103 -0.24793,0.192616 -0.69356,0.507999 -1.4213,1.660874 -0.71508,1.157461 -0.77255,1.648173 -0.82134,1.9311 -0.0595,0.343252 0.3102,0.498827 0.3102,0.498827 l 0.43215,0.19438"
       style="fill:#9c9a9b;fill-opacity:1;fill-rule:nonzero;stroke:none;stroke-width:0.0352777"
       id="path180" />
    <path
       d="m -163.91695,23.715313 0.43286,-0.19438 c 0,0 0.35878,-0.173567 0.66005,0.06103 0.24765,0.192616 0.69356,0.507999 1.42098,1.660874 0.71543,1.157461 0.77294,1.648173 0.82127,1.9311 0.0596,0.343252 -0.31009,0.498827 -0.31009,0.498827 l -0.4318,0.19438"
       style="fill:#9c9a9b;fill-opacity:1;fill-rule:nonzero;stroke:none;stroke-width:0.0352777"
       id="path182" />
    <path
       d="m -178.36214,35.570733 -0.43282,0.194733 c 0,0 -0.3587,0.173566 -0.66008,-0.06103 -0.24793,-0.192617 -0.69356,-0.508352 -1.4213,-1.660874 -0.71508,-1.157814 -0.77255,-1.648174 -0.82134,-1.931454 -0.0595,-0.342899 0.3102,-0.498473 0.3102,-0.498473 l 0.43215,-0.19438"
       style="fill:#9c9a9b;fill-opacity:1;fill-rule:nonzero;stroke:none;stroke-width:0.0352777"
       id="path184" />
    <path
       d="m -163.91695,35.570733 0.43286,0.194733 c 0,0 0.35878,0.173566 0.66005,-0.06103 0.24765,-0.192617 0.69356,-0.508352 1.42098,-1.660874 0.71543,-1.157814 0.77294,-1.648174 0.82127,-1.931454 0.0596,-0.342899 -0.31009,-0.498473 -0.31009,-0.498473 l -0.4318,-0.19438"
       style="fill:#9c9a9b;fill-opacity:1;fill-rule:nonzero;stroke:none;stroke-width:0.0352777"
       id="path186" />
    <path
       d="m 1427.38,1973.82 c 0,-137.51 -131.15,-248.99 -292.95,-248.99 -161.782,0 -292.93,111.48 -292.93,248.99 0,137.51 131.148,249 292.93,249 161.8,0 292.95,-111.49 292.95,-249"
       style="fill:#ffffff;fill-opacity:1;fill-rule:nonzero;stroke:none"
       id="path196"
       clip-path="url(#clipPath194)"
       transform="matrix(0.03527769,0,0,-0.03527769,-211.15977,99.274833)" />
    <path
       d="m 1427.38,1973.82 c 0,-137.51 -131.15,-248.99 -292.95,-248.99 -161.782,0 -292.93,111.48 -292.93,248.99 0,137.51 131.148,249 292.93,249 161.8,0 292.95,-111.49 292.95,-249 z"
       style="fill:none;stroke:#9c9a9b;stroke-width:6;stroke-linecap:butt;stroke-linejoin:miter;stroke-miterlimit:10;stroke-dasharray:none;stroke-opacity:1"
       id="path198"
       clip-path="url(#clipPath194)"
       transform="matrix(0.03527769,0,0,-0.03527769,-211.15977,99.274833)" />
    <path
       d="m 1403.9,1973.82 c 0,-126.5 -120.64,-229.05 -269.47,-229.05 -148.821,0 -269.461,102.55 -269.461,229.05 0,126.5 120.64,229.05 269.461,229.05 148.83,0 269.47,-102.55 269.47,-229.05 z"
       style="fill:none;stroke:#9c9a9b;stroke-width:4;stroke-linecap:butt;stroke-linejoin:miter;stroke-miterlimit:10;stroke-dasharray:none;stroke-opacity:1"
       id="path200"
       clip-path="url(#clipPath194)"
       transform="matrix(0.03527769,0,0,-0.03527769,-211.15977,99.274833)" />
    <path
       d="m -183.75782,24.654758 c 0,0.656517 0.54045,1.197324 1.19736,1.197324 0.65609,0 1.1963,-0.540807 1.1963,-1.197324 0,-0.656518 -0.54021,-1.196267 -1.1963,-1.196267 -0.65691,0 -1.19736,0.539749 -1.19736,1.196267 m 1.19736,-1.084789 c 0.59753,0 1.08478,0.487184 1.08478,1.084789 0,0.596193 -0.48905,1.084789 -1.08478,1.084789 -0.59655,0 -1.08589,-0.488596 -1.08589,-1.084789 0,-0.597605 0.48687,-1.084789 1.08589,-1.084789 m 0.28567,1.397349 0.14221,0.414513 h 0.2092 l -0.51428,-1.420633 h -0.21911 l -0.53344,1.420633 h 0.19858 l 0.14894,-0.414513 z m -0.51015,-0.170391 0.22836,-0.624063 h 0.005 l 0.20919,0.624063"
       style="fill:#231f20;fill-opacity:1;fill-rule:nonzero;stroke:none;stroke-width:0.0352777"
       id="path202" />
    <path
       d="m -160.95538,24.655463 c 0,0.656518 0.54045,1.196619 1.19697,1.196619 0.65687,0 1.19662,-0.540101 1.19662,-1.196619 0,-0.656518 -0.53975,-1.197325 -1.19662,-1.197325 -0.65652,0 -1.19697,0.540807 -1.19697,1.197325 m 1.19697,-1.092197 c 0.59866,0 1.08514,0.493535 1.08514,1.092197 0,0.596193 -0.48895,1.084789 -1.08514,1.084789 -0.59584,0 -1.08479,-0.488596 -1.08479,-1.084789 0,-0.598662 0.48648,-1.092197 1.08479,-1.092197 m -0.24448,1.184977 h 0.37959 c 0.15593,0 0.33091,0.03951 0.33091,0.239536 0,0.15875 -0.10019,0.258938 -0.30092,0.258938 h -0.40958 z m -0.19085,0.663927 h 0.61242 c 0.31433,0 0.4819,-0.191206 0.4819,-0.419099 0,-0.244828 -0.16546,-0.309386 -0.25859,-0.347486 0.15875,-0.07197 0.19121,-0.202494 0.19121,-0.295274 0,-0.195791 -0.13724,-0.358774 -0.40252,-0.358774 h -0.62442 z m 0.19085,-1.25765 h 0.34925 c 0.21449,0 0.29563,0.07691 0.29563,0.209902 0,0.172155 -0.11395,0.228247 -0.29774,0.228247 h -0.34714"
       style="fill:#231f20;fill-opacity:1;fill-rule:nonzero;stroke:none;stroke-width:0.0352777"
       id="path204" />
    <path
       d="m -183.75782,34.630936 c 0,0.657223 0.54045,1.197324 1.19736,1.197324 0.65609,0 1.1963,-0.540101 1.1963,-1.197324 0,-0.656518 -0.54021,-1.19662 -1.1963,-1.19662 -0.65691,0 -1.19736,0.540102 -1.19736,1.19662 m 1.8048,-0.251178 c -0.0283,-0.237418 -0.21911,-0.463196 -0.58455,-0.463196 -0.41409,0 -0.66393,0.302683 -0.66393,0.738362 0,0.546452 0.3168,0.756354 0.64104,0.756354 0.10611,0 0.54214,-0.02293 0.62152,-0.558799 h -0.18687 c -0.0653,0.330552 -0.28127,0.388408 -0.40502,0.388408 -0.35387,0 -0.47212,-0.255411 -0.47212,-0.590902 0,-0.374649 0.20891,-0.563031 0.46538,-0.563031 0.13723,0 0.34505,0.04374 0.39755,0.292804 z m -0.60744,-0.833611 c 0.59753,0 1.08478,0.486832 1.08478,1.084789 0,0.596192 -0.48905,1.085494 -1.08478,1.085494 -0.59655,0 -1.08589,-0.489302 -1.08589,-1.085494 0,-0.597957 0.48687,-1.084789 1.08589,-1.084789"
       style="fill:#231f20;fill-opacity:1;fill-rule:nonzero;stroke:none;stroke-width:0.0352777"
       id="path206" />
    <path
       d="m -160.95785,34.630936 c 0,0.657223 0.53975,1.197324 1.19662,1.197324 0.65687,0 1.19662,-0.540101 1.19662,-1.197324 0,-0.656518 -0.53975,-1.19662 -1.19662,-1.19662 -0.65687,0 -1.19662,0.540102 -1.19662,1.19662 m 1.19662,-1.091492 c 0.59866,0 1.08514,0.493535 1.08514,1.091492 0,0.596192 -0.4893,1.085494 -1.08514,1.085494 -0.59584,0 -1.08515,-0.489302 -1.08515,-1.085494 0,-0.597957 0.48684,-1.091492 1.08515,-1.091492 m -0.48401,1.843965 h 0.56797 c 0.46566,0 0.60571,-0.412044 0.60571,-0.730954 0,-0.41028 -0.22859,-0.689679 -0.59901,-0.689679 h -0.57467 z m 0.19085,-1.25765 h 0.35842 c 0.2607,0 0.42615,0.18168 0.42615,0.538338 0,0.358774 -0.16298,0.553859 -0.41239,0.553859 h -0.37218"
       style="fill:#231f20;fill-opacity:1;fill-rule:nonzero;stroke:none;stroke-width:0.0352777"
       id="path208" />
    <path
       d="m -165.34111,29.585168 c 0,-3.197218 -2.59079,-5.790128 -5.78377,-5.790128 -3.19793,0 -5.795,2.59291 -5.795,5.790128 0,3.19898 2.59707,5.791185 5.795,5.791185 3.19298,0 5.78377,-2.592205 5.78377,-5.791185 z"
       style="fill:none;stroke:#9c9a9b;stroke-width:0.141111;stroke-linecap:round;stroke-linejoin:round;stroke-miterlimit:10;stroke-dasharray:none;stroke-opacity:1"
       id="path210" />
    <path
       d="m -166.91802,28.315876 h 0.50519 V 27.49319 h -0.50519 z"
       style="fill:#7b7979;fill-opacity:1;fill-rule:nonzero;stroke:none;stroke-width:0.0352777"
       id="path212" />
    <path
       d="m -167.47717,28.315876 h 0.50546 V 27.49319 h -0.50546 z"
       style="fill:#7b7979;fill-opacity:1;fill-rule:nonzero;stroke:none;stroke-width:0.0352777"
       id="path214" />
    <path
       d="m -168.03597,28.315876 h 0.50519 V 27.49319 h -0.50519 z"
       style="fill:#7b7979;fill-opacity:1;fill-rule:nonzero;stroke:none;stroke-width:0.0352777"
       id="path216" />
    <path
       d="m -169.15427,28.315876 h 0.50519 V 27.49319 h -0.50519 z"
       style="fill:#7b7979;fill-opacity:1;fill-rule:nonzero;stroke:none;stroke-width:0.0352777"
       id="path218" />
    <path
       d="m -169.71413,28.315876 h 0.50519 V 27.49319 h -0.50519 z"
       style="fill:#7b7979;fill-opacity:1;fill-rule:nonzero;stroke:none;stroke-width:0.0352777"
       id="path220" />
    <path
       d="m -170.27293,28.315876 h 0.50519 V 27.49319 h -0.50519 z"
       style="fill:#7b7979;fill-opacity:1;fill-rule:nonzero;stroke:none;stroke-width:0.0352777"
       id="path222" />
    <path
       d="m -172.51059,28.315876 h 0.50546 V 27.49319 h -0.50546 z"
       style="fill:#231f20;fill-opacity:1;fill-rule:nonzero;stroke:none;stroke-width:0.0352777"
       id="path224" />
    <path
       d="m -173.06939,28.315876 h 0.50519 V 27.49319 h -0.50519 z"
       style="fill:#231f20;fill-opacity:1;fill-rule:nonzero;stroke:none;stroke-width:0.0352777"
       id="path226" />
    <path
       d="m -173.62819,28.315876 h 0.50519 V 27.49319 h -0.50519 z"
       style="fill:#231f20;fill-opacity:1;fill-rule:nonzero;stroke:none;stroke-width:0.0352777"
       id="path228" />
    <path
       d="m -174.7472,28.315876 h 0.50547 V 27.49319 h -0.50547 z"
       style="fill:#231f20;fill-opacity:1;fill-rule:nonzero;stroke:none;stroke-width:0.0352777"
       id="path230" />
    <path
       d="m -166.91802,29.193232 h 0.50519 v -0.822686 h -0.50519 z"
       style="fill:#7b7979;fill-opacity:1;fill-rule:nonzero;stroke:none;stroke-width:0.0352777"
       id="path232" />
    <path
       d="m -168.03597,29.193232 h 0.50519 v -0.822686 h -0.50519 z"
       style="fill:#7b7979;fill-opacity:1;fill-rule:nonzero;stroke:none;stroke-width:0.0352777"
       id="path234" />
    <path
       d="m -169.15427,29.193232 h 0.50519 v -0.822686 h -0.50519 z"
       style="fill:#7b7979;fill-opacity:1;fill-rule:nonzero;stroke:none;stroke-width:0.0352777"
       id="path236" />
    <path
       d="m -170.27293,29.193232 h 0.50519 v -0.822686 h -0.50519 z"
       style="fill:#7b7979;fill-opacity:1;fill-rule:nonzero;stroke:none;stroke-width:0.0352777"
       id="path238" />
    <path
       d="m -171.39194,29.193232 h 0.50616 v -0.822686 h -0.50616 z"
       style="fill:#231f20;fill-opacity:1;fill-rule:nonzero;stroke:none;stroke-width:0.0352777"
       id="path240" />
    <path
       d="m -172.51059,29.193232 h 0.50546 v -0.822686 h -0.50546 z"
       style="fill:#231f20;fill-opacity:1;fill-rule:nonzero;stroke:none;stroke-width:0.0352777"
       id="path242" />
    <path
       d="m -174.7472,29.193232 h 0.50547 v -0.822686 h -0.50547 z"
       style="fill:#231f20;fill-opacity:1;fill-rule:nonzero;stroke:none;stroke-width:0.0352777"
       id="path244" />
    <path
       d="m -175.31023,29.193232 h 0.50684 v -0.822686 h -0.50684 z"
       style="fill:#231f20;fill-opacity:1;fill-rule:nonzero;stroke:none;stroke-width:0.0352777"
       id="path246" />
    <path
       d="m -166.91802,30.068825 h 0.50519 v -0.821999 h -0.50519 z"
       style="fill:#7b7979;fill-opacity:1;fill-rule:nonzero;stroke:none;stroke-width:0.0352777"
       id="path248" />
    <path
       d="m -168.03597,30.068825 h 0.50519 v -0.821999 h -0.50519 z"
       style="fill:#7b7979;fill-opacity:1;fill-rule:nonzero;stroke:none;stroke-width:0.0352777"
       id="path250" />
    <path
       d="m -169.15427,30.068825 h 0.50519 v -0.821999 h -0.50519 z"
       style="fill:#7b7979;fill-opacity:1;fill-rule:nonzero;stroke:none;stroke-width:0.0352777"
       id="path252" />
    <path
       d="m -170.27293,30.068825 h 0.50519 v -0.821999 h -0.50519 z"
       style="fill:#7b7979;fill-opacity:1;fill-rule:nonzero;stroke:none;stroke-width:0.0352777"
       id="path254" />
    <path
       d="m -172.51059,30.068825 h 0.50546 v -0.821999 h -0.50546 z"
       style="fill:#231f20;fill-opacity:1;fill-rule:nonzero;stroke:none;stroke-width:0.0352777"
       id="path256" />
    <path
       d="m -173.06939,30.068825 h 0.50519 v -0.821999 h -0.50519 z"
       style="fill:#231f20;fill-opacity:1;fill-rule:nonzero;stroke:none;stroke-width:0.0352777"
       id="path258" />
    <path
       d="m -173.62819,30.068825 h 0.50519 v -0.821999 h -0.50519 z"
       style="fill:#231f20;fill-opacity:1;fill-rule:nonzero;stroke:none;stroke-width:0.0352777"
       id="path260" />
    <path
       d="m -174.7472,30.068825 h 0.50547 v -0.821999 h -0.50547 z"
       style="fill:#231f20;fill-opacity:1;fill-rule:nonzero;stroke:none;stroke-width:0.0352777"
       id="path262" />
    <path
       d="m -166.91802,30.946181 h 0.50519 v -0.822687 h -0.50519 z"
       style="fill:#7b7979;fill-opacity:1;fill-rule:nonzero;stroke:none;stroke-width:0.0352777"
       id="path264" />
    <path
       d="m -168.03597,30.946181 h 0.50519 v -0.822687 h -0.50519 z"
       style="fill:#7b7979;fill-opacity:1;fill-rule:nonzero;stroke:none;stroke-width:0.0352777"
       id="path266" />
    <path
       d="m -169.15427,30.946181 h 0.50519 v -0.822687 h -0.50519 z"
       style="fill:#7b7979;fill-opacity:1;fill-rule:nonzero;stroke:none;stroke-width:0.0352777"
       id="path268" />
    <path
       d="m -170.27293,30.946181 h 0.50519 v -0.822687 h -0.50519 z"
       style="fill:#7b7979;fill-opacity:1;fill-rule:nonzero;stroke:none;stroke-width:0.0352777"
       id="path270" />
    <path
       d="m -171.39194,30.946181 h 0.50616 v -0.822687 h -0.50616 z"
       style="fill:#231f20;fill-opacity:1;fill-rule:nonzero;stroke:none;stroke-width:0.0352777"
       id="path272" />
    <path
       d="m -173.62819,30.946181 h 0.50519 v -0.822687 h -0.50519 z"
       style="fill:#231f20;fill-opacity:1;fill-rule:nonzero;stroke:none;stroke-width:0.0352777"
       id="path274" />
    <path
       d="m -174.7472,30.946181 h 0.50547 v -0.822687 h -0.50547 z"
       style="fill:#231f20;fill-opacity:1;fill-rule:nonzero;stroke:none;stroke-width:0.0352777"
       id="path276" />
    <path
       d="m -166.91802,31.822479 h 0.50519 V 31.00048 h -0.50519 z"
       style="fill:#7b7979;fill-opacity:1;fill-rule:nonzero;stroke:none;stroke-width:0.0352777"
       id="path278" />
    <path
       d="m -167.47717,31.822479 h 0.50546 V 31.00048 h -0.50546 z"
       style="fill:#7b7979;fill-opacity:1;fill-rule:nonzero;stroke:none;stroke-width:0.0352777"
       id="path280" />
    <path
       d="m -168.03597,31.822479 h 0.50519 V 31.00048 h -0.50519 z"
       style="fill:#7b7979;fill-opacity:1;fill-rule:nonzero;stroke:none;stroke-width:0.0352777"
       id="path282" />
    <path
       d="m -169.15427,31.822479 h 0.50519 V 31.00048 h -0.50519 z"
       style="fill:#7b7979;fill-opacity:1;fill-rule:nonzero;stroke:none;stroke-width:0.0352777"
       id="path284" />
    <path
       d="m -169.71413,31.822479 h 0.50519 V 31.00048 h -0.50519 z"
       style="fill:#7b7979;fill-opacity:1;fill-rule:nonzero;stroke:none;stroke-width:0.0352777"
       id="path286" />
    <path
       d="m -170.27293,31.822479 h 0.50519 V 31.00048 h -0.50519 z"
       style="fill:#7b7979;fill-opacity:1;fill-rule:nonzero;stroke:none;stroke-width:0.0352777"
       id="path288" />
    <path
       d="m -172.51059,31.822479 h 0.50546 V 31.00048 h -0.50546 z"
       style="fill:#231f20;fill-opacity:1;fill-rule:nonzero;stroke:none;stroke-width:0.0352777"
       id="path290" />
    <path
       d="m -173.06939,31.822479 h 0.50519 V 31.00048 h -0.50519 z"
       style="fill:#231f20;fill-opacity:1;fill-rule:nonzero;stroke:none;stroke-width:0.0352777"
       id="path292" />
    <path
       d="m -173.62819,31.822479 h 0.50519 V 31.00048 h -0.50519 z"
       style="fill:#231f20;fill-opacity:1;fill-rule:nonzero;stroke:none;stroke-width:0.0352777"
       id="path294" />
    <path
       d="m -174.7472,31.822479 h 0.50547 V 31.00048 h -0.50547 z"
       style="fill:#231f20;fill-opacity:1;fill-rule:nonzero;stroke:none;stroke-width:0.0352777"
       id="path296" />
    <path
       d="m -170.94497,32.159733 c 0.65052,0.628649 1.53423,1.015292 2.50719,1.015292 1.99954,0 3.62019,-1.630887 3.62019,-3.641716 0,-2.010828 -1.62065,-3.641716 -3.62019,-3.641716 -1.05622,0 -2.0066,0.455435 -2.66841,1.18145"
       style="fill:none;stroke:#ffffff;stroke-width:1.5875;stroke-linecap:butt;stroke-linejoin:miter;stroke-miterlimit:4;stroke-dasharray:0.423332, 0.772581;stroke-dashoffset:0;stroke-opacity:1"
       id="path298" />
    <path
       d="m -170.85536,32.243694 c 0.64064,0.57926 1.48836,0.931684 2.41793,0.931684 1.99919,0 3.61984,-1.630888 3.61984,-3.641716 0,-2.011181 -1.62065,-3.641716 -3.61984,-3.641716 -1.03293,0 -1.96461,0.435327 -2.62395,1.132767"
       style="fill:none;stroke:#231f20;stroke-width:1.41111;stroke-linecap:butt;stroke-linejoin:miter;stroke-miterlimit:4;stroke-dasharray:0.176388, 1.02305;stroke-dashoffset:0;stroke-opacity:1"
       id="path300" />
    <path
       d="m -168.50798,32.522035 v 4.775541"
       style="fill:none;stroke:#ffffff;stroke-width:0.423332;stroke-linecap:round;stroke-linejoin:round;stroke-miterlimit:4;stroke-dasharray:none;stroke-opacity:1"
       id="path308" />
    <path
       d="m -168.50798,32.522035 v 4.775541"
       style="fill:none;stroke:#231f20;stroke-width:0.0881942;stroke-linecap:round;stroke-linejoin:round;stroke-miterlimit:4;stroke-dasharray:none;stroke-opacity:1"
       id="path310" />
  </g>
</svg>
