<?xml version="1.0" encoding="UTF-8" standalone="no"?>
<!-- Created with Inkscape (http://www.inkscape.org/) -->

<svg
   width="25.19603mm"
   height="12.818718mm"
   viewBox="0 0 25.19603 12.818718"
   version="1.1"
   id="svg1040"
   inkscape:version="1.2.2 (b0a8486541, 2022-12-01)"
   sodipodi:docname="auto_dst.svg"
   xmlns:inkscape="http://www.inkscape.org/namespaces/inkscape"
   xmlns:sodipodi="http://sodipodi.sourceforge.net/DTD/sodipodi-0.dtd"
   xmlns="http://www.w3.org/2000/svg"
   xmlns:svg="http://www.w3.org/2000/svg">
  <sodipodi:namedview
     id="namedview1042"
     pagecolor="#ffffff"
     bordercolor="#666666"
     borderopacity="1.0"
     inkscape:showpageshadow="2"
     inkscape:pageopacity="0.0"
     inkscape:pagecheckerboard="0"
     inkscape:deskcolor="#d1d1d1"
     inkscape:document-units="mm"
     showgrid="false"
     inkscape:zoom="0.44542649"
     inkscape:cx="1122.5197"
     inkscape:cy="480.43843"
     inkscape:window-width="1366"
     inkscape:window-height="685"
     inkscape:window-x="0"
     inkscape:window-y="27"
     inkscape:window-maximized="1"
     inkscape:current-layer="layer1" />
  <defs
     id="defs1037">
    <clipPath
       clipPathUnits="userSpaceOnUse"
       id="clipPath124">
      <path
         d="m 2704.83,1905.28 h 713.695 v 357.168 H 2704.83 Z"
         id="path122" />
    </clipPath>
    <clipPath
       clipPathUnits="userSpaceOnUse"
       id="clipPath968">
      <path
         d="m 2704.83,1905.28 h 713.695 v 357.168 H 2704.83 Z"
         id="path966" />
    </clipPath>
    <clipPath
       clipPathUnits="userSpaceOnUse"
       id="clipPath972">
      <path
         d="m 2704.83,1905.28 h 713.695 v 357.168 H 2704.83 Z"
         id="path970" />
    </clipPath>
  </defs>
  <g
     inkscape:label="Layer 1"
     inkscape:groupmode="layer"
     id="layer1"
     transform="translate(191.98601,-21.504461)">
    <path
       d="m -186.59029,21.876923 -0.43285,-0.19438 c 0,0 -0.35878,-0.173567 -0.66005,0.06103 -0.248,0.192616 -0.69356,0.507999 -1.42134,1.660874 -0.71508,1.157461 -0.77258,1.648173 -0.82126,1.9311 -0.0596,0.343252 0.31009,0.498827 0.31009,0.498827 l 0.43215,0.19438"
       style="fill:#9c9a9b;fill-opacity:1;fill-rule:nonzero;stroke:none;stroke-width:0.0352777"
       id="path110" />
    <path
       d="m -172.14513,21.876923 0.43286,-0.19438 c 0,0 0.35877,-0.173567 0.66004,0.06103 0.24765,0.192616 0.69356,0.507999 1.42099,1.660874 0.71543,1.157461 0.77293,1.648173 0.82126,1.9311 0.0596,0.343252 -0.31009,0.498827 -0.31009,0.498827 l -0.4318,0.19438"
       style="fill:#9c9a9b;fill-opacity:1;fill-rule:nonzero;stroke:none;stroke-width:0.0352777"
       id="path112" />
    <path
       d="m -186.59029,33.732343 -0.43285,0.194733 c 0,0 -0.35878,0.173566 -0.66005,-0.06103 -0.248,-0.192617 -0.69356,-0.508352 -1.42134,-1.660874 -0.71508,-1.157814 -0.77258,-1.648174 -0.82126,-1.931454 -0.0596,-0.342899 0.31009,-0.498473 0.31009,-0.498473 l 0.43215,-0.19438"
       style="fill:#9c9a9b;fill-opacity:1;fill-rule:nonzero;stroke:none;stroke-width:0.0352777"
       id="path114" />
    <path
       d="m -172.14513,33.732343 0.43286,0.194733 c 0,0 0.35877,0.173566 0.66004,-0.06103 0.24765,-0.192617 0.69356,-0.508352 1.42099,-1.660874 0.71543,-1.157814 0.77293,-1.648174 0.82126,-1.931454 0.0596,-0.342899 -0.31009,-0.498473 -0.31009,-0.498473 l -0.4318,-0.19438"
       style="fill:#9c9a9b;fill-opacity:1;fill-rule:nonzero;stroke:none;stroke-width:0.0352777"
       id="path116" />
    <path
       d="m 3354.93,2083.86 c 0,-137.51 -131.15,-248.99 -292.95,-248.99 -161.78,0 -292.93,111.48 -292.93,248.99 0,137.51 131.15,249 292.93,249 161.8,0 292.95,-111.49 292.95,-249"
       style="fill:#ffffff;fill-opacity:1;fill-rule:nonzero;stroke:none"
       id="path126"
       clip-path="url(#clipPath124)"
       transform="matrix(0.03527769,0,0,-0.03527769,-287.38782,101.3184)" />
    <path
       d="m 3354.93,2083.86 c 0,-137.51 -131.15,-248.99 -292.95,-248.99 -161.78,0 -292.93,111.48 -292.93,248.99 0,137.51 131.15,249 292.93,249 161.8,0 292.95,-111.49 292.95,-249 z"
       style="fill:none;stroke:#9c9a9b;stroke-width:6;stroke-linecap:butt;stroke-linejoin:miter;stroke-miterlimit:10;stroke-dasharray:none;stroke-opacity:1"
       id="path128"
       clip-path="url(#clipPath124)"
       transform="matrix(0.03527769,0,0,-0.03527769,-287.38782,101.3184)" />
    <path
       d="m 3331.46,2083.86 c 0,-126.5 -120.64,-229.05 -269.47,-229.05 -148.82,0 -269.46,102.55 -269.46,229.05 0,126.5 120.64,229.05 269.46,229.05 148.83,0 269.47,-102.55 269.47,-229.05 z"
       style="fill:none;stroke:#9c9a9b;stroke-width:4;stroke-linecap:butt;stroke-linejoin:miter;stroke-miterlimit:10;stroke-dasharray:none;stroke-opacity:1"
       id="path130"
       clip-path="url(#clipPath124)"
       transform="matrix(0.03527769,0,0,-0.03527769,-287.38782,101.3184)" />
    <path
       d="m -191.98601,22.816368 c 0,0.656517 0.54045,1.197324 1.19732,1.197324 0.65617,0 1.19627,-0.540807 1.19627,-1.197324 0,-0.656518 -0.5401,-1.196267 -1.19627,-1.196267 -0.65687,0 -1.19732,0.539749 -1.19732,1.196267 m 1.19732,-1.084789 c 0.59761,0 1.08479,0.487184 1.08479,1.084789 0,0.596193 -0.48895,1.084789 -1.08479,1.084789 -0.59654,0 -1.08584,-0.488596 -1.08584,-1.084789 0,-0.597605 0.48683,-1.084789 1.08584,-1.084789 m 0.28575,1.397349 0.14217,0.414513 h 0.2092 l -0.51435,-1.420633 h -0.21907 l -0.5334,1.420633 h 0.19861 l 0.14887,-0.414513 z m -0.51011,-0.170391 0.22825,-0.624063 h 0.005 l 0.2092,0.624063"
       style="fill:#231f20;fill-opacity:1;fill-rule:nonzero;stroke:none;stroke-width:0.0352777"
       id="path132" />
    <path
       d="m -169.18357,22.817073 c 0,0.656518 0.54045,1.196619 1.19697,1.196619 0.65687,0 1.19662,-0.540101 1.19662,-1.196619 0,-0.656518 -0.53975,-1.197325 -1.19662,-1.197325 -0.65652,0 -1.19697,0.540807 -1.19697,1.197325 m 1.19697,-1.092197 c 0.59866,0 1.08514,0.493535 1.08514,1.092197 0,0.596193 -0.48894,1.084789 -1.08514,1.084789 -0.59584,0 -1.08479,-0.488596 -1.08479,-1.084789 0,-0.598662 0.48648,-1.092197 1.08479,-1.092197 m -0.24447,1.184977 h 0.37959 c 0.15592,0 0.3309,0.03951 0.3309,0.239536 0,0.15875 -0.10019,0.258938 -0.30092,0.258938 h -0.40957 z m -0.19085,0.663927 h 0.61242 c 0.31432,0 0.48189,-0.191206 0.48189,-0.419099 0,-0.244828 -0.16545,-0.309386 -0.25859,-0.347486 0.15875,-0.07197 0.19121,-0.202494 0.19121,-0.295274 0,-0.195791 -0.13723,-0.358774 -0.40252,-0.358774 h -0.62441 z m 0.19085,-1.25765 h 0.34925 c 0.21449,0 0.29562,0.07691 0.29562,0.209902 0,0.172155 -0.11394,0.228247 -0.29774,0.228247 h -0.34713"
       style="fill:#231f20;fill-opacity:1;fill-rule:nonzero;stroke:none;stroke-width:0.0352777"
       id="path134" />
    <path
       d="m -191.98601,32.792546 c 0,0.657223 0.54045,1.197324 1.19732,1.197324 0.65617,0 1.19627,-0.540101 1.19627,-1.197324 0,-0.656518 -0.5401,-1.19662 -1.19627,-1.19662 -0.65687,0 -1.19732,0.540102 -1.19732,1.19662 m 1.80481,-0.251178 c -0.0282,-0.237419 -0.21908,-0.463196 -0.58455,-0.463196 -0.41416,0 -0.66393,0.302683 -0.66393,0.738362 0,0.546452 0.31679,0.756354 0.64099,0.756354 0.10619,0 0.54222,-0.02293 0.6216,-0.558799 h -0.18697 c -0.0653,0.330552 -0.28117,0.388408 -0.40499,0.388408 -0.35384,0 -0.47202,-0.255411 -0.47202,-0.590902 0,-0.374649 0.20885,-0.563031 0.46532,-0.563031 0.13723,0 0.34501,0.04374 0.39757,0.292804 z m -0.60749,-0.833611 c 0.59761,0 1.08479,0.486832 1.08479,1.084789 0,0.596192 -0.48895,1.085494 -1.08479,1.085494 -0.59654,0 -1.08584,-0.489302 -1.08584,-1.085494 0,-0.597957 0.48683,-1.084789 1.08584,-1.084789"
       style="fill:#231f20;fill-opacity:1;fill-rule:nonzero;stroke:none;stroke-width:0.0352777"
       id="path136" />
    <path
       d="m -169.18604,32.792546 c 0,0.657223 0.53975,1.197324 1.19662,1.197324 0.65687,0 1.19662,-0.540101 1.19662,-1.197324 0,-0.656518 -0.53975,-1.19662 -1.19662,-1.19662 -0.65687,0 -1.19662,0.540102 -1.19662,1.19662 m 1.19662,-1.091492 c 0.59866,0 1.08514,0.493535 1.08514,1.091492 0,0.596192 -0.4893,1.085494 -1.08514,1.085494 -0.59584,0 -1.08514,-0.489302 -1.08514,-1.085494 0,-0.597957 0.48683,-1.091492 1.08514,-1.091492 m -0.48401,1.843965 h 0.56797 c 0.46567,0 0.60572,-0.412044 0.60572,-0.730954 0,-0.41028 -0.2286,-0.689679 -0.59902,-0.689679 h -0.57467 z m 0.19085,-1.25765 h 0.35842 c 0.26071,0 0.42616,0.18168 0.42616,0.538338 0,0.358774 -0.16298,0.553859 -0.4124,0.553859 h -0.37218"
       style="fill:#231f20;fill-opacity:1;fill-rule:nonzero;stroke:none;stroke-width:0.0352777"
       id="path138" />
    <path
       d="m -173.56929,27.746778 c 0,-3.197218 -2.5908,-5.790128 -5.78378,-5.790128 -3.19792,0 -5.79507,2.59291 -5.79507,5.790128 0,3.19898 2.59715,5.791185 5.79507,5.791185 3.19298,0 5.78378,-2.592205 5.78378,-5.791185 z"
       style="fill:none;stroke:#9c9a9b;stroke-width:0.141111;stroke-linecap:round;stroke-linejoin:round;stroke-miterlimit:10;stroke-dasharray:none;stroke-opacity:1"
       id="path140" />
    <path
       d="m -181.03229,32.042189 h 0.30163 c 0.19685,0 0.38452,-0.115005 0.38452,-0.440618 0,-0.29598 -0.11042,-0.484716 -0.4445,-0.484716 h -0.24165 z m -0.33796,-1.196619 h 0.66463 c 0.39794,0 0.6978,0.239888 0.6978,0.726367 0,0.424744 -0.22896,0.741537 -0.6978,0.741537 h -0.66463"
       style="fill:#7b7979;fill-opacity:1;fill-rule:nonzero;stroke:none;stroke-width:0.0352777"
       id="path142" />
    <path
       d="m -179.54075,31.82629 c 0,0.195085 0.15946,0.271285 0.34079,0.271285 0.11818,0 0.2988,-0.03316 0.2988,-0.182738 0,-0.160514 -0.23283,-0.182739 -0.45579,-0.243064 -0.2293,-0.05362 -0.46002,-0.145697 -0.46002,-0.417688 0,-0.301624 0.29774,-0.443793 0.57573,-0.443793 0.32138,0 0.61665,0.132997 0.61665,0.472721 h -0.32737 c -0.0116,-0.174272 -0.14041,-0.221544 -0.30515,-0.221544 -0.1069,0 -0.23213,0.04304 -0.23213,0.166158 0,0.113594 0.0734,0.129822 0.45861,0.222602 0.11465,0.0247 0.4579,0.09596 0.4579,0.427566 0,0.269522 -0.22084,0.470957 -0.64064,0.470957 -0.34078,0 -0.66146,-0.160161 -0.65581,-0.522462"
       style="fill:#7b7979;fill-opacity:1;fill-rule:nonzero;stroke:none;stroke-width:0.0352777"
       id="path144" />
    <path
       d="m -178.03016,31.116855 h -0.46249 V 30.84557 h 1.26118 v 0.271285 h -0.46143 v 1.196267 h -0.33726"
       style="fill:#7b7979;fill-opacity:1;fill-rule:nonzero;stroke:none;stroke-width:0.0352777"
       id="path146" />
    <path
       d="m -175.1462,26.477486 h 0.50518 V 25.6548 h -0.50518 z"
       style="fill:#7b7979;fill-opacity:1;fill-rule:nonzero;stroke:none;stroke-width:0.0352777"
       id="path148" />
    <path
       d="m -175.70536,26.477486 h 0.5056 V 25.6548 h -0.5056 z"
       style="fill:#7b7979;fill-opacity:1;fill-rule:nonzero;stroke:none;stroke-width:0.0352777"
       id="path150" />
    <path
       d="m -176.26415,26.477486 h 0.50518 V 25.6548 h -0.50518 z"
       style="fill:#7b7979;fill-opacity:1;fill-rule:nonzero;stroke:none;stroke-width:0.0352777"
       id="path152" />
    <path
       d="m -177.38246,26.477486 h 0.50519 V 25.6548 h -0.50519 z"
       style="fill:#7b7979;fill-opacity:1;fill-rule:nonzero;stroke:none;stroke-width:0.0352777"
       id="path154" />
    <path
       d="m -177.94231,26.477486 h 0.50518 V 25.6548 h -0.50518 z"
       style="fill:#7b7979;fill-opacity:1;fill-rule:nonzero;stroke:none;stroke-width:0.0352777"
       id="path156" />
    <path
       d="m -178.50111,26.477486 h 0.50518 V 25.6548 h -0.50518 z"
       style="fill:#7b7979;fill-opacity:1;fill-rule:nonzero;stroke:none;stroke-width:0.0352777"
       id="path158" />
    <path
       d="m -179.62012,26.477486 h 0.50629 V 25.6548 h -0.50629 z"
       style="fill:#7b7979;fill-opacity:1;fill-rule:nonzero;stroke:none;stroke-width:0.0352777"
       id="path160" />
    <path
       d="m -180.73878,26.477486 h 0.5056 V 25.6548 h -0.5056 z"
       style="fill:#7b7979;fill-opacity:1;fill-rule:nonzero;stroke:none;stroke-width:0.0352777"
       id="path162" />
    <path
       d="m -182.41623,26.477486 h 0.50491 V 25.6548 h -0.50491 z"
       style="fill:#7b7979;fill-opacity:1;fill-rule:nonzero;stroke:none;stroke-width:0.0352777"
       id="path164" />
    <path
       d="m -182.97538,26.477486 h 0.50546 V 25.6548 h -0.50546 z"
       style="fill:#7b7979;fill-opacity:1;fill-rule:nonzero;stroke:none;stroke-width:0.0352777"
       id="path166" />
    <path
       d="m -183.53841,26.477486 h 0.50697 V 25.6548 h -0.50697 z"
       style="fill:#7b7979;fill-opacity:1;fill-rule:nonzero;stroke:none;stroke-width:0.0352777"
       id="path168" />
    <path
       d="m -175.1462,27.354842 h 0.50518 v -0.822686 h -0.50518 z"
       style="fill:#7b7979;fill-opacity:1;fill-rule:nonzero;stroke:none;stroke-width:0.0352777"
       id="path170" />
    <path
       d="m -176.26415,27.354842 h 0.50518 v -0.822686 h -0.50518 z"
       style="fill:#7b7979;fill-opacity:1;fill-rule:nonzero;stroke:none;stroke-width:0.0352777"
       id="path172" />
    <path
       d="m -177.94231,27.354842 h 0.50518 v -0.822686 h -0.50518 z"
       style="fill:#7b7979;fill-opacity:1;fill-rule:nonzero;stroke:none;stroke-width:0.0352777"
       id="path174" />
    <path
       d="m -179.62012,27.354842 h 0.50629 v -0.822686 h -0.50629 z"
       style="fill:#7b7979;fill-opacity:1;fill-rule:nonzero;stroke:none;stroke-width:0.0352777"
       id="path176" />
    <path
       d="m -180.73878,27.354842 h 0.5056 v -0.822686 h -0.5056 z"
       style="fill:#7b7979;fill-opacity:1;fill-rule:nonzero;stroke:none;stroke-width:0.0352777"
       id="path178" />
    <path
       d="m -181.85637,27.354842 h 0.50518 v -0.822686 h -0.50518 z"
       style="fill:#7b7979;fill-opacity:1;fill-rule:nonzero;stroke:none;stroke-width:0.0352777"
       id="path180" />
    <path
       d="m -184.09721,27.354842 h 0.50518 v -0.822686 h -0.50518 z"
       style="fill:#7b7979;fill-opacity:1;fill-rule:nonzero;stroke:none;stroke-width:0.0352777"
       id="path182" />
    <path
       d="m -175.1462,28.230435 h 0.50518 v -0.821999 h -0.50518 z"
       style="fill:#7b7979;fill-opacity:1;fill-rule:nonzero;stroke:none;stroke-width:0.0352777"
       id="path184" />
    <path
       d="m -176.26415,28.230435 h 0.50518 v -0.821999 h -0.50518 z"
       style="fill:#7b7979;fill-opacity:1;fill-rule:nonzero;stroke:none;stroke-width:0.0352777"
       id="path186" />
    <path
       d="m -177.94231,28.230435 h 0.50518 v -0.821999 h -0.50518 z"
       style="fill:#7b7979;fill-opacity:1;fill-rule:nonzero;stroke:none;stroke-width:0.0352777"
       id="path188" />
    <path
       d="m -179.62012,28.230435 h 0.50629 v -0.821999 h -0.50629 z"
       style="fill:#7b7979;fill-opacity:1;fill-rule:nonzero;stroke:none;stroke-width:0.0352777"
       id="path190" />
    <path
       d="m -180.73878,28.230435 h 0.5056 v -0.821999 h -0.5056 z"
       style="fill:#7b7979;fill-opacity:1;fill-rule:nonzero;stroke:none;stroke-width:0.0352777"
       id="path192" />
    <path
       d="m -181.85637,28.230435 h 0.50518 v -0.821999 h -0.50518 z"
       style="fill:#7b7979;fill-opacity:1;fill-rule:nonzero;stroke:none;stroke-width:0.0352777"
       id="path194" />
    <path
       d="m -182.41623,28.230435 h 0.50491 v -0.821999 h -0.50491 z"
       style="fill:#7b7979;fill-opacity:1;fill-rule:nonzero;stroke:none;stroke-width:0.0352777"
       id="path196" />
    <path
       d="m -182.97538,28.230435 h 0.50546 v -0.821999 h -0.50546 z"
       style="fill:#7b7979;fill-opacity:1;fill-rule:nonzero;stroke:none;stroke-width:0.0352777"
       id="path198" />
    <path
       d="m -183.53841,28.230435 h 0.50697 v -0.821999 h -0.50697 z"
       style="fill:#7b7979;fill-opacity:1;fill-rule:nonzero;stroke:none;stroke-width:0.0352777"
       id="path200" />
    <path
       d="m -184.09721,28.230435 h 0.50518 v -0.821999 h -0.50518 z"
       style="fill:#7b7979;fill-opacity:1;fill-rule:nonzero;stroke:none;stroke-width:0.0352777"
       id="path202" />
    <path
       d="m -175.1462,29.107791 h 0.50518 v -0.822549 h -0.50518 z"
       style="fill:#7b7979;fill-opacity:1;fill-rule:nonzero;stroke:none;stroke-width:0.0352777"
       id="path204" />
    <path
       d="m -176.26415,29.107791 h 0.50518 v -0.822549 h -0.50518 z"
       style="fill:#7b7979;fill-opacity:1;fill-rule:nonzero;stroke:none;stroke-width:0.0352777"
       id="path206" />
    <path
       d="m -177.94231,29.107791 h 0.50518 v -0.822549 h -0.50518 z"
       style="fill:#7b7979;fill-opacity:1;fill-rule:nonzero;stroke:none;stroke-width:0.0352777"
       id="path208" />
    <path
       d="m -179.62012,29.107791 h 0.50629 v -0.822549 h -0.50629 z"
       style="fill:#7b7979;fill-opacity:1;fill-rule:nonzero;stroke:none;stroke-width:0.0352777"
       id="path210" />
    <path
       d="m -180.73878,29.107791 h 0.5056 v -0.822549 h -0.5056 z"
       style="fill:#7b7979;fill-opacity:1;fill-rule:nonzero;stroke:none;stroke-width:0.0352777"
       id="path212" />
    <path
       d="m -181.85637,29.107791 h 0.50518 v -0.822549 h -0.50518 z"
       style="fill:#7b7979;fill-opacity:1;fill-rule:nonzero;stroke:none;stroke-width:0.0352777"
       id="path214" />
    <path
       d="m -184.09721,29.107791 h 0.50518 v -0.822549 h -0.50518 z"
       style="fill:#7b7979;fill-opacity:1;fill-rule:nonzero;stroke:none;stroke-width:0.0352777"
       id="path216" />
    <path
       d="m -175.1462,29.984089 h 0.50518 V 29.16209 h -0.50518 z"
       style="fill:#7b7979;fill-opacity:1;fill-rule:nonzero;stroke:none;stroke-width:0.0352777"
       id="path218" />
    <path
       d="m -175.70536,29.984089 h 0.5056 V 29.16209 h -0.5056 z"
       style="fill:#7b7979;fill-opacity:1;fill-rule:nonzero;stroke:none;stroke-width:0.0352777"
       id="path220" />
    <path
       d="m -176.26415,29.984089 h 0.50518 V 29.16209 h -0.50518 z"
       style="fill:#7b7979;fill-opacity:1;fill-rule:nonzero;stroke:none;stroke-width:0.0352777"
       id="path222" />
    <path
       d="m -177.94231,29.984089 h 0.50518 V 29.16209 h -0.50518 z"
       style="fill:#7b7979;fill-opacity:1;fill-rule:nonzero;stroke:none;stroke-width:0.0352777"
       id="path224" />
    <path
       d="m -179.62012,29.984089 h 0.50629 V 29.16209 h -0.50629 z"
       style="fill:#7b7979;fill-opacity:1;fill-rule:nonzero;stroke:none;stroke-width:0.0352777"
       id="path226" />
    <path
       d="m -180.17892,29.984089 h 0.50519 V 29.16209 h -0.50519 z"
       style="fill:#7b7979;fill-opacity:1;fill-rule:nonzero;stroke:none;stroke-width:0.0352777"
       id="path228" />
    <path
       d="m -180.73878,29.984089 h 0.5056 V 29.16209 h -0.5056 z"
       style="fill:#7b7979;fill-opacity:1;fill-rule:nonzero;stroke:none;stroke-width:0.0352777"
       id="path230" />
    <path
       d="m -181.85637,29.984089 h 0.50518 V 29.16209 h -0.50518 z"
       style="fill:#7b7979;fill-opacity:1;fill-rule:nonzero;stroke:none;stroke-width:0.0352777"
       id="path232" />
    <path
       d="m -184.09721,29.984089 h 0.50518 V 29.16209 h -0.50518 z"
       style="fill:#7b7979;fill-opacity:1;fill-rule:nonzero;stroke:none;stroke-width:0.0352777"
       id="path234" />
    <path
       d="m -172.70781,28.572981 c 0,2.741782 -2.9912,4.964982 -6.6816,4.964982 -3.69039,0 -6.68194,-2.2232 -6.68194,-4.964982 0,-2.741782 2.99155,-4.965335 6.68194,-4.965335 3.6904,0 6.6816,2.223553 6.6816,4.965335 z"
       style="fill:none;stroke:#ffffff;stroke-width:1.5875;stroke-linecap:butt;stroke-linejoin:miter;stroke-miterlimit:4;stroke-dasharray:0.423332, 0.772581;stroke-dashoffset:0;stroke-opacity:1"
       id="path236" />
    <path
       d="m -172.70781,28.572981 c 0,2.741782 -2.9912,4.964982 -6.6816,4.964982 -3.69039,0 -6.68194,-2.2232 -6.68194,-4.964982 0,-2.741782 2.99155,-4.965335 6.68194,-4.965335 3.6904,0 6.6816,2.223553 6.6816,4.965335 z"
       style="fill:none;stroke:#231f20;stroke-width:1.41111;stroke-linecap:butt;stroke-linejoin:miter;stroke-miterlimit:4;stroke-dasharray:0.176388, 1.02305;stroke-dashoffset:0;stroke-opacity:1"
       id="path238" />
  </g>
</svg>
