<?xml version="1.0" encoding="UTF-8" standalone="no"?>
<!-- Created with Inkscape (http://www.inkscape.org/) -->

<svg
   width="45.790123mm"
   height="13.925445mm"
   viewBox="0 0 45.790123 13.925445"
   version="1.1"
   id="svg1329"
   inkscape:version="1.2.2 (b0a8486541, 2022-12-01)"
   sodipodi:docname="batons_bottom.svg"
   xmlns:inkscape="http://www.inkscape.org/namespaces/inkscape"
   xmlns:sodipodi="http://sodipodi.sourceforge.net/DTD/sodipodi-0.dtd"
   xmlns="http://www.w3.org/2000/svg"
   xmlns:svg="http://www.w3.org/2000/svg">
  <sodipodi:namedview
     id="namedview1331"
     pagecolor="#ffffff"
     bordercolor="#666666"
     borderopacity="1.0"
     inkscape:showpageshadow="2"
     inkscape:pageopacity="0.0"
     inkscape:pagecheckerboard="0"
     inkscape:deskcolor="#d1d1d1"
     inkscape:document-units="mm"
     showgrid="false"
     inkscape:zoom="0.44542649"
     inkscape:cx="1127.0098"
     inkscape:cy="453.49795"
     inkscape:window-width="1366"
     inkscape:window-height="685"
     inkscape:window-x="0"
     inkscape:window-y="27"
     inkscape:window-maximized="1"
     inkscape:current-layer="layer1" />
  <defs
     id="defs1326">
    <clipPath
       clipPathUnits="userSpaceOnUse"
       id="clipPath862">
      <path
         d="m 484.859,1238.89 h 277.52 v 277.578 h -277.52 z"
         id="path860" />
    </clipPath>
    <clipPath
       clipPathUnits="userSpaceOnUse"
       id="clipPath894">
      <path
         d="m 825.02,1238.89 h 277.52 v 277.578 H 825.02 Z"
         id="path892" />
    </clipPath>
    <clipPath
       clipPathUnits="userSpaceOnUse"
       id="clipPath944">
      <path
         d="m 1165.18,1238.89 h 277.52 v 277.578 h -277.52 z"
         id="path942" />
    </clipPath>
    <clipPath
       clipPathUnits="userSpaceOnUse"
       id="clipPath1018">
      <path
         d="m 1505.33,1238.89 h 277.523 v 277.578 H 1505.33 Z"
         id="path1016" />
    </clipPath>
  </defs>
  <g
     inkscape:label="Layer 1"
     inkscape:groupmode="layer"
     id="layer1"
     transform="translate(192.77906,-28.677277)">
    <path
       d="m 760.379,1377.69 c 0,75.53 -61.188,136.78 -136.617,136.78 -75.551,0 -136.903,-61.25 -136.903,-136.78 0,-75.57 61.352,-136.8 136.903,-136.8 75.429,0 136.617,61.23 136.617,136.8 z"
       style="fill:none;stroke:#9c9a9b;stroke-width:4;stroke-linecap:round;stroke-linejoin:round;stroke-miterlimit:10;stroke-dasharray:none;stroke-opacity:1"
       id="path864"
       clip-path="url(#clipPath862)"
       transform="matrix(0.03527769,0,0,-0.03527769,-209.88377,82.174765)" />
    <path
       d="m -189.96525,32.515419 h 0.42086 v -0.685435 h -0.42086 z"
       style="fill:#231f20;fill-opacity:1;fill-rule:nonzero;stroke:none;stroke-width:0.0352777"
       id="path866" />
    <path
       d="m -190.43197,32.515419 h 0.42085 v -0.685435 h -0.42085 z"
       style="fill:#231f20;fill-opacity:1;fill-rule:nonzero;stroke:none;stroke-width:0.0352777"
       id="path868" />
    <path
       d="m -190.89763,32.515419 h 0.42085 v -0.685435 h -0.42085 z"
       style="fill:#231f20;fill-opacity:1;fill-rule:nonzero;stroke:none;stroke-width:0.0352777"
       id="path870" />
    <path
       d="m -191.36683,32.515419 h 0.42223 v -0.685435 h -0.42223 z"
       style="fill:#231f20;fill-opacity:1;fill-rule:nonzero;stroke:none;stroke-width:0.0352777"
       id="path872" />
    <path
       d="m -191.83249,32.515419 h 0.42085 v -0.685435 h -0.42085 z"
       style="fill:#231f20;fill-opacity:1;fill-rule:nonzero;stroke:none;stroke-width:0.0352777"
       id="path874" />
    <path
       d="m -190.43197,33.246373 h 0.42085 v -0.685435 h -0.42085 z"
       style="fill:#231f20;fill-opacity:1;fill-rule:nonzero;stroke:none;stroke-width:0.0352777"
       id="path876" />
    <path
       d="m -190.89763,33.246373 h 0.42085 v -0.685435 h -0.42085 z"
       style="fill:#231f20;fill-opacity:1;fill-rule:nonzero;stroke:none;stroke-width:0.0352777"
       id="path878" />
    <path
       d="m -191.36683,33.246373 h 0.42223 v -0.685435 h -0.42223 z"
       style="fill:#231f20;fill-opacity:1;fill-rule:nonzero;stroke:none;stroke-width:0.0352777"
       id="path880" />
    <path
       d="m -190.89763,33.976268 h 0.42085 v -0.684747 h -0.42085 z"
       style="fill:#231f20;fill-opacity:1;fill-rule:nonzero;stroke:none;stroke-width:0.0352777"
       id="path882" />
    <path
       d="m -190.89763,34.707222 h 0.42085 v -0.685435 h -0.42085 z"
       style="fill:#231f20;fill-opacity:1;fill-rule:nonzero;stroke:none;stroke-width:0.0352777"
       id="path884" />
    <path
       d="m -190.89763,35.43747 h 0.42085 v -0.684747 h -0.42085 z"
       style="fill:#231f20;fill-opacity:1;fill-rule:nonzero;stroke:none;stroke-width:0.0352777"
       id="path886" />
    <path
       d="m 1100.54,1377.69 c 0,75.53 -61.19,136.78 -136.618,136.78 -75.551,0 -136.902,-61.25 -136.902,-136.78 0,-75.57 61.351,-136.8 136.902,-136.8 75.428,0 136.618,61.23 136.618,136.8 z"
       style="fill:none;stroke:#9c9a9b;stroke-width:4;stroke-linecap:round;stroke-linejoin:round;stroke-miterlimit:10;stroke-dasharray:none;stroke-opacity:1"
       id="path896"
       clip-path="url(#clipPath894)"
       transform="matrix(0.03527769,0,0,-0.03527769,-209.88377,82.174765)" />
    <path
       d="m -177.96519,32.515419 h 0.42086 v -0.685435 h -0.42086 z"
       style="fill:#231f20;fill-opacity:1;fill-rule:nonzero;stroke:none;stroke-width:0.0352777"
       id="path898" />
    <path
       d="m -178.43191,32.515419 h 0.42085 v -0.685435 h -0.42085 z"
       style="fill:#231f20;fill-opacity:1;fill-rule:nonzero;stroke:none;stroke-width:0.0352777"
       id="path900" />
    <path
       d="m -178.89754,32.515419 h 0.42085 v -0.685435 h -0.42085 z"
       style="fill:#231f20;fill-opacity:1;fill-rule:nonzero;stroke:none;stroke-width:0.0352777"
       id="path902" />
    <path
       d="m -179.36677,32.515419 h 0.42223 v -0.685435 h -0.42223 z"
       style="fill:#231f20;fill-opacity:1;fill-rule:nonzero;stroke:none;stroke-width:0.0352777"
       id="path904" />
    <path
       d="m -179.8324,32.515419 h 0.42085 v -0.685435 h -0.42085 z"
       style="fill:#231f20;fill-opacity:1;fill-rule:nonzero;stroke:none;stroke-width:0.0352777"
       id="path906" />
    <path
       d="m -178.43191,33.246373 h 0.42085 v -0.685435 h -0.42085 z"
       style="fill:#231f20;fill-opacity:1;fill-rule:nonzero;stroke:none;stroke-width:0.0352777"
       id="path908" />
    <path
       d="m -178.89754,33.246373 h 0.42085 v -0.685435 h -0.42085 z"
       style="fill:#231f20;fill-opacity:1;fill-rule:nonzero;stroke:none;stroke-width:0.0352777"
       id="path910" />
    <path
       d="m -179.36677,33.246373 h 0.42223 v -0.685435 h -0.42223 z"
       style="fill:#231f20;fill-opacity:1;fill-rule:nonzero;stroke:none;stroke-width:0.0352777"
       id="path912" />
    <path
       d="m -176.10154,33.976268 h 0.42154 v -0.684747 h -0.42154 z"
       style="fill:#231f20;fill-opacity:1;fill-rule:nonzero;stroke:none;stroke-width:0.0352777"
       id="path914" />
    <path
       d="m -176.56717,33.976268 h 0.42086 v -0.684747 h -0.42086 z"
       style="fill:#231f20;fill-opacity:1;fill-rule:nonzero;stroke:none;stroke-width:0.0352777"
       id="path916" />
    <path
       d="m -177.03389,33.976268 h 0.42085 v -0.684747 h -0.42085 z"
       style="fill:#231f20;fill-opacity:1;fill-rule:nonzero;stroke:none;stroke-width:0.0352777"
       id="path918" />
    <path
       d="m -178.89754,33.976268 h 0.42085 v -0.684747 h -0.42085 z"
       style="fill:#231f20;fill-opacity:1;fill-rule:nonzero;stroke:none;stroke-width:0.0352777"
       id="path920" />
    <path
       d="m -176.10154,34.707222 h 0.42154 v -0.685435 h -0.42154 z"
       style="fill:#231f20;fill-opacity:1;fill-rule:nonzero;stroke:none;stroke-width:0.0352777"
       id="path922" />
    <path
       d="m -176.56717,34.707222 h 0.42086 v -0.685435 h -0.42086 z"
       style="fill:#231f20;fill-opacity:1;fill-rule:nonzero;stroke:none;stroke-width:0.0352777"
       id="path924" />
    <path
       d="m -177.03389,34.707222 h 0.42085 v -0.685435 h -0.42085 z"
       style="fill:#231f20;fill-opacity:1;fill-rule:nonzero;stroke:none;stroke-width:0.0352777"
       id="path926" />
    <path
       d="m -178.89754,34.707222 h 0.42085 v -0.685435 h -0.42085 z"
       style="fill:#231f20;fill-opacity:1;fill-rule:nonzero;stroke:none;stroke-width:0.0352777"
       id="path928" />
    <path
       d="m -176.10154,35.43747 h 0.42154 v -0.684747 h -0.42154 z"
       style="fill:#231f20;fill-opacity:1;fill-rule:nonzero;stroke:none;stroke-width:0.0352777"
       id="path930" />
    <path
       d="m -176.56717,35.43747 h 0.42086 v -0.684747 h -0.42086 z"
       style="fill:#231f20;fill-opacity:1;fill-rule:nonzero;stroke:none;stroke-width:0.0352777"
       id="path932" />
    <path
       d="m -177.03389,35.43747 h 0.42085 v -0.684747 h -0.42085 z"
       style="fill:#231f20;fill-opacity:1;fill-rule:nonzero;stroke:none;stroke-width:0.0352777"
       id="path934" />
    <path
       d="m -178.89754,35.43747 h 0.42085 v -0.684747 h -0.42085 z"
       style="fill:#231f20;fill-opacity:1;fill-rule:nonzero;stroke:none;stroke-width:0.0352777"
       id="path936" />
    <path
       d="m 1440.7,1377.69 c 0,75.53 -61.19,136.78 -136.62,136.78 -75.55,0 -136.9,-61.25 -136.9,-136.78 0,-75.57 61.35,-136.8 136.9,-136.8 75.43,0 136.62,61.23 136.62,136.8 z"
       style="fill:none;stroke:#9c9a9b;stroke-width:4;stroke-linecap:round;stroke-linejoin:round;stroke-miterlimit:10;stroke-dasharray:none;stroke-opacity:1"
       id="path946"
       clip-path="url(#clipPath944)"
       transform="matrix(0.03527769,0,0,-0.03527769,-209.88377,82.174765)" />
    <path
       d="m -165.96516,32.515419 h 0.42085 v -0.685435 h -0.42085 z"
       style="fill:#231f20;fill-opacity:1;fill-rule:nonzero;stroke:none;stroke-width:0.0352777"
       id="path948" />
    <path
       d="m -166.43189,32.515419 h 0.42086 v -0.685435 h -0.42086 z"
       style="fill:#231f20;fill-opacity:1;fill-rule:nonzero;stroke:none;stroke-width:0.0352777"
       id="path950" />
    <path
       d="m -166.89755,32.515419 h 0.42085 v -0.685435 h -0.42085 z"
       style="fill:#231f20;fill-opacity:1;fill-rule:nonzero;stroke:none;stroke-width:0.0352777"
       id="path952" />
    <path
       d="m -167.36675,32.515419 h 0.42224 v -0.685435 h -0.42224 z"
       style="fill:#231f20;fill-opacity:1;fill-rule:nonzero;stroke:none;stroke-width:0.0352777"
       id="path954" />
    <path
       d="m -167.83241,32.515419 h 0.42085 v -0.685435 h -0.42085 z"
       style="fill:#231f20;fill-opacity:1;fill-rule:nonzero;stroke:none;stroke-width:0.0352777"
       id="path956" />
    <path
       d="m -162.23702,33.246373 h 0.42086 v -0.685435 h -0.42086 z"
       style="fill:#231f20;fill-opacity:1;fill-rule:nonzero;stroke:none;stroke-width:0.0352777"
       id="path958" />
    <path
       d="m -162.70339,33.246373 h 0.42085 v -0.685435 h -0.42085 z"
       style="fill:#231f20;fill-opacity:1;fill-rule:nonzero;stroke:none;stroke-width:0.0352777"
       id="path960" />
    <path
       d="m -163.16941,33.246373 h 0.42086 v -0.685435 h -0.42086 z"
       style="fill:#231f20;fill-opacity:1;fill-rule:nonzero;stroke:none;stroke-width:0.0352777"
       id="path962" />
    <path
       d="m -166.43189,33.246373 h 0.42086 v -0.685435 h -0.42086 z"
       style="fill:#231f20;fill-opacity:1;fill-rule:nonzero;stroke:none;stroke-width:0.0352777"
       id="path964" />
    <path
       d="m -166.89755,33.246373 h 0.42085 v -0.685435 h -0.42085 z"
       style="fill:#231f20;fill-opacity:1;fill-rule:nonzero;stroke:none;stroke-width:0.0352777"
       id="path966" />
    <path
       d="m -167.36675,33.246373 h 0.42224 v -0.685435 h -0.42224 z"
       style="fill:#231f20;fill-opacity:1;fill-rule:nonzero;stroke:none;stroke-width:0.0352777"
       id="path968" />
    <path
       d="m -162.23702,33.976268 h 0.42086 v -0.684747 h -0.42086 z"
       style="fill:#231f20;fill-opacity:1;fill-rule:nonzero;stroke:none;stroke-width:0.0352777"
       id="path970" />
    <path
       d="m -162.70339,33.976268 h 0.42085 v -0.684747 h -0.42085 z"
       style="fill:#231f20;fill-opacity:1;fill-rule:nonzero;stroke:none;stroke-width:0.0352777"
       id="path972" />
    <path
       d="m -163.16941,33.976268 h 0.42086 v -0.684747 h -0.42086 z"
       style="fill:#231f20;fill-opacity:1;fill-rule:nonzero;stroke:none;stroke-width:0.0352777"
       id="path974" />
    <path
       d="m -164.10144,33.976268 h 0.42154 v -0.684747 h -0.42154 z"
       style="fill:#231f20;fill-opacity:1;fill-rule:nonzero;stroke:none;stroke-width:0.0352777"
       id="path976" />
    <path
       d="m -164.56711,33.976268 h 0.42085 v -0.684747 h -0.42085 z"
       style="fill:#231f20;fill-opacity:1;fill-rule:nonzero;stroke:none;stroke-width:0.0352777"
       id="path978" />
    <path
       d="m -165.03383,33.976268 h 0.42085 v -0.684747 h -0.42085 z"
       style="fill:#231f20;fill-opacity:1;fill-rule:nonzero;stroke:none;stroke-width:0.0352777"
       id="path980" />
    <path
       d="m -166.89755,33.976268 h 0.42085 v -0.684747 h -0.42085 z"
       style="fill:#231f20;fill-opacity:1;fill-rule:nonzero;stroke:none;stroke-width:0.0352777"
       id="path982" />
    <path
       d="m -162.23702,34.707222 h 0.42086 v -0.685435 h -0.42086 z"
       style="fill:#231f20;fill-opacity:1;fill-rule:nonzero;stroke:none;stroke-width:0.0352777"
       id="path984" />
    <path
       d="m -162.70339,34.707222 h 0.42085 v -0.685435 h -0.42085 z"
       style="fill:#231f20;fill-opacity:1;fill-rule:nonzero;stroke:none;stroke-width:0.0352777"
       id="path986" />
    <path
       d="m -163.16941,34.707222 h 0.42086 v -0.685435 h -0.42086 z"
       style="fill:#231f20;fill-opacity:1;fill-rule:nonzero;stroke:none;stroke-width:0.0352777"
       id="path988" />
    <path
       d="m -164.10144,34.707222 h 0.42154 v -0.685435 h -0.42154 z"
       style="fill:#231f20;fill-opacity:1;fill-rule:nonzero;stroke:none;stroke-width:0.0352777"
       id="path990" />
    <path
       d="m -164.56711,34.707222 h 0.42085 v -0.685435 h -0.42085 z"
       style="fill:#231f20;fill-opacity:1;fill-rule:nonzero;stroke:none;stroke-width:0.0352777"
       id="path992" />
    <path
       d="m -165.03383,34.707222 h 0.42085 v -0.685435 h -0.42085 z"
       style="fill:#231f20;fill-opacity:1;fill-rule:nonzero;stroke:none;stroke-width:0.0352777"
       id="path994" />
    <path
       d="m -166.89755,34.707222 h 0.42085 v -0.685435 h -0.42085 z"
       style="fill:#231f20;fill-opacity:1;fill-rule:nonzero;stroke:none;stroke-width:0.0352777"
       id="path996" />
    <path
       d="m -162.23702,35.43747 h 0.42086 v -0.684747 h -0.42086 z"
       style="fill:#231f20;fill-opacity:1;fill-rule:nonzero;stroke:none;stroke-width:0.0352777"
       id="path998" />
    <path
       d="m -162.70339,35.43747 h 0.42085 v -0.684747 h -0.42085 z"
       style="fill:#231f20;fill-opacity:1;fill-rule:nonzero;stroke:none;stroke-width:0.0352777"
       id="path1000" />
    <path
       d="m -163.16941,35.43747 h 0.42086 v -0.684747 h -0.42086 z"
       style="fill:#231f20;fill-opacity:1;fill-rule:nonzero;stroke:none;stroke-width:0.0352777"
       id="path1002" />
    <path
       d="m -164.10144,35.43747 h 0.42154 v -0.684747 h -0.42154 z"
       style="fill:#231f20;fill-opacity:1;fill-rule:nonzero;stroke:none;stroke-width:0.0352777"
       id="path1004" />
    <path
       d="m -164.56711,35.43747 h 0.42085 v -0.684747 h -0.42085 z"
       style="fill:#231f20;fill-opacity:1;fill-rule:nonzero;stroke:none;stroke-width:0.0352777"
       id="path1006" />
    <path
       d="m -165.03383,35.43747 h 0.42085 v -0.684747 h -0.42085 z"
       style="fill:#231f20;fill-opacity:1;fill-rule:nonzero;stroke:none;stroke-width:0.0352777"
       id="path1008" />
    <path
       d="m -166.89755,35.43747 h 0.42085 v -0.684747 h -0.42085 z"
       style="fill:#231f20;fill-opacity:1;fill-rule:nonzero;stroke:none;stroke-width:0.0352777"
       id="path1010" />
    <path
       d="m 1780.85,1377.69 c 0,75.53 -61.19,136.78 -136.62,136.78 -75.55,0 -136.9,-61.25 -136.9,-136.78 0,-75.57 61.35,-136.8 136.9,-136.8 75.43,0 136.62,61.23 136.62,136.8 z"
       style="fill:none;stroke:#9c9a9b;stroke-width:4;stroke-linecap:round;stroke-linejoin:round;stroke-miterlimit:10;stroke-dasharray:none;stroke-opacity:1"
       id="path1020"
       clip-path="url(#clipPath1018)"
       transform="matrix(0.03527769,0,0,-0.03527769,-209.88377,82.174765)" />
    <path
       d="m -148.37359,32.515419 h 0.42085 v -0.685435 h -0.42085 z"
       style="fill:#231f20;fill-opacity:1;fill-rule:nonzero;stroke:none;stroke-width:0.0352777"
       id="path1022" />
    <path
       d="m -148.83926,32.515419 h 0.42086 v -0.685435 h -0.42086 z"
       style="fill:#231f20;fill-opacity:1;fill-rule:nonzero;stroke:none;stroke-width:0.0352777"
       id="path1024" />
    <path
       d="m -149.30492,32.515419 h 0.42085 v -0.685435 h -0.42085 z"
       style="fill:#231f20;fill-opacity:1;fill-rule:nonzero;stroke:none;stroke-width:0.0352777"
       id="path1026" />
    <path
       d="m -153.96546,32.515419 h 0.42086 v -0.685435 h -0.42086 z"
       style="fill:#231f20;fill-opacity:1;fill-rule:nonzero;stroke:none;stroke-width:0.0352777"
       id="path1028" />
    <path
       d="m -154.43218,32.515419 h 0.42085 v -0.685435 h -0.42085 z"
       style="fill:#231f20;fill-opacity:1;fill-rule:nonzero;stroke:none;stroke-width:0.0352777"
       id="path1030" />
    <path
       d="m -154.89785,32.515419 h 0.42086 v -0.685435 h -0.42086 z"
       style="fill:#231f20;fill-opacity:1;fill-rule:nonzero;stroke:none;stroke-width:0.0352777"
       id="path1032" />
    <path
       d="m -155.36704,32.515419 h 0.42223 v -0.685435 h -0.42223 z"
       style="fill:#231f20;fill-opacity:1;fill-rule:nonzero;stroke:none;stroke-width:0.0352777"
       id="path1034" />
    <path
       d="m -155.8327,32.515419 h 0.42085 v -0.685435 h -0.42085 z"
       style="fill:#231f20;fill-opacity:1;fill-rule:nonzero;stroke:none;stroke-width:0.0352777"
       id="path1036" />
    <path
       d="m -148.37359,33.246373 h 0.42085 v -0.685435 h -0.42085 z"
       style="fill:#231f20;fill-opacity:1;fill-rule:nonzero;stroke:none;stroke-width:0.0352777"
       id="path1038" />
    <path
       d="m -148.83926,33.246373 h 0.42086 v -0.685435 h -0.42086 z"
       style="fill:#231f20;fill-opacity:1;fill-rule:nonzero;stroke:none;stroke-width:0.0352777"
       id="path1040" />
    <path
       d="m -149.30492,33.246373 h 0.42085 v -0.685435 h -0.42085 z"
       style="fill:#231f20;fill-opacity:1;fill-rule:nonzero;stroke:none;stroke-width:0.0352777"
       id="path1042" />
    <path
       d="m -150.23731,33.246373 h 0.42085 v -0.685435 h -0.42085 z"
       style="fill:#231f20;fill-opacity:1;fill-rule:nonzero;stroke:none;stroke-width:0.0352777"
       id="path1044" />
    <path
       d="m -150.70368,33.246373 h 0.42085 v -0.685435 h -0.42085 z"
       style="fill:#231f20;fill-opacity:1;fill-rule:nonzero;stroke:none;stroke-width:0.0352777"
       id="path1046" />
    <path
       d="m -151.1697,33.246373 h 0.42085 v -0.685435 h -0.42085 z"
       style="fill:#231f20;fill-opacity:1;fill-rule:nonzero;stroke:none;stroke-width:0.0352777"
       id="path1048" />
    <path
       d="m -154.43218,33.246373 h 0.42085 v -0.685435 h -0.42085 z"
       style="fill:#231f20;fill-opacity:1;fill-rule:nonzero;stroke:none;stroke-width:0.0352777"
       id="path1050" />
    <path
       d="m -154.89785,33.246373 h 0.42086 v -0.685435 h -0.42086 z"
       style="fill:#231f20;fill-opacity:1;fill-rule:nonzero;stroke:none;stroke-width:0.0352777"
       id="path1052" />
    <path
       d="m -155.36704,33.246373 h 0.42223 v -0.685435 h -0.42223 z"
       style="fill:#231f20;fill-opacity:1;fill-rule:nonzero;stroke:none;stroke-width:0.0352777"
       id="path1054" />
    <path
       d="m -148.37359,33.976268 h 0.42085 v -0.684747 h -0.42085 z"
       style="fill:#231f20;fill-opacity:1;fill-rule:nonzero;stroke:none;stroke-width:0.0352777"
       id="path1056" />
    <path
       d="m -148.83926,33.976268 h 0.42086 v -0.684747 h -0.42086 z"
       style="fill:#231f20;fill-opacity:1;fill-rule:nonzero;stroke:none;stroke-width:0.0352777"
       id="path1058" />
    <path
       d="m -149.30492,33.976268 h 0.42085 v -0.684747 h -0.42085 z"
       style="fill:#231f20;fill-opacity:1;fill-rule:nonzero;stroke:none;stroke-width:0.0352777"
       id="path1060" />
    <path
       d="m -150.23731,33.976268 h 0.42085 v -0.684747 h -0.42085 z"
       style="fill:#231f20;fill-opacity:1;fill-rule:nonzero;stroke:none;stroke-width:0.0352777"
       id="path1062" />
    <path
       d="m -150.70368,33.976268 h 0.42085 v -0.684747 h -0.42085 z"
       style="fill:#231f20;fill-opacity:1;fill-rule:nonzero;stroke:none;stroke-width:0.0352777"
       id="path1064" />
    <path
       d="m -151.1697,33.976268 h 0.42085 v -0.684747 h -0.42085 z"
       style="fill:#231f20;fill-opacity:1;fill-rule:nonzero;stroke:none;stroke-width:0.0352777"
       id="path1066" />
    <path
       d="m -152.10174,33.976268 h 0.42154 v -0.684747 h -0.42154 z"
       style="fill:#231f20;fill-opacity:1;fill-rule:nonzero;stroke:none;stroke-width:0.0352777"
       id="path1068" />
    <path
       d="m -152.5674,33.976268 h 0.42085 v -0.684747 h -0.42085 z"
       style="fill:#231f20;fill-opacity:1;fill-rule:nonzero;stroke:none;stroke-width:0.0352777"
       id="path1070" />
    <path
       d="m -153.03413,33.976268 h 0.42099 v -0.684747 h -0.42099 z"
       style="fill:#231f20;fill-opacity:1;fill-rule:nonzero;stroke:none;stroke-width:0.0352777"
       id="path1072" />
    <path
       d="m -154.89785,33.976268 h 0.42086 v -0.684747 h -0.42086 z"
       style="fill:#231f20;fill-opacity:1;fill-rule:nonzero;stroke:none;stroke-width:0.0352777"
       id="path1074" />
    <path
       d="m -148.37359,34.707222 h 0.42085 v -0.685435 h -0.42085 z"
       style="fill:#231f20;fill-opacity:1;fill-rule:nonzero;stroke:none;stroke-width:0.0352777"
       id="path1076" />
    <path
       d="m -148.83926,34.707222 h 0.42086 v -0.685435 h -0.42086 z"
       style="fill:#231f20;fill-opacity:1;fill-rule:nonzero;stroke:none;stroke-width:0.0352777"
       id="path1078" />
    <path
       d="m -149.30492,34.707222 h 0.42085 v -0.685435 h -0.42085 z"
       style="fill:#231f20;fill-opacity:1;fill-rule:nonzero;stroke:none;stroke-width:0.0352777"
       id="path1080" />
    <path
       d="m -150.23731,34.707222 h 0.42085 v -0.685435 h -0.42085 z"
       style="fill:#231f20;fill-opacity:1;fill-rule:nonzero;stroke:none;stroke-width:0.0352777"
       id="path1082" />
    <path
       d="m -150.70368,34.707222 h 0.42085 v -0.685435 h -0.42085 z"
       style="fill:#231f20;fill-opacity:1;fill-rule:nonzero;stroke:none;stroke-width:0.0352777"
       id="path1084" />
    <path
       d="m -151.1697,34.707222 h 0.42085 v -0.685435 h -0.42085 z"
       style="fill:#231f20;fill-opacity:1;fill-rule:nonzero;stroke:none;stroke-width:0.0352777"
       id="path1086" />
    <path
       d="m -152.10174,34.707222 h 0.42154 v -0.685435 h -0.42154 z"
       style="fill:#231f20;fill-opacity:1;fill-rule:nonzero;stroke:none;stroke-width:0.0352777"
       id="path1088" />
    <path
       d="m -152.5674,34.707222 h 0.42085 v -0.685435 h -0.42085 z"
       style="fill:#231f20;fill-opacity:1;fill-rule:nonzero;stroke:none;stroke-width:0.0352777"
       id="path1090" />
    <path
       d="m -153.03413,34.707222 h 0.42099 v -0.685435 h -0.42099 z"
       style="fill:#231f20;fill-opacity:1;fill-rule:nonzero;stroke:none;stroke-width:0.0352777"
       id="path1092" />
    <path
       d="m -154.89785,34.707222 h 0.42086 v -0.685435 h -0.42086 z"
       style="fill:#231f20;fill-opacity:1;fill-rule:nonzero;stroke:none;stroke-width:0.0352777"
       id="path1094" />
    <path
       d="m -148.37359,35.43747 h 0.42085 v -0.684747 h -0.42085 z"
       style="fill:#231f20;fill-opacity:1;fill-rule:nonzero;stroke:none;stroke-width:0.0352777"
       id="path1096" />
    <path
       d="m -148.83926,35.43747 h 0.42086 v -0.684747 h -0.42086 z"
       style="fill:#231f20;fill-opacity:1;fill-rule:nonzero;stroke:none;stroke-width:0.0352777"
       id="path1098" />
    <path
       d="m -149.30492,35.43747 h 0.42085 v -0.684747 h -0.42085 z"
       style="fill:#231f20;fill-opacity:1;fill-rule:nonzero;stroke:none;stroke-width:0.0352777"
       id="path1100" />
    <path
       d="m -150.23731,35.43747 h 0.42085 v -0.684747 h -0.42085 z"
       style="fill:#231f20;fill-opacity:1;fill-rule:nonzero;stroke:none;stroke-width:0.0352777"
       id="path1102" />
    <path
       d="m -150.70368,35.43747 h 0.42085 v -0.684747 h -0.42085 z"
       style="fill:#231f20;fill-opacity:1;fill-rule:nonzero;stroke:none;stroke-width:0.0352777"
       id="path1104" />
    <path
       d="m -151.1697,35.43747 h 0.42085 v -0.684747 h -0.42085 z"
       style="fill:#231f20;fill-opacity:1;fill-rule:nonzero;stroke:none;stroke-width:0.0352777"
       id="path1106" />
    <path
       d="m -152.10174,35.43747 h 0.42154 v -0.684747 h -0.42154 z"
       style="fill:#231f20;fill-opacity:1;fill-rule:nonzero;stroke:none;stroke-width:0.0352777"
       id="path1108" />
    <path
       d="m -152.5674,35.43747 h 0.42085 v -0.684747 h -0.42085 z"
       style="fill:#231f20;fill-opacity:1;fill-rule:nonzero;stroke:none;stroke-width:0.0352777"
       id="path1110" />
    <path
       d="m -153.03413,35.43747 h 0.42099 v -0.684747 h -0.42099 z"
       style="fill:#231f20;fill-opacity:1;fill-rule:nonzero;stroke:none;stroke-width:0.0352777"
       id="path1112" />
    <path
       d="m -154.89785,35.43747 h 0.42086 v -0.684747 h -0.42086 z"
       style="fill:#231f20;fill-opacity:1;fill-rule:nonzero;stroke:none;stroke-width:0.0352777"
       id="path1114" />
    <text
       xml:space="preserve"
       transform="scale(1,-1)"
       style="font-variant:normal;font-weight:normal;font-size:0.0352777px;font-family:Arial;-inkscape-font-specification:Arial;writing-mode:lr-tb;fill:#231f20;fill-opacity:1;fill-rule:nonzero;stroke:none;stroke-width:0.352777"
       id="text1120"
       x="-191.0807"
       y="-42.346241"><tspan
         x="-191.0807 -188.96405 -186.84738 -154.03914 -151.92247"
         y="-42.346241"
         sodipodi:role="line"
         id="tspan1118"
         style="stroke-width:0.352777">✙✚✛✚✛</tspan></text>
    <path
       d="m -155.53778,41.598366 -2.25672,-1.00365 0.1778,0.650873 h -23.66004 l 0.17847,-0.650521 -2.2571,1.004004 2.2571,1.00365 -0.17889,-0.650874 h 23.66011 l -0.17745,0.650521 2.25672,-1.004003"
       style="fill:#4f4c4c;fill-opacity:1;fill-rule:nonzero;stroke:none;stroke-width:0.0352777"
       id="path1122" />
  </g>
</svg>
