<?xml version="1.0" encoding="UTF-8" standalone="no"?>
<!-- Created with Inkscape (http://www.inkscape.org/) -->

<svg
   width="28.848833mm"
   height="18.760511mm"
   viewBox="0 0 28.848833 18.760511"
   version="1.1"
   id="svg801"
   inkscape:version="1.2.2 (b0a8486541, 2022-12-01)"
   sodipodi:docname="batons_top.svg"
   xmlns:inkscape="http://www.inkscape.org/namespaces/inkscape"
   xmlns:sodipodi="http://sodipodi.sourceforge.net/DTD/sodipodi-0.dtd"
   xmlns="http://www.w3.org/2000/svg"
   xmlns:svg="http://www.w3.org/2000/svg">
  <sodipodi:namedview
     id="namedview803"
     pagecolor="#ffffff"
     bordercolor="#666666"
     borderopacity="1.0"
     inkscape:showpageshadow="2"
     inkscape:pageopacity="0.0"
     inkscape:pagecheckerboard="0"
     inkscape:deskcolor="#d1d1d1"
     inkscape:document-units="mm"
     showgrid="false"
     inkscape:zoom="0.44542649"
     inkscape:cx="1133.7449"
     inkscape:cy="489.41858"
     inkscape:window-width="1366"
     inkscape:window-height="685"
     inkscape:window-x="0"
     inkscape:window-y="27"
     inkscape:window-maximized="1"
     inkscape:current-layer="layer1" />
  <defs
     id="defs798">
    <clipPath
       clipPathUnits="userSpaceOnUse"
       id="clipPath730">
      <path
         d="m 777.27,1717.32 h 713.699 v 357.168 H 777.27 Z"
         id="path728" />
    </clipPath>
    <clipPath
       clipPathUnits="userSpaceOnUse"
       id="clipPath723">
      <path
         d="m 777.27,1717.32 h 713.699 v 357.168 H 777.27 Z"
         id="path721" />
    </clipPath>
    <clipPath
       clipPathUnits="userSpaceOnUse"
       id="clipPath727">
      <path
         d="m 777.27,1717.32 h 713.699 v 357.168 H 777.27 Z"
         id="path725" />
    </clipPath>
  </defs>
  <g
     inkscape:label="Layer 1"
     inkscape:groupmode="layer"
     id="layer1"
     transform="translate(195.00041,-19.131746)">
    <text
       xml:space="preserve"
       transform="scale(1,-1)"
       style="font-variant:normal;font-weight:normal;font-size:0.0352777px;font-family:Arial;-inkscape-font-specification:Arial;writing-mode:lr-tb;fill:#231f20;fill-opacity:1;fill-rule:nonzero;stroke:none;stroke-width:0.352777"
       id="text714"
       x="-195.00761"
       y="-19.133572"><tspan
         x="-195.00761 -192.57346 -190.1393 -187.66986 -185.16515 -182.76627 -180.26155 -177.79211 -175.39322 -172.8885"
         y="-19.133572"
         sodipodi:role="line"
         id="tspan712"
         style="stroke-width:0.352777">→➇↔➛✼➜✈➝➛✴</tspan></text>
    <path
       d="m -185.95193,21.852699 -0.43282,-0.19438 c 0,0 -0.3587,-0.173566 -0.66008,0.06103 -0.24793,0.192616 -0.69356,0.507998 -1.4213,1.660873 -0.71508,1.157461 -0.77255,1.648174 -0.82134,1.931101 -0.0595,0.343252 0.3102,0.498827 0.3102,0.498827 l 0.43215,0.19438"
       style="fill:#9c9a9b;fill-opacity:1;fill-rule:nonzero;stroke:none;stroke-width:0.0352777"
       id="path716" />
    <path
       d="m -171.50674,21.852699 0.43286,-0.19438 c 0,0 0.35878,-0.173566 0.66005,0.06103 0.24765,0.192616 0.69356,0.507998 1.42098,1.660873 0.71543,1.157461 0.77294,1.648174 0.82127,1.931101 0.0596,0.343252 -0.31009,0.498827 -0.31009,0.498827 l -0.4318,0.19438"
       style="fill:#9c9a9b;fill-opacity:1;fill-rule:nonzero;stroke:none;stroke-width:0.0352777"
       id="path718" />
    <path
       d="m -185.95193,33.70812 -0.43282,0.194733 c 0,0 -0.3587,0.173566 -0.66008,-0.06103 -0.24793,-0.192616 -0.69356,-0.508351 -1.4213,-1.660873 -0.71508,-1.157814 -0.77255,-1.648174 -0.82134,-1.931454 -0.0595,-0.342899 0.3102,-0.498474 0.3102,-0.498474 l 0.43215,-0.19438"
       style="fill:#9c9a9b;fill-opacity:1;fill-rule:nonzero;stroke:none;stroke-width:0.0352777"
       id="path720" />
    <path
       d="m -171.50674,33.70812 0.43286,0.194733 c 0,0 0.35878,0.173566 0.66005,-0.06103 0.24765,-0.192616 0.69356,-0.508351 1.42098,-1.660873 0.71543,-1.157814 0.77294,-1.648174 0.82127,-1.931454 0.0596,-0.342899 -0.31009,-0.498474 -0.31009,-0.498474 l -0.4318,-0.19438"
       style="fill:#9c9a9b;fill-opacity:1;fill-rule:nonzero;stroke:none;stroke-width:0.0352777"
       id="path722" />
    <path
       d="m 1427.37,1895.9 c 0,-137.51 -131.15,-248.99 -292.95,-248.99 -161.779,0 -292.932,111.48 -292.932,248.99 0,137.51 131.153,249 292.932,249 161.8,0 292.95,-111.49 292.95,-249"
       style="fill:#ffffff;fill-opacity:1;fill-rule:nonzero;stroke:none"
       id="path732"
       clip-path="url(#clipPath730)"
       transform="matrix(0.03527769,0,0,-0.03527769,-218.74956,94.663382)" />
    <path
       d="m 1427.37,1895.9 c 0,-137.51 -131.15,-248.99 -292.95,-248.99 -161.779,0 -292.932,111.48 -292.932,248.99 0,137.51 131.153,249 292.932,249 161.8,0 292.95,-111.49 292.95,-249 z"
       style="fill:none;stroke:#9c9a9b;stroke-width:6;stroke-linecap:butt;stroke-linejoin:miter;stroke-miterlimit:10;stroke-dasharray:none;stroke-opacity:1"
       id="path734"
       clip-path="url(#clipPath730)"
       transform="matrix(0.03527769,0,0,-0.03527769,-218.74956,94.663382)" />
    <path
       d="m 1403.9,1895.9 c 0,-126.5 -120.64,-229.05 -269.47,-229.05 -148.821,0 -269.461,102.55 -269.461,229.05 0,126.5 120.64,229.05 269.461,229.05 148.83,0 269.47,-102.55 269.47,-229.05 z"
       style="fill:none;stroke:#9c9a9b;stroke-width:4;stroke-linecap:butt;stroke-linejoin:miter;stroke-miterlimit:10;stroke-dasharray:none;stroke-opacity:1"
       id="path736"
       clip-path="url(#clipPath730)"
       transform="matrix(0.03527769,0,0,-0.03527769,-218.74956,94.663382)" />
    <path
       d="m -191.34761,22.792144 c 0,0.656518 0.54045,1.197325 1.19736,1.197325 0.65609,0 1.1963,-0.540807 1.1963,-1.197325 0,-0.656518 -0.54021,-1.196266 -1.1963,-1.196266 -0.65691,0 -1.19736,0.539748 -1.19736,1.196266 m 1.19736,-1.084789 c 0.59753,0 1.08478,0.487185 1.08478,1.084789 0,0.596193 -0.48905,1.084789 -1.08478,1.084789 -0.59655,0 -1.08589,-0.488596 -1.08589,-1.084789 0,-0.597604 0.48687,-1.084789 1.08589,-1.084789 m 0.28567,1.397349 0.14221,0.414513 h 0.2092 l -0.51428,-1.420632 h -0.21911 l -0.53344,1.420632 h 0.19858 l 0.14894,-0.414513 z m -0.51015,-0.170391 0.22836,-0.624062 h 0.005 l 0.20919,0.624062"
       style="fill:#231f20;fill-opacity:1;fill-rule:nonzero;stroke:none;stroke-width:0.0352777"
       id="path738" />
    <path
       d="m -168.54517,22.79285 c 0,0.656518 0.54045,1.196619 1.19697,1.196619 0.65687,0 1.19662,-0.540101 1.19662,-1.196619 0,-0.656518 -0.53975,-1.197325 -1.19662,-1.197325 -0.65652,0 -1.19697,0.540807 -1.19697,1.197325 m 1.19697,-1.092198 c 0.59866,0 1.08514,0.493535 1.08514,1.092198 0,0.596193 -0.48895,1.084789 -1.08514,1.084789 -0.59584,0 -1.08479,-0.488596 -1.08479,-1.084789 0,-0.598663 0.48648,-1.092198 1.08479,-1.092198 m -0.24448,1.184978 h 0.37959 c 0.15593,0 0.33091,0.03951 0.33091,0.239536 0,0.158749 -0.10019,0.258938 -0.30092,0.258938 h -0.40958 z m -0.19085,0.663926 h 0.61242 c 0.31433,0 0.4819,-0.191205 0.4819,-0.419099 0,-0.244827 -0.16546,-0.309385 -0.25859,-0.347485 0.15875,-0.07197 0.19121,-0.202494 0.19121,-0.295274 0,-0.195791 -0.13724,-0.358774 -0.40252,-0.358774 h -0.62442 z m 0.19085,-1.257649 h 0.34925 c 0.21449,0 0.29563,0.07691 0.29563,0.209902 0,0.172155 -0.11395,0.228246 -0.29774,0.228246 h -0.34714"
       style="fill:#231f20;fill-opacity:1;fill-rule:nonzero;stroke:none;stroke-width:0.0352777"
       id="path740" />
    <path
       d="m -191.34761,32.767969 c 0,0.657224 0.54045,1.197325 1.19736,1.197325 0.65609,0 1.1963,-0.540101 1.1963,-1.197325 0,-0.656517 -0.54021,-1.196619 -1.1963,-1.196619 -0.65691,0 -1.19736,0.540102 -1.19736,1.196619 m 1.8048,-0.251177 c -0.0283,-0.237419 -0.21911,-0.463196 -0.58455,-0.463196 -0.41409,0 -0.66393,0.302683 -0.66393,0.738362 0,0.546452 0.3168,0.756354 0.64104,0.756354 0.10611,0 0.54214,-0.02293 0.62152,-0.558799 h -0.18687 c -0.0653,0.330552 -0.28127,0.388408 -0.40502,0.388408 -0.35387,0 -0.47212,-0.255411 -0.47212,-0.590902 0,-0.374649 0.20891,-0.563032 0.46538,-0.563032 0.13723,0 0.34505,0.04375 0.39755,0.292805 z m -0.60744,-0.833612 c 0.59753,0 1.08478,0.486832 1.08478,1.084789 0,0.596193 -0.48905,1.085495 -1.08478,1.085495 -0.59655,0 -1.08589,-0.489302 -1.08589,-1.085495 0,-0.597957 0.48687,-1.084789 1.08589,-1.084789"
       style="fill:#231f20;fill-opacity:1;fill-rule:nonzero;stroke:none;stroke-width:0.0352777"
       id="path742" />
    <path
       d="m -168.54764,32.767969 c 0,0.657224 0.53975,1.197325 1.19662,1.197325 0.65687,0 1.19662,-0.540101 1.19662,-1.197325 0,-0.656517 -0.53975,-1.196619 -1.19662,-1.196619 -0.65687,0 -1.19662,0.540102 -1.19662,1.196619 m 1.19662,-1.091491 c 0.59866,0 1.08514,0.493534 1.08514,1.091491 0,0.596193 -0.4893,1.085495 -1.08514,1.085495 -0.59584,0 -1.08515,-0.489302 -1.08515,-1.085495 0,-0.597957 0.48684,-1.091491 1.08515,-1.091491 m -0.48401,1.843964 h 0.56797 c 0.46566,0 0.60571,-0.412043 0.60571,-0.730953 0,-0.41028 -0.22859,-0.689679 -0.59901,-0.689679 h -0.57467 z m 0.19085,-1.257649 h 0.35842 c 0.2607,0 0.42615,0.18168 0.42615,0.538337 0,0.358774 -0.16298,0.55386 -0.41239,0.55386 h -0.37218"
       style="fill:#231f20;fill-opacity:1;fill-rule:nonzero;stroke:none;stroke-width:0.0352777"
       id="path744" />
    <path
       d="m -172.9309,27.722554 c 0,-3.197217 -2.59079,-5.790127 -5.78377,-5.790127 -3.19793,0 -5.795,2.59291 -5.795,5.790127 0,3.198981 2.59707,5.791186 5.795,5.791186 3.19298,0 5.78377,-2.592205 5.78377,-5.791186 z"
       style="fill:none;stroke:#9c9a9b;stroke-width:0.141111;stroke-linecap:round;stroke-linejoin:round;stroke-miterlimit:10;stroke-dasharray:none;stroke-opacity:1"
       id="path746" />
    <path
       d="m -174.50781,26.453263 h 0.50519 v -0.822686 h -0.50519 z"
       style="fill:#231f20;fill-opacity:1;fill-rule:nonzero;stroke:none;stroke-width:0.0352777"
       id="path748" />
    <path
       d="m -175.06696,26.453263 h 0.50546 v -0.822686 h -0.50546 z"
       style="fill:#231f20;fill-opacity:1;fill-rule:nonzero;stroke:none;stroke-width:0.0352777"
       id="path750" />
    <path
       d="m -175.62576,26.453263 h 0.50519 v -0.822686 h -0.50519 z"
       style="fill:#231f20;fill-opacity:1;fill-rule:nonzero;stroke:none;stroke-width:0.0352777"
       id="path752" />
    <path
       d="m -181.21798,26.453263 h 0.50519 v -0.822686 h -0.50519 z"
       style="fill:#231f20;fill-opacity:1;fill-rule:nonzero;stroke:none;stroke-width:0.0352777"
       id="path754" />
    <path
       d="m -181.77784,26.453263 h 0.50519 v -0.822686 h -0.50519 z"
       style="fill:#231f20;fill-opacity:1;fill-rule:nonzero;stroke:none;stroke-width:0.0352777"
       id="path756" />
    <path
       d="m -182.33699,26.453263 h 0.50547 v -0.822686 h -0.50547 z"
       style="fill:#231f20;fill-opacity:1;fill-rule:nonzero;stroke:none;stroke-width:0.0352777"
       id="path758" />
    <path
       d="m -182.90002,26.453263 h 0.50684 v -0.822686 h -0.50684 z"
       style="fill:#231f20;fill-opacity:1;fill-rule:nonzero;stroke:none;stroke-width:0.0352777"
       id="path760" />
    <path
       d="m -183.45882,26.453263 h 0.50519 v -0.822686 h -0.50519 z"
       style="fill:#231f20;fill-opacity:1;fill-rule:nonzero;stroke:none;stroke-width:0.0352777"
       id="path762" />
    <path
       d="m -174.50781,27.330619 h 0.50519 v -0.822686 h -0.50519 z"
       style="fill:#231f20;fill-opacity:1;fill-rule:nonzero;stroke:none;stroke-width:0.0352777"
       id="path764" />
    <path
       d="m -175.06696,27.330619 h 0.50546 v -0.822686 h -0.50546 z"
       style="fill:#231f20;fill-opacity:1;fill-rule:nonzero;stroke:none;stroke-width:0.0352777"
       id="path766" />
    <path
       d="m -175.62576,27.330619 h 0.50519 v -0.822686 h -0.50519 z"
       style="fill:#231f20;fill-opacity:1;fill-rule:nonzero;stroke:none;stroke-width:0.0352777"
       id="path768" />
    <path
       d="m -176.74406,27.330619 h 0.50519 v -0.822686 h -0.50519 z"
       style="fill:#231f20;fill-opacity:1;fill-rule:nonzero;stroke:none;stroke-width:0.0352777"
       id="path770" />
    <path
       d="m -177.30392,27.330619 h 0.50519 v -0.822686 h -0.50519 z"
       style="fill:#231f20;fill-opacity:1;fill-rule:nonzero;stroke:none;stroke-width:0.0352777"
       id="path772" />
    <path
       d="m -177.86272,27.330619 h 0.50519 v -0.822686 h -0.50519 z"
       style="fill:#231f20;fill-opacity:1;fill-rule:nonzero;stroke:none;stroke-width:0.0352777"
       id="path774" />
    <path
       d="m -181.77784,27.330619 h 0.50519 v -0.822686 h -0.50519 z"
       style="fill:#231f20;fill-opacity:1;fill-rule:nonzero;stroke:none;stroke-width:0.0352777"
       id="path776" />
    <path
       d="m -182.33699,27.330619 h 0.50547 v -0.822686 h -0.50547 z"
       style="fill:#231f20;fill-opacity:1;fill-rule:nonzero;stroke:none;stroke-width:0.0352777"
       id="path778" />
    <path
       d="m -182.90002,27.330619 h 0.50684 v -0.822686 h -0.50684 z"
       style="fill:#231f20;fill-opacity:1;fill-rule:nonzero;stroke:none;stroke-width:0.0352777"
       id="path780" />
    <path
       d="m -174.50781,28.206211 h 0.50519 v -0.821998 h -0.50519 z"
       style="fill:#231f20;fill-opacity:1;fill-rule:nonzero;stroke:none;stroke-width:0.0352777"
       id="path782" />
    <path
       d="m -175.06696,28.206211 h 0.50546 v -0.821998 h -0.50546 z"
       style="fill:#231f20;fill-opacity:1;fill-rule:nonzero;stroke:none;stroke-width:0.0352777"
       id="path784" />
    <path
       d="m -175.62576,28.206211 h 0.50519 v -0.821998 h -0.50519 z"
       style="fill:#231f20;fill-opacity:1;fill-rule:nonzero;stroke:none;stroke-width:0.0352777"
       id="path786" />
    <path
       d="m -176.74406,28.206211 h 0.50519 v -0.821998 h -0.50519 z"
       style="fill:#231f20;fill-opacity:1;fill-rule:nonzero;stroke:none;stroke-width:0.0352777"
       id="path788" />
    <path
       d="m -177.30392,28.206211 h 0.50519 v -0.821998 h -0.50519 z"
       style="fill:#231f20;fill-opacity:1;fill-rule:nonzero;stroke:none;stroke-width:0.0352777"
       id="path790" />
    <path
       d="m -177.86272,28.206211 h 0.50519 v -0.821998 h -0.50519 z"
       style="fill:#231f20;fill-opacity:1;fill-rule:nonzero;stroke:none;stroke-width:0.0352777"
       id="path792" />
    <path
       d="m -178.98173,28.206211 h 0.50616 v -0.821998 h -0.50616 z"
       style="fill:#231f20;fill-opacity:1;fill-rule:nonzero;stroke:none;stroke-width:0.0352777"
       id="path794" />
    <path
       d="m -179.54052,28.206211 h 0.50518 v -0.821998 h -0.50518 z"
       style="fill:#231f20;fill-opacity:1;fill-rule:nonzero;stroke:none;stroke-width:0.0352777"
       id="path796" />
    <path
       d="m -180.10038,28.206211 h 0.50546 v -0.821998 h -0.50546 z"
       style="fill:#231f20;fill-opacity:1;fill-rule:nonzero;stroke:none;stroke-width:0.0352777"
       id="path798" />
    <path
       d="m -182.33699,28.206211 h 0.50547 v -0.821998 h -0.50547 z"
       style="fill:#231f20;fill-opacity:1;fill-rule:nonzero;stroke:none;stroke-width:0.0352777"
       id="path800" />
    <path
       d="m -174.50781,29.083567 h 0.50519 v -0.822686 h -0.50519 z"
       style="fill:#231f20;fill-opacity:1;fill-rule:nonzero;stroke:none;stroke-width:0.0352777"
       id="path802" />
    <path
       d="m -175.06696,29.083567 h 0.50546 v -0.822686 h -0.50546 z"
       style="fill:#231f20;fill-opacity:1;fill-rule:nonzero;stroke:none;stroke-width:0.0352777"
       id="path804" />
    <path
       d="m -175.62576,29.083567 h 0.50519 v -0.822686 h -0.50519 z"
       style="fill:#231f20;fill-opacity:1;fill-rule:nonzero;stroke:none;stroke-width:0.0352777"
       id="path806" />
    <path
       d="m -176.74406,29.083567 h 0.50519 v -0.822686 h -0.50519 z"
       style="fill:#231f20;fill-opacity:1;fill-rule:nonzero;stroke:none;stroke-width:0.0352777"
       id="path808" />
    <path
       d="m -177.30392,29.083567 h 0.50519 v -0.822686 h -0.50519 z"
       style="fill:#231f20;fill-opacity:1;fill-rule:nonzero;stroke:none;stroke-width:0.0352777"
       id="path810" />
    <path
       d="m -177.86272,29.083567 h 0.50519 v -0.822686 h -0.50519 z"
       style="fill:#231f20;fill-opacity:1;fill-rule:nonzero;stroke:none;stroke-width:0.0352777"
       id="path812" />
    <path
       d="m -178.98173,29.083567 h 0.50616 v -0.822686 h -0.50616 z"
       style="fill:#231f20;fill-opacity:1;fill-rule:nonzero;stroke:none;stroke-width:0.0352777"
       id="path814" />
    <path
       d="m -179.54052,29.083567 h 0.50518 v -0.822686 h -0.50518 z"
       style="fill:#231f20;fill-opacity:1;fill-rule:nonzero;stroke:none;stroke-width:0.0352777"
       id="path816" />
    <path
       d="m -180.10038,29.083567 h 0.50546 v -0.822686 h -0.50546 z"
       style="fill:#231f20;fill-opacity:1;fill-rule:nonzero;stroke:none;stroke-width:0.0352777"
       id="path818" />
    <path
       d="m -182.33699,29.083567 h 0.50547 v -0.822686 h -0.50547 z"
       style="fill:#231f20;fill-opacity:1;fill-rule:nonzero;stroke:none;stroke-width:0.0352777"
       id="path820" />
    <path
       d="m -174.50781,29.959865 h 0.50519 v -0.821998 h -0.50519 z"
       style="fill:#231f20;fill-opacity:1;fill-rule:nonzero;stroke:none;stroke-width:0.0352777"
       id="path822" />
    <path
       d="m -175.06696,29.959865 h 0.50546 v -0.821998 h -0.50546 z"
       style="fill:#231f20;fill-opacity:1;fill-rule:nonzero;stroke:none;stroke-width:0.0352777"
       id="path824" />
    <path
       d="m -175.62576,29.959865 h 0.50519 v -0.821998 h -0.50519 z"
       style="fill:#231f20;fill-opacity:1;fill-rule:nonzero;stroke:none;stroke-width:0.0352777"
       id="path826" />
    <path
       d="m -176.74406,29.959865 h 0.50519 v -0.821998 h -0.50519 z"
       style="fill:#231f20;fill-opacity:1;fill-rule:nonzero;stroke:none;stroke-width:0.0352777"
       id="path828" />
    <path
       d="m -177.30392,29.959865 h 0.50519 v -0.821998 h -0.50519 z"
       style="fill:#231f20;fill-opacity:1;fill-rule:nonzero;stroke:none;stroke-width:0.0352777"
       id="path830" />
    <path
       d="m -177.86272,29.959865 h 0.50519 v -0.821998 h -0.50519 z"
       style="fill:#231f20;fill-opacity:1;fill-rule:nonzero;stroke:none;stroke-width:0.0352777"
       id="path832" />
    <path
       d="m -178.98173,29.959865 h 0.50616 v -0.821998 h -0.50616 z"
       style="fill:#231f20;fill-opacity:1;fill-rule:nonzero;stroke:none;stroke-width:0.0352777"
       id="path834" />
    <path
       d="m -179.54052,29.959865 h 0.50518 v -0.821998 h -0.50518 z"
       style="fill:#231f20;fill-opacity:1;fill-rule:nonzero;stroke:none;stroke-width:0.0352777"
       id="path836" />
    <path
       d="m -180.10038,29.959865 h 0.50546 v -0.821998 h -0.50546 z"
       style="fill:#231f20;fill-opacity:1;fill-rule:nonzero;stroke:none;stroke-width:0.0352777"
       id="path838" />
    <path
       d="m -182.33699,29.959865 h 0.50547 v -0.821998 h -0.50547 z"
       style="fill:#231f20;fill-opacity:1;fill-rule:nonzero;stroke:none;stroke-width:0.0352777"
       id="path840" />
    <text
       xml:space="preserve"
       transform="scale(1,-1)"
       style="font-variant:normal;font-weight:normal;font-size:0.0352777px;font-family:Arial;-inkscape-font-specification:Arial;writing-mode:lr-tb;fill:#231f20;fill-opacity:1;fill-rule:nonzero;stroke:none;stroke-width:0.352777"
       id="text846"
       x="-191.37392"
       y="-37.866074"><tspan
         x="-191.37392 -189.25726"
         y="-37.866074"
         sodipodi:role="line"
         id="tspan844"
         style="stroke-width:0.352777">✾✿</tspan></text>
    <text
       xml:space="preserve"
       transform="scale(1,-1)"
       style="font-variant:normal;font-weight:normal;font-size:0.0352777px;font-family:Arial;-inkscape-font-specification:Arial;writing-mode:lr-tb;fill:#231f20;fill-opacity:1;fill-rule:nonzero;stroke:none;stroke-width:0.352777"
       id="text850"
       x="-187.14058"
       y="-37.866074"><tspan
         x="-187.14058 -185.02393 -182.90726 -180.79059 -178.67393 -176.55727 -174.44061"
         y="-37.866074"
         sodipodi:role="line"
         id="tspan848"
         style="stroke-width:0.352777">✕✖✗✘✙✚✛</tspan></text>
    <path
       d="m -183.51417,27.777235 h -2.0617 v 7.603047"
       style="fill:none;stroke:#ffffff;stroke-width:0.423332;stroke-linecap:round;stroke-linejoin:round;stroke-miterlimit:4;stroke-dasharray:none;stroke-opacity:1"
       id="path852" />
    <path
       d="m -183.51417,27.777235 h -2.0617 v 7.603047"
       style="fill:none;stroke:#231f20;stroke-width:0.0881942;stroke-linecap:butt;stroke-linejoin:miter;stroke-miterlimit:4;stroke-dasharray:none;stroke-opacity:1"
       id="path854" />
  </g>
</svg>
