<?xml version="1.0" encoding="UTF-8" standalone="no"?>
<!-- Created with Inkscape (http://www.inkscape.org/) -->

<svg
   width="3.4998288mm"
   height="3.2434206mm"
   viewBox="0 0 3.4998288 3.2434206"
   version="1.1"
   id="svg1376"
   inkscape:version="1.2.2 (b0a8486541, 2022-12-01)"
   sodipodi:docname="checked.svg"
   xmlns:inkscape="http://www.inkscape.org/namespaces/inkscape"
   xmlns:sodipodi="http://sodipodi.sourceforge.net/DTD/sodipodi-0.dtd"
   xmlns="http://www.w3.org/2000/svg"
   xmlns:svg="http://www.w3.org/2000/svg">
  <sodipodi:namedview
     id="namedview1378"
     pagecolor="#ffffff"
     bordercolor="#666666"
     borderopacity="1.0"
     inkscape:showpageshadow="2"
     inkscape:pageopacity="0.0"
     inkscape:pagecheckerboard="0"
     inkscape:deskcolor="#d1d1d1"
     inkscape:document-units="mm"
     showgrid="false"
     inkscape:zoom="0.44542649"
     inkscape:cx="1061.9036"
     inkscape:cy="457.98803"
     inkscape:window-width="1366"
     inkscape:window-height="685"
     inkscape:window-x="0"
     inkscape:window-y="27"
     inkscape:window-maximized="1"
     inkscape:current-layer="layer1" />
  <defs
     id="defs1373">
    <clipPath
       clipPathUnits="userSpaceOnUse"
       id="clipPath122">
      <path
         d="m 368.5,1958.31 h 99.2109 v 91.9297 H 368.5 Z"
         id="path120" />
    </clipPath>
  </defs>
  <g
     inkscape:label="Layer 1"
     inkscape:groupmode="layer"
     id="layer1"
     transform="translate(175.79192,-27.484288)">
    <path
       d="m -172.54221,29.226996 c 0,0.82832 -0.67136,1.500713 -1.49972,1.500713 -0.82903,0 -1.5004,-0.672393 -1.5004,-1.500713 0,-0.828673 0.67137,-1.500008 1.5004,-1.500008 0.82836,0 1.49972,0.671335 1.49972,1.500008"
       style="fill:#d3d2d2;fill-opacity:1;fill-rule:nonzero;stroke:none;stroke-width:0.0352777"
       id="path114" />
    <path
       d="m 411.578,1961.43 c -4.289,0 -8.387,2.05 -10.976,5.47 l -29.332,38.82 c -4.559,6.06 -3.36,14.7 2.679,19.27 5.922,4.45 14.86,3.19 19.281,-2.68 l 17.84,-23.62 31.559,45.74 c 4.18,6.02 13.101,7.67 19.141,3.5 3.019,-2.09 5.05,-5.22 5.718,-8.84 0.66,-3.61 -0.117,-7.27 -2.207,-10.29 l -42.383,-61.41 c -2.5,-3.64 -6.617,-5.86 -11.027,-5.95"
       style="fill:#ffffff;fill-opacity:1;fill-rule:nonzero;stroke:none"
       id="path124"
       clip-path="url(#clipPath122)"
       transform="matrix(0.03527769,0,0,-0.03527769,-188.79185,99.812009)" />
    <path
       d="m -174.27233,30.444076 c -0.0977,0 -0.19004,-0.04621 -0.24899,-0.12453 l -1.03466,-1.369127 c -0.10375,-0.137583 -0.0762,-0.333375 0.0611,-0.437091 0.13712,-0.103716 0.33291,-0.07691 0.43698,0.06103 l 0.77403,1.024465 1.24989,-1.810804 c 0.0981,-0.141817 0.29171,-0.177447 0.43391,-0.07973 0.14182,0.09772 0.17752,0.292452 0.0794,0.434269 l -1.49475,2.166402 c -0.0572,0.08255 -0.14993,0.132645 -0.25009,0.134761 -0.002,3.53e-4 -0.005,3.53e-4 -0.007,3.53e-4"
       style="fill:#656263;fill-opacity:1;fill-rule:nonzero;stroke:none;stroke-width:0.0352777"
       id="path126" />
  </g>
</svg>
