<?xml version="1.0" encoding="UTF-8" standalone="no"?>
<!-- Created with Inkscape (http://www.inkscape.org/) -->

<svg
   width="25.19603mm"
   height="27.825512mm"
   viewBox="0 0 25.19603 27.825512"
   version="1.1"
   id="svg613"
   inkscape:version="1.2.2 (b0a8486541, 2022-12-01)"
   sodipodi:docname="clock6:30_page30.svg"
   xmlns:inkscape="http://www.inkscape.org/namespaces/inkscape"
   xmlns:sodipodi="http://sodipodi.sourceforge.net/DTD/sodipodi-0.dtd"
   xmlns="http://www.w3.org/2000/svg"
   xmlns:svg="http://www.w3.org/2000/svg">
  <sodipodi:namedview
     id="namedview615"
     pagecolor="#ffffff"
     bordercolor="#666666"
     borderopacity="1.0"
     inkscape:showpageshadow="2"
     inkscape:pageopacity="0.0"
     inkscape:pagecheckerboard="0"
     inkscape:deskcolor="#d1d1d1"
     inkscape:document-units="mm"
     showgrid="false"
     inkscape:zoom="0.44542649"
     inkscape:cx="1095.5792"
     inkscape:cy="511.86898"
     inkscape:window-width="1366"
     inkscape:window-height="685"
     inkscape:window-x="0"
     inkscape:window-y="27"
     inkscape:window-maximized="1"
     inkscape:current-layer="layer1" />
  <defs
     id="defs610" />
  <g
     inkscape:label="Layer 1"
     inkscape:groupmode="layer"
     id="layer1"
     transform="translate(184.85801,-12.817244)">
    <path
       d="m -179.46233,19.310032 -0.43282,-0.228599 c 0,0 -0.3587,-0.204258 -0.66008,0.07161 -0.24793,0.226483 -0.69356,0.597957 -1.4213,1.954032 -0.71508,1.362071 -0.77255,1.939214 -0.82134,2.271883 -0.0595,0.403929 0.3102,0.587021 0.3102,0.587021 l 0.43215,0.228599"
       style="fill:#9c9a9b;fill-opacity:1;fill-rule:nonzero;stroke:none;stroke-width:0.0352777"
       id="path112" />
    <path
       d="m -165.01714,19.310032 0.43286,-0.228599 c 0,0 0.35878,-0.204258 0.66005,0.07161 0.24765,0.226483 0.69356,0.597957 1.42098,1.954032 0.71543,1.362071 0.77294,1.939214 0.82127,2.271883 0.0596,0.403929 -0.31009,0.587021 -0.31009,0.587021 l -0.4318,0.228599"
       style="fill:#9c9a9b;fill-opacity:1;fill-rule:nonzero;stroke:none;stroke-width:0.0352777"
       id="path114" />
    <path
       d="m -179.46233,33.257772 -0.43282,0.228953 c 0,0 -0.3587,0.204257 -0.66008,-0.07161 -0.24793,-0.226836 -0.69356,-0.597957 -1.4213,-1.954031 -0.71508,-1.362425 -0.77255,-1.939568 -0.82134,-2.272236 -0.0595,-0.403577 0.3102,-0.586668 0.3102,-0.586668 l 0.43215,-0.2286"
       style="fill:#9c9a9b;fill-opacity:1;fill-rule:nonzero;stroke:none;stroke-width:0.0352777"
       id="path116" />
    <path
       d="m -165.01714,33.257772 0.43286,0.228953 c 0,0 0.35878,0.204257 0.66005,-0.07161 0.24765,-0.226836 0.69356,-0.597957 1.42098,-1.954031 0.71543,-1.362425 0.77294,-1.939568 0.82127,-2.272236 0.0596,-0.403577 -0.31009,-0.586668 -0.31009,-0.586668 l -0.4318,-0.2286"
       style="fill:#9c9a9b;fill-opacity:1;fill-rule:nonzero;stroke:none;stroke-width:0.0352777"
       id="path118" />
    <path
       d="m -161.90564,26.284079 c 0,5.707224 -4.62667,10.333893 -10.3346,10.333893 -5.70719,0 -10.33397,-4.626669 -10.33397,-10.333893 0,-5.707225 4.62678,-10.334247 10.33397,-10.334247 5.70793,0 10.3346,4.627022 10.3346,10.334247"
       style="fill:#ffffff;fill-opacity:1;fill-rule:nonzero;stroke:none;stroke-width:0.0352777"
       id="path120" />
    <path
       d="m -161.90564,26.284079 c 0,5.707224 -4.62667,10.333893 -10.3346,10.333893 -5.70719,0 -10.33397,-4.626669 -10.33397,-10.333893 0,-5.707225 4.62678,-10.334247 10.33397,-10.334247 5.70793,0 10.3346,4.627022 10.3346,10.334247 z"
       style="fill:none;stroke:#9c9a9b;stroke-width:0.211666;stroke-linecap:butt;stroke-linejoin:miter;stroke-miterlimit:10;stroke-dasharray:none;stroke-opacity:1"
       id="path122" />
    <path
       d="m -184.85801,20.334849 c 0,0.656518 0.54045,1.197325 1.19736,1.197325 0.65609,0 1.1963,-0.540807 1.1963,-1.197325 0,-0.656518 -0.54021,-1.196619 -1.1963,-1.196619 -0.65691,0 -1.19736,0.540101 -1.19736,1.196619 m 1.19736,-1.084789 c 0.59753,0 1.08478,0.486832 1.08478,1.084789 0,0.59584 -0.48905,1.084789 -1.08478,1.084789 -0.59655,0 -1.08589,-0.488949 -1.08589,-1.084789 0,-0.597957 0.48687,-1.084789 1.08589,-1.084789 m 0.28567,1.397349 0.14221,0.41416 h 0.2092 l -0.51428,-1.420632 h -0.21911 l -0.53344,1.420632 h 0.19858 l 0.14894,-0.41416 z m -0.51015,-0.170391 0.22836,-0.624415 h 0.005 l 0.20919,0.624415"
       style="fill:#231f20;fill-opacity:1;fill-rule:nonzero;stroke:none;stroke-width:0.0352777"
       id="path124" />
    <path
       d="m -162.05557,20.335555 c 0,0.656517 0.54045,1.196619 1.19697,1.196619 0.65687,0 1.19662,-0.540102 1.19662,-1.196619 0,-0.656518 -0.53975,-1.197325 -1.19662,-1.197325 -0.65652,0 -1.19697,0.540807 -1.19697,1.197325 m 1.19697,-1.092198 c 0.59866,0 1.08514,0.493535 1.08514,1.092198 0,0.596193 -0.48895,1.084789 -1.08514,1.084789 -0.59584,0 -1.08479,-0.488596 -1.08479,-1.084789 0,-0.598663 0.48648,-1.092198 1.08479,-1.092198 m -0.24448,1.184978 h 0.37959 c 0.15593,0 0.33091,0.03951 0.33091,0.239535 0,0.159103 -0.10019,0.258939 -0.30092,0.258939 h -0.40958 z m -0.19085,0.663926 h 0.61242 c 0.31433,0 0.4819,-0.190852 0.4819,-0.419099 0,-0.244827 -0.16546,-0.309385 -0.25859,-0.347485 0.15875,-0.07197 0.19121,-0.202494 0.19121,-0.295274 0,-0.195792 -0.13724,-0.358775 -0.40252,-0.358775 h -0.62442 z m 0.19085,-1.25765 h 0.34925 c 0.21449,0 0.29563,0.07691 0.29563,0.209903 0,0.172155 -0.11395,0.228246 -0.29774,0.228246 h -0.34714"
       style="fill:#231f20;fill-opacity:1;fill-rule:nonzero;stroke:none;stroke-width:0.0352777"
       id="path126" />
    <path
       d="m -184.85801,32.23225 c 0,0.657223 0.54045,1.197325 1.19736,1.197325 0.65609,0 1.1963,-0.540102 1.1963,-1.197325 0,-0.656518 -0.54021,-1.196267 -1.1963,-1.196267 -0.65691,0 -1.19736,0.539749 -1.19736,1.196267 m 1.8048,-0.251177 c -0.0283,-0.237419 -0.21911,-0.463196 -0.58455,-0.463196 -0.41409,0 -0.66393,0.302682 -0.66393,0.738362 0,0.546451 0.3168,0.756353 0.64104,0.756353 0.10611,0 0.54214,-0.02293 0.62152,-0.558798 h -0.18687 c -0.0653,0.330905 -0.28127,0.38876 -0.40502,0.38876 -0.35387,0 -0.47212,-0.255763 -0.47212,-0.591254 0,-0.374649 0.20891,-0.563032 0.46538,-0.563032 0.13723,0 0.34505,0.04374 0.39755,0.292805 z m -0.60744,-0.833612 c 0.59753,0 1.08478,0.487185 1.08478,1.084789 0,0.596193 -0.48905,1.085847 -1.08478,1.085847 -0.59655,0 -1.08589,-0.489654 -1.08589,-1.085847 0,-0.597604 0.48687,-1.084789 1.08589,-1.084789"
       style="fill:#231f20;fill-opacity:1;fill-rule:nonzero;stroke:none;stroke-width:0.0352777"
       id="path128" />
    <path
       d="m -162.05804,32.23225 c 0,0.657223 0.53975,1.197325 1.19662,1.197325 0.65687,0 1.19662,-0.540102 1.19662,-1.197325 0,-0.656518 -0.53975,-1.196267 -1.19662,-1.196267 -0.65687,0 -1.19662,0.539749 -1.19662,1.196267 m 1.19662,-1.091492 c 0.59866,0 1.08514,0.493888 1.08514,1.091492 0,0.596193 -0.4893,1.085847 -1.08514,1.085847 -0.59584,0 -1.08515,-0.489654 -1.08515,-1.085847 0,-0.597604 0.48684,-1.091492 1.08515,-1.091492 m -0.48401,1.843965 h 0.56797 c 0.46566,0 0.60571,-0.411691 0.60571,-0.730954 0,-0.410279 -0.22859,-0.689678 -0.59901,-0.689678 h -0.57467 z m 0.19085,-1.25765 h 0.35842 c 0.2607,0 0.42615,0.181681 0.42615,0.538338 0,0.358774 -0.16298,0.55386 -0.41239,0.55386 h -0.37218"
       style="fill:#231f20;fill-opacity:1;fill-rule:nonzero;stroke:none;stroke-width:0.0352777"
       id="path130" />
    <path
       d="m -172.23848,35.639722 c -5.1685,0 -9.35843,-4.18852 -9.35843,-9.355291 0,-5.166417 4.18993,-9.354937 9.35843,-9.354937 5.1636,0 9.35176,4.18852 9.35176,9.354937 0,5.166771 -4.18816,9.355291 -9.35176,9.355291 z"
       style="fill:none;stroke:#9c9a9b;stroke-width:0.141111;stroke-linecap:butt;stroke-linejoin:miter;stroke-miterlimit:10;stroke-dasharray:none;stroke-opacity:1"
       id="path132" />
    <path
       d="m -169.44202,30.907573 c 0,-1.522585 -1.23366,-2.756952 -2.75413,-2.756952 -1.52293,0 -2.75942,1.234367 -2.75942,2.756952 0,1.522938 1.23649,2.757304 2.75942,2.757304 1.52047,0 2.75413,-1.234366 2.75413,-2.757304 z"
       style="fill:none;stroke:#9c9a9b;stroke-width:0.141111;stroke-linecap:round;stroke-linejoin:round;stroke-miterlimit:10;stroke-dasharray:none;stroke-opacity:1"
       id="path134" />
    <path
       d="m -165.75021,25.854044 v 0.86007 l 2.51072,0.08361 v -1.026228 z"
       style="fill:none;stroke:#9c9a9b;stroke-width:0.141111;stroke-linecap:round;stroke-linejoin:round;stroke-miterlimit:10;stroke-dasharray:none;stroke-opacity:1"
       id="path136" />
    <path
       d="m -178.73211,25.854044 -2.51174,-0.08255 v 1.025875 l 2.51174,-0.08326 z"
       style="fill:none;stroke:#9c9a9b;stroke-width:0.141111;stroke-linecap:round;stroke-linejoin:round;stroke-miterlimit:10;stroke-dasharray:none;stroke-opacity:1"
       id="path138" />
    <path
       d="m -173.13806,19.009819 0.56656,1.315152 h 0.6664 l 0.55985,-1.315152 v -1.761768 h -1.79281 z"
       style="fill:none;stroke:#9c9a9b;stroke-width:0.141111;stroke-linecap:round;stroke-linejoin:round;stroke-miterlimit:10;stroke-dasharray:none;stroke-opacity:1"
       id="path140" />
    <path
       d="m -172.768,35.319753 1.05269,3.53e-4 v -1.400171 h -1.05269 z"
       style="fill:none;stroke:#9c9a9b;stroke-width:0.141111;stroke-linecap:round;stroke-linejoin:round;stroke-miterlimit:10;stroke-dasharray:none;stroke-opacity:1"
       id="path142" />
    <path
       d="m -175.81634,20.812156 0.62335,-0.359832 -1.19591,-2.208384 -0.74259,0.428624 z"
       style="fill:none;stroke:#9c9a9b;stroke-width:0.141111;stroke-linecap:round;stroke-linejoin:round;stroke-miterlimit:10;stroke-dasharray:none;stroke-opacity:1"
       id="path144" />
    <path
       d="m -178.07313,23.332747 0.36022,-0.623357 -2.13994,-1.314446 -0.42898,0.742242 z"
       style="fill:none;stroke:#9c9a9b;stroke-width:0.141111;stroke-linecap:round;stroke-linejoin:round;stroke-miterlimit:10;stroke-dasharray:none;stroke-opacity:1"
       id="path146" />
    <path
       d="m -177.71181,29.859825 -0.3598,-0.623356 -2.20803,1.195913 0.42831,0.742596 z"
       style="fill:none;stroke:#9c9a9b;stroke-width:0.141111;stroke-linecap:round;stroke-linejoin:round;stroke-miterlimit:10;stroke-dasharray:none;stroke-opacity:1"
       id="path148" />
    <path
       d="m -175.19122,32.116186 -0.62336,-0.360185 -1.31445,2.139945 0.74189,0.428977 z"
       style="fill:none;stroke:#9c9a9b;stroke-width:0.141111;stroke-linecap:round;stroke-linejoin:round;stroke-miterlimit:10;stroke-dasharray:none;stroke-opacity:1"
       id="path150" />
    <path
       d="m -168.66414,31.754943 -0.62336,0.359832 1.19556,2.208031 0.7433,-0.428271 z"
       style="fill:none;stroke:#9c9a9b;stroke-width:0.141111;stroke-linecap:round;stroke-linejoin:round;stroke-miterlimit:10;stroke-dasharray:none;stroke-opacity:1"
       id="path152" />
    <path
       d="m -166.40743,29.234705 -0.36018,0.623356 2.13994,1.314447 0.42933,-0.742242 z"
       style="fill:none;stroke:#9c9a9b;stroke-width:0.141111;stroke-linecap:round;stroke-linejoin:round;stroke-miterlimit:10;stroke-dasharray:none;stroke-opacity:1"
       id="path154" />
    <path
       d="m -166.76867,22.707274 0.35983,0.623709 2.20838,-1.195913 -0.42862,-0.742949 z"
       style="fill:none;stroke:#9c9a9b;stroke-width:0.141111;stroke-linecap:round;stroke-linejoin:round;stroke-miterlimit:10;stroke-dasharray:none;stroke-opacity:1"
       id="path156" />
    <path
       d="m -169.28926,20.450913 0.62335,0.360185 1.31445,-2.139945 -0.74224,-0.428977 z"
       style="fill:none;stroke:#9c9a9b;stroke-width:0.141111;stroke-linecap:round;stroke-linejoin:round;stroke-miterlimit:10;stroke-dasharray:none;stroke-opacity:1"
       id="path158" />
    <path
       d="m -170.19273,30.303266 h 0.2402 v -0.391501 h -0.2402 z"
       style="fill:#231f20;fill-opacity:1;fill-rule:nonzero;stroke:none;stroke-width:0.0352777"
       id="path160" />
    <path
       d="m -170.45907,30.303266 h 0.2406 v -0.391501 h -0.2406 z"
       style="fill:#231f20;fill-opacity:1;fill-rule:nonzero;stroke:none;stroke-width:0.0352777"
       id="path162" />
    <path
       d="m -170.72507,30.303266 h 0.24061 v -0.391501 h -0.24061 z"
       style="fill:#231f20;fill-opacity:1;fill-rule:nonzero;stroke:none;stroke-width:0.0352777"
       id="path164" />
    <path
       d="m -171.25741,30.303266 h 0.24061 v -0.391501 h -0.24061 z"
       style="fill:#231f20;fill-opacity:1;fill-rule:nonzero;stroke:none;stroke-width:0.0352777"
       id="path166" />
    <path
       d="m -171.52411,30.303266 h 0.24061 v -0.391501 h -0.24061 z"
       style="fill:#231f20;fill-opacity:1;fill-rule:nonzero;stroke:none;stroke-width:0.0352777"
       id="path168" />
    <path
       d="m -171.79045,30.303266 h 0.24019 v -0.391501 h -0.24019 z"
       style="fill:#231f20;fill-opacity:1;fill-rule:nonzero;stroke:none;stroke-width:0.0352777"
       id="path170" />
    <path
       d="m -172.85619,30.303266 h 0.24088 v -0.391501 h -0.24088 z"
       style="fill:#231f20;fill-opacity:1;fill-rule:nonzero;stroke:none;stroke-width:0.0352777"
       id="path172" />
    <path
       d="m -173.12183,30.303266 h 0.24019 v -0.391501 h -0.24019 z"
       style="fill:#231f20;fill-opacity:1;fill-rule:nonzero;stroke:none;stroke-width:0.0352777"
       id="path174" />
    <path
       d="m -173.38818,30.303266 h 0.24033 v -0.391501 h -0.24033 z"
       style="fill:#231f20;fill-opacity:1;fill-rule:nonzero;stroke:none;stroke-width:0.0352777"
       id="path176" />
    <path
       d="m -170.19273,30.720601 h 0.2402 v -0.391639 h -0.2402 z"
       style="fill:#231f20;fill-opacity:1;fill-rule:nonzero;stroke:none;stroke-width:0.0352777"
       id="path178" />
    <path
       d="m -170.72507,30.720601 h 0.24061 v -0.391639 h -0.24061 z"
       style="fill:#231f20;fill-opacity:1;fill-rule:nonzero;stroke:none;stroke-width:0.0352777"
       id="path180" />
    <path
       d="m -171.25741,30.720601 h 0.24061 v -0.391639 h -0.24061 z"
       style="fill:#231f20;fill-opacity:1;fill-rule:nonzero;stroke:none;stroke-width:0.0352777"
       id="path182" />
    <path
       d="m -173.38818,30.720601 h 0.24033 v -0.391639 h -0.24033 z"
       style="fill:#231f20;fill-opacity:1;fill-rule:nonzero;stroke:none;stroke-width:0.0352777"
       id="path184" />
    <path
       d="m -170.19273,31.137936 h 0.2402 v -0.391501 h -0.2402 z"
       style="fill:#231f20;fill-opacity:1;fill-rule:nonzero;stroke:none;stroke-width:0.0352777"
       id="path186" />
    <path
       d="m -170.72507,31.137936 h 0.24061 v -0.391501 h -0.24061 z"
       style="fill:#231f20;fill-opacity:1;fill-rule:nonzero;stroke:none;stroke-width:0.0352777"
       id="path188" />
    <path
       d="m -171.25741,31.137936 h 0.24061 v -0.391501 h -0.24061 z"
       style="fill:#231f20;fill-opacity:1;fill-rule:nonzero;stroke:none;stroke-width:0.0352777"
       id="path190" />
    <path
       d="m -171.52411,31.137936 h 0.24061 v -0.391501 h -0.24061 z"
       style="fill:#231f20;fill-opacity:1;fill-rule:nonzero;stroke:none;stroke-width:0.0352777"
       id="path192" />
    <path
       d="m -171.79045,31.137936 h 0.24019 v -0.391501 h -0.24019 z"
       style="fill:#231f20;fill-opacity:1;fill-rule:nonzero;stroke:none;stroke-width:0.0352777"
       id="path194" />
    <path
       d="m -172.85619,31.137936 h 0.24088 v -0.391501 h -0.24088 z"
       style="fill:#231f20;fill-opacity:1;fill-rule:nonzero;stroke:none;stroke-width:0.0352777"
       id="path196" />
    <path
       d="m -173.12183,31.137936 h 0.24019 v -0.391501 h -0.24019 z"
       style="fill:#231f20;fill-opacity:1;fill-rule:nonzero;stroke:none;stroke-width:0.0352777"
       id="path198" />
    <path
       d="m -173.38818,31.137936 h 0.24033 v -0.391501 h -0.24033 z"
       style="fill:#231f20;fill-opacity:1;fill-rule:nonzero;stroke:none;stroke-width:0.0352777"
       id="path200" />
    <path
       d="m -170.19273,31.555271 h 0.2402 v -0.391914 h -0.2402 z"
       style="fill:#231f20;fill-opacity:1;fill-rule:nonzero;stroke:none;stroke-width:0.0352777"
       id="path202" />
    <path
       d="m -170.72507,31.555271 h 0.24061 v -0.391914 h -0.24061 z"
       style="fill:#231f20;fill-opacity:1;fill-rule:nonzero;stroke:none;stroke-width:0.0352777"
       id="path204" />
    <path
       d="m -171.25741,31.555271 h 0.24061 v -0.391914 h -0.24061 z"
       style="fill:#231f20;fill-opacity:1;fill-rule:nonzero;stroke:none;stroke-width:0.0352777"
       id="path206" />
    <path
       d="m -172.32315,31.555271 h 0.24061 v -0.391914 h -0.24061 z"
       style="fill:#231f20;fill-opacity:1;fill-rule:nonzero;stroke:none;stroke-width:0.0352777"
       id="path208" />
    <path
       d="m -172.85619,31.555271 h 0.24088 v -0.391914 h -0.24088 z"
       style="fill:#231f20;fill-opacity:1;fill-rule:nonzero;stroke:none;stroke-width:0.0352777"
       id="path210" />
    <path
       d="m -173.38818,31.555271 h 0.24033 v -0.391914 h -0.24033 z"
       style="fill:#231f20;fill-opacity:1;fill-rule:nonzero;stroke:none;stroke-width:0.0352777"
       id="path212" />
    <path
       d="m -170.19273,31.972959 h 0.2402 V 31.58132 h -0.2402 z"
       style="fill:#231f20;fill-opacity:1;fill-rule:nonzero;stroke:none;stroke-width:0.0352777"
       id="path214" />
    <path
       d="m -170.45907,31.972959 h 0.2406 V 31.58132 h -0.2406 z"
       style="fill:#231f20;fill-opacity:1;fill-rule:nonzero;stroke:none;stroke-width:0.0352777"
       id="path216" />
    <path
       d="m -170.72507,31.972959 h 0.24061 V 31.58132 h -0.24061 z"
       style="fill:#231f20;fill-opacity:1;fill-rule:nonzero;stroke:none;stroke-width:0.0352777"
       id="path218" />
    <path
       d="m -171.25741,31.972959 h 0.24061 V 31.58132 h -0.24061 z"
       style="fill:#231f20;fill-opacity:1;fill-rule:nonzero;stroke:none;stroke-width:0.0352777"
       id="path220" />
    <path
       d="m -171.52411,31.972959 h 0.24061 V 31.58132 h -0.24061 z"
       style="fill:#231f20;fill-opacity:1;fill-rule:nonzero;stroke:none;stroke-width:0.0352777"
       id="path222" />
    <path
       d="m -171.79045,31.972959 h 0.24019 V 31.58132 h -0.24019 z"
       style="fill:#231f20;fill-opacity:1;fill-rule:nonzero;stroke:none;stroke-width:0.0352777"
       id="path224" />
    <path
       d="m -172.32315,31.972959 h 0.24061 V 31.58132 h -0.24061 z"
       style="fill:#231f20;fill-opacity:1;fill-rule:nonzero;stroke:none;stroke-width:0.0352777"
       id="path226" />
    <path
       d="m -172.85619,31.972959 h 0.24088 V 31.58132 h -0.24088 z"
       style="fill:#231f20;fill-opacity:1;fill-rule:nonzero;stroke:none;stroke-width:0.0352777"
       id="path228" />
    <path
       d="m -173.12183,31.972959 h 0.24019 V 31.58132 h -0.24019 z"
       style="fill:#231f20;fill-opacity:1;fill-rule:nonzero;stroke:none;stroke-width:0.0352777"
       id="path230" />
    <path
       d="m -173.38818,31.972959 h 0.24033 V 31.58132 h -0.24033 z"
       style="fill:#231f20;fill-opacity:1;fill-rule:nonzero;stroke:none;stroke-width:0.0352777"
       id="path232" />
    <path
       d="m -172.51611,25.339342 c 0.5214,-0.15628 1.0675,0.138994 1.22413,0.660046 0.0261,0.08502 0.0395,0.171449 0.0427,0.259996 l 1.11971,0.814209 0.002,0.64911 -0.60536,0.234596 -1.16664,-0.74577 c -0.0832,0.02963 -0.16863,0.04833 -0.25717,0.05539 -0.54293,0.0448 -1.01671,-0.356305 -1.06186,-0.898875 l -2.23484,-1.42663 -0.87736,-1.450266 1.6704,0.287866 z"
       style="fill:none;stroke:#ffffff;stroke-width:0.352777;stroke-linecap:round;stroke-linejoin:round;stroke-miterlimit:10;stroke-dasharray:none;stroke-opacity:1"
       id="path234" />
    <path
       d="m -172.51611,25.339342 c 0.5214,-0.15628 1.0675,0.138994 1.22413,0.660046 0.0261,0.08502 0.0395,0.171449 0.0427,0.259996 l 1.11971,0.814209 0.002,0.64911 -0.60536,0.234596 -1.16664,-0.74577 c -0.0832,0.02963 -0.16863,0.04833 -0.25717,0.05539 -0.54293,0.0448 -1.01671,-0.356305 -1.06186,-0.898875 l -2.23484,-1.42663 -0.87736,-1.450266 1.6704,0.287866"
       style="fill:#4f4c4c;fill-opacity:1;fill-rule:nonzero;stroke:none;stroke-width:0.0352777"
       id="path236" />
    <path
       d="m -172.51611,25.339342 c 0.5214,-0.15628 1.0675,0.138994 1.22413,0.660046 0.0261,0.08502 0.0395,0.171449 0.0427,0.259996 l 1.11971,0.814209 0.002,0.64911 -0.60536,0.234596 -1.16664,-0.74577 c -0.0832,0.02963 -0.16863,0.04833 -0.25717,0.05539 -0.54293,0.0448 -1.01671,-0.356305 -1.06186,-0.898875 l -2.23484,-1.42663 -0.87736,-1.450266 1.6704,0.287866 z"
       style="fill:none;stroke:#4f4c4c;stroke-width:0.105833;stroke-linecap:round;stroke-linejoin:round;stroke-miterlimit:10;stroke-dasharray:none;stroke-opacity:1"
       id="path238" />
    <path
       d="m -168.11487,22.356966 -3.95392,3.154178 c -0.42757,-0.09631 -0.85161,0.172508 -0.94791,0.601485 -0.0152,0.05891 -0.0219,0.121708 -0.0205,0.183797 l -1.39382,1.175452 0.0272,0.523521 0.52775,0.176036 1.49013,-1.104544 c 0.43039,0.07937 0.8442,-0.206728 0.92428,-0.637115 0.005,-0.02787 0.008,-0.0568 0.0106,-0.08714 l 4.00225,-3.143948 0.8375,-1.372302 z"
       style="fill:none;stroke:#ffffff;stroke-width:0.352777;stroke-linecap:round;stroke-linejoin:round;stroke-miterlimit:10;stroke-dasharray:none;stroke-opacity:1"
       id="path240" />
    <path
       d="m -168.11487,22.356966 -3.95392,3.154178 c -0.42757,-0.09631 -0.85161,0.172508 -0.94791,0.601485 -0.0152,0.05891 -0.0219,0.121708 -0.0205,0.183797 l -1.39382,1.175452 0.0272,0.523521 0.52775,0.176036 1.49013,-1.104544 c 0.43039,0.07937 0.8442,-0.206728 0.92428,-0.637115 0.005,-0.02787 0.008,-0.0568 0.0106,-0.08714 l 4.00225,-3.143948 0.8375,-1.372302"
       style="fill:#4f4c4c;fill-opacity:1;fill-rule:nonzero;stroke:none;stroke-width:0.0352777"
       id="path242" />
    <path
       d="m -168.11487,22.356966 -3.95392,3.154178 c -0.42757,-0.09631 -0.85161,0.172508 -0.94791,0.601485 -0.0152,0.05891 -0.0219,0.121708 -0.0205,0.183797 l -1.39382,1.175452 0.0272,0.523521 0.52775,0.176036 1.49013,-1.104544 c 0.43039,0.07937 0.8442,-0.206728 0.92428,-0.637115 0.005,-0.02787 0.008,-0.0568 0.0106,-0.08714 l 4.00225,-3.143948 0.8375,-1.372302 z"
       style="fill:none;stroke:#4f4c4c;stroke-width:0.105833;stroke-linecap:round;stroke-linejoin:round;stroke-miterlimit:10;stroke-dasharray:none;stroke-opacity:1"
       id="path244" />
    <path
       d="m -172.07973,26.49645 c 0.11465,-0.09066 0.13441,-0.257174 0.0434,-0.371827 -0.091,-0.114652 -0.25647,-0.134055 -0.37182,-0.04339 -0.11501,0.09102 -0.13441,0.257527 -0.0434,0.37218 0.091,0.115005 0.25788,0.133702 0.37183,0.04304"
       style="fill:#ffffff;fill-opacity:1;fill-rule:nonzero;stroke:none;stroke-width:0.0352777"
       id="path246" />
    <text
       xml:space="preserve"
       transform="scale(1,-1)"
       style="font-variant:normal;font-weight:normal;font-size:0.0352777px;font-family:Arial;-inkscape-font-specification:Arial;writing-mode:lr-tb;fill:#231f20;fill-opacity:1;fill-rule:nonzero;stroke:none;stroke-width:0.352777"
       id="text252"
       x="-178.9931"
       y="-40.616573"><tspan
         x="-178.9931"
         y="-40.616573"
         id="tspan250"
         style="stroke-width:0.352777">❀</tspan></text>
    <text
       xml:space="preserve"
       transform="scale(1,-1)"
       style="font-variant:normal;font-weight:normal;font-size:0.0352777px;font-family:Arial;-inkscape-font-specification:Arial;writing-mode:lr-tb;fill:#231f20;fill-opacity:1;fill-rule:nonzero;stroke:none;stroke-width:0.352777"
       id="text256"
       x="-176.84097"
       y="-40.616573"><tspan
         x="-176.84097"
         y="-40.616573"
         id="tspan254"
         style="stroke-width:0.352777">✞</tspan></text>
    <text
       xml:space="preserve"
       transform="scale(1,-1)"
       style="font-variant:normal;font-weight:normal;font-size:0.0352777px;font-family:Arial;-inkscape-font-specification:Arial;writing-mode:lr-tb;fill:#231f20;fill-opacity:1;fill-rule:nonzero;stroke:none;stroke-width:0.352777"
       id="text262"
       x="-174.75977"
       y="-40.616573"><tspan
         x="-174.75977"
         y="-40.616573"
         id="tspan258"
         style="stroke-width:0.352777">❁</tspan><tspan
         x="-177.51143"
         y="-12.817753"
         id="tspan260"
         style="stroke-width:0.352777">❂</tspan></text>
    <text
       xml:space="preserve"
       transform="scale(1,-1)"
       style="font-variant:normal;font-weight:normal;font-size:0.0352777px;font-family:Arial;-inkscape-font-specification:Arial;writing-mode:lr-tb;fill:#231f20;fill-opacity:1;fill-rule:nonzero;stroke:none;stroke-width:0.352777"
       id="text266"
       x="-175.35931"
       y="-12.817596"><tspan
         x="-175.35931 -169.75017 -167.59822"
         y="-12.817596"
         sodipodi:role="line"
         id="tspan264"
         style="stroke-width:0.352777">✠✌✠</tspan></text>
    <path
       d="M -175.35809,13.798246 V 23.89719"
       style="fill:none;stroke:#ffffff;stroke-width:0.423332;stroke-linecap:round;stroke-linejoin:round;stroke-miterlimit:4;stroke-dasharray:none;stroke-opacity:1"
       id="path268" />
    <path
       d="M -175.35809,13.798246 V 23.89719"
       style="fill:none;stroke:#231f20;stroke-width:0.0881942;stroke-linecap:butt;stroke-linejoin:miter;stroke-miterlimit:4;stroke-dasharray:none;stroke-opacity:1"
       id="path270" />
    <path
       d="m -167.60793,13.798246 v 8.780617"
       style="fill:none;stroke:#ffffff;stroke-width:0.423332;stroke-linecap:round;stroke-linejoin:round;stroke-miterlimit:4;stroke-dasharray:none;stroke-opacity:1"
       id="path272" />
    <path
       d="m -167.60793,13.798246 v 8.780617"
       style="fill:none;stroke:#231f20;stroke-width:0.0881942;stroke-linecap:butt;stroke-linejoin:miter;stroke-miterlimit:4;stroke-dasharray:none;stroke-opacity:1"
       id="path274" />
    <path
       d="m -173.73319,30.942498 h -1.90394 v 7.17654"
       style="fill:none;stroke:#ffffff;stroke-width:0.423332;stroke-linecap:round;stroke-linejoin:round;stroke-miterlimit:4;stroke-dasharray:none;stroke-opacity:1"
       id="path276" />
    <path
       d="m -173.73319,30.942498 h -1.90394 v 7.17654"
       style="fill:none;stroke:#231f20;stroke-width:0.0881942;stroke-linecap:butt;stroke-linejoin:miter;stroke-miterlimit:4;stroke-dasharray:none;stroke-opacity:1"
       id="path278" />
  </g>
</svg>
