<?xml version="1.0" encoding="UTF-8" standalone="no"?>
<!-- Created with Inkscape (http://www.inkscape.org/) -->

<svg
   width="9.7902613mm"
   height="9.7923813mm"
   viewBox="0 0 9.7902613 9.7923813"
   version="1.1"
   id="svg836"
   inkscape:version="1.2.2 (b0a8486541, 2022-12-01)"
   sodipodi:docname="clock_spot.svg"
   xmlns:inkscape="http://www.inkscape.org/namespaces/inkscape"
   xmlns:sodipodi="http://sodipodi.sourceforge.net/DTD/sodipodi-0.dtd"
   xmlns="http://www.w3.org/2000/svg"
   xmlns:svg="http://www.w3.org/2000/svg">
  <sodipodi:namedview
     id="namedview838"
     pagecolor="#ffffff"
     bordercolor="#666666"
     borderopacity="1.0"
     inkscape:showpageshadow="2"
     inkscape:pageopacity="0.0"
     inkscape:pagecheckerboard="0"
     inkscape:deskcolor="#d1d1d1"
     inkscape:document-units="mm"
     showgrid="false"
     inkscape:zoom="0.44542649"
     inkscape:cx="1034.9631"
     inkscape:cy="455.74299"
     inkscape:window-width="1366"
     inkscape:window-height="685"
     inkscape:window-x="0"
     inkscape:window-y="27"
     inkscape:window-maximized="1"
     inkscape:current-layer="layer1" />
  <defs
     id="defs833" />
  <g
     inkscape:label="Layer 1"
     inkscape:groupmode="layer"
     id="layer1"
     transform="translate(168.83914,-27.773809)">
    <path
       d="m -159.11943,32.669647 c 0,-2.664524 -2.15871,-4.825282 -4.81967,-4.825282 -2.66526,0 -4.82948,2.160758 -4.82948,4.825282 0,2.665935 2.16422,4.825988 4.82948,4.825988 2.66096,0 4.81967,-2.160053 4.81967,-4.825988 z"
       style="fill:none;stroke:#9c9a9b;stroke-width:0.141111;stroke-linecap:round;stroke-linejoin:round;stroke-miterlimit:10;stroke-dasharray:none;stroke-opacity:1"
       id="path732" />
    <path
       d="m -161.77905,29.500652 c -0.0172,-0.122061 -0.12731,-0.214135 -0.25012,-0.214135 -0.2275,0 -0.31294,0.206021 -0.31294,0.420157 0,0.203905 0.0854,0.409221 0.31294,0.409221 0.15381,0 0.23993,-0.111477 0.25965,-0.274108 h 0.24486 c -0.0265,0.306564 -0.22271,0.500944 -0.50451,0.500944 -0.35415,0 -0.56444,-0.28328 -0.56444,-0.636057 0,-0.363713 0.21029,-0.646287 0.56444,-0.646287 0.25012,0 0.46359,0.157691 0.4946,0.440265"
       style="fill:#7b7979;fill-opacity:1;fill-rule:nonzero;stroke:none;stroke-width:0.0352777"
       id="path734" />
  </g>
</svg>
