<?xml version="1.0" encoding="UTF-8" standalone="no"?>
<!-- Created with Inkscape (http://www.inkscape.org/) -->

<svg
   width="59.999905mm"
   height="20.752201mm"
   viewBox="0 0 59.999905 20.752201"
   version="1.1"
   id="svg743"
   inkscape:version="1.2.2 (b0a8486541, 2022-12-01)"
   sodipodi:docname="get.svg"
   xmlns:inkscape="http://www.inkscape.org/namespaces/inkscape"
   xmlns:sodipodi="http://sodipodi.sourceforge.net/DTD/sodipodi-0.dtd"
   xmlns="http://www.w3.org/2000/svg"
   xmlns:svg="http://www.w3.org/2000/svg">
  <sodipodi:namedview
     id="namedview745"
     pagecolor="#ffffff"
     bordercolor="#666666"
     borderopacity="1.0"
     inkscape:showpageshadow="2"
     inkscape:pageopacity="0.0"
     inkscape:pagecheckerboard="0"
     inkscape:deskcolor="#d1d1d1"
     inkscape:document-units="mm"
     showgrid="false"
     inkscape:zoom="0.44542649"
     inkscape:cx="1149.4602"
     inkscape:cy="480.43843"
     inkscape:window-width="1366"
     inkscape:window-height="685"
     inkscape:window-x="0"
     inkscape:window-y="27"
     inkscape:window-maximized="1"
     inkscape:current-layer="layer1" />
  <defs
     id="defs740">
    <clipPath
       clipPathUnits="userSpaceOnUse"
       id="clipPath746">
      <path
         d="m 283.98,791.18 h 713.699 v 357.172 H 283.98 Z"
         id="path744" />
    </clipPath>
    <clipPath
       clipPathUnits="userSpaceOnUse"
       id="clipPath593">
      <path
         d="m 283.98,791.18 h 713.699 v 357.172 H 283.98 Z"
         id="path591" />
    </clipPath>
    <clipPath
       clipPathUnits="userSpaceOnUse"
       id="clipPath597">
      <path
         d="m 283.98,791.18 h 713.699 v 357.172 H 283.98 Z"
         id="path595" />
    </clipPath>
    <clipPath
       clipPathUnits="userSpaceOnUse"
       id="clipPath850">
      <path
         d="m 1140.6,804.719 h 332.219 v 332.293 H 1140.6 Z"
         id="path848" />
    </clipPath>
  </defs>
  <g
     inkscape:label="Layer 1"
     inkscape:groupmode="layer"
     id="layer1"
     transform="translate(198.69595,-21.105904)">
    <text
       xml:space="preserve"
       transform="scale(1,-1)"
       style="font-variant:normal;font-weight:normal;font-size:0.0352777px;font-family:Arial;-inkscape-font-specification:Arial;writing-mode:lr-tb;fill:#231f20;fill-opacity:1;fill-rule:nonzero;stroke:none;stroke-width:0.352777"
       id="text730"
       x="-166.00978"
       y="-21.106403"><tspan
         x="-166.00978 -163.89311 -161.77646 -159.65979 -148.22983 -146.11316 -143.99651 -141.87984"
         y="-21.106403"
         sodipodi:role="line"
         id="tspan728"
         style="stroke-width:0.352777">✾✿❀❁✾✿❂❃</tspan></text>
    <path
       d="m -193.30026,23.230489 -0.43283,-0.19438 c 0,0 -0.35884,-0.173566 -0.66008,0.06103 -0.24807,0.192617 -0.69356,0.507999 -1.4213,1.660874 -0.71508,1.157461 -0.77269,1.648174 -0.82133,1.931101 -0.0595,0.343252 0.31005,0.498826 0.31005,0.498826 l 0.43215,0.19438"
       style="fill:#9c9a9b;fill-opacity:1;fill-rule:nonzero;stroke:none;stroke-width:0.0352777"
       id="path732" />
    <path
       d="m -178.85472,23.230489 0.43282,-0.19438 c 0,0 0.35871,-0.173566 0.66008,0.06103 0.24765,0.192617 0.69356,0.507999 1.42088,1.660874 0.7155,1.157461 0.77297,1.648174 0.82134,1.931101 0.0597,0.343252 -0.31006,0.498826 -0.31006,0.498826 l -0.4319,0.19438"
       style="fill:#9c9a9b;fill-opacity:1;fill-rule:nonzero;stroke:none;stroke-width:0.0352777"
       id="path734" />
    <path
       d="m -193.30026,35.08591 -0.43283,0.194697 c 0,0 -0.35884,0.173637 -0.66008,-0.06103 -0.24807,-0.192511 -0.69356,-0.508387 -1.4213,-1.660839 -0.71508,-1.157813 -0.77269,-1.648103 -0.82133,-1.931453 -0.0595,-0.342829 0.31005,-0.498403 0.31005,-0.498403 l 0.43215,-0.194451"
       style="fill:#9c9a9b;fill-opacity:1;fill-rule:nonzero;stroke:none;stroke-width:0.0352777"
       id="path736" />
    <path
       d="m -178.85472,35.08591 0.43282,0.194697 c 0,0 0.35871,0.173637 0.66008,-0.06103 0.24765,-0.192511 0.69356,-0.508387 1.42088,-1.660839 0.7155,-1.157813 0.77297,-1.648103 0.82134,-1.931453 0.0597,-0.342829 -0.31006,-0.498403 -0.31006,-0.498403 l -0.4319,-0.194451"
       style="fill:#9c9a9b;fill-opacity:1;fill-rule:nonzero;stroke:none;stroke-width:0.0352777"
       id="path738" />
    <path
       d="M 934.09,969.762 C 934.09,832.25 802.941,720.77 641.141,720.77 c -161.782,0 -292.93,111.48 -292.93,248.992 0,137.508 131.148,248.998 292.93,248.998 161.8,0 292.949,-111.49 292.949,-248.998"
       style="fill:#ffffff;fill-opacity:1;fill-rule:nonzero;stroke:none"
       id="path748"
       clip-path="url(#clipPath746)"
       transform="matrix(0.03527769,0,0,-0.03527769,-208.6958,63.369092)" />
    <path
       d="M 934.09,969.762 C 934.09,832.25 802.941,720.77 641.141,720.77 c -161.782,0 -292.93,111.48 -292.93,248.992 0,137.508 131.148,248.998 292.93,248.998 161.8,0 292.949,-111.49 292.949,-248.998 z"
       style="fill:none;stroke:#9c9a9b;stroke-width:6;stroke-linecap:butt;stroke-linejoin:miter;stroke-miterlimit:10;stroke-dasharray:none;stroke-opacity:1"
       id="path750"
       clip-path="url(#clipPath746)"
       transform="matrix(0.03527769,0,0,-0.03527769,-208.6958,63.369092)" />
    <path
       d="m 910.609,969.762 c 0,-126.5 -120.64,-229.051 -269.468,-229.051 -148.821,0 -269.461,102.551 -269.461,229.051 0,126.498 120.64,229.048 269.461,229.048 148.828,0 269.468,-102.55 269.468,-229.048 z"
       style="fill:none;stroke:#9c9a9b;stroke-width:4;stroke-linecap:butt;stroke-linejoin:miter;stroke-miterlimit:10;stroke-dasharray:none;stroke-opacity:1"
       id="path752"
       clip-path="url(#clipPath746)"
       transform="matrix(0.03527769,0,0,-0.03527769,-208.6958,63.369092)" />
    <path
       d="m -198.69595,24.169934 c 0,0.656518 0.54045,1.197325 1.19722,1.197325 0.65623,0 1.1963,-0.540807 1.1963,-1.197325 0,-0.656518 -0.54007,-1.196266 -1.1963,-1.196266 -0.65677,0 -1.19722,0.539748 -1.19722,1.196266 m 1.19722,-1.084789 c 0.59767,0 1.08479,0.487185 1.08479,1.084789 0,0.596193 -0.48892,1.084789 -1.08479,1.084789 -0.59655,0 -1.08574,-0.488596 -1.08574,-1.084789 0,-0.597604 0.48686,-1.084789 1.08574,-1.084789 m 0.28582,1.397349 0.1422,0.414513 h 0.2092 l -0.51442,-1.420632 h -0.21897 l -0.53343,1.420632 h 0.19858 l 0.1488,-0.414513 z m -0.51015,-0.170391 0.22835,-0.624062 h 0.005 l 0.20919,0.624062"
       style="fill:#231f20;fill-opacity:1;fill-rule:nonzero;stroke:none;stroke-width:0.0352777"
       id="path754" />
    <path
       d="m -175.89362,24.17064 c 0,0.656517 0.54046,1.196619 1.19712,1.196619 0.65676,0 1.19655,-0.540102 1.19655,-1.196619 0,-0.656518 -0.53979,-1.197325 -1.19655,-1.197325 -0.65666,0 -1.19712,0.540807 -1.19712,1.197325 m 1.19712,-1.092198 c 0.59859,0 1.08507,0.493535 1.08507,1.092198 0,0.596192 -0.48895,1.084789 -1.08507,1.084789 -0.59588,0 -1.08479,-0.488597 -1.08479,-1.084789 0,-0.598663 0.48644,-1.092198 1.08479,-1.092198 m -0.24462,1.184978 h 0.37966 c 0.156,0 0.33087,0.03951 0.33087,0.239535 0,0.15875 -0.10019,0.258939 -0.30085,0.258939 h -0.40968 z m -0.19071,0.663926 h 0.61239 c 0.31432,0 0.48189,-0.191205 0.48189,-0.419099 0,-0.244827 -0.16549,-0.309385 -0.25866,-0.347485 0.15875,-0.07197 0.19128,-0.202494 0.19128,-0.295274 0,-0.195792 -0.13723,-0.358775 -0.40252,-0.358775 h -0.62438 z m 0.19071,-1.25765 h 0.34932 c 0.21445,0 0.29559,0.07691 0.29559,0.209903 0,0.172155 -0.11394,0.228246 -0.29763,0.228246 h -0.34728"
       style="fill:#231f20;fill-opacity:1;fill-rule:nonzero;stroke:none;stroke-width:0.0352777"
       id="path756" />
    <path
       d="m -198.69595,34.146077 c 0,0.657329 0.54045,1.19736 1.19722,1.19736 0.65623,0 1.1963,-0.540031 1.1963,-1.19736 0,-0.656483 -0.54007,-1.196549 -1.1963,-1.196549 -0.65677,0 -1.19722,0.540066 -1.19722,1.196549 m 1.80481,-0.251072 c -0.0283,-0.237454 -0.21911,-0.463302 -0.58456,-0.463302 -0.41423,0 -0.66396,0.302754 -0.66396,0.738362 0,0.546522 0.31683,0.756389 0.64093,0.756389 0.10625,0 0.54229,-0.02286 0.62166,-0.558798 h -0.18701 c -0.0652,0.330587 -0.28112,0.388478 -0.40502,0.388478 -0.35373,0 -0.47198,-0.255481 -0.47198,-0.590902 0,-0.374684 0.20892,-0.563067 0.46538,-0.563067 0.13723,0 0.34491,0.04367 0.39755,0.29284 z m -0.60759,-0.833717 c 0.59767,0 1.08479,0.486867 1.08479,1.084789 0,0.596263 -0.48892,1.085459 -1.08479,1.085459 -0.59655,0 -1.08574,-0.489196 -1.08574,-1.085459 0,-0.597922 0.48686,-1.084789 1.08574,-1.084789"
       style="fill:#231f20;fill-opacity:1;fill-rule:nonzero;stroke:none;stroke-width:0.0352777"
       id="path758" />
    <path
       d="m -175.89594,34.146077 c 0,0.657329 0.53964,1.19736 1.19654,1.19736 0.65691,0 1.19669,-0.540031 1.19669,-1.19736 0,-0.656483 -0.53978,-1.196549 -1.19669,-1.196549 -0.6569,0 -1.19654,0.540066 -1.19654,1.196549 m 1.19654,-1.091422 c 0.5986,0 1.08518,0.4935 1.08518,1.091422 0,0.596263 -0.48934,1.085459 -1.08518,1.085459 -0.59587,0 -1.08507,-0.489196 -1.08507,-1.085459 0,-0.597922 0.48673,-1.091422 1.08507,-1.091422 m -0.48397,1.843965 h 0.5679 c 0.46577,0 0.60575,-0.412043 0.60575,-0.731059 0,-0.410244 -0.2286,-0.689573 -0.59901,-0.689573 h -0.57464 z m 0.19085,-1.25772 h 0.35842 c 0.26074,0 0.42609,0.181751 0.42609,0.538373 0,0.358704 -0.16302,0.55386 -0.41229,0.55386 h -0.37222"
       style="fill:#231f20;fill-opacity:1;fill-rule:nonzero;stroke:none;stroke-width:0.0352777"
       id="path760" />
    <path
       d="m -180.27892,29.100414 c 0,-3.197287 -2.59086,-5.790197 -5.78377,-5.790197 -3.19785,0 -5.79503,2.59291 -5.79503,5.790197 0,3.198946 2.59718,5.791186 5.79503,5.791186 3.19291,0 5.78377,-2.59224 5.78377,-5.791186 z"
       style="fill:none;stroke:#9c9a9b;stroke-width:0.141111;stroke-linecap:round;stroke-linejoin:round;stroke-miterlimit:10;stroke-dasharray:none;stroke-opacity:1"
       id="path762" />
    <path
       d="m -181.85622,27.831053 h 0.50519 v -0.822687 h -0.50519 z"
       style="fill:#231f20;fill-opacity:1;fill-rule:nonzero;stroke:none;stroke-width:0.0352777"
       id="path764" />
    <path
       d="m -182.4153,27.831053 h 0.50547 v -0.822687 h -0.50547 z"
       style="fill:#231f20;fill-opacity:1;fill-rule:nonzero;stroke:none;stroke-width:0.0352777"
       id="path766" />
    <path
       d="m -182.9741,27.831053 h 0.50519 v -0.822687 h -0.50519 z"
       style="fill:#231f20;fill-opacity:1;fill-rule:nonzero;stroke:none;stroke-width:0.0352777"
       id="path768" />
    <path
       d="m -183.53399,27.831053 h 0.50629 v -0.822687 h -0.50629 z"
       style="fill:#231f20;fill-opacity:1;fill-rule:nonzero;stroke:none;stroke-width:0.0352777"
       id="path770" />
    <path
       d="m -184.09236,27.831053 h 0.50505 v -0.822687 h -0.50505 z"
       style="fill:#231f20;fill-opacity:1;fill-rule:nonzero;stroke:none;stroke-width:0.0352777"
       id="path772" />
    <path
       d="m -185.21105,27.831053 h 0.50518 v -0.822687 h -0.50518 z"
       style="fill:#231f20;fill-opacity:1;fill-rule:nonzero;stroke:none;stroke-width:0.0352777"
       id="path774" />
    <path
       d="m -185.77028,27.831053 h 0.5056 v -0.822687 h -0.5056 z"
       style="fill:#231f20;fill-opacity:1;fill-rule:nonzero;stroke:none;stroke-width:0.0352777"
       id="path776" />
    <path
       d="m -186.33017,27.831053 h 0.50629 v -0.822687 h -0.50629 z"
       style="fill:#231f20;fill-opacity:1;fill-rule:nonzero;stroke:none;stroke-width:0.0352777"
       id="path778" />
    <path
       d="m -186.88897,27.831053 h 0.50519 v -0.822687 h -0.50519 z"
       style="fill:#231f20;fill-opacity:1;fill-rule:nonzero;stroke:none;stroke-width:0.0352777"
       id="path780" />
    <path
       d="m -187.44872,27.831053 h 0.50546 v -0.822687 h -0.50546 z"
       style="fill:#231f20;fill-opacity:1;fill-rule:nonzero;stroke:none;stroke-width:0.0352777"
       id="path782" />
    <path
       d="m -188.56628,27.831053 h 0.50519 v -0.822687 h -0.50519 z"
       style="fill:#231f20;fill-opacity:1;fill-rule:nonzero;stroke:none;stroke-width:0.0352777"
       id="path784" />
    <path
       d="m -189.12621,27.831053 h 0.50519 v -0.822687 h -0.50519 z"
       style="fill:#231f20;fill-opacity:1;fill-rule:nonzero;stroke:none;stroke-width:0.0352777"
       id="path786" />
    <path
       d="m -189.68539,27.831053 h 0.5056 v -0.822687 h -0.5056 z"
       style="fill:#231f20;fill-opacity:1;fill-rule:nonzero;stroke:none;stroke-width:0.0352777"
       id="path788" />
    <path
       d="m -190.24832,27.831053 h 0.50684 v -0.822687 h -0.50684 z"
       style="fill:#231f20;fill-opacity:1;fill-rule:nonzero;stroke:none;stroke-width:0.0352777"
       id="path790" />
    <path
       d="m -182.9741,28.708338 h 0.50519 V 27.88579 h -0.50519 z"
       style="fill:#231f20;fill-opacity:1;fill-rule:nonzero;stroke:none;stroke-width:0.0352777"
       id="path792" />
    <path
       d="m -187.44872,28.708338 h 0.50546 V 27.88579 h -0.50546 z"
       style="fill:#231f20;fill-opacity:1;fill-rule:nonzero;stroke:none;stroke-width:0.0352777"
       id="path794" />
    <path
       d="m -190.80726,28.708338 h 0.50519 V 27.88579 h -0.50519 z"
       style="fill:#231f20;fill-opacity:1;fill-rule:nonzero;stroke:none;stroke-width:0.0352777"
       id="path796" />
    <path
       d="m -182.9741,29.583966 h 0.50519 v -0.821861 h -0.50519 z"
       style="fill:#231f20;fill-opacity:1;fill-rule:nonzero;stroke:none;stroke-width:0.0352777"
       id="path798" />
    <path
       d="m -185.77028,29.583966 h 0.5056 v -0.821861 h -0.5056 z"
       style="fill:#231f20;fill-opacity:1;fill-rule:nonzero;stroke:none;stroke-width:0.0352777"
       id="path800" />
    <path
       d="m -186.33017,29.583966 h 0.50629 v -0.821861 h -0.50629 z"
       style="fill:#231f20;fill-opacity:1;fill-rule:nonzero;stroke:none;stroke-width:0.0352777"
       id="path802" />
    <path
       d="m -186.88897,29.583966 h 0.50519 v -0.821861 h -0.50519 z"
       style="fill:#231f20;fill-opacity:1;fill-rule:nonzero;stroke:none;stroke-width:0.0352777"
       id="path804" />
    <path
       d="m -187.44872,29.583966 h 0.50546 v -0.821861 h -0.50546 z"
       style="fill:#231f20;fill-opacity:1;fill-rule:nonzero;stroke:none;stroke-width:0.0352777"
       id="path806" />
    <path
       d="m -188.56628,29.583966 h 0.50519 v -0.821861 h -0.50519 z"
       style="fill:#231f20;fill-opacity:1;fill-rule:nonzero;stroke:none;stroke-width:0.0352777"
       id="path808" />
    <path
       d="m -189.12621,29.583966 h 0.50519 v -0.821861 h -0.50519 z"
       style="fill:#231f20;fill-opacity:1;fill-rule:nonzero;stroke:none;stroke-width:0.0352777"
       id="path810" />
    <path
       d="m -189.68539,29.583966 h 0.5056 v -0.821861 h -0.5056 z"
       style="fill:#231f20;fill-opacity:1;fill-rule:nonzero;stroke:none;stroke-width:0.0352777"
       id="path812" />
    <path
       d="m -190.80726,29.583966 h 0.50519 v -0.821861 h -0.50519 z"
       style="fill:#231f20;fill-opacity:1;fill-rule:nonzero;stroke:none;stroke-width:0.0352777"
       id="path814" />
    <path
       d="m -182.9741,30.461357 h 0.50519 v -0.822686 h -0.50519 z"
       style="fill:#231f20;fill-opacity:1;fill-rule:nonzero;stroke:none;stroke-width:0.0352777"
       id="path816" />
    <path
       d="m -187.44872,30.461357 h 0.50546 v -0.822686 h -0.50546 z"
       style="fill:#231f20;fill-opacity:1;fill-rule:nonzero;stroke:none;stroke-width:0.0352777"
       id="path818" />
    <path
       d="m -188.56628,30.461357 h 0.50519 v -0.822686 h -0.50519 z"
       style="fill:#231f20;fill-opacity:1;fill-rule:nonzero;stroke:none;stroke-width:0.0352777"
       id="path820" />
    <path
       d="m -190.80726,30.461357 h 0.50519 v -0.822686 h -0.50519 z"
       style="fill:#231f20;fill-opacity:1;fill-rule:nonzero;stroke:none;stroke-width:0.0352777"
       id="path822" />
    <path
       d="m -182.9741,31.337655 h 0.50519 v -0.821998 h -0.50519 z"
       style="fill:#231f20;fill-opacity:1;fill-rule:nonzero;stroke:none;stroke-width:0.0352777"
       id="path824" />
    <path
       d="m -185.21105,31.337655 h 0.50518 v -0.821998 h -0.50518 z"
       style="fill:#231f20;fill-opacity:1;fill-rule:nonzero;stroke:none;stroke-width:0.0352777"
       id="path826" />
    <path
       d="m -185.77028,31.337655 h 0.5056 v -0.821998 h -0.5056 z"
       style="fill:#231f20;fill-opacity:1;fill-rule:nonzero;stroke:none;stroke-width:0.0352777"
       id="path828" />
    <path
       d="m -186.33017,31.337655 h 0.50629 v -0.821998 h -0.50629 z"
       style="fill:#231f20;fill-opacity:1;fill-rule:nonzero;stroke:none;stroke-width:0.0352777"
       id="path830" />
    <path
       d="m -186.88897,31.337655 h 0.50519 v -0.821998 h -0.50519 z"
       style="fill:#231f20;fill-opacity:1;fill-rule:nonzero;stroke:none;stroke-width:0.0352777"
       id="path832" />
    <path
       d="m -187.44872,31.337655 h 0.50546 v -0.821998 h -0.50546 z"
       style="fill:#231f20;fill-opacity:1;fill-rule:nonzero;stroke:none;stroke-width:0.0352777"
       id="path834" />
    <path
       d="m -188.56628,31.337655 h 0.50519 v -0.821998 h -0.50519 z"
       style="fill:#231f20;fill-opacity:1;fill-rule:nonzero;stroke:none;stroke-width:0.0352777"
       id="path836" />
    <path
       d="m -189.12621,31.337655 h 0.50519 v -0.821998 h -0.50519 z"
       style="fill:#231f20;fill-opacity:1;fill-rule:nonzero;stroke:none;stroke-width:0.0352777"
       id="path838" />
    <path
       d="m -189.68539,31.337655 h 0.5056 v -0.821998 h -0.5056 z"
       style="fill:#231f20;fill-opacity:1;fill-rule:nonzero;stroke:none;stroke-width:0.0352777"
       id="path840" />
    <path
       d="m -190.24832,31.337655 h 0.50684 v -0.821998 h -0.50684 z"
       style="fill:#231f20;fill-opacity:1;fill-rule:nonzero;stroke:none;stroke-width:0.0352777"
       id="path842" />
    <path
       d="m 1470.83,970.879 c 0,90.631 -73.44,164.131 -163.95,164.131 -90.65,0 -164.27,-73.5 -164.27,-164.131 0,-90.68 73.62,-164.16 164.27,-164.16 90.51,0 163.95,73.48 163.95,164.16 z"
       style="fill:none;stroke:#9c9a9b;stroke-width:4;stroke-linecap:round;stroke-linejoin:round;stroke-miterlimit:10;stroke-dasharray:none;stroke-opacity:1"
       id="path852"
       clip-path="url(#clipPath850)"
       transform="matrix(0.03527769,0,0,-0.03527769,-208.6958,63.369092)" />
    <path
       d="m -158.38558,27.849397 h 0.50519 v -0.822686 h -0.50519 z"
       style="fill:#231f20;fill-opacity:1;fill-rule:nonzero;stroke:none;stroke-width:0.0352777"
       id="path854" />
    <path
       d="m -158.94473,27.849397 h 0.5056 v -0.822686 h -0.5056 z"
       style="fill:#231f20;fill-opacity:1;fill-rule:nonzero;stroke:none;stroke-width:0.0352777"
       id="path856" />
    <path
       d="m -159.50353,27.849397 h 0.50519 v -0.822686 h -0.50519 z"
       style="fill:#231f20;fill-opacity:1;fill-rule:nonzero;stroke:none;stroke-width:0.0352777"
       id="path858" />
    <path
       d="m -160.62183,27.849397 h 0.50518 v -0.822686 h -0.50518 z"
       style="fill:#231f20;fill-opacity:1;fill-rule:nonzero;stroke:none;stroke-width:0.0352777"
       id="path860" />
    <path
       d="m -161.18169,27.849397 h 0.50519 v -0.822686 h -0.50519 z"
       style="fill:#231f20;fill-opacity:1;fill-rule:nonzero;stroke:none;stroke-width:0.0352777"
       id="path862" />
    <path
       d="m -161.74049,27.849397 h 0.50519 v -0.822686 h -0.50519 z"
       style="fill:#231f20;fill-opacity:1;fill-rule:nonzero;stroke:none;stroke-width:0.0352777"
       id="path864" />
    <path
       d="m -163.97815,27.849397 h 0.5056 v -0.822686 h -0.5056 z"
       style="fill:#231f20;fill-opacity:1;fill-rule:nonzero;stroke:none;stroke-width:0.0352777"
       id="path866" />
    <path
       d="m -164.53695,27.849397 h 0.50519 v -0.822686 h -0.50519 z"
       style="fill:#231f20;fill-opacity:1;fill-rule:nonzero;stroke:none;stroke-width:0.0352777"
       id="path868" />
    <path
       d="m -165.09575,27.849397 h 0.50519 v -0.822686 h -0.50519 z"
       style="fill:#231f20;fill-opacity:1;fill-rule:nonzero;stroke:none;stroke-width:0.0352777"
       id="path870" />
    <path
       d="m -158.38558,28.726824 h 0.50519 v -0.822687 h -0.50519 z"
       style="fill:#231f20;fill-opacity:1;fill-rule:nonzero;stroke:none;stroke-width:0.0352777"
       id="path872" />
    <path
       d="m -159.50353,28.726824 h 0.50519 v -0.822687 h -0.50519 z"
       style="fill:#231f20;fill-opacity:1;fill-rule:nonzero;stroke:none;stroke-width:0.0352777"
       id="path874" />
    <path
       d="m -160.62183,28.726824 h 0.50518 v -0.822687 h -0.50518 z"
       style="fill:#231f20;fill-opacity:1;fill-rule:nonzero;stroke:none;stroke-width:0.0352777"
       id="path876" />
    <path
       d="m -165.09575,28.726824 h 0.50519 v -0.822687 h -0.50519 z"
       style="fill:#231f20;fill-opacity:1;fill-rule:nonzero;stroke:none;stroke-width:0.0352777"
       id="path878" />
    <path
       d="m -158.38558,29.602275 h 0.50519 v -0.821861 h -0.50519 z"
       style="fill:#231f20;fill-opacity:1;fill-rule:nonzero;stroke:none;stroke-width:0.0352777"
       id="path880" />
    <path
       d="m -159.50353,29.602275 h 0.50519 v -0.821861 h -0.50519 z"
       style="fill:#231f20;fill-opacity:1;fill-rule:nonzero;stroke:none;stroke-width:0.0352777"
       id="path882" />
    <path
       d="m -160.62183,29.602275 h 0.50518 v -0.821861 h -0.50518 z"
       style="fill:#231f20;fill-opacity:1;fill-rule:nonzero;stroke:none;stroke-width:0.0352777"
       id="path884" />
    <path
       d="m -161.18169,29.602275 h 0.50519 v -0.821861 h -0.50519 z"
       style="fill:#231f20;fill-opacity:1;fill-rule:nonzero;stroke:none;stroke-width:0.0352777"
       id="path886" />
    <path
       d="m -161.74049,29.602275 h 0.50519 v -0.821861 h -0.50519 z"
       style="fill:#231f20;fill-opacity:1;fill-rule:nonzero;stroke:none;stroke-width:0.0352777"
       id="path888" />
    <path
       d="m -163.97815,29.602275 h 0.5056 v -0.821861 h -0.5056 z"
       style="fill:#231f20;fill-opacity:1;fill-rule:nonzero;stroke:none;stroke-width:0.0352777"
       id="path890" />
    <path
       d="m -164.53695,29.602275 h 0.50519 v -0.821861 h -0.50519 z"
       style="fill:#231f20;fill-opacity:1;fill-rule:nonzero;stroke:none;stroke-width:0.0352777"
       id="path892" />
    <path
       d="m -165.09575,29.602275 h 0.50519 v -0.821861 h -0.50519 z"
       style="fill:#231f20;fill-opacity:1;fill-rule:nonzero;stroke:none;stroke-width:0.0352777"
       id="path894" />
    <path
       d="m -158.38558,30.479666 h 0.50519 V 29.65698 h -0.50519 z"
       style="fill:#231f20;fill-opacity:1;fill-rule:nonzero;stroke:none;stroke-width:0.0352777"
       id="path896" />
    <path
       d="m -159.50353,30.479666 h 0.50519 V 29.65698 h -0.50519 z"
       style="fill:#231f20;fill-opacity:1;fill-rule:nonzero;stroke:none;stroke-width:0.0352777"
       id="path898" />
    <path
       d="m -160.62183,30.479666 h 0.50518 V 29.65698 h -0.50518 z"
       style="fill:#231f20;fill-opacity:1;fill-rule:nonzero;stroke:none;stroke-width:0.0352777"
       id="path900" />
    <path
       d="m -162.8595,30.479666 h 0.50616 V 29.65698 h -0.50616 z"
       style="fill:#231f20;fill-opacity:1;fill-rule:nonzero;stroke:none;stroke-width:0.0352777"
       id="path902" />
    <path
       d="m -163.97815,30.479666 h 0.5056 V 29.65698 h -0.5056 z"
       style="fill:#231f20;fill-opacity:1;fill-rule:nonzero;stroke:none;stroke-width:0.0352777"
       id="path904" />
    <path
       d="m -165.09575,30.479666 h 0.50519 V 29.65698 h -0.50519 z"
       style="fill:#231f20;fill-opacity:1;fill-rule:nonzero;stroke:none;stroke-width:0.0352777"
       id="path906" />
    <path
       d="m -158.38558,31.355964 h 0.50519 v -0.821998 h -0.50519 z"
       style="fill:#231f20;fill-opacity:1;fill-rule:nonzero;stroke:none;stroke-width:0.0352777"
       id="path908" />
    <path
       d="m -158.94473,31.355964 h 0.5056 v -0.821998 h -0.5056 z"
       style="fill:#231f20;fill-opacity:1;fill-rule:nonzero;stroke:none;stroke-width:0.0352777"
       id="path910" />
    <path
       d="m -159.50353,31.355964 h 0.50519 v -0.821998 h -0.50519 z"
       style="fill:#231f20;fill-opacity:1;fill-rule:nonzero;stroke:none;stroke-width:0.0352777"
       id="path912" />
    <path
       d="m -160.62183,31.355964 h 0.50518 v -0.821998 h -0.50518 z"
       style="fill:#231f20;fill-opacity:1;fill-rule:nonzero;stroke:none;stroke-width:0.0352777"
       id="path914" />
    <path
       d="m -161.18169,31.355964 h 0.50519 v -0.821998 h -0.50519 z"
       style="fill:#231f20;fill-opacity:1;fill-rule:nonzero;stroke:none;stroke-width:0.0352777"
       id="path916" />
    <path
       d="m -161.74049,31.355964 h 0.50519 v -0.821998 h -0.50519 z"
       style="fill:#231f20;fill-opacity:1;fill-rule:nonzero;stroke:none;stroke-width:0.0352777"
       id="path918" />
    <path
       d="m -162.8595,31.355964 h 0.50616 v -0.821998 h -0.50616 z"
       style="fill:#231f20;fill-opacity:1;fill-rule:nonzero;stroke:none;stroke-width:0.0352777"
       id="path920" />
    <path
       d="m -163.97815,31.355964 h 0.5056 v -0.821998 h -0.5056 z"
       style="fill:#231f20;fill-opacity:1;fill-rule:nonzero;stroke:none;stroke-width:0.0352777"
       id="path922" />
    <path
       d="m -164.53695,31.355964 h 0.50519 v -0.821998 h -0.50519 z"
       style="fill:#231f20;fill-opacity:1;fill-rule:nonzero;stroke:none;stroke-width:0.0352777"
       id="path924" />
    <path
       d="m -165.09575,31.355964 h 0.50519 v -0.821998 h -0.50519 z"
       style="fill:#231f20;fill-opacity:1;fill-rule:nonzero;stroke:none;stroke-width:0.0352777"
       id="path926" />
    <path
       d="m -138.7666,29.118724 c 0,-3.197253 -2.59079,-5.790163 -5.78378,-5.790163 -3.19792,0 -5.79506,2.59291 -5.79506,5.790163 0,3.198981 2.59714,5.791185 5.79506,5.791185 3.19299,0 5.78378,-2.592204 5.78378,-5.791185 z"
       style="fill:none;stroke:#9c9a9b;stroke-width:0.141111;stroke-linecap:round;stroke-linejoin:round;stroke-miterlimit:10;stroke-dasharray:none;stroke-opacity:1"
       id="path928" />
    <path
       d="m -140.34351,27.849397 h 0.50519 v -0.822686 h -0.50519 z"
       style="fill:#231f20;fill-opacity:1;fill-rule:nonzero;stroke:none;stroke-width:0.0352777"
       id="path930" />
    <path
       d="m -140.90266,27.849397 h 0.5056 v -0.822686 h -0.5056 z"
       style="fill:#231f20;fill-opacity:1;fill-rule:nonzero;stroke:none;stroke-width:0.0352777"
       id="path932" />
    <path
       d="m -141.46146,27.849397 h 0.50519 v -0.822686 h -0.50519 z"
       style="fill:#231f20;fill-opacity:1;fill-rule:nonzero;stroke:none;stroke-width:0.0352777"
       id="path934" />
    <path
       d="m -142.57976,27.849397 h 0.50518 v -0.822686 h -0.50518 z"
       style="fill:#231f20;fill-opacity:1;fill-rule:nonzero;stroke:none;stroke-width:0.0352777"
       id="path936" />
    <path
       d="m -143.13962,27.849397 h 0.50519 v -0.822686 h -0.50519 z"
       style="fill:#231f20;fill-opacity:1;fill-rule:nonzero;stroke:none;stroke-width:0.0352777"
       id="path938" />
    <path
       d="m -143.69842,27.849397 h 0.50519 v -0.822686 h -0.50519 z"
       style="fill:#231f20;fill-opacity:1;fill-rule:nonzero;stroke:none;stroke-width:0.0352777"
       id="path940" />
    <path
       d="m -145.93608,27.849397 h 0.5056 v -0.822686 h -0.5056 z"
       style="fill:#231f20;fill-opacity:1;fill-rule:nonzero;stroke:none;stroke-width:0.0352777"
       id="path942" />
    <path
       d="m -147.05368,27.849397 h 0.50519 v -0.822686 h -0.50519 z"
       style="fill:#231f20;fill-opacity:1;fill-rule:nonzero;stroke:none;stroke-width:0.0352777"
       id="path944" />
    <path
       d="m -140.34351,28.726824 h 0.50519 v -0.822687 h -0.50519 z"
       style="fill:#231f20;fill-opacity:1;fill-rule:nonzero;stroke:none;stroke-width:0.0352777"
       id="path946" />
    <path
       d="m -142.57976,28.726824 h 0.50518 v -0.822687 h -0.50518 z"
       style="fill:#231f20;fill-opacity:1;fill-rule:nonzero;stroke:none;stroke-width:0.0352777"
       id="path948" />
    <path
       d="m -143.69842,28.726824 h 0.50519 v -0.822687 h -0.50519 z"
       style="fill:#231f20;fill-opacity:1;fill-rule:nonzero;stroke:none;stroke-width:0.0352777"
       id="path950" />
    <path
       d="m -144.81743,28.726824 h 0.50616 v -0.822687 h -0.50616 z"
       style="fill:#231f20;fill-opacity:1;fill-rule:nonzero;stroke:none;stroke-width:0.0352777"
       id="path952" />
    <path
       d="m -145.93608,28.726824 h 0.5056 v -0.822687 h -0.5056 z"
       style="fill:#231f20;fill-opacity:1;fill-rule:nonzero;stroke:none;stroke-width:0.0352777"
       id="path954" />
    <path
       d="m -147.05368,28.726824 h 0.50519 v -0.822687 h -0.50519 z"
       style="fill:#231f20;fill-opacity:1;fill-rule:nonzero;stroke:none;stroke-width:0.0352777"
       id="path956" />
    <path
       d="m -140.34351,29.602275 h 0.50519 v -0.821861 h -0.50519 z"
       style="fill:#231f20;fill-opacity:1;fill-rule:nonzero;stroke:none;stroke-width:0.0352777"
       id="path958" />
    <path
       d="m -140.90266,29.602275 h 0.5056 v -0.821861 h -0.5056 z"
       style="fill:#231f20;fill-opacity:1;fill-rule:nonzero;stroke:none;stroke-width:0.0352777"
       id="path960" />
    <path
       d="m -141.46146,29.602275 h 0.50519 v -0.821861 h -0.50519 z"
       style="fill:#231f20;fill-opacity:1;fill-rule:nonzero;stroke:none;stroke-width:0.0352777"
       id="path962" />
    <path
       d="m -142.57976,29.602275 h 0.50518 v -0.821861 h -0.50518 z"
       style="fill:#231f20;fill-opacity:1;fill-rule:nonzero;stroke:none;stroke-width:0.0352777"
       id="path964" />
    <path
       d="m -143.69842,29.602275 h 0.50519 v -0.821861 h -0.50519 z"
       style="fill:#231f20;fill-opacity:1;fill-rule:nonzero;stroke:none;stroke-width:0.0352777"
       id="path966" />
    <path
       d="m -145.93608,29.602275 h 0.5056 v -0.821861 h -0.5056 z"
       style="fill:#231f20;fill-opacity:1;fill-rule:nonzero;stroke:none;stroke-width:0.0352777"
       id="path968" />
    <path
       d="m -146.49488,29.602275 h 0.50518 v -0.821861 h -0.50518 z"
       style="fill:#231f20;fill-opacity:1;fill-rule:nonzero;stroke:none;stroke-width:0.0352777"
       id="path970" />
    <path
       d="m -147.05368,29.602275 h 0.50519 v -0.821861 h -0.50519 z"
       style="fill:#231f20;fill-opacity:1;fill-rule:nonzero;stroke:none;stroke-width:0.0352777"
       id="path972" />
    <path
       d="m -141.46146,30.479666 h 0.50519 V 29.65698 h -0.50519 z"
       style="fill:#231f20;fill-opacity:1;fill-rule:nonzero;stroke:none;stroke-width:0.0352777"
       id="path974" />
    <path
       d="m -142.57976,30.479666 h 0.50518 V 29.65698 h -0.50518 z"
       style="fill:#231f20;fill-opacity:1;fill-rule:nonzero;stroke:none;stroke-width:0.0352777"
       id="path976" />
    <path
       d="m -143.69842,30.479666 h 0.50519 V 29.65698 h -0.50519 z"
       style="fill:#231f20;fill-opacity:1;fill-rule:nonzero;stroke:none;stroke-width:0.0352777"
       id="path978" />
    <path
       d="m -144.81743,30.479666 h 0.50616 V 29.65698 h -0.50616 z"
       style="fill:#231f20;fill-opacity:1;fill-rule:nonzero;stroke:none;stroke-width:0.0352777"
       id="path980" />
    <path
       d="m -145.93608,30.479666 h 0.5056 V 29.65698 h -0.5056 z"
       style="fill:#231f20;fill-opacity:1;fill-rule:nonzero;stroke:none;stroke-width:0.0352777"
       id="path982" />
    <path
       d="m -140.34351,31.355964 h 0.50519 v -0.821998 h -0.50519 z"
       style="fill:#231f20;fill-opacity:1;fill-rule:nonzero;stroke:none;stroke-width:0.0352777"
       id="path984" />
    <path
       d="m -140.90266,31.355964 h 0.5056 v -0.821998 h -0.5056 z"
       style="fill:#231f20;fill-opacity:1;fill-rule:nonzero;stroke:none;stroke-width:0.0352777"
       id="path986" />
    <path
       d="m -141.46146,31.355964 h 0.50519 v -0.821998 h -0.50519 z"
       style="fill:#231f20;fill-opacity:1;fill-rule:nonzero;stroke:none;stroke-width:0.0352777"
       id="path988" />
    <path
       d="m -142.57976,31.355964 h 0.50518 v -0.821998 h -0.50518 z"
       style="fill:#231f20;fill-opacity:1;fill-rule:nonzero;stroke:none;stroke-width:0.0352777"
       id="path990" />
    <path
       d="m -143.13962,31.355964 h 0.50519 v -0.821998 h -0.50519 z"
       style="fill:#231f20;fill-opacity:1;fill-rule:nonzero;stroke:none;stroke-width:0.0352777"
       id="path992" />
    <path
       d="m -143.69842,31.355964 h 0.50519 v -0.821998 h -0.50519 z"
       style="fill:#231f20;fill-opacity:1;fill-rule:nonzero;stroke:none;stroke-width:0.0352777"
       id="path994" />
    <path
       d="m -145.93608,31.355964 h 0.5056 v -0.821998 h -0.5056 z"
       style="fill:#231f20;fill-opacity:1;fill-rule:nonzero;stroke:none;stroke-width:0.0352777"
       id="path996" />
    <path
       d="m -152.69317,27.363976 c 0,0.218369 0,0.436738 0,0.655107 v 0.05292 h -0.0529 c -1.07773,0 -2.15511,0 -3.23285,0 v 2.094437 c 1.07774,0 2.15512,0 3.23285,0 h 0.0529 v 0.05292 c 0,0.21844 0,0.436703 0,0.655142 0.49247,-0.585257 0.9853,-1.170231 1.47778,-1.755488 -0.49248,-0.584834 -0.98495,-1.169773 -1.47778,-1.75503"
       style="fill:#bdbcbc;fill-opacity:1;fill-rule:nonzero;stroke:none;stroke-width:0.0352777"
       id="path998" />
    <path
       d="m -152.69317,27.363976 c 0,0.218369 0,0.436738 0,0.655107 v 0.05292 h -0.0529 c -1.07773,0 -2.15511,0 -3.23285,0 v 2.094437 c 1.07774,0 2.15512,0 3.23285,0 h 0.0529 v 0.05292 c 0,0.21844 0,0.436703 0,0.655142 0.49247,-0.585257 0.9853,-1.170231 1.47778,-1.755488 -0.49248,-0.584834 -0.98495,-1.169773 -1.47778,-1.75503 z"
       style="fill:none;stroke:#4f4c4c;stroke-width:0.105833;stroke-linecap:butt;stroke-linejoin:miter;stroke-miterlimit:4;stroke-dasharray:none;stroke-opacity:1"
       id="path1000" />
    <path
       d="m -170.70032,27.363976 c 0,0.218369 0,0.436738 0,0.655107 v 0.05292 h -0.0529 c -1.07774,0 -2.15512,0 -3.23292,0 v 2.094437 c 1.0778,0 2.15518,0 3.23292,0 h 0.0529 v 0.05292 c 0,0.21844 0,0.436703 0,0.655142 0.49248,-0.585257 0.98531,-1.170231 1.47779,-1.755488 -0.49248,-0.584834 -0.98496,-1.169773 -1.47779,-1.75503"
       style="fill:#bdbcbc;fill-opacity:1;fill-rule:nonzero;stroke:none;stroke-width:0.0352777"
       id="path1002" />
    <path
       d="m -170.70032,27.363976 c 0,0.218369 0,0.436738 0,0.655107 v 0.05292 h -0.0529 c -1.07774,0 -2.15512,0 -3.23292,0 v 2.094437 c 1.0778,0 2.15518,0 3.23292,0 h 0.0529 v 0.05292 c 0,0.21844 0,0.436703 0,0.655142 0.49248,-0.585257 0.98531,-1.170231 1.47779,-1.755488 -0.49248,-0.584834 -0.98496,-1.169773 -1.47779,-1.75503 z"
       style="fill:none;stroke:#4f4c4c;stroke-width:0.105833;stroke-linecap:butt;stroke-linejoin:miter;stroke-miterlimit:4;stroke-dasharray:none;stroke-opacity:1"
       id="path1004" />
    <path
       d="m -143.50863,41.805181 c 0,-1.860052 0,-3.719574 0,-5.579802 -0.69814,0 -1.39629,0 -2.09443,0 0,1.144055 0,2.288499 0,3.432554 v 0.05292 h -39.44744 v -1.991108 h 0.0529 c 0.21826,0 0.4367,0 0.65511,0 -0.5854,-0.492794 -1.17023,-0.985306 -1.75549,-1.4781 -0.58497,0.492794 -1.16981,0.985306 -1.75507,1.4781 0.21844,0 0.43671,0 0.65515,0 h 0.0529 v 0.05292 c 0,1.344116 0,2.688548 0,4.032523 14.54496,0 29.09136,0 43.63635,0"
       style="fill:#bdbcbc;fill-opacity:1;fill-rule:nonzero;stroke:none;stroke-width:0.0352777"
       id="path1006" />
    <path
       d="m -143.50863,41.805181 c 0,-1.860052 0,-3.719574 0,-5.579802 -0.69814,0 -1.39629,0 -2.09443,0 0,1.144055 0,2.288499 0,3.432554 v 0.05292 h -39.44744 v -1.991108 h 0.0529 c 0.21826,0 0.4367,0 0.65511,0 -0.5854,-0.492794 -1.17023,-0.985306 -1.75549,-1.4781 -0.58497,0.492794 -1.16981,0.985306 -1.75507,1.4781 0.21844,0 0.43671,0 0.65515,0 h 0.0529 v 0.05292 c 0,1.344116 0,2.688548 0,4.032523 14.54496,0 29.09136,0 43.63635,0 z"
       style="fill:none;stroke:#4f4c4c;stroke-width:0.105833;stroke-linecap:butt;stroke-linejoin:miter;stroke-miterlimit:4;stroke-dasharray:none;stroke-opacity:1"
       id="path1008" />
    <path
       d="m -161.74578,22.069853 v 4.224503"
       style="fill:none;stroke:#ffffff;stroke-width:0.423332;stroke-linecap:round;stroke-linejoin:round;stroke-miterlimit:4;stroke-dasharray:none;stroke-opacity:1"
       id="path1010" />
    <path
       d="m -161.74578,22.069853 v 4.224503"
       style="fill:none;stroke:#231f20;stroke-width:0.0881942;stroke-linecap:round;stroke-linejoin:round;stroke-miterlimit:4;stroke-dasharray:none;stroke-opacity:1"
       id="path1012" />
    <path
       d="m -143.96865,22.069853 v 4.224503"
       style="fill:none;stroke:#ffffff;stroke-width:0.423332;stroke-linecap:round;stroke-linejoin:round;stroke-miterlimit:4;stroke-dasharray:none;stroke-opacity:1"
       id="path1014" />
    <path
       d="m -143.96865,22.069853 v 4.224503"
       style="fill:none;stroke:#231f20;stroke-width:0.0881942;stroke-linecap:round;stroke-linejoin:round;stroke-miterlimit:4;stroke-dasharray:none;stroke-opacity:1"
       id="path1016" />
  </g>
</svg>
