<?xml version="1.0" encoding="UTF-8" standalone="no"?>
<!-- Created with Inkscape (http://www.inkscape.org/) -->

<svg
   width="59.999947mm"
   height="25.148466mm"
   viewBox="0 0 59.999947 25.148466"
   version="1.1"
   id="svg2285"
   inkscape:version="1.2.2 (b0a8486541, 2022-12-01)"
   sodipodi:docname="get4:02.svg"
   xmlns:inkscape="http://www.inkscape.org/namespaces/inkscape"
   xmlns:sodipodi="http://sodipodi.sourceforge.net/DTD/sodipodi-0.dtd"
   xmlns="http://www.w3.org/2000/svg"
   xmlns:svg="http://www.w3.org/2000/svg">
  <sodipodi:namedview
     id="namedview2287"
     pagecolor="#ffffff"
     bordercolor="#666666"
     borderopacity="1.0"
     inkscape:showpageshadow="2"
     inkscape:pageopacity="0.0"
     inkscape:pagecheckerboard="0"
     inkscape:deskcolor="#d1d1d1"
     inkscape:document-units="mm"
     showgrid="false"
     inkscape:zoom="0.44542649"
     inkscape:cx="1135.9899"
     inkscape:cy="489.41858"
     inkscape:window-width="1366"
     inkscape:window-height="685"
     inkscape:window-x="0"
     inkscape:window-y="27"
     inkscape:window-maximized="1"
     inkscape:current-layer="layer1" />
  <defs
     id="defs2282">
    <clipPath
       clipPathUnits="userSpaceOnUse"
       id="clipPath252">
      <path
         d="m 2211.54,1414.56 h 713.699 v 357.172 H 2211.54 Z"
         id="path250" />
    </clipPath>
    <clipPath
       clipPathUnits="userSpaceOnUse"
       id="clipPath2125">
      <path
         d="m 2211.54,1414.56 h 713.699 v 357.172 H 2211.54 Z"
         id="path2123" />
    </clipPath>
    <clipPath
       clipPathUnits="userSpaceOnUse"
       id="clipPath2129">
      <path
         d="m 2211.54,1414.56 h 713.699 v 357.172 H 2211.54 Z"
         id="path2127" />
    </clipPath>
    <clipPath
       clipPathUnits="userSpaceOnUse"
       id="clipPath356">
      <path
         d="m 3068.16,1428.1 h 332.219 v 332.289 H 3068.16 Z"
         id="path354" />
    </clipPath>
  </defs>
  <g
     inkscape:label="Layer 1"
     inkscape:groupmode="layer"
     id="layer1"
     transform="translate(195.13197,-18.90777)">
    <text
       xml:space="preserve"
       transform="scale(1,-1)"
       style="font-variant:normal;font-weight:normal;font-size:0.0352777px;font-family:Arial;-inkscape-font-specification:Arial;writing-mode:lr-tb;fill:#231f20;fill-opacity:1;fill-rule:nonzero;stroke:none;stroke-width:0.352777"
       id="text216"
       x="-189.66434"
       y="-18.90827"><tspan
         x="-189.66434"
         y="-18.90827"
         id="tspan214"
         style="stroke-width:0.352777">✌</tspan></text>
    <text
       xml:space="preserve"
       transform="scale(1,-1)"
       style="font-variant:normal;font-weight:normal;font-size:0.0352777px;font-family:Arial;-inkscape-font-specification:Arial;writing-mode:lr-tb;fill:#231f20;fill-opacity:1;fill-rule:nonzero;stroke:none;stroke-width:0.352777"
       id="text220"
       x="-187.19498"
       y="-18.90827"><tspan
         x="-187.19498 -184.72554"
         y="-18.90827"
         sodipodi:role="line"
         id="tspan218"
         style="stroke-width:0.352777">✣✼</tspan></text>
    <text
       xml:space="preserve"
       transform="scale(1,-1)"
       style="font-variant:normal;font-weight:normal;font-size:0.0352777px;font-family:Arial;-inkscape-font-specification:Arial;writing-mode:lr-tb;fill:#231f20;fill-opacity:1;fill-rule:nonzero;stroke:none;stroke-width:0.352777"
       id="text224"
       x="-182.29146"
       y="-18.943724"><tspan
         x="-182.29146"
         y="-18.943724"
         id="tspan222"
         style="stroke-width:0.352777">➤</tspan></text>
    <text
       xml:space="preserve"
       transform="scale(1,-1)"
       style="font-variant:normal;font-weight:normal;font-size:0.0352777px;font-family:Arial;-inkscape-font-specification:Arial;writing-mode:lr-tb;fill:#231f20;fill-opacity:1;fill-rule:nonzero;stroke:none;stroke-width:0.352777"
       id="text228"
       x="-179.82184"
       y="-18.943724"><tspan
         x="-179.82184"
         y="-18.943724"
         id="tspan226"
         style="stroke-width:0.352777">✤</tspan></text>
    <text
       xml:space="preserve"
       transform="scale(1,-1)"
       style="font-variant:normal;font-weight:normal;font-size:0.0352777px;font-family:Arial;-inkscape-font-specification:Arial;writing-mode:lr-tb;fill:#231f20;fill-opacity:1;fill-rule:nonzero;stroke:none;stroke-width:0.352777"
       id="text232"
       x="-177.35248"
       y="-18.90827"><tspan
         x="-177.35248 -174.88304 -172.44888 -170.01472 -167.51001"
         y="-18.90827"
         sodipodi:role="line"
         id="tspan230"
         style="stroke-width:0.352777">➝②✢★✴</tspan></text>
    <text
       xml:space="preserve"
       transform="scale(1,-1)"
       style="font-variant:normal;font-weight:normal;font-size:0.0352777px;font-family:Arial;-inkscape-font-specification:Arial;writing-mode:lr-tb;fill:#231f20;fill-opacity:1;fill-rule:nonzero;stroke:none;stroke-width:0.352777"
       id="text236"
       x="-162.46516"
       y="-23.318081"><tspan
         x="-162.46516 -160.34851 -158.23184 -156.11519 -144.68521 -142.56856 -140.45189 -138.33524"
         y="-23.318081"
         sodipodi:role="line"
         id="tspan234"
         style="stroke-width:0.352777">✾✿❀❁✾✿❂❃</tspan></text>
    <path
       d="m -189.73625,25.428551 -0.43286,-0.19438 c 0,0 -0.35877,-0.173566 -0.66004,0.06103 -0.248,0.192616 -0.69356,0.507999 -1.42134,1.660874 -0.71508,1.157461 -0.77258,1.648174 -0.82126,1.931101 -0.0596,0.343252 0.31009,0.498826 0.31009,0.498826 l 0.43215,0.19438"
       style="fill:#9c9a9b;fill-opacity:1;fill-rule:nonzero;stroke:none;stroke-width:0.0352777"
       id="path238" />
    <path
       d="m -175.29074,25.428551 0.43286,-0.19438 c 0,0 0.35877,-0.173566 0.66004,0.06103 0.24765,0.192616 0.69356,0.507999 1.42099,1.660874 0.71543,1.157461 0.77293,1.648174 0.82126,1.931101 0.0596,0.343252 -0.31009,0.498826 -0.31009,0.498826 l -0.4318,0.19438"
       style="fill:#9c9a9b;fill-opacity:1;fill-rule:nonzero;stroke:none;stroke-width:0.0352777"
       id="path240" />
    <path
       d="m -189.73625,37.284324 -0.43286,0.194733 c 0,0 -0.35877,0.173566 -0.66004,-0.06103 -0.248,-0.192617 -0.69356,-0.508352 -1.42134,-1.660874 -0.71508,-1.157814 -0.77258,-1.648174 -0.82126,-1.931454 -0.0596,-0.342899 0.31009,-0.498473 0.31009,-0.498473 l 0.43215,-0.19438"
       style="fill:#9c9a9b;fill-opacity:1;fill-rule:nonzero;stroke:none;stroke-width:0.0352777"
       id="path242" />
    <path
       d="m -175.29074,37.284324 0.43286,0.194733 c 0,0 0.35877,0.173566 0.66004,-0.06103 0.24765,-0.192617 0.69356,-0.508352 1.42099,-1.660874 0.71543,-1.157814 0.77293,-1.648174 0.82126,-1.931454 0.0596,-0.342899 -0.31009,-0.498473 -0.31009,-0.498473 l -0.4318,-0.19438"
       style="fill:#9c9a9b;fill-opacity:1;fill-rule:nonzero;stroke:none;stroke-width:0.0352777"
       id="path244" />
    <path
       d="m 2861.65,1593.14 c 0,-137.51 -131.15,-248.99 -292.95,-248.99 -161.78,0 -292.93,111.48 -292.93,248.99 0,137.51 131.15,249 292.93,249 161.8,0 292.95,-111.49 292.95,-249"
       style="fill:#ffffff;fill-opacity:1;fill-rule:nonzero;stroke:none"
       id="path254"
       clip-path="url(#clipPath252)"
       transform="matrix(0.03527769,0,0,-0.03527769,-273.13165,87.558913)" />
    <path
       d="m 2861.65,1593.14 c 0,-137.51 -131.15,-248.99 -292.95,-248.99 -161.78,0 -292.93,111.48 -292.93,248.99 0,137.51 131.15,249 292.93,249 161.8,0 292.95,-111.49 292.95,-249 z"
       style="fill:none;stroke:#9c9a9b;stroke-width:6;stroke-linecap:butt;stroke-linejoin:miter;stroke-miterlimit:10;stroke-dasharray:none;stroke-opacity:1"
       id="path256"
       clip-path="url(#clipPath252)"
       transform="matrix(0.03527769,0,0,-0.03527769,-273.13165,87.558913)" />
    <path
       d="m 2838.17,1593.14 c 0,-126.5 -120.64,-229.05 -269.47,-229.05 -148.82,0 -269.46,102.55 -269.46,229.05 0,126.5 120.64,229.05 269.46,229.05 148.83,0 269.47,-102.55 269.47,-229.05 z"
       style="fill:none;stroke:#9c9a9b;stroke-width:4;stroke-linecap:butt;stroke-linejoin:miter;stroke-miterlimit:10;stroke-dasharray:none;stroke-opacity:1"
       id="path258"
       clip-path="url(#clipPath252)"
       transform="matrix(0.03527769,0,0,-0.03527769,-273.13165,87.558913)" />
    <path
       d="m -195.13197,26.367996 c 0,0.656518 0.54045,1.197325 1.19732,1.197325 0.65617,0 1.19627,-0.540807 1.19627,-1.197325 0,-0.656518 -0.5401,-1.196267 -1.19627,-1.196267 -0.65687,0 -1.19732,0.539749 -1.19732,1.196267 m 1.19732,-1.084789 c 0.59761,0 1.08479,0.487185 1.08479,1.084789 0,0.596193 -0.48895,1.084789 -1.08479,1.084789 -0.59654,0 -1.08584,-0.488596 -1.08584,-1.084789 0,-0.597604 0.48683,-1.084789 1.08584,-1.084789 m 0.28575,1.397349 0.14217,0.414513 h 0.2092 l -0.51435,-1.420633 h -0.21908 l -0.53339,1.420633 h 0.19861 l 0.14887,-0.414513 z m -0.51011,-0.170391 0.22824,-0.624062 h 0.005 l 0.2092,0.624062"
       style="fill:#231f20;fill-opacity:1;fill-rule:nonzero;stroke:none;stroke-width:0.0352777"
       id="path260" />
    <path
       d="m -172.32953,26.369054 c 0,0.656518 0.54045,1.196619 1.19697,1.196619 0.65687,0 1.19662,-0.540101 1.19662,-1.196619 0,-0.656518 -0.53975,-1.197325 -1.19662,-1.197325 -0.65652,0 -1.19697,0.540807 -1.19697,1.197325 m 1.19697,-1.092197 c 0.59866,0 1.08514,0.493535 1.08514,1.092197 0,0.596193 -0.48895,1.084789 -1.08514,1.084789 -0.59584,0 -1.08479,-0.488596 -1.08479,-1.084789 0,-0.598662 0.48648,-1.092197 1.08479,-1.092197 m -0.24447,1.184977 h 0.37958 c 0.15593,0 0.33091,0.03951 0.33091,0.239536 0,0.15875 -0.10019,0.258938 -0.30092,0.258938 h -0.40957 z m -0.19086,0.663927 h 0.61242 c 0.31433,0 0.4819,-0.191205 0.4819,-0.419099 0,-0.244828 -0.16545,-0.309386 -0.25859,-0.347486 0.15875,-0.07197 0.19121,-0.202494 0.19121,-0.295274 0,-0.195791 -0.13723,-0.358774 -0.40252,-0.358774 h -0.62442 z m 0.19086,-1.25765 h 0.34925 c 0.21448,0 0.29562,0.07691 0.29562,0.209902 0,0.172155 -0.11394,0.228247 -0.29774,0.228247 h -0.34713"
       style="fill:#231f20;fill-opacity:1;fill-rule:nonzero;stroke:none;stroke-width:0.0352777"
       id="path262" />
    <path
       d="m -195.13197,36.344174 c 0,0.657223 0.54045,1.197325 1.19732,1.197325 0.65617,0 1.19627,-0.540102 1.19627,-1.197325 0,-0.656518 -0.5401,-1.196619 -1.19627,-1.196619 -0.65687,0 -1.19732,0.540101 -1.19732,1.196619 m 1.8048,-0.251177 c -0.0282,-0.237419 -0.21907,-0.463196 -0.58455,-0.463196 -0.41416,0 -0.66392,0.302682 -0.66392,0.738362 0,0.546451 0.31679,0.756353 0.64099,0.756353 0.10619,0 0.54222,-0.02293 0.6216,-0.558798 h -0.18698 c -0.0653,0.330552 -0.28116,0.388407 -0.40498,0.388407 -0.35384,0 -0.47202,-0.25541 -0.47202,-0.590901 0,-0.374649 0.20884,-0.563032 0.46531,-0.563032 0.13723,0 0.34502,0.04374 0.39758,0.292805 z m -0.60748,-0.833612 c 0.59761,0 1.08479,0.486832 1.08479,1.084789 0,0.596193 -0.48895,1.085494 -1.08479,1.085494 -0.59654,0 -1.08584,-0.489301 -1.08584,-1.085494 0,-0.597957 0.48683,-1.084789 1.08584,-1.084789"
       style="fill:#231f20;fill-opacity:1;fill-rule:nonzero;stroke:none;stroke-width:0.0352777"
       id="path264" />
    <path
       d="m -172.332,36.344174 c 0,0.657223 0.53975,1.197325 1.19662,1.197325 0.65687,0 1.19662,-0.540102 1.19662,-1.197325 0,-0.656518 -0.53975,-1.196619 -1.19662,-1.196619 -0.65687,0 -1.19662,0.540101 -1.19662,1.196619 m 1.19662,-1.091492 c 0.59866,0 1.08514,0.493535 1.08514,1.091492 0,0.596193 -0.4893,1.085494 -1.08514,1.085494 -0.59584,0 -1.08514,-0.489301 -1.08514,-1.085494 0,-0.597957 0.48683,-1.091492 1.08514,-1.091492 m -0.48401,1.843965 h 0.56797 c 0.46566,0 0.60572,-0.412044 0.60572,-0.730954 0,-0.410279 -0.2286,-0.689679 -0.59902,-0.689679 h -0.57467 z m 0.19085,-1.25765 h 0.35842 c 0.2607,0 0.42616,0.18168 0.42616,0.538338 0,0.358774 -0.16299,0.55386 -0.4124,0.55386 h -0.37218"
       style="fill:#231f20;fill-opacity:1;fill-rule:nonzero;stroke:none;stroke-width:0.0352777"
       id="path266" />
    <path
       d="m -176.71525,31.298759 c 0,-3.197218 -2.5908,-5.790128 -5.78378,-5.790128 -3.19792,0 -5.79507,2.59291 -5.79507,5.790128 0,3.19898 2.59715,5.791185 5.79507,5.791185 3.19298,0 5.78378,-2.592205 5.78378,-5.791185 z"
       style="fill:none;stroke:#9c9a9b;stroke-width:0.141111;stroke-linecap:round;stroke-linejoin:round;stroke-miterlimit:10;stroke-dasharray:none;stroke-opacity:1"
       id="path268" />
    <path
       d="m -178.29217,30.029467 h 0.50519 v -0.822548 h -0.50519 z"
       style="fill:#231f20;fill-opacity:1;fill-rule:nonzero;stroke:none;stroke-width:0.0352777"
       id="path270" />
    <path
       d="m -178.85132,30.029467 h 0.5056 v -0.822548 h -0.5056 z"
       style="fill:#231f20;fill-opacity:1;fill-rule:nonzero;stroke:none;stroke-width:0.0352777"
       id="path272" />
    <path
       d="m -179.41012,30.029467 h 0.50519 v -0.822548 h -0.50519 z"
       style="fill:#231f20;fill-opacity:1;fill-rule:nonzero;stroke:none;stroke-width:0.0352777"
       id="path274" />
    <path
       d="m -179.96997,30.029467 h 0.50629 v -0.822548 h -0.50629 z"
       style="fill:#231f20;fill-opacity:1;fill-rule:nonzero;stroke:none;stroke-width:0.0352777"
       id="path276" />
    <path
       d="m -180.52842,30.029467 h 0.50519 v -0.822548 h -0.50519 z"
       style="fill:#231f20;fill-opacity:1;fill-rule:nonzero;stroke:none;stroke-width:0.0352777"
       id="path278" />
    <path
       d="m -181.64707,30.029467 h 0.50518 v -0.822548 h -0.50518 z"
       style="fill:#231f20;fill-opacity:1;fill-rule:nonzero;stroke:none;stroke-width:0.0352777"
       id="path280" />
    <path
       d="m -182.20623,30.029467 h 0.50533 v -0.822548 h -0.50533 z"
       style="fill:#231f20;fill-opacity:1;fill-rule:nonzero;stroke:none;stroke-width:0.0352777"
       id="path282" />
    <path
       d="m -182.76608,30.029467 h 0.50615 v -0.822548 h -0.50615 z"
       style="fill:#231f20;fill-opacity:1;fill-rule:nonzero;stroke:none;stroke-width:0.0352777"
       id="path284" />
    <path
       d="m -183.32488,30.029467 h 0.50519 v -0.822548 h -0.50519 z"
       style="fill:#231f20;fill-opacity:1;fill-rule:nonzero;stroke:none;stroke-width:0.0352777"
       id="path286" />
    <path
       d="m -183.88474,30.029467 h 0.50546 v -0.822548 h -0.50546 z"
       style="fill:#231f20;fill-opacity:1;fill-rule:nonzero;stroke:none;stroke-width:0.0352777"
       id="path288" />
    <path
       d="m -185.00234,30.029467 h 0.50519 v -0.822548 h -0.50519 z"
       style="fill:#231f20;fill-opacity:1;fill-rule:nonzero;stroke:none;stroke-width:0.0352777"
       id="path290" />
    <path
       d="m -185.56219,30.029467 h 0.50518 v -0.822548 h -0.50518 z"
       style="fill:#231f20;fill-opacity:1;fill-rule:nonzero;stroke:none;stroke-width:0.0352777"
       id="path292" />
    <path
       d="m -186.12134,30.029467 h 0.50546 v -0.822548 h -0.50546 z"
       style="fill:#231f20;fill-opacity:1;fill-rule:nonzero;stroke:none;stroke-width:0.0352777"
       id="path294" />
    <path
       d="m -186.68438,30.029467 h 0.50698 v -0.822548 h -0.50698 z"
       style="fill:#231f20;fill-opacity:1;fill-rule:nonzero;stroke:none;stroke-width:0.0352777"
       id="path296" />
    <path
       d="m -179.41012,30.906823 h 0.50519 v -0.822686 h -0.50519 z"
       style="fill:#231f20;fill-opacity:1;fill-rule:nonzero;stroke:none;stroke-width:0.0352777"
       id="path298" />
    <path
       d="m -183.88474,30.906823 h 0.50546 v -0.822686 h -0.50546 z"
       style="fill:#231f20;fill-opacity:1;fill-rule:nonzero;stroke:none;stroke-width:0.0352777"
       id="path300" />
    <path
       d="m -187.24317,30.906823 h 0.50518 v -0.822686 h -0.50518 z"
       style="fill:#231f20;fill-opacity:1;fill-rule:nonzero;stroke:none;stroke-width:0.0352777"
       id="path302" />
    <path
       d="m -179.41012,31.782416 h 0.50519 v -0.821999 h -0.50519 z"
       style="fill:#231f20;fill-opacity:1;fill-rule:nonzero;stroke:none;stroke-width:0.0352777"
       id="path304" />
    <path
       d="m -182.20623,31.782416 h 0.50533 v -0.821999 h -0.50533 z"
       style="fill:#231f20;fill-opacity:1;fill-rule:nonzero;stroke:none;stroke-width:0.0352777"
       id="path306" />
    <path
       d="m -182.76608,31.782416 h 0.50615 v -0.821999 h -0.50615 z"
       style="fill:#231f20;fill-opacity:1;fill-rule:nonzero;stroke:none;stroke-width:0.0352777"
       id="path308" />
    <path
       d="m -183.32488,31.782416 h 0.50519 v -0.821999 h -0.50519 z"
       style="fill:#231f20;fill-opacity:1;fill-rule:nonzero;stroke:none;stroke-width:0.0352777"
       id="path310" />
    <path
       d="m -183.88474,31.782416 h 0.50546 v -0.821999 h -0.50546 z"
       style="fill:#231f20;fill-opacity:1;fill-rule:nonzero;stroke:none;stroke-width:0.0352777"
       id="path312" />
    <path
       d="m -185.00234,31.782416 h 0.50519 v -0.821999 h -0.50519 z"
       style="fill:#231f20;fill-opacity:1;fill-rule:nonzero;stroke:none;stroke-width:0.0352777"
       id="path314" />
    <path
       d="m -185.56219,31.782416 h 0.50518 v -0.821999 h -0.50518 z"
       style="fill:#231f20;fill-opacity:1;fill-rule:nonzero;stroke:none;stroke-width:0.0352777"
       id="path316" />
    <path
       d="m -186.12134,31.782416 h 0.50546 v -0.821999 h -0.50546 z"
       style="fill:#231f20;fill-opacity:1;fill-rule:nonzero;stroke:none;stroke-width:0.0352777"
       id="path318" />
    <path
       d="m -187.24317,31.782416 h 0.50518 v -0.821999 h -0.50518 z"
       style="fill:#231f20;fill-opacity:1;fill-rule:nonzero;stroke:none;stroke-width:0.0352777"
       id="path320" />
    <path
       d="m -179.41012,32.659772 h 0.50519 v -0.822686 h -0.50519 z"
       style="fill:#231f20;fill-opacity:1;fill-rule:nonzero;stroke:none;stroke-width:0.0352777"
       id="path322" />
    <path
       d="m -183.88474,32.659772 h 0.50546 v -0.822686 h -0.50546 z"
       style="fill:#231f20;fill-opacity:1;fill-rule:nonzero;stroke:none;stroke-width:0.0352777"
       id="path324" />
    <path
       d="m -185.00234,32.659772 h 0.50519 v -0.822686 h -0.50519 z"
       style="fill:#231f20;fill-opacity:1;fill-rule:nonzero;stroke:none;stroke-width:0.0352777"
       id="path326" />
    <path
       d="m -187.24317,32.659772 h 0.50518 v -0.822686 h -0.50518 z"
       style="fill:#231f20;fill-opacity:1;fill-rule:nonzero;stroke:none;stroke-width:0.0352777"
       id="path328" />
    <path
       d="m -179.41012,33.53607 h 0.50519 v -0.821999 h -0.50519 z"
       style="fill:#231f20;fill-opacity:1;fill-rule:nonzero;stroke:none;stroke-width:0.0352777"
       id="path330" />
    <path
       d="m -181.64707,33.53607 h 0.50518 v -0.821999 h -0.50518 z"
       style="fill:#231f20;fill-opacity:1;fill-rule:nonzero;stroke:none;stroke-width:0.0352777"
       id="path332" />
    <path
       d="m -182.20623,33.53607 h 0.50533 v -0.821999 h -0.50533 z"
       style="fill:#231f20;fill-opacity:1;fill-rule:nonzero;stroke:none;stroke-width:0.0352777"
       id="path334" />
    <path
       d="m -182.76608,33.53607 h 0.50615 v -0.821999 h -0.50615 z"
       style="fill:#231f20;fill-opacity:1;fill-rule:nonzero;stroke:none;stroke-width:0.0352777"
       id="path336" />
    <path
       d="m -183.32488,33.53607 h 0.50519 v -0.821999 h -0.50519 z"
       style="fill:#231f20;fill-opacity:1;fill-rule:nonzero;stroke:none;stroke-width:0.0352777"
       id="path338" />
    <path
       d="m -183.88474,33.53607 h 0.50546 v -0.821999 h -0.50546 z"
       style="fill:#231f20;fill-opacity:1;fill-rule:nonzero;stroke:none;stroke-width:0.0352777"
       id="path340" />
    <path
       d="m -185.00234,33.53607 h 0.50519 v -0.821999 h -0.50519 z"
       style="fill:#231f20;fill-opacity:1;fill-rule:nonzero;stroke:none;stroke-width:0.0352777"
       id="path342" />
    <path
       d="m -185.56219,33.53607 h 0.50518 v -0.821999 h -0.50518 z"
       style="fill:#231f20;fill-opacity:1;fill-rule:nonzero;stroke:none;stroke-width:0.0352777"
       id="path344" />
    <path
       d="m -186.12134,33.53607 h 0.50546 v -0.821999 h -0.50546 z"
       style="fill:#231f20;fill-opacity:1;fill-rule:nonzero;stroke:none;stroke-width:0.0352777"
       id="path346" />
    <path
       d="m -186.68438,33.53607 h 0.50698 v -0.821999 h -0.50698 z"
       style="fill:#231f20;fill-opacity:1;fill-rule:nonzero;stroke:none;stroke-width:0.0352777"
       id="path348" />
    <path
       d="m 3398.38,1594.26 c 0,90.63 -73.44,164.13 -163.95,164.13 -90.65,0 -164.27,-73.5 -164.27,-164.13 0,-90.68 73.62,-164.16 164.27,-164.16 90.51,0 163.95,73.48 163.95,164.16 z"
       style="fill:none;stroke:#9c9a9b;stroke-width:4;stroke-linecap:round;stroke-linejoin:round;stroke-miterlimit:10;stroke-dasharray:none;stroke-opacity:1"
       id="path358"
       clip-path="url(#clipPath356)"
       transform="matrix(0.03527769,0,0,-0.03527769,-273.13165,87.558913)" />
    <path
       d="m -154.82157,30.047812 h 0.50519 v -0.822687 h -0.50519 z"
       style="fill:#231f20;fill-opacity:1;fill-rule:nonzero;stroke:none;stroke-width:0.0352777"
       id="path360" />
    <path
       d="m -155.38072,30.047812 h 0.50546 v -0.822687 h -0.50546 z"
       style="fill:#231f20;fill-opacity:1;fill-rule:nonzero;stroke:none;stroke-width:0.0352777"
       id="path362" />
    <path
       d="m -155.93952,30.047812 h 0.50519 v -0.822687 h -0.50519 z"
       style="fill:#231f20;fill-opacity:1;fill-rule:nonzero;stroke:none;stroke-width:0.0352777"
       id="path364" />
    <path
       d="m -157.05782,30.047812 h 0.50519 v -0.822687 h -0.50519 z"
       style="fill:#231f20;fill-opacity:1;fill-rule:nonzero;stroke:none;stroke-width:0.0352777"
       id="path366" />
    <path
       d="m -157.61768,30.047812 h 0.50492 v -0.822687 h -0.50492 z"
       style="fill:#231f20;fill-opacity:1;fill-rule:nonzero;stroke:none;stroke-width:0.0352777"
       id="path368" />
    <path
       d="m -158.17647,30.047812 h 0.50491 v -0.822687 h -0.50491 z"
       style="fill:#231f20;fill-opacity:1;fill-rule:nonzero;stroke:none;stroke-width:0.0352777"
       id="path370" />
    <path
       d="m -160.41414,30.047812 h 0.5056 v -0.822687 h -0.5056 z"
       style="fill:#231f20;fill-opacity:1;fill-rule:nonzero;stroke:none;stroke-width:0.0352777"
       id="path372" />
    <path
       d="m -160.97294,30.047812 h 0.50519 v -0.822687 h -0.50519 z"
       style="fill:#231f20;fill-opacity:1;fill-rule:nonzero;stroke:none;stroke-width:0.0352777"
       id="path374" />
    <path
       d="m -161.53174,30.047812 h 0.50519 v -0.822687 h -0.50519 z"
       style="fill:#231f20;fill-opacity:1;fill-rule:nonzero;stroke:none;stroke-width:0.0352777"
       id="path376" />
    <path
       d="m -154.82157,30.925168 h 0.50519 v -0.822687 h -0.50519 z"
       style="fill:#231f20;fill-opacity:1;fill-rule:nonzero;stroke:none;stroke-width:0.0352777"
       id="path378" />
    <path
       d="m -155.93952,30.925168 h 0.50519 v -0.822687 h -0.50519 z"
       style="fill:#231f20;fill-opacity:1;fill-rule:nonzero;stroke:none;stroke-width:0.0352777"
       id="path380" />
    <path
       d="m -157.05782,30.925168 h 0.50519 v -0.822687 h -0.50519 z"
       style="fill:#231f20;fill-opacity:1;fill-rule:nonzero;stroke:none;stroke-width:0.0352777"
       id="path382" />
    <path
       d="m -161.53174,30.925168 h 0.50519 v -0.822687 h -0.50519 z"
       style="fill:#231f20;fill-opacity:1;fill-rule:nonzero;stroke:none;stroke-width:0.0352777"
       id="path384" />
    <path
       d="m -154.82157,31.80076 h 0.50519 v -0.821998 h -0.50519 z"
       style="fill:#231f20;fill-opacity:1;fill-rule:nonzero;stroke:none;stroke-width:0.0352777"
       id="path386" />
    <path
       d="m -155.93952,31.80076 h 0.50519 v -0.821998 h -0.50519 z"
       style="fill:#231f20;fill-opacity:1;fill-rule:nonzero;stroke:none;stroke-width:0.0352777"
       id="path388" />
    <path
       d="m -157.05782,31.80076 h 0.50519 v -0.821998 h -0.50519 z"
       style="fill:#231f20;fill-opacity:1;fill-rule:nonzero;stroke:none;stroke-width:0.0352777"
       id="path390" />
    <path
       d="m -157.61768,31.80076 h 0.50492 v -0.821998 h -0.50492 z"
       style="fill:#231f20;fill-opacity:1;fill-rule:nonzero;stroke:none;stroke-width:0.0352777"
       id="path392" />
    <path
       d="m -158.17647,31.80076 h 0.50491 v -0.821998 h -0.50491 z"
       style="fill:#231f20;fill-opacity:1;fill-rule:nonzero;stroke:none;stroke-width:0.0352777"
       id="path394" />
    <path
       d="m -160.41414,31.80076 h 0.5056 v -0.821998 h -0.5056 z"
       style="fill:#231f20;fill-opacity:1;fill-rule:nonzero;stroke:none;stroke-width:0.0352777"
       id="path396" />
    <path
       d="m -160.97294,31.80076 h 0.50519 v -0.821998 h -0.50519 z"
       style="fill:#231f20;fill-opacity:1;fill-rule:nonzero;stroke:none;stroke-width:0.0352777"
       id="path398" />
    <path
       d="m -161.53174,31.80076 h 0.50519 v -0.821998 h -0.50519 z"
       style="fill:#231f20;fill-opacity:1;fill-rule:nonzero;stroke:none;stroke-width:0.0352777"
       id="path400" />
    <path
       d="m -154.82157,32.678116 h 0.50519 V 31.85543 h -0.50519 z"
       style="fill:#231f20;fill-opacity:1;fill-rule:nonzero;stroke:none;stroke-width:0.0352777"
       id="path402" />
    <path
       d="m -155.93952,32.678116 h 0.50519 V 31.85543 h -0.50519 z"
       style="fill:#231f20;fill-opacity:1;fill-rule:nonzero;stroke:none;stroke-width:0.0352777"
       id="path404" />
    <path
       d="m -157.05782,32.678116 h 0.50519 V 31.85543 h -0.50519 z"
       style="fill:#231f20;fill-opacity:1;fill-rule:nonzero;stroke:none;stroke-width:0.0352777"
       id="path406" />
    <path
       d="m -159.29548,32.678116 h 0.50629 V 31.85543 h -0.50629 z"
       style="fill:#231f20;fill-opacity:1;fill-rule:nonzero;stroke:none;stroke-width:0.0352777"
       id="path408" />
    <path
       d="m -160.41414,32.678116 h 0.5056 V 31.85543 h -0.5056 z"
       style="fill:#231f20;fill-opacity:1;fill-rule:nonzero;stroke:none;stroke-width:0.0352777"
       id="path410" />
    <path
       d="m -161.53174,32.678116 h 0.50519 V 31.85543 h -0.50519 z"
       style="fill:#231f20;fill-opacity:1;fill-rule:nonzero;stroke:none;stroke-width:0.0352777"
       id="path412" />
    <path
       d="m -154.82157,33.554414 h 0.50519 v -0.821998 h -0.50519 z"
       style="fill:#231f20;fill-opacity:1;fill-rule:nonzero;stroke:none;stroke-width:0.0352777"
       id="path414" />
    <path
       d="m -155.38072,33.554414 h 0.50546 v -0.821998 h -0.50546 z"
       style="fill:#231f20;fill-opacity:1;fill-rule:nonzero;stroke:none;stroke-width:0.0352777"
       id="path416" />
    <path
       d="m -155.93952,33.554414 h 0.50519 v -0.821998 h -0.50519 z"
       style="fill:#231f20;fill-opacity:1;fill-rule:nonzero;stroke:none;stroke-width:0.0352777"
       id="path418" />
    <path
       d="m -157.05782,33.554414 h 0.50519 v -0.821998 h -0.50519 z"
       style="fill:#231f20;fill-opacity:1;fill-rule:nonzero;stroke:none;stroke-width:0.0352777"
       id="path420" />
    <path
       d="m -157.61768,33.554414 h 0.50492 v -0.821998 h -0.50492 z"
       style="fill:#231f20;fill-opacity:1;fill-rule:nonzero;stroke:none;stroke-width:0.0352777"
       id="path422" />
    <path
       d="m -158.17647,33.554414 h 0.50491 v -0.821998 h -0.50491 z"
       style="fill:#231f20;fill-opacity:1;fill-rule:nonzero;stroke:none;stroke-width:0.0352777"
       id="path424" />
    <path
       d="m -159.29548,33.554414 h 0.50629 v -0.821998 h -0.50629 z"
       style="fill:#231f20;fill-opacity:1;fill-rule:nonzero;stroke:none;stroke-width:0.0352777"
       id="path426" />
    <path
       d="m -160.41414,33.554414 h 0.5056 v -0.821998 h -0.5056 z"
       style="fill:#231f20;fill-opacity:1;fill-rule:nonzero;stroke:none;stroke-width:0.0352777"
       id="path428" />
    <path
       d="m -160.97294,33.554414 h 0.50519 v -0.821998 h -0.50519 z"
       style="fill:#231f20;fill-opacity:1;fill-rule:nonzero;stroke:none;stroke-width:0.0352777"
       id="path430" />
    <path
       d="m -161.53174,33.554414 h 0.50519 v -0.821998 h -0.50519 z"
       style="fill:#231f20;fill-opacity:1;fill-rule:nonzero;stroke:none;stroke-width:0.0352777"
       id="path432" />
    <path
       d="m -135.20258,31.317103 c 0,-3.197217 -2.5908,-5.790127 -5.78378,-5.790127 -3.19792,0 -5.79507,2.59291 -5.79507,5.790127 0,3.198981 2.59715,5.791186 5.79507,5.791186 3.19298,0 5.78378,-2.592205 5.78378,-5.791186 z"
       style="fill:none;stroke:#9c9a9b;stroke-width:0.141111;stroke-linecap:round;stroke-linejoin:round;stroke-miterlimit:10;stroke-dasharray:none;stroke-opacity:1"
       id="path434" />
    <path
       d="m -136.7795,30.047812 h 0.50519 v -0.822687 h -0.50519 z"
       style="fill:#231f20;fill-opacity:1;fill-rule:nonzero;stroke:none;stroke-width:0.0352777"
       id="path436" />
    <path
       d="m -137.33865,30.047812 h 0.50546 v -0.822687 h -0.50546 z"
       style="fill:#231f20;fill-opacity:1;fill-rule:nonzero;stroke:none;stroke-width:0.0352777"
       id="path438" />
    <path
       d="m -137.89745,30.047812 h 0.50491 v -0.822687 h -0.50491 z"
       style="fill:#231f20;fill-opacity:1;fill-rule:nonzero;stroke:none;stroke-width:0.0352777"
       id="path440" />
    <path
       d="m -139.01575,30.047812 h 0.50519 v -0.822687 h -0.50519 z"
       style="fill:#231f20;fill-opacity:1;fill-rule:nonzero;stroke:none;stroke-width:0.0352777"
       id="path442" />
    <path
       d="m -139.57561,30.047812 h 0.50505 v -0.822687 h -0.50505 z"
       style="fill:#231f20;fill-opacity:1;fill-rule:nonzero;stroke:none;stroke-width:0.0352777"
       id="path444" />
    <path
       d="m -140.13441,30.047812 h 0.50505 v -0.822687 h -0.50505 z"
       style="fill:#231f20;fill-opacity:1;fill-rule:nonzero;stroke:none;stroke-width:0.0352777"
       id="path446" />
    <path
       d="m -142.37207,30.047812 h 0.50546 v -0.822687 h -0.50546 z"
       style="fill:#231f20;fill-opacity:1;fill-rule:nonzero;stroke:none;stroke-width:0.0352777"
       id="path448" />
    <path
       d="m -143.48967,30.047812 h 0.50519 v -0.822687 h -0.50519 z"
       style="fill:#231f20;fill-opacity:1;fill-rule:nonzero;stroke:none;stroke-width:0.0352777"
       id="path450" />
    <path
       d="m -136.7795,30.925168 h 0.50519 v -0.822687 h -0.50519 z"
       style="fill:#231f20;fill-opacity:1;fill-rule:nonzero;stroke:none;stroke-width:0.0352777"
       id="path452" />
    <path
       d="m -139.01575,30.925168 h 0.50519 v -0.822687 h -0.50519 z"
       style="fill:#231f20;fill-opacity:1;fill-rule:nonzero;stroke:none;stroke-width:0.0352777"
       id="path454" />
    <path
       d="m -140.13441,30.925168 h 0.50505 v -0.822687 h -0.50505 z"
       style="fill:#231f20;fill-opacity:1;fill-rule:nonzero;stroke:none;stroke-width:0.0352777"
       id="path456" />
    <path
       d="m -141.25341,30.925168 h 0.50629 v -0.822687 h -0.50629 z"
       style="fill:#231f20;fill-opacity:1;fill-rule:nonzero;stroke:none;stroke-width:0.0352777"
       id="path458" />
    <path
       d="m -142.37207,30.925168 h 0.50546 v -0.822687 h -0.50546 z"
       style="fill:#231f20;fill-opacity:1;fill-rule:nonzero;stroke:none;stroke-width:0.0352777"
       id="path460" />
    <path
       d="m -143.48967,30.925168 h 0.50519 v -0.822687 h -0.50519 z"
       style="fill:#231f20;fill-opacity:1;fill-rule:nonzero;stroke:none;stroke-width:0.0352777"
       id="path462" />
    <path
       d="m -136.7795,31.80076 h 0.50519 v -0.821998 h -0.50519 z"
       style="fill:#231f20;fill-opacity:1;fill-rule:nonzero;stroke:none;stroke-width:0.0352777"
       id="path464" />
    <path
       d="m -137.33865,31.80076 h 0.50546 v -0.821998 h -0.50546 z"
       style="fill:#231f20;fill-opacity:1;fill-rule:nonzero;stroke:none;stroke-width:0.0352777"
       id="path466" />
    <path
       d="m -137.89745,31.80076 h 0.50491 v -0.821998 h -0.50491 z"
       style="fill:#231f20;fill-opacity:1;fill-rule:nonzero;stroke:none;stroke-width:0.0352777"
       id="path468" />
    <path
       d="m -139.01575,31.80076 h 0.50519 v -0.821998 h -0.50519 z"
       style="fill:#231f20;fill-opacity:1;fill-rule:nonzero;stroke:none;stroke-width:0.0352777"
       id="path470" />
    <path
       d="m -140.13441,31.80076 h 0.50505 v -0.821998 h -0.50505 z"
       style="fill:#231f20;fill-opacity:1;fill-rule:nonzero;stroke:none;stroke-width:0.0352777"
       id="path472" />
    <path
       d="m -142.37207,31.80076 h 0.50546 v -0.821998 h -0.50546 z"
       style="fill:#231f20;fill-opacity:1;fill-rule:nonzero;stroke:none;stroke-width:0.0352777"
       id="path474" />
    <path
       d="m -142.93087,31.80076 h 0.50519 v -0.821998 h -0.50519 z"
       style="fill:#231f20;fill-opacity:1;fill-rule:nonzero;stroke:none;stroke-width:0.0352777"
       id="path476" />
    <path
       d="m -143.48967,31.80076 h 0.50519 v -0.821998 h -0.50519 z"
       style="fill:#231f20;fill-opacity:1;fill-rule:nonzero;stroke:none;stroke-width:0.0352777"
       id="path478" />
    <path
       d="m -137.89745,32.678116 h 0.50491 V 31.85543 h -0.50491 z"
       style="fill:#231f20;fill-opacity:1;fill-rule:nonzero;stroke:none;stroke-width:0.0352777"
       id="path480" />
    <path
       d="m -139.01575,32.678116 h 0.50519 V 31.85543 h -0.50519 z"
       style="fill:#231f20;fill-opacity:1;fill-rule:nonzero;stroke:none;stroke-width:0.0352777"
       id="path482" />
    <path
       d="m -140.13441,32.678116 h 0.50505 V 31.85543 h -0.50505 z"
       style="fill:#231f20;fill-opacity:1;fill-rule:nonzero;stroke:none;stroke-width:0.0352777"
       id="path484" />
    <path
       d="m -141.25341,32.678116 h 0.50629 V 31.85543 h -0.50629 z"
       style="fill:#231f20;fill-opacity:1;fill-rule:nonzero;stroke:none;stroke-width:0.0352777"
       id="path486" />
    <path
       d="m -142.37207,32.678116 h 0.50546 V 31.85543 h -0.50546 z"
       style="fill:#231f20;fill-opacity:1;fill-rule:nonzero;stroke:none;stroke-width:0.0352777"
       id="path488" />
    <path
       d="m -136.7795,33.554414 h 0.50519 v -0.821998 h -0.50519 z"
       style="fill:#231f20;fill-opacity:1;fill-rule:nonzero;stroke:none;stroke-width:0.0352777"
       id="path490" />
    <path
       d="m -137.33865,33.554414 h 0.50546 v -0.821998 h -0.50546 z"
       style="fill:#231f20;fill-opacity:1;fill-rule:nonzero;stroke:none;stroke-width:0.0352777"
       id="path492" />
    <path
       d="m -137.89745,33.554414 h 0.50491 v -0.821998 h -0.50491 z"
       style="fill:#231f20;fill-opacity:1;fill-rule:nonzero;stroke:none;stroke-width:0.0352777"
       id="path494" />
    <path
       d="m -139.01575,33.554414 h 0.50519 v -0.821998 h -0.50519 z"
       style="fill:#231f20;fill-opacity:1;fill-rule:nonzero;stroke:none;stroke-width:0.0352777"
       id="path496" />
    <path
       d="m -139.57561,33.554414 h 0.50505 v -0.821998 h -0.50505 z"
       style="fill:#231f20;fill-opacity:1;fill-rule:nonzero;stroke:none;stroke-width:0.0352777"
       id="path498" />
    <path
       d="m -140.13441,33.554414 h 0.50505 v -0.821998 h -0.50505 z"
       style="fill:#231f20;fill-opacity:1;fill-rule:nonzero;stroke:none;stroke-width:0.0352777"
       id="path500" />
    <path
       d="m -142.37207,33.554414 h 0.50546 v -0.821998 h -0.50546 z"
       style="fill:#231f20;fill-opacity:1;fill-rule:nonzero;stroke:none;stroke-width:0.0352777"
       id="path502" />
    <path
       d="m -149.12916,29.562391 c 0,0.218369 0,0.436737 0,0.655106 v 0.05292 h -0.0529 c -1.07773,0 -2.15511,0 -3.23284,0 v 2.094436 c 1.07773,0 2.15511,0 3.23284,0 h 0.0529 v 0.05292 c 0,0.218369 0,0.436738 0,0.655107 0.49248,-0.585257 0.98531,-1.170161 1.47778,-1.755418 -0.49247,-0.584904 -0.98495,-1.169808 -1.47778,-1.755065"
       style="fill:#bdbcbc;fill-opacity:1;fill-rule:nonzero;stroke:none;stroke-width:0.0352777"
       id="path504" />
    <path
       d="m -149.12916,29.562391 c 0,0.218369 0,0.436737 0,0.655106 v 0.05292 h -0.0529 c -1.07773,0 -2.15511,0 -3.23284,0 v 2.094436 c 1.07773,0 2.15511,0 3.23284,0 h 0.0529 v 0.05292 c 0,0.218369 0,0.436738 0,0.655107 0.49248,-0.585257 0.98531,-1.170161 1.47778,-1.755418 -0.49247,-0.584904 -0.98495,-1.169808 -1.47778,-1.755065 z"
       style="fill:none;stroke:#4f4c4c;stroke-width:0.105833;stroke-linecap:butt;stroke-linejoin:miter;stroke-miterlimit:4;stroke-dasharray:none;stroke-opacity:1"
       id="path506" />
    <path
       d="m -167.1363,29.562391 c 0,0.218369 0,0.436737 0,0.655106 v 0.05292 h -0.0529 c -1.07773,0 -2.15511,0 -3.23285,0 v 2.094436 c 1.07774,0 2.15512,0 3.23285,0 h 0.0529 v 0.05292 c 0,0.218369 0,0.436738 0,0.655107 0.49247,-0.585257 0.9853,-1.170161 1.47778,-1.755418 -0.49248,-0.584904 -0.98495,-1.169808 -1.47778,-1.755065"
       style="fill:#bdbcbc;fill-opacity:1;fill-rule:nonzero;stroke:none;stroke-width:0.0352777"
       id="path508" />
    <path
       d="m -167.1363,29.562391 c 0,0.218369 0,0.436737 0,0.655106 v 0.05292 h -0.0529 c -1.07773,0 -2.15511,0 -3.23285,0 v 2.094436 c 1.07774,0 2.15512,0 3.23285,0 h 0.0529 v 0.05292 c 0,0.218369 0,0.436738 0,0.655107 0.49247,-0.585257 0.9853,-1.170161 1.47778,-1.755418 -0.49248,-0.584904 -0.98495,-1.169808 -1.47778,-1.755065 z"
       style="fill:none;stroke:#4f4c4c;stroke-width:0.105833;stroke-linecap:butt;stroke-linejoin:miter;stroke-miterlimit:4;stroke-dasharray:none;stroke-opacity:1"
       id="path510" />
    <path
       d="m -139.94461,44.003313 c 0,-1.860193 0,-3.71968 0,-5.579872 -0.69815,0 -1.39629,0 -2.09444,0 0,1.144055 0,2.288464 0,3.432519 v 0.05292 h -39.44751 v -1.991073 h 0.0529 c 0.21836,0 0.43673,0 0.6551,0 -0.58526,-0.49283 -1.17016,-0.985306 -1.75542,-1.478135 -0.5849,0.492829 -1.1698,0.985305 -1.75506,1.478135 0.21837,0 0.43674,0 0.65511,0 h 0.0529 v 0.05292 c 0,1.34408 0,2.688513 0,4.032593 14.54499,0 29.0914,0 43.63639,0"
       style="fill:#bdbcbc;fill-opacity:1;fill-rule:nonzero;stroke:none;stroke-width:0.0352777"
       id="path512" />
    <path
       d="m -139.94461,44.003313 c 0,-1.860193 0,-3.71968 0,-5.579872 -0.69815,0 -1.39629,0 -2.09444,0 0,1.144055 0,2.288464 0,3.432519 v 0.05292 h -39.44751 v -1.991073 h 0.0529 c 0.21836,0 0.43673,0 0.6551,0 -0.58526,-0.49283 -1.17016,-0.985306 -1.75542,-1.478135 -0.5849,0.492829 -1.1698,0.985305 -1.75506,1.478135 0.21837,0 0.43674,0 0.65511,0 h 0.0529 v 0.05292 c 0,1.34408 0,2.688513 0,4.032593 14.54499,0 29.0914,0 43.63639,0 z"
       style="fill:none;stroke:#4f4c4c;stroke-width:0.105833;stroke-linecap:butt;stroke-linejoin:miter;stroke-miterlimit:4;stroke-dasharray:none;stroke-opacity:1"
       id="path514" />
    <path
       d="m -158.18212,24.267915 v 4.224503"
       style="fill:none;stroke:#ffffff;stroke-width:0.423332;stroke-linecap:round;stroke-linejoin:round;stroke-miterlimit:4;stroke-dasharray:none;stroke-opacity:1"
       id="path516" />
    <path
       d="m -158.18212,24.267915 v 4.224503"
       style="fill:none;stroke:#231f20;stroke-width:0.0881942;stroke-linecap:round;stroke-linejoin:round;stroke-miterlimit:4;stroke-dasharray:none;stroke-opacity:1"
       id="path518" />
    <path
       d="m -140.40463,24.267915 v 4.224503"
       style="fill:none;stroke:#ffffff;stroke-width:0.423332;stroke-linecap:round;stroke-linejoin:round;stroke-miterlimit:4;stroke-dasharray:none;stroke-opacity:1"
       id="path520" />
    <path
       d="m -140.40463,24.267915 v 4.224503"
       style="fill:none;stroke:#231f20;stroke-width:0.0881942;stroke-linecap:round;stroke-linejoin:round;stroke-miterlimit:4;stroke-dasharray:none;stroke-opacity:1"
       id="path522" />
  </g>
</svg>
