<?xml version="1.0" encoding="UTF-8" standalone="no"?>
<!-- Created with Inkscape (http://www.inkscape.org/) -->

<svg
   width="33.222595mm"
   height="19.078009mm"
   viewBox="0 0 33.222595 19.078009"
   version="1.1"
   id="svg497"
   inkscape:version="1.2.2 (b0a8486541, 2022-12-01)"
   sodipodi:docname="hammer.svg"
   xmlns:inkscape="http://www.inkscape.org/namespaces/inkscape"
   xmlns:sodipodi="http://sodipodi.sourceforge.net/DTD/sodipodi-0.dtd"
   xmlns="http://www.w3.org/2000/svg"
   xmlns:svg="http://www.w3.org/2000/svg">
  <sodipodi:namedview
     id="namedview499"
     pagecolor="#ffffff"
     bordercolor="#666666"
     borderopacity="1.0"
     inkscape:showpageshadow="2"
     inkscape:pageopacity="0.0"
     inkscape:pagecheckerboard="0"
     inkscape:deskcolor="#d1d1d1"
     inkscape:document-units="mm"
     showgrid="false"
     inkscape:zoom="0.44542649"
     inkscape:cx="1104.5594"
     inkscape:cy="480.43843"
     inkscape:window-width="1366"
     inkscape:window-height="685"
     inkscape:window-x="0"
     inkscape:window-y="27"
     inkscape:window-maximized="1"
     inkscape:current-layer="layer1" />
  <defs
     id="defs494">
    <clipPath
       clipPathUnits="userSpaceOnUse"
       id="clipPath390">
      <path
         d="m 777.27,1493.93 h 713.699 v 357.172 H 777.27 Z"
         id="path388" />
    </clipPath>
    <clipPath
       clipPathUnits="userSpaceOnUse"
       id="clipPath427">
      <path
         d="m 777.27,1493.93 h 713.699 v 357.172 H 777.27 Z"
         id="path425" />
    </clipPath>
    <clipPath
       clipPathUnits="userSpaceOnUse"
       id="clipPath431">
      <path
         d="m 777.27,1493.93 h 713.699 v 357.172 H 777.27 Z"
         id="path429" />
    </clipPath>
  </defs>
  <g
     inkscape:label="Layer 1"
     inkscape:groupmode="layer"
     id="layer1"
     transform="translate(187.0893,-21.348997)">
    <text
       xml:space="preserve"
       transform="scale(1,-1)"
       style="font-variant:normal;font-weight:normal;font-size:0.0352777px;font-family:Arial;-inkscape-font-specification:Arial;writing-mode:lr-tb;fill:#231f20;fill-opacity:1;fill-rule:nonzero;stroke:none;stroke-width:0.352777"
       id="text336"
       x="-187.09082"
       y="-21.350822"><tspan
         x="-187.09082"
         y="-21.350822"
         id="tspan334"
         style="stroke-width:0.352777">✑</tspan></text>
    <text
       xml:space="preserve"
       transform="scale(1,-1)"
       style="font-variant:normal;font-weight:normal;font-size:0.0352777px;font-family:Arial;-inkscape-font-specification:Arial;writing-mode:lr-tb;fill:#231f20;fill-opacity:1;fill-rule:nonzero;stroke:none;stroke-width:0.352777"
       id="text340"
       x="-184.5862"
       y="-21.350822"><tspan
         x="-184.5862"
         y="-21.350822"
         id="tspan338"
         style="stroke-width:0.352777">➌</tspan></text>
    <text
       xml:space="preserve"
       transform="scale(1,-1)"
       style="font-variant:normal;font-weight:normal;font-size:0.0352777px;font-family:Arial;-inkscape-font-specification:Arial;writing-mode:lr-tb;fill:#231f20;fill-opacity:1;fill-rule:nonzero;stroke:none;stroke-width:0.352777"
       id="text344"
       x="-182.15202"
       y="-21.350822"><tspan
         x="-182.15202 -179.71786"
         y="-21.350822"
         sodipodi:role="line"
         id="tspan342"
         style="stroke-width:0.352777">✒✓</tspan></text>
    <text
       xml:space="preserve"
       transform="scale(1,-1)"
       style="font-variant:normal;font-weight:normal;font-size:0.0352777px;font-family:Arial;-inkscape-font-specification:Arial;writing-mode:lr-tb;fill:#231f20;fill-opacity:1;fill-rule:nonzero;stroke:none;stroke-width:0.352777"
       id="text348"
       x="-177.21304"
       y="-21.350822"><tspan
         x="-177.21304"
         y="-21.350822"
         id="tspan346"
         style="stroke-width:0.352777">➭</tspan></text>
    <text
       xml:space="preserve"
       transform="scale(1,-1)"
       style="font-variant:normal;font-weight:normal;font-size:0.0352777px;font-family:Arial;-inkscape-font-specification:Arial;writing-mode:lr-tb;fill:#231f20;fill-opacity:1;fill-rule:nonzero;stroke:none;stroke-width:0.352777"
       id="text352"
       x="-174.81407"
       y="-21.386011"><tspan
         x="-174.81407"
         y="-21.386011"
         id="tspan350"
         style="stroke-width:0.352777">➤</tspan></text>
    <text
       xml:space="preserve"
       transform="scale(1,-1)"
       style="font-variant:normal;font-weight:normal;font-size:0.0352777px;font-family:Arial;-inkscape-font-specification:Arial;writing-mode:lr-tb;fill:#231f20;fill-opacity:1;fill-rule:nonzero;stroke:none;stroke-width:0.352777"
       id="text356"
       x="-172.30952"
       y="-21.386011"><tspan
         x="-172.30952"
         y="-21.386011"
         id="tspan354"
         style="stroke-width:0.352777">✤</tspan></text>
    <text
       xml:space="preserve"
       transform="scale(1,-1)"
       style="font-variant:normal;font-weight:normal;font-size:0.0352777px;font-family:Arial;-inkscape-font-specification:Arial;writing-mode:lr-tb;fill:#231f20;fill-opacity:1;fill-rule:nonzero;stroke:none;stroke-width:0.352777"
       id="text360"
       x="-169.8399"
       y="-21.350822"><tspan
         x="-169.8399"
         y="-21.350822"
         id="tspan358"
         style="stroke-width:0.352777">✚</tspan></text>
    <text
       xml:space="preserve"
       transform="scale(1,-1)"
       style="font-variant:normal;font-weight:normal;font-size:0.0352777px;font-family:Arial;-inkscape-font-specification:Arial;writing-mode:lr-tb;fill:#231f20;fill-opacity:1;fill-rule:nonzero;stroke:none;stroke-width:0.352777"
       id="text364"
       x="-167.40575"
       y="-21.350822"><tspan
         x="-167.40575"
         y="-21.350822"
         id="tspan362"
         style="stroke-width:0.352777">✔</tspan></text>
    <text
       xml:space="preserve"
       transform="scale(1,-1)"
       style="font-variant:normal;font-weight:normal;font-size:0.0352777px;font-family:Arial;-inkscape-font-specification:Arial;writing-mode:lr-tb;fill:#231f20;fill-opacity:1;fill-rule:nonzero;stroke:none;stroke-width:0.352777"
       id="text368"
       x="-164.97157"
       y="-21.350822"><tspan
         x="-164.97157 -162.50214"
         y="-21.350822"
         sodipodi:role="line"
         id="tspan366"
         style="stroke-width:0.352777">➛✼</tspan></text>
    <text
       xml:space="preserve"
       transform="scale(1,-1)"
       style="font-variant:normal;font-weight:normal;font-size:0.0352777px;font-family:Arial;-inkscape-font-specification:Arial;writing-mode:lr-tb;fill:#231f20;fill-opacity:1;fill-rule:nonzero;stroke:none;stroke-width:0.352777"
       id="text374"
       x="-160.03287"
       y="-21.350822"><tspan
         x="-160.03287 -157.59869 -156.11703 -155.48204"
         y="-21.350822"
         sodipodi:role="line"
         id="tspan370"
         style="stroke-width:0.352777">➏➐➑➒</tspan><tspan
         x="-153.89455"
         y="-21.386099"
         id="tspan372"
         style="stroke-width:0.352777">➞</tspan></text>
    <path
       d="m -179.12875,24.365469 -0.43282,-0.19438 c 0,0 -0.3587,-0.173567 -0.66008,0.06103 -0.24793,0.192616 -0.69356,0.507999 -1.4213,1.660874 -0.71508,1.157461 -0.77255,1.648173 -0.82134,1.9311 -0.0595,0.343252 0.3102,0.498827 0.3102,0.498827 l 0.43215,0.19438"
       style="fill:#9c9a9b;fill-opacity:1;fill-rule:nonzero;stroke:none;stroke-width:0.0352777"
       id="path376" />
    <path
       d="m -164.68356,24.365469 0.43286,-0.19438 c 0,0 0.35878,-0.173567 0.66005,0.06103 0.24765,0.192616 0.69356,0.507999 1.42098,1.660874 0.71543,1.157461 0.77294,1.648173 0.82127,1.9311 0.0596,0.343252 -0.31009,0.498827 -0.31009,0.498827 l -0.4318,0.19438"
       style="fill:#9c9a9b;fill-opacity:1;fill-rule:nonzero;stroke:none;stroke-width:0.0352777"
       id="path378" />
    <path
       d="m -179.12875,36.220889 -0.43282,0.194733 c 0,0 -0.3587,0.173566 -0.66008,-0.06103 -0.24793,-0.192617 -0.69356,-0.508352 -1.4213,-1.660874 -0.71508,-1.157814 -0.77255,-1.648174 -0.82134,-1.931454 -0.0595,-0.342899 0.3102,-0.498473 0.3102,-0.498473 l 0.43215,-0.19438"
       style="fill:#9c9a9b;fill-opacity:1;fill-rule:nonzero;stroke:none;stroke-width:0.0352777"
       id="path380" />
    <path
       d="m -164.68356,36.220889 0.43286,0.194733 c 0,0 0.35878,0.173566 0.66005,-0.06103 0.24765,-0.192617 0.69356,-0.508352 1.42098,-1.660874 0.71543,-1.157814 0.77294,-1.648174 0.82127,-1.931454 0.0596,-0.342899 -0.31009,-0.498473 -0.31009,-0.498473 l -0.4318,-0.19438"
       style="fill:#9c9a9b;fill-opacity:1;fill-rule:nonzero;stroke:none;stroke-width:0.0352777"
       id="path382" />
    <path
       d="m 1427.37,1672.51 c 0,-137.51 -131.15,-248.99 -292.95,-248.99 -161.779,0 -292.932,111.48 -292.932,248.99 0,137.51 131.153,249 292.932,249 161.8,0 292.95,-111.49 292.95,-249"
       style="fill:#ffffff;fill-opacity:1;fill-rule:nonzero;stroke:none"
       id="path392"
       clip-path="url(#clipPath390)"
       transform="matrix(0.03527769,0,0,-0.03527769,-211.92638,89.295821)" />
    <path
       d="m 1427.37,1672.51 c 0,-137.51 -131.15,-248.99 -292.95,-248.99 -161.779,0 -292.932,111.48 -292.932,248.99 0,137.51 131.153,249 292.932,249 161.8,0 292.95,-111.49 292.95,-249 z"
       style="fill:none;stroke:#9c9a9b;stroke-width:6;stroke-linecap:butt;stroke-linejoin:miter;stroke-miterlimit:10;stroke-dasharray:none;stroke-opacity:1"
       id="path394"
       clip-path="url(#clipPath390)"
       transform="matrix(0.03527769,0,0,-0.03527769,-211.92638,89.295821)" />
    <path
       d="m 1403.9,1672.51 c 0,-126.5 -120.64,-229.05 -269.47,-229.05 -148.821,0 -269.461,102.55 -269.461,229.05 0,126.5 120.64,229.05 269.461,229.05 148.83,0 269.47,-102.55 269.47,-229.05 z"
       style="fill:none;stroke:#9c9a9b;stroke-width:4;stroke-linecap:butt;stroke-linejoin:miter;stroke-miterlimit:10;stroke-dasharray:none;stroke-opacity:1"
       id="path396"
       clip-path="url(#clipPath390)"
       transform="matrix(0.03527769,0,0,-0.03527769,-211.92638,89.295821)" />
    <path
       d="m -184.52443,25.304914 c 0,0.656517 0.54045,1.197324 1.19736,1.197324 0.65609,0 1.1963,-0.540807 1.1963,-1.197324 0,-0.656518 -0.54021,-1.196267 -1.1963,-1.196267 -0.65691,0 -1.19736,0.539749 -1.19736,1.196267 m 1.19736,-1.084789 c 0.59753,0 1.08478,0.487184 1.08478,1.084789 0,0.596193 -0.48905,1.084789 -1.08478,1.084789 -0.59655,0 -1.08589,-0.488596 -1.08589,-1.084789 0,-0.597605 0.48687,-1.084789 1.08589,-1.084789 m 0.28567,1.397349 0.14221,0.414513 h 0.2092 l -0.51428,-1.420633 h -0.21911 l -0.53344,1.420633 h 0.19858 l 0.14894,-0.414513 z m -0.51015,-0.170391 0.22836,-0.624063 h 0.005 l 0.20919,0.624063"
       style="fill:#231f20;fill-opacity:1;fill-rule:nonzero;stroke:none;stroke-width:0.0352777"
       id="path398" />
    <path
       d="m -161.72199,25.305972 c 0,0.656518 0.54045,1.196619 1.19697,1.196619 0.65687,0 1.19662,-0.540101 1.19662,-1.196619 0,-0.656518 -0.53975,-1.197325 -1.19662,-1.197325 -0.65652,0 -1.19697,0.540807 -1.19697,1.197325 m 1.19697,-1.092197 c 0.59866,0 1.08514,0.493534 1.08514,1.092197 0,0.596193 -0.48895,1.084789 -1.08514,1.084789 -0.59584,0 -1.08479,-0.488596 -1.08479,-1.084789 0,-0.598663 0.48648,-1.092197 1.08479,-1.092197 m -0.24448,1.184977 h 0.37959 c 0.15593,0 0.33091,0.03951 0.33091,0.239536 0,0.158749 -0.10019,0.258938 -0.30092,0.258938 h -0.40958 z m -0.19085,0.663926 h 0.61242 c 0.31433,0 0.4819,-0.191205 0.4819,-0.419099 0,-0.244827 -0.16546,-0.309385 -0.25859,-0.347485 0.15875,-0.07197 0.19121,-0.202494 0.19121,-0.295274 0,-0.195791 -0.13724,-0.358774 -0.40252,-0.358774 h -0.62442 z m 0.19085,-1.257649 h 0.34925 c 0.21449,0 0.29563,0.07691 0.29563,0.209902 0,0.172155 -0.11395,0.228247 -0.29774,0.228247 h -0.34714"
       style="fill:#231f20;fill-opacity:1;fill-rule:nonzero;stroke:none;stroke-width:0.0352777"
       id="path400" />
    <path
       d="m -184.52443,35.281092 c 0,0.657223 0.54045,1.197324 1.19736,1.197324 0.65609,0 1.1963,-0.540101 1.1963,-1.197324 0,-0.656518 -0.54021,-1.19662 -1.1963,-1.19662 -0.65691,0 -1.19736,0.540102 -1.19736,1.19662 m 1.8048,-0.251178 c -0.0283,-0.237418 -0.21911,-0.463196 -0.58455,-0.463196 -0.41409,0 -0.66393,0.302683 -0.66393,0.738362 0,0.546452 0.3168,0.756354 0.64104,0.756354 0.10611,0 0.54214,-0.02293 0.62152,-0.558799 h -0.18687 c -0.0653,0.330552 -0.28127,0.388408 -0.40502,0.388408 -0.35387,0 -0.47212,-0.255411 -0.47212,-0.590902 0,-0.374649 0.20891,-0.563031 0.46538,-0.563031 0.13723,0 0.34505,0.04374 0.39755,0.292804 z m -0.60744,-0.833611 c 0.59753,0 1.08478,0.486832 1.08478,1.084789 0,0.596192 -0.48905,1.085494 -1.08478,1.085494 -0.59655,0 -1.08589,-0.489302 -1.08589,-1.085494 0,-0.597957 0.48687,-1.084789 1.08589,-1.084789"
       style="fill:#231f20;fill-opacity:1;fill-rule:nonzero;stroke:none;stroke-width:0.0352777"
       id="path402" />
    <path
       d="m -161.72446,35.281092 c 0,0.657223 0.53975,1.197324 1.19662,1.197324 0.65687,0 1.19662,-0.540101 1.19662,-1.197324 0,-0.656518 -0.53975,-1.19662 -1.19662,-1.19662 -0.65687,0 -1.19662,0.540102 -1.19662,1.19662 m 1.19662,-1.091492 c 0.59866,0 1.08514,0.493535 1.08514,1.091492 0,0.596192 -0.4893,1.085494 -1.08514,1.085494 -0.59584,0 -1.08515,-0.489302 -1.08515,-1.085494 0,-0.597957 0.48684,-1.091492 1.08515,-1.091492 m -0.48401,1.843965 h 0.56797 c 0.46566,0 0.60571,-0.412044 0.60571,-0.730954 0,-0.41028 -0.22859,-0.689679 -0.59901,-0.689679 h -0.57467 z m 0.19085,-1.25765 h 0.35842 c 0.2607,0 0.42615,0.18168 0.42615,0.538338 0,0.358774 -0.16298,0.553859 -0.41239,0.553859 h -0.37218"
       style="fill:#231f20;fill-opacity:1;fill-rule:nonzero;stroke:none;stroke-width:0.0352777"
       id="path404" />
    <path
       d="m -166.10772,30.235676 c 0,-3.197217 -2.59079,-5.790127 -5.78377,-5.790127 -3.19793,0 -5.795,2.59291 -5.795,5.790127 0,3.198981 2.59707,5.791186 5.795,5.791186 3.19298,0 5.78377,-2.592205 5.78377,-5.791186 z"
       style="fill:none;stroke:#9c9a9b;stroke-width:0.141111;stroke-linecap:round;stroke-linejoin:round;stroke-miterlimit:10;stroke-dasharray:none;stroke-opacity:1"
       id="path406" />
    <path
       d="m -174.3948,28.966385 h 0.50519 v -0.822686 h -0.50519 z"
       style="fill:#231f20;fill-opacity:1;fill-rule:nonzero;stroke:none;stroke-width:0.0352777"
       id="path408" />
    <path
       d="m -174.95466,28.966385 h 0.50519 v -0.822686 h -0.50519 z"
       style="fill:#231f20;fill-opacity:1;fill-rule:nonzero;stroke:none;stroke-width:0.0352777"
       id="path410" />
    <path
       d="m -175.51381,28.966385 h 0.50547 v -0.822686 h -0.50547 z"
       style="fill:#231f20;fill-opacity:1;fill-rule:nonzero;stroke:none;stroke-width:0.0352777"
       id="path412" />
    <path
       d="m -176.07684,28.966385 h 0.50684 v -0.822686 h -0.50684 z"
       style="fill:#231f20;fill-opacity:1;fill-rule:nonzero;stroke:none;stroke-width:0.0352777"
       id="path414" />
    <path
       d="m -176.63564,28.966385 h 0.50519 v -0.822686 h -0.50519 z"
       style="fill:#231f20;fill-opacity:1;fill-rule:nonzero;stroke:none;stroke-width:0.0352777"
       id="path416" />
    <path
       d="m -174.95466,29.843741 h 0.50519 v -0.822549 h -0.50519 z"
       style="fill:#231f20;fill-opacity:1;fill-rule:nonzero;stroke:none;stroke-width:0.0352777"
       id="path418" />
    <path
       d="m -175.51381,29.843741 h 0.50547 v -0.822549 h -0.50547 z"
       style="fill:#231f20;fill-opacity:1;fill-rule:nonzero;stroke:none;stroke-width:0.0352777"
       id="path420" />
    <path
       d="m -176.07684,29.843741 h 0.50684 v -0.822549 h -0.50684 z"
       style="fill:#231f20;fill-opacity:1;fill-rule:nonzero;stroke:none;stroke-width:0.0352777"
       id="path422" />
    <path
       d="m -172.15855,30.719333 h 0.50616 v -0.82186 h -0.50616 z"
       style="fill:#231f20;fill-opacity:1;fill-rule:nonzero;stroke:none;stroke-width:0.0352777"
       id="path424" />
    <path
       d="m -172.71734,30.719333 h 0.50518 v -0.82186 h -0.50518 z"
       style="fill:#231f20;fill-opacity:1;fill-rule:nonzero;stroke:none;stroke-width:0.0352777"
       id="path426" />
    <path
       d="m -173.2772,30.719333 h 0.50546 v -0.82186 h -0.50546 z"
       style="fill:#231f20;fill-opacity:1;fill-rule:nonzero;stroke:none;stroke-width:0.0352777"
       id="path428" />
    <path
       d="m -175.51381,30.719333 h 0.50547 v -0.82186 h -0.50547 z"
       style="fill:#231f20;fill-opacity:1;fill-rule:nonzero;stroke:none;stroke-width:0.0352777"
       id="path430" />
    <path
       d="m -172.15855,31.59669 h 0.50616 v -0.822687 h -0.50616 z"
       style="fill:#231f20;fill-opacity:1;fill-rule:nonzero;stroke:none;stroke-width:0.0352777"
       id="path432" />
    <path
       d="m -172.71734,31.59669 h 0.50518 v -0.822687 h -0.50518 z"
       style="fill:#231f20;fill-opacity:1;fill-rule:nonzero;stroke:none;stroke-width:0.0352777"
       id="path434" />
    <path
       d="m -173.2772,31.59669 h 0.50546 v -0.822687 h -0.50546 z"
       style="fill:#231f20;fill-opacity:1;fill-rule:nonzero;stroke:none;stroke-width:0.0352777"
       id="path436" />
    <path
       d="m -175.51381,31.59669 h 0.50547 v -0.822687 h -0.50547 z"
       style="fill:#231f20;fill-opacity:1;fill-rule:nonzero;stroke:none;stroke-width:0.0352777"
       id="path438" />
    <path
       d="m -172.15855,32.472987 h 0.50616 v -0.821998 h -0.50616 z"
       style="fill:#231f20;fill-opacity:1;fill-rule:nonzero;stroke:none;stroke-width:0.0352777"
       id="path440" />
    <path
       d="m -172.71734,32.472987 h 0.50518 v -0.821998 h -0.50518 z"
       style="fill:#231f20;fill-opacity:1;fill-rule:nonzero;stroke:none;stroke-width:0.0352777"
       id="path442" />
    <path
       d="m -173.2772,32.472987 h 0.50546 v -0.821998 h -0.50546 z"
       style="fill:#231f20;fill-opacity:1;fill-rule:nonzero;stroke:none;stroke-width:0.0352777"
       id="path444" />
    <path
       d="m -175.51381,32.472987 h 0.50547 v -0.821998 h -0.50547 z"
       style="fill:#231f20;fill-opacity:1;fill-rule:nonzero;stroke:none;stroke-width:0.0352777"
       id="path446" />
    <text
       xml:space="preserve"
       transform="scale(1,-1)"
       style="font-variant:normal;font-weight:normal;font-size:0.0352777px;font-family:Arial;-inkscape-font-specification:Arial;writing-mode:lr-tb;fill:#231f20;fill-opacity:1;fill-rule:nonzero;stroke:none;stroke-width:0.352777"
       id="text452"
       x="-184.55074"
       y="-40.400822"><tspan
         x="-184.55074 -182.43408"
         y="-40.400822"
         sodipodi:role="line"
         id="tspan450"
         style="stroke-width:0.352777">✾✿</tspan></text>
    <text
       xml:space="preserve"
       transform="scale(1,-1)"
       style="font-variant:normal;font-weight:normal;font-size:0.0352777px;font-family:Arial;-inkscape-font-specification:Arial;writing-mode:lr-tb;fill:#231f20;fill-opacity:1;fill-rule:nonzero;stroke:none;stroke-width:0.352777"
       id="text456"
       x="-180.3174"
       y="-40.400822"><tspan
         x="-180.3174 -178.20074 -176.08408 -173.96742 -171.85075 -169.7341 -167.61743"
         y="-40.400822"
         sodipodi:role="line"
         id="tspan454"
         style="stroke-width:0.352777">✕✖✗✘✙✚✛</tspan></text>
    <path
       d="m -176.69099,30.290357 h -2.0617 v 7.603047"
       style="fill:none;stroke:#ffffff;stroke-width:0.423332;stroke-linecap:round;stroke-linejoin:round;stroke-miterlimit:4;stroke-dasharray:none;stroke-opacity:1"
       id="path458" />
    <path
       d="m -176.69099,30.290357 h -2.0617 v 7.603047"
       style="fill:none;stroke:#231f20;stroke-width:0.0881942;stroke-linecap:butt;stroke-linejoin:miter;stroke-miterlimit:4;stroke-dasharray:none;stroke-opacity:1"
       id="path460" />
  </g>
</svg>
