<?xml version="1.0" encoding="UTF-8" standalone="no"?>
<!-- Created with Inkscape (http://www.inkscape.org/) -->

<svg
   width="31.167101mm"
   height="21.449553mm"
   viewBox="0 0 31.167101 21.449553"
   version="1.1"
   id="svg774"
   inkscape:version="1.2.2 (b0a8486541, 2022-12-01)"
   sodipodi:docname="key_mute.svg"
   xmlns:inkscape="http://www.inkscape.org/namespaces/inkscape"
   xmlns:sodipodi="http://sodipodi.sourceforge.net/DTD/sodipodi-0.dtd"
   xmlns="http://www.w3.org/2000/svg"
   xmlns:svg="http://www.w3.org/2000/svg">
  <sodipodi:namedview
     id="namedview776"
     pagecolor="#ffffff"
     bordercolor="#666666"
     borderopacity="1.0"
     inkscape:showpageshadow="2"
     inkscape:pageopacity="0.0"
     inkscape:pagecheckerboard="0"
     inkscape:deskcolor="#d1d1d1"
     inkscape:document-units="mm"
     showgrid="false"
     inkscape:zoom="0.44542649"
     inkscape:cx="1086.5991"
     inkscape:cy="473.70331"
     inkscape:window-width="1366"
     inkscape:window-height="685"
     inkscape:window-x="0"
     inkscape:window-y="27"
     inkscape:window-maximized="1"
     inkscape:current-layer="layer1" />
  <defs
     id="defs771">
    <clipPath
       clipPathUnits="userSpaceOnUse"
       id="clipPath734">
      <path
         d="m 2580.83,1495.6 h 714.313 v 357.168 H 2580.83 Z"
         id="path732" />
    </clipPath>
    <clipPath
       clipPathUnits="userSpaceOnUse"
       id="clipPath657">
      <path
         d="m 2580.83,1495.6 h 714.313 v 357.168 H 2580.83 Z"
         id="path655" />
    </clipPath>
    <clipPath
       clipPathUnits="userSpaceOnUse"
       id="clipPath661">
      <path
         d="m 2580.83,1495.6 h 714.313 v 357.168 H 2580.83 Z"
         id="path659" />
    </clipPath>
  </defs>
  <g
     inkscape:label="Layer 1"
     inkscape:groupmode="layer"
     id="layer1"
     transform="translate(182.49755,-23.133222)">
    <path
       d="m -177.10183,32.354821 -0.43286,-0.19438 c 0,0 -0.35877,-0.173566 -0.66004,0.06103 -0.24801,0.192616 -0.69356,0.507999 -1.42134,1.660874 -0.71508,1.157461 -0.77258,1.648174 -0.82127,1.931101 -0.0596,0.343252 0.31009,0.498826 0.31009,0.498826 l 0.43216,0.19438"
       style="fill:#9c9a9b;fill-opacity:1;fill-rule:nonzero;stroke:none;stroke-width:0.0352777"
       id="path720" />
    <path
       d="m -162.65632,32.354821 0.43285,-0.19438 c 0,0 0.35878,-0.173566 0.66005,0.06103 0.24765,0.192616 0.69356,0.507999 1.42099,1.660874 0.71543,1.157461 0.77293,1.648174 0.82126,1.931101 0.0596,0.343252 -0.31009,0.498826 -0.31009,0.498826 l -0.4318,0.19438"
       style="fill:#9c9a9b;fill-opacity:1;fill-rule:nonzero;stroke:none;stroke-width:0.0352777"
       id="path722" />
    <path
       d="m -177.10183,44.210594 -0.43286,0.194733 c 0,0 -0.35877,0.173566 -0.66004,-0.06103 -0.24801,-0.192617 -0.69356,-0.508352 -1.42134,-1.660874 -0.71508,-1.157814 -0.77258,-1.648174 -0.82127,-1.931454 -0.0596,-0.342899 0.31009,-0.498473 0.31009,-0.498473 l 0.43216,-0.19438"
       style="fill:#9c9a9b;fill-opacity:1;fill-rule:nonzero;stroke:none;stroke-width:0.0352777"
       id="path724" />
    <path
       d="m -162.65632,44.210594 0.43285,0.194733 c 0,0 0.35878,0.173566 0.66005,-0.06103 0.24765,-0.192617 0.69356,-0.508352 1.42099,-1.660874 0.71543,-1.157814 0.77293,-1.648174 0.82126,-1.931454 0.0596,-0.342899 -0.31009,-0.498473 -0.31009,-0.498473 l -0.4318,-0.19438"
       style="fill:#9c9a9b;fill-opacity:1;fill-rule:nonzero;stroke:none;stroke-width:0.0352777"
       id="path726" />
    <path
       d="m 3230.94,1674.18 c 0,-137.51 -131.15,-248.99 -292.95,-248.99 -161.78,0 -292.93,111.48 -292.93,248.99 0,137.51 131.15,249 292.93,249 161.8,0 292.95,-111.49 292.95,-249"
       style="fill:#ffffff;fill-opacity:1;fill-rule:nonzero;stroke:none"
       id="path736"
       clip-path="url(#clipPath734)"
       transform="matrix(0.03527769,0,0,-0.03527769,-273.52493,97.344087)" />
    <path
       d="m 3230.94,1674.18 c 0,-137.51 -131.15,-248.99 -292.95,-248.99 -161.78,0 -292.93,111.48 -292.93,248.99 0,137.51 131.15,249 292.93,249 161.8,0 292.95,-111.49 292.95,-249 z"
       style="fill:none;stroke:#9c9a9b;stroke-width:6;stroke-linecap:butt;stroke-linejoin:miter;stroke-miterlimit:10;stroke-dasharray:none;stroke-opacity:1"
       id="path738"
       clip-path="url(#clipPath734)"
       transform="matrix(0.03527769,0,0,-0.03527769,-273.52493,97.344087)" />
    <path
       d="m 3207.46,1674.18 c 0,-126.5 -120.64,-229.05 -269.47,-229.05 -148.82,0 -269.46,102.55 -269.46,229.05 0,126.5 120.64,229.05 269.46,229.05 148.83,0 269.47,-102.55 269.47,-229.05 z"
       style="fill:none;stroke:#9c9a9b;stroke-width:4;stroke-linecap:butt;stroke-linejoin:miter;stroke-miterlimit:10;stroke-dasharray:none;stroke-opacity:1"
       id="path740"
       clip-path="url(#clipPath734)"
       transform="matrix(0.03527769,0,0,-0.03527769,-273.52493,97.344087)" />
    <path
       d="m -182.49755,33.294266 c 0,0.656518 0.54045,1.197325 1.19732,1.197325 0.65617,0 1.19627,-0.540807 1.19627,-1.197325 0,-0.656518 -0.5401,-1.196267 -1.19627,-1.196267 -0.65687,0 -1.19732,0.539749 -1.19732,1.196267 m 1.19732,-1.084789 c 0.59761,0 1.08479,0.487185 1.08479,1.084789 0,0.596193 -0.48895,1.084789 -1.08479,1.084789 -0.59654,0 -1.08585,-0.488596 -1.08585,-1.084789 0,-0.597604 0.48684,-1.084789 1.08585,-1.084789 m 0.28575,1.397349 0.14217,0.414513 h 0.2092 l -0.51435,-1.420633 h -0.21908 l -0.5334,1.420633 h 0.19862 l 0.14887,-0.414513 z m -0.51012,-0.170391 0.22825,-0.624062 h 0.005 l 0.2092,0.624062"
       style="fill:#231f20;fill-opacity:1;fill-rule:nonzero;stroke:none;stroke-width:0.0352777"
       id="path742" />
    <path
       d="m -159.69511,33.295324 c 0,0.656518 0.54045,1.196619 1.19697,1.196619 0.65687,0 1.19662,-0.540101 1.19662,-1.196619 0,-0.656518 -0.53975,-1.197325 -1.19662,-1.197325 -0.65652,0 -1.19697,0.540807 -1.19697,1.197325 m 1.19697,-1.092197 c 0.59866,0 1.08514,0.493535 1.08514,1.092197 0,0.596193 -0.48895,1.084789 -1.08514,1.084789 -0.59584,0 -1.08479,-0.488596 -1.08479,-1.084789 0,-0.598662 0.48648,-1.092197 1.08479,-1.092197 m -0.24448,1.184977 h 0.37959 c 0.15593,0 0.33091,0.03951 0.33091,0.239536 0,0.15875 -0.10019,0.258938 -0.30092,0.258938 h -0.40958 z m -0.19085,0.663927 h 0.61242 c 0.31433,0 0.4819,-0.191205 0.4819,-0.419099 0,-0.244828 -0.16546,-0.309386 -0.25859,-0.347486 0.15875,-0.07197 0.19121,-0.202494 0.19121,-0.295274 0,-0.195791 -0.13723,-0.358774 -0.40252,-0.358774 h -0.62442 z m 0.19085,-1.25765 h 0.34925 c 0.21449,0 0.29563,0.0769 0.29563,0.209902 0,0.172155 -0.11395,0.228247 -0.29774,0.228247 h -0.34714"
       style="fill:#231f20;fill-opacity:1;fill-rule:nonzero;stroke:none;stroke-width:0.0352777"
       id="path744" />
    <path
       d="m -182.49755,43.270444 c 0,0.657223 0.54045,1.197325 1.19732,1.197325 0.65617,0 1.19627,-0.540102 1.19627,-1.197325 0,-0.656518 -0.5401,-1.196619 -1.19627,-1.196619 -0.65687,0 -1.19732,0.540101 -1.19732,1.196619 m 1.8048,-0.251177 c -0.0282,-0.237419 -0.21907,-0.463196 -0.58455,-0.463196 -0.41416,0 -0.66392,0.302682 -0.66392,0.738362 0,0.546451 0.31679,0.756353 0.64099,0.756353 0.10619,0 0.54222,-0.02293 0.62159,-0.558798 h -0.18697 c -0.0653,0.330552 -0.28116,0.388407 -0.40499,0.388407 -0.35383,0 -0.47201,-0.25541 -0.47201,-0.590901 0,-0.374649 0.20884,-0.563032 0.46531,-0.563032 0.13723,0 0.34502,0.04374 0.39758,0.292805 z m -0.60748,-0.833612 c 0.59761,0 1.08479,0.486832 1.08479,1.084789 0,0.596193 -0.48895,1.085494 -1.08479,1.085494 -0.59654,0 -1.08585,-0.489301 -1.08585,-1.085494 0,-0.597957 0.48684,-1.084789 1.08585,-1.084789"
       style="fill:#231f20;fill-opacity:1;fill-rule:nonzero;stroke:none;stroke-width:0.0352777"
       id="path746" />
    <path
       d="m -159.69758,43.270444 c 0,0.657223 0.53975,1.197325 1.19662,1.197325 0.65687,0 1.19662,-0.540102 1.19662,-1.197325 0,-0.656518 -0.53975,-1.196619 -1.19662,-1.196619 -0.65687,0 -1.19662,0.540101 -1.19662,1.196619 m 1.19662,-1.091492 c 0.59866,0 1.08514,0.493535 1.08514,1.091492 0,0.596193 -0.4893,1.085494 -1.08514,1.085494 -0.59584,0 -1.08515,-0.489301 -1.08515,-1.085494 0,-0.597957 0.48684,-1.091492 1.08515,-1.091492 m -0.48401,1.843965 h 0.56797 c 0.46566,0 0.60572,-0.412044 0.60572,-0.730954 0,-0.410279 -0.2286,-0.689679 -0.59902,-0.689679 h -0.57467 z m 0.19085,-1.25765 h 0.35842 c 0.2607,0 0.42615,0.18168 0.42615,0.538338 0,0.358774 -0.16298,0.55386 -0.41239,0.55386 h -0.37218"
       style="fill:#231f20;fill-opacity:1;fill-rule:nonzero;stroke:none;stroke-width:0.0352777"
       id="path748" />
    <path
       d="m -164.08048,38.225029 c 0,-3.197218 -2.5908,-5.790128 -5.78378,-5.790128 -3.19792,0 -5.79507,2.59291 -5.79507,5.790128 0,3.19898 2.59715,5.791185 5.79507,5.791185 3.19298,0 5.78378,-2.592205 5.78378,-5.791185 z"
       style="fill:none;stroke:#9c9a9b;stroke-width:0.141111;stroke-linecap:round;stroke-linejoin:round;stroke-miterlimit:10;stroke-dasharray:none;stroke-opacity:1"
       id="path750" />
    <path
       d="m -165.65775,36.955737 h 0.50519 v -0.822686 h -0.50519 z"
       style="fill:#7b7979;fill-opacity:1;fill-rule:nonzero;stroke:none;stroke-width:0.0352777"
       id="path752" />
    <path
       d="m -166.2169,36.955737 h 0.5056 v -0.822686 h -0.5056 z"
       style="fill:#7b7979;fill-opacity:1;fill-rule:nonzero;stroke:none;stroke-width:0.0352777"
       id="path754" />
    <path
       d="m -166.77535,36.955737 h 0.50519 v -0.822686 h -0.50519 z"
       style="fill:#7b7979;fill-opacity:1;fill-rule:nonzero;stroke:none;stroke-width:0.0352777"
       id="path756" />
    <path
       d="m -167.894,36.955737 h 0.50519 v -0.822686 h -0.50519 z"
       style="fill:#7b7979;fill-opacity:1;fill-rule:nonzero;stroke:none;stroke-width:0.0352777"
       id="path758" />
    <path
       d="m -168.45386,36.955737 h 0.50519 v -0.822686 h -0.50519 z"
       style="fill:#7b7979;fill-opacity:1;fill-rule:nonzero;stroke:none;stroke-width:0.0352777"
       id="path760" />
    <path
       d="m -169.01266,36.955737 h 0.50519 v -0.822686 h -0.50519 z"
       style="fill:#7b7979;fill-opacity:1;fill-rule:nonzero;stroke:none;stroke-width:0.0352777"
       id="path762" />
    <path
       d="m -170.13131,36.955737 h 0.50615 v -0.822686 h -0.50615 z"
       style="fill:#7b7979;fill-opacity:1;fill-rule:nonzero;stroke:none;stroke-width:0.0352777"
       id="path764" />
    <path
       d="m -171.25032,36.955737 h 0.5056 v -0.822686 h -0.5056 z"
       style="fill:#7b7979;fill-opacity:1;fill-rule:nonzero;stroke:none;stroke-width:0.0352777"
       id="path766" />
    <path
       d="m -172.36792,36.955737 h 0.50519 v -0.822686 h -0.50519 z"
       style="fill:#7b7979;fill-opacity:1;fill-rule:nonzero;stroke:none;stroke-width:0.0352777"
       id="path768" />
    <path
       d="m -174.60876,36.955737 h 0.50519 v -0.822686 h -0.50519 z"
       style="fill:#7b7979;fill-opacity:1;fill-rule:nonzero;stroke:none;stroke-width:0.0352777"
       id="path770" />
    <path
       d="m -166.77535,37.833093 h 0.50519 v -0.822686 h -0.50519 z"
       style="fill:#7b7979;fill-opacity:1;fill-rule:nonzero;stroke:none;stroke-width:0.0352777"
       id="path772" />
    <path
       d="m -168.45386,37.833093 h 0.50519 v -0.822686 h -0.50519 z"
       style="fill:#7b7979;fill-opacity:1;fill-rule:nonzero;stroke:none;stroke-width:0.0352777"
       id="path774" />
    <path
       d="m -170.13131,37.833093 h 0.50615 v -0.822686 h -0.50615 z"
       style="fill:#7b7979;fill-opacity:1;fill-rule:nonzero;stroke:none;stroke-width:0.0352777"
       id="path776" />
    <path
       d="m -171.25032,37.833093 h 0.5056 v -0.822686 h -0.5056 z"
       style="fill:#7b7979;fill-opacity:1;fill-rule:nonzero;stroke:none;stroke-width:0.0352777"
       id="path778" />
    <path
       d="m -172.36792,37.833093 h 0.50519 v -0.822686 h -0.50519 z"
       style="fill:#7b7979;fill-opacity:1;fill-rule:nonzero;stroke:none;stroke-width:0.0352777"
       id="path780" />
    <path
       d="m -172.92742,37.833093 h 0.50519 v -0.822686 h -0.50519 z"
       style="fill:#7b7979;fill-opacity:1;fill-rule:nonzero;stroke:none;stroke-width:0.0352777"
       id="path782" />
    <path
       d="m -174.04961,37.833093 h 0.50685 v -0.822686 h -0.50685 z"
       style="fill:#7b7979;fill-opacity:1;fill-rule:nonzero;stroke:none;stroke-width:0.0352777"
       id="path784" />
    <path
       d="m -174.60876,37.833093 h 0.50519 v -0.822686 h -0.50519 z"
       style="fill:#7b7979;fill-opacity:1;fill-rule:nonzero;stroke:none;stroke-width:0.0352777"
       id="path786" />
    <path
       d="m -165.65775,38.708686 h 0.50519 v -0.821999 h -0.50519 z"
       style="fill:#7b7979;fill-opacity:1;fill-rule:nonzero;stroke:none;stroke-width:0.0352777"
       id="path788" />
    <path
       d="m -166.2169,38.708686 h 0.5056 v -0.821999 h -0.5056 z"
       style="fill:#7b7979;fill-opacity:1;fill-rule:nonzero;stroke:none;stroke-width:0.0352777"
       id="path790" />
    <path
       d="m -166.77535,38.708686 h 0.50519 v -0.821999 h -0.50519 z"
       style="fill:#7b7979;fill-opacity:1;fill-rule:nonzero;stroke:none;stroke-width:0.0352777"
       id="path792" />
    <path
       d="m -168.45386,38.708686 h 0.50519 v -0.821999 h -0.50519 z"
       style="fill:#7b7979;fill-opacity:1;fill-rule:nonzero;stroke:none;stroke-width:0.0352777"
       id="path794" />
    <path
       d="m -170.13131,38.708686 h 0.50615 v -0.821999 h -0.50615 z"
       style="fill:#7b7979;fill-opacity:1;fill-rule:nonzero;stroke:none;stroke-width:0.0352777"
       id="path796" />
    <path
       d="m -171.25032,38.708686 h 0.5056 v -0.821999 h -0.5056 z"
       style="fill:#7b7979;fill-opacity:1;fill-rule:nonzero;stroke:none;stroke-width:0.0352777"
       id="path798" />
    <path
       d="m -172.36792,38.708686 h 0.50519 v -0.821999 h -0.50519 z"
       style="fill:#7b7979;fill-opacity:1;fill-rule:nonzero;stroke:none;stroke-width:0.0352777"
       id="path800" />
    <path
       d="m -173.48693,38.708686 h 0.50547 v -0.821999 h -0.50547 z"
       style="fill:#7b7979;fill-opacity:1;fill-rule:nonzero;stroke:none;stroke-width:0.0352777"
       id="path802" />
    <path
       d="m -174.60876,38.708686 h 0.50519 v -0.821999 h -0.50519 z"
       style="fill:#7b7979;fill-opacity:1;fill-rule:nonzero;stroke:none;stroke-width:0.0352777"
       id="path804" />
    <path
       d="m -166.77535,39.586042 h 0.50519 v -0.822686 h -0.50519 z"
       style="fill:#7b7979;fill-opacity:1;fill-rule:nonzero;stroke:none;stroke-width:0.0352777"
       id="path806" />
    <path
       d="m -168.45386,39.586042 h 0.50519 v -0.822686 h -0.50519 z"
       style="fill:#7b7979;fill-opacity:1;fill-rule:nonzero;stroke:none;stroke-width:0.0352777"
       id="path808" />
    <path
       d="m -170.13131,39.586042 h 0.50615 v -0.822686 h -0.50615 z"
       style="fill:#7b7979;fill-opacity:1;fill-rule:nonzero;stroke:none;stroke-width:0.0352777"
       id="path810" />
    <path
       d="m -171.25032,39.586042 h 0.5056 v -0.822686 h -0.5056 z"
       style="fill:#7b7979;fill-opacity:1;fill-rule:nonzero;stroke:none;stroke-width:0.0352777"
       id="path812" />
    <path
       d="m -172.36792,39.586042 h 0.50519 v -0.822686 h -0.50519 z"
       style="fill:#7b7979;fill-opacity:1;fill-rule:nonzero;stroke:none;stroke-width:0.0352777"
       id="path814" />
    <path
       d="m -174.60876,39.586042 h 0.50519 v -0.822686 h -0.50519 z"
       style="fill:#7b7979;fill-opacity:1;fill-rule:nonzero;stroke:none;stroke-width:0.0352777"
       id="path816" />
    <path
       d="m -165.65775,40.46234 h 0.50519 v -0.821999 h -0.50519 z"
       style="fill:#7b7979;fill-opacity:1;fill-rule:nonzero;stroke:none;stroke-width:0.0352777"
       id="path818" />
    <path
       d="m -166.2169,40.46234 h 0.5056 v -0.821999 h -0.5056 z"
       style="fill:#7b7979;fill-opacity:1;fill-rule:nonzero;stroke:none;stroke-width:0.0352777"
       id="path820" />
    <path
       d="m -166.77535,40.46234 h 0.50519 v -0.821999 h -0.50519 z"
       style="fill:#7b7979;fill-opacity:1;fill-rule:nonzero;stroke:none;stroke-width:0.0352777"
       id="path822" />
    <path
       d="m -168.45386,40.46234 h 0.50519 v -0.821999 h -0.50519 z"
       style="fill:#7b7979;fill-opacity:1;fill-rule:nonzero;stroke:none;stroke-width:0.0352777"
       id="path824" />
    <path
       d="m -170.13131,40.46234 h 0.50615 v -0.821999 h -0.50615 z"
       style="fill:#7b7979;fill-opacity:1;fill-rule:nonzero;stroke:none;stroke-width:0.0352777"
       id="path826" />
    <path
       d="m -170.69046,40.46234 h 0.50518 v -0.821999 h -0.50518 z"
       style="fill:#7b7979;fill-opacity:1;fill-rule:nonzero;stroke:none;stroke-width:0.0352777"
       id="path828" />
    <path
       d="m -171.25032,40.46234 h 0.5056 v -0.821999 h -0.5056 z"
       style="fill:#7b7979;fill-opacity:1;fill-rule:nonzero;stroke:none;stroke-width:0.0352777"
       id="path830" />
    <path
       d="m -172.36792,40.46234 h 0.50519 v -0.821999 h -0.50519 z"
       style="fill:#7b7979;fill-opacity:1;fill-rule:nonzero;stroke:none;stroke-width:0.0352777"
       id="path832" />
    <path
       d="m -174.60876,40.46234 h 0.50519 v -0.821999 h -0.50519 z"
       style="fill:#7b7979;fill-opacity:1;fill-rule:nonzero;stroke:none;stroke-width:0.0352777"
       id="path834" />
    <path
       d="m -166.77852,23.955908 h 0.50519 v -0.822686 h -0.50519 z"
       style="fill:#231f20;fill-opacity:1;fill-rule:nonzero;stroke:none;stroke-width:0.0352777"
       id="path836" />
    <path
       d="m -169.01618,23.955908 h 0.50518 v -0.822686 h -0.50518 z"
       style="fill:#231f20;fill-opacity:1;fill-rule:nonzero;stroke:none;stroke-width:0.0352777"
       id="path838" />
    <path
       d="m -170.13519,23.955908 h 0.50629 v -0.822686 h -0.50629 z"
       style="fill:#231f20;fill-opacity:1;fill-rule:nonzero;stroke:none;stroke-width:0.0352777"
       id="path840" />
    <path
       d="m -171.2535,23.955908 h 0.5056 v -0.822686 h -0.5056 z"
       style="fill:#231f20;fill-opacity:1;fill-rule:nonzero;stroke:none;stroke-width:0.0352777"
       id="path842" />
    <path
       d="m -171.81229,23.955908 h 0.50518 v -0.822686 h -0.50518 z"
       style="fill:#231f20;fill-opacity:1;fill-rule:nonzero;stroke:none;stroke-width:0.0352777"
       id="path844" />
    <path
       d="m -172.37074,23.955908 h 0.50519 v -0.822686 h -0.50519 z"
       style="fill:#231f20;fill-opacity:1;fill-rule:nonzero;stroke:none;stroke-width:0.0352777"
       id="path846" />
    <path
       d="m -173.48975,23.955908 h 0.50519 v -0.822686 h -0.50519 z"
       style="fill:#231f20;fill-opacity:1;fill-rule:nonzero;stroke:none;stroke-width:0.0352777"
       id="path848" />
    <path
       d="m -174.61158,23.955908 h 0.50519 v -0.822686 h -0.50519 z"
       style="fill:#231f20;fill-opacity:1;fill-rule:nonzero;stroke:none;stroke-width:0.0352777"
       id="path850" />
    <path
       d="m -166.22007,24.833265 h 0.5056 v -0.822687 h -0.5056 z"
       style="fill:#231f20;fill-opacity:1;fill-rule:nonzero;stroke:none;stroke-width:0.0352777"
       id="path852" />
    <path
       d="m -166.77852,24.833265 h 0.50519 v -0.822687 h -0.50519 z"
       style="fill:#231f20;fill-opacity:1;fill-rule:nonzero;stroke:none;stroke-width:0.0352777"
       id="path854" />
    <path
       d="m -169.01618,24.833265 h 0.50518 v -0.822687 h -0.50518 z"
       style="fill:#231f20;fill-opacity:1;fill-rule:nonzero;stroke:none;stroke-width:0.0352777"
       id="path856" />
    <path
       d="m -170.13519,24.833265 h 0.50629 v -0.822687 h -0.50629 z"
       style="fill:#231f20;fill-opacity:1;fill-rule:nonzero;stroke:none;stroke-width:0.0352777"
       id="path858" />
    <path
       d="m -172.37074,24.833265 h 0.50519 v -0.822687 h -0.50519 z"
       style="fill:#231f20;fill-opacity:1;fill-rule:nonzero;stroke:none;stroke-width:0.0352777"
       id="path860" />
    <path
       d="m -173.48975,24.833265 h 0.50519 v -0.822687 h -0.50519 z"
       style="fill:#231f20;fill-opacity:1;fill-rule:nonzero;stroke:none;stroke-width:0.0352777"
       id="path862" />
    <path
       d="m -174.61158,24.833265 h 0.50519 v -0.822687 h -0.50519 z"
       style="fill:#231f20;fill-opacity:1;fill-rule:nonzero;stroke:none;stroke-width:0.0352777"
       id="path864" />
    <path
       d="m -165.66057,25.708857 h 0.50491 v -0.821998 h -0.50491 z"
       style="fill:#231f20;fill-opacity:1;fill-rule:nonzero;stroke:none;stroke-width:0.0352777"
       id="path866" />
    <path
       d="m -166.77852,25.708857 h 0.50519 v -0.821998 h -0.50519 z"
       style="fill:#231f20;fill-opacity:1;fill-rule:nonzero;stroke:none;stroke-width:0.0352777"
       id="path868" />
    <path
       d="m -169.57534,25.708857 h 0.5056 v -0.821998 h -0.5056 z"
       style="fill:#231f20;fill-opacity:1;fill-rule:nonzero;stroke:none;stroke-width:0.0352777"
       id="path870" />
    <path
       d="m -171.2535,25.708857 h 0.5056 v -0.821998 h -0.5056 z"
       style="fill:#231f20;fill-opacity:1;fill-rule:nonzero;stroke:none;stroke-width:0.0352777"
       id="path872" />
    <path
       d="m -171.81229,25.708857 h 0.50518 v -0.821998 h -0.50518 z"
       style="fill:#231f20;fill-opacity:1;fill-rule:nonzero;stroke:none;stroke-width:0.0352777"
       id="path874" />
    <path
       d="m -172.37074,25.708857 h 0.50519 v -0.821998 h -0.50519 z"
       style="fill:#231f20;fill-opacity:1;fill-rule:nonzero;stroke:none;stroke-width:0.0352777"
       id="path876" />
    <path
       d="m -174.05278,25.708857 h 0.50684 v -0.821998 h -0.50684 z"
       style="fill:#231f20;fill-opacity:1;fill-rule:nonzero;stroke:none;stroke-width:0.0352777"
       id="path878" />
    <path
       d="m -174.61158,25.708857 h 0.50519 v -0.821998 h -0.50519 z"
       style="fill:#231f20;fill-opacity:1;fill-rule:nonzero;stroke:none;stroke-width:0.0352777"
       id="path880" />
    <path
       d="m -165.66057,26.586213 h 0.50491 v -0.822686 h -0.50491 z"
       style="fill:#231f20;fill-opacity:1;fill-rule:nonzero;stroke:none;stroke-width:0.0352777"
       id="path882" />
    <path
       d="m -166.77852,26.586213 h 0.50519 v -0.822686 h -0.50519 z"
       style="fill:#231f20;fill-opacity:1;fill-rule:nonzero;stroke:none;stroke-width:0.0352777"
       id="path884" />
    <path
       d="m -167.33873,26.586213 h 0.50615 v -0.822686 h -0.50615 z"
       style="fill:#231f20;fill-opacity:1;fill-rule:nonzero;stroke:none;stroke-width:0.0352777"
       id="path886" />
    <path
       d="m -167.89753,26.586213 h 0.50491 v -0.822686 h -0.50491 z"
       style="fill:#231f20;fill-opacity:1;fill-rule:nonzero;stroke:none;stroke-width:0.0352777"
       id="path888" />
    <path
       d="m -169.57534,26.586213 h 0.5056 v -0.822686 h -0.5056 z"
       style="fill:#231f20;fill-opacity:1;fill-rule:nonzero;stroke:none;stroke-width:0.0352777"
       id="path890" />
    <path
       d="m -172.37074,26.586213 h 0.50519 v -0.822686 h -0.50519 z"
       style="fill:#231f20;fill-opacity:1;fill-rule:nonzero;stroke:none;stroke-width:0.0352777"
       id="path892" />
    <path
       d="m -173.48975,26.586213 h 0.50519 v -0.822686 h -0.50519 z"
       style="fill:#231f20;fill-opacity:1;fill-rule:nonzero;stroke:none;stroke-width:0.0352777"
       id="path894" />
    <path
       d="m -174.61158,26.586213 h 0.50519 v -0.822686 h -0.50519 z"
       style="fill:#231f20;fill-opacity:1;fill-rule:nonzero;stroke:none;stroke-width:0.0352777"
       id="path896" />
    <path
       d="m -166.77852,27.462511 h 0.50519 v -0.821999 h -0.50519 z"
       style="fill:#231f20;fill-opacity:1;fill-rule:nonzero;stroke:none;stroke-width:0.0352777"
       id="path898" />
    <path
       d="m -167.33873,27.462511 h 0.50615 v -0.821999 h -0.50615 z"
       style="fill:#231f20;fill-opacity:1;fill-rule:nonzero;stroke:none;stroke-width:0.0352777"
       id="path900" />
    <path
       d="m -167.89753,27.462511 h 0.50491 v -0.821999 h -0.50491 z"
       style="fill:#231f20;fill-opacity:1;fill-rule:nonzero;stroke:none;stroke-width:0.0352777"
       id="path902" />
    <path
       d="m -169.57534,27.462511 h 0.5056 v -0.821999 h -0.5056 z"
       style="fill:#231f20;fill-opacity:1;fill-rule:nonzero;stroke:none;stroke-width:0.0352777"
       id="path904" />
    <path
       d="m -171.2535,27.462511 h 0.5056 v -0.821999 h -0.5056 z"
       style="fill:#231f20;fill-opacity:1;fill-rule:nonzero;stroke:none;stroke-width:0.0352777"
       id="path906" />
    <path
       d="m -171.81229,27.462511 h 0.50518 v -0.821999 h -0.50518 z"
       style="fill:#231f20;fill-opacity:1;fill-rule:nonzero;stroke:none;stroke-width:0.0352777"
       id="path908" />
    <path
       d="m -172.37074,27.462511 h 0.50519 v -0.821999 h -0.50519 z"
       style="fill:#231f20;fill-opacity:1;fill-rule:nonzero;stroke:none;stroke-width:0.0352777"
       id="path910" />
    <path
       d="m -173.48975,27.462511 h 0.50519 v -0.821999 h -0.50519 z"
       style="fill:#231f20;fill-opacity:1;fill-rule:nonzero;stroke:none;stroke-width:0.0352777"
       id="path912" />
    <path
       d="m -174.61158,27.462511 h 0.50519 v -0.821999 h -0.50519 z"
       style="fill:#231f20;fill-opacity:1;fill-rule:nonzero;stroke:none;stroke-width:0.0352777"
       id="path914" />
    <path
       d="m -163.219,38.273006 c 0,2.312453 -2.9912,4.187462 -6.6816,4.187462 -3.6904,0 -6.68194,-1.875009 -6.68194,-4.187462 0,-2.312452 2.99154,-4.187814 6.68194,-4.187814 3.6904,0 6.6816,1.875362 6.6816,4.187814 z"
       style="fill:none;stroke:#ffffff;stroke-width:1.5875;stroke-linecap:butt;stroke-linejoin:miter;stroke-miterlimit:4;stroke-dasharray:0.423332, 0.772581;stroke-dashoffset:0;stroke-opacity:1"
       id="path916" />
    <path
       d="m -163.219,38.273006 c 0,2.312453 -2.9912,4.187462 -6.6816,4.187462 -3.6904,0 -6.68194,-1.875009 -6.68194,-4.187462 0,-2.312452 2.99154,-4.187814 6.68194,-4.187814 3.6904,0 6.6816,1.875362 6.6816,4.187814 z"
       style="fill:none;stroke:#231f20;stroke-width:1.41111;stroke-linecap:butt;stroke-linejoin:miter;stroke-miterlimit:4;stroke-dasharray:0.176388, 1.02305;stroke-dashoffset:0;stroke-opacity:1"
       id="path918" />
    <path
       d="m -169.7683,34.865887 v -5.835636 l 0.62229,0.672746 0.20744,-0.191558 -0.97085,-1.049158 -0.97084,1.049158 0.20744,0.191558 0.62194,-0.672746 v 5.835636 l -0.62194,-0.672393 -0.20744,0.191558 0.97084,1.048806 0.97085,-1.048806 -0.20744,-0.191558 z"
       style="fill:none;stroke:#ffffff;stroke-width:0.423332;stroke-linecap:butt;stroke-linejoin:miter;stroke-miterlimit:4;stroke-dasharray:none;stroke-opacity:1"
       id="path920" />
    <path
       d="m -170.77689,34.289097 0.86712,0.936975 0.86713,-0.936975"
       style="fill:none;stroke:#231f20;stroke-width:0.282222;stroke-linecap:butt;stroke-linejoin:miter;stroke-miterlimit:4;stroke-dasharray:none;stroke-opacity:1"
       id="path922" />
    <path
       d="M -169.90977,35.026048 V 28.670066"
       style="fill:none;stroke:#231f20;stroke-width:0.282222;stroke-linecap:butt;stroke-linejoin:miter;stroke-miterlimit:4;stroke-dasharray:none;stroke-opacity:1"
       id="path924" />
    <path
       d="m -170.77689,29.607042 0.86712,-0.936976 0.86713,0.936976"
       style="fill:none;stroke:#231f20;stroke-width:0.282222;stroke-linecap:butt;stroke-linejoin:miter;stroke-miterlimit:4;stroke-dasharray:none;stroke-opacity:1"
       id="path926" />
    <text
       xml:space="preserve"
       transform="scale(1,-1)"
       style="font-variant:normal;font-weight:normal;font-size:0.0352777px;font-family:Arial;-inkscape-font-specification:Arial;writing-mode:lr-tb;fill:#231f20;fill-opacity:1;fill-rule:nonzero;stroke:none;stroke-width:0.352777"
       id="text932"
       x="-159.85992"
       y="-26.083065"><tspan
         x="-159.85992 -157.74327 -155.6266"
         y="-26.083065"
         sodipodi:role="line"
         id="tspan930"
         style="stroke-width:0.352777">✛✜✢</tspan></text>
    <text
       xml:space="preserve"
       transform="scale(1,-1)"
       style="font-variant:normal;font-weight:normal;font-size:0.0352777px;font-family:Arial;-inkscape-font-specification:Arial;writing-mode:lr-tb;fill:#231f20;fill-opacity:1;fill-rule:nonzero;stroke:none;stroke-width:0.352777"
       id="text936"
       x="-153.26308"
       y="-26.118256"><tspan
         x="-153.26308 -151.35808"
         y="-26.118256"
         sodipodi:role="line"
         id="tspan934"
         style="stroke-width:0.352777">✗✙</tspan></text>
    <path
       d="m -164.03921,25.332444 h 3.57681"
       style="fill:none;stroke:#ffffff;stroke-width:0.423332;stroke-linecap:round;stroke-linejoin:round;stroke-miterlimit:4;stroke-dasharray:none;stroke-opacity:1"
       id="path938" />
    <path
       d="m -163.94361,25.332444 h 3.3856"
       style="fill:none;stroke:#231f20;stroke-width:0.0881942;stroke-linecap:round;stroke-linejoin:round;stroke-miterlimit:4;stroke-dasharray:none;stroke-opacity:1"
       id="path940" />
  </g>
</svg>
