<?xml version="1.0" encoding="UTF-8" standalone="no"?>
<!-- Created with Inkscape (http://www.inkscape.org/) -->

<svg
   width="57.964535mm"
   height="23.662704mm"
   viewBox="0 0 57.964535 23.662704"
   version="1.1"
   id="svg2169"
   inkscape:version="1.2.2 (b0a8486541, 2022-12-01)"
   sodipodi:docname="nyc_9:08.svg"
   xmlns:inkscape="http://www.inkscape.org/namespaces/inkscape"
   xmlns:sodipodi="http://sodipodi.sourceforge.net/DTD/sodipodi-0.dtd"
   xmlns="http://www.w3.org/2000/svg"
   xmlns:svg="http://www.w3.org/2000/svg">
  <sodipodi:namedview
     id="namedview2171"
     pagecolor="#ffffff"
     bordercolor="#666666"
     borderopacity="1.0"
     inkscape:showpageshadow="2"
     inkscape:pageopacity="0.0"
     inkscape:pagecheckerboard="0"
     inkscape:deskcolor="#d1d1d1"
     inkscape:document-units="mm"
     showgrid="false"
     inkscape:zoom="0.44542649"
     inkscape:cx="1147.2151"
     inkscape:cy="489.41858"
     inkscape:window-width="1366"
     inkscape:window-height="685"
     inkscape:window-x="0"
     inkscape:window-y="27"
     inkscape:window-maximized="1"
     inkscape:current-layer="layer1" />
  <defs
     id="defs2166">
    <clipPath
       clipPathUnits="userSpaceOnUse"
       id="clipPath562">
      <path
         d="M 283.98,553.289 H 998.3 V 910.461 H 283.98 Z"
         id="path560" />
    </clipPath>
    <clipPath
       clipPathUnits="userSpaceOnUse"
       id="clipPath2024">
      <path
         d="M 283.98,553.289 H 998.3 V 910.461 H 283.98 Z"
         id="path2022" />
    </clipPath>
    <clipPath
       clipPathUnits="userSpaceOnUse"
       id="clipPath2028">
      <path
         d="M 283.98,553.289 H 998.3 V 910.461 H 283.98 Z"
         id="path2026" />
    </clipPath>
    <clipPath
       clipPathUnits="userSpaceOnUse"
       id="clipPath656">
      <path
         d="m 1269.93,553.289 h 714.32 v 357.172 h -714.32 z"
         id="path654" />
    </clipPath>
    <clipPath
       clipPathUnits="userSpaceOnUse"
       id="clipPath2034">
      <path
         d="m 1269.93,553.289 h 714.32 v 357.172 h -714.32 z"
         id="path2032" />
    </clipPath>
    <clipPath
       clipPathUnits="userSpaceOnUse"
       id="clipPath2038">
      <path
         d="m 1269.93,553.289 h 714.32 v 357.172 h -714.32 z"
         id="path2036" />
    </clipPath>
  </defs>
  <g
     inkscape:label="Layer 1"
     inkscape:groupmode="layer"
     id="layer1"
     transform="translate(198.27227,-19.056647)">
    <text
       xml:space="preserve"
       transform="scale(1,-1)"
       style="font-variant:normal;font-weight:normal;font-size:0.0352777px;font-family:Arial;-inkscape-font-specification:Arial;writing-mode:lr-tb;fill:#231f20;fill-opacity:1;fill-rule:nonzero;stroke:none;stroke-width:0.352777"
       id="text516"
       x="-192.82045"
       y="-19.057146"><tspan
         x="-192.82045"
         y="-19.057146"
         id="tspan514"
         style="stroke-width:0.352777">✓</tspan></text>
    <text
       xml:space="preserve"
       transform="scale(1,-1)"
       style="font-variant:normal;font-weight:normal;font-size:0.0352777px;font-family:Arial;-inkscape-font-specification:Arial;writing-mode:lr-tb;fill:#231f20;fill-opacity:1;fill-rule:nonzero;stroke:none;stroke-width:0.352777"
       id="text524"
       x="-190.31572"
       y="-19.057146"><tspan
         x="-190.31572"
         y="-19.057146"
         id="tspan518"
         style="stroke-width:0.352777">✐</tspan><tspan
         x="-187.84628"
         y="-19.092424"
         id="tspan520"
         style="stroke-width:0.352777">▼</tspan><tspan
         x="-185.41212"
         y="-19.057146"
         id="tspan522"
         style="stroke-width:0.352777">❞</tspan></text>
    <text
       xml:space="preserve"
       transform="scale(1,-1)"
       style="font-variant:normal;font-weight:normal;font-size:0.0352777px;font-family:Arial;-inkscape-font-specification:Arial;writing-mode:lr-tb;fill:#231f20;fill-opacity:1;fill-rule:nonzero;stroke:none;stroke-width:0.352777"
       id="text528"
       x="-182.94267"
       y="-19.057146"><tspan
         x="-182.94267 -180.50851 -178.03908"
         y="-19.057146"
         sodipodi:role="line"
         id="tspan526"
         style="stroke-width:0.352777">✱✲✸</tspan></text>
    <text
       xml:space="preserve"
       transform="scale(1,-1)"
       style="font-variant:normal;font-weight:normal;font-size:0.0352777px;font-family:Arial;-inkscape-font-specification:Arial;writing-mode:lr-tb;fill:#231f20;fill-opacity:1;fill-rule:nonzero;stroke:none;stroke-width:0.352777"
       id="text532"
       x="-175.60481"
       y="-19.092337"><tspan
         x="-175.60481 -173.1001"
         y="-19.092337"
         sodipodi:role="line"
         id="tspan530"
         style="stroke-width:0.352777">◗❘</tspan></text>
    <text
       xml:space="preserve"
       transform="scale(1,-1)"
       style="font-variant:normal;font-weight:normal;font-size:0.0352777px;font-family:Arial;-inkscape-font-specification:Arial;writing-mode:lr-tb;fill:#231f20;fill-opacity:1;fill-rule:nonzero;stroke:none;stroke-width:0.352777"
       id="text536"
       x="-170.70129"
       y="-19.057146"><tspan
         x="-170.70129 -168.23186 -165.7977"
         y="-19.057146"
         sodipodi:role="line"
         id="tspan534"
         style="stroke-width:0.352777">✓✔✠</tspan></text>
    <text
       xml:space="preserve"
       transform="scale(1,-1)"
       style="font-variant:normal;font-weight:normal;font-size:0.0352777px;font-family:Arial;-inkscape-font-specification:Arial;writing-mode:lr-tb;fill:#231f20;fill-opacity:1;fill-rule:nonzero;stroke:none;stroke-width:0.352777"
       id="text540"
       x="-163.32814"
       y="-19.057146"><tspan
         x="-163.32814"
         y="-19.057146"
         id="tspan538"
         style="stroke-width:0.352777">✵</tspan></text>
    <text
       xml:space="preserve"
       transform="scale(1,-1)"
       style="font-variant:normal;font-weight:normal;font-size:0.0352777px;font-family:Arial;-inkscape-font-specification:Arial;writing-mode:lr-tb;fill:#231f20;fill-opacity:1;fill-rule:nonzero;stroke:none;stroke-width:0.352777"
       id="text546"
       x="-160.8588"
       y="-19.092337"><tspan
         x="-160.8588 -158.38936"
         y="-19.092337"
         sodipodi:role="line"
         id="tspan542"
         style="stroke-width:0.352777">▲▼</tspan><tspan
         x="-155.91991 -153.48575 -151.05159"
         y="-19.05706"
         sodipodi:role="line"
         id="tspan544"
         style="stroke-width:0.352777">✛✎✜</tspan></text>
    <path
       d="m -192.87658,27.632901 -0.43283,-0.194451 c 0,0 -0.35884,-0.173495 -0.66008,0.06107 -0.24807,0.192652 -0.69356,0.508069 -1.4213,1.660944 -0.71508,1.157391 -0.77269,1.648103 -0.82133,1.93103 -0.0595,0.343252 0.31005,0.498862 0.31005,0.498862 l 0.43215,0.194416"
       style="fill:#9c9a9b;fill-opacity:1;fill-rule:nonzero;stroke:none;stroke-width:0.0352777"
       id="path548" />
    <path
       d="m -178.43104,27.632901 0.43282,-0.194451 c 0,0 0.35871,-0.173495 0.66008,0.06107 0.24765,0.192652 0.69356,0.508069 1.42088,1.660944 0.7155,1.157391 0.77297,1.648103 0.82134,1.93103 0.0597,0.343252 -0.31006,0.498862 -0.31006,0.498862 l -0.4319,0.194416"
       style="fill:#9c9a9b;fill-opacity:1;fill-rule:nonzero;stroke:none;stroke-width:0.0352777"
       id="path550" />
    <path
       d="m -192.87658,39.488251 -0.43283,0.194874 c 0,0 -0.35884,0.173496 -0.66008,-0.06107 -0.24807,-0.192651 -0.69356,-0.508351 -1.4213,-1.660944 -0.71508,-1.157814 -0.77269,-1.648103 -0.82133,-1.931454 -0.0595,-0.342828 0.31005,-0.498438 0.31005,-0.498438 l 0.43215,-0.194415"
       style="fill:#9c9a9b;fill-opacity:1;fill-rule:nonzero;stroke:none;stroke-width:0.0352777"
       id="path552" />
    <path
       d="m -178.43104,39.488251 0.43282,0.194874 c 0,0 0.35871,0.173496 0.66008,-0.06107 0.24765,-0.192651 0.69356,-0.508351 1.42088,-1.660944 0.7155,-1.157814 0.77297,-1.648103 0.82134,-1.931454 0.0597,-0.342828 -0.31006,-0.498438 -0.31006,-0.498438 l -0.4319,-0.194415"
       style="fill:#9c9a9b;fill-opacity:1;fill-rule:nonzero;stroke:none;stroke-width:0.0352777"
       id="path554" />
    <path
       d="m 934.09,731.871 c 0,-137.512 -131.149,-248.992 -292.949,-248.992 -161.782,0 -292.93,111.48 -292.93,248.992 0,137.508 131.148,249 292.93,249 161.8,0 292.949,-111.492 292.949,-249"
       style="fill:#ffffff;fill-opacity:1;fill-rule:nonzero;stroke:none"
       id="path564"
       clip-path="url(#clipPath562)"
       transform="matrix(0.03527769,0,0,-0.03527769,-208.27212,59.379647)" />
    <path
       d="m 934.09,731.871 c 0,-137.512 -131.149,-248.992 -292.949,-248.992 -161.782,0 -292.93,111.48 -292.93,248.992 0,137.508 131.148,249 292.93,249 161.8,0 292.949,-111.492 292.949,-249 z"
       style="fill:none;stroke:#9c9a9b;stroke-width:6;stroke-linecap:butt;stroke-linejoin:miter;stroke-miterlimit:10;stroke-dasharray:none;stroke-opacity:1"
       id="path566"
       clip-path="url(#clipPath562)"
       transform="matrix(0.03527769,0,0,-0.03527769,-208.27212,59.379647)" />
    <path
       d="m 910.609,731.871 c 0,-126.5 -120.64,-229.051 -269.468,-229.051 -148.821,0 -269.461,102.551 -269.461,229.051 0,126.5 120.64,229.051 269.461,229.051 148.828,0 269.468,-102.551 269.468,-229.051 z"
       style="fill:none;stroke:#9c9a9b;stroke-width:4;stroke-linecap:butt;stroke-linejoin:miter;stroke-miterlimit:10;stroke-dasharray:none;stroke-opacity:1"
       id="path568"
       clip-path="url(#clipPath562)"
       transform="matrix(0.03527769,0,0,-0.03527769,-208.27212,59.379647)" />
    <path
       d="m -198.27227,28.572311 c 0,0.656482 0.54045,1.19736 1.19722,1.19736 0.65623,0 1.1963,-0.540878 1.1963,-1.19736 0,-0.656518 -0.54007,-1.196267 -1.1963,-1.196267 -0.65677,0 -1.19722,0.539749 -1.19722,1.196267 m 1.19722,-1.084789 c 0.59767,0 1.08479,0.487255 1.08479,1.084789 0,0.596263 -0.48892,1.084789 -1.08479,1.084789 -0.59655,0 -1.08574,-0.488526 -1.08574,-1.084789 0,-0.597534 0.48686,-1.084789 1.08574,-1.084789 m 0.28582,1.397314 0.1422,0.414513 h 0.2092 l -0.51442,-1.420598 h -0.21897 l -0.53343,1.420598 h 0.19858 l 0.1488,-0.414513 z m -0.51015,-0.170321 0.22835,-0.624098 h 0.005 l 0.20919,0.624098"
       style="fill:#231f20;fill-opacity:1;fill-rule:nonzero;stroke:none;stroke-width:0.0352777"
       id="path570" />
    <path
       d="m -175.46994,28.573404 c 0,0.656483 0.54046,1.19669 1.19712,1.19669 0.65676,0 1.19655,-0.540207 1.19655,-1.19669 0,-0.656482 -0.53979,-1.19736 -1.19655,-1.19736 -0.65666,0 -1.19712,0.540878 -1.19712,1.19736 m 1.19712,-1.092232 c 0.59859,0 1.08507,0.493605 1.08507,1.092232 0,0.596123 -0.48895,1.084789 -1.08507,1.084789 -0.59588,0 -1.08479,-0.488666 -1.08479,-1.084789 0,-0.598627 0.48644,-1.092232 1.08479,-1.092232 m -0.24462,1.184977 h 0.37966 c 0.156,0 0.33087,0.03955 0.33087,0.239642 0,0.158749 -0.10019,0.258938 -0.30085,0.258938 h -0.40968 z m -0.19071,0.663926 h 0.61239 c 0.31432,0 0.48189,-0.191134 0.48189,-0.419063 0,-0.244863 -0.16549,-0.30935 -0.25866,-0.347521 0.15875,-0.07193 0.19128,-0.202458 0.19128,-0.295168 0,-0.195827 -0.13723,-0.358845 -0.40252,-0.358845 h -0.62438 z m 0.19071,-1.257579 h 0.34932 c 0.21445,0 0.29559,0.07687 0.29559,0.209867 0,0.17212 -0.11394,0.228212 -0.29763,0.228212 h -0.34728"
       style="fill:#231f20;fill-opacity:1;fill-rule:nonzero;stroke:none;stroke-width:0.0352777"
       id="path572" />
    <path
       d="m -198.27227,38.548594 c 0,0.657188 0.54045,1.197219 1.19722,1.197219 0.65623,0 1.1963,-0.540031 1.1963,-1.197219 0,-0.656659 -0.54007,-1.196689 -1.1963,-1.196689 -0.65677,0 -1.19722,0.54003 -1.19722,1.196689 m 1.80481,-0.251212 c -0.0283,-0.237454 -0.21911,-0.463161 -0.58456,-0.463161 -0.41423,0 -0.66396,0.302612 -0.66396,0.738327 0,0.546416 0.31683,0.756283 0.64093,0.756283 0.10625,0 0.54229,-0.02289 0.62166,-0.558799 h -0.18701 c -0.0652,0.330588 -0.28112,0.388478 -0.40502,0.388478 -0.35373,0 -0.47198,-0.255481 -0.47198,-0.590901 0,-0.374684 0.20892,-0.563067 0.46538,-0.563067 0.13723,0 0.34491,0.04367 0.39755,0.29284 z m -0.60759,-0.833577 c 0.59767,0 1.08479,0.486727 1.08479,1.084789 0,0.596123 -0.48892,1.08546 -1.08479,1.08546 -0.59655,0 -1.08574,-0.489337 -1.08574,-1.08546 0,-0.598062 0.48686,-1.084789 1.08574,-1.084789"
       style="fill:#231f20;fill-opacity:1;fill-rule:nonzero;stroke:none;stroke-width:0.0352777"
       id="path574" />
    <path
       d="m -175.47226,38.548594 c 0,0.657188 0.53964,1.197219 1.19654,1.197219 0.65691,0 1.19669,-0.540031 1.19669,-1.197219 0,-0.656659 -0.53978,-1.196689 -1.19669,-1.196689 -0.6569,0 -1.19654,0.54003 -1.19654,1.196689 m 1.19654,-1.091562 c 0.5986,0 1.08518,0.4935 1.08518,1.091562 0,0.596123 -0.48934,1.08546 -1.08518,1.08546 -0.59587,0 -1.08507,-0.489337 -1.08507,-1.08546 0,-0.598062 0.48673,-1.091562 1.08507,-1.091562 m -0.48397,1.843965 h 0.5679 c 0.46577,0 0.60575,-0.412043 0.60575,-0.730918 0,-0.410386 -0.2286,-0.689715 -0.59901,-0.689715 h -0.57464 z m 0.19085,-1.257614 h 0.35842 c 0.26074,0 0.42609,0.181644 0.42609,0.538267 0,0.358844 -0.16302,0.553824 -0.41229,0.553824 h -0.37222"
       style="fill:#231f20;fill-opacity:1;fill-rule:nonzero;stroke:none;stroke-width:0.0352777"
       id="path576" />
    <path
       d="m -179.85524,33.503038 c 0,-3.197182 -2.59086,-5.790092 -5.78377,-5.790092 -3.19785,0 -5.79503,2.59291 -5.79503,5.790092 0,3.199122 2.59718,5.791186 5.79503,5.791186 3.19291,0 5.78377,-2.592064 5.78377,-5.791186 z"
       style="fill:none;stroke:#9c9a9b;stroke-width:0.141111;stroke-linecap:round;stroke-linejoin:round;stroke-miterlimit:10;stroke-dasharray:none;stroke-opacity:1"
       id="path578" />
    <path
       d="m -181.43254,32.233888 h 0.50519 v -0.822686 h -0.50519 z"
       style="fill:#231f20;fill-opacity:1;fill-rule:nonzero;stroke:none;stroke-width:0.0352777"
       id="path580" />
    <path
       d="m -181.99162,32.233888 h 0.50547 v -0.822686 h -0.50547 z"
       style="fill:#231f20;fill-opacity:1;fill-rule:nonzero;stroke:none;stroke-width:0.0352777"
       id="path582" />
    <path
       d="m -182.55042,32.233888 h 0.50519 v -0.822686 h -0.50519 z"
       style="fill:#231f20;fill-opacity:1;fill-rule:nonzero;stroke:none;stroke-width:0.0352777"
       id="path584" />
    <path
       d="m -183.11031,32.233888 h 0.50629 v -0.822686 h -0.50629 z"
       style="fill:#231f20;fill-opacity:1;fill-rule:nonzero;stroke:none;stroke-width:0.0352777"
       id="path586" />
    <path
       d="m -184.78737,32.233888 h 0.50518 v -0.822686 h -0.50518 z"
       style="fill:#231f20;fill-opacity:1;fill-rule:nonzero;stroke:none;stroke-width:0.0352777"
       id="path588" />
    <path
       d="m -187.02504,32.233888 h 0.50546 v -0.822686 h -0.50546 z"
       style="fill:#231f20;fill-opacity:1;fill-rule:nonzero;stroke:none;stroke-width:0.0352777"
       id="path590" />
    <path
       d="m -188.14235,32.233888 h 0.50518 v -0.822686 h -0.50518 z"
       style="fill:#231f20;fill-opacity:1;fill-rule:nonzero;stroke:none;stroke-width:0.0352777"
       id="path592" />
    <path
       d="m -190.38273,32.233888 h 0.50477 v -0.822686 h -0.50477 z"
       style="fill:#231f20;fill-opacity:1;fill-rule:nonzero;stroke:none;stroke-width:0.0352777"
       id="path594" />
    <path
       d="m -183.66868,33.111138 h 0.50505 v -0.822686 h -0.50505 z"
       style="fill:#231f20;fill-opacity:1;fill-rule:nonzero;stroke:none;stroke-width:0.0352777"
       id="path596" />
    <path
       d="m -185.3466,33.111138 h 0.5056 v -0.822686 h -0.5056 z"
       style="fill:#231f20;fill-opacity:1;fill-rule:nonzero;stroke:none;stroke-width:0.0352777"
       id="path598" />
    <path
       d="m -186.46529,33.111138 h 0.50519 v -0.822686 h -0.50519 z"
       style="fill:#231f20;fill-opacity:1;fill-rule:nonzero;stroke:none;stroke-width:0.0352777"
       id="path600" />
    <path
       d="m -188.14235,33.111138 h 0.50518 v -0.822686 h -0.50518 z"
       style="fill:#231f20;fill-opacity:1;fill-rule:nonzero;stroke:none;stroke-width:0.0352777"
       id="path602" />
    <path
       d="m -189.82436,33.111138 h 0.50698 v -0.822686 h -0.50698 z"
       style="fill:#231f20;fill-opacity:1;fill-rule:nonzero;stroke:none;stroke-width:0.0352777"
       id="path604" />
    <path
       d="m -190.38273,33.111138 h 0.50477 v -0.822686 h -0.50477 z"
       style="fill:#231f20;fill-opacity:1;fill-rule:nonzero;stroke:none;stroke-width:0.0352777"
       id="path606" />
    <path
       d="m -183.66868,33.98673 h 0.50505 v -0.821998 h -0.50505 z"
       style="fill:#231f20;fill-opacity:1;fill-rule:nonzero;stroke:none;stroke-width:0.0352777"
       id="path608" />
    <path
       d="m -185.90649,33.98673 h 0.50629 v -0.821998 h -0.50629 z"
       style="fill:#231f20;fill-opacity:1;fill-rule:nonzero;stroke:none;stroke-width:0.0352777"
       id="path610" />
    <path
       d="m -188.14235,33.98673 h 0.50518 v -0.821998 h -0.50518 z"
       style="fill:#231f20;fill-opacity:1;fill-rule:nonzero;stroke:none;stroke-width:0.0352777"
       id="path612" />
    <path
       d="m -189.26129,33.98673 h 0.50546 v -0.821998 h -0.50546 z"
       style="fill:#231f20;fill-opacity:1;fill-rule:nonzero;stroke:none;stroke-width:0.0352777"
       id="path614" />
    <path
       d="m -190.38273,33.98673 h 0.50477 v -0.821998 h -0.50477 z"
       style="fill:#231f20;fill-opacity:1;fill-rule:nonzero;stroke:none;stroke-width:0.0352777"
       id="path616" />
    <path
       d="m -183.66868,34.864122 h 0.50505 v -0.822686 h -0.50505 z"
       style="fill:#231f20;fill-opacity:1;fill-rule:nonzero;stroke:none;stroke-width:0.0352777"
       id="path618" />
    <path
       d="m -185.90649,34.864122 h 0.50629 v -0.822686 h -0.50629 z"
       style="fill:#231f20;fill-opacity:1;fill-rule:nonzero;stroke:none;stroke-width:0.0352777"
       id="path620" />
    <path
       d="m -188.14235,34.864122 h 0.50518 v -0.822686 h -0.50518 z"
       style="fill:#231f20;fill-opacity:1;fill-rule:nonzero;stroke:none;stroke-width:0.0352777"
       id="path622" />
    <path
       d="m -188.70224,34.864122 h 0.50518 v -0.822686 h -0.50518 z"
       style="fill:#231f20;fill-opacity:1;fill-rule:nonzero;stroke:none;stroke-width:0.0352777"
       id="path624" />
    <path
       d="m -190.38273,34.864122 h 0.50477 v -0.822686 h -0.50477 z"
       style="fill:#231f20;fill-opacity:1;fill-rule:nonzero;stroke:none;stroke-width:0.0352777"
       id="path626" />
    <path
       d="m -181.43254,35.74042 h 0.50519 v -0.821999 h -0.50519 z"
       style="fill:#231f20;fill-opacity:1;fill-rule:nonzero;stroke:none;stroke-width:0.0352777"
       id="path628" />
    <path
       d="m -181.99162,35.74042 h 0.50547 v -0.821999 h -0.50547 z"
       style="fill:#231f20;fill-opacity:1;fill-rule:nonzero;stroke:none;stroke-width:0.0352777"
       id="path630" />
    <path
       d="m -182.55042,35.74042 h 0.50519 v -0.821999 h -0.50519 z"
       style="fill:#231f20;fill-opacity:1;fill-rule:nonzero;stroke:none;stroke-width:0.0352777"
       id="path632" />
    <path
       d="m -183.11031,35.74042 h 0.50629 v -0.821999 h -0.50629 z"
       style="fill:#231f20;fill-opacity:1;fill-rule:nonzero;stroke:none;stroke-width:0.0352777"
       id="path634" />
    <path
       d="m -185.90649,35.74042 h 0.50629 v -0.821999 h -0.50629 z"
       style="fill:#231f20;fill-opacity:1;fill-rule:nonzero;stroke:none;stroke-width:0.0352777"
       id="path636" />
    <path
       d="m -188.14235,35.74042 h 0.50518 v -0.821999 h -0.50518 z"
       style="fill:#231f20;fill-opacity:1;fill-rule:nonzero;stroke:none;stroke-width:0.0352777"
       id="path638" />
    <path
       d="m -190.38273,35.74042 h 0.50477 v -0.821999 h -0.50477 z"
       style="fill:#231f20;fill-opacity:1;fill-rule:nonzero;stroke:none;stroke-width:0.0352777"
       id="path640" />
    <path
       d="m -158.09454,27.632901 -0.43286,-0.194451 c 0,0 -0.35878,-0.173495 -0.66005,0.06107 -0.248,0.192652 -0.69356,0.508069 -1.42134,1.660944 -0.71507,1.157391 -0.77258,1.648103 -0.82126,1.93103 -0.0596,0.343252 0.31009,0.498862 0.31009,0.498862 l 0.43215,0.194416"
       style="fill:#9c9a9b;fill-opacity:1;fill-rule:nonzero;stroke:none;stroke-width:0.0352777"
       id="path642" />
    <path
       d="m -143.64939,27.632901 0.43286,-0.194451 c 0,0 0.35877,-0.173495 0.66004,0.06107 0.24765,0.192652 0.69356,0.508069 1.42099,1.660944 0.71543,1.157391 0.77293,1.648103 0.82126,1.93103 0.0596,0.343252 -0.31009,0.498862 -0.31009,0.498862 l -0.4318,0.194416"
       style="fill:#9c9a9b;fill-opacity:1;fill-rule:nonzero;stroke:none;stroke-width:0.0352777"
       id="path644" />
    <path
       d="m -158.09454,39.488251 -0.43286,0.194874 c 0,0 -0.35878,0.173496 -0.66005,-0.06107 -0.248,-0.192651 -0.69356,-0.508351 -1.42134,-1.660944 -0.71507,-1.157814 -0.77258,-1.648103 -0.82126,-1.931454 -0.0596,-0.342828 0.31009,-0.498438 0.31009,-0.498438 l 0.43215,-0.194415"
       style="fill:#9c9a9b;fill-opacity:1;fill-rule:nonzero;stroke:none;stroke-width:0.0352777"
       id="path646" />
    <path
       d="m -143.64939,39.488251 0.43286,0.194874 c 0,0 0.35877,0.173496 0.66004,-0.06107 0.24765,-0.192651 0.69356,-0.508351 1.42099,-1.660944 0.71543,-1.157814 0.77293,-1.648103 0.82126,-1.931454 0.0596,-0.342828 -0.31009,-0.498438 -0.31009,-0.498438 l -0.4318,-0.194415"
       style="fill:#9c9a9b;fill-opacity:1;fill-rule:nonzero;stroke:none;stroke-width:0.0352777"
       id="path648" />
    <path
       d="m 1920.04,731.871 c 0,-137.512 -131.15,-248.992 -292.95,-248.992 -161.78,0 -292.93,111.48 -292.93,248.992 0,137.508 131.15,249 292.93,249 161.8,0 292.95,-111.492 292.95,-249"
       style="fill:#ffffff;fill-opacity:1;fill-rule:nonzero;stroke:none"
       id="path658"
       clip-path="url(#clipPath656)"
       transform="matrix(0.03527769,0,0,-0.03527769,-208.27212,59.379647)" />
    <path
       d="m 1920.04,731.871 c 0,-137.512 -131.15,-248.992 -292.95,-248.992 -161.78,0 -292.93,111.48 -292.93,248.992 0,137.508 131.15,249 292.93,249 161.8,0 292.95,-111.492 292.95,-249 z"
       style="fill:none;stroke:#9c9a9b;stroke-width:6;stroke-linecap:butt;stroke-linejoin:miter;stroke-miterlimit:10;stroke-dasharray:none;stroke-opacity:1"
       id="path660"
       clip-path="url(#clipPath656)"
       transform="matrix(0.03527769,0,0,-0.03527769,-208.27212,59.379647)" />
    <path
       d="m 1896.56,731.871 c 0,-126.5 -120.64,-229.051 -269.47,-229.051 -148.82,0 -269.46,102.551 -269.46,229.051 0,126.5 120.64,229.051 269.46,229.051 148.83,0 269.47,-102.551 269.47,-229.051 z"
       style="fill:none;stroke:#9c9a9b;stroke-width:4;stroke-linecap:butt;stroke-linejoin:miter;stroke-miterlimit:10;stroke-dasharray:none;stroke-opacity:1"
       id="path662"
       clip-path="url(#clipPath656)"
       transform="matrix(0.03527769,0,0,-0.03527769,-208.27212,59.379647)" />
    <path
       d="m -145.07355,33.503038 c 0,-3.197182 -2.59079,-5.790092 -5.78378,-5.790092 -3.19792,0 -5.79506,2.59291 -5.79506,5.790092 0,3.199122 2.59714,5.791186 5.79506,5.791186 3.19299,0 5.78378,-2.592064 5.78378,-5.791186 z"
       style="fill:none;stroke:#9c9a9b;stroke-width:0.141111;stroke-linecap:round;stroke-linejoin:round;stroke-miterlimit:10;stroke-dasharray:none;stroke-opacity:1"
       id="path664" />
    <path
       d="m -152.53654,37.798097 h 0.30162 c 0.19685,0 0.38453,-0.114935 0.38453,-0.440548 0,-0.296015 -0.11042,-0.484645 -0.4445,-0.484645 h -0.24165 z m -0.33797,-1.196549 h 0.66464 c 0.39793,0 0.69779,0.239924 0.69779,0.726368 0,0.424708 -0.22895,0.741537 -0.69779,0.741537 h -0.66464"
       style="fill:#231f20;fill-opacity:1;fill-rule:nonzero;stroke:none;stroke-width:0.0352777"
       id="path666" />
    <path
       d="m -151.045,37.582585 c 0,0.195121 0.15945,0.271321 0.34078,0.271321 0.11818,0 0.2988,-0.0332 0.2988,-0.182703 0,-0.160549 -0.23283,-0.182738 -0.45579,-0.243099 -0.2293,-0.05362 -0.46002,-0.145661 -0.46002,-0.417687 0,-0.30166 0.29775,-0.443864 0.57573,-0.443864 0.32138,0 0.61666,0.133138 0.61666,0.472791 h -0.32738 c -0.0116,-0.174307 -0.1404,-0.221579 -0.30515,-0.221579 -0.10689,0 -0.23213,0.04314 -0.23213,0.166193 0,0.113559 0.0734,0.129822 0.45861,0.222567 0.11465,0.0248 0.45791,0.09603 0.45791,0.427601 0,0.269522 -0.22084,0.470993 -0.64065,0.470993 -0.34078,0 -0.66145,-0.160267 -0.65581,-0.522534"
       style="fill:#231f20;fill-opacity:1;fill-rule:nonzero;stroke:none;stroke-width:0.0352777"
       id="path668" />
    <path
       d="m -149.53406,36.873186 h -0.46249 V 36.60183 h 1.26118 v 0.271356 h -0.46144 v 1.196267 h -0.33725"
       style="fill:#231f20;fill-opacity:1;fill-rule:nonzero;stroke:none;stroke-width:0.0352777"
       id="path670" />
    <path
       d="m -146.65046,32.233888 h 0.50505 v -0.822686 h -0.50505 z"
       style="fill:#231f20;fill-opacity:1;fill-rule:nonzero;stroke:none;stroke-width:0.0352777"
       id="path672" />
    <path
       d="m -147.20961,32.233888 h 0.50546 v -0.822686 h -0.50546 z"
       style="fill:#231f20;fill-opacity:1;fill-rule:nonzero;stroke:none;stroke-width:0.0352777"
       id="path674" />
    <path
       d="m -147.76841,32.233888 h 0.50518 v -0.822686 h -0.50518 z"
       style="fill:#231f20;fill-opacity:1;fill-rule:nonzero;stroke:none;stroke-width:0.0352777"
       id="path676" />
    <path
       d="m -148.88671,32.233888 h 0.50518 v -0.822686 h -0.50518 z"
       style="fill:#231f20;fill-opacity:1;fill-rule:nonzero;stroke:none;stroke-width:0.0352777"
       id="path678" />
    <path
       d="m -149.44657,32.233888 h 0.50519 v -0.822686 h -0.50519 z"
       style="fill:#231f20;fill-opacity:1;fill-rule:nonzero;stroke:none;stroke-width:0.0352777"
       id="path680" />
    <path
       d="m -150.00537,32.233888 h 0.50519 v -0.822686 h -0.50519 z"
       style="fill:#231f20;fill-opacity:1;fill-rule:nonzero;stroke:none;stroke-width:0.0352777"
       id="path682" />
    <path
       d="m -152.24303,32.233888 h 0.50546 v -0.822686 h -0.50546 z"
       style="fill:#231f20;fill-opacity:1;fill-rule:nonzero;stroke:none;stroke-width:0.0352777"
       id="path684" />
    <path
       d="m -152.80183,32.233888 h 0.50518 v -0.822686 h -0.50518 z"
       style="fill:#231f20;fill-opacity:1;fill-rule:nonzero;stroke:none;stroke-width:0.0352777"
       id="path686" />
    <path
       d="m -153.36063,32.233888 h 0.50519 v -0.822686 h -0.50519 z"
       style="fill:#231f20;fill-opacity:1;fill-rule:nonzero;stroke:none;stroke-width:0.0352777"
       id="path688" />
    <path
       d="m -146.65046,33.111138 h 0.50505 v -0.822686 h -0.50505 z"
       style="fill:#231f20;fill-opacity:1;fill-rule:nonzero;stroke:none;stroke-width:0.0352777"
       id="path690" />
    <path
       d="m -147.76841,33.111138 h 0.50518 v -0.822686 h -0.50518 z"
       style="fill:#231f20;fill-opacity:1;fill-rule:nonzero;stroke:none;stroke-width:0.0352777"
       id="path692" />
    <path
       d="m -148.88671,33.111138 h 0.50518 v -0.822686 h -0.50518 z"
       style="fill:#231f20;fill-opacity:1;fill-rule:nonzero;stroke:none;stroke-width:0.0352777"
       id="path694" />
    <path
       d="m -150.00537,33.111138 h 0.50519 v -0.822686 h -0.50519 z"
       style="fill:#231f20;fill-opacity:1;fill-rule:nonzero;stroke:none;stroke-width:0.0352777"
       id="path696" />
    <path
       d="m -151.12438,33.111138 h 0.50615 v -0.822686 h -0.50615 z"
       style="fill:#231f20;fill-opacity:1;fill-rule:nonzero;stroke:none;stroke-width:0.0352777"
       id="path698" />
    <path
       d="m -152.24303,33.111138 h 0.50546 v -0.822686 h -0.50546 z"
       style="fill:#231f20;fill-opacity:1;fill-rule:nonzero;stroke:none;stroke-width:0.0352777"
       id="path700" />
    <path
       d="m -153.36063,33.111138 h 0.50519 v -0.822686 h -0.50519 z"
       style="fill:#231f20;fill-opacity:1;fill-rule:nonzero;stroke:none;stroke-width:0.0352777"
       id="path702" />
    <path
       d="m -146.65046,33.98673 h 0.50505 v -0.821998 h -0.50505 z"
       style="fill:#231f20;fill-opacity:1;fill-rule:nonzero;stroke:none;stroke-width:0.0352777"
       id="path704" />
    <path
       d="m -147.20961,33.98673 h 0.50546 v -0.821998 h -0.50546 z"
       style="fill:#231f20;fill-opacity:1;fill-rule:nonzero;stroke:none;stroke-width:0.0352777"
       id="path706" />
    <path
       d="m -147.76841,33.98673 h 0.50518 v -0.821998 h -0.50518 z"
       style="fill:#231f20;fill-opacity:1;fill-rule:nonzero;stroke:none;stroke-width:0.0352777"
       id="path708" />
    <path
       d="m -148.88671,33.98673 h 0.50518 v -0.821998 h -0.50518 z"
       style="fill:#231f20;fill-opacity:1;fill-rule:nonzero;stroke:none;stroke-width:0.0352777"
       id="path710" />
    <path
       d="m -150.00537,33.98673 h 0.50519 v -0.821998 h -0.50519 z"
       style="fill:#231f20;fill-opacity:1;fill-rule:nonzero;stroke:none;stroke-width:0.0352777"
       id="path712" />
    <path
       d="m -152.24303,33.98673 h 0.50546 v -0.821998 h -0.50546 z"
       style="fill:#231f20;fill-opacity:1;fill-rule:nonzero;stroke:none;stroke-width:0.0352777"
       id="path714" />
    <path
       d="m -152.80183,33.98673 h 0.50518 v -0.821998 h -0.50518 z"
       style="fill:#231f20;fill-opacity:1;fill-rule:nonzero;stroke:none;stroke-width:0.0352777"
       id="path716" />
    <path
       d="m -153.36063,33.98673 h 0.50519 v -0.821998 h -0.50519 z"
       style="fill:#231f20;fill-opacity:1;fill-rule:nonzero;stroke:none;stroke-width:0.0352777"
       id="path718" />
    <path
       d="m -146.65046,34.864122 h 0.50505 v -0.822686 h -0.50505 z"
       style="fill:#231f20;fill-opacity:1;fill-rule:nonzero;stroke:none;stroke-width:0.0352777"
       id="path720" />
    <path
       d="m -147.76841,34.864122 h 0.50518 v -0.822686 h -0.50518 z"
       style="fill:#231f20;fill-opacity:1;fill-rule:nonzero;stroke:none;stroke-width:0.0352777"
       id="path722" />
    <path
       d="m -148.88671,34.864122 h 0.50518 v -0.822686 h -0.50518 z"
       style="fill:#231f20;fill-opacity:1;fill-rule:nonzero;stroke:none;stroke-width:0.0352777"
       id="path724" />
    <path
       d="m -150.00537,34.864122 h 0.50519 v -0.822686 h -0.50519 z"
       style="fill:#231f20;fill-opacity:1;fill-rule:nonzero;stroke:none;stroke-width:0.0352777"
       id="path726" />
    <path
       d="m -151.12438,34.864122 h 0.50615 v -0.822686 h -0.50615 z"
       style="fill:#231f20;fill-opacity:1;fill-rule:nonzero;stroke:none;stroke-width:0.0352777"
       id="path728" />
    <path
       d="m -152.24303,34.864122 h 0.50546 v -0.822686 h -0.50546 z"
       style="fill:#231f20;fill-opacity:1;fill-rule:nonzero;stroke:none;stroke-width:0.0352777"
       id="path730" />
    <path
       d="m -146.65046,35.74042 h 0.50505 v -0.821999 h -0.50505 z"
       style="fill:#231f20;fill-opacity:1;fill-rule:nonzero;stroke:none;stroke-width:0.0352777"
       id="path732" />
    <path
       d="m -147.20961,35.74042 h 0.50546 v -0.821999 h -0.50546 z"
       style="fill:#231f20;fill-opacity:1;fill-rule:nonzero;stroke:none;stroke-width:0.0352777"
       id="path734" />
    <path
       d="m -147.76841,35.74042 h 0.50518 v -0.821999 h -0.50518 z"
       style="fill:#231f20;fill-opacity:1;fill-rule:nonzero;stroke:none;stroke-width:0.0352777"
       id="path736" />
    <path
       d="m -148.88671,35.74042 h 0.50518 v -0.821999 h -0.50518 z"
       style="fill:#231f20;fill-opacity:1;fill-rule:nonzero;stroke:none;stroke-width:0.0352777"
       id="path738" />
    <path
       d="m -149.44657,35.74042 h 0.50519 v -0.821999 h -0.50519 z"
       style="fill:#231f20;fill-opacity:1;fill-rule:nonzero;stroke:none;stroke-width:0.0352777"
       id="path740" />
    <path
       d="m -150.00537,35.74042 h 0.50519 v -0.821999 h -0.50519 z"
       style="fill:#231f20;fill-opacity:1;fill-rule:nonzero;stroke:none;stroke-width:0.0352777"
       id="path742" />
    <path
       d="m -152.24303,35.74042 h 0.50546 v -0.821999 h -0.50546 z"
       style="fill:#231f20;fill-opacity:1;fill-rule:nonzero;stroke:none;stroke-width:0.0352777"
       id="path744" />
    <path
       d="m -152.80183,35.74042 h 0.50518 v -0.821999 h -0.50518 z"
       style="fill:#231f20;fill-opacity:1;fill-rule:nonzero;stroke:none;stroke-width:0.0352777"
       id="path746" />
    <path
       d="m -153.36063,35.74042 h 0.50519 v -0.821999 h -0.50519 z"
       style="fill:#231f20;fill-opacity:1;fill-rule:nonzero;stroke:none;stroke-width:0.0352777"
       id="path748" />
    <text
       xml:space="preserve"
       transform="scale(1,-1)"
       style="font-variant:normal;font-weight:normal;font-size:0.0352777px;font-family:Arial;-inkscape-font-specification:Arial;writing-mode:lr-tb;fill:#231f20;fill-opacity:1;fill-rule:nonzero;stroke:none;stroke-width:0.352777"
       id="text754"
       x="-156.87231"
       y="-24.983814"><tspan
         x="-156.87231 -154.75565 -152.63899 -150.52232 -148.40567 -146.289 -144.17235 -191.02112"
         y="-24.983814"
         sodipodi:role="line"
         id="tspan752"
         style="stroke-width:0.352777">✻✼✽✾✿❀❁❂</tspan></text>
    <text
       xml:space="preserve"
       transform="scale(1,-1)"
       style="font-variant:normal;font-weight:normal;font-size:0.0352777px;font-family:Arial;-inkscape-font-specification:Arial;writing-mode:lr-tb;fill:#231f20;fill-opacity:1;fill-rule:nonzero;stroke:none;stroke-width:0.352777"
       id="text758"
       x="-188.9399"
       y="-24.983814"><tspan
         x="-188.9399"
         y="-24.983814"
         id="tspan756"
         style="stroke-width:0.352777">✴</tspan></text>
    <text
       xml:space="preserve"
       transform="scale(1,-1)"
       style="font-variant:normal;font-weight:normal;font-size:0.0352777px;font-family:Arial;-inkscape-font-specification:Arial;writing-mode:lr-tb;fill:#231f20;fill-opacity:1;fill-rule:nonzero;stroke:none;stroke-width:0.352777"
       id="text762"
       x="-186.78795"
       y="-24.983814"><tspan
         x="-186.78795 -184.6713 -182.55463"
         y="-24.983814"
         sodipodi:role="line"
         id="tspan760"
         style="stroke-width:0.352777">❃✼✾</tspan></text>
    <path
       d="m -149.45962,25.956117 v 4.801329"
       style="fill:none;stroke:#ffffff;stroke-width:0.423332;stroke-linecap:round;stroke-linejoin:round;stroke-miterlimit:4;stroke-dasharray:none;stroke-opacity:1"
       id="path764" />
    <path
       d="m -149.45962,25.956117 v 4.801329"
       style="fill:none;stroke:#231f20;stroke-width:0.0881942;stroke-linecap:butt;stroke-linejoin:miter;stroke-miterlimit:4;stroke-dasharray:none;stroke-opacity:1"
       id="path766" />
    <path
       d="m -185.72403,25.956117 v 4.801329"
       style="fill:none;stroke:#ffffff;stroke-width:0.423332;stroke-linecap:round;stroke-linejoin:round;stroke-miterlimit:4;stroke-dasharray:none;stroke-opacity:1"
       id="path768" />
    <path
       d="m -185.72403,25.956117 v 4.801329"
       style="fill:none;stroke:#231f20;stroke-width:0.0881942;stroke-linecap:butt;stroke-linejoin:miter;stroke-miterlimit:4;stroke-dasharray:none;stroke-opacity:1"
       id="path770" />
    <text
       xml:space="preserve"
       transform="scale(1,-1)"
       style="font-variant:normal;font-weight:normal;font-size:0.0352777px;font-family:Arial;-inkscape-font-specification:Arial;writing-mode:lr-tb;fill:#231f20;fill-opacity:1;fill-rule:nonzero;stroke:none;stroke-width:0.352777"
       id="text776"
       x="-178.53294"
       y="-42.693169"><tspan
         x="-178.53294 -176.41629 -174.29962 -172.18297"
         y="-42.693169"
         sodipodi:role="line"
         id="tspan774"
         style="stroke-width:0.352777">❄❅❆❇</tspan></text>
    <path
       d="m -164.99451,31.863472 c 0,0.218263 0,0.436703 0,0.654966 v 0.05292 h -0.0529 c -2.66841,0 -5.33681,0 -8.00515,0 v 2.094472 c 2.66834,0 5.33674,0 8.00515,0 h 0.0529 v 0.05292 c 0,0.218439 0,0.436702 0,0.655142 0.49248,-0.585257 0.98531,-1.170091 1.47778,-1.755348 -0.49247,-0.584974 -0.98495,-1.169808 -1.47778,-1.755065"
       style="fill:#bdbcbc;fill-opacity:1;fill-rule:nonzero;stroke:none;stroke-width:0.0352777"
       id="path778" />
    <path
       d="m -164.99451,31.863472 c 0,0.218263 0,0.436703 0,0.654966 v 0.05292 h -0.0529 c -2.66841,0 -5.33681,0 -8.00515,0 v 2.094472 c 2.66834,0 5.33674,0 8.00515,0 h 0.0529 v 0.05292 c 0,0.218439 0,0.436702 0,0.655142 0.49248,-0.585257 0.98531,-1.170091 1.47778,-1.755348 -0.49247,-0.584974 -0.98495,-1.169808 -1.47778,-1.755065 z"
       style="fill:none;stroke:#4f4c4c;stroke-width:0.105833;stroke-linecap:butt;stroke-linejoin:miter;stroke-miterlimit:4;stroke-dasharray:none;stroke-opacity:1"
       id="path780" />
  </g>
</svg>
