<?xml version="1.0" encoding="UTF-8" standalone="no"?>
<!-- Created with Inkscape (http://www.inkscape.org/) -->

<svg
   width="25.19603mm"
   height="15.285805mm"
   viewBox="0 0 25.19603 15.285805"
   version="1.1"
   id="svg1565"
   inkscape:version="1.2.2 (b0a8486541, 2022-12-01)"
   sodipodi:docname="on.svg"
   xmlns:inkscape="http://www.inkscape.org/namespaces/inkscape"
   xmlns:sodipodi="http://sodipodi.sourceforge.net/DTD/sodipodi-0.dtd"
   xmlns="http://www.w3.org/2000/svg"
   xmlns:svg="http://www.w3.org/2000/svg">
  <sodipodi:namedview
     id="namedview1567"
     pagecolor="#ffffff"
     bordercolor="#666666"
     borderopacity="1.0"
     inkscape:showpageshadow="2"
     inkscape:pageopacity="0.0"
     inkscape:pagecheckerboard="0"
     inkscape:deskcolor="#d1d1d1"
     inkscape:document-units="mm"
     showgrid="false"
     inkscape:zoom="0.44542649"
     inkscape:cx="1095.5792"
     inkscape:cy="462.47811"
     inkscape:window-width="1366"
     inkscape:window-height="685"
     inkscape:window-x="0"
     inkscape:window-y="27"
     inkscape:window-maximized="1"
     inkscape:current-layer="layer1" />
  <defs
     id="defs1562">
    <clipPath
       clipPathUnits="userSpaceOnUse"
       id="clipPath160">
      <path
         d="m 2704.83,1793.72 h 713.695 v 357.172 H 2704.83 Z"
         id="path158" />
    </clipPath>
    <clipPath
       clipPathUnits="userSpaceOnUse"
       id="clipPath1503">
      <path
         d="m 2704.83,1793.72 h 713.695 v 357.172 H 2704.83 Z"
         id="path1501" />
    </clipPath>
    <clipPath
       clipPathUnits="userSpaceOnUse"
       id="clipPath1507">
      <path
         d="m 2704.83,1793.72 h 713.695 v 357.172 H 2704.83 Z"
         id="path1505" />
    </clipPath>
  </defs>
  <g
     inkscape:label="Layer 1"
     inkscape:groupmode="layer"
     id="layer1"
     transform="translate(184.85801,-26.215098)">
    <text
       xml:space="preserve"
       transform="scale(1,-1)"
       style="font-variant:normal;font-weight:normal;font-size:0.0352777px;font-family:Arial;-inkscape-font-specification:Arial;writing-mode:lr-tb;fill:#231f20;fill-opacity:1;fill-rule:nonzero;stroke:none;stroke-width:0.352777"
       id="text124"
       x="-183.95149"
       y="-26.215597"><tspan
         x="-183.95149"
         y="-26.215597"
         id="tspan122"
         style="stroke-width:0.352777">✏</tspan></text>
    <text
       xml:space="preserve"
       transform="scale(1,-1)"
       style="font-variant:normal;font-weight:normal;font-size:0.0352777px;font-family:Arial;-inkscape-font-specification:Arial;writing-mode:lr-tb;fill:#231f20;fill-opacity:1;fill-rule:nonzero;stroke:none;stroke-width:0.352777"
       id="text128"
       x="-181.44669"
       y="-26.250866"><tspan
         x="-181.44669"
         y="-26.250866"
         id="tspan126"
         style="stroke-width:0.352777">➪</tspan></text>
    <text
       xml:space="preserve"
       transform="scale(1,-1)"
       style="font-variant:normal;font-weight:normal;font-size:0.0352777px;font-family:Arial;-inkscape-font-specification:Arial;writing-mode:lr-tb;fill:#231f20;fill-opacity:1;fill-rule:nonzero;stroke:none;stroke-width:0.352777"
       id="text132"
       x="-179.22418"
       y="-26.215597"><tspan
         x="-179.22418 -177.74252 -176.26086"
         y="-26.215597"
         sodipodi:role="line"
         id="tspan130"
         style="stroke-width:0.352777">✓✓✒</tspan></text>
    <text
       xml:space="preserve"
       transform="scale(1,-1)"
       style="font-variant:normal;font-weight:normal;font-size:0.0352777px;font-family:Arial;-inkscape-font-specification:Arial;writing-mode:lr-tb;fill:#231f20;fill-opacity:1;fill-rule:nonzero;stroke:none;stroke-width:0.352777"
       id="text136"
       x="-174.99084"
       y="-26.215597"><tspan
         x="-174.99084"
         y="-26.215597"
         id="tspan134"
         style="stroke-width:0.352777">✱</tspan></text>
    <text
       xml:space="preserve"
       transform="scale(1,-1)"
       style="font-variant:normal;font-weight:normal;font-size:0.0352777px;font-family:Arial;-inkscape-font-specification:Arial;writing-mode:lr-tb;fill:#231f20;fill-opacity:1;fill-rule:nonzero;stroke:none;stroke-width:0.352777"
       id="text140"
       x="-172.55669"
       y="-26.215597"><tspan
         x="-172.55669 -170.12251"
         y="-26.215597"
         sodipodi:role="line"
         id="tspan138"
         style="stroke-width:0.352777">✔✕</tspan></text>
    <text
       xml:space="preserve"
       transform="scale(1,-1)"
       style="font-variant:normal;font-weight:normal;font-size:0.0352777px;font-family:Arial;-inkscape-font-specification:Arial;writing-mode:lr-tb;fill:#231f20;fill-opacity:1;fill-rule:nonzero;stroke:none;stroke-width:0.352777"
       id="text144"
       x="-167.65315"
       y="-26.215597"><tspan
         x="-167.65315 -165.18372 -162.74956 -160.28011"
         y="-26.215597"
         sodipodi:role="line"
         id="tspan142"
         style="stroke-width:0.352777">✉✢★✴</tspan></text>
    <path
       d="m -179.46229,29.272949 -0.43285,-0.19438 c 0,0 -0.35878,-0.173566 -0.66005,0.06103 -0.248,0.192617 -0.69356,0.507999 -1.42134,1.660874 -0.71508,1.157461 -0.77258,1.648174 -0.82126,1.931101 -0.0596,0.343252 0.31009,0.498826 0.31009,0.498826 l 0.43215,0.19438"
       style="fill:#9c9a9b;fill-opacity:1;fill-rule:nonzero;stroke:none;stroke-width:0.0352777"
       id="path146" />
    <path
       d="m -165.01713,29.272949 0.43286,-0.19438 c 0,0 0.35877,-0.173566 0.66004,0.06103 0.24765,0.192617 0.69356,0.507999 1.42099,1.660874 0.71543,1.157461 0.77293,1.648174 0.82126,1.931101 0.0596,0.343252 -0.31009,0.498826 -0.31009,0.498826 l -0.4318,0.19438"
       style="fill:#9c9a9b;fill-opacity:1;fill-rule:nonzero;stroke:none;stroke-width:0.0352777"
       id="path148" />
    <path
       d="m -179.46229,41.128369 -0.43285,0.194733 c 0,0 -0.35878,0.173567 -0.66005,-0.06103 -0.248,-0.192616 -0.69356,-0.508352 -1.42134,-1.660874 -0.71508,-1.157813 -0.77258,-1.648173 -0.82126,-1.931453 -0.0596,-0.342899 0.31009,-0.498474 0.31009,-0.498474 l 0.43215,-0.19438"
       style="fill:#9c9a9b;fill-opacity:1;fill-rule:nonzero;stroke:none;stroke-width:0.0352777"
       id="path150" />
    <path
       d="m -165.01713,41.128369 0.43286,0.194733 c 0,0 0.35877,0.173567 0.66004,-0.06103 0.24765,-0.192616 0.69356,-0.508352 1.42099,-1.660874 0.71543,-1.157813 0.77293,-1.648173 0.82126,-1.931453 0.0596,-0.342899 -0.31009,-0.498474 -0.31009,-0.498474 l -0.4318,-0.19438"
       style="fill:#9c9a9b;fill-opacity:1;fill-rule:nonzero;stroke:none;stroke-width:0.0352777"
       id="path152" />
    <path
       d="m 3354.93,1972.3 c 0,-137.51 -131.15,-248.99 -292.95,-248.99 -161.78,0 -292.93,111.48 -292.93,248.99 0,137.51 131.15,249 292.93,249 161.8,0 292.95,-111.49 292.95,-249"
       style="fill:#ffffff;fill-opacity:1;fill-rule:nonzero;stroke:none"
       id="path162"
       clip-path="url(#clipPath160)"
       transform="matrix(0.03527769,0,0,-0.03527769,-280.25982,104.7792)" />
    <path
       d="m 3354.93,1972.3 c 0,-137.51 -131.15,-248.99 -292.95,-248.99 -161.78,0 -292.93,111.48 -292.93,248.99 0,137.51 131.15,249 292.93,249 161.8,0 292.95,-111.49 292.95,-249 z"
       style="fill:none;stroke:#9c9a9b;stroke-width:6;stroke-linecap:butt;stroke-linejoin:miter;stroke-miterlimit:10;stroke-dasharray:none;stroke-opacity:1"
       id="path164"
       clip-path="url(#clipPath160)"
       transform="matrix(0.03527769,0,0,-0.03527769,-280.25982,104.7792)" />
    <path
       d="m 3331.46,1972.3 c 0,-126.5 -120.64,-229.05 -269.47,-229.05 -148.82,0 -269.46,102.55 -269.46,229.05 0,126.5 120.64,229.05 269.46,229.05 148.83,0 269.47,-102.55 269.47,-229.05 z"
       style="fill:none;stroke:#9c9a9b;stroke-width:4;stroke-linecap:butt;stroke-linejoin:miter;stroke-miterlimit:10;stroke-dasharray:none;stroke-opacity:1"
       id="path166"
       clip-path="url(#clipPath160)"
       transform="matrix(0.03527769,0,0,-0.03527769,-280.25982,104.7792)" />
    <path
       d="m -184.85801,30.212394 c 0,0.656518 0.54045,1.197325 1.19732,1.197325 0.65617,0 1.19627,-0.540807 1.19627,-1.197325 0,-0.656518 -0.5401,-1.196267 -1.19627,-1.196267 -0.65687,0 -1.19732,0.539749 -1.19732,1.196267 m 1.19732,-1.084789 c 0.59761,0 1.08479,0.487185 1.08479,1.084789 0,0.596193 -0.48895,1.084789 -1.08479,1.084789 -0.59654,0 -1.08584,-0.488596 -1.08584,-1.084789 0,-0.597604 0.48683,-1.084789 1.08584,-1.084789 m 0.28575,1.397349 0.14217,0.414513 h 0.2092 l -0.51435,-1.420633 h -0.21907 l -0.5334,1.420633 h 0.19861 l 0.14887,-0.414513 z m -0.51011,-0.170391 0.22825,-0.624062 h 0.005 l 0.2092,0.624062"
       style="fill:#231f20;fill-opacity:1;fill-rule:nonzero;stroke:none;stroke-width:0.0352777"
       id="path168" />
    <path
       d="m -162.05557,30.213099 c 0,0.656518 0.54045,1.19662 1.19697,1.19662 0.65687,0 1.19662,-0.540102 1.19662,-1.19662 0,-0.656517 -0.53975,-1.197324 -1.19662,-1.197324 -0.65652,0 -1.19697,0.540807 -1.19697,1.197324 m 1.19697,-1.092197 c 0.59866,0 1.08514,0.493535 1.08514,1.092197 0,0.596193 -0.48894,1.084789 -1.08514,1.084789 -0.59584,0 -1.08479,-0.488596 -1.08479,-1.084789 0,-0.598662 0.48648,-1.092197 1.08479,-1.092197 m -0.24447,1.184978 h 0.37959 c 0.15592,0 0.3309,0.03951 0.3309,0.239535 0,0.15875 -0.10019,0.258939 -0.30092,0.258939 h -0.40957 z m -0.19085,0.663926 h 0.61242 c 0.31432,0 0.48189,-0.191205 0.48189,-0.419099 0,-0.244827 -0.16545,-0.309385 -0.25859,-0.347485 0.15875,-0.07197 0.19121,-0.202494 0.19121,-0.295275 0,-0.195791 -0.13723,-0.358774 -0.40252,-0.358774 h -0.62441 z m 0.19085,-1.25765 h 0.34925 c 0.21449,0 0.29562,0.07691 0.29562,0.209902 0,0.172156 -0.11394,0.228247 -0.29774,0.228247 h -0.34713"
       style="fill:#231f20;fill-opacity:1;fill-rule:nonzero;stroke:none;stroke-width:0.0352777"
       id="path170" />
    <path
       d="m -184.85801,40.188572 c 0,0.657223 0.54045,1.197325 1.19732,1.197325 0.65617,0 1.19627,-0.540102 1.19627,-1.197325 0,-0.656518 -0.5401,-1.196619 -1.19627,-1.196619 -0.65687,0 -1.19732,0.540101 -1.19732,1.196619 m 1.80481,-0.251177 c -0.0282,-0.237419 -0.21908,-0.463196 -0.58455,-0.463196 -0.41416,0 -0.66393,0.302682 -0.66393,0.738362 0,0.546451 0.31679,0.756353 0.64099,0.756353 0.10619,0 0.54222,-0.02293 0.6216,-0.558798 h -0.18697 c -0.0653,0.330552 -0.28117,0.388407 -0.40499,0.388407 -0.35384,0 -0.47202,-0.25541 -0.47202,-0.590901 0,-0.374649 0.20885,-0.563032 0.46532,-0.563032 0.13723,0 0.34501,0.04374 0.39757,0.292805 z m -0.60749,-0.833612 c 0.59761,0 1.08479,0.486832 1.08479,1.084789 0,0.596193 -0.48895,1.085494 -1.08479,1.085494 -0.59654,0 -1.08584,-0.489301 -1.08584,-1.085494 0,-0.597957 0.48683,-1.084789 1.08584,-1.084789"
       style="fill:#231f20;fill-opacity:1;fill-rule:nonzero;stroke:none;stroke-width:0.0352777"
       id="path172" />
    <path
       d="m -162.05804,40.188572 c 0,0.657223 0.53975,1.197325 1.19662,1.197325 0.65687,0 1.19662,-0.540102 1.19662,-1.197325 0,-0.656518 -0.53975,-1.196619 -1.19662,-1.196619 -0.65687,0 -1.19662,0.540101 -1.19662,1.196619 m 1.19662,-1.091492 c 0.59866,0 1.08514,0.493535 1.08514,1.091492 0,0.596193 -0.4893,1.085494 -1.08514,1.085494 -0.59584,0 -1.08514,-0.489301 -1.08514,-1.085494 0,-0.597957 0.48683,-1.091492 1.08514,-1.091492 m -0.48401,1.843965 h 0.56797 c 0.46567,0 0.60572,-0.412043 0.60572,-0.730954 0,-0.410279 -0.2286,-0.689679 -0.59902,-0.689679 h -0.57467 z m 0.19085,-1.25765 h 0.35842 c 0.26071,0 0.42616,0.18168 0.42616,0.538338 0,0.358774 -0.16298,0.55386 -0.4124,0.55386 h -0.37218"
       style="fill:#231f20;fill-opacity:1;fill-rule:nonzero;stroke:none;stroke-width:0.0352777"
       id="path174" />
    <path
       d="m -166.44129,35.143157 c 0,-3.197217 -2.5908,-5.790128 -5.78378,-5.790128 -3.19792,0 -5.79507,2.592911 -5.79507,5.790128 0,3.198981 2.59715,5.791185 5.79507,5.791185 3.19298,0 5.78378,-2.592204 5.78378,-5.791185 z"
       style="fill:none;stroke:#9c9a9b;stroke-width:0.141111;stroke-linecap:round;stroke-linejoin:round;stroke-miterlimit:10;stroke-dasharray:none;stroke-opacity:1"
       id="path176" />
    <path
       d="m -168.0182,33.873865 h 0.50518 v -0.822548 h -0.50518 z"
       style="fill:#7b7979;fill-opacity:1;fill-rule:nonzero;stroke:none;stroke-width:0.0352777"
       id="path178" />
    <path
       d="m -170.25446,33.873865 h 0.50519 v -0.822548 h -0.50519 z"
       style="fill:#7b7979;fill-opacity:1;fill-rule:nonzero;stroke:none;stroke-width:0.0352777"
       id="path180" />
    <path
       d="m -171.93226,33.873865 h 0.50546 v -0.822548 h -0.50546 z"
       style="fill:#7b7979;fill-opacity:1;fill-rule:nonzero;stroke:none;stroke-width:0.0352777"
       id="path182" />
    <path
       d="m -172.49212,33.873865 h 0.50629 v -0.822548 h -0.50629 z"
       style="fill:#7b7979;fill-opacity:1;fill-rule:nonzero;stroke:none;stroke-width:0.0352777"
       id="path184" />
    <path
       d="m -173.05092,33.873865 h 0.50519 v -0.822548 h -0.50519 z"
       style="fill:#7b7979;fill-opacity:1;fill-rule:nonzero;stroke:none;stroke-width:0.0352777"
       id="path186" />
    <path
       d="m -168.0182,34.751221 h 0.50518 v -0.822686 h -0.50518 z"
       style="fill:#7b7979;fill-opacity:1;fill-rule:nonzero;stroke:none;stroke-width:0.0352777"
       id="path188" />
    <path
       d="m -169.69601,34.751221 h 0.50615 v -0.822686 h -0.50615 z"
       style="fill:#7b7979;fill-opacity:1;fill-rule:nonzero;stroke:none;stroke-width:0.0352777"
       id="path190" />
    <path
       d="m -170.25446,34.751221 h 0.50519 v -0.822686 h -0.50519 z"
       style="fill:#7b7979;fill-opacity:1;fill-rule:nonzero;stroke:none;stroke-width:0.0352777"
       id="path192" />
    <path
       d="m -171.37311,34.751221 h 0.50518 v -0.822686 h -0.50518 z"
       style="fill:#7b7979;fill-opacity:1;fill-rule:nonzero;stroke:none;stroke-width:0.0352777"
       id="path194" />
    <path
       d="m -173.61078,34.751221 h 0.5056 v -0.822686 h -0.5056 z"
       style="fill:#7b7979;fill-opacity:1;fill-rule:nonzero;stroke:none;stroke-width:0.0352777"
       id="path196" />
    <path
       d="m -168.0182,35.626814 h 0.50518 v -0.821999 h -0.50518 z"
       style="fill:#7b7979;fill-opacity:1;fill-rule:nonzero;stroke:none;stroke-width:0.0352777"
       id="path198" />
    <path
       d="m -169.13615,35.626814 h 0.50518 v -0.821999 h -0.50518 z"
       style="fill:#7b7979;fill-opacity:1;fill-rule:nonzero;stroke:none;stroke-width:0.0352777"
       id="path200" />
    <path
       d="m -170.25446,35.626814 h 0.50519 v -0.821999 h -0.50519 z"
       style="fill:#7b7979;fill-opacity:1;fill-rule:nonzero;stroke:none;stroke-width:0.0352777"
       id="path202" />
    <path
       d="m -171.37311,35.626814 h 0.50518 v -0.821999 h -0.50518 z"
       style="fill:#7b7979;fill-opacity:1;fill-rule:nonzero;stroke:none;stroke-width:0.0352777"
       id="path204" />
    <path
       d="m -173.61078,35.626814 h 0.5056 v -0.821999 h -0.5056 z"
       style="fill:#7b7979;fill-opacity:1;fill-rule:nonzero;stroke:none;stroke-width:0.0352777"
       id="path206" />
    <path
       d="m -168.0182,36.50417 h 0.50518 v -0.822686 h -0.50518 z"
       style="fill:#7b7979;fill-opacity:1;fill-rule:nonzero;stroke:none;stroke-width:0.0352777"
       id="path208" />
    <path
       d="m -168.57736,36.50417 h 0.5056 v -0.822686 h -0.5056 z"
       style="fill:#7b7979;fill-opacity:1;fill-rule:nonzero;stroke:none;stroke-width:0.0352777"
       id="path210" />
    <path
       d="m -170.25446,36.50417 h 0.50519 v -0.822686 h -0.50519 z"
       style="fill:#7b7979;fill-opacity:1;fill-rule:nonzero;stroke:none;stroke-width:0.0352777"
       id="path212" />
    <path
       d="m -171.37311,36.50417 h 0.50518 v -0.822686 h -0.50518 z"
       style="fill:#7b7979;fill-opacity:1;fill-rule:nonzero;stroke:none;stroke-width:0.0352777"
       id="path214" />
    <path
       d="m -173.61078,36.50417 h 0.5056 v -0.822686 h -0.5056 z"
       style="fill:#7b7979;fill-opacity:1;fill-rule:nonzero;stroke:none;stroke-width:0.0352777"
       id="path216" />
    <path
       d="m -168.0182,37.380468 h 0.50518 v -0.821999 h -0.50518 z"
       style="fill:#7b7979;fill-opacity:1;fill-rule:nonzero;stroke:none;stroke-width:0.0352777"
       id="path218" />
    <path
       d="m -170.25446,37.380468 h 0.50519 v -0.821999 h -0.50519 z"
       style="fill:#7b7979;fill-opacity:1;fill-rule:nonzero;stroke:none;stroke-width:0.0352777"
       id="path220" />
    <path
       d="m -171.93226,37.380468 h 0.50546 v -0.821999 h -0.50546 z"
       style="fill:#7b7979;fill-opacity:1;fill-rule:nonzero;stroke:none;stroke-width:0.0352777"
       id="path222" />
    <path
       d="m -172.49212,37.380468 h 0.50629 v -0.821999 h -0.50629 z"
       style="fill:#7b7979;fill-opacity:1;fill-rule:nonzero;stroke:none;stroke-width:0.0352777"
       id="path224" />
    <path
       d="m -173.05092,37.380468 h 0.50519 v -0.821999 h -0.50519 z"
       style="fill:#7b7979;fill-opacity:1;fill-rule:nonzero;stroke:none;stroke-width:0.0352777"
       id="path226" />
    <path
       d="m -165.77102,35.091298 c 0,2.180867 -2.11948,3.949338 -4.73426,3.949338 -2.61478,0 -4.73427,-1.768471 -4.73427,-3.949338 0,-2.180866 2.11949,-3.949337 4.73427,-3.949337 2.61478,0 4.73426,1.768471 4.73426,3.949337 z"
       style="fill:none;stroke:#ffffff;stroke-width:1.5875;stroke-linecap:butt;stroke-linejoin:miter;stroke-miterlimit:4;stroke-dasharray:0.423332, 0.772581;stroke-dashoffset:0;stroke-opacity:1"
       id="path228" />
    <path
       d="m -165.77102,35.091298 c 0,2.180867 -2.11948,3.949338 -4.73426,3.949338 -2.61478,0 -4.73427,-1.768471 -4.73427,-3.949338 0,-2.180866 2.11949,-3.949337 4.73427,-3.949337 2.61478,0 4.73426,1.768471 4.73426,3.949337 z"
       style="fill:none;stroke:#231f20;stroke-width:1.41111;stroke-linecap:butt;stroke-linejoin:miter;stroke-miterlimit:4;stroke-dasharray:0.176388, 1.02305;stroke-dashoffset:0;stroke-opacity:1"
       id="path230" />
  </g>
</svg>
