<?xml version="1.0" encoding="UTF-8" standalone="no"?>
<!-- Created with Inkscape (http://www.inkscape.org/) -->

<svg
   width="27.183395mm"
   height="19.98481mm"
   viewBox="0 0 27.183395 19.98481"
   version="1.1"
   id="svg674"
   inkscape:version="1.2.2 (b0a8486541, 2022-12-01)"
   sodipodi:docname="med.svg"
   xmlns:inkscape="http://www.inkscape.org/namespaces/inkscape"
   xmlns:sodipodi="http://sodipodi.sourceforge.net/DTD/sodipodi-0.dtd"
   xmlns="http://www.w3.org/2000/svg"
   xmlns:svg="http://www.w3.org/2000/svg">
  <sodipodi:namedview
     id="namedview676"
     pagecolor="#ffffff"
     bordercolor="#666666"
     borderopacity="1.0"
     inkscape:showpageshadow="2"
     inkscape:pageopacity="0.0"
     inkscape:pagecheckerboard="0"
     inkscape:deskcolor="#d1d1d1"
     inkscape:document-units="mm"
     showgrid="false"
     inkscape:zoom="0.44542649"
     inkscape:cx="1037.2082"
     inkscape:cy="487.17354"
     inkscape:window-width="1366"
     inkscape:window-height="709"
     inkscape:window-x="0"
     inkscape:window-y="58"
     inkscape:window-maximized="0"
     inkscape:current-layer="layer1" />
  <defs
     id="defs671">
    <clipPath
       clipPathUnits="userSpaceOnUse"
       id="clipPath694">
      <path
         d="m 1298.9,1720.19 h 713.703 v 357.168 H 1298.9 Z"
         id="path692" />
    </clipPath>
    <clipPath
       clipPathUnits="userSpaceOnUse"
       id="clipPath605">
      <path
         d="m 1298.9,1720.19 h 713.703 v 357.168 H 1298.9 Z"
         id="path603" />
    </clipPath>
    <clipPath
       clipPathUnits="userSpaceOnUse"
       id="clipPath609">
      <path
         d="m 1298.9,1720.19 h 713.703 v 357.168 H 1298.9 Z"
         id="path607" />
    </clipPath>
  </defs>
  <g
     inkscape:label="Layer 1"
     inkscape:groupmode="layer"
     id="layer1"
     transform="translate(169.21969,-19.707594)">
    <text
       xml:space="preserve"
       transform="scale(1,-1)"
       style="font-variant:normal;font-weight:normal;font-size:0.0352777px;font-family:Arial;-inkscape-font-specification:Arial;writing-mode:lr-tb;fill:#231f20;fill-opacity:1;fill-rule:nonzero;stroke:none;stroke-width:0.352777"
       id="text626"
       x="-169.22118"
       y="-19.743372"><tspan
         x="-169.22118"
         y="-19.743372"
         id="tspan624"
         style="stroke-width:0.352777">✣</tspan></text>
    <text
       xml:space="preserve"
       transform="scale(1,-1)"
       style="font-variant:normal;font-weight:normal;font-size:0.0352777px;font-family:Arial;-inkscape-font-specification:Arial;writing-mode:lr-tb;fill:#231f20;fill-opacity:1;fill-rule:nonzero;stroke:none;stroke-width:0.352777"
       id="text630"
       x="-166.68118"
       y="-19.708103"><tspan
         x="-166.68118"
         y="-19.708103"
         id="tspan628"
         style="stroke-width:0.352777">✶</tspan></text>
    <text
       xml:space="preserve"
       transform="scale(1,-1)"
       style="font-variant:normal;font-weight:normal;font-size:0.0352777px;font-family:Arial;-inkscape-font-specification:Arial;writing-mode:lr-tb;fill:#231f20;fill-opacity:1;fill-rule:nonzero;stroke:none;stroke-width:0.352777"
       id="text634"
       x="-164.10599"
       y="-19.743372"><tspan
         x="-164.10599"
         y="-19.743372"
         id="tspan632"
         style="stroke-width:0.352777">✛</tspan></text>
    <text
       xml:space="preserve"
       transform="scale(1,-1)"
       style="font-variant:normal;font-weight:normal;font-size:0.0352777px;font-family:Arial;-inkscape-font-specification:Arial;writing-mode:lr-tb;fill:#231f20;fill-opacity:1;fill-rule:nonzero;stroke:none;stroke-width:0.352777"
       id="text640"
       x="-161.56599"
       y="-19.743372"><tspan
         x="-161.56599"
         y="-19.743372"
         id="tspan636"
         style="stroke-width:0.352777">◆</tspan><tspan
         x="-159.09656"
         y="-19.708094"
         id="tspan638"
         style="stroke-width:0.352777">✤</tspan></text>
    <text
       xml:space="preserve"
       transform="scale(1,-1)"
       style="font-variant:normal;font-weight:normal;font-size:0.0352777px;font-family:Arial;-inkscape-font-specification:Arial;writing-mode:lr-tb;fill:#231f20;fill-opacity:1;fill-rule:nonzero;stroke:none;stroke-width:0.352777"
       id="text644"
       x="-156.55637"
       y="-19.708103"><tspan
         x="-156.55637"
         y="-19.708103"
         id="tspan642"
         style="stroke-width:0.352777">✙</tspan></text>
    <text
       xml:space="preserve"
       transform="scale(1,-1)"
       style="font-variant:normal;font-weight:normal;font-size:0.0352777px;font-family:Arial;-inkscape-font-specification:Arial;writing-mode:lr-tb;fill:#231f20;fill-opacity:1;fill-rule:nonzero;stroke:none;stroke-width:0.352777"
       id="text648"
       x="-153.98119"
       y="-19.708103"><tspan
         x="-153.98119"
         y="-19.708103"
         id="tspan646"
         style="stroke-width:0.352777">✷</tspan></text>
    <text
       xml:space="preserve"
       transform="scale(1,-1)"
       style="font-variant:normal;font-weight:normal;font-size:0.0352777px;font-family:Arial;-inkscape-font-specification:Arial;writing-mode:lr-tb;fill:#231f20;fill-opacity:1;fill-rule:nonzero;stroke:none;stroke-width:0.352777"
       id="text656"
       x="-144.52682"
       y="-19.708103"><tspan
         x="-144.52682"
         y="-19.708103"
         id="tspan654"
         style="stroke-width:0.352777">❀</tspan></text>
    <path
       d="m -161.83661,25.85332 -0.43286,-0.194381 c 0,0 -0.35877,-0.173566 -0.66004,0.06103 -0.24801,0.192616 -0.69356,0.507999 -1.42134,1.660874 -0.71508,1.157461 -0.77258,1.648173 -0.82127,1.9311 -0.0596,0.343252 0.3101,0.498827 0.3101,0.498827 l 0.43215,0.19438"
       style="fill:#9c9a9b;fill-opacity:1;fill-rule:nonzero;stroke:none;stroke-width:0.0352777"
       id="path680" />
    <path
       d="m -147.39145,25.85332 0.43285,-0.194381 c 0,0 0.35878,-0.173566 0.66005,0.06103 0.24765,0.192616 0.69356,0.507999 1.42098,1.660874 0.71544,1.157461 0.77294,1.648173 0.82127,1.9311 0.0596,0.343252 -0.31009,0.498827 -0.31009,0.498827 l -0.4318,0.19438"
       style="fill:#9c9a9b;fill-opacity:1;fill-rule:nonzero;stroke:none;stroke-width:0.0352777"
       id="path682" />
    <path
       d="m -161.83661,37.70874 -0.43286,0.194733 c 0,0 -0.35877,0.173566 -0.66004,-0.06103 -0.24801,-0.192616 -0.69356,-0.508351 -1.42134,-1.660873 -0.71508,-1.157814 -0.77258,-1.648174 -0.82127,-1.931454 -0.0596,-0.342899 0.3101,-0.498473 0.3101,-0.498473 l 0.43215,-0.194381"
       style="fill:#9c9a9b;fill-opacity:1;fill-rule:nonzero;stroke:none;stroke-width:0.0352777"
       id="path684" />
    <path
       d="m -147.39145,37.70874 0.43285,0.194733 c 0,0 0.35878,0.173566 0.66005,-0.06103 0.24765,-0.192616 0.69356,-0.508351 1.42098,-1.660873 0.71544,-1.157814 0.77294,-1.648174 0.82127,-1.931454 0.0596,-0.342899 -0.31009,-0.498473 -0.31009,-0.498473 l -0.4318,-0.194381"
       style="fill:#9c9a9b;fill-opacity:1;fill-rule:nonzero;stroke:none;stroke-width:0.0352777"
       id="path686" />
    <path
       d="m 1949.01,1898.77 c 0,-137.51 -131.15,-248.99 -292.95,-248.99 -161.78,0 -292.93,111.48 -292.93,248.99 0,137.51 131.15,249 292.93,249 161.8,0 292.95,-111.49 292.95,-249"
       style="fill:#ffffff;fill-opacity:1;fill-rule:nonzero;stroke:none"
       id="path696"
       clip-path="url(#clipPath694)"
       transform="matrix(0.03527769,0,0,-0.03527769,-213.03618,98.765602)" />
    <path
       d="m 1949.01,1898.77 c 0,-137.51 -131.15,-248.99 -292.95,-248.99 -161.78,0 -292.93,111.48 -292.93,248.99 0,137.51 131.15,249 292.93,249 161.8,0 292.95,-111.49 292.95,-249 z"
       style="fill:none;stroke:#9c9a9b;stroke-width:6;stroke-linecap:butt;stroke-linejoin:miter;stroke-miterlimit:10;stroke-dasharray:none;stroke-opacity:1"
       id="path698"
       clip-path="url(#clipPath694)"
       transform="matrix(0.03527769,0,0,-0.03527769,-213.03618,98.765602)" />
    <path
       d="m 1925.53,1898.77 c 0,-126.5 -120.64,-229.05 -269.47,-229.05 -148.82,0 -269.46,102.55 -269.46,229.05 0,126.5 120.64,229.05 269.46,229.05 148.83,0 269.47,-102.55 269.47,-229.05 z"
       style="fill:none;stroke:#9c9a9b;stroke-width:4;stroke-linecap:butt;stroke-linejoin:miter;stroke-miterlimit:10;stroke-dasharray:none;stroke-opacity:1"
       id="path700"
       clip-path="url(#clipPath694)"
       transform="matrix(0.03527769,0,0,-0.03527769,-213.03618,98.765602)" />
    <path
       d="m -167.23233,26.792764 c 0,0.656518 0.54045,1.197325 1.19732,1.197325 0.65617,0 1.19627,-0.540807 1.19627,-1.197325 0,-0.656517 -0.5401,-1.196266 -1.19627,-1.196266 -0.65687,0 -1.19732,0.539749 -1.19732,1.196266 m 1.19732,-1.084789 c 0.59761,0 1.08479,0.487185 1.08479,1.084789 0,0.596193 -0.48895,1.084789 -1.08479,1.084789 -0.59654,0 -1.08585,-0.488596 -1.08585,-1.084789 0,-0.597604 0.48684,-1.084789 1.08585,-1.084789 m 0.28575,1.39735 0.14217,0.414513 h 0.2092 l -0.51435,-1.420633 h -0.21908 l -0.53339,1.420633 h 0.19861 l 0.14887,-0.414513 z m -0.51011,-0.170391 0.22824,-0.624063 h 0.005 l 0.2092,0.624063"
       style="fill:#231f20;fill-opacity:1;fill-rule:nonzero;stroke:none;stroke-width:0.0352777"
       id="path702" />
    <path
       d="m -144.42989,26.79347 c 0,0.656518 0.54045,1.196619 1.19697,1.196619 0.65687,0 1.19662,-0.540101 1.19662,-1.196619 0,-0.656518 -0.53975,-1.197325 -1.19662,-1.197325 -0.65652,0 -1.19697,0.540807 -1.19697,1.197325 m 1.19697,-1.092197 c 0.59866,0 1.08514,0.493535 1.08514,1.092197 0,0.596193 -0.48895,1.084789 -1.08514,1.084789 -0.59584,0 -1.08479,-0.488596 -1.08479,-1.084789 0,-0.598662 0.48648,-1.092197 1.08479,-1.092197 m -0.24447,1.184977 h 0.37958 c 0.15593,0 0.33091,0.03951 0.33091,0.239536 0,0.158749 -0.10019,0.258938 -0.30092,0.258938 h -0.40957 z m -0.19086,0.663926 h 0.61242 c 0.31433,0 0.4819,-0.191205 0.4819,-0.419099 0,-0.244827 -0.16546,-0.309385 -0.25859,-0.347485 0.15875,-0.07197 0.19121,-0.202494 0.19121,-0.295274 0,-0.195791 -0.13723,-0.358774 -0.40252,-0.358774 h -0.62442 z m 0.19086,-1.257649 h 0.34924 c 0.21449,0 0.29563,0.07691 0.29563,0.209902 0,0.172155 -0.11395,0.228247 -0.29774,0.228247 h -0.34713"
       style="fill:#231f20;fill-opacity:1;fill-rule:nonzero;stroke:none;stroke-width:0.0352777"
       id="path704" />
    <path
       d="m -167.23233,36.768942 c 0,0.657224 0.54045,1.197325 1.19732,1.197325 0.65617,0 1.19627,-0.540101 1.19627,-1.197325 0,-0.656517 -0.5401,-1.196619 -1.19627,-1.196619 -0.65687,0 -1.19732,0.540102 -1.19732,1.196619 m 1.8048,-0.251177 c -0.0282,-0.237419 -0.21907,-0.463196 -0.58455,-0.463196 -0.41416,0 -0.66392,0.302683 -0.66392,0.738362 0,0.546452 0.31679,0.756354 0.64099,0.756354 0.10619,0 0.54222,-0.02293 0.62159,-0.558799 h -0.18697 c -0.0653,0.330552 -0.28116,0.388408 -0.40498,0.388408 -0.35384,0 -0.47202,-0.255411 -0.47202,-0.590902 0,-0.374649 0.20884,-0.563032 0.46531,-0.563032 0.13723,0 0.34502,0.04374 0.39758,0.292805 z m -0.60748,-0.833612 c 0.59761,0 1.08479,0.486833 1.08479,1.084789 0,0.596193 -0.48895,1.085495 -1.08479,1.085495 -0.59654,0 -1.08585,-0.489302 -1.08585,-1.085495 0,-0.597956 0.48684,-1.084789 1.08585,-1.084789"
       style="fill:#231f20;fill-opacity:1;fill-rule:nonzero;stroke:none;stroke-width:0.0352777"
       id="path706" />
    <path
       d="m -144.43236,36.768942 c 0,0.657224 0.53975,1.197325 1.19662,1.197325 0.65687,0 1.19662,-0.540101 1.19662,-1.197325 0,-0.656517 -0.53975,-1.196619 -1.19662,-1.196619 -0.65687,0 -1.19662,0.540102 -1.19662,1.196619 m 1.19662,-1.091491 c 0.59866,0 1.08514,0.493535 1.08514,1.091491 0,0.596193 -0.4893,1.085495 -1.08514,1.085495 -0.59584,0 -1.08514,-0.489302 -1.08514,-1.085495 0,-0.597956 0.48683,-1.091491 1.08514,-1.091491 m -0.48401,1.843964 h 0.56797 c 0.46566,0 0.60572,-0.412043 0.60572,-0.730953 0,-0.41028 -0.2286,-0.689679 -0.59902,-0.689679 h -0.57467 z m 0.19085,-1.257649 h 0.35842 c 0.2607,0 0.42616,0.18168 0.42616,0.538337 0,0.358775 -0.16299,0.55386 -0.4124,0.55386 h -0.37218"
       style="fill:#231f20;fill-opacity:1;fill-rule:nonzero;stroke:none;stroke-width:0.0352777"
       id="path708" />
    <path
       d="m -148.81561,31.723174 c 0,-3.197217 -2.5908,-5.790127 -5.78378,-5.790127 -3.19792,0 -5.79507,2.59291 -5.79507,5.790127 0,3.198981 2.59715,5.791186 5.79507,5.791186 3.19298,0 5.78378,-2.592205 5.78378,-5.791186 z"
       style="fill:none;stroke:#9c9a9b;stroke-width:0.141111;stroke-linecap:round;stroke-linejoin:round;stroke-miterlimit:10;stroke-dasharray:none;stroke-opacity:1"
       id="path710" />
    <path
       d="m -154.30659,30.454236 h 0.50547 V 29.63155 h -0.50547 z"
       style="fill:#7b7979;fill-opacity:1;fill-rule:nonzero;stroke:none;stroke-width:0.0352777"
       id="path712" />
    <path
       d="m -154.86644,30.454236 h 0.50629 V 29.63155 h -0.50629 z"
       style="fill:#7b7979;fill-opacity:1;fill-rule:nonzero;stroke:none;stroke-width:0.0352777"
       id="path714" />
    <path
       d="m -155.42524,30.454236 h 0.50518 V 29.63155 h -0.50518 z"
       style="fill:#7b7979;fill-opacity:1;fill-rule:nonzero;stroke:none;stroke-width:0.0352777"
       id="path716" />
    <path
       d="m -155.9851,30.454236 h 0.5056 V 29.63155 h -0.5056 z"
       style="fill:#7b7979;fill-opacity:1;fill-rule:nonzero;stroke:none;stroke-width:0.0352777"
       id="path718" />
    <path
       d="m -153.74744,31.331592 h 0.50519 v -0.822686 h -0.50519 z"
       style="fill:#7b7979;fill-opacity:1;fill-rule:nonzero;stroke:none;stroke-width:0.0352777"
       id="path720" />
    <path
       d="m -155.9851,31.331592 h 0.5056 v -0.822686 h -0.5056 z"
       style="fill:#7b7979;fill-opacity:1;fill-rule:nonzero;stroke:none;stroke-width:0.0352777"
       id="path722" />
    <path
       d="m -157.66255,31.331592 h 0.50518 v -0.822686 h -0.50518 z"
       style="fill:#7b7979;fill-opacity:1;fill-rule:nonzero;stroke:none;stroke-width:0.0352777"
       id="path724" />
    <path
       d="m -158.22171,31.331592 h 0.50547 v -0.822686 h -0.50547 z"
       style="fill:#7b7979;fill-opacity:1;fill-rule:nonzero;stroke:none;stroke-width:0.0352777"
       id="path726" />
    <path
       d="m -158.78474,31.331592 h 0.50698 v -0.822686 h -0.50698 z"
       style="fill:#7b7979;fill-opacity:1;fill-rule:nonzero;stroke:none;stroke-width:0.0352777"
       id="path728" />
    <path
       d="m -159.34354,31.331592 h 0.50519 v -0.822686 h -0.50519 z"
       style="fill:#7b7979;fill-opacity:1;fill-rule:nonzero;stroke:none;stroke-width:0.0352777"
       id="path730" />
    <path
       d="m -154.30659,32.207184 h 0.50547 v -0.821998 h -0.50547 z"
       style="fill:#7b7979;fill-opacity:1;fill-rule:nonzero;stroke:none;stroke-width:0.0352777"
       id="path732" />
    <path
       d="m -154.86644,32.207184 h 0.50629 v -0.821998 h -0.50629 z"
       style="fill:#7b7979;fill-opacity:1;fill-rule:nonzero;stroke:none;stroke-width:0.0352777"
       id="path734" />
    <path
       d="m -155.42524,32.207184 h 0.50518 v -0.821998 h -0.50518 z"
       style="fill:#7b7979;fill-opacity:1;fill-rule:nonzero;stroke:none;stroke-width:0.0352777"
       id="path736" />
    <path
       d="m -155.9851,32.207184 h 0.5056 v -0.821998 h -0.5056 z"
       style="fill:#7b7979;fill-opacity:1;fill-rule:nonzero;stroke:none;stroke-width:0.0352777"
       id="path738" />
    <path
       d="m -157.1027,32.207184 h 0.50519 v -0.821998 h -0.50519 z"
       style="fill:#7b7979;fill-opacity:1;fill-rule:nonzero;stroke:none;stroke-width:0.0352777"
       id="path740" />
    <path
       d="m -157.66255,32.207184 h 0.50518 v -0.821998 h -0.50518 z"
       style="fill:#7b7979;fill-opacity:1;fill-rule:nonzero;stroke:none;stroke-width:0.0352777"
       id="path742" />
    <path
       d="m -158.22171,32.207184 h 0.50547 v -0.821998 h -0.50547 z"
       style="fill:#7b7979;fill-opacity:1;fill-rule:nonzero;stroke:none;stroke-width:0.0352777"
       id="path744" />
    <path
       d="m -158.78474,32.207184 h 0.50698 v -0.821998 h -0.50698 z"
       style="fill:#7b7979;fill-opacity:1;fill-rule:nonzero;stroke:none;stroke-width:0.0352777"
       id="path746" />
    <path
       d="m -159.34354,32.207184 h 0.50519 v -0.821998 h -0.50519 z"
       style="fill:#7b7979;fill-opacity:1;fill-rule:nonzero;stroke:none;stroke-width:0.0352777"
       id="path748" />
    <path
       d="m -154.30659,33.08454 h 0.50547 v -0.822686 h -0.50547 z"
       style="fill:#7b7979;fill-opacity:1;fill-rule:nonzero;stroke:none;stroke-width:0.0352777"
       id="path750" />
    <path
       d="m -155.9851,33.08454 h 0.5056 v -0.822686 h -0.5056 z"
       style="fill:#7b7979;fill-opacity:1;fill-rule:nonzero;stroke:none;stroke-width:0.0352777"
       id="path752" />
    <path
       d="m -157.66255,33.08454 h 0.50518 v -0.822686 h -0.50518 z"
       style="fill:#7b7979;fill-opacity:1;fill-rule:nonzero;stroke:none;stroke-width:0.0352777"
       id="path754" />
    <path
       d="m -158.22171,33.08454 h 0.50547 v -0.822686 h -0.50547 z"
       style="fill:#7b7979;fill-opacity:1;fill-rule:nonzero;stroke:none;stroke-width:0.0352777"
       id="path756" />
    <path
       d="m -158.78474,33.08454 h 0.50698 v -0.822686 h -0.50698 z"
       style="fill:#7b7979;fill-opacity:1;fill-rule:nonzero;stroke:none;stroke-width:0.0352777"
       id="path758" />
    <path
       d="m -159.34354,33.08454 h 0.50519 v -0.822686 h -0.50519 z"
       style="fill:#7b7979;fill-opacity:1;fill-rule:nonzero;stroke:none;stroke-width:0.0352777"
       id="path760" />
    <path
       d="m -153.74744,33.960838 h 0.50519 V 33.13884 h -0.50519 z"
       style="fill:#7b7979;fill-opacity:1;fill-rule:nonzero;stroke:none;stroke-width:0.0352777"
       id="path762" />
    <path
       d="m -155.9851,33.960838 h 0.5056 V 33.13884 h -0.5056 z"
       style="fill:#7b7979;fill-opacity:1;fill-rule:nonzero;stroke:none;stroke-width:0.0352777"
       id="path764" />
    <path
       d="m -151.44204,31.771505 c 0,1.967437 -2.11948,3.563046 -4.73426,3.563046 -2.61479,0 -4.73427,-1.595609 -4.73427,-3.563046 0,-1.967437 2.11948,-3.563047 4.73427,-3.563047 2.61478,0 4.73426,1.59561 4.73426,3.563047 z"
       style="fill:none;stroke:#ffffff;stroke-width:1.5875;stroke-linecap:butt;stroke-linejoin:miter;stroke-miterlimit:4;stroke-dasharray:0.423332, 0.772581;stroke-dashoffset:0;stroke-opacity:1"
       id="path766" />
    <path
       d="m -151.44204,31.771505 c 0,1.967437 -2.11948,3.563046 -4.73426,3.563046 -2.61479,0 -4.73427,-1.595609 -4.73427,-3.563046 0,-1.967437 2.11948,-3.563047 4.73427,-3.563047 2.61478,0 4.73426,1.59561 4.73426,3.563047 z"
       style="fill:none;stroke:#231f20;stroke-width:1.41111;stroke-linecap:butt;stroke-linejoin:miter;stroke-miterlimit:4;stroke-dasharray:0.176388, 1.02305;stroke-dashoffset:0;stroke-opacity:1"
       id="path768" />
    <path
       d="m -152.59597,31.877691 h 3.01871 v 7.603047"
       style="fill:none;stroke:#ffffff;stroke-width:0.423332;stroke-linecap:round;stroke-linejoin:round;stroke-miterlimit:4;stroke-dasharray:none;stroke-opacity:1"
       id="path788" />
    <path
       d="m -152.59597,31.877691 h 3.01871 v 7.603047"
       style="fill:none;stroke:#231f20;stroke-width:0.0881942;stroke-linecap:butt;stroke-linejoin:miter;stroke-miterlimit:4;stroke-dasharray:none;stroke-opacity:1"
       id="path790" />
  </g>
</svg>
