<?xml version="1.0" encoding="UTF-8" standalone="no"?>
<!-- Created with Inkscape (http://www.inkscape.org/) -->

<svg
   width="14.845804mm"
   height="13.87144mm"
   viewBox="0 0 14.845804 13.87144"
   version="1.1"
   id="svg916"
   inkscape:version="1.2.2 (b0a8486541, 2022-12-01)"
   sodipodi:docname="r_p_blink_page49.svg"
   xmlns:inkscape="http://www.inkscape.org/namespaces/inkscape"
   xmlns:sodipodi="http://sodipodi.sourceforge.net/DTD/sodipodi-0.dtd"
   xmlns="http://www.w3.org/2000/svg"
   xmlns:svg="http://www.w3.org/2000/svg">
  <sodipodi:namedview
     id="namedview918"
     pagecolor="#ffffff"
     bordercolor="#666666"
     borderopacity="1.0"
     inkscape:showpageshadow="2"
     inkscape:pageopacity="0.0"
     inkscape:pagecheckerboard="0"
     inkscape:deskcolor="#d1d1d1"
     inkscape:document-units="mm"
     showgrid="false"
     inkscape:zoom="0.44542649"
     inkscape:cx="1084.354"
     inkscape:cy="482.68346"
     inkscape:window-width="1366"
     inkscape:window-height="685"
     inkscape:window-x="0"
     inkscape:window-y="27"
     inkscape:window-maximized="1"
     inkscape:current-layer="layer1" />
  <defs
     id="defs913">
    <clipPath
       clipPathUnits="userSpaceOnUse"
       id="clipPath998">
      <path
         d="m 2182.68,1817.88 h 510.242 v 340.152 H 2182.68 Z"
         id="path996" />
    </clipPath>
  </defs>
  <g
     inkscape:label="Layer 1"
     inkscape:groupmode="layer"
     id="layer1"
     transform="translate(182.0589,-20.982279)">
    <text
       xml:space="preserve"
       transform="scale(1,-1)"
       style="font-variant:normal;font-weight:normal;font-size:0.0352777px;font-family:Arial;-inkscape-font-specification:Arial;writing-mode:lr-tb;fill:#231f20;fill-opacity:1;fill-rule:nonzero;stroke:none;stroke-width:0.352777"
       id="text986"
       x="-182.06119"
       y="-20.982779"><tspan
         x="-182.06119 -179.62703"
         y="-20.982779"
         sodipodi:role="line"
         id="tspan984"
         style="stroke-width:0.352777">★✣</tspan></text>
    <text
       xml:space="preserve"
       transform="scale(1,-1)"
       style="font-variant:normal;font-weight:normal;font-size:0.0352777px;font-family:Arial;-inkscape-font-specification:Arial;writing-mode:lr-tb;fill:#231f20;fill-opacity:1;fill-rule:nonzero;stroke:none;stroke-width:0.352777"
       id="text990"
       x="-177.15767"
       y="-20.982779"><tspan
         x="-177.15767 -174.68823"
         y="-20.982779"
         sodipodi:role="line"
         id="tspan988"
         style="stroke-width:0.352777">✯✵</tspan></text>
    <path
       d="m 2601.9,1987.97 c 0,90.63 -73.44,164.13 -163.95,164.13 -90.65,0 -164.27,-73.5 -164.27,-164.13 0,-90.68 73.62,-164.16 164.27,-164.16 90.51,0 163.95,73.48 163.95,164.16 z"
       style="fill:none;stroke:#9c9a9b;stroke-width:4;stroke-linecap:round;stroke-linejoin:round;stroke-miterlimit:10;stroke-dasharray:none;stroke-opacity:1"
       id="path1000"
       clip-path="url(#clipPath998)"
       transform="matrix(0.03527769,0,0,-0.03527769,-259.07267,99.122967)" />
    <path
       d="m -172.77462,27.722686 h 0.50546 V 26.9 h -0.50546 z"
       style="fill:#7b7979;fill-opacity:1;fill-rule:nonzero;stroke:none;stroke-width:0.0352777"
       id="path1002" />
    <path
       d="m -173.33448,27.722686 h 0.50629 V 26.9 h -0.50629 z"
       style="fill:#7b7979;fill-opacity:1;fill-rule:nonzero;stroke:none;stroke-width:0.0352777"
       id="path1004" />
    <path
       d="m -173.89328,27.722686 h 0.50519 V 26.9 h -0.50519 z"
       style="fill:#7b7979;fill-opacity:1;fill-rule:nonzero;stroke:none;stroke-width:0.0352777"
       id="path1006" />
    <path
       d="m -174.45313,27.722686 h 0.50532 V 26.9 h -0.50532 z"
       style="fill:#7b7979;fill-opacity:1;fill-rule:nonzero;stroke:none;stroke-width:0.0352777"
       id="path1008" />
    <path
       d="m -172.21547,28.600042 h 0.50519 v -0.822548 h -0.50519 z"
       style="fill:#7b7979;fill-opacity:1;fill-rule:nonzero;stroke:none;stroke-width:0.0352777"
       id="path1010" />
    <path
       d="m -174.45313,28.600042 h 0.50532 v -0.822548 h -0.50532 z"
       style="fill:#7b7979;fill-opacity:1;fill-rule:nonzero;stroke:none;stroke-width:0.0352777"
       id="path1012" />
    <path
       d="m -176.13059,28.600042 h 0.50519 v -0.822548 h -0.50519 z"
       style="fill:#7b7979;fill-opacity:1;fill-rule:nonzero;stroke:none;stroke-width:0.0352777"
       id="path1014" />
    <path
       d="m -176.68974,28.600042 h 0.5056 v -0.822548 h -0.5056 z"
       style="fill:#7b7979;fill-opacity:1;fill-rule:nonzero;stroke:none;stroke-width:0.0352777"
       id="path1016" />
    <path
       d="m -177.25277,28.600042 h 0.50698 v -0.822548 h -0.50698 z"
       style="fill:#7b7979;fill-opacity:1;fill-rule:nonzero;stroke:none;stroke-width:0.0352777"
       id="path1018" />
    <path
       d="m -177.81157,28.600042 h 0.50519 v -0.822548 h -0.50519 z"
       style="fill:#7b7979;fill-opacity:1;fill-rule:nonzero;stroke:none;stroke-width:0.0352777"
       id="path1020" />
    <path
       d="m -172.77462,29.475635 h 0.50546 v -0.821861 h -0.50546 z"
       style="fill:#7b7979;fill-opacity:1;fill-rule:nonzero;stroke:none;stroke-width:0.0352777"
       id="path1022" />
    <path
       d="m -173.33448,29.475635 h 0.50629 v -0.821861 h -0.50629 z"
       style="fill:#7b7979;fill-opacity:1;fill-rule:nonzero;stroke:none;stroke-width:0.0352777"
       id="path1024" />
    <path
       d="m -173.89328,29.475635 h 0.50519 v -0.821861 h -0.50519 z"
       style="fill:#7b7979;fill-opacity:1;fill-rule:nonzero;stroke:none;stroke-width:0.0352777"
       id="path1026" />
    <path
       d="m -174.45313,29.475635 h 0.50532 v -0.821861 h -0.50532 z"
       style="fill:#7b7979;fill-opacity:1;fill-rule:nonzero;stroke:none;stroke-width:0.0352777"
       id="path1028" />
    <path
       d="m -175.57073,29.475635 h 0.50519 v -0.821861 h -0.50519 z"
       style="fill:#7b7979;fill-opacity:1;fill-rule:nonzero;stroke:none;stroke-width:0.0352777"
       id="path1030" />
    <path
       d="m -176.13059,29.475635 h 0.50519 v -0.821861 h -0.50519 z"
       style="fill:#7b7979;fill-opacity:1;fill-rule:nonzero;stroke:none;stroke-width:0.0352777"
       id="path1032" />
    <path
       d="m -176.68974,29.475635 h 0.5056 v -0.821861 h -0.5056 z"
       style="fill:#7b7979;fill-opacity:1;fill-rule:nonzero;stroke:none;stroke-width:0.0352777"
       id="path1034" />
    <path
       d="m -177.25277,29.475635 h 0.50698 v -0.821861 h -0.50698 z"
       style="fill:#7b7979;fill-opacity:1;fill-rule:nonzero;stroke:none;stroke-width:0.0352777"
       id="path1036" />
    <path
       d="m -177.81157,29.475635 h 0.50519 v -0.821861 h -0.50519 z"
       style="fill:#7b7979;fill-opacity:1;fill-rule:nonzero;stroke:none;stroke-width:0.0352777"
       id="path1038" />
    <path
       d="m -172.77462,30.352991 h 0.50546 v -0.822686 h -0.50546 z"
       style="fill:#7b7979;fill-opacity:1;fill-rule:nonzero;stroke:none;stroke-width:0.0352777"
       id="path1040" />
    <path
       d="m -174.45313,30.352991 h 0.50532 v -0.822686 h -0.50532 z"
       style="fill:#7b7979;fill-opacity:1;fill-rule:nonzero;stroke:none;stroke-width:0.0352777"
       id="path1042" />
    <path
       d="m -176.13059,30.352991 h 0.50519 v -0.822686 h -0.50519 z"
       style="fill:#7b7979;fill-opacity:1;fill-rule:nonzero;stroke:none;stroke-width:0.0352777"
       id="path1044" />
    <path
       d="m -176.68974,30.352991 h 0.5056 v -0.822686 h -0.5056 z"
       style="fill:#7b7979;fill-opacity:1;fill-rule:nonzero;stroke:none;stroke-width:0.0352777"
       id="path1046" />
    <path
       d="m -177.25277,30.352991 h 0.50698 v -0.822686 h -0.50698 z"
       style="fill:#7b7979;fill-opacity:1;fill-rule:nonzero;stroke:none;stroke-width:0.0352777"
       id="path1048" />
    <path
       d="m -177.81157,30.352991 h 0.50519 v -0.822686 h -0.50519 z"
       style="fill:#7b7979;fill-opacity:1;fill-rule:nonzero;stroke:none;stroke-width:0.0352777"
       id="path1050" />
    <path
       d="m -172.21547,31.229289 h 0.50519 V 30.40729 h -0.50519 z"
       style="fill:#7b7979;fill-opacity:1;fill-rule:nonzero;stroke:none;stroke-width:0.0352777"
       id="path1052" />
    <path
       d="m -174.45313,31.229289 h 0.50532 V 30.40729 h -0.50532 z"
       style="fill:#7b7979;fill-opacity:1;fill-rule:nonzero;stroke:none;stroke-width:0.0352777"
       id="path1054" />
    <path
       d="m -169.91043,29.039955 c 0,1.96779 -2.11948,3.563047 -4.73426,3.563047 -2.61478,0 -4.73427,-1.595257 -4.73427,-3.563047 0,-1.967437 2.11949,-3.562694 4.73427,-3.562694 2.61478,0 4.73426,1.595257 4.73426,3.562694 z"
       style="fill:none;stroke:#ffffff;stroke-width:1.5875;stroke-linecap:butt;stroke-linejoin:miter;stroke-miterlimit:4;stroke-dasharray:0.423332, 0.772581;stroke-dashoffset:0;stroke-opacity:1"
       id="path1056" />
    <path
       d="m -169.91043,29.039955 c 0,1.96779 -2.11948,3.563047 -4.73426,3.563047 -2.61478,0 -4.73427,-1.595257 -4.73427,-3.563047 0,-1.967437 2.11949,-3.562694 4.73427,-3.562694 2.61478,0 4.73426,1.595257 4.73426,3.562694 z"
       style="fill:none;stroke:#231f20;stroke-width:1.41111;stroke-linecap:butt;stroke-linejoin:miter;stroke-miterlimit:4;stroke-dasharray:0.176388, 1.02305;stroke-dashoffset:0;stroke-opacity:1"
       id="path1058" />
  </g>
</svg>
