<?xml version="1.0" encoding="UTF-8" standalone="no"?>
<!-- Created with Inkscape (http://www.inkscape.org/) -->

<svg
   width="57.964535mm"
   height="16.08902mm"
   viewBox="0 0 57.964535 16.08902"
   version="1.1"
   id="svg558"
   inkscape:version="1.2.2 (b0a8486541, 2022-12-01)"
   sodipodi:docname="ring_of_on.svg"
   xmlns:inkscape="http://www.inkscape.org/namespaces/inkscape"
   xmlns:sodipodi="http://sodipodi.sourceforge.net/DTD/sodipodi-0.dtd"
   xmlns="http://www.w3.org/2000/svg"
   xmlns:svg="http://www.w3.org/2000/svg">
  <sodipodi:namedview
     id="namedview560"
     pagecolor="#ffffff"
     bordercolor="#666666"
     borderopacity="1.0"
     inkscape:showpageshadow="2"
     inkscape:pageopacity="0.0"
     inkscape:pagecheckerboard="0"
     inkscape:deskcolor="#d1d1d1"
     inkscape:document-units="mm"
     showgrid="false"
     inkscape:zoom="0.44542649"
     inkscape:cx="1171.9106"
     inkscape:cy="505.13386"
     inkscape:window-width="1366"
     inkscape:window-height="685"
     inkscape:window-x="0"
     inkscape:window-y="27"
     inkscape:window-maximized="1"
     inkscape:current-layer="layer1" />
  <defs
     id="defs555">
    <clipPath
       clipPathUnits="userSpaceOnUse"
       id="clipPath478">
      <path
         d="M 283.98,1031.95 H 998.3 v 357.172 H 283.98 Z"
         id="path476" />
    </clipPath>
    <clipPath
       clipPathUnits="userSpaceOnUse"
       id="clipPath437">
      <path
         d="M 283.98,1031.95 H 998.3 v 357.172 H 283.98 Z"
         id="path435" />
    </clipPath>
    <clipPath
       clipPathUnits="userSpaceOnUse"
       id="clipPath441">
      <path
         d="M 283.98,1031.95 H 998.3 v 357.172 H 283.98 Z"
         id="path439" />
    </clipPath>
    <clipPath
       clipPathUnits="userSpaceOnUse"
       id="clipPath574">
      <path
         d="m 1269.94,1031.95 h 714.309 v 357.172 H 1269.94 Z"
         id="path572" />
    </clipPath>
    <clipPath
       clipPathUnits="userSpaceOnUse"
       id="clipPath447">
      <path
         d="m 1269.94,1031.95 h 714.309 v 357.172 H 1269.94 Z"
         id="path445" />
    </clipPath>
    <clipPath
       clipPathUnits="userSpaceOnUse"
       id="clipPath451">
      <path
         d="m 1269.94,1031.95 h 714.309 v 357.172 H 1269.94 Z"
         id="path449" />
    </clipPath>
  </defs>
  <g
     inkscape:label="Layer 1"
     inkscape:groupmode="layer"
     id="layer1"
     transform="translate(204.80627,-15.12149)">
    <path
       d="m -199.41058,18.982557 -0.43283,-0.19438 c 0,0 -0.35884,-0.173566 -0.66008,0.06103 -0.24807,0.192616 -0.69356,0.507999 -1.4213,1.660874 -0.71508,1.157461 -0.77269,1.648174 -0.82133,1.931101 -0.0595,0.343252 0.31005,0.498826 0.31005,0.498826 l 0.43215,0.19438"
       style="fill:#9c9a9b;fill-opacity:1;fill-rule:nonzero;stroke:none;stroke-width:0.0352777"
       id="path464" />
    <path
       d="m -184.96504,18.982557 0.43282,-0.19438 c 0,0 0.35871,-0.173566 0.66008,0.06103 0.24765,0.192616 0.69356,0.507999 1.42088,1.660874 0.7155,1.157461 0.77297,1.648174 0.82134,1.931101 0.0597,0.343252 -0.31006,0.498826 -0.31006,0.498826 l -0.4319,0.19438"
       style="fill:#9c9a9b;fill-opacity:1;fill-rule:nonzero;stroke:none;stroke-width:0.0352777"
       id="path466" />
    <path
       d="m -199.41058,30.837977 -0.43283,0.194733 c 0,0 -0.35884,0.173566 -0.66008,-0.06103 -0.24807,-0.192616 -0.69356,-0.508352 -1.4213,-1.660874 -0.71508,-1.157814 -0.77269,-1.648173 -0.82133,-1.931453 -0.0595,-0.342899 0.31005,-0.498474 0.31005,-0.498474 l 0.43215,-0.19438"
       style="fill:#9c9a9b;fill-opacity:1;fill-rule:nonzero;stroke:none;stroke-width:0.0352777"
       id="path468" />
    <path
       d="m -184.96504,30.837977 0.43282,0.194733 c 0,0 0.35871,0.173566 0.66008,-0.06103 0.24765,-0.192616 0.69356,-0.508352 1.42088,-1.660874 0.7155,-1.157814 0.77297,-1.648173 0.82134,-1.931453 0.0597,-0.342899 -0.31006,-0.498474 -0.31006,-0.498474 l -0.4319,-0.19438"
       style="fill:#9c9a9b;fill-opacity:1;fill-rule:nonzero;stroke:none;stroke-width:0.0352777"
       id="path470" />
    <path
       d="m 934.09,1210.53 c 0,-137.51 -131.149,-248.991 -292.949,-248.991 -161.782,0 -292.93,111.481 -292.93,248.991 0,137.51 131.148,249 292.93,249 161.8,0 292.949,-111.49 292.949,-249"
       style="fill:#ffffff;fill-opacity:1;fill-rule:nonzero;stroke:none"
       id="path480"
       clip-path="url(#clipPath478)"
       transform="matrix(0.03527769,0,0,-0.03527769,-214.80612,67.615322)" />
    <path
       d="m 934.09,1210.53 c 0,-137.51 -131.149,-248.991 -292.949,-248.991 -161.782,0 -292.93,111.481 -292.93,248.991 0,137.51 131.148,249 292.93,249 161.8,0 292.949,-111.49 292.949,-249 z"
       style="fill:none;stroke:#9c9a9b;stroke-width:6;stroke-linecap:butt;stroke-linejoin:miter;stroke-miterlimit:10;stroke-dasharray:none;stroke-opacity:1"
       id="path482"
       clip-path="url(#clipPath478)"
       transform="matrix(0.03527769,0,0,-0.03527769,-214.80612,67.615322)" />
    <path
       d="m 910.609,1210.53 c 0,-126.5 -120.64,-229.05 -269.468,-229.05 -148.821,0 -269.461,102.55 -269.461,229.05 0,126.5 120.64,229.05 269.461,229.05 148.828,0 269.468,-102.55 269.468,-229.05 z"
       style="fill:none;stroke:#9c9a9b;stroke-width:4;stroke-linecap:butt;stroke-linejoin:miter;stroke-miterlimit:10;stroke-dasharray:none;stroke-opacity:1"
       id="path484"
       clip-path="url(#clipPath478)"
       transform="matrix(0.03527769,0,0,-0.03527769,-214.80612,67.615322)" />
    <path
       d="m -204.80627,19.922002 c 0,0.656518 0.54045,1.197325 1.19722,1.197325 0.65623,0 1.1963,-0.540807 1.1963,-1.197325 0,-0.656518 -0.54007,-1.196267 -1.1963,-1.196267 -0.65677,0 -1.19722,0.539749 -1.19722,1.196267 m 1.19722,-1.084789 c 0.59767,0 1.08479,0.487185 1.08479,1.084789 0,0.596193 -0.48892,1.084789 -1.08479,1.084789 -0.59655,0 -1.08574,-0.488596 -1.08574,-1.084789 0,-0.597604 0.48686,-1.084789 1.08574,-1.084789 m 0.28582,1.397349 0.1422,0.414513 h 0.2092 l -0.51442,-1.420633 h -0.21897 l -0.53343,1.420633 h 0.19858 l 0.1488,-0.414513 z m -0.51015,-0.170391 0.22835,-0.624062 h 0.005 l 0.20919,0.624062"
       style="fill:#231f20;fill-opacity:1;fill-rule:nonzero;stroke:none;stroke-width:0.0352777"
       id="path486" />
    <path
       d="m -182.00394,19.922707 c 0,0.656518 0.54046,1.19662 1.19712,1.19662 0.65676,0 1.19655,-0.540102 1.19655,-1.19662 0,-0.656517 -0.53979,-1.197324 -1.19655,-1.197324 -0.65666,0 -1.19712,0.540807 -1.19712,1.197324 m 1.19712,-1.092197 c 0.59859,0 1.08507,0.493535 1.08507,1.092197 0,0.596193 -0.48895,1.084789 -1.08507,1.084789 -0.59588,0 -1.08479,-0.488596 -1.08479,-1.084789 0,-0.598662 0.48644,-1.092197 1.08479,-1.092197 m -0.24462,1.184978 h 0.37966 c 0.156,0 0.33087,0.03951 0.33087,0.239535 0,0.15875 -0.10019,0.258938 -0.30085,0.258938 h -0.40968 z m -0.19071,0.663926 h 0.61239 c 0.31432,0 0.48189,-0.191205 0.48189,-0.419099 0,-0.244827 -0.16549,-0.309386 -0.25866,-0.347485 0.15875,-0.07197 0.19128,-0.202494 0.19128,-0.295275 0,-0.195791 -0.13723,-0.358774 -0.40252,-0.358774 h -0.62438 z m 0.19071,-1.25765 h 0.34932 c 0.21445,0 0.29559,0.07691 0.29559,0.209902 0,0.172156 -0.11394,0.228247 -0.29763,0.228247 h -0.34728"
       style="fill:#231f20;fill-opacity:1;fill-rule:nonzero;stroke:none;stroke-width:0.0352777"
       id="path488" />
    <path
       d="m -204.80627,29.89818 c 0,0.657223 0.54045,1.197325 1.19722,1.197325 0.65623,0 1.1963,-0.540102 1.1963,-1.197325 0,-0.656518 -0.54007,-1.19662 -1.1963,-1.19662 -0.65677,0 -1.19722,0.540102 -1.19722,1.19662 m 1.80481,-0.251177 c -0.0283,-0.237419 -0.21911,-0.463196 -0.58456,-0.463196 -0.41423,0 -0.66396,0.302682 -0.66396,0.738362 0,0.546451 0.31683,0.756353 0.64093,0.756353 0.10625,0 0.54229,-0.02293 0.62166,-0.558798 h -0.18701 c -0.0652,0.330552 -0.28112,0.388407 -0.40502,0.388407 -0.35373,0 -0.47198,-0.25541 -0.47198,-0.590901 0,-0.374649 0.20892,-0.563032 0.46538,-0.563032 0.13723,0 0.34491,0.04374 0.39755,0.292805 z m -0.60759,-0.833612 c 0.59767,0 1.08479,0.486832 1.08479,1.084789 0,0.596193 -0.48892,1.085494 -1.08479,1.085494 -0.59655,0 -1.08574,-0.489301 -1.08574,-1.085494 0,-0.597957 0.48686,-1.084789 1.08574,-1.084789"
       style="fill:#231f20;fill-opacity:1;fill-rule:nonzero;stroke:none;stroke-width:0.0352777"
       id="path490" />
    <path
       d="m -182.00626,29.89818 c 0,0.657223 0.53964,1.197325 1.19654,1.197325 0.65691,0 1.19669,-0.540102 1.19669,-1.197325 0,-0.656518 -0.53978,-1.19662 -1.19669,-1.19662 -0.6569,0 -1.19654,0.540102 -1.19654,1.19662 m 1.19654,-1.091492 c 0.5986,0 1.08518,0.493535 1.08518,1.091492 0,0.596193 -0.48934,1.085494 -1.08518,1.085494 -0.59587,0 -1.08507,-0.489301 -1.08507,-1.085494 0,-0.597957 0.48673,-1.091492 1.08507,-1.091492 m -0.48397,1.843965 h 0.5679 c 0.46577,0 0.60575,-0.412044 0.60575,-0.730954 0,-0.410279 -0.2286,-0.689679 -0.59901,-0.689679 h -0.57464 z m 0.19085,-1.25765 h 0.35842 c 0.26074,0 0.42609,0.18168 0.42609,0.538338 0,0.358774 -0.16302,0.553859 -0.41229,0.553859 h -0.37222"
       style="fill:#231f20;fill-opacity:1;fill-rule:nonzero;stroke:none;stroke-width:0.0352777"
       id="path492" />
    <path
       d="m -186.38924,24.852765 c 0,-3.197218 -2.59086,-5.790128 -5.78377,-5.790128 -3.19785,0 -5.79503,2.59291 -5.79503,5.790128 0,3.19898 2.59718,5.791185 5.79503,5.791185 3.19291,0 5.78377,-2.592205 5.78377,-5.791185 z"
       style="fill:none;stroke:#9c9a9b;stroke-width:0.141111;stroke-linecap:round;stroke-linejoin:round;stroke-miterlimit:10;stroke-dasharray:none;stroke-opacity:1"
       id="path494" />
    <path
       d="m -187.96654,23.583473 h 0.50519 v -0.822686 h -0.50519 z"
       style="fill:#231f20;fill-opacity:1;fill-rule:nonzero;stroke:none;stroke-width:0.0352777"
       id="path496" />
    <path
       d="m -188.52562,23.583473 h 0.50547 v -0.822686 h -0.50547 z"
       style="fill:#231f20;fill-opacity:1;fill-rule:nonzero;stroke:none;stroke-width:0.0352777"
       id="path498" />
    <path
       d="m -189.08413,23.583473 h 0.50518 v -0.822686 h -0.50518 z"
       style="fill:#231f20;fill-opacity:1;fill-rule:nonzero;stroke:none;stroke-width:0.0352777"
       id="path500" />
    <path
       d="m -189.64388,23.583473 h 0.50615 v -0.822686 h -0.50615 z"
       style="fill:#231f20;fill-opacity:1;fill-rule:nonzero;stroke:none;stroke-width:0.0352777"
       id="path502" />
    <path
       d="m -191.32109,23.583473 h 0.50519 v -0.822686 h -0.50519 z"
       style="fill:#231f20;fill-opacity:1;fill-rule:nonzero;stroke:none;stroke-width:0.0352777"
       id="path504" />
    <path
       d="m -191.88017,23.583473 h 0.50546 v -0.822686 h -0.50546 z"
       style="fill:#231f20;fill-opacity:1;fill-rule:nonzero;stroke:none;stroke-width:0.0352777"
       id="path506" />
    <path
       d="m -195.79571,23.583473 h 0.5056 v -0.822686 h -0.5056 z"
       style="fill:#231f20;fill-opacity:1;fill-rule:nonzero;stroke:none;stroke-width:0.0352777"
       id="path508" />
    <path
       d="m -189.64388,24.460829 h 0.50615 v -0.822686 h -0.50615 z"
       style="fill:#231f20;fill-opacity:1;fill-rule:nonzero;stroke:none;stroke-width:0.0352777"
       id="path510" />
    <path
       d="m -190.76258,24.460829 h 0.50519 v -0.822686 h -0.50519 z"
       style="fill:#231f20;fill-opacity:1;fill-rule:nonzero;stroke:none;stroke-width:0.0352777"
       id="path512" />
    <path
       d="m -192.44006,24.460829 h 0.50629 v -0.822686 h -0.50629 z"
       style="fill:#231f20;fill-opacity:1;fill-rule:nonzero;stroke:none;stroke-width:0.0352777"
       id="path514" />
    <path
       d="m -195.23624,24.460829 h 0.50518 v -0.822686 h -0.50518 z"
       style="fill:#231f20;fill-opacity:1;fill-rule:nonzero;stroke:none;stroke-width:0.0352777"
       id="path516" />
    <path
       d="m -195.79571,24.460829 h 0.5056 v -0.822686 h -0.5056 z"
       style="fill:#231f20;fill-opacity:1;fill-rule:nonzero;stroke:none;stroke-width:0.0352777"
       id="path518" />
    <path
       d="m -196.35836,24.460829 h 0.50698 v -0.822686 h -0.50698 z"
       style="fill:#231f20;fill-opacity:1;fill-rule:nonzero;stroke:none;stroke-width:0.0352777"
       id="path520" />
    <path
       d="m -188.52562,25.336422 h 0.50547 v -0.821999 h -0.50547 z"
       style="fill:#231f20;fill-opacity:1;fill-rule:nonzero;stroke:none;stroke-width:0.0352777"
       id="path522" />
    <path
       d="m -189.08413,25.336422 h 0.50518 v -0.821999 h -0.50518 z"
       style="fill:#231f20;fill-opacity:1;fill-rule:nonzero;stroke:none;stroke-width:0.0352777"
       id="path524" />
    <path
       d="m -189.64388,25.336422 h 0.50615 v -0.821999 h -0.50615 z"
       style="fill:#231f20;fill-opacity:1;fill-rule:nonzero;stroke:none;stroke-width:0.0352777"
       id="path526" />
    <path
       d="m -190.76258,25.336422 h 0.50519 v -0.821999 h -0.50519 z"
       style="fill:#231f20;fill-opacity:1;fill-rule:nonzero;stroke:none;stroke-width:0.0352777"
       id="path528" />
    <path
       d="m -192.44006,25.336422 h 0.50629 v -0.821999 h -0.50629 z"
       style="fill:#231f20;fill-opacity:1;fill-rule:nonzero;stroke:none;stroke-width:0.0352777"
       id="path530" />
    <path
       d="m -195.23624,25.336422 h 0.50518 v -0.821999 h -0.50518 z"
       style="fill:#231f20;fill-opacity:1;fill-rule:nonzero;stroke:none;stroke-width:0.0352777"
       id="path532" />
    <path
       d="m -196.35836,25.336422 h 0.50698 v -0.821999 h -0.50698 z"
       style="fill:#231f20;fill-opacity:1;fill-rule:nonzero;stroke:none;stroke-width:0.0352777"
       id="path534" />
    <path
       d="m -189.64388,26.213778 h 0.50615 v -0.822687 h -0.50615 z"
       style="fill:#231f20;fill-opacity:1;fill-rule:nonzero;stroke:none;stroke-width:0.0352777"
       id="path536" />
    <path
       d="m -190.76258,26.213778 h 0.50519 v -0.822687 h -0.50519 z"
       style="fill:#231f20;fill-opacity:1;fill-rule:nonzero;stroke:none;stroke-width:0.0352777"
       id="path538" />
    <path
       d="m -192.44006,26.213778 h 0.50629 v -0.822687 h -0.50629 z"
       style="fill:#231f20;fill-opacity:1;fill-rule:nonzero;stroke:none;stroke-width:0.0352777"
       id="path540" />
    <path
       d="m -194.6766,26.213778 h 0.50519 v -0.822687 h -0.50519 z"
       style="fill:#231f20;fill-opacity:1;fill-rule:nonzero;stroke:none;stroke-width:0.0352777"
       id="path542" />
    <path
       d="m -195.23624,26.213778 h 0.50518 v -0.822687 h -0.50518 z"
       style="fill:#231f20;fill-opacity:1;fill-rule:nonzero;stroke:none;stroke-width:0.0352777"
       id="path544" />
    <path
       d="m -195.79571,26.213778 h 0.5056 v -0.822687 h -0.5056 z"
       style="fill:#231f20;fill-opacity:1;fill-rule:nonzero;stroke:none;stroke-width:0.0352777"
       id="path546" />
    <path
       d="m -196.35836,26.213778 h 0.50698 v -0.822687 h -0.50698 z"
       style="fill:#231f20;fill-opacity:1;fill-rule:nonzero;stroke:none;stroke-width:0.0352777"
       id="path548" />
    <path
       d="m -196.91758,26.213778 h 0.50519 v -0.822687 h -0.50519 z"
       style="fill:#231f20;fill-opacity:1;fill-rule:nonzero;stroke:none;stroke-width:0.0352777"
       id="path550" />
    <path
       d="m -189.64388,27.090076 h 0.50615 v -0.821999 h -0.50615 z"
       style="fill:#231f20;fill-opacity:1;fill-rule:nonzero;stroke:none;stroke-width:0.0352777"
       id="path552" />
    <path
       d="m -191.32109,27.090076 h 0.50519 v -0.821999 h -0.50519 z"
       style="fill:#231f20;fill-opacity:1;fill-rule:nonzero;stroke:none;stroke-width:0.0352777"
       id="path554" />
    <path
       d="m -191.88017,27.090076 h 0.50546 v -0.821999 h -0.50546 z"
       style="fill:#231f20;fill-opacity:1;fill-rule:nonzero;stroke:none;stroke-width:0.0352777"
       id="path556" />
    <path
       d="m -195.79571,27.090076 h 0.5056 v -0.821999 h -0.5056 z"
       style="fill:#231f20;fill-opacity:1;fill-rule:nonzero;stroke:none;stroke-width:0.0352777"
       id="path558" />
    <path
       d="m -164.62854,18.982557 -0.43286,-0.19438 c 0,0 -0.35878,-0.173566 -0.66005,0.06103 -0.248,0.192616 -0.69356,0.507999 -1.42134,1.660874 -0.71507,1.157461 -0.77258,1.648174 -0.82126,1.931101 -0.0596,0.343252 0.31009,0.498826 0.31009,0.498826 l 0.43215,0.19438"
       style="fill:#9c9a9b;fill-opacity:1;fill-rule:nonzero;stroke:none;stroke-width:0.0352777"
       id="path560" />
    <path
       d="m -150.18339,18.982557 0.43286,-0.19438 c 0,0 0.35877,-0.173566 0.66004,0.06103 0.24765,0.192616 0.69356,0.507999 1.42099,1.660874 0.71543,1.157461 0.77293,1.648174 0.82126,1.931101 0.0596,0.343252 -0.31009,0.498826 -0.31009,0.498826 l -0.4318,0.19438"
       style="fill:#9c9a9b;fill-opacity:1;fill-rule:nonzero;stroke:none;stroke-width:0.0352777"
       id="path562" />
    <path
       d="m -164.62854,30.837977 -0.43286,0.194733 c 0,0 -0.35878,0.173566 -0.66005,-0.06103 -0.248,-0.192616 -0.69356,-0.508352 -1.42134,-1.660874 -0.71507,-1.157814 -0.77258,-1.648173 -0.82126,-1.931453 -0.0596,-0.342899 0.31009,-0.498474 0.31009,-0.498474 l 0.43215,-0.19438"
       style="fill:#9c9a9b;fill-opacity:1;fill-rule:nonzero;stroke:none;stroke-width:0.0352777"
       id="path564" />
    <path
       d="m -150.18339,30.837977 0.43286,0.194733 c 0,0 0.35877,0.173566 0.66004,-0.06103 0.24765,-0.192616 0.69356,-0.508352 1.42099,-1.660874 0.71543,-1.157814 0.77293,-1.648173 0.82126,-1.931453 0.0596,-0.342899 -0.31009,-0.498474 -0.31009,-0.498474 l -0.4318,-0.19438"
       style="fill:#9c9a9b;fill-opacity:1;fill-rule:nonzero;stroke:none;stroke-width:0.0352777"
       id="path566" />
    <path
       d="m 1920.04,1210.53 c 0,-137.51 -131.15,-248.991 -292.95,-248.991 -161.78,0 -292.93,111.481 -292.93,248.991 0,137.51 131.15,249 292.93,249 161.8,0 292.95,-111.49 292.95,-249"
       style="fill:#ffffff;fill-opacity:1;fill-rule:nonzero;stroke:none"
       id="path576"
       clip-path="url(#clipPath574)"
       transform="matrix(0.03527769,0,0,-0.03527769,-214.80612,67.615322)" />
    <path
       d="m 1920.04,1210.53 c 0,-137.51 -131.15,-248.991 -292.95,-248.991 -161.78,0 -292.93,111.481 -292.93,248.991 0,137.51 131.15,249 292.93,249 161.8,0 292.95,-111.49 292.95,-249 z"
       style="fill:none;stroke:#9c9a9b;stroke-width:6;stroke-linecap:butt;stroke-linejoin:miter;stroke-miterlimit:10;stroke-dasharray:none;stroke-opacity:1"
       id="path578"
       clip-path="url(#clipPath574)"
       transform="matrix(0.03527769,0,0,-0.03527769,-214.80612,67.615322)" />
    <path
       d="m 1896.56,1210.53 c 0,-126.5 -120.64,-229.05 -269.47,-229.05 -148.82,0 -269.46,102.55 -269.46,229.05 0,126.5 120.64,229.05 269.46,229.05 148.83,0 269.47,-102.55 269.47,-229.05 z"
       style="fill:none;stroke:#9c9a9b;stroke-width:4;stroke-linecap:butt;stroke-linejoin:miter;stroke-miterlimit:10;stroke-dasharray:none;stroke-opacity:1"
       id="path580"
       clip-path="url(#clipPath574)"
       transform="matrix(0.03527769,0,0,-0.03527769,-214.80612,67.615322)" />
    <path
       d="m -151.60755,24.852765 c 0,-3.197218 -2.59079,-5.790128 -5.78378,-5.790128 -3.19792,0 -5.79506,2.59291 -5.79506,5.790128 0,3.19898 2.59714,5.791185 5.79506,5.791185 3.19299,0 5.78378,-2.592205 5.78378,-5.791185 z"
       style="fill:none;stroke:#9c9a9b;stroke-width:0.141111;stroke-linecap:round;stroke-linejoin:round;stroke-miterlimit:10;stroke-dasharray:none;stroke-opacity:1"
       id="path582" />
    <path
       d="m -153.18446,23.583473 h 0.50505 v -0.822686 h -0.50505 z"
       style="fill:#231f20;fill-opacity:1;fill-rule:nonzero;stroke:none;stroke-width:0.0352777"
       id="path584" />
    <path
       d="m -154.86227,23.583473 h 0.50629 v -0.822686 h -0.50629 z"
       style="fill:#231f20;fill-opacity:1;fill-rule:nonzero;stroke:none;stroke-width:0.0352777"
       id="path586" />
    <path
       d="m -156.53937,23.583473 h 0.50519 v -0.822686 h -0.50519 z"
       style="fill:#231f20;fill-opacity:1;fill-rule:nonzero;stroke:none;stroke-width:0.0352777"
       id="path588" />
    <path
       d="m -157.09852,23.583473 h 0.5056 v -0.822686 h -0.5056 z"
       style="fill:#231f20;fill-opacity:1;fill-rule:nonzero;stroke:none;stroke-width:0.0352777"
       id="path590" />
    <path
       d="m -161.01364,23.583473 h 0.50546 v -0.822686 h -0.50546 z"
       style="fill:#231f20;fill-opacity:1;fill-rule:nonzero;stroke:none;stroke-width:0.0352777"
       id="path592" />
    <path
       d="m -153.18446,24.460829 h 0.50505 v -0.822686 h -0.50505 z"
       style="fill:#231f20;fill-opacity:1;fill-rule:nonzero;stroke:none;stroke-width:0.0352777"
       id="path594" />
    <path
       d="m -154.30241,24.460829 h 0.50518 v -0.822686 h -0.50518 z"
       style="fill:#231f20;fill-opacity:1;fill-rule:nonzero;stroke:none;stroke-width:0.0352777"
       id="path596" />
    <path
       d="m -154.86227,24.460829 h 0.50629 v -0.822686 h -0.50629 z"
       style="fill:#231f20;fill-opacity:1;fill-rule:nonzero;stroke:none;stroke-width:0.0352777"
       id="path598" />
    <path
       d="m -155.98057,24.460829 h 0.50519 v -0.822686 h -0.50519 z"
       style="fill:#231f20;fill-opacity:1;fill-rule:nonzero;stroke:none;stroke-width:0.0352777"
       id="path600" />
    <path
       d="m -157.65838,24.460829 h 0.50615 v -0.822686 h -0.50615 z"
       style="fill:#231f20;fill-opacity:1;fill-rule:nonzero;stroke:none;stroke-width:0.0352777"
       id="path602" />
    <path
       d="m -160.45449,24.460829 h 0.50519 v -0.822686 h -0.50519 z"
       style="fill:#231f20;fill-opacity:1;fill-rule:nonzero;stroke:none;stroke-width:0.0352777"
       id="path604" />
    <path
       d="m -161.01364,24.460829 h 0.50546 v -0.822686 h -0.50546 z"
       style="fill:#231f20;fill-opacity:1;fill-rule:nonzero;stroke:none;stroke-width:0.0352777"
       id="path606" />
    <path
       d="m -161.57667,24.460829 h 0.50684 v -0.822686 h -0.50684 z"
       style="fill:#231f20;fill-opacity:1;fill-rule:nonzero;stroke:none;stroke-width:0.0352777"
       id="path608" />
    <path
       d="m -153.18446,25.336422 h 0.50505 v -0.821999 h -0.50505 z"
       style="fill:#231f20;fill-opacity:1;fill-rule:nonzero;stroke:none;stroke-width:0.0352777"
       id="path610" />
    <path
       d="m -153.74361,25.336422 h 0.50546 v -0.821999 h -0.50546 z"
       style="fill:#231f20;fill-opacity:1;fill-rule:nonzero;stroke:none;stroke-width:0.0352777"
       id="path612" />
    <path
       d="m -154.86227,25.336422 h 0.50629 v -0.821999 h -0.50629 z"
       style="fill:#231f20;fill-opacity:1;fill-rule:nonzero;stroke:none;stroke-width:0.0352777"
       id="path614" />
    <path
       d="m -155.98057,25.336422 h 0.50519 v -0.821999 h -0.50519 z"
       style="fill:#231f20;fill-opacity:1;fill-rule:nonzero;stroke:none;stroke-width:0.0352777"
       id="path616" />
    <path
       d="m -157.65838,25.336422 h 0.50615 v -0.821999 h -0.50615 z"
       style="fill:#231f20;fill-opacity:1;fill-rule:nonzero;stroke:none;stroke-width:0.0352777"
       id="path618" />
    <path
       d="m -160.45449,25.336422 h 0.50519 v -0.821999 h -0.50519 z"
       style="fill:#231f20;fill-opacity:1;fill-rule:nonzero;stroke:none;stroke-width:0.0352777"
       id="path620" />
    <path
       d="m -161.57667,25.336422 h 0.50684 v -0.821999 h -0.50684 z"
       style="fill:#231f20;fill-opacity:1;fill-rule:nonzero;stroke:none;stroke-width:0.0352777"
       id="path622" />
    <path
       d="m -153.18446,26.213778 h 0.50505 v -0.822687 h -0.50505 z"
       style="fill:#231f20;fill-opacity:1;fill-rule:nonzero;stroke:none;stroke-width:0.0352777"
       id="path624" />
    <path
       d="m -154.86227,26.213778 h 0.50629 v -0.822687 h -0.50629 z"
       style="fill:#231f20;fill-opacity:1;fill-rule:nonzero;stroke:none;stroke-width:0.0352777"
       id="path626" />
    <path
       d="m -155.98057,26.213778 h 0.50519 v -0.822687 h -0.50519 z"
       style="fill:#231f20;fill-opacity:1;fill-rule:nonzero;stroke:none;stroke-width:0.0352777"
       id="path628" />
    <path
       d="m -157.65838,26.213778 h 0.50615 v -0.822687 h -0.50615 z"
       style="fill:#231f20;fill-opacity:1;fill-rule:nonzero;stroke:none;stroke-width:0.0352777"
       id="path630" />
    <path
       d="m -159.89463,26.213778 h 0.50519 v -0.822687 h -0.50519 z"
       style="fill:#231f20;fill-opacity:1;fill-rule:nonzero;stroke:none;stroke-width:0.0352777"
       id="path632" />
    <path
       d="m -160.45449,26.213778 h 0.50519 v -0.822687 h -0.50519 z"
       style="fill:#231f20;fill-opacity:1;fill-rule:nonzero;stroke:none;stroke-width:0.0352777"
       id="path634" />
    <path
       d="m -161.01364,26.213778 h 0.50546 v -0.822687 h -0.50546 z"
       style="fill:#231f20;fill-opacity:1;fill-rule:nonzero;stroke:none;stroke-width:0.0352777"
       id="path636" />
    <path
       d="m -161.57667,26.213778 h 0.50684 v -0.822687 h -0.50684 z"
       style="fill:#231f20;fill-opacity:1;fill-rule:nonzero;stroke:none;stroke-width:0.0352777"
       id="path638" />
    <path
       d="m -162.13547,26.213778 h 0.50519 v -0.822687 h -0.50519 z"
       style="fill:#231f20;fill-opacity:1;fill-rule:nonzero;stroke:none;stroke-width:0.0352777"
       id="path640" />
    <path
       d="m -153.18446,27.090076 h 0.50505 v -0.821999 h -0.50505 z"
       style="fill:#231f20;fill-opacity:1;fill-rule:nonzero;stroke:none;stroke-width:0.0352777"
       id="path642" />
    <path
       d="m -154.86227,27.090076 h 0.50629 v -0.821999 h -0.50629 z"
       style="fill:#231f20;fill-opacity:1;fill-rule:nonzero;stroke:none;stroke-width:0.0352777"
       id="path644" />
    <path
       d="m -156.53937,27.090076 h 0.50519 v -0.821999 h -0.50519 z"
       style="fill:#231f20;fill-opacity:1;fill-rule:nonzero;stroke:none;stroke-width:0.0352777"
       id="path646" />
    <path
       d="m -157.09852,27.090076 h 0.5056 v -0.821999 h -0.5056 z"
       style="fill:#231f20;fill-opacity:1;fill-rule:nonzero;stroke:none;stroke-width:0.0352777"
       id="path648" />
    <path
       d="m -161.01364,27.090076 h 0.50546 v -0.821999 h -0.50546 z"
       style="fill:#231f20;fill-opacity:1;fill-rule:nonzero;stroke:none;stroke-width:0.0352777"
       id="path650" />
    <text
       xml:space="preserve"
       transform="scale(1,-1)"
       style="font-variant:normal;font-weight:normal;font-size:0.0352777px;font-family:Arial;-inkscape-font-specification:Arial;writing-mode:lr-tb;fill:#231f20;fill-opacity:1;fill-rule:nonzero;stroke:none;stroke-width:0.352777"
       id="text656"
       x="-176.17696"
       y="-22.212822"><tspan
         x="-176.17696"
         y="-22.212822"
         id="tspan654"
         style="stroke-width:0.352777">❆</tspan></text>
    <path
       d="m -170.80884,23.155202 c 0,0.218369 0,0.436738 0,0.655107 v 0.05292 h -7.98758 v -0.05292 c 0,-0.218369 0,-0.436738 0,-0.655107 -0.49283,0.584904 -0.9853,1.170161 -1.47806,1.755065 0.49276,0.585257 0.98523,1.170161 1.47806,1.755418 0,-0.218369 0,-0.436738 0,-0.655107 v -0.05292 h 7.98758 v 0.05292 c 0,0.218369 0,0.436738 0,0.655107 0.49283,-0.585257 0.9853,-1.170161 1.47778,-1.755418 -0.49248,-0.584904 -0.98531,-1.169808 -1.47778,-1.755065"
       style="fill:#bdbcbc;fill-opacity:1;fill-rule:nonzero;stroke:none;stroke-width:0.0352777"
       id="path658" />
    <path
       d="m -170.80884,23.155202 c 0,0.218369 0,0.436738 0,0.655107 v 0.05292 h -7.98758 v -0.05292 c 0,-0.218369 0,-0.436738 0,-0.655107 -0.49283,0.584904 -0.9853,1.170161 -1.47806,1.755065 0.49276,0.585257 0.98523,1.170161 1.47806,1.755418 0,-0.218369 0,-0.436738 0,-0.655107 v -0.05292 h 7.98758 v 0.05292 c 0,0.218369 0,0.436738 0,0.655107 0.49283,-0.585257 0.9853,-1.170161 1.47778,-1.755418 -0.49248,-0.584904 -0.98531,-1.169808 -1.47778,-1.755065 z"
       style="fill:none;stroke:#4f4c4c;stroke-width:0.105833;stroke-linecap:butt;stroke-linejoin:miter;stroke-miterlimit:4;stroke-dasharray:none;stroke-opacity:1"
       id="path660" />
    <text
       xml:space="preserve"
       transform="scale(1,-1)"
       style="font-variant:normal;font-weight:normal;font-size:0.0352777px;font-family:Arial;-inkscape-font-specification:Arial;writing-mode:lr-tb;fill:#231f20;fill-opacity:1;fill-rule:nonzero;stroke:none;stroke-width:0.352777"
       id="text666"
       x="-198.96638"
       y="-15.121989"><tspan
         x="-198.96638 -196.84973 -194.73306"
         y="-15.121989"
         sodipodi:role="line"
         id="tspan664"
         style="stroke-width:0.352777">✛✤✥</tspan></text>
    <text
       xml:space="preserve"
       transform="scale(1,-1)"
       style="font-variant:normal;font-weight:normal;font-size:0.0352777px;font-family:Arial;-inkscape-font-specification:Arial;writing-mode:lr-tb;fill:#231f20;fill-opacity:1;fill-rule:nonzero;stroke:none;stroke-width:0.352777"
       id="text670"
       x="-192.36945"
       y="-15.121989"><tspan
         x="-192.36945 -190.42918 -189.1239"
         y="-15.121989"
         sodipodi:role="line"
         id="tspan668"
         style="stroke-width:0.352777">✗✘✘</tspan></text>
    <text
       xml:space="preserve"
       transform="scale(1,-1)"
       style="font-variant:normal;font-weight:normal;font-size:0.0352777px;font-family:Arial;-inkscape-font-specification:Arial;writing-mode:lr-tb;fill:#231f20;fill-opacity:1;fill-rule:nonzero;stroke:none;stroke-width:0.352777"
       id="text674"
       x="-187.60695"
       y="-15.121989"><tspan
         x="-187.60695 -163.79451 -161.67784 -159.56119"
         y="-15.121989"
         sodipodi:role="line"
         id="tspan672"
         style="stroke-width:0.352777">✣✛✤✥</tspan></text>
    <text
       xml:space="preserve"
       transform="scale(1,-1)"
       style="font-variant:normal;font-weight:normal;font-size:0.0352777px;font-family:Arial;-inkscape-font-specification:Arial;writing-mode:lr-tb;fill:#231f20;fill-opacity:1;fill-rule:nonzero;stroke:none;stroke-width:0.352777"
       id="text678"
       x="-157.16214"
       y="-15.121989"><tspan
         x="-157.16214 -155.25714"
         y="-15.121989"
         sodipodi:role="line"
         id="tspan676"
         style="stroke-width:0.352777">✗✙</tspan></text>
    <text
       xml:space="preserve"
       transform="scale(1,-1)"
       style="font-variant:normal;font-weight:normal;font-size:0.0352777px;font-family:Arial;-inkscape-font-specification:Arial;writing-mode:lr-tb;fill:#231f20;fill-opacity:1;fill-rule:nonzero;stroke:none;stroke-width:0.352777"
       id="text682"
       x="-153.21112"
       y="-15.121989"><tspan
         x="-153.21112"
         y="-15.121989"
         id="tspan680"
         style="stroke-width:0.352777">✣</tspan></text>
  </g>
</svg>
