<?xml version="1.0" encoding="UTF-8" standalone="no"?>
<!-- Created with Inkscape (http://www.inkscape.org/) -->

<svg
   width="210mm"
   height="297mm"
   viewBox="0 0 210 297"
   version="1.1"
   id="svg1286"
   inkscape:version="1.2.2 (b0a8486541, 2022-12-01)"
   sodipodi:docname="slanted_exclamation.svg"
   xmlns:inkscape="http://www.inkscape.org/namespaces/inkscape"
   xmlns:sodipodi="http://sodipodi.sourceforge.net/DTD/sodipodi-0.dtd"
   xmlns="http://www.w3.org/2000/svg"
   xmlns:svg="http://www.w3.org/2000/svg">
  <sodipodi:namedview
     id="namedview1288"
     pagecolor="#ffffff"
     bordercolor="#666666"
     borderopacity="1.0"
     inkscape:showpageshadow="2"
     inkscape:pageopacity="0.0"
     inkscape:pagecheckerboard="0"
     inkscape:deskcolor="#d1d1d1"
     inkscape:document-units="mm"
     showgrid="false"
     inkscape:zoom="0.44542649"
     inkscape:cx="397.37197"
     inkscape:cy="561.25984"
     inkscape:window-width="1366"
     inkscape:window-height="685"
     inkscape:window-x="0"
     inkscape:window-y="27"
     inkscape:window-maximized="1"
     inkscape:current-layer="layer1" />
  <defs
     id="defs1283">
    <clipPath
       clipPathUnits="userSpaceOnUse"
       id="clipPath94">
      <path
         d="m 368.5,2163.85 h 99.2109 v 98.9102 H 368.5 Z"
         id="path92" />
    </clipPath>
    <clipPath
       clipPathUnits="userSpaceOnUse"
       id="clipPath1274">
      <path
         d="m 368.5,2163.85 h 99.2109 v 98.9102 H 368.5 Z"
         id="path1272" />
    </clipPath>
  </defs>
  <g
     inkscape:label="Layer 1"
     inkscape:groupmode="layer"
     id="layer1">
    <path
       d="m -167.79007,34.435821 c 0,0.82832 -0.67123,1.500713 -1.49959,1.500713 -0.82902,0 -1.49997,-0.672393 -1.49997,-1.500713 0,-0.828673 0.67095,-1.499655 1.49997,-1.499655 0.82836,0 1.49959,0.670982 1.49959,1.499655"
       style="fill:#d3d2d2;fill-opacity:1;fill-rule:nonzero;stroke:none;stroke-width:0.0352777"
       id="path86" />
    <path
       d="m 400.211,2187.25 c -2.211,0 -4.301,0.86 -5.891,2.43 -3.031,3.08 -3.09,7.96 -0.289,11.2 l 35.348,55.45 c 8.48,8.5 23.332,8.57 31.723,0.17 4.277,-4.27 6.628,-9.96 6.609,-16.02 -0.012,-6 -2.359,-11.63 -6.59,-15.87 l -0.793,-0.64 -54.68,-34.69 c -1.507,-1.31 -3.429,-2.03 -5.437,-2.03"
       style="fill:#ffffff;fill-opacity:1;fill-rule:nonzero;stroke:none"
       id="path96"
       clip-path="url(#clipPath94)"
       transform="matrix(0.03527769,0,0,-0.03527769,-184.04,112.53216)" />
    <path
       d="m 385.039,2187.67 c -1.961,0 -3.777,-0.74 -5.148,-2.11 -1.391,-1.4 -2.153,-3.21 -2.153,-5.11 0,-1.91 0.774,-3.73 2.153,-5.09 2.937,-2.96 7.41,-2.92 10.281,-0.06 2.918,2.94 2.918,7.34 0,10.26 -1.363,1.37 -3.184,2.11 -5.133,2.11 m 0.012,-23.83 c -4.352,0 -8.5,1.77 -11.68,4.99 -3.121,3.07 -4.859,7.2 -4.859,11.6 -0.012,4.39 1.707,8.52 4.859,11.66 6.207,6.22 17.129,6.21 23.34,0 6.508,-6.53 6.508,-16.76 0,-23.31 -3.191,-3.19 -7.332,-4.94 -11.66,-4.94"
       style="fill:#ffffff;fill-opacity:1;fill-rule:nonzero;stroke:none"
       id="path98"
       clip-path="url(#clipPath94)"
       transform="matrix(0.03527769,0,0,-0.03527769,-184.04,112.53216)" />
    <path
       d="m -169.82916,35.169244 c -0.0518,0.05151 -0.13324,0.05151 -0.18549,0 -0.0466,-0.04727 -0.0466,-0.128058 0.005,-0.179916 l 1.23225,-1.940626 c 0.24443,-0.244827 0.64519,-0.249766 0.88896,-0.0056 0.24983,0.249413 0.24447,0.650168 6.7e-4,0.894642"
       style="fill:#656263;fill-opacity:1;fill-rule:nonzero;stroke:none;stroke-width:0.0352777"
       id="path100" />
    <path
       d="m -170.1607,35.907606 c -0.16785,0.167922 -0.42333,0.16898 -0.59228,-0.0014 -0.16263,-0.160513 -0.16869,-0.422979 -7e-4,-0.590901 0.1633,-0.162983 0.43063,-0.162983 0.59298,0 0.16895,0.169333 0.16302,0.428271 0,0.592312"
       style="fill:#656263;fill-opacity:1;fill-rule:nonzero;stroke:none;stroke-width:0.0352777"
       id="path102" />
  </g>
</svg>
