<?xml version="1.0" encoding="UTF-8" standalone="no"?>
<!-- Created with Inkscape (http://www.inkscape.org/) -->

<svg
   width="15.606532mm"
   height="16.115837mm"
   viewBox="0 0 15.606532 16.115837"
   version="1.1"
   id="svg852"
   inkscape:version="1.2.2 (b0a8486541, 2022-12-01)"
   sodipodi:docname="sun.svg"
   xmlns:inkscape="http://www.inkscape.org/namespaces/inkscape"
   xmlns:sodipodi="http://sodipodi.sourceforge.net/DTD/sodipodi-0.dtd"
   xmlns="http://www.w3.org/2000/svg"
   xmlns:svg="http://www.w3.org/2000/svg">
  <sodipodi:namedview
     id="namedview854"
     pagecolor="#ffffff"
     bordercolor="#666666"
     borderopacity="1.0"
     inkscape:showpageshadow="2"
     inkscape:pageopacity="0.0"
     inkscape:pagecheckerboard="0"
     inkscape:deskcolor="#d1d1d1"
     inkscape:document-units="mm"
     showgrid="false"
     inkscape:zoom="0.44542649"
     inkscape:cx="1091.0891"
     inkscape:cy="471.45827"
     inkscape:window-width="1366"
     inkscape:window-height="685"
     inkscape:window-x="0"
     inkscape:window-y="27"
     inkscape:window-maximized="1"
     inkscape:current-layer="layer1" />
  <defs
     id="defs849">
    <clipPath
       clipPathUnits="userSpaceOnUse"
       id="clipPath388">
      <path
         d="m 912.66,1302.78 h 442.391 v 456.828 H 912.66 Z"
         id="path386" />
    </clipPath>
    <clipPath
       clipPathUnits="userSpaceOnUse"
       id="clipPath402">
      <path
         d="m 947.039,1328.74 h 253.563 v 210.59 H 947.039 Z"
         id="path400" />
    </clipPath>
    <clipPath
       clipPathUnits="userSpaceOnUse"
       id="clipPath774">
      <path
         d="m 947.039,1328.74 h 253.563 v 210.59 H 947.039 Z"
         id="path772" />
    </clipPath>
    <clipPath
       clipPathUnits="userSpaceOnUse"
       id="clipPath778">
      <path
         d="m 947.039,1328.74 h 253.563 v 210.59 H 947.039 Z"
         id="path776" />
    </clipPath>
    <clipPath
       clipPathUnits="userSpaceOnUse"
       id="clipPath782">
      <path
         d="m 947.039,1328.74 h 253.563 v 210.59 H 947.039 Z"
         id="path780" />
    </clipPath>
    <clipPath
       clipPathUnits="userSpaceOnUse"
       id="clipPath786">
      <path
         d="m 947.039,1328.74 h 253.563 v 210.59 H 947.039 Z"
         id="path784" />
    </clipPath>
    <clipPath
       clipPathUnits="userSpaceOnUse"
       id="clipPath790">
      <path
         d="m 947.039,1328.74 h 253.563 v 210.59 H 947.039 Z"
         id="path788" />
    </clipPath>
    <clipPath
       clipPathUnits="userSpaceOnUse"
       id="clipPath794">
      <path
         d="m 947.039,1328.74 h 253.563 v 210.59 H 947.039 Z"
         id="path792" />
    </clipPath>
    <clipPath
       clipPathUnits="userSpaceOnUse"
       id="clipPath798">
      <path
         d="m 947.039,1328.74 h 253.563 v 210.59 H 947.039 Z"
         id="path796" />
    </clipPath>
  </defs>
  <g
     inkscape:label="Layer 1"
     inkscape:groupmode="layer"
     id="layer1"
     transform="translate(183.62726,-24.01808)">
    <path
       d="m 1344.81,1369.39 c 0,-31.69 -27.54,-57.47 -61.38,-57.47 H 984.281 c -33.851,0 -61.39,25.78 -61.39,57.47 v 323.6 c 0,31.69 27.539,57.48 61.39,57.48 h 299.149 c 33.84,0 61.38,-25.79 61.38,-57.48 z m -50.31,390.22 H 973.219 c -33.449,0 -60.559,-25.06 -60.559,-55.95 v -344.93 c 0,-30.89 27.11,-55.95 60.559,-55.95 H 1294.5 c 33.44,0 60.56,25.06 60.56,55.95 v 344.93 c 0,30.89 -27.12,55.95 -60.56,55.95"
       style="fill:#bdbcbc;fill-opacity:1;fill-rule:nonzero;stroke:none"
       id="path390"
       clip-path="url(#clipPath388)"
       transform="matrix(0.03527769,0,0,-0.03527769,-215.8238,86.092986)" />
    <path
       d="m -170.54735,24.693225 h -10.55329 c -0.99977,0 -1.81292,0.751415 -1.81292,1.674985 v 11.41586 c 0,0.92357 0.81315,1.67569 1.81292,1.67569 h 10.55329 c 0.99977,0 1.81292,-0.75212 1.81292,-1.67569 V 26.36821 c 0,-0.92357 -0.81315,-1.674985 -1.81292,-1.674985"
       style="fill:#e9e9e9;fill-opacity:1;fill-rule:nonzero;stroke:none;stroke-width:0.0352777"
       id="path392" />
    <path
       d="m -173.01997,30.341889 -1.01423,1.330321 0.66639,0.507646 -1.85666,0.325966 -0.17639,-1.876067 0.66604,0.507998 1.01494,-1.330321 0.69991,0.534457"
       style="fill:#bdbcbc;fill-opacity:1;fill-rule:nonzero;stroke:none;stroke-width:0.0352777"
       id="path394" />
    <path
       d="m 1171.87,1468.59 c 0,0 16.01,-35.81 15.36,-44.71 l -0.67,-8.92 c 0,0 1.32,-23.56 -5.36,-35.12 -6.68,-11.57 -38.95,-38.05 -55.41,-38.94 -16.47,-0.89 -32.05,2.67 -60.99,29.35 -28.91,26.71 -60.08,59.19 -69.409,66.74 -9.371,7.58 -22.711,8.47 -25.852,7.58 0,0 -15.988,-4.44 -21.34,-4.01 -5.371,0.44 -15.14,0.44 -19.129,4.01 -4.019,3.54 -4.019,3.54 -4.019,3.54 0,0 -18.25,2.24 -19.153,4.03 -0.867,1.76 -1.769,4 0.903,4.43 0,0 -4.449,1.77 -8.02,1.77 -3.551,0 -9.359,-0.87 -15.133,1.35 -5.777,2.22 -14.66,6.68 -18.238,9.33 -3.558,2.67 -2.23,4.9 1.352,7.58 3.547,2.65 20.468,11.57 20.468,11.57 0,0 -1.359,3.12 0.872,4.88 2.226,1.78 4.918,3.13 7.57,3.57 2.68,0.43 5.348,-1.79 5.348,-1.79 0,0 6.671,3.56 11.128,5.79 4.442,2.22 12.024,0.89 16.032,-0.44 3.992,-1.34 8,-2.23 10.648,-4 2.703,-1.78 4.473,-5.35 4.473,-5.35 l 4.898,-1.78 c 0,0 4.879,1.78 6.68,3.13 1.781,1.32 7.121,0.87 12.461,0.43 5.34,-0.43 14.23,-1.78 17.808,-1.78 3.551,0 4.883,-4 4.883,-4 0,0 2.231,-0.44 5.36,0.43 3.109,0.91 5.539,4.68 15.549,12.7 10.03,8.01 32.75,24.02 48.74,27.36 16.05,3.34 30.71,-2.01 30.71,-2.01"
       style="fill:#ffffff;fill-opacity:1;fill-rule:nonzero;stroke:none"
       id="path404"
       clip-path="url(#clipPath402)"
       transform="matrix(0.03527769,0,0,-0.03527769,-215.8238,86.092986)" />
    <path
       d="m 1171.87,1468.59 c 0,0 16.01,-35.81 15.36,-44.71 l -0.67,-8.92 c 0,0 1.32,-23.56 -5.36,-35.12 -6.68,-11.57 -38.95,-38.05 -55.41,-38.94 -16.47,-0.89 -32.05,2.67 -60.99,29.35 -28.91,26.71 -60.08,59.19 -69.409,66.74 -9.371,7.58 -22.711,8.47 -25.852,7.58 0,0 -15.988,-4.44 -21.34,-4.01 -5.371,0.44 -15.14,0.44 -19.129,4.01 -4.019,3.54 -4.019,3.54 -4.019,3.54 0,0 -18.25,2.24 -19.153,4.03 -0.867,1.76 -1.769,4 0.903,4.43 0,0 -4.449,1.77 -8.02,1.77 -3.551,0 -9.359,-0.87 -15.133,1.35 -5.777,2.22 -14.66,6.68 -18.238,9.33 -3.558,2.67 -2.23,4.9 1.352,7.58 3.547,2.65 20.468,11.57 20.468,11.57 0,0 -1.359,3.12 0.872,4.88 2.226,1.78 4.918,3.13 7.57,3.57 2.68,0.43 5.348,-1.79 5.348,-1.79 0,0 6.671,3.56 11.128,5.79 4.442,2.22 12.024,0.89 16.032,-0.44 3.992,-1.34 8,-2.23 10.648,-4 2.703,-1.78 4.473,-5.35 4.473,-5.35 l 4.898,-1.78 c 0,0 4.879,1.78 6.68,3.13 1.781,1.32 7.121,0.87 12.461,0.43 5.34,-0.43 14.23,-1.78 17.808,-1.78 3.551,0 4.883,-4 4.883,-4 0,0 2.231,-0.44 5.36,0.43 3.109,0.91 5.539,4.68 15.549,12.7 10.03,8.01 32.75,24.02 48.74,27.36 16.05,3.34 30.71,-2.01 30.71,-2.01"
       style="fill:none;stroke:#231f20;stroke-width:3.9;stroke-linecap:butt;stroke-linejoin:miter;stroke-miterlimit:4;stroke-dasharray:none;stroke-opacity:1"
       id="path406"
       clip-path="url(#clipPath402)"
       transform="matrix(0.03527769,0,0,-0.03527769,-215.8238,86.092986)" />
    <path
       d="m 972.238,1445.01 c -5.328,1.32 -17.347,0.44 -21.379,1.32 -4,0.9 -5.781,4.9 -7.55,8.01 -1.778,3.12 -1.34,8 3.98,12.46 5.359,4.45 30.742,18.24 34.281,19.13 3.578,0.9 8.469,0.9 8.469,0.9"
       style="fill:none;stroke:#231f20;stroke-width:3.9;stroke-linecap:butt;stroke-linejoin:miter;stroke-miterlimit:4;stroke-dasharray:none;stroke-opacity:1"
       id="path408"
       clip-path="url(#clipPath402)"
       transform="matrix(0.03527769,0,0,-0.03527769,-215.8238,86.092986)" />
    <path
       d="m 925.051,1448.11 c 0,0 -4.461,6.69 -5.789,9.8 -1.321,3.11 -1.321,8.89 3.558,13.34 4.91,4.45 25.391,17.8 25.391,17.8"
       style="fill:none;stroke:#231f20;stroke-width:3.9;stroke-linecap:butt;stroke-linejoin:miter;stroke-miterlimit:4;stroke-dasharray:none;stroke-opacity:1"
       id="path410"
       clip-path="url(#clipPath402)"
       transform="matrix(0.03527769,0,0,-0.03527769,-215.8238,86.092986)" />
    <path
       d="m 950.859,1441 c -10.648,-1.33 -14.23,14.24 -14.23,19.14 0,4.88 9.801,12.45 20.031,18.68 10.25,6.22 20.031,12.47 26.281,12.01"
       style="fill:none;stroke:#231f20;stroke-width:3.9;stroke-linecap:butt;stroke-linejoin:miter;stroke-miterlimit:4;stroke-dasharray:none;stroke-opacity:1"
       id="path412"
       clip-path="url(#clipPath402)"
       transform="matrix(0.03527769,0,0,-0.03527769,-215.8238,86.092986)" />
    <path
       d="m 944.641,1453.47 c 34.718,-2.23 46.289,-1.78 60.539,-14.69 14.24,-12.91 50.29,-48.49 66.31,-64.52 16.02,-16 37.39,-27.57 51.63,-26.69"
       style="fill:none;stroke:#231f20;stroke-width:3.9;stroke-linecap:butt;stroke-linejoin:miter;stroke-miterlimit:4;stroke-dasharray:none;stroke-opacity:1"
       id="path414"
       clip-path="url(#clipPath402)"
       transform="matrix(0.03527769,0,0,-0.03527769,-215.8238,86.092986)" />
    <path
       d="m 942.84,1459.69 c 20.051,1.33 50.32,13.79 50.32,13.79"
       style="fill:none;stroke:#231f20;stroke-width:3.9;stroke-linecap:butt;stroke-linejoin:miter;stroke-miterlimit:4;stroke-dasharray:none;stroke-opacity:1"
       id="path416"
       clip-path="url(#clipPath402)"
       transform="matrix(0.03527769,0,0,-0.03527769,-215.8238,86.092986)" />
    <path
       d="m 1123.12,1347.57 c 14.26,0.9 3.55,27.59 3.55,27.59 0,0 -0.21,0.67 -3.55,4.01 -3.33,3.34 -7.34,9.34 -14.03,15.35 0,0 -4.64,4 -8.66,4.67 -4.03,0.68 -8.69,0.68 -19.37,6 -10.69,5.35 -13.36,10.02 -13.36,10.02 0,0 -10.67,6.65 -18.04,14.69 0,-0.03 -7.33,4 -14.68,15.32 -7.35,11.35 -8,14.69 -8,14.69 0,0 -2.67,0.67 -4.69,4.01 -1.99,3.34 -7.99,5.35 -13.33,6.01 -5.34,0.66 -11.8,-0.9 -11.8,-0.9 0,0 -31.609,-14.22 -53.859,-14.68"
       style="fill:none;stroke:#231f20;stroke-width:3.9;stroke-linecap:butt;stroke-linejoin:miter;stroke-miterlimit:4;stroke-dasharray:none;stroke-opacity:1"
       id="path418"
       clip-path="url(#clipPath402)"
       transform="matrix(0.03527769,0,0,-0.03527769,-215.8238,86.092986)" />
    <path
       d="m -175.69966,37.501849 c 0,0 0.42368,1.035753 -0.26741,1.240716"
       style="fill:none;stroke:#231f20;stroke-width:0.137583;stroke-linecap:butt;stroke-linejoin:miter;stroke-miterlimit:4;stroke-dasharray:none;stroke-opacity:1"
       id="path420" />
    <path
       d="m -175.44178,33.176098 c 0.55139,0.466371 0.82373,1.071384 0.65793,1.557157"
       style="fill:none;stroke:#231f20;stroke-width:0.137583;stroke-linecap:butt;stroke-linejoin:miter;stroke-miterlimit:4;stroke-dasharray:none;stroke-opacity:1"
       id="path422" />
    <path
       d="m -177.6805,32.520286 c 0.45896,-0.09913 1.03963,-0.02328 1.59984,0.245885"
       style="fill:none;stroke:#231f20;stroke-width:0.137583;stroke-linecap:butt;stroke-linejoin:miter;stroke-miterlimit:4;stroke-dasharray:none;stroke-opacity:1"
       id="path424" />
    <path
       d="m -177.6805,32.520286 c -0.36724,0.07867 -0.65652,0.26811 -0.79622,0.56021 -0.31503,0.656517 0.248,1.58044 1.25765,2.063392 1.00788,0.482599 2.08103,0.342546 2.39606,-0.314324 0.0152,-0.0314 0.0275,-0.06315 0.0392,-0.09631"
       style="fill:none;stroke:#231f20;stroke-width:0.137583;stroke-linecap:butt;stroke-linejoin:miter;stroke-miterlimit:4;stroke-dasharray:none;stroke-opacity:1"
       id="path426" />
    <path
       d="m -177.617,35.259246 c 0.0875,0.05115 0.17815,0.09984 0.27269,0.144638 1.17193,0.561268 2.41864,0.397227 2.78412,-0.365124"
       style="fill:none;stroke:#231f20;stroke-width:0.137583;stroke-linecap:butt;stroke-linejoin:miter;stroke-miterlimit:4;stroke-dasharray:none;stroke-opacity:1"
       id="path428" />
    <path
       d="m -178.8048,33.007471 c -0.23707,0.495299 -0.0452,1.121125 0.4392,1.653112"
       style="fill:none;stroke:#231f20;stroke-width:0.137583;stroke-linecap:butt;stroke-linejoin:miter;stroke-miterlimit:4;stroke-dasharray:none;stroke-opacity:1"
       id="path430" />
    <path
       d="m -176.74459,36.803703 -0.0469,-0.117475 c 0,0 0,-0.165099 0.0713,-0.282574 0.0702,-0.117827 0.21131,-0.09454 0.28186,-0.188383 0.0709,-0.09454 0.19015,-0.0889 0.19015,-0.0889 0.78987,0.0628 1.46438,-0.196144 1.72332,-0.736598 0.10971,-0.229305 0.13335,-0.48401 0.0829,-0.74577"
       style="fill:none;stroke:#231f20;stroke-width:0.137583;stroke-linecap:butt;stroke-linejoin:miter;stroke-miterlimit:4;stroke-dasharray:none;stroke-opacity:1"
       id="path432" />
    <path
       d="m -178.8048,33.007471 c 0.36547,-0.763057 1.61148,-0.926745 2.78376,-0.365477 1.17228,0.560562 1.82562,1.63371 1.4605,2.397119 l -0.11818,0.234949 c -0.36513,0.762351 -1.61149,0.926745 -2.78341,0.365477 -1.17193,-0.561268 -1.82633,-1.634062 -1.4605,-2.396766 z"
       style="fill:none;stroke:#231f20;stroke-width:0.137583;stroke-linecap:butt;stroke-linejoin:miter;stroke-miterlimit:4;stroke-dasharray:none;stroke-opacity:1"
       id="path434" />
    <path
       d="m -178.47778,35.099085 c -0.23248,-0.229305 -0.4131,-0.479071 -0.53022,-0.732718"
       style="fill:none;stroke:#231f20;stroke-width:0.137583;stroke-linecap:butt;stroke-linejoin:miter;stroke-miterlimit:4;stroke-dasharray:none;stroke-opacity:1"
       id="path436" />
    <path
       d="m -176.96613,35.987025 c -0.17639,-0.05433 -0.35525,-0.122767 -0.53163,-0.207433 -0.21767,-0.104422 -0.41875,-0.224719 -0.60008,-0.358069"
       style="fill:none;stroke:#231f20;stroke-width:0.137583;stroke-linecap:butt;stroke-linejoin:miter;stroke-miterlimit:4;stroke-dasharray:none;stroke-opacity:1"
       id="path438" />
    <path
       d="m -178.74271,32.82826 c -0.13406,0.106892 -0.24095,0.237772 -0.31433,0.391583 -0.0815,0.170038 -0.11571,0.35454 -0.10724,0.545393 0,0 -0.0769,0.23636 -0.12383,0.330904 -0.0473,0.09419 -0.18803,0.235303 -0.23495,0.329141 -0.0483,0.09454 -0.1651,-0.0702 -0.0709,0.165453"
       style="fill:none;stroke:#231f20;stroke-width:0.137583;stroke-linecap:butt;stroke-linejoin:miter;stroke-miterlimit:4;stroke-dasharray:none;stroke-opacity:1"
       id="path440" />
    <path
       d="m -175.96671,35.979263 c -0.23566,-0.02328 -0.51788,0.02328 -0.54187,0.141111 0,3.53e-4 -0.25894,0 -0.28257,0.07126 -0.0233,0.0702 -0.11748,0.187677 -0.11748,0.187677 0,0 -0.21166,-0.187677 -0.4953,-0.353129 -0.28222,-0.164747 -0.4004,-0.18803 -0.56479,-0.164747 -0.16475,0.02328 -0.35313,0.07126 -0.51823,-0.117827 -0.16475,-0.188383 -0.14146,-0.376061 -0.25929,-0.564796 -0.11783,-0.188383 -0.30621,-0.54116 -0.54187,-0.800804 0,0 0.14111,-0.140758 0.16545,-0.259291 0.0236,-0.117122 0.0702,-0.352777 0.0702,-0.352777"
       style="fill:none;stroke:#231f20;stroke-width:0.137583;stroke-linecap:butt;stroke-linejoin:miter;stroke-miterlimit:4;stroke-dasharray:none;stroke-opacity:1"
       id="path442" />
    <path
       d="m -180.60647,33.577558 c 0,0 -0.0479,0.118533 -0.0708,0.282927 -0.0233,0.1651 0.11741,0.329847 0.23562,0.376766"
       style="fill:none;stroke:#231f20;stroke-width:0.137583;stroke-linecap:butt;stroke-linejoin:miter;stroke-miterlimit:4;stroke-dasharray:none;stroke-opacity:1"
       id="path444" />
    <path
       d="m -180.62933,33.95503 c 0.54112,-0.1651 1.03536,0.446968 1.03536,0.446968"
       style="fill:none;stroke:#231f20;stroke-width:0.137583;stroke-linecap:butt;stroke-linejoin:miter;stroke-miterlimit:4;stroke-dasharray:none;stroke-opacity:1"
       id="path446" />
    <path
       d="m -180.60647,33.577558 c 0,0 0.35281,-0.0702 0.68301,0.0949 0.32949,0.164747 0.63571,0.423685 0.63571,0.423685"
       style="fill:none;stroke:#231f20;stroke-width:0.137583;stroke-linecap:butt;stroke-linejoin:miter;stroke-miterlimit:4;stroke-dasharray:none;stroke-opacity:1"
       id="path448" />
    <path
       d="m -173.96435,36.049819 c -0.0713,0.282574 -0.5655,0.824439 -1.08444,1.129944 -0.51752,0.306916 -0.83185,0.44838 -1.02799,0.400755"
       style="fill:none;stroke:#231f20;stroke-width:0.137583;stroke-linecap:butt;stroke-linejoin:miter;stroke-miterlimit:4;stroke-dasharray:none;stroke-opacity:1"
       id="path450" />
    <path
       d="m -176.74423,36.591331 c 0.3302,0.236008 0.84807,0.965551 0.84807,0.965551"
       style="fill:none;stroke:#231f20;stroke-width:0.137583;stroke-linecap:butt;stroke-linejoin:miter;stroke-miterlimit:4;stroke-dasharray:none;stroke-opacity:1"
       id="path452" />
    <path
       d="m -175.56631,37.392135 c -0.0236,-0.400402 -0.98919,-1.106308 -0.98919,-1.106308"
       style="fill:none;stroke:#231f20;stroke-width:0.137583;stroke-linecap:butt;stroke-linejoin:miter;stroke-miterlimit:4;stroke-dasharray:none;stroke-opacity:1"
       id="path454" />
    <path
       d="m -175.56631,37.392135 c 0.0469,-0.65934 -0.77752,-1.200147 -0.77752,-1.200147"
       style="fill:none;stroke:#231f20;stroke-width:0.137583;stroke-linecap:butt;stroke-linejoin:miter;stroke-miterlimit:4;stroke-dasharray:none;stroke-opacity:1"
       id="path456" />
    <path
       d="m -176.92556,36.711276 c 0,0 0.0794,-0.164394 -0.39687,-0.377119 -0.47696,-0.213077 -0.75459,-0.180975 -0.63536,0"
       style="fill:none;stroke:#231f20;stroke-width:0.137583;stroke-linecap:butt;stroke-linejoin:miter;stroke-miterlimit:4;stroke-dasharray:none;stroke-opacity:1"
       id="path458" />
    <path
       d="m -178.98719,35.434576 c 0,0.0011 0.10654,-0.194733 -0.17427,-0.584904 -0.2794,-0.390524 -0.36795,-0.42933 -0.36795,-0.42933"
       style="fill:none;stroke:#231f20;stroke-width:0.137583;stroke-linecap:butt;stroke-linejoin:miter;stroke-miterlimit:4;stroke-dasharray:none;stroke-opacity:1"
       id="path460" />
    <path
       d="m -178.46614,33.24489 c -0.26282,0.611715 0.30727,1.444268 1.27247,1.858781 0.9659,0.41416 1.96214,0.254352 2.22461,-0.357716 0.26211,-0.612067 -0.30692,-1.444268 -1.27247,-1.858781 -0.96625,-0.414513 -1.96144,-0.254352 -2.22461,0.357716"
       style="fill:#7b7979;fill-opacity:1;fill-rule:nonzero;stroke:none;stroke-width:0.0352777"
       id="path462" />
    <path
       d="m -178.46614,33.24489 c -0.26282,0.611715 0.30727,1.444268 1.27247,1.858781 0.9659,0.41416 1.96214,0.254352 2.22461,-0.357716 0.26211,-0.612067 -0.30692,-1.444268 -1.27247,-1.858781 -0.96625,-0.414513 -1.96144,-0.254352 -2.22461,0.357716 z"
       style="fill:none;stroke:#231f20;stroke-width:0.137583;stroke-linecap:butt;stroke-linejoin:miter;stroke-miterlimit:4;stroke-dasharray:none;stroke-opacity:1"
       id="path464" />
    <path
       d="m -178.28904,33.442445 c -0.2406,0.560209 0.25082,1.309508 1.09713,1.672162 0.84667,0.363713 1.7279,0.203905 1.96815,-0.356304 0.24094,-0.559857 -0.25083,-1.308803 -1.09679,-1.672516 -0.84666,-0.362654 -1.72755,-0.203199 -1.96849,0.356658"
       style="fill:#ffffff;fill-opacity:1;fill-rule:nonzero;stroke:none;stroke-width:0.0352777"
       id="path466" />
    <path
       d="m -178.28904,33.442445 c -0.2406,0.560209 0.25082,1.309508 1.09713,1.672162 0.84667,0.363713 1.7279,0.203905 1.96815,-0.356304 0.24094,-0.559857 -0.25083,-1.308803 -1.09679,-1.672516 -0.84666,-0.362654 -1.72755,-0.203199 -1.96849,0.356658 z"
       style="fill:none;stroke:#231f20;stroke-width:0.137583;stroke-linecap:butt;stroke-linejoin:miter;stroke-miterlimit:4;stroke-dasharray:none;stroke-opacity:1"
       id="path468" />
    <path
       d="m -178.76423,35.482554 c 0.0688,-0.09102 0.29421,-0.03669 0.50376,0.121355 0.20885,0.157691 0.3242,0.35948 0.25541,0.450496 -0.0684,0.09102 -0.29492,0.03669 -0.50376,-0.121355 -0.2092,-0.157692 -0.32385,-0.35948 -0.25541,-0.450496"
       style="fill:#ffffff;fill-opacity:1;fill-rule:nonzero;stroke:none;stroke-width:0.0352777"
       id="path470" />
    <path
       d="m -178.76423,35.482554 c 0.0688,-0.09102 0.29421,-0.03669 0.50376,0.121355 0.20885,0.157691 0.3242,0.35948 0.25541,0.450496 -0.0684,0.09102 -0.29492,0.03669 -0.50376,-0.121355 -0.2092,-0.157692 -0.32385,-0.35948 -0.25541,-0.450496 z"
       style="fill:none;stroke:#231f20;stroke-width:0.137583;stroke-linecap:butt;stroke-linejoin:miter;stroke-miterlimit:4;stroke-dasharray:none;stroke-opacity:1"
       id="path472" />
    <path
       d="m -170.82146,27.640323 c 0,0.499532 -0.40534,0.905226 -0.90558,0.905226 -0.50059,0 -0.90593,-0.405694 -0.90593,-0.905226 0,-0.50059 0.40534,-0.905931 0.90593,-0.905931 0.50024,0 0.90558,0.405341 0.90558,0.905931"
       style="fill:#918f90;fill-opacity:1;fill-rule:nonzero;stroke:none;stroke-width:0.0352777"
       id="path474" />
    <path
       d="m -171.72704,25.183938 v 1.247419"
       style="fill:none;stroke:#918f90;stroke-width:0.229305;stroke-linecap:round;stroke-linejoin:round;stroke-miterlimit:4;stroke-dasharray:none;stroke-opacity:1"
       id="path476" />
    <path
       d="M -171.72669,30.096003 V 28.848231"
       style="fill:none;stroke:#918f90;stroke-width:0.229305;stroke-linecap:round;stroke-linejoin:round;stroke-miterlimit:4;stroke-dasharray:none;stroke-opacity:1"
       id="path478" />
    <path
       d="m -174.18272,27.63997 h 1.24742"
       style="fill:none;stroke:#918f90;stroke-width:0.229305;stroke-linecap:round;stroke-linejoin:round;stroke-miterlimit:4;stroke-dasharray:none;stroke-opacity:1"
       id="path480" />
    <path
       d="m -169.27101,27.639618 h -1.24777"
       style="fill:none;stroke:#918f90;stroke-width:0.229305;stroke-linecap:round;stroke-linejoin:round;stroke-miterlimit:4;stroke-dasharray:none;stroke-opacity:1"
       id="path482" />
    <path
       d="m -173.46376,25.90325 0.88229,0.882295"
       style="fill:none;stroke:#918f90;stroke-width:0.229305;stroke-linecap:round;stroke-linejoin:round;stroke-miterlimit:4;stroke-dasharray:none;stroke-opacity:1"
       id="path484" />
    <path
       d="m -169.99032,29.376338 -0.88194,-0.882295"
       style="fill:none;stroke:#918f90;stroke-width:0.229305;stroke-linecap:round;stroke-linejoin:round;stroke-miterlimit:4;stroke-dasharray:none;stroke-opacity:1"
       id="path486" />
    <path
       d="m -173.46341,29.376338 0.8823,-0.881942"
       style="fill:none;stroke:#918f90;stroke-width:0.229305;stroke-linecap:round;stroke-linejoin:round;stroke-miterlimit:4;stroke-dasharray:none;stroke-opacity:1"
       id="path488" />
    <path
       d="m -169.99032,25.90325 -0.88229,0.882295"
       style="fill:none;stroke:#918f90;stroke-width:0.229305;stroke-linecap:round;stroke-linejoin:round;stroke-miterlimit:4;stroke-dasharray:none;stroke-opacity:1"
       id="path490" />
  </g>
</svg>
