<?xml version="1.0" encoding="UTF-8" standalone="no"?>
<!-- Created with Inkscape (http://www.inkscape.org/) -->

<svg
   width="24.579132mm"
   height="15.008841mm"
   viewBox="0 0 24.579132 15.008841"
   version="1.1"
   id="svg1245"
   inkscape:version="1.2.2 (b0a8486541, 2022-12-01)"
   sodipodi:docname="sun_ok_notok.svg"
   xmlns:inkscape="http://www.inkscape.org/namespaces/inkscape"
   xmlns:sodipodi="http://sodipodi.sourceforge.net/DTD/sodipodi-0.dtd"
   xmlns="http://www.w3.org/2000/svg"
   xmlns:svg="http://www.w3.org/2000/svg">
  <sodipodi:namedview
     id="namedview1247"
     pagecolor="#ffffff"
     bordercolor="#666666"
     borderopacity="1.0"
     inkscape:showpageshadow="2"
     inkscape:pageopacity="0.0"
     inkscape:pagecheckerboard="0"
     inkscape:deskcolor="#d1d1d1"
     inkscape:document-units="mm"
     showgrid="false"
     inkscape:zoom="0.44542649"
     inkscape:cx="1111.2945"
     inkscape:cy="493.90866"
     inkscape:window-width="1366"
     inkscape:window-height="685"
     inkscape:window-x="0"
     inkscape:window-y="27"
     inkscape:window-maximized="1"
     inkscape:current-layer="layer1" />
  <defs
     id="defs1242" />
  <g
     inkscape:label="Layer 1"
     inkscape:groupmode="layer"
     id="layer1"
     transform="translate(188.70756,-18.037582)">
    <text
       xml:space="preserve"
       transform="scale(1,-1)"
       style="font-variant:normal;font-weight:normal;font-size:0.0352777px;font-family:Arial;-inkscape-font-specification:Arial;writing-mode:lr-tb;fill:#231f20;fill-opacity:1;fill-rule:nonzero;stroke:none;stroke-width:0.352777"
       id="text632"
       x="-188.70837"
       y="-18.037935"><tspan
         x="-188.70837"
         y="-18.037935"
         id="tspan630"
         style="stroke-width:0.352777">✩</tspan></text>
    <text
       xml:space="preserve"
       transform="scale(1,-1)"
       style="font-variant:normal;font-weight:normal;font-size:0.0352777px;font-family:Arial;-inkscape-font-specification:Arial;writing-mode:lr-tb;fill:#231f20;fill-opacity:1;fill-rule:nonzero;stroke:none;stroke-width:0.352777"
       id="text636"
       x="-186.2742"
       y="-18.037935"><tspan
         x="-186.2742"
         y="-18.037935"
         id="tspan634"
         style="stroke-width:0.352777">✌</tspan></text>
    <text
       xml:space="preserve"
       transform="scale(1,-1)"
       style="font-variant:normal;font-weight:normal;font-size:0.0352777px;font-family:Arial;-inkscape-font-specification:Arial;writing-mode:lr-tb;fill:#231f20;fill-opacity:1;fill-rule:nonzero;stroke:none;stroke-width:0.352777"
       id="text640"
       x="-183.80484"
       y="-18.037935"><tspan
         x="-183.80484 -181.3354"
         y="-18.037935"
         sodipodi:role="line"
         id="tspan638"
         style="stroke-width:0.352777">✱✖</tspan></text>
    <text
       xml:space="preserve"
       transform="scale(1,-1)"
       style="font-variant:normal;font-weight:normal;font-size:0.0352777px;font-family:Arial;-inkscape-font-specification:Arial;writing-mode:lr-tb;fill:#231f20;fill-opacity:1;fill-rule:nonzero;stroke:none;stroke-width:0.352777"
       id="text644"
       x="-178.86588"
       y="-18.073126"><tspan
         x="-178.86588 -176.43172"
         y="-18.073126"
         sodipodi:role="line"
         id="tspan642"
         style="stroke-width:0.352777">✤✥</tspan></text>
    <text
       xml:space="preserve"
       transform="scale(1,-1)"
       style="font-variant:normal;font-weight:normal;font-size:0.0352777px;font-family:Arial;-inkscape-font-specification:Arial;writing-mode:lr-tb;fill:#231f20;fill-opacity:1;fill-rule:nonzero;stroke:none;stroke-width:0.352777"
       id="text648"
       x="-173.92715"
       y="-18.037935"><tspan
         x="-173.92715 -171.52827 -169.05882 -166.55411"
         y="-18.037935"
         sodipodi:role="line"
         id="tspan646"
         style="stroke-width:0.352777">❤✗✘❤</tspan></text>
    <text
       xml:space="preserve"
       transform="scale(1,-1)"
       style="font-variant:normal;font-weight:normal;font-size:0.0352777px;font-family:Arial;-inkscape-font-specification:Arial;writing-mode:lr-tb;fill:#231f20;fill-opacity:1;fill-rule:nonzero;stroke:none;stroke-width:0.352777"
       id="text652"
       x="-164.15503"
       y="-18.037935"><tspan
         x="-164.15503"
         y="-18.037935"
         id="tspan650"
         style="stroke-width:0.352777">✘</tspan></text>
    <path
       d="m -187.71966,28.533137 c -0.04,-0.418111 -0.13585,-0.764114 -0.13585,-0.764114"
       style="fill:none;stroke:#231f20;stroke-width:0.137583;stroke-linecap:round;stroke-linejoin:round;stroke-miterlimit:4;stroke-dasharray:none;stroke-opacity:1"
       id="path658" />
    <path
       d="m -188.53034,28.934985 c 0,0 0.17667,-0.01517 0.25354,0.03101 0.15491,0.09313 0.16027,0.696452 0.16027,0.696452"
       style="fill:none;stroke:#231f20;stroke-width:0.137583;stroke-linecap:butt;stroke-linejoin:miter;stroke-miterlimit:4;stroke-dasharray:none;stroke-opacity:1"
       id="path660" />
    <path
       d="m -187.19765,32.308556 c 0,0 0.006,-0.568747 0.19583,-0.582788 0.21484,-0.01489 0.28084,0.22546 0.3376,0.656483"
       style="fill:none;stroke:#231f20;stroke-width:0.137583;stroke-linecap:butt;stroke-linejoin:miter;stroke-miterlimit:4;stroke-dasharray:none;stroke-opacity:1"
       id="path662" />
    <path
       d="m -186.41657,32.79567 c 0,0 -0.05,-0.523803 0.21096,-0.531211 0.3302,-0.0099 0.30621,0.537279 0.30621,0.537279"
       style="fill:none;stroke:#231f20;stroke-width:0.137583;stroke-linecap:butt;stroke-linejoin:miter;stroke-miterlimit:4;stroke-dasharray:none;stroke-opacity:1"
       id="path664" />
    <path
       d="m -185.75511,32.611979 c 0,0 -0.0514,-0.562644 0.20891,-0.570087 0.29171,-0.0085 0.33334,0.459985 0.33334,0.459985"
       style="fill:none;stroke:#231f20;stroke-width:0.137583;stroke-linecap:butt;stroke-linejoin:miter;stroke-miterlimit:4;stroke-dasharray:none;stroke-opacity:1"
       id="path666" />
    <path
       d="m -185.00119,31.279153 c 0,0 0.0461,-0.456811 0.28402,-0.41095 0.27767,0.05362 0.13861,0.530823 0.13861,0.530823"
       style="fill:none;stroke:#231f20;stroke-width:0.137583;stroke-linecap:butt;stroke-linejoin:miter;stroke-miterlimit:4;stroke-dasharray:none;stroke-opacity:1"
       id="path668" />
    <path
       d="m -186.63525,28.720427 c -0.0251,0.132291 -0.0412,2.505809 0.0703,3.564563"
       style="fill:none;stroke:#231f20;stroke-width:0.137583;stroke-linecap:round;stroke-linejoin:round;stroke-miterlimit:4;stroke-dasharray:none;stroke-opacity:1"
       id="path670" />
    <path
       d="m -185.59954,28.835467 c -0.11493,0.137936 -0.32247,1.173689 -0.19928,3.643797 0.002,0.0357 0.01,0.0678 0.0226,0.09592"
       style="fill:none;stroke:#231f20;stroke-width:0.137583;stroke-linecap:round;stroke-linejoin:round;stroke-miterlimit:4;stroke-dasharray:none;stroke-opacity:1"
       id="path672" />
    <path
       d="m -186.92425,21.593628 v 1.935722 c 0,0 -0.0105,0.576437 -0.11987,0.716842 -0.27838,0.358034 -1.31272,1.406169 -1.42201,1.983982 -0.0463,0.245286 -0.13614,3.131989 -0.0152,3.343655 0.121,0.211666 0.58032,0.08999 0.66463,-0.163018 0.0579,-0.17212 0.11991,-0.362549 0.11716,-0.598627 -0.002,-0.136137 -0.0138,-0.274073 -0.0305,-0.403224 l 0.005,-0.03387 c 0,0 0.25325,3.459683 0.49099,3.896774 0.21456,0.394404 0.69963,0.124601 0.66118,-0.03595 h -0.002 c 0.0244,0.227929 0.0547,0.397544 0.0929,0.473356 0.16372,0.327836 0.58938,0.298061 0.69038,-0.124424 l 0.0152,-0.0097 c 0.0977,0.214559 0.47336,0.219534 0.56829,-0.06491 0.0279,-0.08569 0.10862,-0.821159 0.17463,-1.45838 l 0.0149,-0.05951 c -0.004,0.150883 6.7e-4,0.269134 0.0172,0.336091 0.0505,0.200095 0.43353,0.39123 0.61418,-0.337184 0.17999,-0.72912 0.40845,-2.297601 0.502,-3.329473 0.10337,-1.139505 -0.20736,-1.988921 -0.23741,-2.321731 -0.0301,-0.332916 0,-0.812763 0.078,-1.546821 0.0561,-0.528495 0.23428,-1.734674 0.23428,-1.734674"
       style="fill:none;stroke:#231f20;stroke-width:0.229305;stroke-linecap:round;stroke-linejoin:round;stroke-miterlimit:4;stroke-dasharray:none;stroke-opacity:1"
       id="path674" />
    <path
       d="m -184.71717,28.597625 c -0.0448,0.09564 -0.25936,1.666201 -0.31475,2.43349"
       style="fill:none;stroke:#231f20;stroke-width:0.137583;stroke-linecap:round;stroke-linejoin:round;stroke-miterlimit:4;stroke-dasharray:none;stroke-opacity:1"
       id="path676" />
    <path
       d="m -187.92469,22.37718 h 4.95306 v -1.991122 h -4.95306 z"
       style="fill:#7b7879;fill-opacity:1;fill-rule:nonzero;stroke:none;stroke-width:0.0352777"
       id="path678" />
    <path
       d="m -187.53445,24.665009 h 3.73517 v -1.192414 h -3.73517 z"
       style="fill:#231f20;fill-opacity:1;fill-rule:nonzero;stroke:none;stroke-width:0.0352777"
       id="path680" />
    <path
       d="m -184.36013,24.092417 c 0,0.649074 -0.52683,1.175453 -1.17615,1.175453 -0.64947,0 -1.17546,-0.526379 -1.17546,-1.175453 0,-0.649462 0.52599,-1.175876 1.17546,-1.175876 0.64932,0 1.17615,0.526414 1.17615,1.175876"
       style="fill:#ffffff;fill-opacity:1;fill-rule:nonzero;stroke:none;stroke-width:0.0352777"
       id="path682" />
    <path
       d="m -184.36013,24.092417 c 0,0.649074 -0.52683,1.175453 -1.17615,1.175453 -0.64947,0 -1.17546,-0.526379 -1.17546,-1.175453 0,-0.649462 0.52599,-1.175876 1.17546,-1.175876 0.64932,0 1.17615,0.526414 1.17615,1.175876 z"
       style="fill:none;stroke:#231f20;stroke-width:0.687915;stroke-linecap:butt;stroke-linejoin:miter;stroke-miterlimit:4;stroke-dasharray:none;stroke-opacity:1"
       id="path684" />
    <path
       d="m -173.45198,28.533561 c -0.0399,-0.418535 -0.13582,-0.764538 -0.13582,-0.764538"
       style="fill:none;stroke:#231f20;stroke-width:0.137583;stroke-linecap:round;stroke-linejoin:round;stroke-miterlimit:4;stroke-dasharray:none;stroke-opacity:1"
       id="path686" />
    <path
       d="m -174.26266,28.934985 c 0,0 0.17674,-0.01517 0.25364,0.0314 0.15487,0.09317 0.16016,0.696064 0.16016,0.696064"
       style="fill:none;stroke:#231f20;stroke-width:0.137583;stroke-linecap:butt;stroke-linejoin:miter;stroke-miterlimit:4;stroke-dasharray:none;stroke-opacity:1"
       id="path688" />
    <path
       d="m -172.93022,32.309226 c 0,0 0.007,-0.568571 0.19614,-0.583034 0.21449,-0.01446 0.28081,0.225706 0.33725,0.656482"
       style="fill:none;stroke:#231f20;stroke-width:0.137583;stroke-linecap:butt;stroke-linejoin:miter;stroke-miterlimit:4;stroke-dasharray:none;stroke-opacity:1"
       id="path690" />
    <path
       d="m -172.14882,32.796517 c 0,0 -0.0501,-0.523945 0.21096,-0.531388 0.3302,-0.0098 0.30621,0.536609 0.30621,0.536609"
       style="fill:none;stroke:#231f20;stroke-width:0.137583;stroke-linecap:butt;stroke-linejoin:miter;stroke-miterlimit:4;stroke-dasharray:none;stroke-opacity:1"
       id="path692" />
    <path
       d="m -171.48737,32.612685 c 0,0 -0.0519,-0.562679 0.20885,-0.570511 0.29174,-0.0081 0.33302,0.460409 0.33302,0.460409"
       style="fill:none;stroke:#231f20;stroke-width:0.137583;stroke-linecap:butt;stroke-linejoin:miter;stroke-miterlimit:4;stroke-dasharray:none;stroke-opacity:1"
       id="path694" />
    <path
       d="m -170.73419,31.279823 c 0,0 0.0466,-0.456811 0.28434,-0.410915 0.27764,0.05359 0.13829,0.530965 0.13829,0.530965"
       style="fill:none;stroke:#231f20;stroke-width:0.137583;stroke-linecap:butt;stroke-linejoin:miter;stroke-miterlimit:4;stroke-dasharray:none;stroke-opacity:1"
       id="path696" />
    <path
       d="m -172.3679,28.720815 c -0.0251,0.131903 -0.0413,2.505421 0.0702,3.564422"
       style="fill:none;stroke:#231f20;stroke-width:0.137583;stroke-linecap:round;stroke-linejoin:round;stroke-miterlimit:4;stroke-dasharray:none;stroke-opacity:1"
       id="path698" />
    <path
       d="m -171.3325,28.835749 c -0.11465,0.137936 -0.32208,1.1745 -0.19896,3.643939 0.001,0.03556 0.01,0.06809 0.0226,0.09592"
       style="fill:none;stroke:#231f20;stroke-width:0.137583;stroke-linecap:round;stroke-linejoin:round;stroke-miterlimit:4;stroke-dasharray:none;stroke-opacity:1"
       id="path700" />
    <path
       d="m -172.65682,21.594051 v 1.935722 c 0,0 -0.0109,0.576438 -0.11995,0.716702 -0.27834,0.358174 -1.31268,1.406556 -1.42204,1.984087 -0.0462,0.24518 -0.13617,3.132024 -0.0155,3.343973 0.12135,0.211666 0.58067,0.08957 0.66498,-0.163054 0.0572,-0.17279 0.11995,-0.362549 0.11677,-0.598874 -0.002,-0.13656 -0.0138,-0.274249 -0.03,-0.402942 l 0.005,-0.03418 c 0,0 0.25329,3.459966 0.49106,3.897091 0.21449,0.394123 0.69956,0.124566 0.66111,-0.03665 h -0.002 c 0.0243,0.228211 0.0547,0.397544 0.0928,0.473779 0.16369,0.327695 0.58914,0.298485 0.69038,-0.1246 l 0.0152,-0.0099 c 0.097,0.215265 0.47343,0.219534 0.56797,-0.06449 0.0282,-0.08573 0.10866,-0.8213 0.17498,-1.457956 l 0.0148,-0.06008 c -0.005,0.151447 7e-4,0.269521 0.0169,0.335808 0.0501,0.200801 0.43356,0.39123 0.61454,-0.336796 0.17992,-0.729225 0.40851,-2.297707 0.502,-3.329579 0.10336,-1.139364 -0.20743,-1.989203 -0.23742,-2.32159 -0.0303,-0.333056 0,-0.81248 0.078,-1.546997 0.0561,-0.528319 0.23424,-1.734251 0.23424,-1.734251"
       style="fill:none;stroke:#231f20;stroke-width:0.229305;stroke-linecap:round;stroke-linejoin:round;stroke-miterlimit:4;stroke-dasharray:none;stroke-opacity:1"
       id="path702" />
    <path
       d="m -170.4495,28.598048 c -0.0448,0.09522 -0.25929,1.666166 -0.31467,2.433067"
       style="fill:none;stroke:#231f20;stroke-width:0.137583;stroke-linecap:round;stroke-linejoin:round;stroke-miterlimit:4;stroke-dasharray:none;stroke-opacity:1"
       id="path704" />
    <path
       d="m -173.27348,24.665256 h 3.73517 v -1.192689 h -3.73517 z"
       style="fill:#231f20;fill-opacity:1;fill-rule:nonzero;stroke:none;stroke-width:0.0352777"
       id="path706" />
    <path
       d="m -170.09884,24.092417 c 0,0.649462 -0.52669,1.175735 -1.17616,1.175735 -0.64875,0 -1.17545,-0.526273 -1.17545,-1.175735 0,-0.64918 0.5267,-1.175876 1.17545,-1.175876 0.64947,0 1.17616,0.526696 1.17616,1.175876"
       style="fill:#ffffff;fill-opacity:1;fill-rule:nonzero;stroke:none;stroke-width:0.0352777"
       id="path708" />
    <path
       d="m -170.09884,24.092417 c 0,0.649462 -0.52669,1.175735 -1.17616,1.175735 -0.64875,0 -1.17545,-0.526273 -1.17545,-1.175735 0,-0.64918 0.5267,-1.175876 1.17545,-1.175876 0.64947,0 1.17616,0.526696 1.17616,1.175876 z"
       style="fill:none;stroke:#231f20;stroke-width:0.687915;stroke-linecap:butt;stroke-linejoin:miter;stroke-miterlimit:4;stroke-dasharray:none;stroke-opacity:1"
       id="path710" />
    <path
       d="m -173.87073,24.081798 h 4.95281 v -3.695761 h -4.95281 z"
       style="fill:#7b7879;fill-opacity:1;fill-rule:nonzero;stroke:none;stroke-width:0.0352777"
       id="path712" />
    <path
       d="m -181.53198,26.03971 c 0,-0.771135 0.62759,-1.398407 1.39876,-1.398407 0.77081,0 1.3977,0.627272 1.3977,1.398407 0,0.77117 -0.62689,1.39802 -1.3977,1.39802 -0.77117,0 -1.39876,-0.62685 -1.39876,-1.39802 z m -0.54998,0 c 0,1.074594 0.87383,1.947999 1.94874,1.947999 1.07385,0 1.94803,-0.873405 1.94803,-1.947999 0,-1.074594 -0.87418,-1.94881 -1.94803,-1.94881 -1.07491,0 -1.94874,0.874216 -1.94874,1.94881"
       style="fill:#231f20;fill-opacity:1;fill-rule:nonzero;stroke:none;stroke-width:0.0352777"
       id="path714" />
    <path
       d="m -164.1743,24.628885 -0.38911,-0.388725 -1.40864,1.409026 -1.4097,-1.409026 -0.38876,0.388725 1.40934,1.409449 -1.40934,1.408921 0.38876,0.389148 1.4097,-1.409026 1.40864,1.409026 0.38911,-0.389148 -1.40899,-1.408921 1.40899,-1.409449"
       style="fill:#231f20;fill-opacity:1;fill-rule:nonzero;stroke:none;stroke-width:0.0352777"
       id="path716" />
  </g>
</svg>
