<?xml version="1.0" encoding="UTF-8" standalone="no"?>
<!-- Created with Inkscape (http://www.inkscape.org/) -->

<svg
   width="53.000145mm"
   height="14.242724mm"
   viewBox="0 0 53.000145 14.242724"
   version="1.1"
   id="svg419"
   inkscape:version="1.2.2 (b0a8486541, 2022-12-01)"
   sodipodi:docname="two10:58.svg"
   xmlns:inkscape="http://www.inkscape.org/namespaces/inkscape"
   xmlns:sodipodi="http://sodipodi.sourceforge.net/DTD/sodipodi-0.dtd"
   xmlns="http://www.w3.org/2000/svg"
   xmlns:svg="http://www.w3.org/2000/svg">
  <sodipodi:namedview
     id="namedview421"
     pagecolor="#ffffff"
     bordercolor="#666666"
     borderopacity="1.0"
     inkscape:showpageshadow="2"
     inkscape:pageopacity="0.0"
     inkscape:pagecheckerboard="0"
     inkscape:deskcolor="#d1d1d1"
     inkscape:document-units="mm"
     showgrid="false"
     inkscape:zoom="0.44542649"
     inkscape:cx="1162.9304"
     inkscape:cy="466.96819"
     inkscape:window-width="1366"
     inkscape:window-height="685"
     inkscape:window-x="0"
     inkscape:window-y="27"
     inkscape:window-maximized="1"
     inkscape:current-layer="layer1" />
  <defs
     id="defs416">
    <clipPath
       clipPathUnits="userSpaceOnUse"
       id="clipPath220">
      <path
         d="m 3075.59,1659.29 h 680.328 v 340.16 H 3075.59 Z"
         id="path218" />
    </clipPath>
  </defs>
  <g
     inkscape:label="Layer 1"
     inkscape:groupmode="layer"
     id="layer1"
     transform="translate(202.32407,-24.954638)">
    <text
       xml:space="preserve"
       transform="scale(1,-1)"
       style="font-variant:normal;font-weight:normal;font-size:0.0352777px;font-family:Arial;-inkscape-font-specification:Arial;writing-mode:lr-tb;fill:#231f20;fill-opacity:1;fill-rule:nonzero;stroke:none;stroke-width:0.352777"
       id="text164"
       x="-194.58189"
       y="-24.955137"><tspan
         x="-194.58189 -192.46523 -190.34857 -188.2319 -165.58363 -163.46696 -161.35031 -159.23364"
         y="-24.955137"
         sodipodi:role="line"
         id="tspan162"
         style="stroke-width:0.352777">✛✜✢✣✣✜✢✛</tspan></text>
    <path
       d="m -202.25351,39.126806 h 23.85901 V 27.267858 h -23.85901 z"
       style="fill:none;stroke:#231f20;stroke-width:0.141111;stroke-linecap:round;stroke-linejoin:round;stroke-miterlimit:10;stroke-dasharray:none;stroke-opacity:1"
       id="path166" />
    <path
       d="m -197.93658,36.454874 1.39418,-0.769406 0.0885,-1.79634 -0.0885,-0.04798 -0.0953,-0.04621 -0.0889,-0.04798 -0.0878,-0.05786 -0.0879,-0.05433 -0.0878,-0.05786 -0.0808,-0.05574 -0.0885,-0.0635 -0.0797,-0.07338 -0.0723,-0.0635 -0.0804,-0.07126 -0.0713,-0.07338 h -0.12841 l -0.036,0.02928 -0.0363,0.03634 -0.0317,0.03246 -0.0293,0.03704 -0.0272,0.03422 -0.0236,0.03881 -0.0236,0.04269 -0.0247,0.04621 -0.0166,0.04798 -0.007,0.04022 -0.008,0.04233 -0.01,0.04868 -0.006,0.05362 -0.0166,0.456846 -0.0162,0.456846 -0.0155,0.456846 -0.008,0.464254 v 0.457199"
       style="fill:#231f20;fill-opacity:1;fill-rule:nonzero;stroke:none;stroke-width:0.0352777"
       id="path168" />
    <path
       d="m -193.79427,36.536013 0.0487,-0.474838 0.0399,-0.472015 0.0487,-0.481541 0.0317,-0.472368 0.0321,-0.479424 0.0321,-0.474838 v -0.08678 l -0.006,-0.05186 -0.01,-0.04022 -0.009,-0.03669 -0.0159,-0.04022 -0.0155,-0.04092 -0.0243,-0.03881 -0.0272,-0.04198 -0.0208,-0.02928 -0.0317,-0.03986 -0.0247,-0.0254 -0.0314,-0.03281 h -0.121 l -0.0801,0.07338 -0.0801,0.07126 -0.0878,0.07338 -0.0885,0.07126 -0.0878,0.06562 -0.0882,0.06315 -0.096,0.05609 -0.097,0.05609 -0.0949,0.04798 -0.10195,0.05433 -0.0988,0.04233 -0.10477,0.04798 -0.0885,1.682394 0.82656,1.545868 0.0395,-0.01729 0.0476,-0.02293 0.0473,-0.02328 0.0402,-0.02293 0.0332,-0.0254 0.0356,-0.03246 0.0296,-0.03245 0.031,-0.03105 0.0317,-0.04092 0.024,-0.03246 0.0247,-0.0381 0.0236,-0.04868 0.0159,-0.04022 0.0162,-0.04833 0.0123,-0.04057 0.0116,-0.04833"
       style="fill:#231f20;fill-opacity:1;fill-rule:nonzero;stroke:none;stroke-width:0.0352777"
       id="path170" />
    <path
       d="m -193.44114,29.836074 -0.005,-0.04868 -0.003,-0.04022 -0.008,-0.04798 -0.0141,-0.04445 -0.0148,-0.04233 -0.0166,-0.03739 -0.0194,-0.03598 -0.0236,-0.04092 -0.0236,-0.03034 -0.03,-0.03845 -0.0261,-0.0254 -0.0402,-0.03457 -0.0325,-0.02716 -0.0314,-0.0194 -1.10631,1.465082 -0.0723,1.395233 0.0882,0.04868 0.0959,0.04798 0.0879,0.04798 0.0889,0.05609 0.0885,0.05609 0.085,0.05962 0.0829,0.06138 0.0875,0.06562 0.0804,0.06209 0.0748,0.06703 0.0787,0.07197 0.0709,0.07691 h 0.121 l 0.0395,-0.03316 0.0317,-0.03069 0.0402,-0.03986 0.0243,-0.03104 0.0314,-0.04304 0.0243,-0.03246 0.0243,-0.04657 0.0166,-0.04163 0.0148,-0.04515 0.0166,-0.0501 0.008,-0.04586 0.006,-0.05786 0.002,-0.04057 0.0236,-0.50306 0.008,-0.505177 0.0166,-0.512585 v -0.504823"
       style="fill:#231f20;fill-opacity:1;fill-rule:nonzero;stroke:none;stroke-width:0.0352777"
       id="path172" />
    <path
       d="m -194.55486,37.167483 -0.70485,-1.321855 h -1.00964 l -1.63513,0.905932 0.0162,0.04022 0.0236,0.04868 0.0243,0.0381 0.0279,0.04092 0.0205,0.03105 0.0321,0.03245 0.0328,0.02857 0.0381,0.03104 0.0406,0.02893 0.0321,0.01517 0.0392,0.02152 0.0497,0.01905 0.0399,0.01552 0.048,0.0078 0.0441,0.006 0.0437,0.0035 0.35242,0.01376 0.34537,0.0095 h 0.35242 l 0.34467,0.0078 0.35242,-0.0078 h 0.34466 l 0.35207,-0.0095"
       style="fill:#231f20;fill-opacity:1;fill-rule:nonzero;stroke:none;stroke-width:0.0352777"
       id="path174" />
    <path
       d="m -199.25773,36.541657 0.0469,-0.472368 0.0483,-0.480129 0.0406,-0.481541 0.0399,-0.472368 0.0314,-0.479424 0.0321,-0.482599 v -0.08643 l -0.005,-0.04657 -0.008,-0.04233 -0.01,-0.04022 -0.0166,-0.04022 -0.0155,-0.04092 -0.0236,-0.03845 -0.0166,-0.03281 -0.0296,-0.04233 -0.0268,-0.02857 -0.0325,-0.03528 -0.0318,-0.02328 h -0.031 l -0.0727,0.07338 -0.0804,0.06385 -0.0713,0.0635 -0.0808,0.06562 -0.0804,0.0635 -0.0797,0.05574 -0.0885,0.04868 -0.0878,0.05574 -0.0878,0.04798 -0.0889,0.04057 -0.0952,0.04057 -0.0885,0.03845 -0.0963,0.04233 -0.096,0.03104 -0.0882,1.682393 0.84949,1.530346 0.0476,-0.01517 0.0402,-0.02469 0.0402,-0.02328 0.0406,-0.0254 0.0402,-0.03034 0.0321,-0.03316 0.0314,-0.03316 0.0318,-0.03881 0.0247,-0.04022 0.0236,-0.04022 0.024,-0.04022 0.0219,-0.04833 0.0145,-0.04586 0.0113,-0.04304 0.009,-0.04586"
       style="fill:#231f20;fill-opacity:1;fill-rule:nonzero;stroke:none;stroke-width:0.0352777"
       id="path176" />
    <path
       d="m -197.58345,29.851243 -0.0483,0.50553 -0.0476,0.512584 -0.0487,0.504824 -0.0399,0.512585 -0.0321,0.505529 0.002,0.08043 0.006,0.05645 0.008,0.0381 0.008,0.04022 0.0159,0.04833 0.0155,0.04057 0.0247,0.04057 0.0215,0.03457 0.0258,0.03669 0.0268,0.03246 0.0293,0.03104 0.0328,0.03316 h 0.1203 l 0.0801,-0.07902 0.0801,-0.07408 0.0878,-0.07091 0.0878,-0.06597 0.0889,-0.06315 0.0885,-0.0635 0.0952,-0.05574 0.0963,-0.05644 0.0959,-0.05574 0.0963,-0.05009 0.10442,-0.04586 0.10407,-0.04092 0.0723,-1.458732 -1.18674,-1.185683 -0.0233,0.04022 -0.0247,0.04868 -0.0159,0.04022 -0.0145,0.03669 -0.0176,0.05045 -0.008,0.04798"
       style="fill:#231f20;fill-opacity:1;fill-rule:nonzero;stroke:none;stroke-width:0.0352777"
       id="path178" />
    <path
       d="m -200.30018,30.787866 1.11371,-1.474255 0.0395,0.02469 0.0328,0.02469 0.0321,0.03104 0.0325,0.03528 0.0236,0.03034 0.0286,0.03845 0.019,0.03281 0.0173,0.03528 0.0159,0.03986 0.0155,0.0448 0.008,0.03281 0.008,0.04445 0.008,0.05151 v 0.553507 l -0.009,0.512584 -0.008,0.512585 -0.0162,0.512585 -0.0159,0.504824 v 0.04657 l -0.006,0.05221 -0.01,0.04621 -0.0127,0.04445 -0.0148,0.03845 -0.0212,0.0441 -0.0208,0.04304 -0.0198,0.03387 -0.0307,0.04516 -0.0303,0.0381 -0.0339,0.03245 -0.0325,0.03104 -0.0391,0.03316 h -0.0402 l -0.0723,-0.07197 -0.0639,-0.06279 -0.0727,-0.06632 -0.0723,-0.05574 -0.072,-0.06315 -0.0801,-0.05574 -0.0801,-0.04904 -0.0801,-0.0575 -0.0804,-0.04657 -0.0882,-0.04022 -0.0794,-0.04833 -0.0889,-0.04057 -0.0879,-0.03034 -0.0878,-0.03316"
       style="fill:#231f20;fill-opacity:1;fill-rule:nonzero;stroke:none;stroke-width:0.0352777"
       id="path180" />
    <path
       d="m -196.9107,29.226475 -0.0494,0.0042 -0.0437,0.006 -0.0462,0.0095 -0.0529,0.0134 -0.0455,0.01905 -0.043,0.01976 -0.048,0.02469 -0.0402,0.02328 1.20191,1.195208 h 1.08268 l 0.98495,-1.315153 -1.08973,-0.02258 h -0.72954 l -0.35983,0.0078 -0.36089,0.0074"
       style="fill:#231f20;fill-opacity:1;fill-rule:nonzero;stroke:none;stroke-width:0.0352777"
       id="path182" />
    <path
       d="m -186.26178,33.041052 -0.0713,-0.07126 -0.0808,-0.06526 -0.0723,-0.06385 -0.0804,-0.06385 -0.0787,-0.05574 -0.0804,-0.05715 -0.0878,-0.04904 -0.0808,-0.05397 -0.0889,-0.0501 -0.0878,-0.0381 -0.0949,-0.04833 -0.0882,-0.04057 h -0.99518 l -0.096,0.04057 -0.0963,0.04057 -0.096,0.04586 -0.0952,0.0501 -0.0878,0.04657 -0.097,0.04798 -0.0889,0.05574 -0.0857,0.06562 -0.09,0.06385 -0.0797,0.06385 -0.0794,0.06526 -0.0808,0.07126 0.0723,0.0635 0.0713,0.07126 0.0808,0.05856 0.0797,0.06315 0.0815,0.05574 0.0787,0.05574 0.0815,0.05645 0.0868,0.04798 0.0878,0.04798 0.0889,0.04868 0.0878,0.04022 0.0963,0.03881 h 0.98601 l 0.096,-0.03881 0.10336,-0.04022 0.097,-0.03881 0.0879,-0.05009 0.0963,-0.04798 0.096,-0.05609 0.0878,-0.05574 0.0889,-0.05609 0.0808,-0.06385 0.0868,-0.06562 0.0804,-0.07126"
       style="fill:#231f20;fill-opacity:1;fill-rule:nonzero;stroke:none;stroke-width:0.0352777"
       id="path184" />
    <path
       d="m -186.6703,37.167483 -0.7059,-1.321855 h -1.00965 l -1.62595,0.905932 0.0166,0.04022 0.0229,0.04868 0.0166,0.03246 0.0236,0.03881 0.0332,0.03881 0.031,0.03598 0.0318,0.02893 0.0332,0.02328 0.0392,0.02893 0.0395,0.02293 0.0402,0.0194 0.0413,0.01729 0.0487,0.01552 0.0402,0.0078 0.0519,0.0078 0.0349,0.0018 0.35242,0.01376 0.35243,0.0095 h 0.34537 l 0.35242,0.0078 0.34502,-0.0078 h 0.35348 l 0.34325,-0.0095"
       style="fill:#231f20;fill-opacity:1;fill-rule:nonzero;stroke:none;stroke-width:0.0352777"
       id="path186" />
    <path
       d="m -185.9083,36.536013 0.0476,-0.474838 0.0483,-0.472015 0.0395,-0.481541 0.0402,-0.472368 0.0321,-0.479424 0.0321,-0.474838 v -0.08678 l -0.008,-0.05009 -0.006,-0.03845 -0.0116,-0.03881 -0.0145,-0.04163 -0.0173,-0.04092 -0.0219,-0.03881 -0.03,-0.04022 -0.0247,-0.03104 -0.031,-0.03634 -0.0268,-0.02681 -0.0321,-0.03493 h -0.11995 l -0.0702,0.06738 -0.0942,0.08502 -0.0847,0.06562 -0.0878,0.07126 -0.0878,0.06562 -0.0889,0.06315 -0.0889,0.05609 -0.10337,0.05609 -0.0949,0.05362 -0.0963,0.05009 -0.10442,0.04868 -0.096,0.04022 -0.0889,1.682394 0.81739,1.545868 0.0487,-0.01729 0.0423,-0.02117 0.037,-0.01729 0.0406,-0.02716 0.0402,-0.02893 0.0402,-0.03457 0.031,-0.03034 0.0332,-0.03105 0.0342,-0.04092 0.0215,-0.03246 0.0247,-0.0381 0.0208,-0.04868 0.0187,-0.04022 0.0145,-0.04445 0.009,-0.04269 0.008,-0.05009"
       style="fill:#231f20;fill-opacity:1;fill-rule:nonzero;stroke:none;stroke-width:0.0352777"
       id="path188" />
    <path
       d="m -189.02649,29.226475 h -0.0434 l -0.0526,0.0081 -0.0497,0.01164 -0.0466,0.0134 -0.0402,0.01588 -0.0487,0.02293 -0.0392,0.02469 -0.0395,0.02328 1.19273,1.195208 h 1.08338 l 0.99307,-1.315153 -0.36901,-0.0074 -0.35948,-0.0074 -0.35983,-0.0078 h -0.7306 l -0.36089,0.0078 -0.36795,0.0074"
       style="fill:#231f20;fill-opacity:1;fill-rule:nonzero;stroke:none;stroke-width:0.0352777"
       id="path190" />
    <path
       d="m -189.69112,29.851243 -0.0557,0.50553 -0.0487,0.512584 -0.0402,0.504824 -0.0402,0.512585 -0.0385,0.505529 v 0.08784 l 0.005,0.04692 0.0102,0.04022 0.01,0.04445 0.0134,0.03634 0.0173,0.04057 0.0187,0.03845 0.0208,0.03457 h 0.39264 l 0.0889,-0.07303 0.0878,-0.0635 0.0878,-0.06385 0.096,-0.06526 0.0963,-0.0635 0.096,-0.05644 0.0974,-0.05574 0.0959,-0.05009 0.10337,-0.04586 0.10442,-0.04092 0.0713,-1.458732 -1.18533,-1.185683 -0.0236,0.04022 -0.0208,0.04304 -0.0187,0.04586 -0.0176,0.04621 -0.006,0.03316 -0.0113,0.05009"
       style="fill:#231f20;fill-opacity:1;fill-rule:nonzero;stroke:none;stroke-width:0.0352777"
       id="path192" />
    <path
       d="m -180.44519,36.536013 0.0497,-0.474838 0.0392,-0.472015 0.0413,-0.481541 0.0402,-0.472368 0.031,-0.479424 0.0321,-0.474838 v -0.09419 l -0.007,-0.05009 -0.008,-0.04657 -0.0166,-0.04798 -0.0155,-0.04092 -0.0247,-0.04798 -0.0247,-0.04022 h -0.39088 l -0.0889,0.07126 -0.0878,0.07338 -0.0889,0.0635 -0.097,0.06562 -0.0857,0.05539 -0.0963,0.0568 -0.10443,0.05539 -0.097,0.04833 -0.10442,0.04833 -0.10336,0.04798 -0.0889,1.682394 0.82585,1.545868 0.0402,-0.01729 0.0476,-0.02293 0.0413,-0.02152 0.0395,-0.02681 0.0318,-0.02328 0.0395,-0.03246 0.0339,-0.03245 0.031,-0.03105 0.031,-0.04092 0.024,-0.03246 0.0257,-0.0381 0.0226,-0.04868 0.0176,-0.04022 0.0145,-0.04833 0.0155,-0.04657 0.009,-0.04233"
       style="fill:#231f20;fill-opacity:1;fill-rule:nonzero;stroke:none;stroke-width:0.0352777"
       id="path194" />
    <path
       d="m -180.14745,32.366543 0.0247,-0.503413 0.007,-0.504824 0.008,-0.512585 0.008,-0.504823 v -0.593724 l -0.0116,-0.04445 -0.0123,-0.0441 -0.0155,-0.04657 -0.0155,-0.0381 -0.0173,-0.03528 -0.025,-0.03845 -0.0226,-0.03281 -0.0258,-0.02822 -0.0289,-0.02893 -0.0395,-0.03739 -0.0349,-0.02681 -0.031,-0.02328 -1.10702,1.465082 -0.0797,1.395233 0.1912,0.09666 0.0889,0.05574 0.0889,0.04798 0.0878,0.05644 0.0878,0.0635 0.0879,0.0575 0.0797,0.06385 0.0808,0.07161 0.0804,0.06491 h 0.40817 l 0.025,-0.03457 0.0236,-0.04022 0.0236,-0.04621 0.0155,-0.04057 0.0176,-0.04092 0.0134,-0.04974 0.01,-0.04445 0.004,-0.04798"
       style="fill:#231f20;fill-opacity:1;fill-rule:nonzero;stroke:none;stroke-width:0.0352777"
       id="path196" />
    <path
       d="m -180.80397,33.041052 -0.0723,-0.07126 -0.0808,-0.06526 -0.0713,-0.06385 -0.0804,-0.06385 -0.0797,-0.05574 -0.0804,-0.05715 -0.0889,-0.04904 -0.0797,-0.05397 -0.0878,-0.0501 -0.0878,-0.0381 -0.097,-0.04833 -0.0878,-0.04057 h -0.99342 l -0.097,0.04057 -0.0952,0.04057 -0.096,0.04586 -0.0974,0.0501 -0.0878,0.04657 -0.096,0.04798 -0.0878,0.05574 -0.0878,0.06562 -0.0878,0.06385 -0.0818,0.06385 -0.0783,0.06526 -0.0808,0.07126 0.0723,0.0635 0.0713,0.07126 0.0808,0.05856 0.0797,0.06315 0.0804,0.05574 0.0787,0.05574 0.0815,0.05645 0.0878,0.04798 0.0889,0.04798 0.0878,0.04868 0.0878,0.04022 0.0974,0.03881 h 0.98496 l 0.0959,-0.03881 0.10336,-0.04022 0.0963,-0.03881 0.0885,-0.05009 0.0974,-0.04798 0.096,-0.05609 0.0857,-0.05574 0.09,-0.05609 0.0808,-0.06385 0.0868,-0.06562 0.0804,-0.07126"
       style="fill:#231f20;fill-opacity:1;fill-rule:nonzero;stroke:none;stroke-width:0.0352777"
       id="path198" />
    <path
       d="m -181.21213,37.167483 -0.70591,-1.321855 h -1.00964 l -1.62595,0.905932 0.0145,0.04022 0.0229,0.04868 0.0187,0.03246 0.0215,0.03881 0.0342,0.03881 0.031,0.03598 0.0311,0.02893 0.0339,0.02328 0.0385,0.02893 0.0413,0.02293 0.0402,0.0194 0.0402,0.01729 0.0476,0.01552 0.0402,0.0078 0.0519,0.0078 0.036,0.0018 0.35242,0.01376 0.35242,0.0095 h 0.34431 l 0.35349,0.0078 0.34431,-0.0078 h 0.35313 l 0.34431,-0.0095"
       style="fill:#231f20;fill-opacity:1;fill-rule:nonzero;stroke:none;stroke-width:0.0352777"
       id="path200" />
    <path
       d="m -183.56868,29.226475 h -0.0455 l -0.0515,0.0081 -0.0508,0.01164 -0.0445,0.0134 -0.0392,0.01588 -0.0487,0.02293 -0.0413,0.02469 -0.0402,0.02328 1.19451,1.195208 h 1.08232 l 0.99306,-1.315153 -0.72954,-0.01482 -0.35983,-0.0078 h -0.72955 l -0.35983,0.0078 -0.36971,0.0074"
       style="fill:#231f20;fill-opacity:1;fill-rule:nonzero;stroke:none;stroke-width:0.0352777"
       id="path202" />
    <path
       d="m -184.23402,29.851243 -0.0557,0.50553 -0.0487,0.512584 -0.0413,0.504824 -0.0381,0.512585 -0.0395,0.505529 v 0.08784 l 0.005,0.04692 0.0102,0.04022 0.0102,0.04445 0.0138,0.03634 0.0162,0.04057 0.0198,0.03845 0.0208,0.03457 h 0.39053 l 0.0889,-0.07303 0.0889,-0.0635 0.0868,-0.06385 0.097,-0.06526 0.0963,-0.0635 0.096,-0.05644 0.0963,-0.05574 0.096,-0.05009 0.10442,-0.04586 0.10337,-0.04092 0.0723,-1.458732 -1.18533,-1.185683 -0.0236,0.04022 -0.0208,0.04304 -0.0198,0.04586 -0.0155,0.04621 -0.008,0.03316 -0.009,0.05009"
       style="fill:#231f20;fill-opacity:1;fill-rule:nonzero;stroke:none;stroke-width:0.0352777"
       id="path204" />
    <path
       d="m -184.5875,36.454874 1.38818,-0.769406 0.0959,-1.79634 -0.0959,-0.04798 -0.0963,-0.04621 -0.0889,-0.04798 -0.0878,-0.05786 -0.0889,-0.05433 -0.0868,-0.05786 -0.0889,-0.0635 -0.0804,-0.0635 -0.0797,-0.06562 -0.0804,-0.07126 h -0.40851 l -0.0236,0.03246 -0.0247,0.04304 -0.0229,0.04586 -0.0187,0.03881 -0.0145,0.04798 -0.0155,0.05009 -0.008,0.03881 -0.008,0.04798 -0.01,0.04798 -0.0145,0.456846 -0.0155,0.456846 -0.009,0.464607 -0.007,0.456493 -0.009,0.457199"
       style="fill:#231f20;fill-opacity:1;fill-rule:nonzero;stroke:none;stroke-width:0.0352777"
       id="path206" />
    <path
       d="m -191.00169,31.126885 c 0,0.358774 -0.29034,0.64664 -0.64699,0.64664 -0.35701,0 -0.64594,-0.287866 -0.64594,-0.64664 0,-0.355952 0.28893,-0.645582 0.64594,-0.645582 0.35665,0 0.64699,0.28963 0.64699,0.645582"
       style="fill:#231f20;fill-opacity:1;fill-rule:nonzero;stroke:none;stroke-width:0.0352777"
       id="path208" />
    <path
       d="m -191.21371,35.166886 c 0,0.358774 -0.29033,0.645581 -0.64699,0.645581 -0.35666,0 -0.64629,-0.286807 -0.64629,-0.645581 0,-0.355952 0.28963,-0.645582 0.64629,-0.645582 0.35666,0 0.64699,0.28963 0.64699,0.645582"
       style="fill:#231f20;fill-opacity:1;fill-rule:nonzero;stroke:none;stroke-width:0.0352777"
       id="path210" />
    <path
       d="m -173.25348,39.126806 h 23.859 V 27.267858 h -23.859 z"
       style="fill:#231f20;fill-opacity:1;fill-rule:nonzero;stroke:none;stroke-width:0.0352777"
       id="path212" />
    <path
       d="m 3077.59,1661.29 h 676.32 v 336.16 h -676.32 z"
       style="fill:none;stroke:#231f20;stroke-width:4;stroke-linecap:round;stroke-linejoin:round;stroke-miterlimit:10;stroke-dasharray:none;stroke-opacity:1"
       id="path222"
       clip-path="url(#clipPath220)"
       transform="matrix(0.03527769,0,0,-0.03527769,-281.82375,97.73328)" />
    <path
       d="m -168.93655,36.454874 1.39417,-0.769406 0.0885,-1.79634 -0.0885,-0.04798 -0.0952,-0.04621 -0.0889,-0.04798 -0.0878,-0.05786 -0.0878,-0.05433 -0.0878,-0.05786 -0.0808,-0.05574 -0.0885,-0.0635 -0.0797,-0.07338 -0.0723,-0.0635 -0.0804,-0.07126 -0.0713,-0.07338 h -0.12841 l -0.036,0.02928 -0.0363,0.03634 -0.0317,0.03246 -0.0293,0.03704 -0.0272,0.03422 -0.0236,0.03881 -0.0236,0.04269 -0.0247,0.04621 -0.0166,0.04798 -0.007,0.04022 -0.008,0.04233 -0.01,0.04868 -0.006,0.05362 -0.0166,0.456846 -0.0162,0.456846 -0.0155,0.456846 -0.008,0.464254 v 0.457199"
       style="fill:#ffffff;fill-opacity:1;fill-rule:nonzero;stroke:none;stroke-width:0.0352777"
       id="path224" />
    <path
       d="m -164.79425,36.536013 0.0487,-0.474838 0.0399,-0.472015 0.0487,-0.481541 0.0317,-0.472368 0.0321,-0.479424 0.0321,-0.474838 v -0.08678 l -0.006,-0.05186 -0.01,-0.04022 -0.009,-0.03669 -0.0159,-0.04022 -0.0155,-0.04092 -0.0243,-0.03881 -0.0272,-0.04198 -0.0208,-0.02928 -0.0317,-0.03986 -0.0247,-0.0254 -0.0314,-0.03281 h -0.121 l -0.0801,0.07338 -0.0801,0.07126 -0.0879,0.07338 -0.0885,0.07126 -0.0878,0.06562 -0.0882,0.06315 -0.0959,0.05609 -0.097,0.05609 -0.0949,0.04798 -0.10196,0.05433 -0.0988,0.04233 -0.10478,0.04798 -0.0885,1.682394 0.82656,1.545868 0.0395,-0.01729 0.0476,-0.02293 0.0473,-0.02328 0.0402,-0.02293 0.0332,-0.0254 0.0356,-0.03246 0.0296,-0.03245 0.031,-0.03105 0.0317,-0.04092 0.024,-0.03246 0.0247,-0.0381 0.0236,-0.04868 0.0159,-0.04022 0.0162,-0.04833 0.0123,-0.04057 0.0116,-0.04833"
       style="fill:#ffffff;fill-opacity:1;fill-rule:nonzero;stroke:none;stroke-width:0.0352777"
       id="path226" />
    <path
       d="m -164.44112,29.836074 -0.005,-0.04868 -0.003,-0.04022 -0.008,-0.04798 -0.0141,-0.04445 -0.0148,-0.04233 -0.0166,-0.03739 -0.0194,-0.03598 -0.0236,-0.04092 -0.0536,-0.06879 -0.0261,-0.0254 -0.0402,-0.03457 -0.0325,-0.02716 -0.0314,-0.0194 -1.10631,1.465082 -0.0723,1.395233 0.0882,0.04868 0.096,0.04798 0.0878,0.04798 0.0889,0.05609 0.0885,0.05609 0.085,0.05962 0.0829,0.06138 0.0875,0.06562 0.0804,0.06209 0.0748,0.06703 0.0787,0.07197 0.0709,0.07691 h 0.121 l 0.0395,-0.03316 0.0317,-0.03069 0.0402,-0.03986 0.0243,-0.03104 0.0314,-0.04304 0.0243,-0.03246 0.0243,-0.04657 0.0166,-0.04163 0.0148,-0.04515 0.0166,-0.0501 0.008,-0.04586 0.006,-0.05786 0.002,-0.04057 0.0236,-0.50306 0.008,-0.505177 0.0166,-0.512585 v -0.504823"
       style="fill:#ffffff;fill-opacity:1;fill-rule:nonzero;stroke:none;stroke-width:0.0352777"
       id="path228" />
    <path
       d="m -165.55483,37.167483 -0.70485,-1.321855 h -1.00965 l -1.63512,0.905932 0.0162,0.04022 0.0236,0.04868 0.0243,0.0381 0.0279,0.04092 0.0205,0.03105 0.0321,0.03245 0.0328,0.02857 0.0381,0.03104 0.0406,0.02893 0.0321,0.01517 0.0392,0.02152 0.0497,0.01905 0.0399,0.01552 0.048,0.0078 0.0441,0.006 0.0437,0.0035 0.35243,0.01376 0.34536,0.0095 h 0.35243 l 0.34466,0.0078 0.35242,-0.0078 h 0.34467 l 0.35207,-0.0095"
       style="fill:#ffffff;fill-opacity:1;fill-rule:nonzero;stroke:none;stroke-width:0.0352777"
       id="path230" />
    <path
       d="m -170.25806,36.541657 0.0469,-0.472368 0.0483,-0.480129 0.0406,-0.481541 0.0399,-0.472368 0.0314,-0.479424 0.0321,-0.482599 v -0.08643 l -0.005,-0.04657 -0.008,-0.04233 -0.01,-0.04022 -0.0166,-0.04022 -0.0155,-0.04092 -0.0236,-0.03845 -0.0166,-0.03281 -0.0296,-0.04233 -0.0268,-0.02857 -0.0325,-0.03528 -0.0317,-0.02328 h -0.031 l -0.0727,0.07338 -0.0804,0.06385 -0.0713,0.0635 -0.0808,0.06562 -0.0804,0.0635 -0.0797,0.05574 -0.0885,0.04868 -0.0878,0.05574 -0.0878,0.04798 -0.0889,0.04057 -0.0952,0.04057 -0.0885,0.03845 -0.0963,0.04233 -0.0959,0.03104 -0.0882,1.682393 0.84949,1.530346 0.0476,-0.01517 0.0402,-0.02469 0.0402,-0.02328 0.0406,-0.0254 0.0402,-0.03034 0.0321,-0.03316 0.0314,-0.03316 0.0318,-0.03881 0.0247,-0.04022 0.0236,-0.04022 0.024,-0.04022 0.0219,-0.04833 0.0145,-0.04586 0.0113,-0.04304 0.009,-0.04586"
       style="fill:#ffffff;fill-opacity:1;fill-rule:nonzero;stroke:none;stroke-width:0.0352777"
       id="path232" />
    <path
       d="m -168.58342,29.851243 -0.0483,0.50553 -0.0476,0.512584 -0.0487,0.504824 -0.0399,0.512585 -0.0321,0.505529 0.002,0.08043 0.006,0.05645 0.008,0.0381 0.008,0.04022 0.0159,0.04833 0.0155,0.04057 0.0247,0.04057 0.0215,0.03457 0.0258,0.03669 0.0268,0.03246 0.0293,0.03104 0.0328,0.03316 h 0.12029 l 0.0801,-0.07902 0.0801,-0.07408 0.0878,-0.07091 0.0878,-0.06597 0.0889,-0.06315 0.0885,-0.0635 0.0952,-0.05574 0.0963,-0.05644 0.096,-0.05574 0.0963,-0.05009 0.10442,-0.04586 0.10407,-0.04092 0.0723,-1.458732 -1.18675,-1.185683 -0.0233,0.04022 -0.0247,0.04868 -0.0159,0.04022 -0.0145,0.03669 -0.0176,0.05045 -0.008,0.04798"
       style="fill:#ffffff;fill-opacity:1;fill-rule:nonzero;stroke:none;stroke-width:0.0352777"
       id="path234" />
    <path
       d="m -171.30051,30.787866 1.11372,-1.474255 0.0395,0.02469 0.0328,0.02469 0.0321,0.03104 0.0325,0.03528 0.0236,0.03034 0.0286,0.03845 0.0191,0.03281 0.0173,0.03528 0.0159,0.03986 0.0155,0.0448 0.008,0.03281 0.008,0.04445 0.008,0.05151 v 0.553507 l -0.009,0.512584 -0.008,0.512585 -0.0162,0.512585 -0.0159,0.504824 v 0.04657 l -0.006,0.05221 -0.01,0.04621 -0.0127,0.04445 -0.0148,0.03845 -0.0212,0.0441 -0.0208,0.04304 -0.0197,0.03387 -0.0307,0.04516 -0.0303,0.0381 -0.0339,0.03245 -0.0325,0.03104 -0.0392,0.03316 h -0.0402 l -0.0723,-0.07197 -0.0639,-0.06279 -0.0727,-0.06632 -0.0723,-0.05574 -0.072,-0.06315 -0.0801,-0.05574 -0.0801,-0.04904 -0.0801,-0.0575 -0.0804,-0.04657 -0.0882,-0.04022 -0.0794,-0.04833 -0.0889,-0.04057 -0.0878,-0.03034 -0.0878,-0.03316"
       style="fill:#ffffff;fill-opacity:1;fill-rule:nonzero;stroke:none;stroke-width:0.0352777"
       id="path236" />
    <path
       d="m -167.91068,29.226475 -0.0494,0.0042 -0.0437,0.006 -0.0462,0.0095 -0.0529,0.0134 -0.0455,0.01905 -0.043,0.01976 -0.048,0.02469 -0.0402,0.02328 1.20191,1.195208 h 1.08267 l 0.98495,-1.315153 -1.08972,-0.02258 h -0.72955 l -0.35983,0.0078 -0.36089,0.0074"
       style="fill:#ffffff;fill-opacity:1;fill-rule:nonzero;stroke:none;stroke-width:0.0352777"
       id="path238" />
    <path
       d="m -157.26211,33.041052 -0.0713,-0.07126 -0.0808,-0.06526 -0.0723,-0.06385 -0.0804,-0.06385 -0.0787,-0.05574 -0.0804,-0.05715 -0.0878,-0.04904 -0.0808,-0.05397 -0.0889,-0.0501 -0.0878,-0.0381 -0.0949,-0.04833 -0.0882,-0.04057 h -0.99518 l -0.096,0.04057 -0.0963,0.04057 -0.0959,0.04586 -0.0952,0.0501 -0.0878,0.04657 -0.097,0.04798 -0.0889,0.05574 -0.0857,0.06562 -0.09,0.06385 -0.0797,0.06385 -0.0794,0.06526 -0.0808,0.07126 0.0723,0.0635 0.0713,0.07126 0.0808,0.05856 0.0797,0.06315 0.0815,0.05574 0.0787,0.05574 0.0815,0.05645 0.0868,0.04798 0.0878,0.04798 0.0889,0.04868 0.0878,0.04022 0.0963,0.03881 h 0.98601 l 0.096,-0.03881 0.10336,-0.04022 0.097,-0.03881 0.0878,-0.05009 0.0963,-0.04798 0.0959,-0.05609 0.0878,-0.05574 0.0889,-0.05609 0.0808,-0.06385 0.0868,-0.06562 0.0804,-0.07126"
       style="fill:#ffffff;fill-opacity:1;fill-rule:nonzero;stroke:none;stroke-width:0.0352777"
       id="path240" />
    <path
       d="m -157.67027,37.167483 -0.70591,-1.321855 h -1.00964 l -1.62595,0.905932 0.0166,0.04022 0.0229,0.04868 0.0166,0.03246 0.0236,0.03881 0.0332,0.03881 0.031,0.03598 0.0317,0.02893 0.0332,0.02328 0.0392,0.02893 0.0395,0.02293 0.0402,0.0194 0.0413,0.01729 0.0487,0.01552 0.0402,0.0078 0.0519,0.0078 0.0349,0.0018 0.35243,0.01376 0.35242,0.0095 h 0.34537 l 0.35243,0.0078 0.34501,-0.0078 h 0.35348 l 0.34326,-0.0095"
       style="fill:#ffffff;fill-opacity:1;fill-rule:nonzero;stroke:none;stroke-width:0.0352777"
       id="path242" />
    <path
       d="m -156.90862,36.536013 0.0476,-0.474838 0.0483,-0.472015 0.0395,-0.481541 0.0402,-0.472368 0.0321,-0.479424 0.0321,-0.474838 v -0.08678 l -0.008,-0.05009 -0.006,-0.03845 -0.0116,-0.03881 -0.0145,-0.04163 -0.0173,-0.04092 -0.0219,-0.03881 -0.03,-0.04022 -0.0247,-0.03104 -0.031,-0.03634 -0.0268,-0.02681 -0.0321,-0.03493 h -0.11995 l -0.0702,0.06738 -0.0942,0.08502 -0.0847,0.06562 -0.0878,0.07126 -0.0878,0.06562 -0.0889,0.06315 -0.0889,0.05609 -0.10336,0.05609 -0.0949,0.05362 -0.0963,0.05009 -0.10442,0.04868 -0.096,0.04022 -0.0889,1.682394 0.81739,1.545868 0.0487,-0.01729 0.0423,-0.02117 0.037,-0.01729 0.0406,-0.02716 0.0402,-0.02893 0.0402,-0.03457 0.031,-0.03034 0.0332,-0.03105 0.0342,-0.04092 0.0215,-0.03246 0.0247,-0.0381 0.0208,-0.04868 0.0187,-0.04022 0.0145,-0.04445 0.009,-0.04269 0.008,-0.05009"
       style="fill:#ffffff;fill-opacity:1;fill-rule:nonzero;stroke:none;stroke-width:0.0352777"
       id="path244" />
    <path
       d="m -160.02682,29.226475 h -0.0434 l -0.0526,0.0081 -0.0497,0.01164 -0.0466,0.0134 -0.0402,0.01588 -0.0487,0.02293 -0.0392,0.02469 -0.0395,0.02328 1.19274,1.195208 h 1.08337 l 0.99307,-1.315153 -0.369,-0.0074 -0.35948,-0.0074 -0.35984,-0.0078 h -0.7306 l -0.36089,0.0078 -0.36794,0.0074"
       style="fill:#ffffff;fill-opacity:1;fill-rule:nonzero;stroke:none;stroke-width:0.0352777"
       id="path246" />
    <path
       d="m -160.6911,29.851243 -0.0557,0.50553 -0.0487,0.512584 -0.0402,0.504824 -0.0402,0.512585 -0.0385,0.505529 v 0.08784 l 0.005,0.04692 0.0102,0.04022 0.01,0.04445 0.0134,0.03634 0.0173,0.04057 0.0187,0.03845 0.0208,0.03457 h 0.39264 l 0.0889,-0.07303 0.0878,-0.0635 0.0878,-0.06385 0.096,-0.06526 0.0963,-0.0635 0.096,-0.05644 0.0974,-0.05574 0.096,-0.05009 0.10336,-0.04586 0.10442,-0.04092 0.0713,-1.458732 -1.18533,-1.185683 -0.0236,0.04022 -0.0208,0.04304 -0.0187,0.04586 -0.0176,0.04621 -0.006,0.03316 -0.0113,0.05009"
       style="fill:#ffffff;fill-opacity:1;fill-rule:nonzero;stroke:none;stroke-width:0.0352777"
       id="path248" />
    <path
       d="m -151.44517,36.536013 0.0497,-0.474838 0.0392,-0.472015 0.0413,-0.481541 0.0402,-0.472368 0.031,-0.479424 0.0321,-0.474838 v -0.09419 l -0.007,-0.05009 -0.008,-0.04657 -0.0166,-0.04798 -0.0155,-0.04092 -0.0247,-0.04798 -0.0247,-0.04022 h -0.39088 l -0.0889,0.07126 -0.0878,0.07338 -0.0889,0.0635 -0.097,0.06562 -0.0857,0.05539 -0.0963,0.0568 -0.10442,0.05539 -0.097,0.04833 -0.10443,0.04833 -0.10336,0.04798 -0.0889,1.682394 0.82585,1.545868 0.0402,-0.01729 0.0476,-0.02293 0.0413,-0.02152 0.0395,-0.02681 0.0317,-0.02328 0.0395,-0.03246 0.0339,-0.03245 0.031,-0.03105 0.031,-0.04092 0.024,-0.03246 0.0258,-0.0381 0.0226,-0.04868 0.0176,-0.04022 0.0145,-0.04833 0.0155,-0.04657 0.009,-0.04233"
       style="fill:#ffffff;fill-opacity:1;fill-rule:nonzero;stroke:none;stroke-width:0.0352777"
       id="path250" />
    <path
       d="m -151.14778,32.366543 0.0247,-0.503413 0.007,-0.504824 0.008,-0.512585 0.008,-0.504823 v -0.593724 l -0.0117,-0.04445 -0.0123,-0.0441 -0.0155,-0.04657 -0.0155,-0.0381 -0.0173,-0.03528 -0.025,-0.03845 -0.0226,-0.03281 -0.0257,-0.02822 -0.0289,-0.02893 -0.0395,-0.03739 -0.0349,-0.02681 -0.031,-0.02328 -1.10701,1.465082 -0.0797,1.395233 0.1912,0.09666 0.0889,0.05574 0.0889,0.04798 0.0879,0.05644 0.0878,0.0635 0.0878,0.0575 0.0797,0.06385 0.0808,0.07161 0.0804,0.06491 h 0.40817 l 0.025,-0.03457 0.0236,-0.04022 0.0236,-0.04621 0.0155,-0.04057 0.0176,-0.04092 0.0134,-0.04974 0.01,-0.04445 0.004,-0.04798"
       style="fill:#ffffff;fill-opacity:1;fill-rule:nonzero;stroke:none;stroke-width:0.0352777"
       id="path252" />
    <path
       d="m -151.80394,33.041052 -0.0723,-0.07126 -0.0808,-0.06526 -0.0713,-0.06385 -0.0804,-0.06385 -0.0797,-0.05574 -0.0804,-0.05715 -0.0889,-0.04904 -0.0797,-0.05397 -0.0878,-0.0501 -0.0878,-0.0381 -0.097,-0.04833 -0.0878,-0.04057 h -0.99342 l -0.097,0.04057 -0.0952,0.04057 -0.096,0.04586 -0.0974,0.0501 -0.0878,0.04657 -0.096,0.04798 -0.0878,0.05574 -0.0878,0.06562 -0.0878,0.06385 -0.0819,0.06385 -0.0783,0.06526 -0.0808,0.07126 0.0723,0.0635 0.0713,0.07126 0.0808,0.05856 0.0797,0.06315 0.0804,0.05574 0.0787,0.05574 0.0815,0.05645 0.0878,0.04798 0.0889,0.04798 0.0878,0.04868 0.0878,0.04022 0.0974,0.03881 h 0.98495 l 0.096,-0.03881 0.10336,-0.04022 0.0963,-0.03881 0.0885,-0.05009 0.0974,-0.04798 0.096,-0.05609 0.0857,-0.05574 0.09,-0.05609 0.0808,-0.06385 0.0868,-0.06562 0.0804,-0.07126"
       style="fill:#ffffff;fill-opacity:1;fill-rule:nonzero;stroke:none;stroke-width:0.0352777"
       id="path254" />
    <path
       d="m -152.21211,37.167483 -0.7059,-1.321855 h -1.00965 l -1.62595,0.905932 0.0145,0.04022 0.0229,0.04868 0.0187,0.03246 0.0215,0.03881 0.0342,0.03881 0.031,0.03598 0.031,0.02893 0.0339,0.02328 0.0385,0.02893 0.0413,0.02293 0.0402,0.0194 0.0402,0.01729 0.0476,0.01552 0.0402,0.0078 0.0519,0.0078 0.036,0.0018 0.35242,0.01376 0.35243,0.0095 h 0.34431 l 0.35348,0.0078 0.34431,-0.0078 h 0.35313 l 0.34431,-0.0095"
       style="fill:#ffffff;fill-opacity:1;fill-rule:nonzero;stroke:none;stroke-width:0.0352777"
       id="path256" />
    <path
       d="m -154.56866,29.226475 h -0.0455 l -0.0515,0.0081 -0.0508,0.01164 -0.0445,0.0134 -0.0392,0.01588 -0.0487,0.02293 -0.0413,0.02469 -0.0402,0.02328 1.1945,1.195208 h 1.08232 l 0.99307,-1.315153 -0.72955,-0.01482 -0.35983,-0.0078 h -0.72954 l -0.35983,0.0078 -0.36971,0.0074"
       style="fill:#ffffff;fill-opacity:1;fill-rule:nonzero;stroke:none;stroke-width:0.0352777"
       id="path258" />
    <path
       d="m -155.23435,29.851243 -0.0557,0.50553 -0.0487,0.512584 -0.0413,0.504824 -0.0381,0.512585 -0.0395,0.505529 v 0.08784 l 0.005,0.04692 0.0102,0.04022 0.0102,0.04445 0.0138,0.03634 0.0162,0.04057 0.0197,0.03845 0.0208,0.03457 h 0.39053 l 0.0889,-0.07303 0.0889,-0.0635 0.0868,-0.06385 0.097,-0.06526 0.0963,-0.0635 0.096,-0.05644 0.0963,-0.05574 0.0959,-0.05009 0.10442,-0.04586 0.10337,-0.04092 0.0723,-1.458732 -1.18533,-1.185683 -0.0236,0.04022 -0.0208,0.04304 -0.0198,0.04586 -0.0155,0.04621 -0.008,0.03316 -0.009,0.05009"
       style="fill:#ffffff;fill-opacity:1;fill-rule:nonzero;stroke:none;stroke-width:0.0352777"
       id="path260" />
    <path
       d="m -155.58783,36.454874 1.38818,-0.769406 0.0959,-1.79634 -0.0959,-0.04798 -0.0963,-0.04621 -0.0889,-0.04798 -0.0878,-0.05786 -0.0889,-0.05433 -0.0868,-0.05786 -0.0889,-0.0635 -0.0804,-0.0635 -0.0797,-0.06562 -0.0804,-0.07126 h -0.40851 l -0.0236,0.03246 -0.0247,0.04304 -0.0229,0.04586 -0.0187,0.03881 -0.0145,0.04798 -0.0155,0.05009 -0.008,0.03881 -0.008,0.04798 -0.01,0.04798 -0.0145,0.456846 -0.0155,0.456846 -0.009,0.464607 -0.007,0.456493 -0.009,0.457199"
       style="fill:#ffffff;fill-opacity:1;fill-rule:nonzero;stroke:none;stroke-width:0.0352777"
       id="path262" />
    <path
       d="m -162.00166,31.126885 c 0,0.358774 -0.29034,0.64664 -0.647,0.64664 -0.35701,0 -0.64593,-0.287866 -0.64593,-0.64664 0,-0.355952 0.28892,-0.645582 0.64593,-0.645582 0.35666,0 0.647,0.28963 0.647,0.645582"
       style="fill:#ffffff;fill-opacity:1;fill-rule:nonzero;stroke:none;stroke-width:0.0352777"
       id="path264" />
    <path
       d="m -162.21368,35.166886 c 0,0.358774 -0.29034,0.645581 -0.647,0.645581 -0.35665,0 -0.64628,-0.286807 -0.64628,-0.645581 0,-0.355952 0.28963,-0.645582 0.64628,-0.645582 0.35666,0 0.647,0.28963 0.647,0.645582"
       style="fill:#ffffff;fill-opacity:1;fill-rule:nonzero;stroke:none;stroke-width:0.0352777"
       id="path266" />
  </g>
</svg>
