<?xml version="1.0" encoding="UTF-8" standalone="no"?>
<!-- Created with Inkscape (http://www.inkscape.org/) -->

<svg
   width="25.196032mm"
   height="14.203573mm"
   viewBox="0 0 25.196032 14.203573"
   version="1.1"
   id="svg681"
   inkscape:version="1.2.2 (b0a8486541, 2022-12-01)"
   sodipodi:docname="tyo.svg"
   xmlns:inkscape="http://www.inkscape.org/namespaces/inkscape"
   xmlns:sodipodi="http://sodipodi.sourceforge.net/DTD/sodipodi-0.dtd"
   xmlns="http://www.w3.org/2000/svg"
   xmlns:svg="http://www.w3.org/2000/svg">
  <sodipodi:namedview
     id="namedview683"
     pagecolor="#ffffff"
     bordercolor="#666666"
     borderopacity="1.0"
     inkscape:showpageshadow="2"
     inkscape:pageopacity="0.0"
     inkscape:pagecheckerboard="0"
     inkscape:deskcolor="#d1d1d1"
     inkscape:document-units="mm"
     showgrid="false"
     inkscape:zoom="0.44542649"
     inkscape:cx="408.59717"
     inkscape:cy="520.84913"
     inkscape:window-width="1366"
     inkscape:window-height="685"
     inkscape:window-x="0"
     inkscape:window-y="27"
     inkscape:window-maximized="1"
     inkscape:current-layer="layer1" />
  <defs
     id="defs678">
    <clipPath
       clipPathUnits="userSpaceOnUse"
       id="clipPath742">
      <path
         d="m 777.27,1705.27 h 713.699 v 357.172 H 777.27 Z"
         id="path740" />
    </clipPath>
    <clipPath
       clipPathUnits="userSpaceOnUse"
       id="clipPath626">
      <path
         d="m 777.27,1705.27 h 713.699 v 357.172 H 777.27 Z"
         id="path624" />
    </clipPath>
    <clipPath
       clipPathUnits="userSpaceOnUse"
       id="clipPath630">
      <path
         d="m 777.27,1705.27 h 713.699 v 357.172 H 777.27 Z"
         id="path628" />
    </clipPath>
  </defs>
  <g
     inkscape:label="Layer 1"
     inkscape:groupmode="layer"
     id="layer1"
     transform="translate(3.0940153,-10.718211)">
    <path
       d="m 2.3016721,11.090814 -0.432822,-0.19438 c 0,0 -0.3587035,-0.173566 -0.6600808,0.06103 -0.24793163,0.192616 -0.69355941,0.507999 -1.42130287,1.660873 -0.71507878,1.157461 -0.77254614,1.648174 -0.82133523,1.931101 -0.059513,0.343252 0.31019678,0.498827 0.31019678,0.498827 l 0.4321517,0.19438"
       style="fill:#9c9a9b;fill-opacity:1;fill-rule:nonzero;stroke:none;stroke-width:0.0352777"
       id="path728" />
    <path
       d="m 16.746863,11.090814 0.432857,-0.19438 c 0,0 0.358774,-0.173566 0.660046,0.06103 0.247649,0.192616 0.693559,0.507999 1.420985,1.660873 0.715432,1.157461 0.772934,1.648174 0.821265,1.931101 0.05962,0.343252 -0.310091,0.498827 -0.310091,0.498827 l -0.431799,0.19438"
       style="fill:#9c9a9b;fill-opacity:1;fill-rule:nonzero;stroke:none;stroke-width:0.0352777"
       id="path730" />
    <path
       d="m 2.3016721,22.946235 -0.432822,0.194733 c 0,0 -0.3587035,0.173566 -0.6600808,-0.06103 C 0.96083767,22.887321 0.51520989,22.571586 -0.21253357,21.419064 -0.92761235,20.26125 -0.98507971,19.77089 -1.0338688,19.48761 c -0.059513,-0.342899 0.31019678,-0.498474 0.31019678,-0.498474 l 0.4321517,-0.19438"
       style="fill:#9c9a9b;fill-opacity:1;fill-rule:nonzero;stroke:none;stroke-width:0.0352777"
       id="path732" />
    <path
       d="m 16.746863,22.946235 0.432857,0.194733 c 0,0 0.358774,0.173566 0.660046,-0.06103 0.247649,-0.192616 0.693559,-0.508351 1.420985,-1.660873 0.715432,-1.157814 0.772934,-1.648174 0.821265,-1.931454 0.05962,-0.342899 -0.310091,-0.498474 -0.310091,-0.498474 l -0.431799,-0.19438"
       style="fill:#9c9a9b;fill-opacity:1;fill-rule:nonzero;stroke:none;stroke-width:0.0352777"
       id="path734" />
    <path
       d="m 1427.37,1883.85 c 0,-137.51 -131.15,-248.99 -292.95,-248.99 -161.779,0 -292.932,111.48 -292.932,248.99 0,137.51 131.153,249 292.932,249 161.8,0 292.95,-111.49 292.95,-249"
       style="fill:#ffffff;fill-opacity:1;fill-rule:nonzero;stroke:none"
       id="path744"
       clip-path="url(#clipPath742)"
       transform="matrix(0.03527769,0,0,-0.03527769,-30.495961,83.476401)" />
    <path
       d="m 1427.37,1883.85 c 0,-137.51 -131.15,-248.99 -292.95,-248.99 -161.779,0 -292.932,111.48 -292.932,248.99 0,137.51 131.153,249 292.932,249 161.8,0 292.95,-111.49 292.95,-249 z"
       style="fill:none;stroke:#9c9a9b;stroke-width:6;stroke-linecap:butt;stroke-linejoin:miter;stroke-miterlimit:10;stroke-dasharray:none;stroke-opacity:1"
       id="path746"
       clip-path="url(#clipPath742)"
       transform="matrix(0.03527769,0,0,-0.03527769,-30.495961,83.476401)" />
    <path
       d="m 1403.9,1883.85 c 0,-126.5 -120.64,-229.05 -269.47,-229.05 -148.821,0 -269.461,102.55 -269.461,229.05 0,126.5 120.64,229.05 269.461,229.05 148.83,0 269.47,-102.55 269.47,-229.05 z"
       style="fill:none;stroke:#9c9a9b;stroke-width:4;stroke-linecap:butt;stroke-linejoin:miter;stroke-miterlimit:10;stroke-dasharray:none;stroke-opacity:1"
       id="path748"
       clip-path="url(#clipPath742)"
       transform="matrix(0.03527769,0,0,-0.03527769,-30.495961,83.476401)" />
    <path
       d="m -3.0940153,12.030259 c 0,0.656518 0.5404542,1.197325 1.1973601,1.197325 0.6560945,0 1.19630173,-0.540807 1.19630173,-1.197325 0,-0.656517 -0.54020723,-1.196266 -1.19630173,-1.196266 -0.6569059,0 -1.1973601,0.539749 -1.1973601,1.196266 m 1.1973601,-1.084789 c 0.5975335,0 1.08478895,0.487185 1.08478895,1.084789 0,0.596193 -0.48905465,1.084789 -1.08478895,1.084789 -0.5965458,0 -1.0858826,-0.488596 -1.0858826,-1.084789 0,-0.597604 0.4868674,-1.084789 1.0858826,-1.084789 m 0.2856787,1.39735 0.1422044,0.414513 h 0.2091967 L -1.7738536,11.3367 h -0.2191097 l -0.533434,1.420633 h 0.1985782 l 0.1489424,-0.414513 z m -0.5101507,-0.170392 0.2283525,-0.624062 h 0.00494 l 0.2091967,0.624062"
       style="fill:#231f20;fill-opacity:1;fill-rule:nonzero;stroke:none;stroke-width:0.0352777"
       id="path750" />
    <path
       d="m 19.708425,12.030965 c 0,0.656518 0.540454,1.196619 1.196972,1.196619 0.656871,0 1.196619,-0.540101 1.196619,-1.196619 0,-0.656518 -0.539748,-1.197325 -1.196619,-1.197325 -0.656518,0 -1.196972,0.540807 -1.196972,1.197325 m 1.196972,-1.092197 c 0.598663,0 1.085142,0.493534 1.085142,1.092197 0,0.596193 -0.488949,1.084789 -1.085142,1.084789 -0.59584,0 -1.084789,-0.488596 -1.084789,-1.084789 0,-0.598663 0.48648,-1.092197 1.084789,-1.092197 m -0.244474,1.184977 h 0.379588 c 0.155927,0 0.330904,0.03951 0.330904,0.239536 0,0.158749 -0.100188,0.258938 -0.300918,0.258938 h -0.409574 z m -0.190852,0.663926 h 0.61242 c 0.314324,0 0.481893,-0.191205 0.481893,-0.419099 0,-0.244827 -0.165452,-0.309385 -0.258585,-0.347485 0.15875,-0.07197 0.191205,-0.202494 0.191205,-0.295274 0,-0.195791 -0.13723,-0.358774 -0.402518,-0.358774 h -0.624415 z m 0.190852,-1.257649 h 0.349249 c 0.214488,0 0.295627,0.07691 0.295627,0.209902 0,0.172155 -0.113947,0.228247 -0.297744,0.228247 h -0.347132"
       style="fill:#231f20;fill-opacity:1;fill-rule:nonzero;stroke:none;stroke-width:0.0352777"
       id="path752" />
    <path
       d="m -3.0940153,22.006437 c 0,0.657224 0.5404542,1.197325 1.1973601,1.197325 0.6560945,0 1.19630173,-0.540101 1.19630173,-1.197325 0,-0.656518 -0.54020723,-1.196619 -1.19630173,-1.196619 -0.6569059,0 -1.1973601,0.540101 -1.1973601,1.196619 m 1.8048066,-0.251177 c -0.028257,-0.237419 -0.2191097,-0.463196 -0.5845513,-0.463196 -0.4140895,0 -0.6639261,0.302683 -0.6639261,0.738362 0,0.546452 0.3167936,0.756354 0.6410309,0.756354 0.1061153,0 0.5421475,-0.02293 0.6215223,-0.558799 h -0.1868659 c -0.065334,0.330552 -0.281269,0.388408 -0.4050232,0.388408 -0.3538705,0 -0.4721213,-0.255411 -0.4721213,-0.590902 0,-0.374649 0.2089145,-0.563032 0.4653833,-0.563032 0.1372302,0 0.3450511,0.04375 0.3975443,0.292805 z m -0.6074465,-0.833612 c 0.5975335,0 1.08478895,0.486832 1.08478895,1.084789 0,0.596193 -0.48905465,1.085495 -1.08478895,1.085495 -0.5965458,0 -1.0858826,-0.489302 -1.0858826,-1.085495 0,-0.597957 0.4868674,-1.084789 1.0858826,-1.084789"
       style="fill:#231f20;fill-opacity:1;fill-rule:nonzero;stroke:none;stroke-width:0.0352777"
       id="path754" />
    <path
       d="m 19.705956,22.006437 c 0,0.657224 0.539748,1.197325 1.196619,1.197325 0.656871,0 1.196619,-0.540101 1.196619,-1.197325 0,-0.656518 -0.539748,-1.196619 -1.196619,-1.196619 -0.656871,0 -1.196619,0.540101 -1.196619,1.196619 m 1.196619,-1.091491 c 0.598662,0 1.085142,0.493534 1.085142,1.091491 0,0.596193 -0.489302,1.085495 -1.085142,1.085495 -0.59584,0 -1.085142,-0.489302 -1.085142,-1.085495 0,-0.597957 0.486832,-1.091491 1.085142,-1.091491 m -0.48401,1.843964 h 0.567971 c 0.465665,0 0.605718,-0.412043 0.605718,-0.730953 0,-0.41028 -0.2286,-0.689679 -0.599015,-0.689679 h -0.574674 z m 0.190852,-1.257649 h 0.358422 c 0.260702,0 0.426154,0.18168 0.426154,0.538337 0,0.358774 -0.162983,0.55386 -0.412396,0.55386 h -0.37218"
       style="fill:#231f20;fill-opacity:1;fill-rule:nonzero;stroke:none;stroke-width:0.0352777"
       id="path756" />
    <path
       d="m 15.322703,16.960669 c 0,-3.197217 -2.590794,-5.790127 -5.7837775,-5.790127 -3.1979226,0 -5.7949956,2.59291 -5.7949956,5.790127 0,3.198981 2.597073,5.791186 5.7949956,5.791186 3.1929835,0 5.7837775,-2.592205 5.7837775,-5.791186 z"
       style="fill:none;stroke:#9c9a9b;stroke-width:0.141111;stroke-linecap:round;stroke-linejoin:round;stroke-miterlimit:10;stroke-dasharray:none;stroke-opacity:1"
       id="path758" />
    <path
       d="m 13.186639,15.691378 h 0.505462 v -0.822686 h -0.505462 z"
       style="fill:#7b7979;fill-opacity:1;fill-rule:nonzero;stroke:none;stroke-width:0.0352777"
       id="path760" />
    <path
       d="m 12.62784,15.691378 h 0.505187 V 14.868692 H 12.62784 Z"
       style="fill:#7b7979;fill-opacity:1;fill-rule:nonzero;stroke:none;stroke-width:0.0352777"
       id="path762" />
    <path
       d="m 12.067983,15.691378 h 0.506291 v -0.822686 h -0.506291 z"
       style="fill:#7b7979;fill-opacity:1;fill-rule:nonzero;stroke:none;stroke-width:0.0352777"
       id="path764" />
    <path
       d="m 10.390882,15.691378 h 0.505187 v -0.822686 h -0.505187 z"
       style="fill:#7b7979;fill-opacity:1;fill-rule:nonzero;stroke:none;stroke-width:0.0352777"
       id="path766" />
    <path
       d="M 8.1532178,15.691378 H 8.6586801 V 14.868692 H 8.1532178 Z"
       style="fill:#7b7979;fill-opacity:1;fill-rule:nonzero;stroke:none;stroke-width:0.0352777"
       id="path768" />
    <path
       d="M 7.0356206,15.691378 H 7.5408077 V 14.868692 H 7.0356206 Z"
       style="fill:#7b7979;fill-opacity:1;fill-rule:nonzero;stroke:none;stroke-width:0.0352777"
       id="path770" />
    <path
       d="M 6.4757637,15.691378 H 6.9809508 V 14.868692 H 6.4757637 Z"
       style="fill:#7b7979;fill-opacity:1;fill-rule:nonzero;stroke:none;stroke-width:0.0352777"
       id="path772" />
    <path
       d="M 5.9166123,15.691378 H 6.4220746 V 14.868692 H 5.9166123 Z"
       style="fill:#7b7979;fill-opacity:1;fill-rule:nonzero;stroke:none;stroke-width:0.0352777"
       id="path774" />
    <path
       d="M 5.3535804,15.691378 H 5.860422 V 14.868692 H 5.3535804 Z"
       style="fill:#7b7979;fill-opacity:1;fill-rule:nonzero;stroke:none;stroke-width:0.0352777"
       id="path776" />
    <path
       d="M 4.7947817,15.691378 H 5.2999688 V 14.868692 H 4.7947817 Z"
       style="fill:#7b7979;fill-opacity:1;fill-rule:nonzero;stroke:none;stroke-width:0.0352777"
       id="path778" />
    <path
       d="m 13.74579,16.568734 h 0.505187 V 15.746048 H 13.74579 Z"
       style="fill:#7b7979;fill-opacity:1;fill-rule:nonzero;stroke:none;stroke-width:0.0352777"
       id="path780" />
    <path
       d="m 11.509537,16.568734 h 0.505187 v -0.822686 h -0.505187 z"
       style="fill:#7b7979;fill-opacity:1;fill-rule:nonzero;stroke:none;stroke-width:0.0352777"
       id="path782" />
    <path
       d="M 9.8317303,16.568734 H 10.33733 V 15.746048 H 9.8317303 Z"
       style="fill:#7b7979;fill-opacity:1;fill-rule:nonzero;stroke:none;stroke-width:0.0352777"
       id="path784" />
    <path
       d="M 8.7130748,16.568734 H 9.2182619 V 15.746048 H 8.7130748 Z"
       style="fill:#7b7979;fill-opacity:1;fill-rule:nonzero;stroke:none;stroke-width:0.0352777"
       id="path786" />
    <path
       d="M 5.9166123,16.568734 H 6.4220746 V 15.746048 H 5.9166123 Z"
       style="fill:#7b7979;fill-opacity:1;fill-rule:nonzero;stroke:none;stroke-width:0.0352777"
       id="path788" />
    <path
       d="m 13.74579,17.444326 h 0.505187 v -0.82186 H 13.74579 Z"
       style="fill:#7b7979;fill-opacity:1;fill-rule:nonzero;stroke:none;stroke-width:0.0352777"
       id="path790" />
    <path
       d="m 11.509537,17.444326 h 0.505187 v -0.82186 h -0.505187 z"
       style="fill:#7b7979;fill-opacity:1;fill-rule:nonzero;stroke:none;stroke-width:0.0352777"
       id="path792" />
    <path
       d="m 9.2718734,17.444326 h 0.5061537 v -0.82186 H 9.2718734 Z"
       style="fill:#7b7979;fill-opacity:1;fill-rule:nonzero;stroke:none;stroke-width:0.0352777"
       id="path794" />
    <path
       d="m 5.9166123,17.444326 h 0.5054623 v -0.82186 H 5.9166123 Z"
       style="fill:#7b7979;fill-opacity:1;fill-rule:nonzero;stroke:none;stroke-width:0.0352777"
       id="path796" />
    <path
       d="m 13.74579,18.321683 h 0.505187 V 17.498996 H 13.74579 Z"
       style="fill:#7b7979;fill-opacity:1;fill-rule:nonzero;stroke:none;stroke-width:0.0352777"
       id="path798" />
    <path
       d="m 11.509537,18.321683 h 0.505187 v -0.822687 h -0.505187 z"
       style="fill:#7b7979;fill-opacity:1;fill-rule:nonzero;stroke:none;stroke-width:0.0352777"
       id="path800" />
    <path
       d="M 9.2718734,18.321683 H 9.7780271 V 17.498996 H 9.2718734 Z"
       style="fill:#7b7979;fill-opacity:1;fill-rule:nonzero;stroke:none;stroke-width:0.0352777"
       id="path802" />
    <path
       d="M 5.9166123,18.321683 H 6.4220746 V 17.498996 H 5.9166123 Z"
       style="fill:#7b7979;fill-opacity:1;fill-rule:nonzero;stroke:none;stroke-width:0.0352777"
       id="path804" />
    <path
       d="m 13.186639,19.19798 h 0.505462 v -0.821998 h -0.505462 z"
       style="fill:#7b7979;fill-opacity:1;fill-rule:nonzero;stroke:none;stroke-width:0.0352777"
       id="path806" />
    <path
       d="m 12.62784,19.19798 h 0.505187 V 18.375982 H 12.62784 Z"
       style="fill:#7b7979;fill-opacity:1;fill-rule:nonzero;stroke:none;stroke-width:0.0352777"
       id="path808" />
    <path
       d="m 12.067983,19.19798 h 0.506291 v -0.821998 h -0.506291 z"
       style="fill:#7b7979;fill-opacity:1;fill-rule:nonzero;stroke:none;stroke-width:0.0352777"
       id="path810" />
    <path
       d="M 9.2718734,19.19798 H 9.7780271 V 18.375982 H 9.2718734 Z"
       style="fill:#7b7979;fill-opacity:1;fill-rule:nonzero;stroke:none;stroke-width:0.0352777"
       id="path812" />
    <path
       d="M 5.9166123,19.19798 H 6.4220746 V 18.375982 H 5.9166123 Z"
       style="fill:#7b7979;fill-opacity:1;fill-rule:nonzero;stroke:none;stroke-width:0.0352777"
       id="path814" />
    <path
       d="m 16.184184,17.009 c 0,2.312452 -2.991195,4.187462 -6.6815945,4.187462 -3.6903992,0 -6.6819473,-1.87501 -6.6819473,-4.187462 0,-2.312453 2.9915481,-4.187815 6.6819473,-4.187815 3.6903995,0 6.6815945,1.875362 6.6815945,4.187815 z"
       style="fill:none;stroke:#ffffff;stroke-width:1.5875;stroke-linecap:butt;stroke-linejoin:miter;stroke-miterlimit:4;stroke-dasharray:0.423332, 0.772581;stroke-dashoffset:0;stroke-opacity:1"
       id="path816" />
    <path
       d="m 16.184184,17.009 c 0,2.312452 -2.991195,4.187462 -6.6815945,4.187462 -3.6903992,0 -6.6819473,-1.87501 -6.6819473,-4.187462 0,-2.312453 2.9915481,-4.187815 6.6819473,-4.187815 3.6903995,0 6.6815945,1.875362 6.6815945,4.187815 z"
       style="fill:none;stroke:#231f20;stroke-width:1.41111;stroke-linecap:butt;stroke-linejoin:miter;stroke-miterlimit:4;stroke-dasharray:0.176388, 1.02305;stroke-dashoffset:0;stroke-opacity:1"
       id="path818" />
    <path
       d="m 9.6705113,19.934579 v 4.77554"
       style="fill:none;stroke:#ffffff;stroke-width:0.423332;stroke-linecap:round;stroke-linejoin:round;stroke-miterlimit:4;stroke-dasharray:none;stroke-opacity:1"
       id="path828" />
    <path
       d="m 9.6705113,19.934579 v 4.77554"
       style="fill:none;stroke:#231f20;stroke-width:0.0881942;stroke-linecap:round;stroke-linejoin:round;stroke-miterlimit:4;stroke-dasharray:none;stroke-opacity:1"
       id="path830" />
  </g>
</svg>
