<?xml version="1.0" encoding="UTF-8" standalone="no"?>
<!-- Created with Inkscape (http://www.inkscape.org/) -->

<svg
   width="25.556923mm"
   height="25.549162mm"
   viewBox="0 0 25.556923 25.549162"
   version="1.1"
   id="svg656"
   inkscape:version="1.2.2 (b0a8486541, 2022-12-01)"
   sodipodi:docname="window.svg"
   xmlns:inkscape="http://www.inkscape.org/namespaces/inkscape"
   xmlns:sodipodi="http://sodipodi.sourceforge.net/DTD/sodipodi-0.dtd"
   xmlns="http://www.w3.org/2000/svg"
   xmlns:svg="http://www.w3.org/2000/svg">
  <sodipodi:namedview
     id="namedview658"
     pagecolor="#ffffff"
     bordercolor="#666666"
     borderopacity="1.0"
     inkscape:showpageshadow="2"
     inkscape:pageopacity="0.0"
     inkscape:pagecheckerboard="0"
     inkscape:deskcolor="#d1d1d1"
     inkscape:document-units="mm"
     showgrid="false"
     inkscape:zoom="0.44542649"
     inkscape:cx="1086.5991"
     inkscape:cy="480.43843"
     inkscape:window-width="1366"
     inkscape:window-height="685"
     inkscape:window-x="0"
     inkscape:window-y="27"
     inkscape:window-maximized="1"
     inkscape:current-layer="layer1" />
  <defs
     id="defs653">
    <clipPath
       clipPathUnits="userSpaceOnUse"
       id="clipPath374">
      <path
         d="m 1288.15,1555.98 h 724.453 v 772.441 H 1288.15 Z"
         id="path372" />
    </clipPath>
    <clipPath
       clipPathUnits="userSpaceOnUse"
       id="clipPath400">
      <path
         d="m 1288.15,1555.98 h 724.453 v 772.441 H 1288.15 Z"
         id="path398" />
    </clipPath>
    <clipPath
       clipPathUnits="userSpaceOnUse"
       id="clipPath416">
      <path
         d="m 1288.15,1555.98 h 724.453 v 772.441 H 1288.15 Z"
         id="path414" />
    </clipPath>
    <clipPath
       clipPathUnits="userSpaceOnUse"
       id="clipPath529">
      <path
         d="m 1288.15,1555.98 h 724.453 v 772.441 H 1288.15 Z"
         id="path527" />
    </clipPath>
    <clipPath
       clipPathUnits="userSpaceOnUse"
       id="clipPath533">
      <path
         d="m 1288.15,1555.98 h 724.453 v 772.441 H 1288.15 Z"
         id="path531" />
    </clipPath>
  </defs>
  <g
     inkscape:label="Layer 1"
     inkscape:groupmode="layer"
     id="layer1"
     transform="translate(182.06846,-21.677418)">
    <path
       d="m -172.70506,38.788509 -1.61642,-0.317499 -4.68523,-0.824792 c 0.27269,0.08043 4.21004,0.902403 4.49402,0.973664 1.25977,0.316088 5.7298,1.201911 6.61669,1.362071"
       style="fill:#231f20;fill-opacity:1;fill-rule:nonzero;stroke:none;stroke-width:0.0352777"
       id="path362" />
    <path
       d="m -157.68558,42.109904 -9.86753,-2.163228 v 0.171449 c 3.80964,0.854426 8.98241,1.982959 9.49782,2.084206 0.53657,0.107244 1.02446,0.265289 1.54375,0.371827"
       style="fill:#231f20;fill-opacity:1;fill-rule:nonzero;stroke:none;stroke-width:0.0352777"
       id="path364" />
    <path
       d="m -176,27.554329 c 3.34362,-0.593724 4.85069,-1.272114 7.59,-1.706735 2.44757,-0.38876 4.64642,-1.188858 7.08341,-1.520821 0.47554,-0.0642 0.93733,-0.132291 1.41005,-0.159808 l -10.23935,2.287405"
       style="fill:#231f20;fill-opacity:1;fill-rule:nonzero;stroke:none;stroke-width:0.0352777"
       id="path366" />
    <path
       d="m 1900.67,1430.26 c -27.76,11.85 -124.95,62.11 -153.7,74.21 -47.04,19.79 -86.39,45.16 -133.52,65.21 -77.17,32.84 -100.51,43.88 -100.51,43.88 -15.05,7.21 -100.69,47 -115.08,54.58 l 158.58,-65.04 74.06,-31.02 248.46,-121.24"
       style="fill:#231f20;fill-opacity:1;fill-rule:nonzero;stroke:none"
       id="path376"
       clip-path="url(#clipPath374)"
       transform="matrix(0.03527769,0,0,-0.03527769,-227.51142,102.11796)" />
    <path
       d="m -158.58164,43.126254 c -0.21448,-0.257174 -0.53128,-0.55386 -0.70767,-0.583493 -0.60289,-0.1016 -1.48589,0.02858 -1.88559,-0.684387 -0.58773,0.266699 -1.10807,-0.148166 -1.54481,-0.558799 0.23495,-1.920517 0.62935,-3.796938 1.00436,-5.680413 -0.50447,-0.398286 -0.52247,-1.404405 -0.11183,-1.937098 -0.5521,-0.549627 -0.98672,-1.266822 -1.22096,-2.068331 -0.20567,-0.700615 -0.43992,-1.367364 -0.53446,-2.115251 -0.18133,-1.437566 0.16616,-2.792582 0.0469,-4.197692 -0.007,-0.08749 -0.0155,-0.267405 0.15028,-0.30868 1.32962,-0.326671 2.59679,-0.521404 3.89184,-0.80927"
       style="fill:#231f20;fill-opacity:1;fill-rule:nonzero;stroke:none;stroke-width:0.0352777"
       id="path378" />
    <path
       d="m -163.18255,25.313137 c -0.15699,0.576085 -0.0755,1.179686 -0.0635,1.76071 0.025,1.235777 -0.19085,2.520943 0.23636,3.684402 0.40216,1.096077 0.86642,2.279644 1.74695,2.943923 0.10865,-0.647698 0.0917,-1.30598 -0.072,-1.924045 -0.1651,-0.625827 -0.23459,-1.236836 -0.32561,-1.88136 -0.22472,-1.588554 -0.29633,-3.057164 -0.58173,-4.621024 -0.0776,-0.424391 -0.52987,-0.262466 -0.86501,-0.296333"
       style="fill:#ffffff;fill-opacity:1;fill-rule:nonzero;stroke:none;stroke-width:0.0352777"
       id="path380" />
    <path
       d="m -161.90268,25.190724 c -0.0257,0.335138 -0.0702,0.681917 0.004,0.998358 0.0875,0.378177 0.26423,0.764821 0.25823,1.110895 -0.036,2.035875 0.51259,3.961332 0.62512,5.987329 0.0268,0.507293 0.41205,1.158167 0.73554,0.713668 0.28011,-0.384527 0.4311,-1.006825 0.50553,-1.593493 0.0734,-0.570793 0.19438,-1.114775 0.2226,-1.672516 0.0811,-1.602312 -0.12135,-3.171817 -0.29668,-4.791768 -0.0303,-0.279047 -0.18062,-0.646993 -0.4445,-0.749298 -0.49918,-0.19438 -1.03716,-0.566913 -1.54622,-0.149931 -0.013,0.01094 -0.0596,0.0889 -0.0632,0.146756"
       style="fill:#ffffff;fill-opacity:1;fill-rule:nonzero;stroke:none;stroke-width:0.0352777"
       id="path382" />
    <path
       d="m -161.00415,35.964177 c -0.12806,-0.120297 -0.24518,-0.04798 -0.36195,-0.08079 -0.12418,0.806448 -0.43427,1.509886 -0.59831,2.332561 -0.14288,0.720371 -0.21731,1.37583 -0.36372,2.094084 -0.0748,0.364771 -0.13723,0.794454 0.12171,1.061153 0.2413,0.247649 0.70767,0.498826 0.81068,0.32773 0.4057,-0.67204 -0.0286,-1.602666 0.14923,-2.441569 0.21413,-1.017762 0.43215,-1.985781 0.43991,-3.018007 -0.16722,0.02399 -0.10936,-0.191205 -0.19755,-0.275166"
       style="fill:#ffffff;fill-opacity:1;fill-rule:nonzero;stroke:none;stroke-width:0.0352777"
       id="path384" />
    <path
       d="m -160.38221,36.170199 c -0.0233,-0.02893 -0.0459,-0.05785 -0.0691,-0.08643 7e-4,0.520346 -0.15875,1.013528 -0.18803,1.509179 -0.0829,1.368422 -0.39476,2.721321 -0.12489,4.095387 0.12947,0.658635 0.79763,0.711199 1.25942,0.506588 0.19614,-0.08714 0.13617,-0.519993 0.0702,-0.76729 -0.12876,-0.485421 -0.21308,-0.978603 -0.25012,-1.456968 -0.0868,-1.0989 0.13582,-2.181925 -0.1464,-3.27377 -0.085,-0.328435 -0.26282,-0.554918 -0.54998,-0.610657 0,0.02893 -3.5e-4,0.05609 -0.001,0.08396"
       style="fill:#ffffff;fill-opacity:1;fill-rule:nonzero;stroke:none;stroke-width:0.0352777"
       id="path386" />
    <path
       d="m -158.90513,36.556843 c -0.0854,0.02011 -0.16651,-0.08819 -0.19862,-0.06562 -0.53481,0.373238 -0.52669,1.1751 -0.43074,1.801984 0.17886,1.170867 0.0896,2.25495 0.34361,3.381014 0.13935,0.617007 0.54821,0.975781 0.9652,1.296455 -0.42016,-2.023881 -0.0155,-4.076689 -0.43463,-6.140787 -0.0169,-0.08184 -0.055,-0.317852 -0.24482,-0.273049"
       style="fill:#ffffff;fill-opacity:1;fill-rule:nonzero;stroke:none;stroke-width:0.0352777"
       id="path388" />
    <path
       d="m -160.60411,34.523084 c -0.58208,-0.237772 -0.96378,-0.861481 -1.30809,0.08043 0.42298,1.485191 2.04434,1.566682 3.14183,1.357485 0.15769,-0.03034 0.0505,-0.576437 -0.19756,-0.715078 -0.56515,-0.317147 -0.98601,-0.710846 -1.63618,-0.72284"
       style="fill:#ffffff;fill-opacity:1;fill-rule:nonzero;stroke:none;stroke-width:0.0352777"
       id="path390" />
    <path
       d="m -158.73333,25.299732 c -1.09008,-0.135114 -0.50835,1.491188 -0.70097,2.259889 -0.15734,0.628295 0.0455,1.264352 0.12347,1.927572 0.16651,1.411461 -0.0639,3.146065 -0.71331,4.666533 -0.22543,0.52846 1.13594,0.694265 1.63724,0.825851 0.63288,-1.912404 0.49741,-4.222387 0.49953,-6.200407 0.001,-1.140175 -0.024,-2.38971 -0.65087,-3.456861 -0.0247,-0.04269 -0.12489,-0.01446 -0.19509,-0.02258"
       style="fill:#ffffff;fill-opacity:1;fill-rule:nonzero;stroke:none;stroke-width:0.0352777"
       id="path392" />
    <path
       d="m 1901.66,1548.49 c -11.54,3.72 -22.3,8.5 -34.24,12.24 -19.54,6.13 -296.19,100.81 -315.78,107.03 -32.06,10.19 -61.27,16.82 -92.98,28.49 -6.27,2.32 -93.82,30.71 -99.84,33.2 l 104.45,-30.34 95.2,-29.7 317.47,-107.5"
       style="fill:#231f20;fill-opacity:1;fill-rule:nonzero;stroke:none"
       id="path402"
       clip-path="url(#clipPath400)"
       transform="matrix(0.03527769,0,0,-0.03527769,-227.51142,102.11796)" />
    <path
       d="m -169.99467,39.103539 c 0.007,-0.500238 0.0536,-0.977192 0.0596,-1.493657 0.008,-0.846312 0.072,-2.727319 0.0836,-3.575747 0.019,-1.389588 0.0148,-3.84809 0.0797,-5.234504 0.0127,-0.27446 0.0543,-1.922634 0.0744,-2.18898 l 0.0476,2.354785 -0.0959,5.33434 -0.0829,3.648419"
       style="fill:#231f20;fill-opacity:1;fill-rule:nonzero;stroke:none;stroke-width:0.0352777"
       id="path404" />
    <path
       d="m -174.01986,38.46078 c 0.007,-0.500238 0.0533,-0.977193 0.0589,-1.494363 0.01,-0.845607 0.0723,-2.726966 0.0843,-3.575394 0.0194,-1.389589 -0.0339,-3.43887 0.031,-4.824577 0.0127,-0.275166 0.0543,-0.981778 0.0748,-1.247772 l 0.0469,1.413224 -0.0469,4.925118 -0.0832,3.648419"
       style="fill:#231f20;fill-opacity:1;fill-rule:nonzero;stroke:none;stroke-width:0.0352777"
       id="path406" />
    <path
       d="m -171.83864,25.318782 c -0.22613,0.05609 -4.06999,1.203674 -4.29047,1.249535 l 4.38925,-1.432274 0.64805,-0.194733 11.27193,-3.154531 0.98107,-0.109361 c -0.40675,0.121003 -0.80504,0.192617 -1.22484,0.320322 -0.68686,0.209197 -10.52369,2.92699 -11.21407,3.13407"
       style="fill:#231f20;fill-opacity:1;fill-rule:nonzero;stroke:none;stroke-width:0.0352777"
       id="path408" />
    <path
       d="m 1684.74,1484.99 c -6.86,3.49 -13.17,7.57 -20.28,11.14 -11.63,5.8 -175.73,93.15 -187.38,99.03 -19.08,9.66 -11,3.96 -29.73,14.47 -3.74,2.1 -55.78,28.77 -59.31,30.93 l 62.34,-29.63 31.04,-15.45 188.4,-99.54"
       style="fill:#231f20;fill-opacity:1;fill-rule:nonzero;stroke:none"
       id="path418"
       clip-path="url(#clipPath416)"
       transform="matrix(0.03527769,0,0,-0.03527769,-227.51142,102.11796)" />
    <path
       d="m 1642.14,1449.98 c -6.76,3.78 -12.93,8.12 -19.94,11.99 -11.43,6.32 -172.78,100.79 -184.23,107.18 -18.77,10.49 -10.89,4.44 -29.29,15.77 -3.65,2.24 -54.84,31.18 -58.33,33.52 l 61.41,-32.37 30.55,-16.8 185.25,-107.71"
       style="fill:#231f20;fill-opacity:1;fill-rule:nonzero;stroke:none"
       id="path420"
       clip-path="url(#clipPath416)"
       transform="matrix(0.03527769,0,0,-0.03527769,-227.51142,102.11796)" />
    <path
       d="m 1573.28,1431.34 c -6.62,4.14 -12.62,8.83 -19.45,13.07 -11.18,6.95 -168.8,110.1 -180.02,117.11 -18.35,11.48 -10.7,5.03 -28.67,17.33 -3.56,2.44 -53.61,34.13 -57,36.64 l 60.15,-35.65 29.87,-18.46 181,-117.66"
       style="fill:#231f20;fill-opacity:1;fill-rule:nonzero;stroke:none"
       id="path422"
       clip-path="url(#clipPath416)"
       transform="matrix(0.03527769,0,0,-0.03527769,-227.51142,102.11796)" />
    <path
       d="m -164.49347,26.638873 c -0.1771,0.206022 -0.36901,0.388407 -0.54998,0.60219 -0.29704,0.35066 -1.73214,1.934628 -2.03129,2.284936 -0.48965,0.573968 -0.22684,0.344663 -0.74401,0.899228 -0.1023,0.110419 -1.45097,1.672163 -1.55433,1.774468 l 1.53599,-1.889826 0.7881,-0.934153 2.05528,-2.316333"
       style="fill:#231f20;fill-opacity:1;fill-rule:nonzero;stroke:none;stroke-width:0.0352777"
       id="path424" />
    <path
       d="m -165.49465,26.099477 c -0.17674,0.206022 -0.36936,0.388407 -0.55069,0.602896 -0.29633,0.349249 -0.26775,0.239535 -0.56656,0.590195 -0.49,0.573263 -0.22754,0.343958 -0.74471,0.898876 -0.10266,0.110066 -1.44991,1.67181 -1.55398,1.774821 l 1.53564,-1.890179 0.78845,-0.934859 0.59196,-0.621946"
       style="fill:#231f20;fill-opacity:1;fill-rule:nonzero;stroke:none;stroke-width:0.0352777"
       id="path426" />
    <path
       d="m -174.89545,28.820092 c -0.17674,0.206375 -0.36901,0.388761 -0.55104,0.602543 -0.29633,0.349955 -0.2674,0.240594 -0.56621,0.590549 -0.48965,0.573262 -0.22718,0.34431 -0.74435,0.899228 -0.10231,0.109714 -0.84279,0.963787 -0.94686,1.06715 l 0.92816,-1.182508 0.78881,-0.934859 0.5916,-0.622298"
       style="fill:#231f20;fill-opacity:1;fill-rule:nonzero;stroke:none;stroke-width:0.0352777"
       id="path428" />
    <path
       d="m -174.97059,30.332094 c -0.17639,0.205669 -0.36901,0.388055 -0.54963,0.60219 -0.29739,0.350308 -0.26846,0.240241 -0.56797,0.590902 -0.4893,0.572909 -0.22719,0.343957 -0.74401,0.898875 -0.1023,0.110067 -0.84278,0.963787 -0.94685,1.066798 l 0.92886,-1.182509 0.78811,-0.934506 0.5916,-0.621945"
       style="fill:#231f20;fill-opacity:1;fill-rule:nonzero;stroke:none;stroke-width:0.0352777"
       id="path430" />
    <path
       d="m -174.61676,31.742143 c -0.17603,0.205669 -0.369,0.387702 -0.54998,0.601838 -0.29703,0.349955 -0.26811,0.240594 -0.56761,0.590548 -0.48966,0.573616 -0.22755,0.343958 -0.74401,0.898876 -0.10231,0.110419 -0.84314,0.964139 -0.94685,1.067503 l 0.92886,-1.182861 0.78775,-0.934153 0.59196,-0.622299"
       style="fill:#231f20;fill-opacity:1;fill-rule:nonzero;stroke:none;stroke-width:0.0352777"
       id="path432" />
    <path
       d="m -164.72489,29.257183 c -0.17639,0.206727 -0.36865,0.38876 -0.54998,0.602896 -0.29633,0.349602 -0.26847,0.240241 -0.56762,0.590548 -0.48895,0.573615 -0.22684,0.343958 -0.7433,0.899229 -0.10266,0.109713 -1.45062,1.671456 -1.55504,1.774467 l 1.53634,-1.890178 0.78846,-0.934859 0.59161,-0.622299"
       style="fill:#231f20;fill-opacity:1;fill-rule:nonzero;stroke:none;stroke-width:0.0352777"
       id="path434" />
    <path
       d="m -161.76157,45.967166 c -0.40781,-0.114299 -0.78881,-0.267757 -1.21108,-0.383115 -0.69074,-0.189089 -10.47359,-3.140068 -11.16645,-3.331978 -1.13347,-0.31503 -0.64311,-0.09172 -1.76353,-0.459668 -0.2226,-0.07232 -3.31787,-0.951087 -3.5313,-1.031167 l 3.69181,0.923922 1.84326,0.498827 11.22642,3.346089"
       style="fill:#231f20;fill-opacity:1;fill-rule:nonzero;stroke:none;stroke-width:0.0352777"
       id="path436" />
    <text
       xml:space="preserve"
       transform="scale(1,-1)"
       style="font-variant:normal;font-weight:normal;font-size:0.0352777px;font-family:Arial;-inkscape-font-specification:Arial;writing-mode:lr-tb;fill:#231f20;fill-opacity:1;fill-rule:nonzero;stroke:none;stroke-width:0.352777"
       id="text442"
       x="-175.86475"
       y="-21.719896"><tspan
         x="-175.86475 -174.59476 -173.28947 -171.31393 -169.33838"
         y="-21.719896"
         sodipodi:role="line"
         id="tspan440"
         style="stroke-width:0.352777">➌➍➎➏➐</tspan></text>
    <path
       d="m -168.7148,37.323427 c -1.57127,-0.880179 -2.88289,-1.607957 -3.6583,-0.997653 -1.48871,1.169102 -1.82914,1.792106 -1.49718,3.603263 0.33302,1.810098 1.8295,3.344325 3.2713,2.30963 1.44039,-1.034694 2.43839,-1.811509 3.21521,-2.420755 0.40992,-0.323496 1.43968,-0.498474 2.03129,-0.461432 0.59231,0.03634 0.11147,-0.664984 -0.66463,-1.21955 -0.77647,-0.554212 -1.77412,-0.29598 -2.69769,-0.813503"
       style="fill:#ffffff;fill-opacity:1;fill-rule:nonzero;stroke:none;stroke-width:0.0352777"
       id="path444" />
    <path
       d="m -172.23657,37.060961 c 0.34643,-0.165805 0.70485,-0.213077 0.98813,-0.151694"
       style="fill:none;stroke:#231f20;stroke-width:0.0846665;stroke-linecap:butt;stroke-linejoin:miter;stroke-miterlimit:4;stroke-dasharray:none;stroke-opacity:1"
       id="path446" />
    <path
       d="m -173.03702,38.276277 c -0.10195,-0.29986 0.0656,-0.674156 0.40675,-0.961317"
       style="fill:none;stroke:#231f20;stroke-width:0.0846665;stroke-linecap:butt;stroke-linejoin:miter;stroke-miterlimit:4;stroke-dasharray:none;stroke-opacity:1"
       id="path448" />
    <path
       d="m -171.24844,36.908914 c 0.22754,0.04868 0.40604,0.165805 0.49247,0.346427 0.19403,0.404988 -0.15451,0.976486 -0.77611,1.27423 -0.62335,0.298802 -1.28587,0.211666 -1.47954,-0.194733 -0.01,-0.01905 -0.0183,-0.0388 -0.0254,-0.05856"
       style="fill:none;stroke:#231f20;stroke-width:0.0846665;stroke-linecap:butt;stroke-linejoin:miter;stroke-miterlimit:4;stroke-dasharray:none;stroke-opacity:1"
       id="path450" />
    <path
       d="m -172.43836,38.702784 c -0.21696,-0.0441 -0.38876,-0.155927 -0.47096,-0.328082 -0.18274,-0.383116 0.1457,-0.923217 0.73378,-1.205792 0.58984,-0.280104 1.21567,-0.199671 1.39982,0.18415 0.0582,0.122061 0.0642,0.259644 0.0279,0.398991"
       style="fill:none;stroke:#231f20;stroke-width:0.0846665;stroke-linecap:butt;stroke-linejoin:miter;stroke-miterlimit:4;stroke-dasharray:none;stroke-opacity:1"
       id="path452" />
    <path
       d="m -171.25797,38.699257 c -0.0543,0.03175 -0.11077,0.06138 -0.16792,0.0896 -0.11183,0.05362 -0.22542,0.09384 -0.33831,0.122414"
       style="fill:none;stroke:#231f20;stroke-width:0.0846665;stroke-linecap:butt;stroke-linejoin:miter;stroke-miterlimit:4;stroke-dasharray:none;stroke-opacity:1"
       id="path454" />
    <path
       d="m -170.55347,37.210538 c 0.14605,0.305505 0.0952,0.750709 -0.20391,1.078086"
       style="fill:none;stroke:#231f20;stroke-width:0.0846665;stroke-linecap:butt;stroke-linejoin:miter;stroke-miterlimit:4;stroke-dasharray:none;stroke-opacity:1"
       id="path456" />
    <path
       d="m -173.1739,38.465013 c -0.22613,-0.472016 0.17745,-1.134178 0.90064,-1.48131 0.7246,-0.346427 1.4933,-0.244828 1.71979,0.226835"
       style="fill:none;stroke:#231f20;stroke-width:0.0846665;stroke-linecap:butt;stroke-linejoin:miter;stroke-miterlimit:4;stroke-dasharray:none;stroke-opacity:1"
       id="path458" />
    <path
       d="m -170.45011,38.618118 c 0,0 0.15734,-0.106539 0.24659,-0.311855 0.0614,-0.139699 0.12488,-0.182738 0.12488,-0.182738 0,0 0.0822,-0.06174 0.0928,-0.122767 0,0 0.24412,-0.07197 0.41698,0.04092 0,0 0.10266,0.04127 0.19473,0.04127 0,0 0.20355,0.153106 0.25471,0.153106 h 0.0512 c 0,0 -0.01,0.03986 0.11289,0.09137 0.1217,0.0508 0.19332,0.0508 0.19332,0.0508 0,0 0.01,0.0314 0.133,0.08184 0.12135,0.0515 0.15239,0.04022 0.15239,0.04022 0,0 0.0205,0.05186 0.16299,0.09243 0.14323,0.04057 0.16333,0.04057 0.16333,0.04057 0,0 0.0409,0.0314 0.15381,0.06174 0.11254,0.02963 0.16299,0.01976 0.16299,0.01976 0,0 -0.0504,0.04127 -0.14252,0.103011 -0.0917,0.06103 -0.24554,0.152399 -0.25506,0.183091 -0.0106,0.03069 0.0607,0.03069 0.0296,0.05186 -0.0296,0.02011 -0.0607,-0.04198 -0.12206,0 -0.0607,0.03986 -0.0409,0.1016 -0.0409,0.1016 0,0 -0.37747,0.386996 -0.72355,0.551037 -0.34784,0.162983 -0.78598,0.275166 -1.04175,0.275166 0,0 -0.12312,-0.06068 -0.17356,-0.07091 -0.0512,-0.01023 -0.11219,0 -0.15276,0.01023 -0.0409,0.0099 -0.0508,0.141816 -0.0508,0.141816 0,0 -0.0212,-0.0095 -0.0924,0.02081 -0.0716,0.03069 -0.1016,0.06103 -0.1016,0.102658 0,0 -0.20426,0.132291 -0.27552,0.182738 -0.0709,0.05115 -0.11254,0.07232 -0.12312,0.102659 0,0 -0.03,-0.03034 -0.12171,0.04057 -0.0928,0.07197 -0.32667,0.162983 -0.31644,0.204963 0,0 -0.133,0.0194 -0.2353,0.08114 -0.1016,0.06103 -0.15275,0.09208 -0.15275,0.09208 0,0 -0.20356,-0.03104 -0.25506,0 0,0 -0.0102,-0.122767 -0.0409,-0.153811 -0.0296,-0.02999 -0.0808,-0.05115 -0.0201,-0.101953 0.061,-0.05045 0.11253,-0.102658 0.11253,-0.316088 0,0 0.0402,-0.01094 0.0508,-0.101952 0.0102,-0.09243 0.0102,-0.275166 0.0102,-0.275166 0,0 0.0409,-0.01058 0.0603,-0.07197 0.0162,-0.0448 0.16863,-0.276224 0.32032,-0.403576"
       style="fill:none;stroke:#231f20;stroke-width:0.0846665;stroke-linecap:butt;stroke-linejoin:miter;stroke-miterlimit:4;stroke-dasharray:none;stroke-opacity:1"
       id="path460" />
    <path
       d="m -173.40638,38.415977 c -0.0557,0.187324 -0.16192,0.536221 -0.16192,0.728131 0,0.418041 0,0.550685 0.0201,0.612068 0,0 0.0819,0.255058 0.15205,0.366888 0,0 0.17427,0.428977 0.21519,0.479424 l 0.0409,0.05221 c 0,0 0.0713,0.09137 0.17321,0.193675 0.10231,0.101599 0.71543,0.458962 0.8068,0.51964 0.0914,0.06138 0.18345,0.06138 0.18345,0.06138 0,0 0.0406,0.04057 0.13299,0.05151 0.091,0.01023 0.14252,0.01023 0.14252,0.01023 0,0 0.0406,0.02011 0.13265,0.02999 0.0917,0.0099 0.27516,-0.02046 0.32632,-0.04022 0,0 0.0511,0.01023 0.10265,-0.01094 0.0505,-0.02011 0.30516,-0.142169 0.34714,-0.16263 l 0.0402,-0.02011 c 0,0 0.12312,-0.0515 0.25506,-0.14358 0.133,-0.09208 0.15311,-0.152753 0.15311,-0.152753 0,0 0.091,-0.01023 0.16298,-0.05115 0.0716,-0.04057 0.17392,-0.112183 0.22542,-0.153458 l 0.0501,-0.04057 0.30656,-0.143227 c 0,0 0.0914,0 0.12242,-0.0508 0.0303,-0.05115 0.0504,-0.132644 0.0504,-0.132644 0,0 0.51047,0 0.96979,-0.326671 0.45966,-0.325966 0.66392,-0.652638 0.66392,-0.652638 0,0 0.0508,-0.03034 0.0808,-0.09207 0.0307,-0.06103 -0.061,-0.1016 -0.061,-0.1016 0,0 0.0106,-0.06138 0.0515,-0.02081 0.0402,0.04092 0.0501,0.0822 0.10231,0.03104 0.0508,-0.05221 0.39687,-0.286102 0.744,-0.316793 0,0 0.042,0.02046 0.0713,0 l 0.0314,-0.01976 c 0,0 0.0198,0.03034 0.11183,0.01976 0.0917,-0.0099 0.10266,-0.04127 0.10266,-0.04127 0,0 0.0198,0.0829 0.10125,0.0829 0.0818,0 0.16298,0.01976 0.1845,-0.02117 0,0 0.0914,0 0.14252,0.04092 0,0 0.0106,0.05186 0.0815,0.08149 0.0709,0.0314 0.13335,0.04022 0.17392,0 0.0406,-0.04057 0.0205,-0.08149 0.061,-0.101247 0.0399,-0.02117 0.061,0.04057 0.0917,0.0099 0.0307,-0.03104 -0.0109,-0.06138 -0.0822,-0.112183 0,0 -0.0406,-0.09243 -0.22437,-0.194733 -0.18415,-0.101952 -0.66322,-0.305857 -0.80503,-0.346427 -0.14429,-0.04057 -0.48084,-0.07126 -0.50095,-0.04057 -0.0208,0.03034 -0.0413,0.06174 -0.0413,0.06174 0,0 -0.10231,0.0088 -0.18309,0 -0.0819,-0.01129 -0.16299,0 -0.16299,0 0,0 -0.30621,-0.103011 -0.40816,-0.09243 0,0 -0.25506,-0.06174 -0.29563,-0.05115 0,0 -0.31714,-0.153458 -0.41945,-0.143228 0,0 -0.26529,-0.132291 -0.36653,-0.162983 0,0 -0.0317,-0.163335 -0.19438,-0.295979 0,0 -0.1524,-0.142875 -0.23495,-0.183444 0,0 -0.25471,-0.224719 -0.68298,-0.409222 -0.42898,-0.183091 -0.6029,-0.193674 -0.68368,-0.193674"
       style="fill:none;stroke:#231f20;stroke-width:0.0846665;stroke-linecap:butt;stroke-linejoin:miter;stroke-miterlimit:4;stroke-dasharray:none;stroke-opacity:1"
       id="path462" />
    <path
       d="m -170.32628,37.583776 c 0,0 0.0437,0.141816 0.0734,0.182033 0.0318,0.04092 0.0617,0.19438 0.10231,0.214841 0.0413,0.02011 0.0522,0.05115 0.16439,0.02011"
       style="fill:none;stroke:#231f20;stroke-width:0.0846665;stroke-linecap:butt;stroke-linejoin:miter;stroke-miterlimit:4;stroke-dasharray:none;stroke-opacity:1"
       id="path464" />
    <path
       d="m -169.64049,37.429613 c 0,0 -0.38735,-0.04092 -0.62194,0.295627 0,0 0.0713,-0.244828 0.46884,-0.347133"
       style="fill:none;stroke:#231f20;stroke-width:0.0846665;stroke-linecap:butt;stroke-linejoin:miter;stroke-miterlimit:4;stroke-dasharray:none;stroke-opacity:1"
       id="path466" />
    <path
       d="m -169.82393,37.960189 c 0.10231,-0.0314 0.17321,-0.172861 0.18309,-0.234949 0.0109,-0.06068 0.0416,-0.131939 0.0314,-0.183444 -0.0106,-0.05115 -0.0314,-0.112183 -0.0314,-0.112183"
       style="fill:none;stroke:#231f20;stroke-width:0.0846665;stroke-linecap:butt;stroke-linejoin:miter;stroke-miterlimit:4;stroke-dasharray:none;stroke-opacity:1"
       id="path468" />
    <path
       d="m -170.13049,37.909389 c 0,0 0.23495,-0.173213 0.32667,-0.194027 0.0917,-0.02081 0.16298,0.01023 0.16298,0.01023"
       style="fill:none;stroke:#231f20;stroke-width:0.0846665;stroke-linecap:butt;stroke-linejoin:miter;stroke-miterlimit:4;stroke-dasharray:none;stroke-opacity:1"
       id="path470" />
    <path
       d="m -169.72162,37.909389 c 0,0 0.13264,0.0194 0.17321,0.07126 0.0406,0.05115 0.1016,0.142875 0.17356,0.102658 0.0713,-0.04163 0.16334,-0.173919 0.16334,-0.173919"
       style="fill:none;stroke:#231f20;stroke-width:0.0846665;stroke-linecap:butt;stroke-linejoin:miter;stroke-miterlimit:4;stroke-dasharray:none;stroke-opacity:1"
       id="path472" />
    <path
       d="m -169.46692,37.878698 c -0.0183,0.02046 -0.0413,0.02999 -0.0572,0.02258 -0.0268,-0.01058 -0.0303,-0.05715 -0.01,-0.104422 0.0205,-0.04621 0.0582,-0.07549 0.084,-0.0635 0.0191,0.0085 0.0265,0.03775 0.0191,0.07197"
       style="fill:none;stroke:#231f20;stroke-width:0.0846665;stroke-linecap:butt;stroke-linejoin:miter;stroke-miterlimit:4;stroke-dasharray:none;stroke-opacity:1"
       id="path474" />
    <path
       d="m -169.51701,40.551688 c -0.0134,0.01129 -0.0279,0.01588 -0.0374,0.01023 -0.0148,-0.0095 -0.0141,-0.0374 0.002,-0.06421 0.0162,-0.02575 0.0406,-0.03986 0.0543,-0.0314 0.012,0.006 0.0131,0.02434 0.007,0.04445"
       style="fill:none;stroke:#231f20;stroke-width:0.0846665;stroke-linecap:butt;stroke-linejoin:miter;stroke-miterlimit:4;stroke-dasharray:none;stroke-opacity:1"
       id="path476" />
    <path
       d="m -165.90634,39.018873 c -0.0109,0.0095 -0.0219,0.0134 -0.03,0.0085 -0.012,-0.0074 -0.012,-0.03175 7.1e-4,-0.05256 0.013,-0.02258 0.0339,-0.03422 0.0469,-0.02716 0.009,0.0046 0.0109,0.02011 0.005,0.0381"
       style="fill:none;stroke:#231f20;stroke-width:0.0846665;stroke-linecap:butt;stroke-linejoin:miter;stroke-miterlimit:4;stroke-dasharray:none;stroke-opacity:1"
       id="path478" />
    <path
       d="m -166.31556,38.84954 c -0.007,0.006 -0.0152,0.0081 -0.0208,0.0053 -0.009,-0.0049 -0.008,-0.02258 3.6e-4,-0.03775 0.01,-0.01623 0.0243,-0.0254 0.0328,-0.01976 0.008,0.0039 0.008,0.01482 0.005,0.02752"
       style="fill:none;stroke:#231f20;stroke-width:0.0846665;stroke-linecap:butt;stroke-linejoin:miter;stroke-miterlimit:4;stroke-dasharray:none;stroke-opacity:1"
       id="path480" />
    <path
       d="m -166.42457,38.852715 c -0.008,0.006 -0.0162,0.0092 -0.0226,0.0053 -0.008,-0.0046 -0.008,-0.02187 0.002,-0.03775 0.008,-0.01623 0.0229,-0.02399 0.0321,-0.02046 0.007,0.0049 0.008,0.01517 0.005,0.02822"
       style="fill:none;stroke:#231f20;stroke-width:0.0846665;stroke-linecap:butt;stroke-linejoin:miter;stroke-miterlimit:4;stroke-dasharray:none;stroke-opacity:1"
       id="path482" />
    <path
       d="m -169.60979,37.541796 c 0,0 0.13264,0.02046 0.23494,0.112536"
       style="fill:none;stroke:#231f20;stroke-width:0.0846665;stroke-linecap:butt;stroke-linejoin:miter;stroke-miterlimit:4;stroke-dasharray:none;stroke-opacity:1"
       id="path484" />
    <path
       d="m -172.06936,39.940326 c 0,0 -0.20496,-0.04092 -0.27587,-0.0508 -0.0709,-0.01058 -0.0296,-0.04127 -0.091,-0.04127 -0.0617,0 -0.38806,-0.07161 -0.68368,-0.24518 -0.29704,-0.172861 -0.43886,-0.316088 -0.44909,-0.428271"
       style="fill:none;stroke:#231f20;stroke-width:0.0846665;stroke-linecap:butt;stroke-linejoin:miter;stroke-miterlimit:4;stroke-dasharray:none;stroke-opacity:1"
       id="path486" />
    <path
       d="m -172.13039,40.317797 c 0,0 -0.19402,0.07161 -0.27622,0.07161 -0.0815,0 -0.0914,-0.04092 -0.13159,-0.04092 -0.0416,0 -0.2861,-0.07161 -0.58172,-0.23495 -0.2974,-0.164041 -0.42898,-0.356657 -0.42898,-0.356657"
       style="fill:none;stroke:#231f20;stroke-width:0.0846665;stroke-linecap:butt;stroke-linejoin:miter;stroke-miterlimit:4;stroke-dasharray:none;stroke-opacity:1"
       id="path488" />
    <path
       d="m -172.40308,39.92939 c -0.0293,0.132644 -0.0363,0.280105 -0.004,0.438854"
       style="fill:none;stroke:#231f20;stroke-width:0.0846665;stroke-linecap:butt;stroke-linejoin:miter;stroke-miterlimit:4;stroke-dasharray:none;stroke-opacity:1"
       id="path490" />
    <path
       d="m -172.25104,39.564618 c -0.0561,0.08996 -0.10477,0.192264 -0.13652,0.303036"
       style="fill:none;stroke:#231f20;stroke-width:0.0846665;stroke-linecap:butt;stroke-linejoin:miter;stroke-miterlimit:4;stroke-dasharray:none;stroke-opacity:1"
       id="path492" />
    <path
       d="m -172.46058,39.894465 c -0.0459,0.136524 -0.0769,0.288219 -0.078,0.454024"
       style="fill:none;stroke:#231f20;stroke-width:0.0846665;stroke-linecap:butt;stroke-linejoin:miter;stroke-miterlimit:4;stroke-dasharray:none;stroke-opacity:1"
       id="path494" />
    <path
       d="m -172.21858,39.512055 c 0,0 -0.12912,0.153458 -0.22401,0.333727"
       style="fill:none;stroke:#231f20;stroke-width:0.0846665;stroke-linecap:butt;stroke-linejoin:miter;stroke-miterlimit:4;stroke-dasharray:none;stroke-opacity:1"
       id="path496" />
    <path
       d="m -172.49269,39.839079 c 0.0286,-0.122414 0.0674,-0.228952 0.11183,-0.321027"
       style="fill:none;stroke:#231f20;stroke-width:0.0846665;stroke-linecap:butt;stroke-linejoin:miter;stroke-miterlimit:4;stroke-dasharray:none;stroke-opacity:1"
       id="path498" />
    <path
       d="m -172.53855,40.348489 c -0.006,-0.171097 0.008,-0.323497 0.036,-0.457905"
       style="fill:none;stroke:#231f20;stroke-width:0.0846665;stroke-linecap:butt;stroke-linejoin:miter;stroke-miterlimit:4;stroke-dasharray:none;stroke-opacity:1"
       id="path500" />
    <path
       d="m -172.20165,40.247595 c -0.036,0.01376 -0.0748,0.01058 -0.0967,-0.01517 -0.0296,-0.03351 -0.0208,-0.09102 0.0205,-0.128763 0.043,-0.03775 0.1009,-0.04022 0.13088,-0.0074 0.0226,0.02505 0.0236,0.06421 0.004,0.09772"
       style="fill:none;stroke:#231f20;stroke-width:0.0846665;stroke-linecap:butt;stroke-linejoin:miter;stroke-miterlimit:4;stroke-dasharray:none;stroke-opacity:1"
       id="path502" />
    <path
       d="m -173.37534,40.143878 c 0.13194,0.184502 0.74472,0.582082 1.01001,0.582082 l 0.091,-0.06103"
       style="fill:none;stroke:#231f20;stroke-width:0.0846665;stroke-linecap:butt;stroke-linejoin:miter;stroke-miterlimit:4;stroke-dasharray:none;stroke-opacity:1"
       id="path504" />
    <path
       d="m -172.42601,40.440563 c 0,0 -0.0102,0.132292 0.0402,0.244122"
       style="fill:none;stroke:#231f20;stroke-width:0.0846665;stroke-linecap:butt;stroke-linejoin:miter;stroke-miterlimit:4;stroke-dasharray:none;stroke-opacity:1"
       id="path506" />
    <path
       d="m -173.11005,40.674455 c 0,0 0.60113,0.438854 0.87736,0.469546 0,0 0.0307,-0.02999 0.0607,-0.08114"
       style="fill:none;stroke:#231f20;stroke-width:0.0846665;stroke-linecap:butt;stroke-linejoin:miter;stroke-miterlimit:4;stroke-dasharray:none;stroke-opacity:1"
       id="path508" />
    <path
       d="m -172.18189,40.889648 c 0,0 0.0416,0.122061 0.01,0.172861 0,0 0.22507,0.122767 0.22507,0.225072 0,0 0.01,0.101952 -0.0303,0.141816"
       style="fill:none;stroke:#231f20;stroke-width:0.0846665;stroke-linecap:butt;stroke-linejoin:miter;stroke-miterlimit:4;stroke-dasharray:none;stroke-opacity:1"
       id="path510" />
    <path
       d="m -172.34487,40.797221 c 0,0 0.0205,0.194027 0.0924,0.295627"
       style="fill:none;stroke:#231f20;stroke-width:0.0846665;stroke-linecap:butt;stroke-linejoin:miter;stroke-miterlimit:4;stroke-dasharray:none;stroke-opacity:1"
       id="path512" />
    <path
       d="m -172.17166,41.215967 c 0,0 0.0723,0.1524 0.17286,0.192969"
       style="fill:none;stroke:#231f20;stroke-width:0.0846665;stroke-linecap:butt;stroke-linejoin:miter;stroke-miterlimit:4;stroke-dasharray:none;stroke-opacity:1"
       id="path514" />
    <path
       d="m -171.78325,41.1948 c 0,0 0.15345,0.102306 0.16298,0.184503 0.01,0.08149 -0.0815,0.112183 -0.0815,0.112183"
       style="fill:none;stroke:#231f20;stroke-width:0.0846665;stroke-linecap:butt;stroke-linejoin:miter;stroke-miterlimit:4;stroke-dasharray:none;stroke-opacity:1"
       id="path516" />
    <path
       d="m -171.92648,40.889648 c 0,0 0.24553,0.1016 0.41839,0.203553 0.17357,0.101599 0.34714,0.245885 0.29634,0.388407"
       style="fill:none;stroke:#231f20;stroke-width:0.0846665;stroke-linecap:butt;stroke-linejoin:miter;stroke-miterlimit:4;stroke-dasharray:none;stroke-opacity:1"
       id="path518" />
    <path
       d="m -171.53807,40.716435 c 0,0 0.36688,0.11183 0.54998,0.243769 0.18485,0.132997 0.24588,0.266346 0.23565,0.327377"
       style="fill:none;stroke:#231f20;stroke-width:0.0846665;stroke-linecap:butt;stroke-linejoin:miter;stroke-miterlimit:4;stroke-dasharray:none;stroke-opacity:1"
       id="path520" />
    <path
       d="m -171.09992,40.471255 c 0,0 0.21484,0.02011 0.42862,0.16263 0.21449,0.143228 0.3369,0.255763 0.32702,0.357716"
       style="fill:none;stroke:#231f20;stroke-width:0.0846665;stroke-linecap:butt;stroke-linejoin:miter;stroke-miterlimit:4;stroke-dasharray:none;stroke-opacity:1"
       id="path522" />
    <path
       d="m -170.70129,40.185506 c 0,0 0.03,-0.03034 0.12242,0 0.0921,0.03034 0.63253,0.29598 0.65299,0.356657 0.0201,0.06103 0.0201,0.204258 0.0201,0.204258"
       style="fill:none;stroke:#231f20;stroke-width:0.0846665;stroke-linecap:butt;stroke-linejoin:miter;stroke-miterlimit:4;stroke-dasharray:none;stroke-opacity:1"
       id="path524" />
    <path
       d="m -170.44552,40.246536 c 0,0 0.46778,0.224719 0.48859,0.326319 0.0208,0.101952 0.031,0.14358 7.1e-4,0.214135"
       style="fill:none;stroke:#231f20;stroke-width:0.0846665;stroke-linecap:butt;stroke-linejoin:miter;stroke-miterlimit:4;stroke-dasharray:none;stroke-opacity:1"
       id="path526" />
    <path
       d="m -171.87498,41.297106 c 0,0 0.11219,0.02011 0.18345,0.0515"
       style="fill:none;stroke:#231f20;stroke-width:0.0846665;stroke-linecap:butt;stroke-linejoin:miter;stroke-miterlimit:4;stroke-dasharray:none;stroke-opacity:1"
       id="path528" />
    <path
       d="m -171.53807,41.379656 c 0,0 0.18379,-0.02081 0.26493,-0.02081"
       style="fill:none;stroke:#231f20;stroke-width:0.0846665;stroke-linecap:butt;stroke-linejoin:miter;stroke-miterlimit:4;stroke-dasharray:none;stroke-opacity:1"
       id="path530" />
    <path
       d="m -171.13944,41.308042 c 0,0 0.24413,-0.112889 0.29493,-0.122414"
       style="fill:none;stroke:#231f20;stroke-width:0.0846665;stroke-linecap:butt;stroke-linejoin:miter;stroke-miterlimit:4;stroke-dasharray:none;stroke-opacity:1"
       id="path532" />
    <path
       d="m -170.72175,41.113309 c 0,0 0.21449,-0.132291 0.29598,-0.182738"
       style="fill:none;stroke:#231f20;stroke-width:0.0846665;stroke-linecap:butt;stroke-linejoin:miter;stroke-miterlimit:4;stroke-dasharray:none;stroke-opacity:1"
       id="path534" />
    <path
       d="m -170.28289,40.807451 c 0,0 0.21449,-0.132996 0.2861,-0.173566"
       style="fill:none;stroke:#231f20;stroke-width:0.0846665;stroke-linecap:butt;stroke-linejoin:miter;stroke-miterlimit:4;stroke-dasharray:none;stroke-opacity:1"
       id="path536" />
    <path
       d="m -170.48715,40.052509 c 0,0 -0.0106,-0.06103 0.0614,-0.02117 0.0706,0.04092 0.80539,0.398991 0.80539,0.398991 0,0 -0.0303,0.01023 -0.0406,0.07056 -0.0102,0.06174 0.0201,0.113242 0.0617,0.102306"
       style="fill:none;stroke:#231f20;stroke-width:0.0846665;stroke-linecap:butt;stroke-linejoin:miter;stroke-miterlimit:4;stroke-dasharray:none;stroke-opacity:1"
       id="path538" />
    <path
       d="m -169.84439,40.54181 0.17286,-0.08184"
       style="fill:none;stroke:#231f20;stroke-width:0.0846665;stroke-linecap:butt;stroke-linejoin:miter;stroke-miterlimit:4;stroke-dasharray:none;stroke-opacity:1"
       id="path540" />
    <path
       d="m -170.45681,39.920218 0.85125,0.425448 c 0.0261,0.0127 0.042,0.04127 0.036,0.06385 l -0.0399,0.08149 c -0.0413,0.08184 0,0.112183 0.0399,0.10301"
       style="fill:none;stroke:#231f20;stroke-width:0.0846665;stroke-linecap:butt;stroke-linejoin:miter;stroke-miterlimit:4;stroke-dasharray:none;stroke-opacity:1"
       id="path542" />
    <path
       d="m -170.13049,39.981248 c 0,0 0.50059,0.214136 0.60219,0.265288 0.10195,0.0508 0.12241,0.112183 0.10195,0.172861"
       style="fill:none;stroke:#231f20;stroke-width:0.0846665;stroke-linecap:butt;stroke-linejoin:miter;stroke-miterlimit:4;stroke-dasharray:none;stroke-opacity:1"
       id="path544" />
    <path
       d="m -169.54806,40.368597 0.10125,-0.0099"
       style="fill:none;stroke:#231f20;stroke-width:0.0846665;stroke-linecap:butt;stroke-linejoin:miter;stroke-miterlimit:4;stroke-dasharray:none;stroke-opacity:1"
       id="path546" />
    <path
       d="m -168.20186,39.053445 c 0,0 0.0515,0.0095 0.0515,0.06103 0,0 -0.14252,-0.0515 -0.0917,0.09066 0,0 0.20391,0.09172 0.24553,0.113594 0.0402,0.0194 0.10125,-0.13335 0.22402,-0.07161"
       style="fill:none;stroke:#231f20;stroke-width:0.0846665;stroke-linecap:butt;stroke-linejoin:miter;stroke-miterlimit:4;stroke-dasharray:none;stroke-opacity:1"
       id="path548" />
    <path
       d="m -167.8953,39.215722 -0.25506,-0.101247 c 0,0 0,-0.07197 0.0921,-0.04092 0.0921,0.03034 0.27516,0.07126 0.22436,0.131586"
       style="fill:none;stroke:#231f20;stroke-width:0.0846665;stroke-linecap:butt;stroke-linejoin:miter;stroke-miterlimit:4;stroke-dasharray:none;stroke-opacity:1"
       id="path550" />
    <path
       d="m -167.67093,39.246766 c 0,0 0.2039,-0.224718 0.63253,-0.326318"
       style="fill:none;stroke:#231f20;stroke-width:0.0846665;stroke-linecap:butt;stroke-linejoin:miter;stroke-miterlimit:4;stroke-dasharray:none;stroke-opacity:1"
       id="path552" />
    <path
       d="m -169.36497,40.328733 c 0,0 0.45932,0 0.9084,-0.306916 0.44909,-0.30621 0.58067,-0.601837 0.58067,-0.601837"
       style="fill:none;stroke:#231f20;stroke-width:0.0846665;stroke-linecap:butt;stroke-linejoin:miter;stroke-miterlimit:4;stroke-dasharray:none;stroke-opacity:1"
       id="path554" />
    <path
       d="m -167.79299,39.440441 c 0,0 -0.10231,-0.06103 0.01,-0.14358"
       style="fill:none;stroke:#231f20;stroke-width:0.0846665;stroke-linecap:butt;stroke-linejoin:miter;stroke-miterlimit:4;stroke-dasharray:none;stroke-opacity:1"
       id="path556" />
    <path
       d="m -168.31405,39.175153 0.0515,0.02046"
       style="fill:none;stroke:#231f20;stroke-width:0.0846665;stroke-linecap:butt;stroke-linejoin:miter;stroke-miterlimit:4;stroke-dasharray:none;stroke-opacity:1"
       id="path558" />
    <path
       d="m -167.93657,39.348366 0.072,0.0314"
       style="fill:none;stroke:#231f20;stroke-width:0.0846665;stroke-linecap:butt;stroke-linejoin:miter;stroke-miterlimit:4;stroke-dasharray:none;stroke-opacity:1"
       id="path560" />
    <path
       d="m -169.36461,40.031695 c -0.0363,0.109361 0.20461,0.08255 0.33725,0.03069 0.133,-0.05009 0.62195,-0.355952 0.70344,-0.448027 0.0822,-0.09208 0.0822,-0.163689 0.0102,-0.183444 -0.0706,-0.02081 -0.15205,0.0099 -0.27482,0.122061 -0.12311,0.11183 -0.3884,0.275871 -0.5408,0.347132 -0.15311,0.07126 -0.2159,0.07126 -0.2353,0.131586 z"
       style="fill:none;stroke:#231f20;stroke-width:0.0846665;stroke-linecap:butt;stroke-linejoin:miter;stroke-miterlimit:4;stroke-dasharray:none;stroke-opacity:1"
       id="path562" />
    <path
       d="m -169.12931,37.950311 c 0,0 0.13229,0.122767 0.14252,0.173919 0.01,0.0508 -0.0818,0.112536 -0.0818,0.112536"
       style="fill:none;stroke:#231f20;stroke-width:0.0846665;stroke-linecap:butt;stroke-linejoin:miter;stroke-miterlimit:4;stroke-dasharray:none;stroke-opacity:1"
       id="path564" />
    <path
       d="m -168.84427,38.073078 c 0,0 0.15311,0.143227 0.16369,0.194027 0.0106,0.0508 -0.0815,0.112183 -0.0815,0.112183"
       style="fill:none;stroke:#231f20;stroke-width:0.0846665;stroke-linecap:butt;stroke-linejoin:miter;stroke-miterlimit:4;stroke-dasharray:none;stroke-opacity:1"
       id="path566" />
    <path
       d="m -168.79312,38.073078 c 0,0 0.36866,0.233891 0.38806,0.286807 0.0208,0.05045 -0.0713,0.141464 -0.0713,0.141464"
       style="fill:none;stroke:#231f20;stroke-width:0.0846665;stroke-linecap:butt;stroke-linejoin:miter;stroke-miterlimit:4;stroke-dasharray:none;stroke-opacity:1"
       id="path568" />
    <path
       d="m -168.42446,38.216305 c 0,0 0.28504,0.1524 0.33584,0.23495 0.0511,0.08078 -0.0614,0.182738 -0.0614,0.182738"
       style="fill:none;stroke:#231f20;stroke-width:0.0846665;stroke-linecap:butt;stroke-linejoin:miter;stroke-miterlimit:4;stroke-dasharray:none;stroke-opacity:1"
       id="path570" />
    <path
       d="m -167.83356,38.715484 c 0,0 0.072,0.04163 0.20425,0.07161 l 0.1323,0.03175 c 0,0 0.12241,0.02999 0.20461,0.05115 0.0818,0.01975 0.14358,-0.01129 0.14358,-0.01129 0,0 0.28504,0.08184 0.32632,0.0508 l 0.0406,-0.02963 0.0102,0.04092"
       style="fill:none;stroke:#231f20;stroke-width:0.0846665;stroke-linecap:butt;stroke-linejoin:miter;stroke-miterlimit:4;stroke-dasharray:none;stroke-opacity:1"
       id="path572" />
    <path
       d="m -168.35391,38.236766 c 0,0 0.57115,0.264583 0.59231,0.346427 0.0205,0.08255 -0.072,0.132291 -0.072,0.132291"
       style="fill:none;stroke:#231f20;stroke-width:0.0846665;stroke-linecap:butt;stroke-linejoin:miter;stroke-miterlimit:4;stroke-dasharray:none;stroke-opacity:1"
       id="path574" />
    <path
       d="m -168.12884,38.267458 c 0.26459,0.07126 0.70273,0.326318 0.71332,0.398285 0.0102,0.07091 -0.0815,0.153105 -0.0815,0.153105"
       style="fill:none;stroke:#231f20;stroke-width:0.0846665;stroke-linecap:butt;stroke-linejoin:miter;stroke-miterlimit:4;stroke-dasharray:none;stroke-opacity:1"
       id="path576" />
    <path
       d="m -167.72103,38.359885 c 0,0 0.6223,0.244827 0.6223,0.355952 0,0.113242 -0.0505,0.143228 -0.0505,0.143228"
       style="fill:none;stroke:#231f20;stroke-width:0.0846665;stroke-linecap:butt;stroke-linejoin:miter;stroke-miterlimit:4;stroke-dasharray:none;stroke-opacity:1"
       id="path578" />
    <path
       d="m -167.49701,38.379288 c 0,0 0.64276,0.244827 0.69356,0.336196 0.0512,0.09243 0.0212,0.164042 0.0212,0.164042"
       style="fill:none;stroke:#231f20;stroke-width:0.0846665;stroke-linecap:butt;stroke-linejoin:miter;stroke-miterlimit:4;stroke-dasharray:none;stroke-opacity:1"
       id="path580" />
    <path
       d="m -167.35414,38.359885 c 0,0 0.7052,0.274461 0.73484,0.315383 0.0314,0.04057 -0.0208,0.0099 0.0314,0.04057 0.0501,0.0314 0.0709,-0.0095 0.0815,0.0508 0.01,0.06244 -0.0512,0.132997 -0.0512,0.132997"
       style="fill:none;stroke:#231f20;stroke-width:0.0846665;stroke-linecap:butt;stroke-linejoin:miter;stroke-miterlimit:4;stroke-dasharray:none;stroke-opacity:1"
       id="path582" />
    <path
       d="m -166.71138,38.736651 c 0.031,7.06e-4 0.0628,7.06e-4 0.0921,0"
       style="fill:none;stroke:#231f20;stroke-width:0.0846665;stroke-linecap:butt;stroke-linejoin:miter;stroke-miterlimit:4;stroke-dasharray:none;stroke-opacity:1"
       id="path584" />
    <path
       d="m -167.03699,38.716543 c 0.0688,0.0078 0.13582,0.01235 0.20461,0.01623"
       style="fill:none;stroke:#231f20;stroke-width:0.0846665;stroke-linecap:butt;stroke-linejoin:miter;stroke-miterlimit:4;stroke-dasharray:none;stroke-opacity:1"
       id="path586" />
    <path
       d="m -167.36543,38.672093 c 0.0646,0.01094 0.13053,0.02046 0.19615,0.03034"
       style="fill:none;stroke:#231f20;stroke-width:0.0846665;stroke-linecap:butt;stroke-linejoin:miter;stroke-miterlimit:4;stroke-dasharray:none;stroke-opacity:1"
       id="path588" />
    <path
       d="m -167.71962,38.59801 c 0.0801,0.02117 0.16299,0.03739 0.24624,0.05398"
       style="fill:none;stroke:#231f20;stroke-width:0.0846665;stroke-linecap:butt;stroke-linejoin:miter;stroke-miterlimit:4;stroke-dasharray:none;stroke-opacity:1"
       id="path590" />
    <path
       d="m -168.04699,38.510521 c 0.0924,0.02787 0.18662,0.05327 0.28398,0.07761"
       style="fill:none;stroke:#231f20;stroke-width:0.0846665;stroke-linecap:butt;stroke-linejoin:miter;stroke-miterlimit:4;stroke-dasharray:none;stroke-opacity:1"
       id="path592" />
    <path
       d="m -168.34968,38.410685 c 0.0713,0.02611 0.14605,0.0508 0.22155,0.07514"
       style="fill:none;stroke:#231f20;stroke-width:0.0846665;stroke-linecap:butt;stroke-linejoin:miter;stroke-miterlimit:4;stroke-dasharray:none;stroke-opacity:1"
       id="path594" />
    <path
       d="m -168.64495,38.296385 c 0.0677,0.02893 0.13794,0.05644 0.21343,0.08467"
       style="fill:none;stroke:#231f20;stroke-width:0.0846665;stroke-linecap:butt;stroke-linejoin:miter;stroke-miterlimit:4;stroke-dasharray:none;stroke-opacity:1"
       id="path596" />
    <path
       d="m -168.95081,38.155275 c 0.0691,0.03634 0.1457,0.07267 0.23072,0.110419"
       style="fill:none;stroke:#231f20;stroke-width:0.0846665;stroke-linecap:butt;stroke-linejoin:miter;stroke-miterlimit:4;stroke-dasharray:none;stroke-opacity:1"
       id="path598" />
    <path
       d="m -169.21045,38.00217 c 0.043,0.03281 0.10442,0.07126 0.17992,0.11183"
       style="fill:none;stroke:#231f20;stroke-width:0.0846665;stroke-linecap:butt;stroke-linejoin:miter;stroke-miterlimit:4;stroke-dasharray:none;stroke-opacity:1"
       id="path600" />
    <path
       d="m -167.30263,38.328488 c 0,0 0.62265,0.194733 0.75564,0.326672"
       style="fill:none;stroke:#231f20;stroke-width:0.0846665;stroke-linecap:butt;stroke-linejoin:miter;stroke-miterlimit:4;stroke-dasharray:none;stroke-opacity:1"
       id="path602" />
    <path
       d="m -166.46655,38.747587 c 0,0 -0.0614,0.152047 -0.0399,0.203905"
       style="fill:none;stroke:#231f20;stroke-width:0.0846665;stroke-linecap:butt;stroke-linejoin:miter;stroke-miterlimit:4;stroke-dasharray:none;stroke-opacity:1"
       id="path604" />
    <path
       d="m -166.27147,38.96137 c 0,0 0.0406,-0.102305 0.0406,-0.142169 0,-0.04127 0.01,-0.06174 0.0713,-0.04127 0.0614,0.02046 0.1524,0.03069 0.16263,0.08114 0.0109,0.0508 -0.13193,0.132997 -0.0815,0.194732"
       style="fill:none;stroke:#231f20;stroke-width:0.0846665;stroke-linecap:butt;stroke-linejoin:miter;stroke-miterlimit:4;stroke-dasharray:none;stroke-opacity:1"
       id="path606" />
    <path
       d="m -166.2309,38.880231 c 0,0 0.11219,-0.03104 0.18345,0.0194"
       style="fill:none;stroke:#231f20;stroke-width:0.0846665;stroke-linecap:butt;stroke-linejoin:miter;stroke-miterlimit:4;stroke-dasharray:none;stroke-opacity:1"
       id="path608" />
    <path
       d="m -166.43551,38.685498 c 0,0 0.33726,-0.0099 0.59196,0.173567"
       style="fill:none;stroke:#231f20;stroke-width:0.0846665;stroke-linecap:butt;stroke-linejoin:miter;stroke-miterlimit:4;stroke-dasharray:none;stroke-opacity:1"
       id="path610" />
    <path
       d="m -171.50985,36.78897 c 0.77117,-0.153105 1.28975,0.39899 1.19485,0.922159 -0.11676,0.645934 -0.75388,1.337024 -1.75153,1.444621 -0.6223,0.06668 -1.71803,-0.381352 -1.07456,-1.372655"
       style="fill:none;stroke:#231f20;stroke-width:0.0846665;stroke-linecap:butt;stroke-linejoin:miter;stroke-miterlimit:4;stroke-dasharray:none;stroke-opacity:1"
       id="path612" />
    <path
       d="m -170.36191,37.296969 c 0.1083,0.194027 0.17391,0.595134 0.13617,0.797275 -0.13018,0.695676 -0.8883,1.338436 -1.72014,1.417458 -0.69497,0.06632 -1.91911,-0.428624 -1.32786,-1.464377"
       style="fill:none;stroke:#231f20;stroke-width:0.0846665;stroke-linecap:butt;stroke-linejoin:miter;stroke-miterlimit:4;stroke-dasharray:none;stroke-opacity:1"
       id="path614" />
    <path
       d="M -171.47246,37.359057 V 22.403433"
       style="fill:none;stroke:#ffffff;stroke-width:0.338666;stroke-linecap:round;stroke-linejoin:round;stroke-miterlimit:4;stroke-dasharray:none;stroke-opacity:1"
       id="path616" />
    <path
       d="M -171.47246,37.359057 V 22.403433"
       style="fill:none;stroke:#231f20;stroke-width:0.0705554;stroke-linecap:round;stroke-linejoin:round;stroke-miterlimit:4;stroke-dasharray:none;stroke-opacity:1"
       id="path618" />
  </g>
</svg>
