<!-- Created with Inkscape (http://www.inkscape.org/) --><svg xmlns:inkscape="http://www.inkscape.org/namespaces/inkscape" xmlns:sodipodi="http://sodipodi.sourceforge.net/DTD/sodipodi-0.dtd" xmlns="http://www.w3.org/2000/svg" xmlns:svg="http://www.w3.org/2000/svg" version="1.1" id="svg2" width="559.35999" height="314.67227" viewBox="0 0 559.35998 314.67227" sodipodi:docname="pages_05.pdf">
  <defs id="defs6"/>
  <sodipodi:namedview id="namedview4" pagecolor="#ffffff" bordercolor="#666666" borderopacity="1.0" inkscape:showpageshadow="2" inkscape:pageopacity="0.0" inkscape:pagecheckerboard="0" inkscape:deskcolor="#d1d1d1"/>
  <path d="M 0,2664.57 H 4195.2 V 2976.3 H 0 Z" style="fill:#d3d2d2;fill-opacity:1;fill-rule:nonzero;stroke:none" id="path12" transform="matrix(0.133333 0 0 -0.133333 0 396.84)"/>
      <path d="M 0,2664.57 V 2976.3" style="fill:#d3d2d2;fill-opacity:1;fill-rule:nonzero;stroke:none" id="path14" transform="matrix(0.133333 0 0 -0.133333 0 396.84)"/>
      <text xml:space="preserve" transform="matrix(1.33333 0 0 -1.33333 460 38.44)" style="font-variant:normal;font-weight:normal;font-size:0.1px;font-family:Arial;-inkscape-font-specification:Arial;writing-mode:lr-tb;fill:#231f20;fill-opacity:1;fill-rule:nonzero;stroke:none" id="text20"><tspan x="0 7 14" y="0" sodipodi:role="line" id="tspan18">&#9742;&#9985;</tspan></text>
        <text xml:space="preserve" transform="matrix(1.33333 0 0 -1.33333 487.867 38.5733)" style="font-variant:normal;font-weight:normal;font-size:0.1px;font-family:Arial;-inkscape-font-specification:Arial;writing-mode:lr-tb;fill:#231f20;fill-opacity:1;fill-rule:nonzero;stroke:none" id="text24"><tspan x="0" y="0" id="tspan22">&#10017;</tspan></text>
        <text xml:space="preserve" transform="matrix(1.33333 0 0 -1.33333 497.333 38.44)" style="font-variant:normal;font-weight:normal;font-size:0.1px;font-family:Arial;-inkscape-font-specification:Arial;writing-mode:lr-tb;fill:#231f20;fill-opacity:1;fill-rule:nonzero;stroke:none" id="text28"><tspan x="0 7 14" y="0" sodipodi:role="line" id="tspan26">&#9986;&#9988;&#9990;</tspan></text>
        <text xml:space="preserve" transform="matrix(1.33333 0 0 -1.33333 520 376.84)" style="font-variant:normal;font-weight:normal;font-size:0.1px;font-family:Arial;-inkscape-font-specification:Arial;writing-mode:lr-tb;fill:#231f20;fill-opacity:1;fill-rule:nonzero;stroke:none" id="text32"><tspan x="0" y="0" id="tspan30"/></text>
        <text xml:space="preserve" transform="matrix(1.33333 0 0 -1.33333 363.333 82.44)" style="font-variant:normal;font-weight:normal;font-size:0.1px;font-family:Arial;-inkscape-font-specification:Arial;writing-mode:lr-tb;fill:#231f20;fill-opacity:1;fill-rule:nonzero;stroke:none" id="text36"><tspan x="0" y="0" id="tspan34">&#10047;</tspan></text>
        <text xml:space="preserve" transform="matrix(1.33333 0 0 -1.33333 401.6 83.5067)" style="font-variant:normal;font-weight:normal;font-size:0.1px;font-family:Arial;-inkscape-font-specification:Arial;writing-mode:lr-tb;fill:#231f20;fill-opacity:1;fill-rule:nonzero;stroke:none" id="text40"><tspan x="0 18" y="0" sodipodi:role="line" id="tspan38">P&#9687;</tspan></text>
      <path d="m 2182.68,2056.52 h 42.5195 v 176.691 H 2182.68 Z" style="fill:#656263;fill-opacity:1;fill-rule:nonzero;stroke:none" id="path42" transform="matrix(0.133333 0 0 -0.133333 0 396.84)"/>
      <path d="M 2182.68,2056.52 H 3940.16" style="fill:none;stroke:#656263;stroke-width:5;stroke-linecap:butt;stroke-linejoin:miter;stroke-miterlimit:10;stroke-dasharray:none;stroke-opacity:1" id="path44" transform="matrix(0.133333 0 0 -0.133333 0 396.84)"/>
      <text xml:space="preserve" transform="matrix(1.33333 0 0 -1.33333 300.4 116.973)" style="font-variant:normal;font-weight:normal;font-size:0.1px;font-family:Arial;-inkscape-font-specification:Arial;writing-mode:lr-tb;fill:#231f20;fill-opacity:1;fill-rule:nonzero;stroke:none" id="text50"><tspan x="0 12 24 36" y="0" sodipodi:role="line" id="tspan48">&#9988;&#9985;&#9986;&#9742;</tspan></text>
        <text xml:space="preserve" transform="matrix(1.33333 0 0 -1.33333 364.533 116.973)" style="font-variant:normal;font-weight:normal;font-size:0.1px;font-family:Arial;-inkscape-font-specification:Arial;writing-mode:lr-tb;fill:#231f20;fill-opacity:1;fill-rule:nonzero;stroke:none" id="text54"><tspan x="0 12 24 36" y="0" sodipodi:role="line" id="tspan52">&#9988;&#9742;&#10013;&#10014;</tspan></text>
        <text xml:space="preserve" transform="matrix(1.33333 0 0 -1.33333 289.067 145.24)" style="font-variant:normal;font-weight:normal;font-size:0.1px;font-family:Arial;-inkscape-font-specification:Arial;writing-mode:lr-tb;fill:#231f20;fill-opacity:1;fill-rule:nonzero;stroke:none" id="text58"><tspan x="0" y="0" id="tspan56">&#10032;</tspan></text>
        <text xml:space="preserve" transform="matrix(1.33333 0 0 -1.33333 313.6 143.507)" style="font-variant:normal;font-weight:normal;font-size:0.1px;font-family:Arial;-inkscape-font-specification:Arial;writing-mode:lr-tb;fill:#231f20;fill-opacity:1;fill-rule:nonzero;stroke:none" id="text62"><tspan x="0 10.4 19.700001 26.5 33.799999 44.599998 54.299999" y="0" sodipodi:role="line" id="tspan60">&#9990;&#10013;&#10014;&#10015;&#10016;&#10017;&#9755;</tspan></text>
        <text xml:space="preserve" transform="matrix(1.33333 0 0 -1.33333 399.867 143.507)" style="font-variant:normal;font-weight:normal;font-size:0.1px;font-family:Arial;-inkscape-font-specification:Arial;writing-mode:lr-tb;fill:#231f20;fill-opacity:1;fill-rule:nonzero;stroke:none" id="text66"><tspan x="0" y="0" id="tspan64">&#9997;</tspan></text>
        <text xml:space="preserve" transform="matrix(1.33333 0 0 -1.33333 414.267 143.507)" style="font-variant:normal;font-weight:normal;font-size:0.1px;font-family:Arial;-inkscape-font-specification:Arial;writing-mode:lr-tb;fill:#231f20;fill-opacity:1;fill-rule:nonzero;stroke:none" id="text70"><tspan x="0" y="0" id="tspan68">&#9758;</tspan></text>
        <text xml:space="preserve" transform="matrix(1.33333 0 0 -1.33333 428.4 143.507)" style="font-variant:normal;font-weight:normal;font-size:0.1px;font-family:Arial;-inkscape-font-specification:Arial;writing-mode:lr-tb;fill:#231f20;fill-opacity:1;fill-rule:nonzero;stroke:none" id="text74"><tspan x="0" y="0" id="tspan72">&#10025;</tspan></text>
        <text xml:space="preserve" transform="matrix(1.33333 0 0 -1.33333 442.933 143.507)" style="font-variant:normal;font-weight:normal;font-size:0.1px;font-family:Arial;-inkscape-font-specification:Arial;writing-mode:lr-tb;fill:#231f20;fill-opacity:1;fill-rule:nonzero;stroke:none" id="text78"><tspan x="0 11.2" y="0" sodipodi:role="line" id="tspan76">&#9996;&#9997;</tspan></text>
        <text xml:space="preserve" transform="matrix(1.33333 0 0 -1.33333 472.133 143.507)" style="font-variant:normal;font-weight:normal;font-size:0.1px;font-family:Arial;-inkscape-font-specification:Arial;writing-mode:lr-tb;fill:#231f20;fill-opacity:1;fill-rule:nonzero;stroke:none" id="text82"><tspan x="0" y="0" id="tspan80">&#10025;</tspan></text>
        <text xml:space="preserve" transform="matrix(1.33333 0 0 -1.33333 485.333 143.507)" style="font-variant:normal;font-weight:normal;font-size:0.1px;font-family:Arial;-inkscape-font-specification:Arial;writing-mode:lr-tb;fill:#231f20;fill-opacity:1;fill-rule:nonzero;stroke:none" id="text88"><tspan x="0 9.6000004 20" y="0" sodipodi:role="line" id="tspan84">&#9998;&#9999;&#10001;</tspan><tspan x="-128.8" y="-13" id="tspan86">&#10002;</tspan></text>
        <text xml:space="preserve" transform="matrix(1.33333 0 0 -1.33333 326 160.84)" style="font-variant:normal;font-weight:normal;font-size:0.1px;font-family:Arial;-inkscape-font-specification:Arial;writing-mode:lr-tb;fill:#231f20;fill-opacity:1;fill-rule:nonzero;stroke:none" id="text92"><tspan x="0" y="0" id="tspan90">&#10030;</tspan></text>
        <text xml:space="preserve" transform="matrix(1.33333 0 0 -1.33333 313.6 180.04)" style="font-variant:normal;font-weight:normal;font-size:0.1px;font-family:Arial;-inkscape-font-specification:Arial;writing-mode:lr-tb;fill:#231f20;fill-opacity:1;fill-rule:nonzero;stroke:none" id="text96"><tspan x="0 9.3999996 17.9 23.799999 30.299999 40.599998 49.5" y="0" sodipodi:role="line" id="tspan94">&#10003;&#10004;&#10005;&#10006;&#10007;&#10008;&#10009;</tspan></text>
        <text xml:space="preserve" transform="matrix(1.33333 0 0 -1.33333 392.533 179.907)" style="font-variant:normal;font-weight:normal;font-size:0.1px;font-family:Arial;-inkscape-font-specification:Arial;writing-mode:lr-tb;fill:#231f20;fill-opacity:1;fill-rule:nonzero;stroke:none" id="text100"><tspan x="0" y="0" id="tspan98">&#10004;</tspan></text>
        <text xml:space="preserve" transform="matrix(1.33333 0 0 -1.33333 405.867 180.04)" style="font-variant:normal;font-weight:normal;font-size:0.1px;font-family:Arial;-inkscape-font-specification:Arial;writing-mode:lr-tb;fill:#231f20;fill-opacity:1;fill-rule:nonzero;stroke:none" id="text104"><tspan x="0" y="0" id="tspan102">&#10010;</tspan></text>
        <text xml:space="preserve" transform="matrix(1.33333 0 0 -1.33333 419.333 179.907)" style="font-variant:normal;font-weight:normal;font-size:0.1px;font-family:Arial;-inkscape-font-specification:Arial;writing-mode:lr-tb;fill:#231f20;fill-opacity:1;fill-rule:nonzero;stroke:none" id="text108"><tspan x="0" y="0" id="tspan106">s</tspan></text>
        <text xml:space="preserve" transform="matrix(1.33333 0 0 -1.33333 432.667 180.04)" style="font-variant:normal;font-weight:normal;font-size:0.1px;font-family:Arial;-inkscape-font-specification:Arial;writing-mode:lr-tb;fill:#231f20;fill-opacity:1;fill-rule:nonzero;stroke:none" id="text112"><tspan x="0" y="0" id="tspan110">&#10011;</tspan></text>
        <text xml:space="preserve" transform="matrix(1.33333 0 0 -1.33333 445.333 179.907)" style="font-variant:normal;font-weight:normal;font-size:0.1px;font-family:Arial;-inkscape-font-specification:Arial;writing-mode:lr-tb;fill:#231f20;fill-opacity:1;fill-rule:nonzero;stroke:none" id="text116"><tspan x="0" y="0" id="tspan114">&#9993;</tspan></text>
        <text xml:space="preserve" transform="matrix(1.33333 0 0 -1.33333 458.133 180.04)" style="font-variant:normal;font-weight:normal;font-size:0.1px;font-family:Arial;-inkscape-font-specification:Arial;writing-mode:lr-tb;fill:#231f20;fill-opacity:1;fill-rule:nonzero;stroke:none" id="text120"><tspan x="0" y="0" id="tspan118">&#10095;</tspan></text>
        <text xml:space="preserve" transform="matrix(1.33333 0 0 -1.33333 471.067 179.907)" style="font-variant:normal;font-weight:normal;font-size:0.1px;font-family:Arial;-inkscape-font-specification:Arial;writing-mode:lr-tb;fill:#231f20;fill-opacity:1;fill-rule:nonzero;stroke:none" id="text128"><tspan x="0 10" y="0" sodipodi:role="line" id="tspan122">&#9755;&#10063;</tspan><tspan x="20.299999 30.6" y="-0.1" sodipodi:role="line" id="tspan124">&#10095;&#10097;</tspan><tspan x="-118 -108.1" y="-13" sodipodi:role="line" id="tspan126">&#10011;&#10005;</tspan></text>
        <text xml:space="preserve" transform="matrix(1.33333 0 0 -1.33333 335.867 197.373)" style="font-variant:normal;font-weight:normal;font-size:0.1px;font-family:Arial;-inkscape-font-specification:Arial;writing-mode:lr-tb;fill:#231f20;fill-opacity:1;fill-rule:nonzero;stroke:none" id="text132"><tspan x="0 10.8" y="0" sodipodi:role="line" id="tspan130">&#10012;&#10018;</tspan></text>
        <text xml:space="preserve" transform="matrix(1.33333 0 0 -1.33333 364.133 197.24)" style="font-variant:normal;font-weight:normal;font-size:0.1px;font-family:Arial;-inkscape-font-specification:Arial;writing-mode:lr-tb;fill:#231f20;fill-opacity:1;fill-rule:nonzero;stroke:none" id="text136"><tspan x="0" y="0" id="tspan134">&#9999;</tspan></text>
        <text xml:space="preserve" transform="matrix(1.33333 0 0 -1.33333 378 197.373)" style="font-variant:normal;font-weight:normal;font-size:0.1px;font-family:Arial;-inkscape-font-specification:Arial;writing-mode:lr-tb;fill:#231f20;fill-opacity:1;fill-rule:nonzero;stroke:none" id="text140"><tspan x="0 10.5" y="0" sodipodi:role="line" id="tspan138">&#10019;&#10020;</tspan></text>
        <text xml:space="preserve" transform="matrix(1.33333 0 0 -1.33333 405.467 197.24)" style="font-variant:normal;font-weight:normal;font-size:0.1px;font-family:Arial;-inkscape-font-specification:Arial;writing-mode:lr-tb;fill:#231f20;fill-opacity:1;fill-rule:nonzero;stroke:none" id="text144"><tspan x="0" y="0" id="tspan142">&#10006;</tspan></text>
        <text xml:space="preserve" transform="matrix(1.33333 0 0 -1.33333 419.333 197.373)" style="font-variant:normal;font-weight:normal;font-size:0.1px;font-family:Arial;-inkscape-font-specification:Arial;writing-mode:lr-tb;fill:#231f20;fill-opacity:1;fill-rule:nonzero;stroke:none" id="text148"><tspan x="0" y="0" id="tspan146">&#10010;</tspan></text>
        <text xml:space="preserve" transform="matrix(1.33333 0 0 -1.33333 433.067 197.24)" style="font-variant:normal;font-weight:normal;font-size:0.1px;font-family:Arial;-inkscape-font-specification:Arial;writing-mode:lr-tb;fill:#231f20;fill-opacity:1;fill-rule:nonzero;stroke:none" id="text152"><tspan x="0 9.6999998 19.299999 29.4 40" y="0" sodipodi:role="line" id="tspan150">&#10038;&#10083;&#10047;&#10063;&#10023;</tspan></text>
        <text xml:space="preserve" transform="matrix(1.33333 0 0 -1.33333 499.2 197.373)" style="font-variant:normal;font-weight:normal;font-size:0.1px;font-family:Arial;-inkscape-font-specification:Arial;writing-mode:lr-tb;fill:#231f20;fill-opacity:1;fill-rule:nonzero;stroke:none" id="text156"><tspan x="0" y="0" id="tspan154">&#10038;</tspan></text>
        <text xml:space="preserve" transform="matrix(1.33333 0 0 -1.33333 512 197.24)" style="font-variant:normal;font-weight:normal;font-size:0.1px;font-family:Arial;-inkscape-font-specification:Arial;writing-mode:lr-tb;fill:#231f20;fill-opacity:1;fill-rule:nonzero;stroke:none" id="text162"><tspan x="0" y="0" id="tspan158">&#10044;</tspan><tspan x="-148.7 -139.8" y="-13" sodipodi:role="line" id="tspan160">&#10038;&#10045;</tspan></text>
        <text xml:space="preserve" transform="matrix(1.33333 0 0 -1.33333 334.4 214.707)" style="font-variant:normal;font-weight:normal;font-size:0.1px;font-family:Arial;-inkscape-font-specification:Arial;writing-mode:lr-tb;fill:#231f20;fill-opacity:1;fill-rule:nonzero;stroke:none" id="text166"><tspan x="0" y="0" id="tspan164">&#10097;</tspan></text>
        <text xml:space="preserve" transform="matrix(1.33333 0 0 -1.33333 347.867 214.573)" style="font-variant:normal;font-weight:normal;font-size:0.1px;font-family:Arial;-inkscape-font-specification:Arial;writing-mode:lr-tb;fill:#231f20;fill-opacity:1;fill-rule:nonzero;stroke:none" id="text170"><tspan x="0 10" y="0" sodipodi:role="line" id="tspan168">&#10009;&#10005;</tspan></text>
        <text xml:space="preserve" transform="matrix(1.33333 0 0 -1.33333 370 214.707)" style="font-variant:normal;font-weight:normal;font-size:0.1px;font-family:Arial;-inkscape-font-specification:Arial;writing-mode:lr-tb;fill:#231f20;fill-opacity:1;fill-rule:nonzero;stroke:none" id="text174"><tspan x="0 10.5" y="0" sodipodi:role="line" id="tspan172">&#10021;&#10022;</tspan></text>
        <text xml:space="preserve" transform="matrix(1.33333 0 0 -1.33333 397.6 214.573)" style="font-variant:normal;font-weight:normal;font-size:0.1px;font-family:Arial;-inkscape-font-specification:Arial;writing-mode:lr-tb;fill:#231f20;fill-opacity:1;fill-rule:nonzero;stroke:none" id="text178"><tspan x="0" y="0" id="tspan176">&#10009;</tspan></text>
        <text xml:space="preserve" transform="matrix(1.33333 0 0 -1.33333 410.933 214.707)" style="font-variant:normal;font-weight:normal;font-size:0.1px;font-family:Arial;-inkscape-font-specification:Arial;writing-mode:lr-tb;fill:#231f20;fill-opacity:1;fill-rule:nonzero;stroke:none" id="text182"><tspan x="0" y="0" id="tspan180">&#10023;</tspan></text>
        <text xml:space="preserve" transform="matrix(1.33333 0 0 -1.33333 423.733 214.573)" style="font-variant:normal;font-weight:normal;font-size:0.1px;font-family:Arial;-inkscape-font-specification:Arial;writing-mode:lr-tb;fill:#231f20;fill-opacity:1;fill-rule:nonzero;stroke:none" id="text186"><tspan x="0 9.5" y="0" sodipodi:role="line" id="tspan184">&#10011;&#10020;</tspan></text>
        <text xml:space="preserve" transform="matrix(1.33333 0 0 -1.33333 449.867 214.707)" style="font-variant:normal;font-weight:normal;font-size:0.1px;font-family:Arial;-inkscape-font-specification:Arial;writing-mode:lr-tb;fill:#231f20;fill-opacity:1;fill-rule:nonzero;stroke:none" id="text190"><tspan x="0" y="0" id="tspan188">&#9733;</tspan></text>
        <text xml:space="preserve" transform="matrix(1.33333 0 0 -1.33333 462.933 214.573)" style="font-variant:normal;font-weight:normal;font-size:0.1px;font-family:Arial;-inkscape-font-specification:Arial;writing-mode:lr-tb;fill:#231f20;fill-opacity:1;fill-rule:nonzero;stroke:none" id="text194"><tspan x="0" y="0" id="tspan192">&#10005;</tspan></text>
        <text xml:space="preserve" transform="matrix(1.33333 0 0 -1.33333 471.867 214.707)" style="font-variant:normal;font-weight:normal;font-size:0.1px;font-family:Arial;-inkscape-font-specification:Arial;writing-mode:lr-tb;fill:#231f20;fill-opacity:1;fill-rule:nonzero;stroke:none" id="text198"><tspan x="0 10.3" y="0" sodipodi:role="line" id="tspan196">&#10025;&#10026;</tspan></text>
        <text xml:space="preserve" transform="matrix(1.33333 0 0 -1.33333 499.2 214.573)" style="font-variant:normal;font-weight:normal;font-size:0.1px;font-family:Arial;-inkscape-font-specification:Arial;writing-mode:lr-tb;fill:#231f20;fill-opacity:1;fill-rule:nonzero;stroke:none" id="text204"><tspan x="0 9.6000004" y="0" sodipodi:role="line" id="tspan200">&#10038;&#10039;</tspan><tspan x="-139.2" y="-13" id="tspan202">&#10047;</tspan></text>
        <text xml:space="preserve" transform="matrix(1.33333 0 0 -1.33333 326.133 232.04)" style="font-variant:normal;font-weight:normal;font-size:0.1px;font-family:Arial;-inkscape-font-specification:Arial;writing-mode:lr-tb;fill:#231f20;fill-opacity:1;fill-rule:nonzero;stroke:none" id="text208"><tspan x="0" y="0" id="tspan206">&#10095;</tspan></text>
        <text xml:space="preserve" transform="matrix(1.33333 0 0 -1.33333 338.8 231.907)" style="font-variant:normal;font-weight:normal;font-size:0.1px;font-family:Arial;-inkscape-font-specification:Arial;writing-mode:lr-tb;fill:#231f20;fill-opacity:1;fill-rule:nonzero;stroke:none" id="text212"><tspan x="0 9.8000002 19.299999 27.799999 36.5" y="0" sodipodi:role="line" id="tspan210">&#9755;&#10025;&#10038;&#10012;&#9733;</tspan></text>
        <text xml:space="preserve" transform="matrix(1.33333 0 0 -1.33333 399.733 232.04)" style="font-variant:normal;font-weight:normal;font-size:0.1px;font-family:Arial;-inkscape-font-specification:Arial;writing-mode:lr-tb;fill:#231f20;fill-opacity:1;fill-rule:nonzero;stroke:none" id="text216"><tspan x="0" y="0" id="tspan214">&#10038;</tspan></text>
        <text xml:space="preserve" transform="matrix(1.33333 0 0 -1.33333 411.867 231.907)" style="font-variant:normal;font-weight:normal;font-size:0.1px;font-family:Arial;-inkscape-font-specification:Arial;writing-mode:lr-tb;fill:#231f20;fill-opacity:1;fill-rule:nonzero;stroke:none" id="text220"><tspan x="0 9.6000004 18.1" y="0" sodipodi:role="line" id="tspan218">&#10044;&#10038;&#10045;</tspan></text>
        <text xml:space="preserve" transform="matrix(1.33333 0 0 -1.33333 106.4 82.44)" style="font-variant:normal;font-weight:normal;font-size:0.1px;font-family:Arial;-inkscape-font-specification:Arial;writing-mode:lr-tb;fill:#231f20;fill-opacity:1;fill-rule:nonzero;stroke:none" id="text224"><tspan x="0" y="0" id="tspan222">&#10047;</tspan></text>
        <text xml:space="preserve" transform="matrix(1.33333 0 0 -1.33333 144.533 83.3733)" style="font-variant:normal;font-weight:normal;font-size:0.1px;font-family:Arial;-inkscape-font-specification:Arial;writing-mode:lr-tb;fill:#231f20;fill-opacity:1;fill-rule:nonzero;stroke:none" id="text228"><tspan x="0 18" y="0" sodipodi:role="line" id="tspan226">&#9670;&#10070;</tspan></text>
      <path d="m 255.121,1896.52 h 42.5195 v 336.691 H 255.121 Z" style="fill:#656263;fill-opacity:1;fill-rule:nonzero;stroke:none" id="path230" transform="matrix(0.133333 0 0 -0.133333 0 396.84)"/>
      <path d="M 255.121,1896.52 H 2012.6" style="fill:none;stroke:#656263;stroke-width:5;stroke-linecap:butt;stroke-linejoin:miter;stroke-miterlimit:10;stroke-dasharray:none;stroke-opacity:1" id="path232" transform="matrix(0.133333 0 0 -0.133333 0 396.84)"/>
      <text xml:space="preserve" transform="matrix(1.33333 0 0 -1.33333 43.3333 116.973)" style="font-variant:normal;font-weight:normal;font-size:0.1px;font-family:Arial;-inkscape-font-specification:Arial;writing-mode:lr-tb;fill:#231f20;fill-opacity:1;fill-rule:nonzero;stroke:none" id="text238"><tspan x="0 12 24 36 48 60 72 84 96" y="0" sodipodi:role="line" id="tspan236">&#10027;&#10028;&#10029;&#10030;&#10031;&#10032;&#10033;&#10034;&#10035;</tspan></text>
        <text xml:space="preserve" transform="matrix(1.33333 0 0 -1.33333 187.467 116.973)" style="font-variant:normal;font-weight:normal;font-size:0.1px;font-family:Arial;-inkscape-font-specification:Arial;writing-mode:lr-tb;fill:#231f20;fill-opacity:1;fill-rule:nonzero;stroke:none" id="text242"><tspan x="0" y="0" id="tspan240">&#9988;</tspan></text>
        <text xml:space="preserve" transform="matrix(1.33333 0 0 -1.33333 203.333 116.973)" style="font-variant:normal;font-weight:normal;font-size:0.1px;font-family:Arial;-inkscape-font-specification:Arial;writing-mode:lr-tb;fill:#231f20;fill-opacity:1;fill-rule:nonzero;stroke:none" id="text246"><tspan x="0 12 24 36" y="0" sodipodi:role="line" id="tspan244">&#10036;&#10037;&#10038;&#10039;</tspan></text>
        <text xml:space="preserve" transform="matrix(1.33333 0 0 -1.33333 43.4667 138.307)" style="font-variant:normal;font-weight:normal;font-size:0.1px;font-family:Arial;-inkscape-font-specification:Arial;writing-mode:lr-tb;fill:#231f20;fill-opacity:1;fill-rule:nonzero;stroke:none" id="text250"><tspan x="0" y="0" id="tspan248">&#10013;</tspan></text>
        <text xml:space="preserve" transform="matrix(1.33333 0 0 -1.33333 32.1333 166.573)" style="font-variant:normal;font-weight:normal;font-size:0.1px;font-family:Arial;-inkscape-font-specification:Arial;writing-mode:lr-tb;fill:#231f20;fill-opacity:1;fill-rule:nonzero;stroke:none" id="text256"><tspan x="0" y="0" id="tspan252">&#10052;</tspan><tspan x="18.4 29 39.299999" y="1.3" sodipodi:role="line" id="tspan254">&#10053;&#10054;&#10057;</tspan></text>
        <text xml:space="preserve" transform="matrix(1.33333 0 0 -1.33333 97.4667 164.84)" style="font-variant:normal;font-weight:normal;font-size:0.1px;font-family:Arial;-inkscape-font-specification:Arial;writing-mode:lr-tb;fill:#231f20;fill-opacity:1;fill-rule:nonzero;stroke:none" id="text260"><tspan x="0 9.8999996 19.5 29.299999 39.099998 48.099998 57.599998 67.800003 77.800003" y="0" sodipodi:role="line" id="tspan258">&#10014;&#10040;&#10013;&#10016;&#10041;&#10042;&#10043;&#10017;&#10044;</tspan></text>
        <text xml:space="preserve" transform="matrix(1.33333 0 0 -1.33333 214.8 164.84)" style="font-variant:normal;font-weight:normal;font-size:0.1px;font-family:Arial;-inkscape-font-specification:Arial;writing-mode:lr-tb;fill:#231f20;fill-opacity:1;fill-rule:nonzero;stroke:none" id="text264"><tspan x="0" y="0" id="tspan262">&#10025;</tspan></text>
        <text xml:space="preserve" transform="matrix(1.33333 0 0 -1.33333 227.867 164.84)" style="font-variant:normal;font-weight:normal;font-size:0.1px;font-family:Arial;-inkscape-font-specification:Arial;writing-mode:lr-tb;fill:#231f20;fill-opacity:1;fill-rule:nonzero;stroke:none" id="text268"><tspan x="0 10.6 20.299999" y="0" sodipodi:role="line" id="tspan266">&#10001;&#10045;&#9998;</tspan></text>
        <text xml:space="preserve" transform="matrix(1.33333 0 0 -1.33333 56.5333 182.173)" style="font-variant:normal;font-weight:normal;font-size:0.1px;font-family:Arial;-inkscape-font-specification:Arial;writing-mode:lr-tb;fill:#231f20;fill-opacity:1;fill-rule:nonzero;stroke:none" id="text272"><tspan x="0 9.8999996 19.799999" y="0" sodipodi:role="line" id="tspan270">&#9632;&#10019;&#10030;</tspan></text>
        <text xml:space="preserve" transform="matrix(1.33333 0 0 -1.33333 56.6667 201.24)" style="font-variant:normal;font-weight:normal;font-size:0.1px;font-family:Arial;-inkscape-font-specification:Arial;writing-mode:lr-tb;fill:#231f20;fill-opacity:1;fill-rule:nonzero;stroke:none" id="text276"><tspan x="0" y="0" id="tspan274">&#9997;</tspan></text>
        <text xml:space="preserve" transform="matrix(1.33333 0 0 -1.33333 70.2667 201.373)" style="font-variant:normal;font-weight:normal;font-size:0.1px;font-family:Arial;-inkscape-font-specification:Arial;writing-mode:lr-tb;fill:#231f20;fill-opacity:1;fill-rule:nonzero;stroke:none" id="text280"><tspan x="0" y="0" id="tspan278">&#10046;</tspan></text>
        <text xml:space="preserve" transform="matrix(1.33333 0 0 -1.33333 83.6 201.24)" style="font-variant:normal;font-weight:normal;font-size:0.1px;font-family:Arial;-inkscape-font-specification:Arial;writing-mode:lr-tb;fill:#231f20;fill-opacity:1;fill-rule:nonzero;stroke:none" id="text284"><tspan x="0" y="0" id="tspan282">&#10004;</tspan></text>
        <text xml:space="preserve" transform="matrix(1.33333 0 0 -1.33333 96 201.373)" style="font-variant:normal;font-weight:normal;font-size:0.1px;font-family:Arial;-inkscape-font-specification:Arial;writing-mode:lr-tb;fill:#231f20;fill-opacity:1;fill-rule:nonzero;stroke:none" id="text288"><tspan x="0 8.6000004 16.9 26.299999 34.700001 44.5 54 63.099998 72.400002" y="0" sodipodi:role="line" id="tspan286">&#10047;&#10048;&#10007;&#10004;&#10049;&#10050;&#10051;&#10052;&#10053;</tspan></text>
        <text xml:space="preserve" transform="matrix(1.33333 0 0 -1.33333 204.667 201.24)" style="font-variant:normal;font-weight:normal;font-size:0.1px;font-family:Arial;-inkscape-font-specification:Arial;writing-mode:lr-tb;fill:#231f20;fill-opacity:1;fill-rule:nonzero;stroke:none" id="text292"><tspan x="0 9.8000002 19.5" y="0" sodipodi:role="line" id="tspan290">&#10003;&#10004;&#10023;</tspan></text>
        <text xml:space="preserve" transform="matrix(1.33333 0 0 -1.33333 242.8 201.373)" style="font-variant:normal;font-weight:normal;font-size:0.1px;font-family:Arial;-inkscape-font-specification:Arial;writing-mode:lr-tb;fill:#231f20;fill-opacity:1;fill-rule:nonzero;stroke:none" id="text296"><tspan x="0" y="0" id="tspan294">&#10038;</tspan></text>
        <text xml:space="preserve" transform="matrix(1.33333 0 0 -1.33333 255.067 201.24)" style="font-variant:normal;font-weight:normal;font-size:0.1px;font-family:Arial;-inkscape-font-specification:Arial;writing-mode:lr-tb;fill:#231f20;fill-opacity:1;fill-rule:nonzero;stroke:none" id="text300"><tspan x="0" y="0" id="tspan298">&#10044;</tspan></text>
        <text xml:space="preserve" transform="matrix(1.33333 0 0 -1.33333 56.6667 218.707)" style="font-variant:normal;font-weight:normal;font-size:0.1px;font-family:Arial;-inkscape-font-specification:Arial;writing-mode:lr-tb;fill:#231f20;fill-opacity:1;fill-rule:nonzero;stroke:none" id="text304"><tspan x="0" y="0" id="tspan302">&#10054;</tspan></text>
        <text xml:space="preserve" transform="matrix(1.33333 0 0 -1.33333 69.6 218.707)" style="font-variant:normal;font-weight:normal;font-size:0.1px;font-family:Arial;-inkscape-font-specification:Arial;writing-mode:lr-tb;fill:#231f20;fill-opacity:1;fill-rule:nonzero;stroke:none" id="text308"><tspan x="0" y="0" id="tspan306">&#10090;</tspan></text>
        <text xml:space="preserve" transform="matrix(1.33333 0 0 -1.33333 82.9333 218.573)" style="font-variant:normal;font-weight:normal;font-size:0.1px;font-family:Arial;-inkscape-font-specification:Arial;writing-mode:lr-tb;fill:#231f20;fill-opacity:1;fill-rule:nonzero;stroke:none" id="text312"><tspan x="0" y="0" id="tspan310">&#10045;</tspan></text>
        <text xml:space="preserve" transform="matrix(1.33333 0 0 -1.33333 91.4667 218.707)" style="font-variant:normal;font-weight:normal;font-size:0.1px;font-family:Arial;-inkscape-font-specification:Arial;writing-mode:lr-tb;fill:#231f20;fill-opacity:1;fill-rule:nonzero;stroke:none" id="text316"><tspan x="0" y="0" id="tspan314">&#10041;</tspan></text>
        <text xml:space="preserve" transform="matrix(1.33333 0 0 -1.33333 104 218.573)" style="font-variant:normal;font-weight:normal;font-size:0.1px;font-family:Arial;-inkscape-font-specification:Arial;writing-mode:lr-tb;fill:#231f20;fill-opacity:1;fill-rule:nonzero;stroke:none" id="text320"><tspan x="0 8.6000004 18.1" y="0" sodipodi:role="line" id="tspan318">&#10052;&#10043;&#10018;</tspan></text>
        <text xml:space="preserve" transform="matrix(1.33333 0 0 -1.33333 142 218.707)" style="font-variant:normal;font-weight:normal;font-size:0.1px;font-family:Arial;-inkscape-font-specification:Arial;writing-mode:lr-tb;fill:#231f20;fill-opacity:1;fill-rule:nonzero;stroke:none" id="text324"><tspan x="0" y="0" id="tspan322">&#10037;</tspan></text>
        <text xml:space="preserve" transform="matrix(1.33333 0 0 -1.33333 155.2 218.573)" style="font-variant:normal;font-weight:normal;font-size:0.1px;font-family:Arial;-inkscape-font-specification:Arial;writing-mode:lr-tb;fill:#231f20;fill-opacity:1;fill-rule:nonzero;stroke:none" id="text328"><tspan x="0 9.3999996 18.799999 28.299999" y="0" sodipodi:role="line" id="tspan326">&#10038;&#10039;&#10047;&#10005;</tspan></text>
        <text xml:space="preserve" transform="matrix(1.33333 0 0 -1.33333 201.467 218.707)" style="font-variant:normal;font-weight:normal;font-size:0.1px;font-family:Arial;-inkscape-font-specification:Arial;writing-mode:lr-tb;fill:#231f20;fill-opacity:1;fill-rule:nonzero;stroke:none" id="text332"><tspan x="0 10.2" y="0" sodipodi:role="line" id="tspan330">rs</tspan></text>
        <text xml:space="preserve" transform="matrix(1.33333 0 0 -1.33333 228.267 218.573)" style="font-variant:normal;font-weight:normal;font-size:0.1px;font-family:Arial;-inkscape-font-specification:Arial;writing-mode:lr-tb;fill:#231f20;fill-opacity:1;fill-rule:nonzero;stroke:none" id="text336"><tspan x="0" y="0" id="tspan334">&#9999;</tspan></text>
        <text xml:space="preserve" transform="matrix(1.33333 0 0 -1.33333 241.467 218.707)" style="font-variant:normal;font-weight:normal;font-size:0.1px;font-family:Arial;-inkscape-font-specification:Arial;writing-mode:lr-tb;fill:#231f20;fill-opacity:1;fill-rule:nonzero;stroke:none" id="text340"><tspan x="0 10.2" y="0" sodipodi:role="line" id="tspan338">t&#9993;</tspan></text>
        <text xml:space="preserve" transform="matrix(1.33333 0 0 -1.33333 56.5333 235.907)" style="font-variant:normal;font-weight:normal;font-size:0.1px;font-family:Arial;-inkscape-font-specification:Arial;writing-mode:lr-tb;fill:#231f20;fill-opacity:1;fill-rule:nonzero;stroke:none" id="text344"><tspan x="0 9.3000002" y="0" sodipodi:role="line" id="tspan342">&#10047;&#9733;</tspan></text>
        <text xml:space="preserve" transform="matrix(1.33333 0 0 -1.33333 81.2 236.04)" style="font-variant:normal;font-weight:normal;font-size:0.1px;font-family:Arial;-inkscape-font-specification:Arial;writing-mode:lr-tb;fill:#231f20;fill-opacity:1;fill-rule:nonzero;stroke:none" id="text348"><tspan x="0" y="0" id="tspan346">&#10038;</tspan></text>
        <text xml:space="preserve" transform="matrix(1.33333 0 0 -1.33333 93.3333 235.907)" style="font-variant:normal;font-weight:normal;font-size:0.1px;font-family:Arial;-inkscape-font-specification:Arial;writing-mode:lr-tb;fill:#231f20;fill-opacity:1;fill-rule:nonzero;stroke:none" id="text352"><tspan x="0 9.6000004 18.1" y="0" sodipodi:role="line" id="tspan350">&#10044;&#10038;&#10045;</tspan></text>
      <path d="m 255.121,918.121 h 42.5195 v 176.688 H 255.121 Z" style="fill:#656263;fill-opacity:1;fill-rule:nonzero;stroke:none" id="path354" transform="matrix(0.133333 0 0 -0.133333 0 396.84)"/>
      <path d="M 255.121,918.121 H 2012.6" style="fill:none;stroke:#656263;stroke-width:5;stroke-linecap:butt;stroke-linejoin:miter;stroke-miterlimit:10;stroke-dasharray:none;stroke-opacity:1" id="path356" transform="matrix(0.133333 0 0 -0.133333 0 396.84)"/>
      <text xml:space="preserve" transform="matrix(1.33333 0 0 -1.33333 43.3333 268.84)" style="font-variant:normal;font-weight:normal;font-size:0.1px;font-family:Arial;-inkscape-font-specification:Arial;writing-mode:lr-tb;fill:#231f20;fill-opacity:1;fill-rule:nonzero;stroke:none" id="text364"><tspan x="0 12 21 30 42" y="0" sodipodi:role="line" id="tspan360">&#10055;&#10056;&#10057;&#10058;&#10059;</tspan><tspan x="54 66" y="0.1" sodipodi:role="line" id="tspan362">&#10038;&#10039;</tspan></text>
        <text xml:space="preserve" transform="matrix(1.33333 0 0 -1.33333 147.467 268.707)" style="font-variant:normal;font-weight:normal;font-size:0.1px;font-family:Arial;-inkscape-font-specification:Arial;writing-mode:lr-tb;fill:#231f20;fill-opacity:1;fill-rule:nonzero;stroke:none" id="text368"><tspan x="0" y="0" id="tspan366">&#10013;</tspan></text>
        <text xml:space="preserve" transform="matrix(1.33333 0 0 -1.33333 32.1333 297.107)" style="font-variant:normal;font-weight:normal;font-size:0.1px;font-family:Arial;-inkscape-font-specification:Arial;writing-mode:lr-tb;fill:#231f20;fill-opacity:1;fill-rule:nonzero;stroke:none" id="text372"><tspan x="0" y="0" id="tspan370">&#9679;</tspan></text>
        <text xml:space="preserve" transform="matrix(1.33333 0 0 -1.33333 56.6667 295.24)" style="font-variant:normal;font-weight:normal;font-size:0.1px;font-family:Arial;-inkscape-font-specification:Arial;writing-mode:lr-tb;fill:#231f20;fill-opacity:1;fill-rule:nonzero;stroke:none" id="text376"><tspan x="0 10.2 20.200001" y="0" sodipodi:role="line" id="tspan374">&#10053;&#10054;&#10057;</tspan></text>
        <text xml:space="preserve" transform="matrix(1.33333 0 0 -1.33333 96.9333 295.24)" style="font-variant:normal;font-weight:normal;font-size:0.1px;font-family:Arial;-inkscape-font-specification:Arial;writing-mode:lr-tb;fill:#231f20;fill-opacity:1;fill-rule:nonzero;stroke:none" id="text380"><tspan x="0 10.2 17 23.700001 34 43.400002" y="0" sodipodi:role="line" id="tspan378">&#10061;&#9632;&#10015;&#10063;&#10065;&#9998;</tspan></text>
        <text xml:space="preserve" transform="matrix(1.33333 0 0 -1.33333 167.333 295.24)" style="font-variant:normal;font-weight:normal;font-size:0.1px;font-family:Arial;-inkscape-font-specification:Arial;writing-mode:lr-tb;fill:#231f20;fill-opacity:1;fill-rule:nonzero;stroke:none" id="text384"><tspan x="0 9.8000002 19.700001" y="0" sodipodi:role="line" id="tspan382">&#9632;&#10019;&#10030;</tspan></text>
        <text xml:space="preserve" transform="matrix(1.33333 0 0 -1.33333 56.5333 314.44)" style="font-variant:normal;font-weight:normal;font-size:0.1px;font-family:Arial;-inkscape-font-specification:Arial;writing-mode:lr-tb;fill:#231f20;fill-opacity:1;fill-rule:nonzero;stroke:none" id="text388"><tspan x="0 9.8999996 19.700001" y="0" sodipodi:role="line" id="tspan386">&#10081;&#10063;&#9999;</tspan></text>
        <text xml:space="preserve" transform="matrix(1.33333 0 0 -1.33333 95.7333 314.573)" style="font-variant:normal;font-weight:normal;font-size:0.1px;font-family:Arial;-inkscape-font-specification:Arial;writing-mode:lr-tb;fill:#231f20;fill-opacity:1;fill-rule:nonzero;stroke:none" id="text392"><tspan x="0 10" y="0" sodipodi:role="line" id="tspan390">t&#9993;</tspan></text>
        <text xml:space="preserve" transform="matrix(1.33333 0 0 -1.33333 121.6 314.44)" style="font-variant:normal;font-weight:normal;font-size:0.1px;font-family:Arial;-inkscape-font-specification:Arial;writing-mode:lr-tb;fill:#231f20;fill-opacity:1;fill-rule:nonzero;stroke:none" id="text396"><tspan x="0 9.3999996" y="0" sodipodi:role="line" id="tspan394">&#10047;&#9733;</tspan></text>
        <text xml:space="preserve" transform="matrix(1.33333 0 0 -1.33333 146.267 314.573)" style="font-variant:normal;font-weight:normal;font-size:0.1px;font-family:Arial;-inkscape-font-specification:Arial;writing-mode:lr-tb;fill:#231f20;fill-opacity:1;fill-rule:nonzero;stroke:none" id="text400"><tspan x="0" y="0" id="tspan398">&#10038;</tspan></text>
        <text xml:space="preserve" transform="matrix(1.33333 0 0 -1.33333 158.4 314.44)" style="font-variant:normal;font-weight:normal;font-size:0.1px;font-family:Arial;-inkscape-font-specification:Arial;writing-mode:lr-tb;fill:#231f20;fill-opacity:1;fill-rule:nonzero;stroke:none" id="text404"><tspan x="0 9.6999998 18.1" y="0" sodipodi:role="line" id="tspan402">&#10044;&#10038;&#10045;</tspan></text>
      </svg>