<!-- Created with Inkscape (http://www.inkscape.org/) --><svg xmlns:inkscape="http://www.inkscape.org/namespaces/inkscape" xmlns:sodipodi="http://sodipodi.sourceforge.net/DTD/sodipodi-0.dtd" xmlns="http://www.w3.org/2000/svg" xmlns:svg="http://www.w3.org/2000/svg" version="1.1" id="svg2" width="559.35999" height="376.91583" viewBox="0 0 559.35998 376.91583" sodipodi:docname="pages_27.pdf">
  <defs id="defs6"/>
  <sodipodi:namedview id="namedview4" pagecolor="#ffffff" bordercolor="#666666" borderopacity="1.0" inkscape:showpageshadow="2" inkscape:pageopacity="0.0" inkscape:pagecheckerboard="0" inkscape:deskcolor="#d1d1d1"/>
  <path d="M 0,2664.57 H 4195.2 V 2976.3 H 0 Z" style="fill:#7b7979;fill-opacity:1;fill-rule:nonzero;stroke:none" id="path12" transform="matrix(0.133333 0 0 -0.133333 0 396.84)"/>
      <text xml:space="preserve" transform="matrix(1.33333 0 0 -1.33333 514 376.84)" style="font-variant:normal;font-weight:normal;font-size:0.1px;font-family:Arial;-inkscape-font-specification:Arial;writing-mode:lr-tb;fill:#231f20;fill-opacity:1;fill-rule:nonzero;stroke:none" id="text18"><tspan x="0" y="0" id="tspan16">&#9755;</tspan></text>
        <text xml:space="preserve" transform="matrix(1.33333 0 0 -1.33333 520 376.84)" style="font-variant:normal;font-weight:normal;font-size:0.1px;font-family:Arial;-inkscape-font-specification:Arial;writing-mode:lr-tb;fill:#231f20;fill-opacity:1;fill-rule:nonzero;stroke:none" id="text22"><tspan x="0" y="0" id="tspan20"/></text>
      <path d="M 0,2664.57 V 2976.3" style="fill:#d3d2d2;fill-opacity:1;fill-rule:nonzero;stroke:none" id="path24" transform="matrix(0.133333 0 0 -0.133333 0 396.84)"/>
      <text xml:space="preserve" transform="matrix(1.33333 0 0 -1.33333 34 34.1733)" style="font-variant:normal;font-weight:normal;font-size:0.1px;font-family:Arial;-inkscape-font-specification:Arial;writing-mode:lr-tb;fill:#ffffff;fill-opacity:1;fill-rule:nonzero;stroke:none" id="text30"><tspan x="0 12.9 25.799999 38.799999 51.700001 64.599998 77.599998 90.5 103.4 116.4 129.3" y="0" sodipodi:role="line" id="tspan28">&#9988;&#9985;&#9986;&#9742;&#9990;&#10013;&#10014;&#10015;&#10016;&#10017;&#9755;</tspan></text>
      <path d="M 255.121,2201.57 H 3940.16" style="fill:none;stroke:#656263;stroke-width:127.56;stroke-linecap:butt;stroke-linejoin:miter;stroke-miterlimit:10;stroke-dasharray:none;stroke-opacity:1" id="path32" transform="matrix(0.133333 0 0 -0.133333 0 396.84)"/>
      <text xml:space="preserve" transform="matrix(1.33333 0 0 -1.33333 33.8667 68.7067)" style="font-variant:normal;font-weight:normal;font-size:0.1px;font-family:Arial;-inkscape-font-specification:Arial;writing-mode:lr-tb;fill:#231f20;fill-opacity:1;fill-rule:nonzero;stroke:none" id="text38"><tspan x="0" y="0" id="tspan36">&#10032;</tspan></text>
        <text xml:space="preserve" transform="matrix(1.33333 0 0 -1.33333 43.3333 68.7067)" style="font-variant:normal;font-weight:normal;font-size:0.1px;font-family:Arial;-inkscape-font-specification:Arial;writing-mode:lr-tb;fill:#231f20;fill-opacity:1;fill-rule:nonzero;stroke:none" id="text44"><tspan x="0" y="0" id="tspan40">&#10124;</tspan><tspan x="6.8000002" y="-0.1" id="tspan42">&#8596;</tspan></text>
        <text xml:space="preserve" transform="matrix(1.33333 0 0 -1.33333 61.8667 68.7067)" style="font-variant:normal;font-weight:normal;font-size:0.1px;font-family:Arial;-inkscape-font-specification:Arial;writing-mode:lr-tb;fill:#231f20;fill-opacity:1;fill-rule:nonzero;stroke:none" id="text48"><tspan x="0 7 13.9" y="0" sodipodi:role="line" id="tspan46">&#8594;&#10010;&#10011;</tspan></text>
        <text xml:space="preserve" transform="matrix(1.33333 0 0 -1.33333 89.7333 68.7067)" style="font-variant:normal;font-weight:normal;font-size:0.1px;font-family:Arial;-inkscape-font-specification:Arial;writing-mode:lr-tb;fill:#231f20;fill-opacity:1;fill-rule:nonzero;stroke:none" id="text52"><tspan x="0" y="0" id="tspan50">&#10119;</tspan></text>
        <text xml:space="preserve" transform="matrix(1.33333 0 0 -1.33333 96.6667 68.84)" style="font-variant:normal;font-weight:normal;font-size:0.1px;font-family:Arial;-inkscape-font-specification:Arial;writing-mode:lr-tb;fill:#231f20;fill-opacity:1;fill-rule:nonzero;stroke:none" id="text56"><tspan x="0" y="0" id="tspan54">&#10169;</tspan></text>
        <text xml:space="preserve" transform="matrix(1.33333 0 0 -1.33333 105.867 68.7067)" style="font-variant:normal;font-weight:normal;font-size:0.1px;font-family:Arial;-inkscape-font-specification:Arial;writing-mode:lr-tb;fill:#231f20;fill-opacity:1;fill-rule:nonzero;stroke:none" id="text60"><tspan x="0" y="0" id="tspan58">&#10029;</tspan></text>
        <text xml:space="preserve" transform="matrix(1.33333 0 0 -1.33333 115.2 68.7067)" style="font-variant:normal;font-weight:normal;font-size:0.1px;font-family:Arial;-inkscape-font-specification:Arial;writing-mode:lr-tb;fill:#231f20;fill-opacity:1;fill-rule:nonzero;stroke:none" id="text64"><tspan x="0" y="0" id="tspan62">&#10010;</tspan></text>
        <text xml:space="preserve" transform="matrix(1.33333 0 0 -1.33333 124.4 68.84)" style="font-variant:normal;font-weight:normal;font-size:0.1px;font-family:Arial;-inkscape-font-specification:Arial;writing-mode:lr-tb;fill:#231f20;fill-opacity:1;fill-rule:nonzero;stroke:none" id="text68"><tspan x="0" y="0" id="tspan66">&#10037;</tspan></text>
        <text xml:space="preserve" transform="matrix(1.33333 0 0 -1.33333 133.867 68.7067)" style="font-variant:normal;font-weight:normal;font-size:0.1px;font-family:Arial;-inkscape-font-specification:Arial;writing-mode:lr-tb;fill:#231f20;fill-opacity:1;fill-rule:nonzero;stroke:none" id="text72"><tspan x="0" y="0" id="tspan70">&#9758;</tspan></text>
        <text xml:space="preserve" transform="matrix(1.33333 0 0 -1.33333 142.933 68.7067)" style="font-variant:normal;font-weight:normal;font-size:0.1px;font-family:Arial;-inkscape-font-specification:Arial;writing-mode:lr-tb;fill:#231f20;fill-opacity:1;fill-rule:nonzero;stroke:none" id="text76"><tspan x="0 7 14" y="0" sodipodi:role="line" id="tspan74">&#10020;&#10139;&#10140;</tspan></text>
        <text xml:space="preserve" transform="matrix(1.33333 0 0 -1.33333 170.933 68.7067)" style="font-variant:normal;font-weight:normal;font-size:0.1px;font-family:Arial;-inkscape-font-specification:Arial;writing-mode:lr-tb;fill:#231f20;fill-opacity:1;fill-rule:nonzero;stroke:none" id="text80"><tspan x="0" y="0" id="tspan78">&#10004;</tspan></text>
        <text xml:space="preserve" transform="matrix(1.33333 0 0 -1.33333 180.133 68.7067)" style="font-variant:normal;font-weight:normal;font-size:0.1px;font-family:Arial;-inkscape-font-specification:Arial;writing-mode:lr-tb;fill:#231f20;fill-opacity:1;fill-rule:nonzero;stroke:none" id="text84"><tspan x="0" y="0" id="tspan82">&#10040;</tspan></text>
        <text xml:space="preserve" transform="matrix(1.33333 0 0 -1.33333 189.6 68.7067)" style="font-variant:normal;font-weight:normal;font-size:0.1px;font-family:Arial;-inkscape-font-specification:Arial;writing-mode:lr-tb;fill:#231f20;fill-opacity:1;fill-rule:nonzero;stroke:none" id="text88"><tspan x="0" y="0" id="tspan86">&#10124;</tspan></text>
        <text xml:space="preserve" transform="matrix(1.33333 0 0 -1.33333 198.8 68.7067)" style="font-variant:normal;font-weight:normal;font-size:0.1px;font-family:Arial;-inkscape-font-specification:Arial;writing-mode:lr-tb;fill:#231f20;fill-opacity:1;fill-rule:nonzero;stroke:none" id="text92"><tspan x="0" y="0" id="tspan90">&#10042;</tspan></text>
        <text xml:space="preserve" transform="matrix(1.33333 0 0 -1.33333 208 68.7067)" style="font-variant:normal;font-weight:normal;font-size:0.1px;font-family:Arial;-inkscape-font-specification:Arial;writing-mode:lr-tb;fill:#231f20;fill-opacity:1;fill-rule:nonzero;stroke:none" id="text98"><tspan x="0" y="0" id="tspan94">&#10116;</tspan><tspan x="7" y="-0.1" id="tspan96">&#10144;</tspan></text>
        <text xml:space="preserve" transform="matrix(1.33333 0 0 -1.33333 226.667 68.7067)" style="font-variant:normal;font-weight:normal;font-size:0.1px;font-family:Arial;-inkscape-font-specification:Arial;writing-mode:lr-tb;fill:#231f20;fill-opacity:1;fill-rule:nonzero;stroke:none" id="text102"><tspan x="0 6.9000001 14 20.9 27.799999 34.799999" y="0" sodipodi:role="line" id="tspan100">&#10033;&#10034;&#10035;&#10018;&#9733;&#10036;</tspan></text>
        <text xml:space="preserve" transform="matrix(1.33333 0 0 -1.33333 280 68.7067)" style="font-variant:normal;font-weight:normal;font-size:0.1px;font-family:Arial;-inkscape-font-specification:Arial;writing-mode:lr-tb;fill:#231f20;fill-opacity:1;fill-rule:nonzero;stroke:none" id="text106"><tspan x="0" y="0" id="tspan104">&#9758;</tspan></text>
        <text xml:space="preserve" transform="matrix(1.33333 0 0 -1.33333 289.333 68.7067)" style="font-variant:normal;font-weight:normal;font-size:0.1px;font-family:Arial;-inkscape-font-specification:Arial;writing-mode:lr-tb;fill:#231f20;fill-opacity:1;fill-rule:nonzero;stroke:none" id="text110"><tspan x="0" y="0" id="tspan108">&#10042;</tspan></text>
        <text xml:space="preserve" transform="matrix(1.33333 0 0 -1.33333 298.533 68.7067)" style="font-variant:normal;font-weight:normal;font-size:0.1px;font-family:Arial;-inkscape-font-specification:Arial;writing-mode:lr-tb;fill:#231f20;fill-opacity:1;fill-rule:nonzero;stroke:none" id="text118"><tspan x="0" y="0" id="tspan112">&#10116;</tspan><tspan x="7" y="-0.1" id="tspan114">&#10144;</tspan><tspan x="14" y="0" id="tspan116">&#10124;</tspan></text>
        <text xml:space="preserve" transform="matrix(1.33333 0 0 -1.33333 326.533 68.84)" style="font-variant:normal;font-weight:normal;font-size:0.1px;font-family:Arial;-inkscape-font-specification:Arial;writing-mode:lr-tb;fill:#231f20;fill-opacity:1;fill-rule:nonzero;stroke:none" id="text122"><tspan x="0" y="0" id="tspan120">&#10169;</tspan></text>
        <text xml:space="preserve" transform="matrix(1.33333 0 0 -1.33333 335.733 68.7067)" style="font-variant:normal;font-weight:normal;font-size:0.1px;font-family:Arial;-inkscape-font-specification:Arial;writing-mode:lr-tb;fill:#231f20;fill-opacity:1;fill-rule:nonzero;stroke:none" id="text126"><tspan x="0" y="0" id="tspan124">&#10029;</tspan></text>
        <text xml:space="preserve" transform="matrix(1.33333 0 0 -1.33333 345.067 68.7067)" style="font-variant:normal;font-weight:normal;font-size:0.1px;font-family:Arial;-inkscape-font-specification:Arial;writing-mode:lr-tb;fill:#231f20;fill-opacity:1;fill-rule:nonzero;stroke:none" id="text130"><tspan x="0" y="0" id="tspan128">&#10026;</tspan></text>
        <text xml:space="preserve" transform="matrix(1.33333 0 0 -1.33333 354.4 68.7067)" style="font-variant:normal;font-weight:normal;font-size:0.1px;font-family:Arial;-inkscape-font-specification:Arial;writing-mode:lr-tb;fill:#231f20;fill-opacity:1;fill-rule:nonzero;stroke:none" id="text134"><tspan x="0" y="0" id="tspan132">&#10042;</tspan></text>
        <text xml:space="preserve" transform="matrix(1.33333 0 0 -1.33333 363.467 68.7067)" style="font-variant:normal;font-weight:normal;font-size:0.1px;font-family:Arial;-inkscape-font-specification:Arial;writing-mode:lr-tb;fill:#231f20;fill-opacity:1;fill-rule:nonzero;stroke:none" id="text140"><tspan x="0" y="0" id="tspan136">&#10116;</tspan><tspan x="7" y="-0.1" id="tspan138">&#10144;</tspan></text>
        <text xml:space="preserve" transform="matrix(1.33333 0 0 -1.33333 382.133 68.7067)" style="font-variant:normal;font-weight:normal;font-size:0.1px;font-family:Arial;-inkscape-font-specification:Arial;writing-mode:lr-tb;fill:#231f20;fill-opacity:1;fill-rule:nonzero;stroke:none" id="text144"><tspan x="0" y="0" id="tspan142">&#10043;</tspan></text>
        <text xml:space="preserve" transform="matrix(1.33333 0 0 -1.33333 391.467 68.7067)" style="font-variant:normal;font-weight:normal;font-size:0.1px;font-family:Arial;-inkscape-font-specification:Arial;writing-mode:lr-tb;fill:#231f20;fill-opacity:1;fill-rule:nonzero;stroke:none" id="text148"><tspan x="0" y="0" id="tspan146">&#10035;</tspan></text>
        <text xml:space="preserve" transform="matrix(1.33333 0 0 -1.33333 400.667 68.7067)" style="font-variant:normal;font-weight:normal;font-size:0.1px;font-family:Arial;-inkscape-font-specification:Arial;writing-mode:lr-tb;fill:#231f20;fill-opacity:1;fill-rule:nonzero;stroke:none" id="text152"><tspan x="0 7" y="0" sodipodi:role="line" id="tspan150">&#10044;&#10045;</tspan></text>
        <text xml:space="preserve" transform="matrix(1.33333 0 0 -1.33333 419.2 68.7067)" style="font-variant:normal;font-weight:normal;font-size:0.1px;font-family:Arial;-inkscape-font-specification:Arial;writing-mode:lr-tb;fill:#231f20;fill-opacity:1;fill-rule:nonzero;stroke:none" id="text156"><tspan x="0 7 14.1 20.9 27.9" y="0" sodipodi:role="line" id="tspan154">&#10008;&#10009;&#10011;&#10150;&#10151;</tspan></text>
        <text xml:space="preserve" transform="matrix(1.33333 0 0 -1.33333 465.867 68.7067)" style="font-variant:normal;font-weight:normal;font-size:0.1px;font-family:Arial;-inkscape-font-specification:Arial;writing-mode:lr-tb;fill:#231f20;fill-opacity:1;fill-rule:nonzero;stroke:none" id="text160"><tspan x="0" y="0" id="tspan158">&#10124;</tspan></text>
        <text xml:space="preserve" transform="matrix(1.33333 0 0 -1.33333 475.067 68.7067)" style="font-variant:normal;font-weight:normal;font-size:0.1px;font-family:Arial;-inkscape-font-specification:Arial;writing-mode:lr-tb;fill:#231f20;fill-opacity:1;fill-rule:nonzero;stroke:none" id="text166"><tspan x="0 7 14 20.799999 27.9" y="0" sodipodi:role="line" id="tspan162">&#10145;&#10035;&#10031;&#9733;&#10036;</tspan><tspan x="-330.79999 -323.89999" y="-10" sodipodi:role="line" id="tspan164">&#10018;&#10020;</tspan></text>
        <text xml:space="preserve" transform="matrix(1.33333 0 0 -1.33333 52.5333 82.04)" style="font-variant:normal;font-weight:normal;font-size:0.1px;font-family:Arial;-inkscape-font-specification:Arial;writing-mode:lr-tb;fill:#231f20;fill-opacity:1;fill-rule:nonzero;stroke:none" id="text170"><tspan x="0" y="0" id="tspan168">&#10119;</tspan></text>
        <text xml:space="preserve" transform="matrix(1.33333 0 0 -1.33333 59.4667 82.04)" style="font-variant:normal;font-weight:normal;font-size:0.1px;font-family:Arial;-inkscape-font-specification:Arial;writing-mode:lr-tb;fill:#231f20;fill-opacity:1;fill-rule:nonzero;stroke:none" id="text174"><tspan x="0" y="0" id="tspan172">&#9758;</tspan></text>
        <text xml:space="preserve" transform="matrix(1.33333 0 0 -1.33333 68.8 82.04)" style="font-variant:normal;font-weight:normal;font-size:0.1px;font-family:Arial;-inkscape-font-specification:Arial;writing-mode:lr-tb;fill:#231f20;fill-opacity:1;fill-rule:nonzero;stroke:none" id="text178"><tspan x="0" y="0" id="tspan176">&#10042;</tspan></text>
        <text xml:space="preserve" transform="matrix(1.33333 0 0 -1.33333 78 82.04)" style="font-variant:normal;font-weight:normal;font-size:0.1px;font-family:Arial;-inkscape-font-specification:Arial;writing-mode:lr-tb;fill:#231f20;fill-opacity:1;fill-rule:nonzero;stroke:none" id="text184"><tspan x="0" y="0" id="tspan180">&#10116;</tspan><tspan x="7" y="-0.1" id="tspan182">&#10144;</tspan></text>
        <text xml:space="preserve" transform="matrix(1.33333 0 0 -1.33333 96.6667 82.04)" style="font-variant:normal;font-weight:normal;font-size:0.1px;font-family:Arial;-inkscape-font-specification:Arial;writing-mode:lr-tb;fill:#231f20;fill-opacity:1;fill-rule:nonzero;stroke:none" id="text188"><tspan x="0" y="0" id="tspan186">&#10010;</tspan></text>
        <text xml:space="preserve" transform="matrix(1.33333 0 0 -1.33333 105.867 82.04)" style="font-variant:normal;font-weight:normal;font-size:0.1px;font-family:Arial;-inkscape-font-specification:Arial;writing-mode:lr-tb;fill:#231f20;fill-opacity:1;fill-rule:nonzero;stroke:none" id="text192"><tspan x="0" y="0" id="tspan190">&#9996;</tspan></text>
        <text xml:space="preserve" transform="matrix(1.33333 0 0 -1.33333 115.2 82.04)" style="font-variant:normal;font-weight:normal;font-size:0.1px;font-family:Arial;-inkscape-font-specification:Arial;writing-mode:lr-tb;fill:#231f20;fill-opacity:1;fill-rule:nonzero;stroke:none" id="text198"><tspan x="0 7 14 20.799999 27.799999" y="0" sodipodi:role="line" id="tspan194">&#10145;&#9993;&#10044;&#10139;&#10025;</tspan><tspan x="34.900002" y="-0.1" id="tspan196">&#10169;</tspan></text>
        <text xml:space="preserve" transform="matrix(1.33333 0 0 -1.33333 170.8 82.04)" style="font-variant:normal;font-weight:normal;font-size:0.1px;font-family:Arial;-inkscape-font-specification:Arial;writing-mode:lr-tb;fill:#231f20;fill-opacity:1;fill-rule:nonzero;stroke:none" id="text202"><tspan x="0" y="0" id="tspan200">&#10029;</tspan></text>
        <text xml:space="preserve" transform="matrix(1.33333 0 0 -1.33333 180.267 82.04)" style="font-variant:normal;font-weight:normal;font-size:0.1px;font-family:Arial;-inkscape-font-specification:Arial;writing-mode:lr-tb;fill:#231f20;fill-opacity:1;fill-rule:nonzero;stroke:none" id="text206"><tspan x="0 7 13.8 20.9" y="0" sodipodi:role="line" id="tspan204">&#10149;&#10029;&#10030;&#10011;</tspan></text>
        <text xml:space="preserve" transform="matrix(1.33333 0 0 -1.33333 217.467 82.04)" style="font-variant:normal;font-weight:normal;font-size:0.1px;font-family:Arial;-inkscape-font-specification:Arial;writing-mode:lr-tb;fill:#231f20;fill-opacity:1;fill-rule:nonzero;stroke:none" id="text210"><tspan x="0 5.1999998" y="0" sodipodi:role="line" id="tspan208">&#10119;&#10130;</tspan></text>
        <text xml:space="preserve" transform="matrix(1.33333 0 0 -1.33333 230.4 82.04)" style="font-variant:normal;font-weight:normal;font-size:0.1px;font-family:Arial;-inkscape-font-specification:Arial;writing-mode:lr-tb;fill:#231f20;fill-opacity:1;fill-rule:nonzero;stroke:none" id="text214"><tspan x="0 5.5000048" y="0" sodipodi:role="line" id="tspan212">&#9997;&#9998;</tspan></text>
        <text xml:space="preserve" transform="matrix(1.33333 0 0 -1.33333 246.933 82.04)" style="font-variant:normal;font-weight:normal;font-size:0.1px;font-family:Arial;-inkscape-font-specification:Arial;writing-mode:lr-tb;fill:#231f20;fill-opacity:1;fill-rule:nonzero;stroke:none" id="text218"><tspan x="0" y="0" id="tspan216">&#10116;</tspan></text>
        <text xml:space="preserve" transform="matrix(1.33333 0 0 -1.33333 256.267 82.04)" style="font-variant:normal;font-weight:normal;font-size:0.1px;font-family:Arial;-inkscape-font-specification:Arial;writing-mode:lr-tb;fill:#231f20;fill-opacity:1;fill-rule:nonzero;stroke:none" id="text222"><tspan x="0" y="0" id="tspan220">&#9999;</tspan></text>
        <text xml:space="preserve" transform="matrix(1.33333 0 0 -1.33333 265.467 82.04)" style="font-variant:normal;font-weight:normal;font-size:0.1px;font-family:Arial;-inkscape-font-specification:Arial;writing-mode:lr-tb;fill:#231f20;fill-opacity:1;fill-rule:nonzero;stroke:none" id="text226"><tspan x="0" y="0" id="tspan224">&#10119;</tspan></text>
        <text xml:space="preserve" transform="matrix(1.33333 0 0 -1.33333 274.8 82.04)" style="font-variant:normal;font-weight:normal;font-size:0.1px;font-family:Arial;-inkscape-font-specification:Arial;writing-mode:lr-tb;fill:#231f20;fill-opacity:1;fill-rule:nonzero;stroke:none" id="text230"><tspan x="0 7" y="0" sodipodi:role="line" id="tspan228">&#10001;&#10002;</tspan></text>
        <text xml:space="preserve" transform="matrix(1.33333 0 0 -1.33333 293.467 82.04)" style="font-variant:normal;font-weight:normal;font-size:0.1px;font-family:Arial;-inkscape-font-specification:Arial;writing-mode:lr-tb;fill:#231f20;fill-opacity:1;fill-rule:nonzero;stroke:none" id="text234"><tspan x="0 7 13.8 20.9 27.9 34.700001 41.799999" y="0" sodipodi:role="line" id="tspan232">&#9993;&#10044;&#10140;&#9992;&#10141;&#10139;&#10036;</tspan></text>
      <text xml:space="preserve" transform="matrix(1.33333 0 0 -1.33333 37.7333 108.173)" style="font-variant:normal;font-weight:normal;font-size:0.1px;font-family:Arial;-inkscape-font-specification:Arial;writing-mode:lr-tb;fill:#ffffff;fill-opacity:1;fill-rule:nonzero;stroke:none" id="text240"><tspan x="0 9.8999996 19.9 29.799999 39.799999 49.799999 59.700001" y="0" sodipodi:role="line" id="tspan238">&#10003;&#10004;&#10005;&#10006;&#10007;&#10007;&#10008;</tspan></text>
        <text xml:space="preserve" transform="matrix(1.33333 0 0 -1.33333 130.667 108.04)" style="font-variant:normal;font-weight:normal;font-size:0.1px;font-family:Arial;-inkscape-font-specification:Arial;writing-mode:lr-tb;fill:#ffffff;fill-opacity:1;fill-rule:nonzero;stroke:none" id="text244"><tspan x="0" y="0" id="tspan242">&#10003;</tspan></text>
        <text xml:space="preserve" transform="matrix(1.33333 0 0 -1.33333 143.867 108.173)" style="font-variant:normal;font-weight:normal;font-size:0.1px;font-family:Arial;-inkscape-font-specification:Arial;writing-mode:lr-tb;fill:#ffffff;fill-opacity:1;fill-rule:nonzero;stroke:none" id="text248"><tspan x="0 9.8999996" y="0" sodipodi:role="line" id="tspan246">&#10009;&#10010;</tspan></text>
      <path d="m 255.121,2093.86 h 566.93 v -93.3477 h -566.93 z m 566.93,0 h 2721.26 v -93.3477 H 822.051 Z m 2721.259,0 h 396.852 v -93.3477 H 3543.31 Z" style="fill:#d3d2d2;fill-opacity:1;fill-rule:nonzero;stroke:none" id="path250" transform="matrix(0.133333 0 0 -0.133333 0 396.84)"/>
      <path d="M 255.121,2000.51 H 3940.16" style="fill:none;stroke:#231f20;stroke-width:2.83;stroke-linecap:butt;stroke-linejoin:miter;stroke-miterlimit:10;stroke-dasharray:none;stroke-opacity:1" id="path252" transform="matrix(0.133333 0 0 -0.133333 0 396.84)"/>
      <path d="m 255.121,1717.05 h 566.93" style="fill:none;stroke:#231f20;stroke-width:2.83;stroke-linecap:butt;stroke-linejoin:miter;stroke-miterlimit:10;stroke-dasharray:none;stroke-opacity:1" id="path254" transform="matrix(0.133333 0 0 -0.133333 0 396.84)"/>
      <path d="m 822.051,1435 v 280.63" style="fill:none;stroke:#231f20;stroke-width:2.83;stroke-linecap:butt;stroke-linejoin:miter;stroke-miterlimit:10;stroke-dasharray:none;stroke-opacity:1" id="path256" transform="matrix(0.133333 0 0 -0.133333 0 396.84)"/>
      <path d="m 3543.31,1717.05 h 396.85" style="fill:none;stroke:#231f20;stroke-width:2.83;stroke-linecap:butt;stroke-linejoin:miter;stroke-miterlimit:10;stroke-dasharray:none;stroke-opacity:1" id="path258" transform="matrix(0.133333 0 0 -0.133333 0 396.84)"/>
      <path d="m 3543.31,1435 v 280.63" style="fill:none;stroke:#231f20;stroke-width:2.83;stroke-linecap:butt;stroke-linejoin:miter;stroke-miterlimit:10;stroke-dasharray:none;stroke-opacity:1" id="path260" transform="matrix(0.133333 0 0 -0.133333 0 396.84)"/>
      <path d="M 255.121,1433.58 H 1729.14" style="fill:none;stroke:#231f20;stroke-width:2.83;stroke-linecap:butt;stroke-linejoin:miter;stroke-miterlimit:10;stroke-dasharray:none;stroke-opacity:1" id="path262" transform="matrix(0.133333 0 0 -0.133333 0 396.84)"/>
      <path d="m 822.051,1151.53 v 280.63" style="fill:none;stroke:#231f20;stroke-width:2.83;stroke-linecap:butt;stroke-linejoin:miter;stroke-miterlimit:10;stroke-dasharray:none;stroke-opacity:1" id="path264" transform="matrix(0.133333 0 0 -0.133333 0 396.84)"/>
      <path d="M 1729.14,1433.58 H 3940.16" style="fill:none;stroke:#231f20;stroke-width:2.83;stroke-linecap:butt;stroke-linejoin:miter;stroke-miterlimit:10;stroke-dasharray:none;stroke-opacity:1" id="path266" transform="matrix(0.133333 0 0 -0.133333 0 396.84)"/>
      <path d="m 3543.31,1151.53 v 280.63" style="fill:none;stroke:#231f20;stroke-width:2.83;stroke-linecap:butt;stroke-linejoin:miter;stroke-miterlimit:10;stroke-dasharray:none;stroke-opacity:1" id="path268" transform="matrix(0.133333 0 0 -0.133333 0 396.84)"/>
      <path d="M 255.121,1150.11 H 1729.14" style="fill:none;stroke:#231f20;stroke-width:2.83;stroke-linecap:butt;stroke-linejoin:miter;stroke-miterlimit:10;stroke-dasharray:none;stroke-opacity:1" id="path270" transform="matrix(0.133333 0 0 -0.133333 0 396.84)"/>
      <path d="M 822.051,868.059 V 1148.69" style="fill:none;stroke:#231f20;stroke-width:2.83;stroke-linecap:butt;stroke-linejoin:miter;stroke-miterlimit:10;stroke-dasharray:none;stroke-opacity:1" id="path272" transform="matrix(0.133333 0 0 -0.133333 0 396.84)"/>
      <path d="M 1729.14,1150.11 H 3940.16" style="fill:none;stroke:#231f20;stroke-width:2.83;stroke-linecap:butt;stroke-linejoin:miter;stroke-miterlimit:10;stroke-dasharray:none;stroke-opacity:1" id="path274" transform="matrix(0.133333 0 0 -0.133333 0 396.84)"/>
      <path d="M 3543.31,868.059 V 1148.69" style="fill:none;stroke:#231f20;stroke-width:2.83;stroke-linecap:butt;stroke-linejoin:miter;stroke-miterlimit:10;stroke-dasharray:none;stroke-opacity:1" id="path276" transform="matrix(0.133333 0 0 -0.133333 0 396.84)"/>
      <path d="M 255.121,866.641 H 1729.14" style="fill:none;stroke:#231f20;stroke-width:2.83;stroke-linecap:butt;stroke-linejoin:miter;stroke-miterlimit:10;stroke-dasharray:none;stroke-opacity:1" id="path278" transform="matrix(0.133333 0 0 -0.133333 0 396.84)"/>
      <path d="M 822.051,584.59 V 865.219" style="fill:none;stroke:#231f20;stroke-width:2.83;stroke-linecap:butt;stroke-linejoin:miter;stroke-miterlimit:10;stroke-dasharray:none;stroke-opacity:1" id="path280" transform="matrix(0.133333 0 0 -0.133333 0 396.84)"/>
      <path d="M 1729.14,866.641 H 3940.16" style="fill:none;stroke:#231f20;stroke-width:2.83;stroke-linecap:butt;stroke-linejoin:miter;stroke-miterlimit:10;stroke-dasharray:none;stroke-opacity:1" id="path282" transform="matrix(0.133333 0 0 -0.133333 0 396.84)"/>
      <path d="M 3543.31,584.59 V 865.219" style="fill:none;stroke:#231f20;stroke-width:2.83;stroke-linecap:butt;stroke-linejoin:miter;stroke-miterlimit:10;stroke-dasharray:none;stroke-opacity:1" id="path284" transform="matrix(0.133333 0 0 -0.133333 0 396.84)"/>
      <path d="M 255.121,583.172 H 1729.14" style="fill:none;stroke:#231f20;stroke-width:2.83;stroke-linecap:butt;stroke-linejoin:miter;stroke-miterlimit:10;stroke-dasharray:none;stroke-opacity:1" id="path286" transform="matrix(0.133333 0 0 -0.133333 0 396.84)"/>
      <path d="M 822.051,301.121 V 581.75" style="fill:none;stroke:#231f20;stroke-width:2.83;stroke-linecap:butt;stroke-linejoin:miter;stroke-miterlimit:10;stroke-dasharray:none;stroke-opacity:1" id="path288" transform="matrix(0.133333 0 0 -0.133333 0 396.84)"/>
      <path d="M 1729.14,583.172 H 3940.16" style="fill:none;stroke:#231f20;stroke-width:2.83;stroke-linecap:butt;stroke-linejoin:miter;stroke-miterlimit:10;stroke-dasharray:none;stroke-opacity:1" id="path290" transform="matrix(0.133333 0 0 -0.133333 0 396.84)"/>
      <path d="M 3543.31,301.121 V 581.75" style="fill:none;stroke:#231f20;stroke-width:2.83;stroke-linecap:butt;stroke-linejoin:miter;stroke-miterlimit:10;stroke-dasharray:none;stroke-opacity:1" id="path292" transform="matrix(0.133333 0 0 -0.133333 0 396.84)"/>
      <path d="M 255.121,2093.84 H 1729.14" style="fill:none;stroke:#231f20;stroke-width:2.83;stroke-linecap:butt;stroke-linejoin:miter;stroke-miterlimit:10;stroke-dasharray:none;stroke-opacity:1" id="path294" transform="matrix(0.133333 0 0 -0.133333 0 396.84)"/>
      <path d="m 822.051,2001.91 v 90.51" style="fill:none;stroke:#231f20;stroke-width:2.83;stroke-linecap:butt;stroke-linejoin:miter;stroke-miterlimit:10;stroke-dasharray:none;stroke-opacity:1" id="path296" transform="matrix(0.133333 0 0 -0.133333 0 396.84)"/>
      <path d="M 1729.14,2093.84 H 3940.16" style="fill:none;stroke:#231f20;stroke-width:2.83;stroke-linecap:butt;stroke-linejoin:miter;stroke-miterlimit:10;stroke-dasharray:none;stroke-opacity:1" id="path298" transform="matrix(0.133333 0 0 -0.133333 0 396.84)"/>
      <path d="m 3543.31,2001.91 v 90.51" style="fill:none;stroke:#231f20;stroke-width:2.83;stroke-linecap:butt;stroke-linejoin:miter;stroke-miterlimit:10;stroke-dasharray:none;stroke-opacity:1" id="path300" transform="matrix(0.133333 0 0 -0.133333 0 396.84)"/>
      <path d="m 255.121,299.711 h 566.93" style="fill:none;stroke:#231f20;stroke-width:2.83;stroke-linecap:butt;stroke-linejoin:miter;stroke-miterlimit:10;stroke-dasharray:none;stroke-opacity:1" id="path302" transform="matrix(0.133333 0 0 -0.133333 0 396.84)"/>
      <path d="m 822.051,1718.45 v 280.63" style="fill:none;stroke:#231f20;stroke-width:2.83;stroke-linecap:butt;stroke-linejoin:miter;stroke-miterlimit:10;stroke-dasharray:none;stroke-opacity:1" id="path304" transform="matrix(0.133333 0 0 -0.133333 0 396.84)"/>
      <path d="m 3543.31,1718.45 v 280.63" style="fill:none;stroke:#231f20;stroke-width:2.83;stroke-linecap:butt;stroke-linejoin:miter;stroke-miterlimit:10;stroke-dasharray:none;stroke-opacity:1" id="path306" transform="matrix(0.133333 0 0 -0.133333 0 396.84)"/>
      <path d="M 822.051,1717.03 H 3543.31" style="fill:none;stroke:#231f20;stroke-width:2.83;stroke-linecap:butt;stroke-linejoin:miter;stroke-miterlimit:10;stroke-dasharray:none;stroke-opacity:1" id="path308" transform="matrix(0.133333 0 0 -0.133333 0 396.84)"/>
      <path d="M 822.051,299.711 H 3940.16" style="fill:none;stroke:#231f20;stroke-width:2.83;stroke-linecap:butt;stroke-linejoin:miter;stroke-miterlimit:10;stroke-dasharray:none;stroke-opacity:1" id="path310" transform="matrix(0.133333 0 0 -0.133333 0 396.84)"/>
      <text xml:space="preserve" transform="matrix(1.33333 0 0 -1.33333 58.8 127.24)" style="font-variant:normal;font-weight:normal;font-size:0.1px;font-family:Arial;-inkscape-font-specification:Arial;writing-mode:lr-tb;fill:#231f20;fill-opacity:1;fill-rule:nonzero;stroke:none" id="text430"><tspan x="0 6.5 12.9 167.60001 174.10001 313.79999 320.29999 326.79999 333.29999 339.70001" y="0" sodipodi:role="line" id="tspan314">&#10011;&#10012;&#10018;&#10019;&#10020;&#10021;&#10022;&#10023;&#10012;&#9733;</tspan><tspan x="3.2 9.6999998" y="-18.799999" sodipodi:role="line" id="tspan316">&#10025;&#10026;</tspan><tspan x="40.900002" y="-10.9" id="tspan318">&#10027;</tspan><tspan x="48 54.199997 60.399994 66.599991 72.799988 78.999985 85.199989 91.399986 97.599983 103.89998" y="-11.3" sodipodi:role="line" id="tspan320">&#10028;&#10029;&#10030;&#10031;&#10032;&#10033;&#10034;&#10035;&#10036;&#10037;</tspan><tspan x="40.900002" y="-18.4" id="tspan322">&#10027;</tspan><tspan x="47.900002 54.499996 60.799995 65.899994 72.499992 78.599991 83.799988 90.399986 96.999985 103.59998 110.19998 116.89998" y="-18.799999" sodipodi:role="line" id="tspan324">&#10034;&#10035;&#10038;&#10039;&#10040;&#10038;&#10041;&#10042;&#10029;&#10043;&#10044;&#10030;</tspan><tspan x="47.900002 54.199997 60.399994" y="-26.299999" sodipodi:role="line" id="tspan326">&#10033;&#10045;&#10046;</tspan><tspan x="131.60001" y="-10.9" id="tspan328">&#10027;</tspan><tspan x="138.7 144.89999 151.09999 157.29999" y="-11.3" sodipodi:role="line" id="tspan330">&#10047;&#10048;&#10049;&#10050;</tspan><tspan x="131.60001" y="-18.4" id="tspan332">&#10027;</tspan><tspan x="138.60001 144.8 151.09999 157.29999 163.5 169.70001 175.90002" y="-18.799999" sodipodi:role="line" id="tspan334">&#10049;&#10050;&#10051;&#10052;&#10033;&#10053;&#10054;</tspan><tspan x="131.60001" y="-25.9" id="tspan336">&#10027;</tspan><tspan x="138.7 144.89999 151.09999 157.29999 163.5 170.50002 176.10001 181.3 184.3 190 193.79999 198.39998 204.59999" y="-26.299999" sodipodi:role="line" id="tspan338">&#10055;&#10056;&#10049;&#10050;&#10033;&#10057;&#10058;&#10059;&#10057;&#9679;&#9679;&#10045;&#10046;</tspan><tspan x="222.39999" y="-10.9" id="tspan340">&#10027;</tspan><tspan x="229.39999 233.5 237.50002 240.70001 244.70001 249.60002 255.80003 262.00003 268.20004 274.40005 280.70007 286.90009" y="-11.3" sodipodi:role="line" id="tspan342">&#10061;&#9632;&#10059;&#9632;&#10063;&#10034;&#10065;&#9650;&#9660;&#9670;&#10070;P</tspan><tspan x="323 326.89999 328.49997 332.79999" y="-18.799999" sodipodi:role="line" id="tspan344">&#9687;&#10072;&#10073;&#10074;</tspan><tspan x="-6.5 0 6.5 12.9 19.4" y="-47.200001" sodipodi:role="line" id="tspan346">&#10095;&#10097;&#10098;&#10099;&#10088;</tspan><tspan x="40.900002" y="-46.700001" id="tspan348">&#10027;</tspan><tspan x="48" y="-47.200001" id="tspan350">&#10089;</tspan><tspan x="54.200001" y="-47.099998" id="tspan352">&#10047;</tspan><tspan x="60.400002 66.599998" y="-47.200001" sodipodi:role="line" id="tspan354">&#10092;&#10093;</tspan><tspan x="72.800003 79 85.199997 323 326.89999" y="-47.099998" sodipodi:role="line" id="tspan356">&#10033;&#10053;&#10054;&#9687;&#10072;</tspan><tspan x="328.5 332.80002" y="-47.200001" sodipodi:role="line" id="tspan358">&#10090;&#10091;</tspan><tspan x="-12.9" y="-75.5" id="tspan360">&#10100;</tspan><tspan x="-6.4000001" y="-75.599998" id="tspan362">&#10088;</tspan><tspan x="0 6.5 12.9 19.4 25.9" y="-75.5" sodipodi:role="line" id="tspan364">&#10101;&#10075;&#10076;&#10077;&#10078;</tspan><tspan x="40.900002" y="-75.099998" id="tspan366">&#10027;</tspan><tspan x="48 54.199997 61.099995 65.300003 70.100006 76.300003 79.400002 85.599998 89.800003 94.500008 100.80001 107.10001 113.2 119.5 125.6 131.8 134.89999 141.09999 147.29999 153.59999 159.69998 166 323 326.89999 328.5" y="-75.5" sodipodi:role="line" id="tspan368">&#10081;&#10082;&#10063;&#10083;&#10031;&#10032;&#10084;&#10000;&#10061;&#10043;&#10044;&#10030;&#10085;&#10029;&#10086;&#10087;&#10033;&#10034;&#10035;&#9824;&#10036;&#10037;&#9687;&#10072;&#9829;</tspan><tspan x="332.79999" y="-75.599998" id="tspan370">&#10091;</tspan><tspan x="-3.3 3.3" y="-103.8" sodipodi:role="line" id="tspan372">&#10076;&#10077;</tspan><tspan x="9.6999998 16.200001" y="-103.9" sodipodi:role="line" id="tspan374">&#9830;&#10088;</tspan><tspan x="40.900002" y="-103.4" id="tspan376">&#10027;</tspan><tspan x="47.900002 54.099998 60.399994 66.699989 72.799988 79.099991 85.299988 91.399986" y="-103.8" sodipodi:role="line" id="tspan378">&#10043;&#10044;&#10042;&#10029;&#10033;&#10045;&#10046;&#10038;</tspan><tspan x="96.099998 102.3" y="-103.9" sodipodi:role="line" id="tspan380">&#9827;q</tspan><tspan x="323 326.89999 328.49997" y="-103.8" sodipodi:role="line" id="tspan382">&#9687;&#10072;&#9829;</tspan><tspan x="332.79999" y="-103.9" id="tspan384">r</tspan><tspan x="-15.7 -9.3999996" y="-132.2" sodipodi:role="line" id="tspan386">st</tspan><tspan x="-3" y="-132.3" id="tspan388">&#10097;</tspan><tspan x="3.3 9.6000004 16" y="-132.2" sodipodi:role="line" id="tspan390">&#9993;&#9992;&#9991;</tspan><tspan x="22.4" y="-132.3" id="tspan392">&#10097;</tspan><tspan x="28.6" y="-132.2" id="tspan394">&#9312;</tspan><tspan x="40.900002" y="-128" id="tspan396">&#10027;</tspan><tspan x="48 54.199997" y="-128.5" sodipodi:role="line" id="tspan398">&#9313;&#9314;</tspan><tspan x="60.299999 66.599998 72.799995" y="-128.39999" sodipodi:role="line" id="tspan400">&#10034;&#10065;&#10033;</tspan><tspan x="79.099998 85.299995" y="-128.5" sodipodi:role="line" id="tspan402">&#9827;q</tspan><tspan x="40.900002" y="-135.5" id="tspan404">&#10027;</tspan><tspan x="48 54.199997 60.399994 66.599991 72.799988" y="-136" sodipodi:role="line" id="tspan406">&#9315;&#9316;&#9317;&#9318;&#9319;</tspan><tspan x="79 85.199997 91.499992 97.599991" y="-135.89999" sodipodi:role="line" id="tspan408">&#10043;&#10044;&#10030;&#10033;</tspan><tspan x="103.9 110.1" y="-136" sodipodi:role="line" id="tspan410">&#9827;q</tspan><tspan x="323 326.89999 328.49997 332.79999" y="-132.2" sodipodi:role="line" id="tspan412">&#9687;&#10072;&#9829;&#10074;</tspan><tspan x="-3.2 3.2 9.6999998" y="-160.60001" sodipodi:role="line" id="tspan414">&#9320;&#9321;&#10088;</tspan><tspan x="16.200001" y="-160.5" id="tspan416">&#10078;</tspan><tspan x="40.900002" y="-156.39999" id="tspan418">&#10027;</tspan><tspan x="48 54.199997 60.399994 66.699989 72.799988 78.999985 85.199989 91.499985 97.699982" y="-156.8" sodipodi:role="line" id="tspan420">&#10102;&#10103;&#10029;&#10030;&#10034;&#10035;&#10033;&#10045;&#10046;</tspan><tspan x="40.900002" y="-163.89999" id="tspan422">&#10027;</tspan><tspan x="48 54.199997 60.399994 66.699989 72.799988 78.999985 85.199989 91.399986 98.399979 103.99998 109.19998 112.29999 117.89999 121.7 126.3 132.5" y="-164.3" sodipodi:role="line" id="tspan424">&#10102;&#10103;&#10029;&#10030;&#10104;&#10034;&#10105;&#10033;&#10057;&#10058;&#10059;&#10057;&#9679;&#9679;&#10045;&#10046;</tspan><tspan x="323 326.89999" y="-160.5" sodipodi:role="line" id="tspan426">&#9687;&#10072;</tspan><tspan x="328.60001 332.80002" y="-160.60001" sodipodi:role="line" id="tspan428">&#10091;&#10106;</tspan></text>
      </svg>