<!-- Created with Inkscape (http://www.inkscape.org/) --><svg xmlns:inkscape="http://www.inkscape.org/namespaces/inkscape" xmlns:sodipodi="http://sodipodi.sourceforge.net/DTD/sodipodi-0.dtd" xmlns="http://www.w3.org/2000/svg" xmlns:svg="http://www.w3.org/2000/svg" version="1.1" id="svg2" width="559.35999" height="376.93719" viewBox="0 0 559.35998 376.93719" sodipodi:docname="pages_63.pdf">
  <defs id="defs6">
    <clipPath clipPathUnits="userSpaceOnUse" id="clipPath28">
      <path d="m 2182.68,2423.62 h 99.2109 v 99.2109 H 2182.68 Z" id="path26"/>
    </clipPath>
  </defs>
  <sodipodi:namedview id="namedview4" pagecolor="#ffffff" bordercolor="#666666" borderopacity="1.0" inkscape:showpageshadow="2" inkscape:pageopacity="0.0" inkscape:pagecheckerboard="0" inkscape:deskcolor="#d1d1d1"/>
  <path d="M 0,2664.57 H 4195.2 V 2976.3 H 0 Z" style="fill:#d3d2d2;fill-opacity:1;fill-rule:nonzero;stroke:none" id="path12" transform="matrix(0.133333 0 0 -0.133333 0 396.84)"/>
      <text xml:space="preserve" transform="matrix(1.33333 0 0 -1.33333 450.667 38.44)" style="font-variant:normal;font-weight:normal;font-size:0.1px;font-family:Arial;-inkscape-font-specification:Arial;writing-mode:lr-tb;fill:#231f20;fill-opacity:1;fill-rule:nonzero;stroke:none" id="text20"><tspan x="0 7 14 21 28 35 42 49" y="0" sodipodi:role="line" id="tspan16">&#9758;&#9985;&#9986;&#9988;&#9742;&#9990;&#10013;</tspan><tspan x="47.400002 51.999989" y="-253.8" sodipodi:role="line" id="tspan18">&#10014;&#10015;</tspan></text>
      <path d="m 2182.68,2483.64 v 20.43 c 0,10.35 8.43,18.76 18.79,18.76 h 61.63 c 10.36,0 18.79,-8.41 18.79,-18.76 v -18.15 h -6.78 v 18.15 c 0,6.62 -5.39,12 -12.01,12 h -61.63 c -6.63,0 -12.02,-5.38 -12.02,-12 v -42.29 c 0,-6.61 5.39,-11.99 12.02,-11.99 h 46.84 c 1.06,0 2.05,-0.5 2.7,-1.33 l 8.77,-11.47 v 9.42 c 0,1.86 1.5,3.37 3.37,3.38 6.6,0.04 11.96,5.41 11.96,11.99 v 24.14 h 6.78 v -24.14 c 0,-9.15 -6.63,-16.81 -15.34,-18.44 v -16.33 c 0,-1.45 -0.92,-2.74 -2.29,-3.2 -0.37,-0.13 -0.73,-0.18 -1.09,-0.18 -1.03,0 -2.03,0.47 -2.69,1.32 l -13.84,18.07 h -45.17 c -10.36,0 -18.79,8.42 -18.79,18.76" style="fill:#656263;fill-opacity:1;fill-rule:nonzero;stroke:none" id="path30" clip-path="url(#clipPath28)" transform="matrix(0.133333 0 0 -0.133333 0 396.84)"/>
        <path d="m 2259.28,2496.07 h -52.91 c -1.88,0 -3.39,1.51 -3.39,3.38 0,1.87 1.51,3.39 3.39,3.39 h 52.91 c 1.87,0 3.38,-1.52 3.38,-3.39 0,-1.87 -1.51,-3.38 -3.38,-3.38" style="fill:#656263;fill-opacity:1;fill-rule:nonzero;stroke:none" id="path32" transform="matrix(0.133333 0 0 -0.133333 0 396.84)"/>
      <path d="m 2259.28,2479.46 h -52.91 c -1.88,0 -3.39,1.52 -3.39,3.38 0,1.87 1.51,3.39 3.39,3.39 h 52.91 c 1.87,0 3.38,-1.52 3.38,-3.39 0,-1.86 -1.51,-3.38 -3.38,-3.38" style="fill:#656263;fill-opacity:1;fill-rule:nonzero;stroke:none" id="path34" transform="matrix(0.133333 0 0 -0.133333 0 396.84)"/>
      <path d="m 2259.28,2462.84 h -52.91 c -1.88,0 -3.39,1.52 -3.39,3.39 0,1.87 1.51,3.38 3.39,3.38 h 52.91 c 1.87,0 3.38,-1.51 3.38,-3.38 0,-1.87 -1.51,-3.39 -3.38,-3.39" style="fill:#656263;fill-opacity:1;fill-rule:nonzero;stroke:none" id="path36" transform="matrix(0.133333 0 0 -0.133333 0 396.84)"/>
      <text xml:space="preserve" transform="matrix(1.33333 0 0 -1.33333 306 70.3067)" style="font-variant:normal;font-weight:normal;font-size:0.1px;font-family:Arial;-inkscape-font-specification:Arial;writing-mode:lr-tb;fill:#231f20;fill-opacity:1;fill-rule:nonzero;stroke:none" id="text60"><tspan x="0 8" y="0" sodipodi:role="line" id="tspan40">&#10016;&#10017;</tspan><tspan x="-11.3" y="-10.4" id="tspan42">&#9755;</tspan><tspan x="-4.1999998 2.8 9.6999998 16.700001 23.700001 27.5 34.400002 41.5 48.400002 55.299999 62.299999 69.300003 76.199997 83.199997 90.199997 97.099998 100.6 107.6 112.10001 116.80001 121.30002 126.80002 134.60002 140.10002 147.00003 154.00003 161.00003" y="-10.8" sodipodi:role="line" id="tspan44">&#9996;&#9997;&#9998;&#9999;&#10001;&#10002;&#10003;&#9997;&#10004;&#10005;&#10006;&#10007;&#10008;&#9997;&#10009;&#10010;&#10011;&#10012;&#10018;&#10012;&#10018;&#10019;&#10020;&#10021;&#10022;&#10023;&#9733;</tspan><tspan x="-4.1999998 2.8 9.6999998" y="-20.799999" sodipodi:role="line" id="tspan46">&#10025;&#10026;&#10027;</tspan><tspan x="-11.3" y="-30.4" id="tspan48">&#9755;</tspan><tspan x="-4.1999998 2.9000001 10.1 17.1 24.299999 31.299999 38.5 45.599998 52.599998 59.799999 66.900002 74 81.099998 88.199997 95.400002 102.5 109.6 116.7 123.7 129 136.10001 143.2 150.39999 157.5" y="-30.799999" sodipodi:role="line" id="tspan50">&#10028;&#10029;&#10026;&#10030;&#10004;&#10005;&#10006;&#10007;&#10008;&#10031;&#10032;&#10033;&#10034;&#10035;&#10036;&#10037;&#10038;&#9999;&#10001;&#10039;&#10040;&#10041;&#10042;&#9997;</tspan><tspan x="-4.1999998 2.9000001 10 17.1 24.299999 31.4 38.400002 43.599998 50.700001 57.900002 65.099998 72.099998 79.300003 86.300003 93.5 100.5 107.7 114.8 121.9 129 136.10001 143.2 150.39999 157.5" y="-40.799999" sodipodi:role="line" id="tspan52">&#10043;&#10044;&#10045;&#10046;&#10047;&#10048;&#10001;&#10043;&#10044;&#10031;&#10009;&#10049;&#10026;&#10030;&#10004;&#10005;&#10006;&#10007;&#10008;&#10045;&#10050;&#10051;&#10048;&#10052;</tspan><tspan x="-4.1999998 2.8 9.6999998 16.799999 23.6" y="-50.799999" sodipodi:role="line" id="tspan54">&#10053;&#10054;&#10055;&#10036;&#10027;</tspan><tspan x="-11.3" y="-60.400002" id="tspan56">&#9755;</tspan><tspan x="-4.1999998 2.7 9.8000002 16.700001 23.6 30.6 37.599998 44.5 48.099998 55 60.700001 65.200012 70.400009 73.800011 80.800011 87.800011 94.700012 101.80001 108.70001 115.70001 122.60001 129.60001 136.50002" y="-60.799999" sodipodi:role="line" id="tspan58">&#10043;&#10044;&#9999;&#10056;&#10029;&#10057;&#10058;&#10043;&#10011;&#10059;&#9679;&#10061;&#9733;&#10045;&#9632;&#10063;&#10065;&#10048;&#10052;&#10036;&#9650;&#10026;&#10027;</tspan></text>
      <path d="m 255.121,2521.42 h 340.16 v -104.023 h -340.16 z m 340.16,0 h 510.238 V 2417.397 H 595.281 Z m 510.229,0 h 907.09 v -104.023 h -907.09 z" style="fill:#d3d2d2;fill-opacity:1;fill-rule:nonzero;stroke:none" id="path62" transform="matrix(0.133333 0 0 -0.133333 0 396.84)"/>
      <path d="m 255.121,2521.42 h 340.16" style="fill:none;stroke:#231f20;stroke-width:2.83;stroke-linecap:butt;stroke-linejoin:miter;stroke-miterlimit:10;stroke-dasharray:none;stroke-opacity:1" id="path64" transform="matrix(0.133333 0 0 -0.133333 0 396.84)"/>
      <path d="m 255.121,2417.4 h 340.16" style="fill:none;stroke:#231f20;stroke-width:2.83;stroke-linecap:butt;stroke-linejoin:miter;stroke-miterlimit:10;stroke-dasharray:none;stroke-opacity:1" id="path66" transform="matrix(0.133333 0 0 -0.133333 0 396.84)"/>
      <path d="M 595.281,2418.82 V 2520" style="fill:none;stroke:#231f20;stroke-width:2.83;stroke-linecap:butt;stroke-linejoin:miter;stroke-miterlimit:10;stroke-dasharray:none;stroke-opacity:1" id="path68" transform="matrix(0.133333 0 0 -0.133333 0 396.84)"/>
      <path d="m 1105.52,2417.4 h 907.09" style="fill:none;stroke:#231f20;stroke-width:2.83;stroke-linecap:butt;stroke-linejoin:miter;stroke-miterlimit:10;stroke-dasharray:none;stroke-opacity:1" id="path70" transform="matrix(0.133333 0 0 -0.133333 0 396.84)"/>
      <path d="M 595.281,2521.42 H 2012.6" style="fill:none;stroke:#231f20;stroke-width:2.83;stroke-linecap:butt;stroke-linejoin:miter;stroke-miterlimit:10;stroke-dasharray:none;stroke-opacity:1" id="path72" transform="matrix(0.133333 0 0 -0.133333 0 396.84)"/>
      <path d="M 1105.52,2418.82 V 2520" style="fill:none;stroke:#231f20;stroke-width:2.83;stroke-linecap:butt;stroke-linejoin:miter;stroke-miterlimit:10;stroke-dasharray:none;stroke-opacity:1" id="path74" transform="matrix(0.133333 0 0 -0.133333 0 396.84)"/>
      <path d="M 595.281,2417.4 H 1105.52" style="fill:none;stroke:#231f20;stroke-width:2.83;stroke-linecap:butt;stroke-linejoin:miter;stroke-miterlimit:10;stroke-dasharray:none;stroke-opacity:1" id="path76" transform="matrix(0.133333 0 0 -0.133333 0 396.84)"/>
      <path d="m 1105.52,2314.8 v 101.18" style="fill:none;stroke:#231f20;stroke-width:2.83;stroke-linecap:butt;stroke-linejoin:miter;stroke-miterlimit:10;stroke-dasharray:none;stroke-opacity:1" id="path78" transform="matrix(0.133333 0 0 -0.133333 0 396.84)"/>
      <path d="M 595.281,2313.38 H 2012.6" style="fill:none;stroke:#231f20;stroke-width:2.83;stroke-linecap:butt;stroke-linejoin:miter;stroke-miterlimit:10;stroke-dasharray:none;stroke-opacity:1" id="path80" transform="matrix(0.133333 0 0 -0.133333 0 396.84)"/>
      <path d="m 1105.52,2210.78 v 101.18" style="fill:none;stroke:#231f20;stroke-width:2.83;stroke-linecap:butt;stroke-linejoin:miter;stroke-miterlimit:10;stroke-dasharray:none;stroke-opacity:1" id="path82" transform="matrix(0.133333 0 0 -0.133333 0 396.84)"/>
      <path d="M 595.281,2209.36 H 2012.6" style="fill:none;stroke:#231f20;stroke-width:2.83;stroke-linecap:butt;stroke-linejoin:miter;stroke-miterlimit:10;stroke-dasharray:none;stroke-opacity:1" id="path84" transform="matrix(0.133333 0 0 -0.133333 0 396.84)"/>
      <path d="m 1105.52,2106.76 v 101.18" style="fill:none;stroke:#231f20;stroke-width:2.83;stroke-linecap:butt;stroke-linejoin:miter;stroke-miterlimit:10;stroke-dasharray:none;stroke-opacity:1" id="path86" transform="matrix(0.133333 0 0 -0.133333 0 396.84)"/>
      <path d="M 595.281,2105.34 H 2012.6" style="fill:none;stroke:#231f20;stroke-width:2.83;stroke-linecap:butt;stroke-linejoin:miter;stroke-miterlimit:10;stroke-dasharray:none;stroke-opacity:1" id="path88" transform="matrix(0.133333 0 0 -0.133333 0 396.84)"/>
      <path d="m 1105.52,2002.74 v 101.18" style="fill:none;stroke:#231f20;stroke-width:2.83;stroke-linecap:butt;stroke-linejoin:miter;stroke-miterlimit:10;stroke-dasharray:none;stroke-opacity:1" id="path90" transform="matrix(0.133333 0 0 -0.133333 0 396.84)"/>
      <path d="M 595.281,2001.32 H 2012.6" style="fill:none;stroke:#231f20;stroke-width:2.83;stroke-linecap:butt;stroke-linejoin:miter;stroke-miterlimit:10;stroke-dasharray:none;stroke-opacity:1" id="path92" transform="matrix(0.133333 0 0 -0.133333 0 396.84)"/>
      <path d="M 1105.52,1898.72 V 1999.9" style="fill:none;stroke:#231f20;stroke-width:2.83;stroke-linecap:butt;stroke-linejoin:miter;stroke-miterlimit:10;stroke-dasharray:none;stroke-opacity:1" id="path94" transform="matrix(0.133333 0 0 -0.133333 0 396.84)"/>
      <path d="M 595.281,1897.3 H 2012.6" style="fill:none;stroke:#231f20;stroke-width:2.83;stroke-linecap:butt;stroke-linejoin:miter;stroke-miterlimit:10;stroke-dasharray:none;stroke-opacity:1" id="path96" transform="matrix(0.133333 0 0 -0.133333 0 396.84)"/>
      <path d="m 1105.52,1794.7 v 101.18" style="fill:none;stroke:#231f20;stroke-width:2.83;stroke-linecap:butt;stroke-linejoin:miter;stroke-miterlimit:10;stroke-dasharray:none;stroke-opacity:1" id="path98" transform="matrix(0.133333 0 0 -0.133333 0 396.84)"/>
      <path d="M 595.281,1793.28 H 2012.6" style="fill:none;stroke:#231f20;stroke-width:2.83;stroke-linecap:butt;stroke-linejoin:miter;stroke-miterlimit:10;stroke-dasharray:none;stroke-opacity:1" id="path100" transform="matrix(0.133333 0 0 -0.133333 0 396.84)"/>
      <path d="m 1105.52,1690.68 v 101.18" style="fill:none;stroke:#231f20;stroke-width:2.83;stroke-linecap:butt;stroke-linejoin:miter;stroke-miterlimit:10;stroke-dasharray:none;stroke-opacity:1" id="path102" transform="matrix(0.133333 0 0 -0.133333 0 396.84)"/>
      <path d="M 595.281,1689.26 H 2012.6" style="fill:none;stroke:#231f20;stroke-width:2.83;stroke-linecap:butt;stroke-linejoin:miter;stroke-miterlimit:10;stroke-dasharray:none;stroke-opacity:1" id="path104" transform="matrix(0.133333 0 0 -0.133333 0 396.84)"/>
      <path d="m 1105.52,1586.66 v 101.18" style="fill:none;stroke:#231f20;stroke-width:2.83;stroke-linecap:butt;stroke-linejoin:miter;stroke-miterlimit:10;stroke-dasharray:none;stroke-opacity:1" id="path106" transform="matrix(0.133333 0 0 -0.133333 0 396.84)"/>
      <path d="M 595.281,1585.24 H 2012.6" style="fill:none;stroke:#231f20;stroke-width:2.83;stroke-linecap:butt;stroke-linejoin:miter;stroke-miterlimit:10;stroke-dasharray:none;stroke-opacity:1" id="path108" transform="matrix(0.133333 0 0 -0.133333 0 396.84)"/>
      <path d="m 1105.52,1482.64 v 101.18" style="fill:none;stroke:#231f20;stroke-width:2.83;stroke-linecap:butt;stroke-linejoin:miter;stroke-miterlimit:10;stroke-dasharray:none;stroke-opacity:1" id="path110" transform="matrix(0.133333 0 0 -0.133333 0 396.84)"/>
      <path d="M 595.281,1481.22 H 1105.52" style="fill:none;stroke:#231f20;stroke-width:2.83;stroke-linecap:butt;stroke-linejoin:miter;stroke-miterlimit:10;stroke-dasharray:none;stroke-opacity:1" id="path112" transform="matrix(0.133333 0 0 -0.133333 0 396.84)"/>
      <path d="m 595.281,2314.76 v 101.18" style="fill:none;stroke:#231f20;stroke-width:2.83;stroke-linecap:butt;stroke-linejoin:miter;stroke-miterlimit:10;stroke-dasharray:none;stroke-opacity:1" id="path114" transform="matrix(0.133333 0 0 -0.133333 0 396.84)"/>
      <path d="m 255.121,2313.34 h 340.16" style="fill:none;stroke:#231f20;stroke-width:2.83;stroke-linecap:butt;stroke-linejoin:miter;stroke-miterlimit:10;stroke-dasharray:none;stroke-opacity:1" id="path116" transform="matrix(0.133333 0 0 -0.133333 0 396.84)"/>
      <path d="m 595.281,2210.74 v 101.18" style="fill:none;stroke:#231f20;stroke-width:2.83;stroke-linecap:butt;stroke-linejoin:miter;stroke-miterlimit:10;stroke-dasharray:none;stroke-opacity:1" id="path118" transform="matrix(0.133333 0 0 -0.133333 0 396.84)"/>
      <path d="m 255.121,2209.32 h 340.16" style="fill:none;stroke:#231f20;stroke-width:2.83;stroke-linecap:butt;stroke-linejoin:miter;stroke-miterlimit:10;stroke-dasharray:none;stroke-opacity:1" id="path120" transform="matrix(0.133333 0 0 -0.133333 0 396.84)"/>
      <path d="M 595.281,2106.72 V 2207.9" style="fill:none;stroke:#231f20;stroke-width:2.83;stroke-linecap:butt;stroke-linejoin:miter;stroke-miterlimit:10;stroke-dasharray:none;stroke-opacity:1" id="path122" transform="matrix(0.133333 0 0 -0.133333 0 396.84)"/>
      <path d="m 255.121,2105.3 h 340.16" style="fill:none;stroke:#231f20;stroke-width:2.83;stroke-linecap:butt;stroke-linejoin:miter;stroke-miterlimit:10;stroke-dasharray:none;stroke-opacity:1" id="path124" transform="matrix(0.133333 0 0 -0.133333 0 396.84)"/>
      <path d="m 595.281,2002.7 v 101.18" style="fill:none;stroke:#231f20;stroke-width:2.83;stroke-linecap:butt;stroke-linejoin:miter;stroke-miterlimit:10;stroke-dasharray:none;stroke-opacity:1" id="path126" transform="matrix(0.133333 0 0 -0.133333 0 396.84)"/>
      <path d="m 255.121,2001.28 h 340.16" style="fill:none;stroke:#231f20;stroke-width:2.83;stroke-linecap:butt;stroke-linejoin:miter;stroke-miterlimit:10;stroke-dasharray:none;stroke-opacity:1" id="path128" transform="matrix(0.133333 0 0 -0.133333 0 396.84)"/>
      <path d="m 595.281,1898.68 v 101.18" style="fill:none;stroke:#231f20;stroke-width:2.83;stroke-linecap:butt;stroke-linejoin:miter;stroke-miterlimit:10;stroke-dasharray:none;stroke-opacity:1" id="path130" transform="matrix(0.133333 0 0 -0.133333 0 396.84)"/>
      <path d="m 255.121,1897.26 h 340.16" style="fill:none;stroke:#231f20;stroke-width:2.83;stroke-linecap:butt;stroke-linejoin:miter;stroke-miterlimit:10;stroke-dasharray:none;stroke-opacity:1" id="path132" transform="matrix(0.133333 0 0 -0.133333 0 396.84)"/>
      <path d="m 595.281,1794.66 v 101.18" style="fill:none;stroke:#231f20;stroke-width:2.83;stroke-linecap:butt;stroke-linejoin:miter;stroke-miterlimit:10;stroke-dasharray:none;stroke-opacity:1" id="path134" transform="matrix(0.133333 0 0 -0.133333 0 396.84)"/>
      <path d="m 255.121,1793.24 h 340.16" style="fill:none;stroke:#231f20;stroke-width:2.83;stroke-linecap:butt;stroke-linejoin:miter;stroke-miterlimit:10;stroke-dasharray:none;stroke-opacity:1" id="path136" transform="matrix(0.133333 0 0 -0.133333 0 396.84)"/>
      <path d="m 595.281,1690.64 v 101.18" style="fill:none;stroke:#231f20;stroke-width:2.83;stroke-linecap:butt;stroke-linejoin:miter;stroke-miterlimit:10;stroke-dasharray:none;stroke-opacity:1" id="path138" transform="matrix(0.133333 0 0 -0.133333 0 396.84)"/>
      <path d="m 255.121,1689.22 h 340.16" style="fill:none;stroke:#231f20;stroke-width:2.83;stroke-linecap:butt;stroke-linejoin:miter;stroke-miterlimit:10;stroke-dasharray:none;stroke-opacity:1" id="path140" transform="matrix(0.133333 0 0 -0.133333 0 396.84)"/>
      <path d="M 595.281,1586.62 V 1687.8" style="fill:none;stroke:#231f20;stroke-width:2.83;stroke-linecap:butt;stroke-linejoin:miter;stroke-miterlimit:10;stroke-dasharray:none;stroke-opacity:1" id="path142" transform="matrix(0.133333 0 0 -0.133333 0 396.84)"/>
      <path d="m 255.121,1585.2 h 340.16" style="fill:none;stroke:#231f20;stroke-width:2.83;stroke-linecap:butt;stroke-linejoin:miter;stroke-miterlimit:10;stroke-dasharray:none;stroke-opacity:1" id="path144" transform="matrix(0.133333 0 0 -0.133333 0 396.84)"/>
      <path d="m 255.121,1481.18 h 340.16" style="fill:none;stroke:#231f20;stroke-width:2.83;stroke-linecap:butt;stroke-linejoin:miter;stroke-miterlimit:10;stroke-dasharray:none;stroke-opacity:1" id="path146" transform="matrix(0.133333 0 0 -0.133333 0 396.84)"/>
      <path d="m 595.281,1482.6 v 101.18" style="fill:none;stroke:#231f20;stroke-width:2.83;stroke-linecap:butt;stroke-linejoin:miter;stroke-miterlimit:10;stroke-dasharray:none;stroke-opacity:1" id="path148" transform="matrix(0.133333 0 0 -0.133333 0 396.84)"/>
      <path d="m 1105.52,1481.18 h 907.09" style="fill:none;stroke:#231f20;stroke-width:2.83;stroke-linecap:butt;stroke-linejoin:miter;stroke-miterlimit:10;stroke-dasharray:none;stroke-opacity:1" id="path150" transform="matrix(0.133333 0 0 -0.133333 0 396.84)"/>
      <text xml:space="preserve" transform="matrix(1.33333 0 0 -1.33333 42.6667 71.24)" style="font-variant:normal;font-weight:normal;font-size:0.1px;font-family:Arial;-inkscape-font-specification:Arial;writing-mode:lr-tb;fill:#231f20;fill-opacity:1;fill-rule:nonzero;stroke:none" id="text208"><tspan x="0 7 13.9 32.099998 39 46 53 60 66.900002 113.4 120.4 127.3" y="0" sodipodi:role="line" id="tspan154">&#9660;&#9670;&#10070;P&#9687;&#10072;&#10073;&#9670;&#10074;&#10095;&#10097;&#10098;</tspan><tspan x="2.5999999 9.3999987 13.7 46.799999 54.599998 80.599998 87.599998 94.599998" y="-10.4" sodipodi:role="line" id="tspan156">&#10099;&#10088;&#10089;&#10092;&#10093;&#10090;&#10091;&#10100;</tspan><tspan x="101.6" y="-10.3" id="tspan158">&#10006;</tspan><tspan x="108.5 115.5 122.4" y="-10.4" sodipodi:role="line" id="tspan160">&#10100;&#10101;&#10075;</tspan><tspan x="4.4000001" y="-20.700001" id="tspan162">&#10061;</tspan><tspan x="9.6000004 14.599999 46.799999 54.599998 80.699997 87.599998 94.599998" y="-20.799999" sodipodi:role="line" id="tspan164">&#10076;&#10077;&#10092;&#10093;&#10100;&#10078;&#10081;</tspan><tspan x="2.7 8.500001" y="-31.200001" sodipodi:role="line" id="tspan166">&#10082;&#10083;</tspan><tspan x="13.1" y="-31.1" id="tspan168">&#10061;</tspan><tspan x="46.799999 54.599998 80.599998 87.599998" y="-31.200001" sodipodi:role="line" id="tspan170">&#10092;&#10084;&#10000;&#10085;</tspan><tspan x="94.599998" y="-31.1" id="tspan172">&#10007;</tspan><tspan x="101.5" y="-31.200001" id="tspan174">&#10086;</tspan><tspan x="108.5" y="-31.1" id="tspan176">&#10007;</tspan><tspan x="115.5" y="-31.200001" id="tspan178">&#10087;</tspan><tspan x="4.1999998" y="-41.599998" id="tspan180">&#9824;</tspan><tspan x="8.1999998" y="-41.5" id="tspan182">&#10061;</tspan><tspan x="13.3 46.799999 54.599998 80.599998 87.599998 94.599998 101.5 108.5 115.5" y="-41.599998" sodipodi:role="line" id="tspan184">&#9829;&#10092;&#9830;&#9827;q&#10101;&#10075;r&#10081;</tspan><tspan x="3.0999999 7.5999999 12.699999 46.799999 54.599998 80.599998 87.599998 94.599998 101.5 108.5 115.5 122.4" y="-52" sodipodi:role="line" id="tspan186">&#10083;&#10076;s&#10092;&#9830;t&#9993;&#9992;&#9991;&#9312;&#10087;&#9313;</tspan><tspan x="3.7 8.3000002" y="-62.400002" sodipodi:role="line" id="tspan188">&#10083;&#10083;</tspan><tspan x="12.8" y="-62.299999" id="tspan190">&#9679;</tspan><tspan x="43.599998 51.400002 56 57.799995 80.599998 87.599998 94.599998 101.5 108.5 115.5 122.39999" y="-62.400002" sodipodi:role="line" id="tspan192">&#10092;&#9314;&#9315;&#10084;&#9316;q&#9317;&#9318;&#9319;q&#9320;</tspan><tspan x="4.1999998 8.4000015 10.400002 46.800003 54.5 80.700005 87.599998 94.599998 101.5 108.5 115.5 122.4 129.39999" y="-72.800003" sodipodi:role="line" id="tspan194">&#9321;&#10077;&#10102;&#10092;&#9314;&#9993;&#10103;&#10104;&#9318;&#10105;&#10106;&#10107;&#10108;</tspan><tspan x="3.3 7.5000014 11.800002 46.800003" y="-83.199997" sodipodi:role="line" id="tspan196">&#10109;&#10088;&#10082;&#10092;</tspan><tspan x="54.599998" y="-83.099998" id="tspan198">&#10012;</tspan><tspan x="80.699997 87.599998 94.599998 101.5 108.5" y="-83.199997" sodipodi:role="line" id="tspan200">&#9992;&#10110;&#10111;&#10112;q</tspan><tspan x="115.4" y="-83.099998" id="tspan202">&#10008;</tspan><tspan x="122.5 129.39999 136.39999 143.3 150.3" y="-83.199997" sodipodi:role="line" id="tspan204">&#10104;&#10113;&#10108;&#10000;&#10105;</tspan><tspan x="4.6999998 9.000001 14.200001 46.800003 54.600002 80.599998 87.599998 94.5 101.6" y="-93.599998" sodipodi:role="line" id="tspan206">&#9321;&#10114;&#10077;&#10092;&#10115;&#10116;&#10117;&#10107;r</tspan></text>
      </svg>