<!-- Created with Inkscape (http://www.inkscape.org/) --><svg xmlns:inkscape="http://www.inkscape.org/namespaces/inkscape" xmlns:sodipodi="http://sodipodi.sourceforge.net/DTD/sodipodi-0.dtd" xmlns="http://www.w3.org/2000/svg" xmlns:svg="http://www.w3.org/2000/svg" version="1.1" id="svg2" width="559.35999" height="162.27177" viewBox="0 0 559.35998 162.27177" sodipodi:docname="pages_10.pdf">
  <defs id="defs6"/>
  <sodipodi:namedview id="namedview4" pagecolor="#ffffff" bordercolor="#666666" borderopacity="1.0" inkscape:showpageshadow="2" inkscape:pageopacity="0.0" inkscape:pagecheckerboard="0" inkscape:deskcolor="#d1d1d1"/>
  <path d="M 0,2664.57 H 4195.2 V 2976.3 H 0 Z" style="fill:#d3d2d2;fill-opacity:1;fill-rule:nonzero;stroke:none" id="path12" transform="matrix(0.133333 0 0 -0.133333 0 396.84)"/>
      <text xml:space="preserve" transform="matrix(1.33333 0 0 -1.33333 34 38.44)" style="font-variant:normal;font-weight:normal;font-size:0.1px;font-family:Arial;-inkscape-font-specification:Arial;writing-mode:lr-tb;fill:#231f20;fill-opacity:1;fill-rule:nonzero;stroke:none" id="text18"><tspan x="0 7" y="0" sodipodi:role="line" id="tspan16">&#9997;</tspan></text>
        <text xml:space="preserve" transform="matrix(1.33333 0 0 -1.33333 34 376.84)" style="font-variant:normal;font-weight:normal;font-size:0.1px;font-family:Arial;-inkscape-font-specification:Arial;writing-mode:lr-tb;fill:#231f20;fill-opacity:1;fill-rule:nonzero;stroke:none" id="text24"><tspan x="0" y="0" id="tspan20"/><tspan x="2.8" y="229.3" id="tspan22">&#9997;</tspan></text>
        <text xml:space="preserve" transform="matrix(1.33333 0 0 -1.33333 49.7333 71.1067)" style="font-variant:normal;font-weight:normal;font-size:0.1px;font-family:Arial;-inkscape-font-specification:Arial;writing-mode:lr-tb;fill:#231f20;fill-opacity:1;fill-rule:nonzero;stroke:none" id="text28"><tspan x="0 8.8999996" y="0" sodipodi:role="line" id="tspan26">&#10026;&#10027;</tspan></text>
        <text xml:space="preserve" transform="matrix(1.33333 0 0 -1.33333 73.6 71.1067)" style="font-variant:normal;font-weight:normal;font-size:0.1px;font-family:Arial;-inkscape-font-specification:Arial;writing-mode:lr-tb;fill:#231f20;fill-opacity:1;fill-rule:nonzero;stroke:none" id="text34"><tspan x="0" y="0" id="tspan30">&#10056;</tspan><tspan x="9 17.799999" y="0.1" sodipodi:role="line" id="tspan32">&#10037;&#10038;</tspan></text>
        <text xml:space="preserve" transform="matrix(1.33333 0 0 -1.33333 109.333 71.1067)" style="font-variant:normal;font-weight:normal;font-size:0.1px;font-family:Arial;-inkscape-font-specification:Arial;writing-mode:lr-tb;fill:#231f20;fill-opacity:1;fill-rule:nonzero;stroke:none" id="text38"><tspan x="0" y="0" id="tspan36">&#9985;</tspan></text>
        <text xml:space="preserve" transform="matrix(1.33333 0 0 -1.33333 121.2 71.1067)" style="font-variant:normal;font-weight:normal;font-size:0.1px;font-family:Arial;-inkscape-font-specification:Arial;writing-mode:lr-tb;fill:#231f20;fill-opacity:1;fill-rule:nonzero;stroke:none" id="text42"><tspan x="0 9.1000004" y="0" sodipodi:role="line" id="tspan40">&#10040;&#10039;</tspan></text>
        <text xml:space="preserve" transform="matrix(1.33333 0 0 -1.33333 145.2 70.9733)" style="font-variant:normal;font-weight:normal;font-size:0.1px;font-family:Arial;-inkscape-font-specification:Arial;writing-mode:lr-tb;fill:#231f20;fill-opacity:1;fill-rule:nonzero;stroke:none" id="text48"><tspan x="0" y="0" id="tspan44">&#10040;</tspan><tspan x="9" y="-0.1" id="tspan46">&#10058;</tspan></text>
        <text xml:space="preserve" transform="matrix(1.33333 0 0 -1.33333 169.067 71.1067)" style="font-variant:normal;font-weight:normal;font-size:0.1px;font-family:Arial;-inkscape-font-specification:Arial;writing-mode:lr-tb;fill:#231f20;fill-opacity:1;fill-rule:nonzero;stroke:none" id="text52"><tspan x="0" y="0" id="tspan50">&#9986;</tspan></text>
        <text xml:space="preserve" transform="matrix(1.33333 0 0 -1.33333 180.933 71.1067)" style="font-variant:normal;font-weight:normal;font-size:0.1px;font-family:Arial;-inkscape-font-specification:Arial;writing-mode:lr-tb;fill:#231f20;fill-opacity:1;fill-rule:nonzero;stroke:none" id="text56"><tspan x="0" y="0" id="tspan54">&#10086;</tspan></text>
        <text xml:space="preserve" transform="matrix(1.33333 0 0 -1.33333 192.933 71.1067)" style="font-variant:normal;font-weight:normal;font-size:0.1px;font-family:Arial;-inkscape-font-specification:Arial;writing-mode:lr-tb;fill:#231f20;fill-opacity:1;fill-rule:nonzero;stroke:none" id="text60"><tspan x="0 9 17.9" y="0" sodipodi:role="line" id="tspan58">&#10038;&#10039;&#10040;</tspan></text>
        <text xml:space="preserve" transform="matrix(1.33333 0 0 -1.33333 231.333 71.1067)" style="font-variant:normal;font-weight:normal;font-size:0.1px;font-family:Arial;-inkscape-font-specification:Arial;writing-mode:lr-tb;fill:#231f20;fill-opacity:1;fill-rule:nonzero;stroke:none" id="text68"><tspan x="0 2.400002 4.9000044 7.4000068" y="0" sodipodi:role="line" id="tspan62">rrrr</tspan><tspan x="10.3" y="0.1" id="tspan64">&#10116;</tspan><tspan x="16.1" y="0" id="tspan66">t</tspan></text>
        <text xml:space="preserve" transform="matrix(1.33333 0 0 -1.33333 37.7333 101.373)" style="font-variant:normal;font-weight:normal;font-size:0.1px;font-family:Arial;-inkscape-font-specification:Arial;writing-mode:lr-tb;fill:#231f20;fill-opacity:1;fill-rule:nonzero;stroke:none" id="text72"><tspan x="0 9 17.9 26.9" y="0" sodipodi:role="line" id="tspan70">&#10013;&#9988;&#9742;&#9990;</tspan></text>
        <text xml:space="preserve" transform="matrix(1.33333 0 0 -1.33333 85.6 101.373)" style="font-variant:normal;font-weight:normal;font-size:0.1px;font-family:Arial;-inkscape-font-specification:Arial;writing-mode:lr-tb;fill:#231f20;fill-opacity:1;fill-rule:nonzero;stroke:none" id="text76"><tspan x="0 8.8000002" y="0" sodipodi:role="line" id="tspan74">&#10106;&#10107;</tspan></text>
        <text xml:space="preserve" transform="matrix(1.33333 0 0 -1.33333 109.333 101.373)" style="font-variant:normal;font-weight:normal;font-size:0.1px;font-family:Arial;-inkscape-font-specification:Arial;writing-mode:lr-tb;fill:#231f20;fill-opacity:1;fill-rule:nonzero;stroke:none" id="text80"><tspan x="0 9 17.9" y="0" sodipodi:role="line" id="tspan78">&#10014;&#10015;&#10016;</tspan></text>
        <text xml:space="preserve" transform="matrix(1.33333 0 0 -1.33333 145.067 101.507)" style="font-variant:normal;font-weight:normal;font-size:0.1px;font-family:Arial;-inkscape-font-specification:Arial;writing-mode:lr-tb;fill:#231f20;fill-opacity:1;fill-rule:nonzero;stroke:none" id="text84"><tspan x="0" y="0" id="tspan82">&#10086;</tspan></text>
        <text xml:space="preserve" transform="matrix(1.33333 0 0 -1.33333 157.067 101.507)" style="font-variant:normal;font-weight:normal;font-size:0.1px;font-family:Arial;-inkscape-font-specification:Arial;writing-mode:lr-tb;fill:#231f20;fill-opacity:1;fill-rule:nonzero;stroke:none" id="text88"><tspan x="0 9 17.9" y="0" sodipodi:role="line" id="tspan86">&#10038;&#10039;&#10040;</tspan></text>
        <text xml:space="preserve" transform="matrix(1.33333 0 0 -1.33333 195.067 101.507)" style="font-variant:normal;font-weight:normal;font-size:0.1px;font-family:Arial;-inkscape-font-specification:Arial;writing-mode:lr-tb;fill:#231f20;fill-opacity:1;fill-rule:nonzero;stroke:none" id="text96"><tspan x="0 2.5000024 5.0000048 7.4000068 9.9000092 12.400012 14.800014 17.300016 19.800018 22.20002 24.700024 27.200026 29.600027 32.100029 34.600033" y="0" sodipodi:role="line" id="tspan90">rrrrrrrrrrrrrrr</tspan><tspan x="37.5" y="0.1" id="tspan92">&#10116;</tspan><tspan x="43.299999" y="0" id="tspan94">t</tspan></text>
        <text xml:space="preserve" transform="matrix(1.33333 0 0 -1.33333 37.7333 131.773)" style="font-variant:normal;font-weight:normal;font-size:0.1px;font-family:Arial;-inkscape-font-specification:Arial;writing-mode:lr-tb;fill:#231f20;fill-opacity:1;fill-rule:nonzero;stroke:none" id="text100"><tspan x="0 7.2999983 13.199998" y="0" sodipodi:role="line" id="tspan98">&#10017;&#9755;&#9758;</tspan></text>
        <text xml:space="preserve" transform="matrix(1.33333 0 0 -1.33333 58.1333 131.773)" style="font-variant:normal;font-weight:normal;font-size:0.1px;font-family:Arial;-inkscape-font-specification:Arial;writing-mode:lr-tb;fill:#231f20;fill-opacity:1;fill-rule:nonzero;stroke:none" id="text104"><tspan x="0" y="0" id="tspan102">&#10059;</tspan></text>
        <text xml:space="preserve" transform="matrix(1.33333 0 0 -1.33333 70.1333 131.773)" style="font-variant:normal;font-weight:normal;font-size:0.1px;font-family:Arial;-inkscape-font-specification:Arial;writing-mode:lr-tb;fill:#231f20;fill-opacity:1;fill-rule:nonzero;stroke:none" id="text108"><tspan x="0" y="0" id="tspan106">&#9996;</tspan></text>
        <text xml:space="preserve" transform="matrix(1.33333 0 0 -1.33333 82.1333 131.773)" style="font-variant:normal;font-weight:normal;font-size:0.1px;font-family:Arial;-inkscape-font-specification:Arial;writing-mode:lr-tb;fill:#231f20;fill-opacity:1;fill-rule:nonzero;stroke:none" id="text112"><tspan x="0" y="0" id="tspan110">&#9998;</tspan></text>
        <text xml:space="preserve" transform="matrix(1.33333 0 0 -1.33333 94 131.773)" style="font-variant:normal;font-weight:normal;font-size:0.1px;font-family:Arial;-inkscape-font-specification:Arial;writing-mode:lr-tb;fill:#231f20;fill-opacity:1;fill-rule:nonzero;stroke:none" id="text116"><tspan x="0 9" y="0" sodipodi:role="line" id="tspan114">&#9998;&#9999;</tspan></text>
        <text xml:space="preserve" transform="matrix(1.33333 0 0 -1.33333 118 131.773)" style="font-variant:normal;font-weight:normal;font-size:0.1px;font-family:Arial;-inkscape-font-specification:Arial;writing-mode:lr-tb;fill:#231f20;fill-opacity:1;fill-rule:nonzero;stroke:none" id="text122"><tspan x="0 8.8999996" y="0" sodipodi:role="line" id="tspan118">&#10087;&#10063;</tspan><tspan x="13.4 22.299999 31.200001 40.299999" y="0.1" sodipodi:role="line" id="tspan120">&#10110;&#10150;&#10151;&#10152;</tspan></text>
        <text xml:space="preserve" transform="matrix(1.33333 0 0 -1.33333 183.6 131.773)" style="font-variant:normal;font-weight:normal;font-size:0.1px;font-family:Arial;-inkscape-font-specification:Arial;writing-mode:lr-tb;fill:#231f20;fill-opacity:1;fill-rule:nonzero;stroke:none" id="text126"><tspan x="0" y="0" id="tspan124">&#10001;</tspan></text>
        <text xml:space="preserve" transform="matrix(1.33333 0 0 -1.33333 195.467 131.773)" style="font-variant:normal;font-weight:normal;font-size:0.1px;font-family:Arial;-inkscape-font-specification:Arial;writing-mode:lr-tb;fill:#231f20;fill-opacity:1;fill-rule:nonzero;stroke:none" id="text130"><tspan x="0" y="0" id="tspan128">&#10061;</tspan></text>
        <text xml:space="preserve" transform="matrix(1.33333 0 0 -1.33333 207.467 131.64)" style="font-variant:normal;font-weight:normal;font-size:0.1px;font-family:Arial;-inkscape-font-specification:Arial;writing-mode:lr-tb;fill:#231f20;fill-opacity:1;fill-rule:nonzero;stroke:none" id="text134"><tspan x="0" y="0" id="tspan132">&#9990;</tspan></text>
        <text xml:space="preserve" transform="matrix(1.33333 0 0 -1.33333 221.467 131.773)" style="font-variant:normal;font-weight:normal;font-size:0.1px;font-family:Arial;-inkscape-font-specification:Arial;writing-mode:lr-tb;fill:#231f20;fill-opacity:1;fill-rule:nonzero;stroke:none" id="text140"><tspan x="0 2.400002 4.9000044 7.4000068 9.8000088 12.300012 14.800014" y="0" sodipodi:role="line" id="tspan136">rrrrrrr</tspan><tspan x="17.700001" y="0.1" id="tspan138">&#10116;</tspan></text>
        <text xml:space="preserve" transform="matrix(1.33333 0 0 -1.33333 252.8 131.773)" style="font-variant:normal;font-weight:normal;font-size:0.1px;font-family:Arial;-inkscape-font-specification:Arial;writing-mode:lr-tb;fill:#231f20;fill-opacity:1;fill-rule:nonzero;stroke:none" id="text146"><tspan x="0" y="0" id="tspan142">&#10002;</tspan><tspan x="-161.3 -152.3 -143.39999" y="-22.700001" sodipodi:role="line" id="tspan144">&#10003;&#10004;&#10005;</tspan></text>
        <text xml:space="preserve" transform="matrix(1.33333 0 0 -1.33333 73.4667 162.173)" style="font-variant:normal;font-weight:normal;font-size:0.1px;font-family:Arial;-inkscape-font-specification:Arial;writing-mode:lr-tb;fill:#231f20;fill-opacity:1;fill-rule:nonzero;stroke:none" id="text152"><tspan x="0" y="0" id="tspan148">&#10061;</tspan><tspan x="9.1000004" y="0.1" id="tspan150">&#10106;</tspan></text>
        <text xml:space="preserve" transform="matrix(1.33333 0 0 -1.33333 97.4667 162.04)" style="font-variant:normal;font-weight:normal;font-size:0.1px;font-family:Arial;-inkscape-font-specification:Arial;writing-mode:lr-tb;fill:#231f20;fill-opacity:1;fill-rule:nonzero;stroke:none" id="text156"><tspan x="0 8.8999996 17.9" y="0" sodipodi:role="line" id="tspan154">&#10006;&#10007;&#10008;</tspan></text>
        <text xml:space="preserve" transform="matrix(1.33333 0 0 -1.33333 136 162.173)" style="font-variant:normal;font-weight:normal;font-size:0.1px;font-family:Arial;-inkscape-font-specification:Arial;writing-mode:lr-tb;fill:#231f20;fill-opacity:1;fill-rule:nonzero;stroke:none" id="text160"><tspan x="0 2.400002 4.9000044 7.4000068 9.8000088 12.300012 14.700013 17.200016 19.700018 22.100019 24.600023 27.100025 29.500027 32.000031 34.500031 36.900036 39.400036 41.90004 44.300041 46.800045 49.300045 51.700047 54.20005 56.700054 59.100056 61.600056 64.10006 66.500061 69.000061 71.500069 73.90007 76.40007 78.90007" y="0" sodipodi:role="line" id="tspan158">rrrrrrrrrrrrrrrrrrrrrrrrrrrrrrrrr</tspan></text>
        <text xml:space="preserve" transform="matrix(1.33333 0 0 -1.33333 244.933 162.173)" style="font-variant:normal;font-weight:normal;font-size:0.1px;font-family:Arial;-inkscape-font-specification:Arial;writing-mode:lr-tb;fill:#231f20;fill-opacity:1;fill-rule:nonzero;stroke:none" id="text164"><tspan x="0 5.8999977" y="0" sodipodi:role="line" id="tspan162">&#10042;&#9660;</tspan></text>
      </svg>