<!-- Created with Inkscape (http://www.inkscape.org/) --><svg xmlns:inkscape="http://www.inkscape.org/namespaces/inkscape" xmlns:sodipodi="http://sodipodi.sourceforge.net/DTD/sodipodi-0.dtd" xmlns="http://www.w3.org/2000/svg" xmlns:svg="http://www.w3.org/2000/svg" version="1.1" id="svg2" width="559.35999" height="151.5829" viewBox="0 0 559.35998 151.5829" sodipodi:docname="pages_35.pdf">
  <defs id="defs6">
    <clipPath clipPathUnits="userSpaceOnUse" id="clipPath36">
      <path d="m 255.121,2423.62 h 99.207 v 99.2109 h -99.207 z" id="path34"/>
    </clipPath>
  </defs>
  <sodipodi:namedview id="namedview4" pagecolor="#ffffff" bordercolor="#666666" borderopacity="1.0" inkscape:showpageshadow="2" inkscape:pageopacity="0.0" inkscape:pagecheckerboard="0" inkscape:deskcolor="#d1d1d1"/>
  <path d="M 0,2664.57 H 4195.2 V 2976.3 H 0 Z" style="fill:#d3d2d2;fill-opacity:1;fill-rule:nonzero;stroke:none" id="path12" transform="matrix(0.133333 0 0 -0.133333 0 396.84)"/>
      <path d="M 0,2664.57 V 2976.3" style="fill:#d3d2d2;fill-opacity:1;fill-rule:nonzero;stroke:none" id="path14" transform="matrix(0.133333 0 0 -0.133333 0 396.84)"/>
      <text xml:space="preserve" transform="matrix(1.33333 0 0 -1.33333 478.667 38.44)" style="font-variant:normal;font-weight:normal;font-size:0.1px;font-family:Arial;-inkscape-font-specification:Arial;writing-mode:lr-tb;fill:#231f20;fill-opacity:1;fill-rule:nonzero;stroke:none" id="text20"><tspan x="0" y="0" id="tspan18">&#10015;</tspan></text>
        <text xml:space="preserve" transform="matrix(1.33333 0 0 -1.33333 488 38.44)" style="font-variant:normal;font-weight:normal;font-size:0.1px;font-family:Arial;-inkscape-font-specification:Arial;writing-mode:lr-tb;fill:#231f20;fill-opacity:1;fill-rule:nonzero;stroke:none" id="text24"><tspan x="0 7 14 21" y="0" sodipodi:role="line" id="tspan22">&#10015;&#9985;&#9986;</tspan></text>
        <text xml:space="preserve" transform="matrix(1.33333 0 0 -1.33333 514 376.84)" style="font-variant:normal;font-weight:normal;font-size:0.1px;font-family:Arial;-inkscape-font-specification:Arial;writing-mode:lr-tb;fill:#231f20;fill-opacity:1;fill-rule:nonzero;stroke:none" id="text28"><tspan x="0 4.5999899" y="0" sodipodi:role="line" id="tspan26"/></text>
      <path d="m 255.121,2483.64 v 20.43 c 0,10.35 8.43,18.76 18.789,18.76 h 61.629 c 10.359,0 18.789,-8.41 18.789,-18.76 v -18.15 h -6.777 v 18.15 c 0,6.62 -5.391,12 -12.012,12 H 273.91 c -6.629,0 -12.019,-5.38 -12.019,-12 v -42.29 c 0,-6.61 5.39,-11.99 12.019,-11.99 h 46.84 c 1.059,0 2.051,-0.5 2.699,-1.33 l 8.77,-11.47 v 9.42 c 0,1.86 1.5,3.37 3.371,3.38 6.601,0.04 11.961,5.41 11.961,11.99 v 24.14 h 6.777 v -24.14 c 0,-9.15 -6.629,-16.81 -15.34,-18.44 v -16.33 c 0,-1.45 -0.918,-2.74 -2.289,-3.2 -0.371,-0.13 -0.73,-0.18 -1.09,-0.18 -1.031,0 -2.031,0.47 -2.687,1.32 l -13.844,18.07 H 273.91 c -10.359,0 -18.789,8.42 -18.789,18.76" style="fill:#656263;fill-opacity:1;fill-rule:nonzero;stroke:none" id="path38" clip-path="url(#clipPath36)" transform="matrix(0.133333 0 0 -0.133333 0 396.84)"/>
        <path d="m 331.719,2496.07 h -52.91 c -1.879,0 -3.387,1.51 -3.387,3.38 0,1.87 1.508,3.39 3.387,3.39 h 52.91 c 1.871,0 3.383,-1.52 3.383,-3.39 0,-1.87 -1.512,-3.38 -3.383,-3.38" style="fill:#656263;fill-opacity:1;fill-rule:nonzero;stroke:none" id="path40" transform="matrix(0.133333 0 0 -0.133333 0 396.84)"/>
      <path d="m 331.719,2479.46 h -52.91 c -1.879,0 -3.387,1.52 -3.387,3.38 0,1.87 1.508,3.39 3.387,3.39 h 52.91 c 1.871,0 3.383,-1.52 3.383,-3.39 0,-1.86 -1.512,-3.38 -3.383,-3.38" style="fill:#656263;fill-opacity:1;fill-rule:nonzero;stroke:none" id="path42" transform="matrix(0.133333 0 0 -0.133333 0 396.84)"/>
      <path d="m 331.719,2462.84 h -52.91 c -1.879,0 -3.387,1.52 -3.387,3.39 0,1.87 1.508,3.38 3.387,3.38 h 52.91 c 1.871,0 3.383,-1.51 3.383,-3.38 0,-1.87 -1.512,-3.39 -3.383,-3.39" style="fill:#656263;fill-opacity:1;fill-rule:nonzero;stroke:none" id="path44" transform="matrix(0.133333 0 0 -0.133333 0 396.84)"/>
      <text xml:space="preserve" transform="matrix(1.33333 0 0 -1.33333 49.0667 70.3067)" style="font-variant:normal;font-weight:normal;font-size:0.1px;font-family:Arial;-inkscape-font-specification:Arial;writing-mode:lr-tb;fill:#231f20;fill-opacity:1;fill-rule:nonzero;stroke:none" id="text50"><tspan x="0 7.9000001" y="0" sodipodi:role="line" id="tspan48">&#9988;&#9742;</tspan></text>
        <text xml:space="preserve" transform="matrix(1.33333 0 0 -1.33333 33.8667 84.1733)" style="font-variant:normal;font-weight:normal;font-size:0.1px;font-family:Arial;-inkscape-font-specification:Arial;writing-mode:lr-tb;fill:#231f20;fill-opacity:1;fill-rule:nonzero;stroke:none" id="text54"><tspan x="0" y="0" id="tspan52">&#10100;</tspan></text>
        <text xml:space="preserve" transform="matrix(1.33333 0 0 -1.33333 43.3333 84.7067)" style="font-variant:normal;font-weight:normal;font-size:0.1px;font-family:Arial;-inkscape-font-specification:Arial;writing-mode:lr-tb;fill:#231f20;fill-opacity:1;fill-rule:nonzero;stroke:none" id="text58"><tspan x="0 4.599999" y="0" sodipodi:role="line" id="tspan56">&#9990;&#10013;</tspan></text>
        <text xml:space="preserve" transform="matrix(1.33333 0 0 -1.33333 56.6667 84.7067)" style="font-variant:normal;font-weight:normal;font-size:0.1px;font-family:Arial;-inkscape-font-specification:Arial;writing-mode:lr-tb;fill:#231f20;fill-opacity:1;fill-rule:nonzero;stroke:none" id="text62"><tspan x="0" y="0" id="tspan60">&#10003;</tspan></text>
        <text xml:space="preserve" transform="matrix(1.33333 0 0 -1.33333 66.1333 84.7067)" style="font-variant:normal;font-weight:normal;font-size:0.1px;font-family:Arial;-inkscape-font-specification:Arial;writing-mode:lr-tb;fill:#231f20;fill-opacity:1;fill-rule:nonzero;stroke:none" id="text66"><tspan x="0 6.9000001" y="0" sodipodi:role="line" id="tspan64">&#10014;&#10016;</tspan></text>
        <text xml:space="preserve" transform="matrix(1.33333 0 0 -1.33333 84.5333 84.7067)" style="font-variant:normal;font-weight:normal;font-size:0.1px;font-family:Arial;-inkscape-font-specification:Arial;writing-mode:lr-tb;fill:#231f20;fill-opacity:1;fill-rule:nonzero;stroke:none" id="text70"><tspan x="0" y="0" id="tspan68">&#10037;</tspan></text>
        <text xml:space="preserve" transform="matrix(1.33333 0 0 -1.33333 93.8667 84.84)" style="font-variant:normal;font-weight:normal;font-size:0.1px;font-family:Arial;-inkscape-font-specification:Arial;writing-mode:lr-tb;fill:#231f20;fill-opacity:1;fill-rule:nonzero;stroke:none" id="text80"><tspan x="0 7.0999999" y="0" sodipodi:role="line" id="tspan72">&#9650;P</tspan><tspan x="14 21" y="0.1" sodipodi:role="line" id="tspan74">&#10074;&#10095;</tspan><tspan x="28" y="0" id="tspan76">&#9660;</tspan><tspan x="34.900002 41.900002 48.900002 55.900002" y="0.1" sodipodi:role="line" id="tspan78">&#10078;&#10001;&#10092;&#10002;</tspan></text>
        <text xml:space="preserve" transform="matrix(1.33333 0 0 -1.33333 177.6 84.7067)" style="font-variant:normal;font-weight:normal;font-size:0.1px;font-family:Arial;-inkscape-font-specification:Arial;writing-mode:lr-tb;fill:#231f20;fill-opacity:1;fill-rule:nonzero;stroke:none" id="text84"><tspan x="0" y="0" id="tspan82">&#10038;</tspan></text>
        <text xml:space="preserve" transform="matrix(1.33333 0 0 -1.33333 184.533 84.7067)" style="font-variant:normal;font-weight:normal;font-size:0.1px;font-family:Arial;-inkscape-font-specification:Arial;writing-mode:lr-tb;fill:#231f20;fill-opacity:1;fill-rule:nonzero;stroke:none" id="text88"><tspan x="0 7" y="0" sodipodi:role="line" id="tspan86">&#10017;&#9755;</tspan></text>
        <text xml:space="preserve" transform="matrix(1.33333 0 0 -1.33333 203.2 84.7067)" style="font-variant:normal;font-weight:normal;font-size:0.1px;font-family:Arial;-inkscape-font-specification:Arial;writing-mode:lr-tb;fill:#231f20;fill-opacity:1;fill-rule:nonzero;stroke:none" id="text92"><tspan x="0" y="0" id="tspan90">&#10084;</tspan></text>
        <text xml:space="preserve" transform="matrix(1.33333 0 0 -1.33333 212.4 84.7067)" style="font-variant:normal;font-weight:normal;font-size:0.1px;font-family:Arial;-inkscape-font-specification:Arial;writing-mode:lr-tb;fill:#231f20;fill-opacity:1;fill-rule:nonzero;stroke:none" id="text96"><tspan x="0 7 13.9 21.700001 26.300005 30.900009 32.700008 37.300011" y="0" sodipodi:role="line" id="tspan94">&#9758;&#9755;&#9996;&#9990;&#9990;&#9997;&#9998;&#9999;</tspan></text>
        <text xml:space="preserve" transform="matrix(1.33333 0 0 -1.33333 43.4667 98.04)" style="font-variant:normal;font-weight:normal;font-size:0.1px;font-family:Arial;-inkscape-font-specification:Arial;writing-mode:lr-tb;fill:#231f20;fill-opacity:1;fill-rule:nonzero;stroke:none" id="text100"><tspan x="0 7 13.9" y="0" sodipodi:role="line" id="tspan98">&#10011;&#9996;&#10002;</tspan></text>
        <text xml:space="preserve" transform="matrix(1.33333 0 0 -1.33333 71.3333 98.04)" style="font-variant:normal;font-weight:normal;font-size:0.1px;font-family:Arial;-inkscape-font-specification:Arial;writing-mode:lr-tb;fill:#231f20;fill-opacity:1;fill-rule:nonzero;stroke:none" id="text104"><tspan x="0 6.9000001" y="0" sodipodi:role="line" id="tspan102">&#9755;&#9996;</tspan></text>
        <text xml:space="preserve" transform="matrix(1.33333 0 0 -1.33333 89.7333 98.04)" style="font-variant:normal;font-weight:normal;font-size:0.1px;font-family:Arial;-inkscape-font-specification:Arial;writing-mode:lr-tb;fill:#231f20;fill-opacity:1;fill-rule:nonzero;stroke:none" id="text112"><tspan x="0" y="0" id="tspan106">&#10016;</tspan><tspan x="7" y="-0.1" id="tspan108">&#9650;</tspan><tspan x="13.9" y="0" id="tspan110">&#9998;</tspan></text>
        <text xml:space="preserve" transform="matrix(1.33333 0 0 -1.33333 118.8 98.04)" style="font-variant:normal;font-weight:normal;font-size:0.1px;font-family:Arial;-inkscape-font-specification:Arial;writing-mode:lr-tb;fill:#231f20;fill-opacity:1;fill-rule:nonzero;stroke:none" id="text116"><tspan x="0 2.5999975 6.8000002" y="0" sodipodi:role="line" id="tspan114">&#10001;&#10002;&#10003;</tspan></text>
        <text xml:space="preserve" transform="matrix(1.33333 0 0 -1.33333 132.4 98.04)" style="font-variant:normal;font-weight:normal;font-size:0.1px;font-family:Arial;-inkscape-font-specification:Arial;writing-mode:lr-tb;fill:#231f20;fill-opacity:1;fill-rule:nonzero;stroke:none" id="text120"><tspan x="0" y="0" id="tspan118">&#10084;</tspan></text>
        <text xml:space="preserve" transform="matrix(1.33333 0 0 -1.33333 141.733 98.04)" style="font-variant:normal;font-weight:normal;font-size:0.1px;font-family:Arial;-inkscape-font-specification:Arial;writing-mode:lr-tb;fill:#231f20;fill-opacity:1;fill-rule:nonzero;stroke:none" id="text124"><tspan x="0 6.9000001" y="0" sodipodi:role="line" id="tspan122">&#10004;&#10005;</tspan></text>
        <text xml:space="preserve" transform="matrix(1.33333 0 0 -1.33333 160.267 98.1733)" style="font-variant:normal;font-weight:normal;font-size:0.1px;font-family:Arial;-inkscape-font-specification:Arial;writing-mode:lr-tb;fill:#231f20;fill-opacity:1;fill-rule:nonzero;stroke:none" id="text134"><tspan x="0" y="0" id="tspan126">&#9660;</tspan><tspan x="7 13.9 20.799999" y="0.1" sodipodi:role="line" id="tspan128">&#10011;&#9998;&#10012;</tspan><tspan x="-94.800003" y="-9.5" id="tspan130">&#10100;</tspan><tspan x="-87.699997 -80.5" y="-9.8999996" sodipodi:role="line" id="tspan132">&#10005;&#10006;</tspan></text>
        <text xml:space="preserve" transform="matrix(1.33333 0 0 -1.33333 62.6667 111.373)" style="font-variant:normal;font-weight:normal;font-size:0.1px;font-family:Arial;-inkscape-font-specification:Arial;writing-mode:lr-tb;fill:#231f20;fill-opacity:1;fill-rule:nonzero;stroke:none" id="text138"><tspan x="0" y="0" id="tspan136">&#10040;</tspan></text>
        <text xml:space="preserve" transform="matrix(1.33333 0 0 -1.33333 72.2667 111.373)" style="font-variant:normal;font-weight:normal;font-size:0.1px;font-family:Arial;-inkscape-font-specification:Arial;writing-mode:lr-tb;fill:#231f20;fill-opacity:1;fill-rule:nonzero;stroke:none" id="text142"><tspan x="0 7.1999998 14.4" y="0" sodipodi:role="line" id="tspan140">&#10074;&#10095;&#10002;</tspan></text>
        <text xml:space="preserve" transform="matrix(1.33333 0 0 -1.33333 100.8 111.373)" style="font-variant:normal;font-weight:normal;font-size:0.1px;font-family:Arial;-inkscape-font-specification:Arial;writing-mode:lr-tb;fill:#231f20;fill-opacity:1;fill-rule:nonzero;stroke:none" id="text146"><tspan x="0" y="0" id="tspan144">&#10038;</tspan></text>
        <text xml:space="preserve" transform="matrix(1.33333 0 0 -1.33333 108 111.373)" style="font-variant:normal;font-weight:normal;font-size:0.1px;font-family:Arial;-inkscape-font-specification:Arial;writing-mode:lr-tb;fill:#231f20;fill-opacity:1;fill-rule:nonzero;stroke:none" id="text150"><tspan x="0" y="0" id="tspan148">&#10006;</tspan></text>
        <text xml:space="preserve" transform="matrix(1.33333 0 0 -1.33333 117.467 111.373)" style="font-variant:normal;font-weight:normal;font-size:0.1px;font-family:Arial;-inkscape-font-specification:Arial;writing-mode:lr-tb;fill:#231f20;fill-opacity:1;fill-rule:nonzero;stroke:none" id="text154"><tspan x="0 7.3000002" y="0" sodipodi:role="line" id="tspan152">&#10088;&#9999;</tspan></text>
        <text xml:space="preserve" transform="matrix(1.33333 0 0 -1.33333 136.8 111.373)" style="font-variant:normal;font-weight:normal;font-size:0.1px;font-family:Arial;-inkscape-font-specification:Arial;writing-mode:lr-tb;fill:#231f20;fill-opacity:1;fill-rule:nonzero;stroke:none" id="text158"><tspan x="0" y="0" id="tspan156">&#10007;</tspan></text>
        <text xml:space="preserve" transform="matrix(1.33333 0 0 -1.33333 146.4 111.373)" style="font-variant:normal;font-weight:normal;font-size:0.1px;font-family:Arial;-inkscape-font-specification:Arial;writing-mode:lr-tb;fill:#231f20;fill-opacity:1;fill-rule:nonzero;stroke:none" id="text162"><tspan x="0" y="0" id="tspan160">&#10040;</tspan></text>
        <text xml:space="preserve" transform="matrix(1.33333 0 0 -1.33333 156 111.373)" style="font-variant:normal;font-weight:normal;font-size:0.1px;font-family:Arial;-inkscape-font-specification:Arial;writing-mode:lr-tb;fill:#231f20;fill-opacity:1;fill-rule:nonzero;stroke:none" id="text166"><tspan x="0 7.1999998 14.4" y="0" sodipodi:role="line" id="tspan164">&#10008;&#10009;&#10010;</tspan></text>
        <text xml:space="preserve" transform="matrix(1.33333 0 0 -1.33333 184.533 111.373)" style="font-variant:normal;font-weight:normal;font-size:0.1px;font-family:Arial;-inkscape-font-specification:Arial;writing-mode:lr-tb;fill:#231f20;fill-opacity:1;fill-rule:nonzero;stroke:none" id="text170"><tspan x="0" y="0" id="tspan168">&#10038;</tspan></text>
        <text xml:space="preserve" transform="matrix(1.33333 0 0 -1.33333 191.733 111.373)" style="font-variant:normal;font-weight:normal;font-size:0.1px;font-family:Arial;-inkscape-font-specification:Arial;writing-mode:lr-tb;fill:#231f20;fill-opacity:1;fill-rule:nonzero;stroke:none" id="text174"><tspan x="0" y="0" id="tspan172">&#10011;</tspan></text>
        <text xml:space="preserve" transform="matrix(1.33333 0 0 -1.33333 201.333 111.373)" style="font-variant:normal;font-weight:normal;font-size:0.1px;font-family:Arial;-inkscape-font-specification:Arial;writing-mode:lr-tb;fill:#231f20;fill-opacity:1;fill-rule:nonzero;stroke:none" id="text178"><tspan x="0" y="0" id="tspan176">&#9999;</tspan></text>
        <text xml:space="preserve" transform="matrix(1.33333 0 0 -1.33333 210.933 111.373)" style="font-variant:normal;font-weight:normal;font-size:0.1px;font-family:Arial;-inkscape-font-specification:Arial;writing-mode:lr-tb;fill:#231f20;fill-opacity:1;fill-rule:nonzero;stroke:none" id="text182"><tspan x="0 7.1999998" y="0" sodipodi:role="line" id="tspan180">&#10011;&#10012;</tspan></text>
        <text xml:space="preserve" transform="matrix(1.33333 0 0 -1.33333 230.133 111.507)" style="font-variant:normal;font-weight:normal;font-size:0.1px;font-family:Arial;-inkscape-font-specification:Arial;writing-mode:lr-tb;fill:#231f20;fill-opacity:1;fill-rule:nonzero;stroke:none" id="text186"><tspan x="0" y="0" id="tspan184">P</tspan></text>
        <text xml:space="preserve" transform="matrix(1.33333 0 0 -1.33333 239.733 111.373)" style="font-variant:normal;font-weight:normal;font-size:0.1px;font-family:Arial;-inkscape-font-specification:Arial;writing-mode:lr-tb;fill:#231f20;fill-opacity:1;fill-rule:nonzero;stroke:none" id="text190"><tspan x="0" y="0" id="tspan188">&#10018;</tspan></text>
        <text xml:space="preserve" transform="matrix(1.33333 0 0 -1.33333 249.2 111.373)" style="font-variant:normal;font-weight:normal;font-size:0.1px;font-family:Arial;-inkscape-font-specification:Arial;writing-mode:lr-tb;fill:#231f20;fill-opacity:1;fill-rule:nonzero;stroke:none" id="text198"><tspan x="0 7.1999998" y="0" sodipodi:role="line" id="tspan192">&#10101;&#10075;</tspan><tspan x="-154.3" y="-10.1" id="tspan194">&#9660;</tspan><tspan x="-147.3 -140.39999 -133.39999 -126.5" y="-10" sodipodi:role="line" id="tspan196">&#10089;&#9997;&#10011;&#9998;</tspan></text>
        <text xml:space="preserve" transform="matrix(1.33333 0 0 -1.33333 85.2 124.707)" style="font-variant:normal;font-weight:normal;font-size:0.1px;font-family:Arial;-inkscape-font-specification:Arial;writing-mode:lr-tb;fill:#231f20;fill-opacity:1;fill-rule:nonzero;stroke:none" id="text202"><tspan x="0 6.9000001 13.9 20.9 27.799999 34.799999 41.799999 48.700001" y="0" sodipodi:role="line" id="tspan200">&#10019;&#10020;&#10021;&#10022;&#10023;&#9733;&#10025;&#10026;</tspan></text>
        <text xml:space="preserve" transform="matrix(1.33333 0 0 -1.33333 159.467 124.707)" style="font-variant:normal;font-weight:normal;font-size:0.1px;font-family:Arial;-inkscape-font-specification:Arial;writing-mode:lr-tb;fill:#231f20;fill-opacity:1;fill-rule:nonzero;stroke:none" id="text206"><tspan x="0" y="0" id="tspan204">&#10100;</tspan></text>
        <text xml:space="preserve" transform="matrix(1.33333 0 0 -1.33333 168.8 124.707)" style="font-variant:normal;font-weight:normal;font-size:0.1px;font-family:Arial;-inkscape-font-specification:Arial;writing-mode:lr-tb;fill:#231f20;fill-opacity:1;fill-rule:nonzero;stroke:none" id="text210"><tspan x="0 6.9000001 13.9" y="0" sodipodi:role="line" id="tspan208">&#10027;&#10023;&#10028;</tspan></text>
        <text xml:space="preserve" transform="matrix(1.33333 0 0 -1.33333 191.867 124.707)" style="font-variant:normal;font-weight:normal;font-size:0.1px;font-family:Arial;-inkscape-font-specification:Arial;writing-mode:lr-tb;fill:#231f20;fill-opacity:1;fill-rule:nonzero;stroke:none" id="text216"><tspan x="0" y="0" id="tspan212">&#10012;</tspan><tspan x="-118.5" y="-9.6000004" id="tspan214">&#10100;</tspan></text>
        <text xml:space="preserve" transform="matrix(1.33333 0 0 -1.33333 43.3333 138.04)" style="font-variant:normal;font-weight:normal;font-size:0.1px;font-family:Arial;-inkscape-font-specification:Arial;writing-mode:lr-tb;fill:#231f20;fill-opacity:1;fill-rule:nonzero;stroke:none" id="text220"><tspan x="0 7.1999998" y="0" sodipodi:role="line" id="tspan218">&#10029;&#10030;</tspan></text>
        <text xml:space="preserve" transform="matrix(1.33333 0 0 -1.33333 62.4 138.04)" style="font-variant:normal;font-weight:normal;font-size:0.1px;font-family:Arial;-inkscape-font-specification:Arial;writing-mode:lr-tb;fill:#231f20;fill-opacity:1;fill-rule:nonzero;stroke:none" id="text224"><tspan x="0" y="0" id="tspan222">&#10091;</tspan></text>
        <text xml:space="preserve" transform="matrix(1.33333 0 0 -1.33333 71.8667 138.04)" style="font-variant:normal;font-weight:normal;font-size:0.1px;font-family:Arial;-inkscape-font-specification:Arial;writing-mode:lr-tb;fill:#231f20;fill-opacity:1;fill-rule:nonzero;stroke:none" id="text228"><tspan x="0" y="0" id="tspan226">&#10021;</tspan></text>
        <text xml:space="preserve" transform="matrix(1.33333 0 0 -1.33333 81.2 138.04)" style="font-variant:normal;font-weight:normal;font-size:0.1px;font-family:Arial;-inkscape-font-specification:Arial;writing-mode:lr-tb;fill:#231f20;fill-opacity:1;fill-rule:nonzero;stroke:none" id="text232"><tspan x="0" y="0" id="tspan230">&#10037;</tspan></text>
        <text xml:space="preserve" transform="matrix(1.33333 0 0 -1.33333 90.6667 138.173)" style="font-variant:normal;font-weight:normal;font-size:0.1px;font-family:Arial;-inkscape-font-specification:Arial;writing-mode:lr-tb;fill:#231f20;fill-opacity:1;fill-rule:nonzero;stroke:none" id="text236"><tspan x="0" y="0" id="tspan234">&#9650;</tspan></text>
        <text xml:space="preserve" transform="matrix(1.33333 0 0 -1.33333 100.4 138.04)" style="font-variant:normal;font-weight:normal;font-size:0.1px;font-family:Arial;-inkscape-font-specification:Arial;writing-mode:lr-tb;fill:#231f20;fill-opacity:1;fill-rule:nonzero;stroke:none" id="text240"><tspan x="0" y="0" id="tspan238">&#10040;</tspan></text>
        <text xml:space="preserve" transform="matrix(1.33333 0 0 -1.33333 109.733 138.04)" style="font-variant:normal;font-weight:normal;font-size:0.1px;font-family:Arial;-inkscape-font-specification:Arial;writing-mode:lr-tb;fill:#231f20;fill-opacity:1;fill-rule:nonzero;stroke:none" id="text244"><tspan x="0 7.0999999 14.2" y="0" sodipodi:role="line" id="tspan242">&#10003;&#10004;&#10016;</tspan></text>
        <text xml:space="preserve" transform="matrix(1.33333 0 0 -1.33333 138.267 138.04)" style="font-variant:normal;font-weight:normal;font-size:0.1px;font-family:Arial;-inkscape-font-specification:Arial;writing-mode:lr-tb;fill:#231f20;fill-opacity:1;fill-rule:nonzero;stroke:none" id="text248"><tspan x="0 7.0999999" y="0" sodipodi:role="line" id="tspan246">&#10031;&#10017;</tspan></text>
        <text xml:space="preserve" transform="matrix(1.33333 0 0 -1.33333 157.067 138.04)" style="font-variant:normal;font-weight:normal;font-size:0.1px;font-family:Arial;-inkscape-font-specification:Arial;writing-mode:lr-tb;fill:#231f20;fill-opacity:1;fill-rule:nonzero;stroke:none" id="text252"><tspan x="0 7.1999998 14.3" y="0" sodipodi:role="line" id="tspan250">&#9998;&#9999;&#10001;</tspan></text>
        <text xml:space="preserve" transform="matrix(1.33333 0 0 -1.33333 185.467 138.04)" style="font-variant:normal;font-weight:normal;font-size:0.1px;font-family:Arial;-inkscape-font-specification:Arial;writing-mode:lr-tb;fill:#231f20;fill-opacity:1;fill-rule:nonzero;stroke:none" id="text256"><tspan x="0" y="0" id="tspan254">&#10038;</tspan></text>
        <text xml:space="preserve" transform="matrix(1.33333 0 0 -1.33333 192.533 138.173)" style="font-variant:normal;font-weight:normal;font-size:0.1px;font-family:Arial;-inkscape-font-specification:Arial;writing-mode:lr-tb;fill:#231f20;fill-opacity:1;fill-rule:nonzero;stroke:none" id="text260"><tspan x="0 7.1999998 14.2 21.4 28.4" y="0" sodipodi:role="line" id="tspan258">&#9650;&#9660;&#9670;&#10070;P</tspan></text>
        <text xml:space="preserve" transform="matrix(1.33333 0 0 -1.33333 240 138.04)" style="font-variant:normal;font-weight:normal;font-size:0.1px;font-family:Arial;-inkscape-font-specification:Arial;writing-mode:lr-tb;fill:#231f20;fill-opacity:1;fill-rule:nonzero;stroke:none" id="text264"><tspan x="0 7.0999999" y="0" sodipodi:role="line" id="tspan262">&#10018;&#10032;</tspan></text>
        <text xml:space="preserve" transform="matrix(1.33333 0 0 -1.33333 258.8 138.04)" style="font-variant:normal;font-weight:normal;font-size:0.1px;font-family:Arial;-inkscape-font-specification:Arial;writing-mode:lr-tb;fill:#231f20;fill-opacity:1;fill-rule:nonzero;stroke:none" id="text272"><tspan x="0" y="0" id="tspan266">&#10008;</tspan><tspan x="-161.5" y="-10.1" id="tspan268">&#9660;</tspan><tspan x="-154.5" y="-10" id="tspan270">&#10089;</tspan></text>
        <text xml:space="preserve" transform="matrix(1.33333 0 0 -1.33333 62 151.373)" style="font-variant:normal;font-weight:normal;font-size:0.1px;font-family:Arial;-inkscape-font-specification:Arial;writing-mode:lr-tb;fill:#231f20;fill-opacity:1;fill-rule:nonzero;stroke:none" id="text276"><tspan x="0 7 14" y="0" sodipodi:role="line" id="tspan274">&#10031;&#10017;&#10009;</tspan></text>
        <text xml:space="preserve" transform="matrix(1.33333 0 0 -1.33333 89.7333 151.373)" style="font-variant:normal;font-weight:normal;font-size:0.1px;font-family:Arial;-inkscape-font-specification:Arial;writing-mode:lr-tb;fill:#231f20;fill-opacity:1;fill-rule:nonzero;stroke:none" id="text280"><tspan x="0 7.0999999 13.9 20.9" y="0" sodipodi:role="line" id="tspan278">&#10083;&#10011;&#9998;&#10012;</tspan></text>
      </svg>